  0
SECTION
  2
HEADER
  9
$ACADVER
  1
AC1014
  9
$HANDSEED
  5
FFFF
  9
$MEASUREMENT
 70
     1
  0
ENDSEC
  0
SECTION
  2
TABLES
  0
TABLE
  2
VPORT
  5
8
330
0
100
AcDbSymbolTable
 70
     4
  0
VPORT
  5
2E
330
8
100
AcDbSymbolTableRecord
100
AcDbViewportTableRecord
  2
*ACTIVE
 70
     0
 10
0.0
 20
0.0
 11
1.0
 21
1.0
 12
210.0
 22
148.5
 13
0.0
 23
0.0
 14
10.0
 24
10.0
 15
10.0
 25
10.0
 16
0.0
 26
0.0
 36
1.0
 17
0.0
 27
0.0
 37
0.0
 40
341.0
 41
1.24
 42
50.0
 43
0.0
 44
0.0
 50
0.0
 51
0.0
 71
     0
 72
   100
 73
     1
 74
     3
 75
     0
 76
     0
 77
     0
 78
     0
  0
ENDTAB
  0
TABLE
  2
LTYPE
  5
5
330
0
100
AcDbSymbolTable
 70
     1
  0
LTYPE
  5
14
330
5
100
AcDbSymbolTableRecord
100
AcDbLinetypeTableRecord
  2
BYBLOCK
 70
     0
  3

 72
    65
 73
     0
 40
0.0
  0
LTYPE
  5
15
330
5
100
AcDbSymbolTableRecord
100
AcDbLinetypeTableRecord
  2
BYLAYER
 70
     0
  3

 72
    65
 73
     0
 40
0.0
  0
LTYPE
  5
16
330
5
100
AcDbSymbolTableRecord
100
AcDbLinetypeTableRecord
  2
CONTINUOUS
 70
     0
  3
Solid line
 72
    65
 73
     0
 40
0.0
  0
ENDTAB
  0
TABLE
  2
LAYER
  5
2
100
AcDbSymbolTable
 70
1
  0
LAYER
  5
50
100
AcDbSymbolTableRecord
100
AcDbLayerTableRecord
  2
0
 70
0
  6
CONTINUOUS
  0
ENDTAB
  0
TABLE
  2
STYLE
  5
3
330
0
100
AcDbSymbolTable
 70
     1
  0
STYLE
  5
11
330
3
100
AcDbSymbolTableRecord
100
AcDbTextStyleTableRecord
  2
STANDARD
 70
     0
 40
0.0
 41
1.0
 50
0.0
 71
     0
 42
2.5
  3
txt
  4

  0
ENDTAB
  0
TABLE
  2
VIEW
  5
6
330
0
100
AcDbSymbolTable
 70
     0
  0
ENDTAB
  0
TABLE
  2
UCS
  5
7
330
0
100
AcDbSymbolTable
 70
     0
  0
ENDTAB
  0
TABLE
  2
APPID
  5
9
330
0
100
AcDbSymbolTable
 70
     2
  0
APPID
  5
12
330
9
100
AcDbSymbolTableRecord
100
AcDbRegAppTableRecord
  2
ACAD
 70
     0
  0
ENDTAB
  0
TABLE
  2
DIMSTYLE
  5
A
330
0
100
AcDbSymbolTable
 70
     1
  0
DIMSTYLE
105
27
330
A
100
AcDbSymbolTableRecord
100
AcDbDimStyleTableRecord
  2
ISO-25
 70
     0
  3

  4

  5

  6

  7

 40
1.0
 41
2.5
 42
0.625
 43
3.75
 44
1.25
 45
0.0
 46
0.0
 47
0.0
 48
0.0
140
2.5
141
2.5
142
0.0
143
0.03937007874016
144
1.0
145
0.0
146
1.0
147
0.625
 71
     0
 72
     0
 73
     0
 74
     0
 75
     0
 76
     0
 77
     1
 78
     8
170
     0
171
     3
172
     1
173
     0
174
     0
175
     0
176
     0
177
     0
178
     0
270
     2
271
     2
272
     2
273
     2
274
     3
340
11
275
     0
280
     0
281
     0
282
     0
283
     0
284
     8
285
     0
286
     0
287
     3
288
     0
  0
ENDTAB
  0
TABLE
  2
BLOCK_RECORD
  5
1
330
0
100
AcDbSymbolTable
 70
     1
  0
BLOCK_RECORD
  5
1F
330
1
100
AcDbSymbolTableRecord
100
AcDbBlockTableRecord
  2
*MODEL_SPACE
  0
BLOCK_RECORD
  5
1B
330
1
100
AcDbSymbolTableRecord
100
AcDbBlockTableRecord
  2
*PAPER_SPACE
  0
ENDTAB
  0
ENDSEC
  0
SECTION
  2
BLOCKS
  0
BLOCK
  5
20
330
1F
100
AcDbEntity
  8
0
100
AcDbBlockBegin
  2
*MODEL_SPACE
 70
     0
 10
0.0
 20
0.0
 30
0.0
  3
*MODEL_SPACE
  1

  0
ENDBLK
  5
21
330
1F
100
AcDbEntity
  8
0
100
AcDbBlockEnd
  0
BLOCK
  5
1C
330
1B
100
AcDbEntity
 67
     1
  8
0
100
AcDbBlockBegin
  2
*PAPER_SPACE
  1

  0
ENDBLK
  5
1D
330
1B
100
AcDbEntity
 67
     1
  8
0
100
AcDbBlockEnd
  0
ENDSEC
  0
SECTION
  2
ENTITIES
  0
LWPOLYLINE
  5
100
100
AcDbEntity
  8
0
 62
7
100
AcDbPolyline
 90
26
 70
0
 10
104.807000
 20
113.013000
 30
0.0
 10
104.434000
 20
113.109000
 30
0.0
 10
104.097000
 20
113.295000
 30
0.0
 10
103.816000
 20
113.558000
 30
0.0
 10
103.609000
 20
113.884000
 30
0.0
 10
103.490000
 20
114.250000
 30
0.0
 10
103.466000
 20
114.634000
 30
0.0
 10
103.538000
 20
115.013000
 30
0.0
 10
103.702000
 20
115.361000
 30
0.0
 10
103.948000
 20
115.658000
 30
0.0
 10
104.260000
 20
115.885000
 30
0.0
 10
104.618000
 20
116.026000
 30
0.0
 10
105.000000
 20
116.075000
 30
0.0
 10
105.382000
 20
116.026000
 30
0.0
 10
105.740000
 20
115.885000
 30
0.0
 10
106.052000
 20
115.658000
 30
0.0
 10
106.298000
 20
115.361000
 30
0.0
 10
106.462000
 20
115.013000
 30
0.0
 10
106.534000
 20
114.634000
 30
0.0
 10
106.510000
 20
114.250000
 30
0.0
 10
106.391000
 20
113.884000
 30
0.0
 10
106.184000
 20
113.558000
 30
0.0
 10
105.903000
 20
113.295000
 30
0.0
 10
105.566000
 20
113.109000
 30
0.0
 10
105.193000
 20
113.013000
 30
0.0
 10
104.807000
 20
113.013000
 30
0.0
  0
LWPOLYLINE
  5
101
100
AcDbEntity
  8
0
 62
7
100
AcDbPolyline
 90
26
 70
0
 10
104.807000
 20
81.244200
 30
0.0
 10
104.434000
 20
81.340000
 30
0.0
 10
104.097000
 20
81.525600
 30
0.0
 10
103.816000
 20
81.789400
 30
0.0
 10
103.609000
 20
82.114600
 30
0.0
 10
103.490000
 20
82.480900
 30
0.0
 10
103.466000
 20
82.865500
 30
0.0
 10
103.538000
 20
83.243800
 30
0.0
 10
103.702000
 20
83.592400
 30
0.0
 10
103.948000
 20
83.889200
 30
0.0
 10
104.260000
 20
84.115600
 30
0.0
 10
104.618000
 20
84.257500
 30
0.0
 10
105.000000
 20
84.305800
 30
0.0
 10
105.382000
 20
84.257500
 30
0.0
 10
105.740000
 20
84.115600
 30
0.0
 10
106.052000
 20
83.889200
 30
0.0
 10
106.298000
 20
83.592400
 30
0.0
 10
106.462000
 20
83.243800
 30
0.0
 10
106.534000
 20
82.865500
 30
0.0
 10
106.510000
 20
82.480900
 30
0.0
 10
106.391000
 20
82.114600
 30
0.0
 10
106.184000
 20
81.789400
 30
0.0
 10
105.903000
 20
81.525600
 30
0.0
 10
105.566000
 20
81.340000
 30
0.0
 10
105.193000
 20
81.244200
 30
0.0
 10
104.807000
 20
81.244200
 30
0.0
  0
LWPOLYLINE
  5
102
100
AcDbEntity
  8
0
 62
7
100
AcDbPolyline
 90
26
 70
0
 10
104.807000
 20
31.475300
 30
0.0
 10
104.434000
 20
31.571100
 30
0.0
 10
104.097000
 20
31.756700
 30
0.0
 10
103.816000
 20
32.020400
 30
0.0
 10
103.609000
 20
32.345700
 30
0.0
 10
103.490000
 20
32.712000
 30
0.0
 10
103.466000
 20
33.096500
 30
0.0
 10
103.538000
 20
33.474900
 30
0.0
 10
103.702000
 20
33.823400
 30
0.0
 10
103.948000
 20
34.120300
 30
0.0
 10
104.260000
 20
34.346700
 30
0.0
 10
104.618000
 20
34.488500
 30
0.0
 10
105.000000
 20
34.536800
 30
0.0
 10
105.382000
 20
34.488500
 30
0.0
 10
105.740000
 20
34.346700
 30
0.0
 10
106.052000
 20
34.120300
 30
0.0
 10
106.298000
 20
33.823400
 30
0.0
 10
106.462000
 20
33.474900
 30
0.0
 10
106.534000
 20
33.096500
 30
0.0
 10
106.510000
 20
32.712000
 30
0.0
 10
106.391000
 20
32.345700
 30
0.0
 10
106.184000
 20
32.020400
 30
0.0
 10
105.903000
 20
31.756700
 30
0.0
 10
105.566000
 20
31.571100
 30
0.0
 10
105.193000
 20
31.475300
 30
0.0
 10
104.807000
 20
31.475300
 30
0.0
  0
LWPOLYLINE
  5
103
100
AcDbEntity
  8
0
 62
7
100
AcDbPolyline
 90
26
 70
0
 10
-105.193000
 20
113.013000
 30
0.0
 10
-105.566000
 20
113.109000
 30
0.0
 10
-105.903000
 20
113.295000
 30
0.0
 10
-106.184000
 20
113.558000
 30
0.0
 10
-106.391000
 20
113.884000
 30
0.0
 10
-106.510000
 20
114.250000
 30
0.0
 10
-106.534000
 20
114.634000
 30
0.0
 10
-106.462000
 20
115.013000
 30
0.0
 10
-106.298000
 20
115.361000
 30
0.0
 10
-106.052000
 20
115.658000
 30
0.0
 10
-105.740000
 20
115.885000
 30
0.0
 10
-105.382000
 20
116.026000
 30
0.0
 10
-105.000000
 20
116.075000
 30
0.0
 10
-104.618000
 20
116.026000
 30
0.0
 10
-104.260000
 20
115.885000
 30
0.0
 10
-103.948000
 20
115.658000
 30
0.0
 10
-103.702000
 20
115.361000
 30
0.0
 10
-103.538000
 20
115.013000
 30
0.0
 10
-103.466000
 20
114.634000
 30
0.0
 10
-103.490000
 20
114.250000
 30
0.0
 10
-103.609000
 20
113.884000
 30
0.0
 10
-103.816000
 20
113.558000
 30
0.0
 10
-104.097000
 20
113.295000
 30
0.0
 10
-104.434000
 20
113.109000
 30
0.0
 10
-104.807000
 20
113.013000
 30
0.0
 10
-105.193000
 20
113.013000
 30
0.0
  0
LWPOLYLINE
  5
104
100
AcDbEntity
  8
0
 62
7
100
AcDbPolyline
 90
26
 70
0
 10
-105.193000
 20
81.244200
 30
0.0
 10
-105.566000
 20
81.340000
 30
0.0
 10
-105.903000
 20
81.525600
 30
0.0
 10
-106.184000
 20
81.789400
 30
0.0
 10
-106.391000
 20
82.114600
 30
0.0
 10
-106.510000
 20
82.480900
 30
0.0
 10
-106.534000
 20
82.865500
 30
0.0
 10
-106.462000
 20
83.243800
 30
0.0
 10
-106.298000
 20
83.592400
 30
0.0
 10
-106.052000
 20
83.889200
 30
0.0
 10
-105.740000
 20
84.115600
 30
0.0
 10
-105.382000
 20
84.257500
 30
0.0
 10
-105.000000
 20
84.305800
 30
0.0
 10
-104.618000
 20
84.257500
 30
0.0
 10
-104.260000
 20
84.115600
 30
0.0
 10
-103.948000
 20
83.889200
 30
0.0
 10
-103.702000
 20
83.592400
 30
0.0
 10
-103.538000
 20
83.243800
 30
0.0
 10
-103.466000
 20
82.865500
 30
0.0
 10
-103.490000
 20
82.480900
 30
0.0
 10
-103.609000
 20
82.114600
 30
0.0
 10
-103.816000
 20
81.789400
 30
0.0
 10
-104.097000
 20
81.525600
 30
0.0
 10
-104.434000
 20
81.340000
 30
0.0
 10
-104.807000
 20
81.244200
 30
0.0
 10
-105.193000
 20
81.244200
 30
0.0
  0
LWPOLYLINE
  5
105
100
AcDbEntity
  8
0
 62
7
100
AcDbPolyline
 90
26
 70
0
 10
-105.193000
 20
31.475300
 30
0.0
 10
-105.566000
 20
31.571100
 30
0.0
 10
-105.903000
 20
31.756700
 30
0.0
 10
-106.184000
 20
32.020400
 30
0.0
 10
-106.391000
 20
32.345700
 30
0.0
 10
-106.510000
 20
32.712000
 30
0.0
 10
-106.534000
 20
33.096500
 30
0.0
 10
-106.462000
 20
33.474900
 30
0.0
 10
-106.298000
 20
33.823400
 30
0.0
 10
-106.052000
 20
34.120300
 30
0.0
 10
-105.740000
 20
34.346700
 30
0.0
 10
-105.382000
 20
34.488500
 30
0.0
 10
-105.000000
 20
34.536800
 30
0.0
 10
-104.618000
 20
34.488500
 30
0.0
 10
-104.260000
 20
34.346700
 30
0.0
 10
-103.948000
 20
34.120300
 30
0.0
 10
-103.702000
 20
33.823400
 30
0.0
 10
-103.538000
 20
33.474900
 30
0.0
 10
-103.466000
 20
33.096500
 30
0.0
 10
-103.490000
 20
32.712000
 30
0.0
 10
-103.609000
 20
32.345700
 30
0.0
 10
-103.816000
 20
32.020400
 30
0.0
 10
-104.097000
 20
31.756700
 30
0.0
 10
-104.434000
 20
31.571100
 30
0.0
 10
-104.807000
 20
31.475300
 30
0.0
 10
-105.193000
 20
31.475300
 30
0.0
  0
LWPOLYLINE
  5
106
100
AcDbEntity
  8
0
 62
7
100
AcDbPolyline
 90
26
 70
0
 10
-0.192581
 20
91.875300
 30
0.0
 10
-0.565704
 20
91.971100
 30
0.0
 10
-0.903305
 20
92.156700
 30
0.0
 10
-1.184140
 20
92.420400
 30
0.0
 10
-1.390560
 20
92.745700
 30
0.0
 10
-1.509580
 20
93.112000
 30
0.0
 10
-1.533770
 20
93.496500
 30
0.0
 10
-1.461610
 20
93.874900
 30
0.0
 10
-1.297580
 20
94.223500
 30
0.0
 10
-1.052020
 20
94.520300
 30
0.0
 10
-0.740402
 20
94.746700
 30
0.0
 10
-0.382187
 20
94.888500
 30
0.0
 10
0.000000
 20
94.936800
 30
0.0
 10
0.382187
 20
94.888500
 30
0.0
 10
0.740402
 20
94.746700
 30
0.0
 10
1.052020
 20
94.520300
 30
0.0
 10
1.297580
 20
94.223500
 30
0.0
 10
1.461610
 20
93.874900
 30
0.0
 10
1.533770
 20
93.496500
 30
0.0
 10
1.509580
 20
93.112000
 30
0.0
 10
1.390560
 20
92.745700
 30
0.0
 10
1.184140
 20
92.420400
 30
0.0
 10
0.903305
 20
92.156700
 30
0.0
 10
0.565704
 20
91.971100
 30
0.0
 10
0.192581
 20
91.875300
 30
0.0
 10
-0.192581
 20
91.875300
 30
0.0
  0
LWPOLYLINE
  5
107
100
AcDbEntity
  8
0
 62
7
100
AcDbPolyline
 90
26
 70
0
 10
-22.692600
 20
75.375300
 30
0.0
 10
-23.065700
 20
75.471100
 30
0.0
 10
-23.403300
 20
75.656700
 30
0.0
 10
-23.684100
 20
75.920400
 30
0.0
 10
-23.890600
 20
76.245700
 30
0.0
 10
-24.009600
 20
76.612000
 30
0.0
 10
-24.033800
 20
76.996500
 30
0.0
 10
-23.961600
 20
77.374900
 30
0.0
 10
-23.797600
 20
77.723500
 30
0.0
 10
-23.552000
 20
78.020300
 30
0.0
 10
-23.240400
 20
78.246700
 30
0.0
 10
-22.882200
 20
78.388500
 30
0.0
 10
-22.500000
 20
78.436800
 30
0.0
 10
-22.117800
 20
78.388500
 30
0.0
 10
-21.759600
 20
78.246700
 30
0.0
 10
-21.448000
 20
78.020300
 30
0.0
 10
-21.202400
 20
77.723500
 30
0.0
 10
-21.038400
 20
77.374900
 30
0.0
 10
-20.966200
 20
76.996500
 30
0.0
 10
-20.990400
 20
76.612000
 30
0.0
 10
-21.109400
 20
76.245700
 30
0.0
 10
-21.315800
 20
75.920400
 30
0.0
 10
-21.596700
 20
75.656700
 30
0.0
 10
-21.934300
 20
75.471100
 30
0.0
 10
-22.307400
 20
75.375300
 30
0.0
 10
-22.692600
 20
75.375300
 30
0.0
  0
LWPOLYLINE
  5
108
100
AcDbEntity
  8
0
 62
7
100
AcDbPolyline
 90
26
 70
0
 10
22.307400
 20
75.375300
 30
0.0
 10
21.934300
 20
75.471100
 30
0.0
 10
21.596700
 20
75.656700
 30
0.0
 10
21.315800
 20
75.920400
 30
0.0
 10
21.109400
 20
76.245700
 30
0.0
 10
20.990400
 20
76.612000
 30
0.0
 10
20.966200
 20
76.996500
 30
0.0
 10
21.038400
 20
77.374900
 30
0.0
 10
21.202400
 20
77.723500
 30
0.0
 10
21.448000
 20
78.020300
 30
0.0
 10
21.759600
 20
78.246700
 30
0.0
 10
22.117800
 20
78.388500
 30
0.0
 10
22.500000
 20
78.436800
 30
0.0
 10
22.882200
 20
78.388500
 30
0.0
 10
23.240400
 20
78.246700
 30
0.0
 10
23.552000
 20
78.020300
 30
0.0
 10
23.797600
 20
77.723500
 30
0.0
 10
23.961600
 20
77.374900
 30
0.0
 10
24.033800
 20
76.996500
 30
0.0
 10
24.009600
 20
76.612000
 30
0.0
 10
23.890600
 20
76.245700
 30
0.0
 10
23.684100
 20
75.920400
 30
0.0
 10
23.403300
 20
75.656700
 30
0.0
 10
23.065700
 20
75.471100
 30
0.0
 10
22.692600
 20
75.375300
 30
0.0
 10
22.307400
 20
75.375300
 30
0.0
  0
LWPOLYLINE
  5
109
100
AcDbEntity
  8
0
 62
7
100
AcDbPolyline
 90
26
 70
0
 10
27.025100
 20
-1.461610
 30
0.0
 10
26.676500
 20
-1.297580
 30
0.0
 10
26.379700
 20
-1.052030
 30
0.0
 10
26.153300
 20
-0.740356
 30
0.0
 10
26.011500
 20
-0.382172
 30
0.0
 10
25.963200
 20
-0.000000
 30
0.0
 10
26.011500
 20
0.382172
 30
0.0
 10
26.153300
 20
0.740356
 30
0.0
 10
26.379700
 20
1.052030
 30
0.0
 10
26.676500
 20
1.297580
 30
0.0
 10
27.025100
 20
1.461610
 30
0.0
 10
27.403400
 20
1.533770
 30
0.0
 10
27.788000
 20
1.509580
 30
0.0
 10
28.154300
 20
1.390560
 30
0.0
 10
28.479600
 20
1.184130
 30
0.0
 10
28.743300
 20
0.903290
 30
0.0
 10
28.928900
 20
0.565735
 30
0.0
 10
29.024700
 20
0.192566
 30
0.0
 10
29.024700
 20
-0.192566
 30
0.0
 10
28.928900
 20
-0.565735
 30
0.0
 10
28.743300
 20
-0.903336
 30
0.0
 10
28.479600
 20
-1.184130
 30
0.0
 10
28.154300
 20
-1.390560
 30
0.0
 10
27.788000
 20
-1.509580
 30
0.0
 10
27.403400
 20
-1.533770
 30
0.0
 10
27.025100
 20
-1.461610
 30
0.0
  0
LWPOLYLINE
  5
10a
100
AcDbEntity
  8
0
 62
7
100
AcDbPolyline
 90
26
 70
0
 10
109.525000
 20
-1.461610
 30
0.0
 10
109.177000
 20
-1.297580
 30
0.0
 10
108.880000
 20
-1.052030
 30
0.0
 10
108.653000
 20
-0.740356
 30
0.0
 10
108.511000
 20
-0.382172
 30
0.0
 10
108.463000
 20
-0.000000
 30
0.0
 10
108.511000
 20
0.382172
 30
0.0
 10
108.653000
 20
0.740356
 30
0.0
 10
108.880000
 20
1.052030
 30
0.0
 10
109.177000
 20
1.297580
 30
0.0
 10
109.525000
 20
1.461610
 30
0.0
 10
109.903000
 20
1.533770
 30
0.0
 10
110.288000
 20
1.509580
 30
0.0
 10
110.654000
 20
1.390560
 30
0.0
 10
110.980000
 20
1.184130
 30
0.0
 10
111.243000
 20
0.903290
 30
0.0
 10
111.429000
 20
0.565735
 30
0.0
 10
111.525000
 20
0.192566
 30
0.0
 10
111.525000
 20
-0.192566
 30
0.0
 10
111.429000
 20
-0.565735
 30
0.0
 10
111.243000
 20
-0.903336
 30
0.0
 10
110.980000
 20
-1.184130
 30
0.0
 10
110.654000
 20
-1.390560
 30
0.0
 10
110.288000
 20
-1.509580
 30
0.0
 10
109.903000
 20
-1.533770
 30
0.0
 10
109.525000
 20
-1.461610
 30
0.0
  0
LWPOLYLINE
  5
10b
100
AcDbEntity
  8
0
 62
7
100
AcDbPolyline
 90
26
 70
0
 10
109.525000
 20
-49.961600
 30
0.0
 10
109.177000
 20
-49.797600
 30
0.0
 10
108.880000
 20
-49.552000
 30
0.0
 10
108.653000
 20
-49.240400
 30
0.0
 10
108.511000
 20
-48.882200
 30
0.0
 10
108.463000
 20
-48.500000
 30
0.0
 10
108.511000
 20
-48.117800
 30
0.0
 10
108.653000
 20
-47.759600
 30
0.0
 10
108.880000
 20
-47.448000
 30
0.0
 10
109.177000
 20
-47.202400
 30
0.0
 10
109.525000
 20
-47.038400
 30
0.0
 10
109.903000
 20
-46.966200
 30
0.0
 10
110.288000
 20
-46.990400
 30
0.0
 10
110.654000
 20
-47.109400
 30
0.0
 10
110.980000
 20
-47.315900
 30
0.0
 10
111.243000
 20
-47.596600
 30
0.0
 10
111.429000
 20
-47.934200
 30
0.0
 10
111.525000
 20
-48.307400
 30
0.0
 10
111.525000
 20
-48.692600
 30
0.0
 10
111.429000
 20
-49.065700
 30
0.0
 10
111.243000
 20
-49.403300
 30
0.0
 10
110.980000
 20
-49.684100
 30
0.0
 10
110.654000
 20
-49.890600
 30
0.0
 10
110.288000
 20
-50.009600
 30
0.0
 10
109.903000
 20
-50.033800
 30
0.0
 10
109.525000
 20
-49.961600
 30
0.0
  0
LWPOLYLINE
  5
10c
100
AcDbEntity
  8
0
 62
7
100
AcDbPolyline
 90
2
 70
0
 10
-36.900000
 20
-66.000000
 30
0.0
 10
-36.900000
 20
-66.005500
 30
0.0
  0
LWPOLYLINE
  5
10d
100
AcDbEntity
  8
0
 62
7
100
AcDbPolyline
 90
26
 70
0
 10
10.807400
 20
-56.924700
 30
0.0
 10
10.434300
 20
-56.828900
 30
0.0
 10
10.096700
 20
-56.643300
 30
0.0
 10
9.815860
 20
-56.379600
 30
0.0
 10
9.609420
 20
-56.054300
 30
0.0
 10
9.490400
 20
-55.688000
 30
0.0
 10
9.466220
 20
-55.303500
 30
0.0
 10
9.538380
 20
-54.925100
 30
0.0
 10
9.702410
 20
-54.576500
 30
0.0
 10
9.947950
 20
-54.279700
 30
0.0
 10
10.259600
 20
-54.053300
 30
0.0
 10
10.617800
 20
-53.911500
 30
0.0
 10
11.000000
 20
-53.863200
 30
0.0
 10
11.382200
 20
-53.911500
 30
0.0
 10
11.740400
 20
-54.053300
 30
0.0
 10
12.052000
 20
-54.279700
 30
0.0
 10
12.297600
 20
-54.576500
 30
0.0
 10
12.461600
 20
-54.925100
 30
0.0
 10
12.533800
 20
-55.303500
 30
0.0
 10
12.509600
 20
-55.688000
 30
0.0
 10
12.390600
 20
-56.054300
 30
0.0
 10
12.184100
 20
-56.379600
 30
0.0
 10
11.903300
 20
-56.643300
 30
0.0
 10
11.565700
 20
-56.828900
 30
0.0
 10
11.192600
 20
-56.924700
 30
0.0
 10
10.807400
 20
-56.924700
 30
0.0
  0
LWPOLYLINE
  5
10e
100
AcDbEntity
  8
0
 62
7
100
AcDbPolyline
 90
26
 70
0
 10
-69.151800
 20
-73.424700
 30
0.0
 10
-69.524900
 20
-73.328900
 30
0.0
 10
-69.862500
 20
-73.143300
 30
0.0
 10
-70.143300
 20
-72.879600
 30
0.0
 10
-70.349800
 20
-72.554300
 30
0.0
 10
-70.468800
 20
-72.188000
 30
0.0
 10
-70.493000
 20
-71.803500
 30
0.0
 10
-70.420800
 20
-71.425100
 30
0.0
 10
-70.256800
 20
-71.076500
 30
0.0
 10
-70.011200
 20
-70.779700
 30
0.0
 10
-69.699600
 20
-70.553300
 30
0.0
 10
-69.341400
 20
-70.411500
 30
0.0
 10
-68.959200
 20
-70.363200
 30
0.0
 10
-68.577000
 20
-70.411500
 30
0.0
 10
-68.218800
 20
-70.553300
 30
0.0
 10
-67.907200
 20
-70.779700
 30
0.0
 10
-67.661600
 20
-71.076500
 30
0.0
 10
-67.497600
 20
-71.425100
 30
0.0
 10
-67.425400
 20
-71.803500
 30
0.0
 10
-67.449600
 20
-72.188000
 30
0.0
 10
-67.568600
 20
-72.554300
 30
0.0
 10
-67.775100
 20
-72.879600
 30
0.0
 10
-68.055900
 20
-73.143300
 30
0.0
 10
-68.393500
 20
-73.328900
 30
0.0
 10
-68.766600
 20
-73.424700
 30
0.0
 10
-69.151800
 20
-73.424700
 30
0.0
  0
LWPOLYLINE
  5
10f
100
AcDbEntity
  8
0
 62
7
100
AcDbPolyline
 90
26
 70
0
 10
22.307400
 20
-73.424700
 30
0.0
 10
21.934300
 20
-73.328900
 30
0.0
 10
21.596700
 20
-73.143300
 30
0.0
 10
21.315900
 20
-72.879600
 30
0.0
 10
21.109400
 20
-72.554300
 30
0.0
 10
20.990400
 20
-72.188000
 30
0.0
 10
20.966200
 20
-71.803500
 30
0.0
 10
21.038400
 20
-71.425100
 30
0.0
 10
21.202400
 20
-71.076500
 30
0.0
 10
21.448000
 20
-70.779700
 30
0.0
 10
21.759600
 20
-70.553300
 30
0.0
 10
22.117800
 20
-70.411500
 30
0.0
 10
22.500000
 20
-70.363200
 30
0.0
 10
22.882200
 20
-70.411500
 30
0.0
 10
23.240400
 20
-70.553300
 30
0.0
 10
23.552000
 20
-70.779700
 30
0.0
 10
23.797600
 20
-71.076500
 30
0.0
 10
23.961600
 20
-71.425100
 30
0.0
 10
24.033800
 20
-71.803500
 30
0.0
 10
24.009600
 20
-72.188000
 30
0.0
 10
23.890600
 20
-72.554300
 30
0.0
 10
23.684100
 20
-72.879600
 30
0.0
 10
23.403300
 20
-73.143300
 30
0.0
 10
23.065700
 20
-73.328900
 30
0.0
 10
22.692600
 20
-73.424700
 30
0.0
 10
22.307400
 20
-73.424700
 30
0.0
  0
LWPOLYLINE
  5
110
100
AcDbEntity
  8
0
 62
7
100
AcDbPolyline
 90
26
 70
0
 10
77.682400
 20
-89.524700
 30
0.0
 10
77.309200
 20
-89.428900
 30
0.0
 10
76.971700
 20
-89.243300
 30
0.0
 10
76.690900
 20
-88.979600
 30
0.0
 10
76.484400
 20
-88.654300
 30
0.0
 10
76.365400
 20
-88.288000
 30
0.0
 10
76.341200
 20
-87.903400
 30
0.0
 10
76.413400
 20
-87.525100
 30
0.0
 10
76.577400
 20
-87.176500
 30
0.0
 10
76.823000
 20
-86.879700
 30
0.0
 10
77.134600
 20
-86.653300
 30
0.0
 10
77.492800
 20
-86.511500
 30
0.0
 10
77.875000
 20
-86.463200
 30
0.0
 10
78.257200
 20
-86.511500
 30
0.0
 10
78.615400
 20
-86.653300
 30
0.0
 10
78.927000
 20
-86.879700
 30
0.0
 10
79.172600
 20
-87.176500
 30
0.0
 10
79.336600
 20
-87.525100
 30
0.0
 10
79.408800
 20
-87.903400
 30
0.0
 10
79.384600
 20
-88.288000
 30
0.0
 10
79.265600
 20
-88.654300
 30
0.0
 10
79.059100
 20
-88.979600
 30
0.0
 10
78.778300
 20
-89.243300
 30
0.0
 10
78.440700
 20
-89.428900
 30
0.0
 10
78.067600
 20
-89.524700
 30
0.0
 10
77.682400
 20
-89.524700
 30
0.0
  0
LWPOLYLINE
  5
111
100
AcDbEntity
  8
0
 62
7
100
AcDbPolyline
 90
26
 70
0
 10
57.807400
 20
-101.025000
 30
0.0
 10
57.434200
 20
-100.929000
 30
0.0
 10
57.096700
 20
-100.743000
 30
0.0
 10
56.815900
 20
-100.480000
 30
0.0
 10
56.609400
 20
-100.154000
 30
0.0
 10
56.490400
 20
-99.788000
 30
0.0
 10
56.466200
 20
-99.403400
 30
0.0
 10
56.538400
 20
-99.025100
 30
0.0
 10
56.702400
 20
-98.676500
 30
0.0
 10
56.948000
 20
-98.379700
 30
0.0
 10
57.259600
 20
-98.153300
 30
0.0
 10
57.617800
 20
-98.011500
 30
0.0
 10
58.000000
 20
-97.963200
 30
0.0
 10
58.382200
 20
-98.011500
 30
0.0
 10
58.740400
 20
-98.153300
 30
0.0
 10
59.052000
 20
-98.379700
 30
0.0
 10
59.297600
 20
-98.676500
 30
0.0
 10
59.461600
 20
-99.025100
 30
0.0
 10
59.533800
 20
-99.403400
 30
0.0
 10
59.509600
 20
-99.788000
 30
0.0
 10
59.390600
 20
-100.154000
 30
0.0
 10
59.184100
 20
-100.480000
 30
0.0
 10
58.903300
 20
-100.743000
 30
0.0
 10
58.565700
 20
-100.929000
 30
0.0
 10
58.192600
 20
-101.025000
 30
0.0
 10
57.807400
 20
-101.025000
 30
0.0
  0
LWPOLYLINE
  5
112
100
AcDbEntity
  8
0
 62
7
100
AcDbPolyline
 90
26
 70
0
 10
97.557400
 20
-101.025000
 30
0.0
 10
97.184200
 20
-100.929000
 30
0.0
 10
96.846700
 20
-100.743000
 30
0.0
 10
96.565900
 20
-100.480000
 30
0.0
 10
96.359400
 20
-100.154000
 30
0.0
 10
96.240400
 20
-99.788000
 30
0.0
 10
96.216200
 20
-99.403400
 30
0.0
 10
96.288400
 20
-99.025100
 30
0.0
 10
96.452400
 20
-98.676500
 30
0.0
 10
96.698000
 20
-98.379700
 30
0.0
 10
97.009600
 20
-98.153300
 30
0.0
 10
97.367800
 20
-98.011500
 30
0.0
 10
97.750000
 20
-97.963200
 30
0.0
 10
98.132200
 20
-98.011500
 30
0.0
 10
98.490400
 20
-98.153300
 30
0.0
 10
98.802000
 20
-98.379700
 30
0.0
 10
99.047600
 20
-98.676500
 30
0.0
 10
99.211600
 20
-99.025100
 30
0.0
 10
99.283800
 20
-99.403400
 30
0.0
 10
99.259600
 20
-99.788000
 30
0.0
 10
99.140600
 20
-100.154000
 30
0.0
 10
98.934100
 20
-100.480000
 30
0.0
 10
98.653300
 20
-100.743000
 30
0.0
 10
98.315700
 20
-100.929000
 30
0.0
 10
97.942600
 20
-101.025000
 30
0.0
 10
97.557400
 20
-101.025000
 30
0.0
  0
LWPOLYLINE
  5
113
100
AcDbEntity
  8
0
 62
7
100
AcDbPolyline
 90
26
 70
0
 10
-78.067600
 20
-89.524700
 30
0.0
 10
-78.440700
 20
-89.428900
 30
0.0
 10
-78.778300
 20
-89.243300
 30
0.0
 10
-79.059100
 20
-88.979600
 30
0.0
 10
-79.265600
 20
-88.654300
 30
0.0
 10
-79.384600
 20
-88.288000
 30
0.0
 10
-79.408800
 20
-87.903400
 30
0.0
 10
-79.336600
 20
-87.525100
 30
0.0
 10
-79.172600
 20
-87.176500
 30
0.0
 10
-78.927000
 20
-86.879700
 30
0.0
 10
-78.615400
 20
-86.653300
 30
0.0
 10
-78.257200
 20
-86.511500
 30
0.0
 10
-77.875000
 20
-86.463200
 30
0.0
 10
-77.492800
 20
-86.511500
 30
0.0
 10
-77.134600
 20
-86.653300
 30
0.0
 10
-76.823000
 20
-86.879700
 30
0.0
 10
-76.577400
 20
-87.176500
 30
0.0
 10
-76.413400
 20
-87.525100
 30
0.0
 10
-76.341200
 20
-87.903400
 30
0.0
 10
-76.365400
 20
-88.288000
 30
0.0
 10
-76.484400
 20
-88.654300
 30
0.0
 10
-76.690900
 20
-88.979600
 30
0.0
 10
-76.971700
 20
-89.243300
 30
0.0
 10
-77.309200
 20
-89.428900
 30
0.0
 10
-77.682400
 20
-89.524700
 30
0.0
 10
-78.067600
 20
-89.524700
 30
0.0
  0
LWPOLYLINE
  5
114
100
AcDbEntity
  8
0
 62
7
100
AcDbPolyline
 90
26
 70
0
 10
-97.942600
 20
-101.025000
 30
0.0
 10
-98.315700
 20
-100.929000
 30
0.0
 10
-98.653300
 20
-100.743000
 30
0.0
 10
-98.934100
 20
-100.480000
 30
0.0
 10
-99.140600
 20
-100.154000
 30
0.0
 10
-99.259600
 20
-99.788000
 30
0.0
 10
-99.283800
 20
-99.403400
 30
0.0
 10
-99.211600
 20
-99.025100
 30
0.0
 10
-99.047600
 20
-98.676500
 30
0.0
 10
-98.802000
 20
-98.379700
 30
0.0
 10
-98.490400
 20
-98.153300
 30
0.0
 10
-98.132200
 20
-98.011500
 30
0.0
 10
-97.750000
 20
-97.963200
 30
0.0
 10
-97.367800
 20
-98.011500
 30
0.0
 10
-97.009600
 20
-98.153300
 30
0.0
 10
-96.698000
 20
-98.379700
 30
0.0
 10
-96.452400
 20
-98.676500
 30
0.0
 10
-96.288400
 20
-99.025100
 30
0.0
 10
-96.216200
 20
-99.403400
 30
0.0
 10
-96.240400
 20
-99.788000
 30
0.0
 10
-96.359400
 20
-100.154000
 30
0.0
 10
-96.565900
 20
-100.480000
 30
0.0
 10
-96.846700
 20
-100.743000
 30
0.0
 10
-97.184200
 20
-100.929000
 30
0.0
 10
-97.557400
 20
-101.025000
 30
0.0
 10
-97.942600
 20
-101.025000
 30
0.0
  0
LWPOLYLINE
  5
115
100
AcDbEntity
  8
0
 62
7
100
AcDbPolyline
 90
26
 70
0
 10
-58.192600
 20
-101.025000
 30
0.0
 10
-58.565700
 20
-100.929000
 30
0.0
 10
-58.903300
 20
-100.743000
 30
0.0
 10
-59.184100
 20
-100.480000
 30
0.0
 10
-59.390600
 20
-100.154000
 30
0.0
 10
-59.509600
 20
-99.788000
 30
0.0
 10
-59.533800
 20
-99.403400
 30
0.0
 10
-59.461600
 20
-99.025100
 30
0.0
 10
-59.297600
 20
-98.676500
 30
0.0
 10
-59.052000
 20
-98.379700
 30
0.0
 10
-58.740400
 20
-98.153300
 30
0.0
 10
-58.382200
 20
-98.011500
 30
0.0
 10
-58.000000
 20
-97.963200
 30
0.0
 10
-57.617800
 20
-98.011500
 30
0.0
 10
-57.259600
 20
-98.153300
 30
0.0
 10
-56.948000
 20
-98.379700
 30
0.0
 10
-56.702400
 20
-98.676500
 30
0.0
 10
-56.538400
 20
-99.025100
 30
0.0
 10
-56.466200
 20
-99.403400
 30
0.0
 10
-56.490400
 20
-99.788000
 30
0.0
 10
-56.609400
 20
-100.154000
 30
0.0
 10
-56.815900
 20
-100.480000
 30
0.0
 10
-57.096700
 20
-100.743000
 30
0.0
 10
-57.434200
 20
-100.929000
 30
0.0
 10
-57.807400
 20
-101.025000
 30
0.0
 10
-58.192600
 20
-101.025000
 30
0.0
  0
ENDSEC
  0
SECTION
  2
OBJECTS
  0
DICTIONARY
  5
C
330
0
100
AcDbDictionary
  3
ACAD_GROUP
350
D
  3
ACAD_MLINESTYLE
350
17
  0
DICTIONARY
  5
D
330
C
100
AcDbDictionary
  0
DICTIONARY
  5
1A
330
C
100
AcDbDictionary
  0
DICTIONARY
  5
17
330
C
100
AcDbDictionary
  3
STANDARD
350
18
  0
DICTIONARY
  5
19
330
C
100
AcDbDictionary
  0
ENDSEC
  0
EOF
