  0
SECTION
  2
BLOCKS
  0
ENDSEC
  0
SECTION
  2
ENTITIES
  0
LINE
  8
0
 10
-114.5
 11
-114.5
 20
-60.5
 21
-15.25
  0
LINE
  8
0
 10
-114.5
 11
-97
 20
-15.25
 21
-15.25
  0
LINE
  8
0
 10
-97
 11
-97
 20
-15.25
 21
-49
  0
LINE
  8
0
 10
-97
 11
-96.966
 20
-49
 21
-49.784
  0
LINE
  8
0
 10
-96.966
 11
-96.863
 20
-49.784
 21
-50.563
  0
LINE
  8
0
 10
-96.863
 11
-96.693
 20
-50.563
 21
-51.329
  0
LINE
  8
0
 10
-96.693
 11
-96.457
 20
-51.329
 21
-52.078
  0
LINE
  8
0
 10
-96.457
 11
-96.157
 20
-52.078
 21
-52.804
  0
LINE
  8
0
 10
-96.157
 11
-95.794
 20
-52.804
 21
-53.5
  0
LINE
  8
0
 10
-95.794
 11
-95.372
 20
-53.5
 21
-54.162
  0
LINE
  8
0
 10
-95.372
 11
-95.186
 20
-54.162
 21
-54.405
  0
LINE
  8
0
 10
-95.186
 11
-95.007
 20
-54.405
 21
-54.638
  0
LINE
  8
0
 10
-95.007
 11
-94.894
 20
-54.638
 21
-54.785
  0
LINE
  8
0
 10
-94.894
 11
-94.364
 20
-54.785
 21
-55.364
  0
LINE
  8
0
 10
-94.364
 11
-93.785
 20
-55.364
 21
-55.894
  0
LINE
  8
0
 10
-93.785
 11
-93.162
 20
-55.894
 21
-56.372
  0
LINE
  8
0
 10
-93.162
 11
-92.5
 20
-56.372
 21
-56.794
  0
LINE
  8
0
 10
-92.5
 11
-91.804
 20
-56.794
 21
-57.157
  0
LINE
  8
0
 10
-91.804
 11
-91.078
 20
-57.157
 21
-57.457
  0
LINE
  8
0
 10
-91.078
 11
-90.329
 20
-57.457
 21
-57.693
  0
LINE
  8
0
 10
-90.329
 11
-89.563
 20
-57.693
 21
-57.863
  0
LINE
  8
0
 10
-89.563
 11
-88.784
 20
-57.863
 21
-57.966
  0
LINE
  8
0
 10
-88.784
 11
-88
 20
-57.966
 21
-58
  0
LINE
  8
0
 10
-88
 11
-32
 20
-58
 21
-58
  0
LINE
  8
0
 10
-32
 11
-32
 20
-58
 21
-46
  0
LINE
  8
0
 10
-32
 11
-34.922
 20
-46
 21
-46
  0
LINE
  8
0
 10
-34.922
 11
-34.922
 20
-46
 21
-49
  0
LINE
  8
0
 10
-34.922
 11
-39.078
 20
-49
 21
-49
  0
LINE
  8
0
 10
-39.078
 11
-39.078
 20
-49
 21
-46
  0
LINE
  8
0
 10
-39.078
 11
-56.922
 20
-46
 21
-46
  0
LINE
  8
0
 10
-56.922
 11
-56.922
 20
-46
 21
-49
  0
LINE
  8
0
 10
-56.922
 11
-61.078
 20
-49
 21
-49
  0
LINE
  8
0
 10
-61.078
 11
-61.078
 20
-49
 21
-46
  0
LINE
  8
0
 10
-61.078
 11
-65
 20
-46
 21
-46
  0
LINE
  8
0
 10
-65
 11
-65
 20
-46
 21
-15.25
  0
LINE
  8
0
 10
-65
 11
-25.25
 20
-15.25
 21
-15.25
  0
LINE
  8
0
 10
-25.25
 11
-25.25
 20
-15.25
 21
-60.5
  0
LINE
  8
0
 10
-25.25
 11
-114.5
 20
-60.5
 21
-60.5
  0
LINE
  8
0
 10
-114.5
 11
-114.5
 20
-14.75
 21
60.5
  0
LINE
  8
0
 10
-114.5
 11
-25.25
 20
60.5
 21
60.5
  0
LINE
  8
0
 10
-25.25
 11
-25.25
 20
60.5
 21
-14.75
  0
LINE
  8
0
 10
-25.25
 11
-65
 20
-14.75
 21
-14.75
  0
LINE
  8
0
 10
-65
 11
-65
 20
-14.75
 21
22
  0
LINE
  8
0
 10
-65
 11
-88
 20
22
 21
22
  0
LINE
  8
0
 10
-88
 11
-88.784
 20
22
 21
21.966
  0
LINE
  8
0
 10
-88.784
 11
-89.563
 20
21.966
 21
21.863
  0
LINE
  8
0
 10
-89.563
 11
-90.329
 20
21.863
 21
21.693
  0
LINE
  8
0
 10
-90.329
 11
-91.078
 20
21.693
 21
21.457
  0
LINE
  8
0
 10
-91.078
 11
-91.804
 20
21.457
 21
21.157
  0
LINE
  8
0
 10
-91.804
 11
-92.5
 20
21.157
 21
20.794
  0
LINE
  8
0
 10
-92.5
 11
-93.162
 20
20.794
 21
20.372
  0
LINE
  8
0
 10
-93.162
 11
-93.785
 20
20.372
 21
19.894
  0
LINE
  8
0
 10
-93.785
 11
-94.364
 20
19.894
 21
19.364
  0
LINE
  8
0
 10
-94.364
 11
-94.894
 20
19.364
 21
18.785
  0
LINE
  8
0
 10
-94.894
 11
-95.372
 20
18.785
 21
18.162
  0
LINE
  8
0
 10
-95.372
 11
-95.794
 20
18.162
 21
17.5
  0
LINE
  8
0
 10
-95.794
 11
-96.157
 20
17.5
 21
16.804
  0
LINE
  8
0
 10
-96.157
 11
-96.457
 20
16.804
 21
16.078
  0
LINE
  8
0
 10
-96.457
 11
-96.693
 20
16.078
 21
15.329
  0
LINE
  8
0
 10
-96.693
 11
-96.863
 20
15.329
 21
14.563
  0
LINE
  8
0
 10
-96.863
 11
-96.966
 20
14.563
 21
13.784
  0
LINE
  8
0
 10
-96.966
 11
-97
 20
13.784
 21
13
  0
LINE
  8
0
 10
-97
 11
-97
 20
13
 21
-14.75
  0
LINE
  8
0
 10
-97
 11
-114.5
 20
-14.75
 21
-14.75
  0
LINE
  8
0
 10
-115.25
 11
-115.25
 20
-17.5
 21
-12.5
  0
LINE
  8
0
 10
-115.25
 11
-115
 20
-12.5
 21
-12.5
  0
LINE
  8
0
 10
-115
 11
-115
 20
-12.5
 21
61
  0
LINE
  8
0
 10
-115
 11
-27.5
 20
61
 21
61
  0
LINE
  8
0
 10
-27.5
 11
-27.5
 20
61
 21
61.25
  0
LINE
  8
0
 10
-27.5
 11
-22.5
 20
61.25
 21
61.25
  0
LINE
  8
0
 10
-22.5
 11
-22.5
 20
61.25
 21
61
  0
LINE
  8
0
 10
-22.5
 11
115
 20
61
 21
61
  0
LINE
  8
0
 10
115
 11
115
 20
61
 21
-12.5
  0
LINE
  8
0
 10
115
 11
115.25
 20
-12.5
 21
-12.5
  0
LINE
  8
0
 10
115.25
 11
115.25
 20
-12.5
 21
-17.5
  0
LINE
  8
0
 10
115.25
 11
115
 20
-17.5
 21
-17.5
  0
LINE
  8
0
 10
115
 11
115
 20
-17.5
 21
-61
  0
LINE
  8
0
 10
115
 11
-22.5
 20
-61
 21
-61
  0
LINE
  8
0
 10
-22.5
 11
-22.5
 20
-61
 21
-61.25
  0
LINE
  8
0
 10
-22.5
 11
-27.5
 20
-61.25
 21
-61.25
  0
LINE
  8
0
 10
-27.5
 11
-27.5
 20
-61.25
 21
-61
  0
LINE
  8
0
 10
-27.5
 11
-115
 20
-61
 21
-61
  0
LINE
  8
0
 10
-115
 11
-115
 20
-61
 21
-17.5
  0
LINE
  8
0
 10
-115
 11
-115.25
 20
-17.5
 21
-17.5
  0
LINE
  8
0
 10
-92.5
 11
-92.5
 20
-48
 21
-15.25
  0
LINE
  8
0
 10
-92.5
 11
-81.5
 20
-15.25
 21
-15.25
  0
LINE
  8
0
 10
-81.5
 11
-81.5
 20
-15.25
 21
-48
  0
LINE
  8
0
 10
-81.5
 11
-81.521
 20
-48
 21
-48.479
  0
LINE
  8
0
 10
-81.521
 11
-81.584
 20
-48.479
 21
-48.955
  0
LINE
  8
0
 10
-81.584
 11
-81.59
 20
-48.955
 21
-48.983
  0
LINE
  8
0
 10
-81.59
 11
-81.629
 20
-48.983
 21
-49.159
  0
LINE
  8
0
 10
-81.629
 11
-81.687
 20
-49.159
 21
-49.423
  0
LINE
  8
0
 10
-81.687
 11
-81.832
 20
-49.423
 21
-49.881
  0
LINE
  8
0
 10
-81.832
 11
-82.015
 20
-49.881
 21
-50.324
  0
LINE
  8
0
 10
-82.015
 11
-82.237
 20
-50.324
 21
-50.75
  0
LINE
  8
0
 10
-82.237
 11
-82.495
 20
-50.75
 21
-51.155
  0
LINE
  8
0
 10
-82.495
 11
-82.787
 20
-51.155
 21
-51.535
  0
LINE
  8
0
 10
-82.787
 11
-83.111
 20
-51.535
 21
-51.889
  0
LINE
  8
0
 10
-83.111
 11
-83.465
 20
-51.889
 21
-52.213
  0
LINE
  8
0
 10
-83.465
 11
-83.845
 20
-52.213
 21
-52.505
  0
LINE
  8
0
 10
-83.845
 11
-84.25
 20
-52.505
 21
-52.763
  0
LINE
  8
0
 10
-84.25
 11
-84.676
 20
-52.763
 21
-52.985
  0
LINE
  8
0
 10
-84.676
 11
-85.119
 20
-52.985
 21
-53.168
  0
LINE
  8
0
 10
-85.119
 11
-85.576
 20
-53.168
 21
-53.313
  0
LINE
  8
0
 10
-85.576
 11
-86.045
 20
-53.313
 21
-53.416
  0
LINE
  8
0
 10
-86.045
 11
-86.521
 20
-53.416
 21
-53.479
  0
LINE
  8
0
 10
-86.521
 11
-87
 20
-53.479
 21
-53.5
  0
LINE
  8
0
 10
-87
 11
-87.479
 20
-53.5
 21
-53.479
  0
LINE
  8
0
 10
-87.479
 11
-87.955
 20
-53.479
 21
-53.416
  0
LINE
  8
0
 10
-87.955
 11
-88.424
 20
-53.416
 21
-53.313
  0
LINE
  8
0
 10
-88.424
 11
-88.881
 20
-53.313
 21
-53.168
  0
LINE
  8
0
 10
-88.881
 11
-89.324
 20
-53.168
 21
-52.985
  0
LINE
  8
0
 10
-89.324
 11
-89.75
 20
-52.985
 21
-52.763
  0
LINE
  8
0
 10
-89.75
 11
-90.155
 20
-52.763
 21
-52.505
  0
LINE
  8
0
 10
-90.155
 11
-90.535
 20
-52.505
 21
-52.213
  0
LINE
  8
0
 10
-90.535
 11
-90.889
 20
-52.213
 21
-51.889
  0
LINE
  8
0
 10
-90.889
 11
-91.213
 20
-51.889
 21
-51.535
  0
LINE
  8
0
 10
-91.213
 11
-91.505
 20
-51.535
 21
-51.155
  0
LINE
  8
0
 10
-91.505
 11
-91.763
 20
-51.155
 21
-50.75
  0
LINE
  8
0
 10
-91.763
 11
-91.985
 20
-50.75
 21
-50.324
  0
LINE
  8
0
 10
-91.985
 11
-92.168
 20
-50.324
 21
-49.881
  0
LINE
  8
0
 10
-92.168
 11
-92.313
 20
-49.881
 21
-49.423
  0
LINE
  8
0
 10
-92.313
 11
-92.371
 20
-49.423
 21
-49.159
  0
LINE
  8
0
 10
-92.371
 11
-92.41
 20
-49.159
 21
-48.983
  0
LINE
  8
0
 10
-92.41
 11
-92.416
 20
-48.983
 21
-48.955
  0
LINE
  8
0
 10
-92.416
 11
-92.479
 20
-48.955
 21
-48.479
  0
LINE
  8
0
 10
-92.479
 11
-92.5
 20
-48.479
 21
-48
  0
LINE
  8
0
 10
-92.5
 11
-92.5
 20
-14.75
 21
12
  0
LINE
  8
0
 10
-92.5
 11
-92.479
 20
12
 21
12.479
  0
LINE
  8
0
 10
-92.479
 11
-92.416
 20
12.479
 21
12.955
  0
LINE
  8
0
 10
-92.416
 11
-92.313
 20
12.955
 21
13.424
  0
LINE
  8
0
 10
-92.313
 11
-92.168
 20
13.424
 21
13.881
  0
LINE
  8
0
 10
-92.168
 11
-91.985
 20
13.881
 21
14.324
  0
LINE
  8
0
 10
-91.985
 11
-91.763
 20
14.324
 21
14.75
  0
LINE
  8
0
 10
-91.763
 11
-91.505
 20
14.75
 21
15.155
  0
LINE
  8
0
 10
-91.505
 11
-91.213
 20
15.155
 21
15.535
  0
LINE
  8
0
 10
-91.213
 11
-90.889
 20
15.535
 21
15.889
  0
LINE
  8
0
 10
-90.889
 11
-90.535
 20
15.889
 21
16.213
  0
LINE
  8
0
 10
-90.535
 11
-90.155
 20
16.213
 21
16.505
  0
LINE
  8
0
 10
-90.155
 11
-89.75
 20
16.505
 21
16.763
  0
LINE
  8
0
 10
-89.75
 11
-89.324
 20
16.763
 21
16.985
  0
LINE
  8
0
 10
-89.324
 11
-88.881
 20
16.985
 21
17.168
  0
LINE
  8
0
 10
-88.881
 11
-88.424
 20
17.168
 21
17.313
  0
LINE
  8
0
 10
-88.424
 11
-87.955
 20
17.313
 21
17.416
  0
LINE
  8
0
 10
-87.955
 11
-87.479
 20
17.416
 21
17.479
  0
LINE
  8
0
 10
-87.479
 11
-87
 20
17.479
 21
17.5
  0
LINE
  8
0
 10
-87
 11
-86.521
 20
17.5
 21
17.479
  0
LINE
  8
0
 10
-86.521
 11
-86.045
 20
17.479
 21
17.416
  0
LINE
  8
0
 10
-86.045
 11
-85.576
 20
17.416
 21
17.313
  0
LINE
  8
0
 10
-85.576
 11
-85.119
 20
17.313
 21
17.168
  0
LINE
  8
0
 10
-85.119
 11
-84.676
 20
17.168
 21
16.985
  0
LINE
  8
0
 10
-84.676
 11
-84.25
 20
16.985
 21
16.763
  0
LINE
  8
0
 10
-84.25
 11
-83.845
 20
16.763
 21
16.505
  0
LINE
  8
0
 10
-83.845
 11
-83.465
 20
16.505
 21
16.213
  0
LINE
  8
0
 10
-83.465
 11
-83.111
 20
16.213
 21
15.889
  0
LINE
  8
0
 10
-83.111
 11
-82.787
 20
15.889
 21
15.535
  0
LINE
  8
0
 10
-82.787
 11
-82.495
 20
15.535
 21
15.155
  0
LINE
  8
0
 10
-82.495
 11
-82.237
 20
15.155
 21
14.75
  0
LINE
  8
0
 10
-82.237
 11
-82.015
 20
14.75
 21
14.324
  0
LINE
  8
0
 10
-82.015
 11
-81.832
 20
14.324
 21
13.881
  0
LINE
  8
0
 10
-81.832
 11
-81.687
 20
13.881
 21
13.424
  0
LINE
  8
0
 10
-81.687
 11
-81.584
 20
13.424
 21
12.955
  0
LINE
  8
0
 10
-81.584
 11
-81.521
 20
12.955
 21
12.479
  0
LINE
  8
0
 10
-81.521
 11
-81.5
 20
12.479
 21
12
  0
LINE
  8
0
 10
-81.5
 11
-81.5
 20
12
 21
-14.75
  0
LINE
  8
0
 10
-81.5
 11
-92.5
 20
-14.75
 21
-14.75
  0
LINE
  8
0
 10
-74.6
 11
-74.594
 20
-44
 21
-43.86
  0
LINE
  8
0
 10
-74.594
 11
-74.576
 20
-43.86
 21
-43.722
  0
LINE
  8
0
 10
-74.576
 11
-74.545
 20
-43.722
 21
-43.586
  0
LINE
  8
0
 10
-74.545
 11
-74.504
 20
-43.586
 21
-43.453
  0
LINE
  8
0
 10
-74.504
 11
-74.45
 20
-43.453
 21
-43.324
  0
LINE
  8
0
 10
-74.45
 11
-74.386
 20
-43.324
 21
-43.2
  0
LINE
  8
0
 10
-74.386
 11
-74.311
 20
-43.2
 21
-43.082
  0
LINE
  8
0
 10
-74.311
 11
-74.226
 20
-43.082
 21
-42.971
  0
LINE
  8
0
 10
-74.226
 11
-74.131
 20
-42.971
 21
-42.869
  0
LINE
  8
0
 10
-74.131
 11
-74.028
 20
-42.869
 21
-42.774
  0
LINE
  8
0
 10
-74.028
 11
-73.918
 20
-42.774
 21
-42.689
  0
LINE
  8
0
 10
-73.918
 11
-73.8
 20
-42.689
 21
-42.614
  0
LINE
  8
0
 10
-73.8
 11
-73.676
 20
-42.614
 21
-42.55
  0
LINE
  8
0
 10
-73.676
 11
-73.547
 20
-42.55
 21
-42.496
  0
LINE
  8
0
 10
-73.547
 11
-73.414
 20
-42.496
 21
-42.454
  0
LINE
  8
0
 10
-73.414
 11
-73.278
 20
-42.454
 21
-42.424
  0
LINE
  8
0
 10
-73.278
 11
-73.139
 20
-42.424
 21
-42.406
  0
LINE
  8
0
 10
-73.139
 11
-73
 20
-42.406
 21
-42.4
  0
LINE
  8
0
 10
-73
 11
-72.861
 20
-42.4
 21
-42.406
  0
LINE
  8
0
 10
-72.861
 11
-72.722
 20
-42.406
 21
-42.424
  0
LINE
  8
0
 10
-72.722
 11
-72.586
 20
-42.424
 21
-42.454
  0
LINE
  8
0
 10
-72.586
 11
-72.453
 20
-42.454
 21
-42.496
  0
LINE
  8
0
 10
-72.453
 11
-72.324
 20
-42.496
 21
-42.55
  0
LINE
  8
0
 10
-72.324
 11
-72.2
 20
-42.55
 21
-42.614
  0
LINE
  8
0
 10
-72.2
 11
-72.082
 20
-42.614
 21
-42.689
  0
LINE
  8
0
 10
-72.082
 11
-71.972
 20
-42.689
 21
-42.774
  0
LINE
  8
0
 10
-71.972
 11
-71.869
 20
-42.774
 21
-42.869
  0
LINE
  8
0
 10
-71.869
 11
-71.774
 20
-42.869
 21
-42.971
  0
LINE
  8
0
 10
-71.774
 11
-71.689
 20
-42.971
 21
-43.082
  0
LINE
  8
0
 10
-71.689
 11
-71.614
 20
-43.082
 21
-43.2
  0
LINE
  8
0
 10
-71.614
 11
-71.55
 20
-43.2
 21
-43.324
  0
LINE
  8
0
 10
-71.55
 11
-71.496
 20
-43.324
 21
-43.453
  0
LINE
  8
0
 10
-71.496
 11
-71.455
 20
-43.453
 21
-43.586
  0
LINE
  8
0
 10
-71.455
 11
-71.424
 20
-43.586
 21
-43.722
  0
LINE
  8
0
 10
-71.424
 11
-71.406
 20
-43.722
 21
-43.86
  0
LINE
  8
0
 10
-71.406
 11
-71.4
 20
-43.86
 21
-44
  0
LINE
  8
0
 10
-71.4
 11
-71.406
 20
-44
 21
-44.139
  0
LINE
  8
0
 10
-71.406
 11
-71.424
 20
-44.139
 21
-44.278
  0
LINE
  8
0
 10
-71.424
 11
-71.455
 20
-44.278
 21
-44.414
  0
LINE
  8
0
 10
-71.455
 11
-71.496
 20
-44.414
 21
-44.547
  0
LINE
  8
0
 10
-71.496
 11
-71.55
 20
-44.547
 21
-44.676
  0
LINE
  8
0
 10
-71.55
 11
-71.614
 20
-44.676
 21
-44.8
  0
LINE
  8
0
 10
-71.614
 11
-71.689
 20
-44.8
 21
-44.918
  0
LINE
  8
0
 10
-71.689
 11
-71.774
 20
-44.918
 21
-45.028
  0
LINE
  8
0
 10
-71.774
 11
-71.869
 20
-45.028
 21
-45.131
  0
LINE
  8
0
 10
-71.869
 11
-71.972
 20
-45.131
 21
-45.226
  0
LINE
  8
0
 10
-71.972
 11
-72.082
 20
-45.226
 21
-45.311
  0
LINE
  8
0
 10
-72.082
 11
-72.2
 20
-45.311
 21
-45.386
  0
LINE
  8
0
 10
-72.2
 11
-72.324
 20
-45.386
 21
-45.45
  0
LINE
  8
0
 10
-72.324
 11
-72.453
 20
-45.45
 21
-45.503
  0
LINE
  8
0
 10
-72.453
 11
-72.586
 20
-45.503
 21
-45.545
  0
LINE
  8
0
 10
-72.586
 11
-72.722
 20
-45.545
 21
-45.576
  0
LINE
  8
0
 10
-72.722
 11
-72.861
 20
-45.576
 21
-45.594
  0
LINE
  8
0
 10
-72.861
 11
-73
 20
-45.594
 21
-45.6
  0
LINE
  8
0
 10
-73
 11
-73.139
 20
-45.6
 21
-45.594
  0
LINE
  8
0
 10
-73.139
 11
-73.278
 20
-45.594
 21
-45.576
  0
LINE
  8
0
 10
-73.278
 11
-73.414
 20
-45.576
 21
-45.545
  0
LINE
  8
0
 10
-73.414
 11
-73.547
 20
-45.545
 21
-45.503
  0
LINE
  8
0
 10
-73.547
 11
-73.676
 20
-45.503
 21
-45.45
  0
LINE
  8
0
 10
-73.676
 11
-73.8
 20
-45.45
 21
-45.386
  0
LINE
  8
0
 10
-73.8
 11
-73.918
 20
-45.386
 21
-45.311
  0
LINE
  8
0
 10
-73.918
 11
-74.028
 20
-45.311
 21
-45.226
  0
LINE
  8
0
 10
-74.028
 11
-74.131
 20
-45.226
 21
-45.131
  0
LINE
  8
0
 10
-74.131
 11
-74.226
 20
-45.131
 21
-45.028
  0
LINE
  8
0
 10
-74.226
 11
-74.311
 20
-45.028
 21
-44.918
  0
LINE
  8
0
 10
-74.311
 11
-74.386
 20
-44.918
 21
-44.8
  0
LINE
  8
0
 10
-74.386
 11
-74.45
 20
-44.8
 21
-44.676
  0
LINE
  8
0
 10
-74.45
 11
-74.504
 20
-44.676
 21
-44.547
  0
LINE
  8
0
 10
-74.504
 11
-74.545
 20
-44.547
 21
-44.414
  0
LINE
  8
0
 10
-74.545
 11
-74.576
 20
-44.414
 21
-44.278
  0
LINE
  8
0
 10
-74.576
 11
-74.594
 20
-44.278
 21
-44.139
  0
LINE
  8
0
 10
-74.594
 11
-74.6
 20
-44.139
 21
-44
  0
LINE
  8
0
 10
-74.6
 11
-74.594
 20
-16
 21
-15.861
  0
LINE
  8
0
 10
-74.594
 11
-74.576
 20
-15.861
 21
-15.722
  0
LINE
  8
0
 10
-74.576
 11
-74.545
 20
-15.722
 21
-15.586
  0
LINE
  8
0
 10
-74.545
 11
-74.504
 20
-15.586
 21
-15.453
  0
LINE
  8
0
 10
-74.504
 11
-74.45
 20
-15.453
 21
-15.324
  0
LINE
  8
0
 10
-74.45
 11
-74.412
 20
-15.324
 21
-15.25
  0
LINE
  8
0
 10
-74.412
 11
-71.588
 20
-15.25
 21
-15.25
  0
LINE
  8
0
 10
-71.588
 11
-71.55
 20
-15.25
 21
-15.324
  0
LINE
  8
0
 10
-71.55
 11
-71.496
 20
-15.324
 21
-15.453
  0
LINE
  8
0
 10
-71.496
 11
-71.455
 20
-15.453
 21
-15.586
  0
LINE
  8
0
 10
-71.455
 11
-71.424
 20
-15.586
 21
-15.722
  0
LINE
  8
0
 10
-71.424
 11
-71.406
 20
-15.722
 21
-15.861
  0
LINE
  8
0
 10
-71.406
 11
-71.4
 20
-15.861
 21
-16
  0
LINE
  8
0
 10
-71.4
 11
-71.406
 20
-16
 21
-16.139
  0
LINE
  8
0
 10
-71.406
 11
-71.424
 20
-16.139
 21
-16.278
  0
LINE
  8
0
 10
-71.424
 11
-71.455
 20
-16.278
 21
-16.414
  0
LINE
  8
0
 10
-71.455
 11
-71.496
 20
-16.414
 21
-16.547
  0
LINE
  8
0
 10
-71.496
 11
-71.55
 20
-16.547
 21
-16.676
  0
LINE
  8
0
 10
-71.55
 11
-71.614
 20
-16.676
 21
-16.8
  0
LINE
  8
0
 10
-71.614
 11
-71.689
 20
-16.8
 21
-16.918
  0
LINE
  8
0
 10
-71.689
 11
-71.774
 20
-16.918
 21
-17.028
  0
LINE
  8
0
 10
-71.774
 11
-71.869
 20
-17.028
 21
-17.131
  0
LINE
  8
0
 10
-71.869
 11
-71.972
 20
-17.131
 21
-17.226
  0
LINE
  8
0
 10
-71.972
 11
-72.082
 20
-17.226
 21
-17.311
  0
LINE
  8
0
 10
-72.082
 11
-72.2
 20
-17.311
 21
-17.386
  0
LINE
  8
0
 10
-72.2
 11
-72.324
 20
-17.386
 21
-17.45
  0
LINE
  8
0
 10
-72.324
 11
-72.453
 20
-17.45
 21
-17.503
  0
LINE
  8
0
 10
-72.453
 11
-72.586
 20
-17.503
 21
-17.545
  0
LINE
  8
0
 10
-72.586
 11
-72.722
 20
-17.545
 21
-17.576
  0
LINE
  8
0
 10
-72.722
 11
-72.861
 20
-17.576
 21
-17.594
  0
LINE
  8
0
 10
-72.861
 11
-73
 20
-17.594
 21
-17.6
  0
LINE
  8
0
 10
-73
 11
-73.139
 20
-17.6
 21
-17.594
  0
LINE
  8
0
 10
-73.139
 11
-73.278
 20
-17.594
 21
-17.576
  0
LINE
  8
0
 10
-73.278
 11
-73.414
 20
-17.576
 21
-17.545
  0
LINE
  8
0
 10
-73.414
 11
-73.547
 20
-17.545
 21
-17.503
  0
LINE
  8
0
 10
-73.547
 11
-73.676
 20
-17.503
 21
-17.45
  0
LINE
  8
0
 10
-73.676
 11
-73.8
 20
-17.45
 21
-17.386
  0
LINE
  8
0
 10
-73.8
 11
-73.918
 20
-17.386
 21
-17.311
  0
LINE
  8
0
 10
-73.918
 11
-74.028
 20
-17.311
 21
-17.226
  0
LINE
  8
0
 10
-74.028
 11
-74.131
 20
-17.226
 21
-17.131
  0
LINE
  8
0
 10
-74.131
 11
-74.226
 20
-17.131
 21
-17.028
  0
LINE
  8
0
 10
-74.226
 11
-74.311
 20
-17.028
 21
-16.918
  0
LINE
  8
0
 10
-74.311
 11
-74.386
 20
-16.918
 21
-16.8
  0
LINE
  8
0
 10
-74.386
 11
-74.45
 20
-16.8
 21
-16.676
  0
LINE
  8
0
 10
-74.45
 11
-74.504
 20
-16.676
 21
-16.547
  0
LINE
  8
0
 10
-74.504
 11
-74.545
 20
-16.547
 21
-16.414
  0
LINE
  8
0
 10
-74.545
 11
-74.576
 20
-16.414
 21
-16.278
  0
LINE
  8
0
 10
-74.576
 11
-74.594
 20
-16.278
 21
-16.139
  0
LINE
  8
0
 10
-74.594
 11
-74.6
 20
-16.139
 21
-16
  0
LINE
  8
0
 10
-74.6
 11
-74.594
 20
12
 21
12.14
  0
LINE
  8
0
 10
-74.594
 11
-74.576
 20
12.14
 21
12.278
  0
LINE
  8
0
 10
-74.576
 11
-74.545
 20
12.278
 21
12.414
  0
LINE
  8
0
 10
-74.545
 11
-74.504
 20
12.414
 21
12.547
  0
LINE
  8
0
 10
-74.504
 11
-74.45
 20
12.547
 21
12.676
  0
LINE
  8
0
 10
-74.45
 11
-74.386
 20
12.676
 21
12.8
  0
LINE
  8
0
 10
-74.386
 11
-74.311
 20
12.8
 21
12.918
  0
LINE
  8
0
 10
-74.311
 11
-74.226
 20
12.918
 21
13.029
  0
LINE
  8
0
 10
-74.226
 11
-74.131
 20
13.029
 21
13.131
  0
LINE
  8
0
 10
-74.131
 11
-74.028
 20
13.131
 21
13.226
  0
LINE
  8
0
 10
-74.028
 11
-73.918
 20
13.226
 21
13.311
  0
LINE
  8
0
 10
-73.918
 11
-73.8
 20
13.311
 21
13.386
  0
LINE
  8
0
 10
-73.8
 11
-73.676
 20
13.386
 21
13.45
  0
LINE
  8
0
 10
-73.676
 11
-73.547
 20
13.45
 21
13.504
  0
LINE
  8
0
 10
-73.547
 11
-73.414
 20
13.504
 21
13.546
  0
LINE
  8
0
 10
-73.414
 11
-73.278
 20
13.546
 21
13.576
  0
LINE
  8
0
 10
-73.278
 11
-73.139
 20
13.576
 21
13.594
  0
LINE
  8
0
 10
-73.139
 11
-73
 20
13.594
 21
13.6
  0
LINE
  8
0
 10
-73
 11
-72.861
 20
13.6
 21
13.594
  0
LINE
  8
0
 10
-72.861
 11
-72.722
 20
13.594
 21
13.576
  0
LINE
  8
0
 10
-72.722
 11
-72.586
 20
13.576
 21
13.546
  0
LINE
  8
0
 10
-72.586
 11
-72.453
 20
13.546
 21
13.504
  0
LINE
  8
0
 10
-72.453
 11
-72.324
 20
13.504
 21
13.45
  0
LINE
  8
0
 10
-72.324
 11
-72.2
 20
13.45
 21
13.386
  0
LINE
  8
0
 10
-72.2
 11
-72.082
 20
13.386
 21
13.311
  0
LINE
  8
0
 10
-72.082
 11
-71.972
 20
13.311
 21
13.226
  0
LINE
  8
0
 10
-71.972
 11
-71.869
 20
13.226
 21
13.131
  0
LINE
  8
0
 10
-71.869
 11
-71.774
 20
13.131
 21
13.029
  0
LINE
  8
0
 10
-71.774
 11
-71.689
 20
13.029
 21
12.918
  0
LINE
  8
0
 10
-71.689
 11
-71.614
 20
12.918
 21
12.8
  0
LINE
  8
0
 10
-71.614
 11
-71.55
 20
12.8
 21
12.676
  0
LINE
  8
0
 10
-71.55
 11
-71.496
 20
12.676
 21
12.547
  0
LINE
  8
0
 10
-71.496
 11
-71.455
 20
12.547
 21
12.414
  0
LINE
  8
0
 10
-71.455
 11
-71.424
 20
12.414
 21
12.278
  0
LINE
  8
0
 10
-71.424
 11
-71.406
 20
12.278
 21
12.14
  0
LINE
  8
0
 10
-71.406
 11
-71.4
 20
12.14
 21
12
  0
LINE
  8
0
 10
-71.4
 11
-71.406
 20
12
 21
11.861
  0
LINE
  8
0
 10
-71.406
 11
-71.424
 20
11.861
 21
11.722
  0
LINE
  8
0
 10
-71.424
 11
-71.455
 20
11.722
 21
11.586
  0
LINE
  8
0
 10
-71.455
 11
-71.496
 20
11.586
 21
11.453
  0
LINE
  8
0
 10
-71.496
 11
-71.55
 20
11.453
 21
11.324
  0
LINE
  8
0
 10
-71.55
 11
-71.614
 20
11.324
 21
11.2
  0
LINE
  8
0
 10
-71.614
 11
-71.689
 20
11.2
 21
11.082
  0
LINE
  8
0
 10
-71.689
 11
-71.774
 20
11.082
 21
10.972
  0
LINE
  8
0
 10
-71.774
 11
-71.869
 20
10.972
 21
10.869
  0
LINE
  8
0
 10
-71.869
 11
-71.972
 20
10.869
 21
10.774
  0
LINE
  8
0
 10
-71.972
 11
-72.082
 20
10.774
 21
10.689
  0
LINE
  8
0
 10
-72.082
 11
-72.2
 20
10.689
 21
10.614
  0
LINE
  8
0
 10
-72.2
 11
-72.324
 20
10.614
 21
10.55
  0
LINE
  8
0
 10
-72.324
 11
-72.453
 20
10.55
 21
10.497
  0
LINE
  8
0
 10
-72.453
 11
-72.586
 20
10.497
 21
10.455
  0
LINE
  8
0
 10
-72.586
 11
-72.722
 20
10.455
 21
10.424
  0
LINE
  8
0
 10
-72.722
 11
-72.861
 20
10.424
 21
10.406
  0
LINE
  8
0
 10
-72.861
 11
-73
 20
10.406
 21
10.4
  0
LINE
  8
0
 10
-73
 11
-73.139
 20
10.4
 21
10.406
  0
LINE
  8
0
 10
-73.139
 11
-73.278
 20
10.406
 21
10.424
  0
LINE
  8
0
 10
-73.278
 11
-73.414
 20
10.424
 21
10.455
  0
LINE
  8
0
 10
-73.414
 11
-73.547
 20
10.455
 21
10.497
  0
LINE
  8
0
 10
-73.547
 11
-73.676
 20
10.497
 21
10.55
  0
LINE
  8
0
 10
-73.676
 11
-73.8
 20
10.55
 21
10.614
  0
LINE
  8
0
 10
-73.8
 11
-73.918
 20
10.614
 21
10.689
  0
LINE
  8
0
 10
-73.918
 11
-74.028
 20
10.689
 21
10.774
  0
LINE
  8
0
 10
-74.028
 11
-74.131
 20
10.774
 21
10.869
  0
LINE
  8
0
 10
-74.131
 11
-74.226
 20
10.869
 21
10.972
  0
LINE
  8
0
 10
-74.226
 11
-74.311
 20
10.972
 21
11.082
  0
LINE
  8
0
 10
-74.311
 11
-74.386
 20
11.082
 21
11.2
  0
LINE
  8
0
 10
-74.386
 11
-74.45
 20
11.2
 21
11.324
  0
LINE
  8
0
 10
-74.45
 11
-74.504
 20
11.324
 21
11.453
  0
LINE
  8
0
 10
-74.504
 11
-74.545
 20
11.453
 21
11.586
  0
LINE
  8
0
 10
-74.545
 11
-74.576
 20
11.586
 21
11.722
  0
LINE
  8
0
 10
-74.576
 11
-74.594
 20
11.722
 21
11.861
  0
LINE
  8
0
 10
-74.594
 11
-74.6
 20
11.861
 21
12
  0
LINE
  8
0
 10
-73.997
 11
-73.918
 20
-14.75
 21
-14.689
  0
LINE
  8
0
 10
-73.918
 11
-73.8
 20
-14.689
 21
-14.614
  0
LINE
  8
0
 10
-73.8
 11
-73.676
 20
-14.614
 21
-14.55
  0
LINE
  8
0
 10
-73.676
 11
-73.547
 20
-14.55
 21
-14.496
  0
LINE
  8
0
 10
-73.547
 11
-73.414
 20
-14.496
 21
-14.454
  0
LINE
  8
0
 10
-73.414
 11
-73.278
 20
-14.454
 21
-14.424
  0
LINE
  8
0
 10
-73.278
 11
-73.139
 20
-14.424
 21
-14.406
  0
LINE
  8
0
 10
-73.139
 11
-73
 20
-14.406
 21
-14.4
  0
LINE
  8
0
 10
-73
 11
-72.861
 20
-14.4
 21
-14.406
  0
LINE
  8
0
 10
-72.861
 11
-72.722
 20
-14.406
 21
-14.424
  0
LINE
  8
0
 10
-72.722
 11
-72.586
 20
-14.424
 21
-14.454
  0
LINE
  8
0
 10
-72.586
 11
-72.453
 20
-14.454
 21
-14.496
  0
LINE
  8
0
 10
-72.453
 11
-72.324
 20
-14.496
 21
-14.55
  0
LINE
  8
0
 10
-72.324
 11
-72.2
 20
-14.55
 21
-14.614
  0
LINE
  8
0
 10
-72.2
 11
-72.082
 20
-14.614
 21
-14.689
  0
LINE
  8
0
 10
-72.082
 11
-72.003
 20
-14.689
 21
-14.75
  0
LINE
  8
0
 10
-72.003
 11
-73.997
 20
-14.75
 21
-14.75
  0
LINE
  8
0
 10
-65.6
 11
-65.594
 20
-54
 21
-53.861
  0
LINE
  8
0
 10
-65.594
 11
-65.576
 20
-53.861
 21
-53.722
  0
LINE
  8
0
 10
-65.576
 11
-65.545
 20
-53.722
 21
-53.586
  0
LINE
  8
0
 10
-65.545
 11
-65.504
 20
-53.586
 21
-53.453
  0
LINE
  8
0
 10
-65.504
 11
-65.45
 20
-53.453
 21
-53.324
  0
LINE
  8
0
 10
-65.45
 11
-65.386
 20
-53.324
 21
-53.2
  0
LINE
  8
0
 10
-65.386
 11
-65.311
 20
-53.2
 21
-53.082
  0
LINE
  8
0
 10
-65.311
 11
-65.226
 20
-53.082
 21
-52.971
  0
LINE
  8
0
 10
-65.226
 11
-65.131
 20
-52.971
 21
-52.869
  0
LINE
  8
0
 10
-65.131
 11
-65.028
 20
-52.869
 21
-52.774
  0
LINE
  8
0
 10
-65.028
 11
-64.918
 20
-52.774
 21
-52.689
  0
LINE
  8
0
 10
-64.918
 11
-64.8
 20
-52.689
 21
-52.614
  0
LINE
  8
0
 10
-64.8
 11
-64.676
 20
-52.614
 21
-52.55
  0
LINE
  8
0
 10
-64.676
 11
-64.547
 20
-52.55
 21
-52.496
  0
LINE
  8
0
 10
-64.547
 11
-64.414
 20
-52.496
 21
-52.454
  0
LINE
  8
0
 10
-64.414
 11
-64.278
 20
-52.454
 21
-52.424
  0
LINE
  8
0
 10
-64.278
 11
-64.139
 20
-52.424
 21
-52.406
  0
LINE
  8
0
 10
-64.139
 11
-64
 20
-52.406
 21
-52.4
  0
LINE
  8
0
 10
-64
 11
-63.861
 20
-52.4
 21
-52.406
  0
LINE
  8
0
 10
-63.861
 11
-63.722
 20
-52.406
 21
-52.424
  0
LINE
  8
0
 10
-63.722
 11
-63.586
 20
-52.424
 21
-52.454
  0
LINE
  8
0
 10
-63.586
 11
-63.453
 20
-52.454
 21
-52.496
  0
LINE
  8
0
 10
-63.453
 11
-63.324
 20
-52.496
 21
-52.55
  0
LINE
  8
0
 10
-63.324
 11
-63.2
 20
-52.55
 21
-52.614
  0
LINE
  8
0
 10
-63.2
 11
-63.082
 20
-52.614
 21
-52.689
  0
LINE
  8
0
 10
-63.082
 11
-62.972
 20
-52.689
 21
-52.774
  0
LINE
  8
0
 10
-62.972
 11
-62.869
 20
-52.774
 21
-52.869
  0
LINE
  8
0
 10
-62.869
 11
-62.774
 20
-52.869
 21
-52.971
  0
LINE
  8
0
 10
-62.774
 11
-62.689
 20
-52.971
 21
-53.082
  0
LINE
  8
0
 10
-62.689
 11
-62.614
 20
-53.082
 21
-53.2
  0
LINE
  8
0
 10
-62.614
 11
-62.55
 20
-53.2
 21
-53.324
  0
LINE
  8
0
 10
-62.55
 11
-62.496
 20
-53.324
 21
-53.453
  0
LINE
  8
0
 10
-62.496
 11
-62.455
 20
-53.453
 21
-53.586
  0
LINE
  8
0
 10
-62.455
 11
-62.424
 20
-53.586
 21
-53.722
  0
LINE
  8
0
 10
-62.424
 11
-62.406
 20
-53.722
 21
-53.861
  0
LINE
  8
0
 10
-62.406
 11
-62.4
 20
-53.861
 21
-54
  0
LINE
  8
0
 10
-62.4
 11
-62.406
 20
-54
 21
-54.139
  0
LINE
  8
0
 10
-62.406
 11
-62.424
 20
-54.139
 21
-54.278
  0
LINE
  8
0
 10
-62.424
 11
-62.455
 20
-54.278
 21
-54.414
  0
LINE
  8
0
 10
-62.455
 11
-62.496
 20
-54.414
 21
-54.547
  0
LINE
  8
0
 10
-62.496
 11
-62.517
 20
-54.547
 21
-54.597
  0
LINE
  8
0
 10
-62.517
 11
-62.55
 20
-54.597
 21
-54.676
  0
LINE
  8
0
 10
-62.55
 11
-62.614
 20
-54.676
 21
-54.8
  0
LINE
  8
0
 10
-62.614
 11
-62.689
 20
-54.8
 21
-54.918
  0
LINE
  8
0
 10
-62.689
 11
-62.774
 20
-54.918
 21
-55.028
  0
LINE
  8
0
 10
-62.774
 11
-62.869
 20
-55.028
 21
-55.131
  0
LINE
  8
0
 10
-62.869
 11
-62.972
 20
-55.131
 21
-55.226
  0
LINE
  8
0
 10
-62.972
 11
-63.082
 20
-55.226
 21
-55.311
  0
LINE
  8
0
 10
-63.082
 11
-63.2
 20
-55.311
 21
-55.386
  0
LINE
  8
0
 10
-63.2
 11
-63.324
 20
-55.386
 21
-55.45
  0
LINE
  8
0
 10
-63.324
 11
-63.453
 20
-55.45
 21
-55.503
  0
LINE
  8
0
 10
-63.453
 11
-63.586
 20
-55.503
 21
-55.545
  0
LINE
  8
0
 10
-63.586
 11
-63.722
 20
-55.545
 21
-55.576
  0
LINE
  8
0
 10
-63.722
 11
-63.861
 20
-55.576
 21
-55.594
  0
LINE
  8
0
 10
-63.861
 11
-64
 20
-55.594
 21
-55.6
  0
LINE
  8
0
 10
-64
 11
-64.139
 20
-55.6
 21
-55.594
  0
LINE
  8
0
 10
-64.139
 11
-64.278
 20
-55.594
 21
-55.576
  0
LINE
  8
0
 10
-64.278
 11
-64.414
 20
-55.576
 21
-55.545
  0
LINE
  8
0
 10
-64.414
 11
-64.547
 20
-55.545
 21
-55.503
  0
LINE
  8
0
 10
-64.547
 11
-64.676
 20
-55.503
 21
-55.45
  0
LINE
  8
0
 10
-64.676
 11
-64.8
 20
-55.45
 21
-55.386
  0
LINE
  8
0
 10
-64.8
 11
-64.918
 20
-55.386
 21
-55.311
  0
LINE
  8
0
 10
-64.918
 11
-65.028
 20
-55.311
 21
-55.226
  0
LINE
  8
0
 10
-65.028
 11
-65.131
 20
-55.226
 21
-55.131
  0
LINE
  8
0
 10
-65.131
 11
-65.226
 20
-55.131
 21
-55.028
  0
LINE
  8
0
 10
-65.226
 11
-65.311
 20
-55.028
 21
-54.918
  0
LINE
  8
0
 10
-65.311
 11
-65.386
 20
-54.918
 21
-54.8
  0
LINE
  8
0
 10
-65.386
 11
-65.45
 20
-54.8
 21
-54.676
  0
LINE
  8
0
 10
-65.45
 11
-65.483
 20
-54.676
 21
-54.597
  0
LINE
  8
0
 10
-65.483
 11
-65.503
 20
-54.597
 21
-54.549
  0
LINE
  8
0
 10
-65.503
 11
-65.504
 20
-54.549
 21
-54.547
  0
LINE
  8
0
 10
-65.504
 11
-65.545
 20
-54.547
 21
-54.414
  0
LINE
  8
0
 10
-65.545
 11
-65.576
 20
-54.414
 21
-54.278
  0
LINE
  8
0
 10
-65.576
 11
-65.594
 20
-54.278
 21
-54.139
  0
LINE
  8
0
 10
-65.594
 11
-65.6
 20
-54.139
 21
-54
  0
LINE
  8
0
 10
-43.6
 11
-43.594
 20
-54
 21
-53.861
  0
LINE
  8
0
 10
-43.594
 11
-43.576
 20
-53.861
 21
-53.722
  0
LINE
  8
0
 10
-43.576
 11
-43.545
 20
-53.722
 21
-53.586
  0
LINE
  8
0
 10
-43.545
 11
-43.504
 20
-53.586
 21
-53.453
  0
LINE
  8
0
 10
-43.504
 11
-43.45
 20
-53.453
 21
-53.324
  0
LINE
  8
0
 10
-43.45
 11
-43.386
 20
-53.324
 21
-53.2
  0
LINE
  8
0
 10
-43.386
 11
-43.311
 20
-53.2
 21
-53.082
  0
LINE
  8
0
 10
-43.311
 11
-43.226
 20
-53.082
 21
-52.971
  0
LINE
  8
0
 10
-43.226
 11
-43.131
 20
-52.971
 21
-52.869
  0
LINE
  8
0
 10
-43.131
 11
-43.028
 20
-52.869
 21
-52.774
  0
LINE
  8
0
 10
-43.028
 11
-42.918
 20
-52.774
 21
-52.689
  0
LINE
  8
0
 10
-42.918
 11
-42.8
 20
-52.689
 21
-52.614
  0
LINE
  8
0
 10
-42.8
 11
-42.676
 20
-52.614
 21
-52.55
  0
LINE
  8
0
 10
-42.676
 11
-42.547
 20
-52.55
 21
-52.496
  0
LINE
  8
0
 10
-42.547
 11
-42.414
 20
-52.496
 21
-52.454
  0
LINE
  8
0
 10
-42.414
 11
-42.278
 20
-52.454
 21
-52.424
  0
LINE
  8
0
 10
-42.278
 11
-42.139
 20
-52.424
 21
-52.406
  0
LINE
  8
0
 10
-42.139
 11
-42
 20
-52.406
 21
-52.4
  0
LINE
  8
0
 10
-42
 11
-41.861
 20
-52.4
 21
-52.406
  0
LINE
  8
0
 10
-41.861
 11
-41.722
 20
-52.406
 21
-52.424
  0
LINE
  8
0
 10
-41.722
 11
-41.586
 20
-52.424
 21
-52.454
  0
LINE
  8
0
 10
-41.586
 11
-41.453
 20
-52.454
 21
-52.496
  0
LINE
  8
0
 10
-41.453
 11
-41.324
 20
-52.496
 21
-52.55
  0
LINE
  8
0
 10
-41.324
 11
-41.2
 20
-52.55
 21
-52.614
  0
LINE
  8
0
 10
-41.2
 11
-41.082
 20
-52.614
 21
-52.689
  0
LINE
  8
0
 10
-41.082
 11
-40.972
 20
-52.689
 21
-52.774
  0
LINE
  8
0
 10
-40.972
 11
-40.869
 20
-52.774
 21
-52.869
  0
LINE
  8
0
 10
-40.869
 11
-40.774
 20
-52.869
 21
-52.971
  0
LINE
  8
0
 10
-40.774
 11
-40.689
 20
-52.971
 21
-53.082
  0
LINE
  8
0
 10
-40.689
 11
-40.614
 20
-53.082
 21
-53.2
  0
LINE
  8
0
 10
-40.614
 11
-40.55
 20
-53.2
 21
-53.324
  0
LINE
  8
0
 10
-40.55
 11
-40.496
 20
-53.324
 21
-53.453
  0
LINE
  8
0
 10
-40.496
 11
-40.455
 20
-53.453
 21
-53.586
  0
LINE
  8
0
 10
-40.455
 11
-40.424
 20
-53.586
 21
-53.722
  0
LINE
  8
0
 10
-40.424
 11
-40.406
 20
-53.722
 21
-53.861
  0
LINE
  8
0
 10
-40.406
 11
-40.4
 20
-53.861
 21
-54
  0
LINE
  8
0
 10
-40.4
 11
-40.406
 20
-54
 21
-54.139
  0
LINE
  8
0
 10
-40.406
 11
-40.424
 20
-54.139
 21
-54.278
  0
LINE
  8
0
 10
-40.424
 11
-40.455
 20
-54.278
 21
-54.414
  0
LINE
  8
0
 10
-40.455
 11
-40.496
 20
-54.414
 21
-54.547
  0
LINE
  8
0
 10
-40.496
 11
-40.517
 20
-54.547
 21
-54.597
  0
LINE
  8
0
 10
-40.517
 11
-40.55
 20
-54.597
 21
-54.676
  0
LINE
  8
0
 10
-40.55
 11
-40.614
 20
-54.676
 21
-54.8
  0
LINE
  8
0
 10
-40.614
 11
-40.689
 20
-54.8
 21
-54.918
  0
LINE
  8
0
 10
-40.689
 11
-40.774
 20
-54.918
 21
-55.028
  0
LINE
  8
0
 10
-40.774
 11
-40.869
 20
-55.028
 21
-55.131
  0
LINE
  8
0
 10
-40.869
 11
-40.972
 20
-55.131
 21
-55.226
  0
LINE
  8
0
 10
-40.972
 11
-41.082
 20
-55.226
 21
-55.311
  0
LINE
  8
0
 10
-41.082
 11
-41.2
 20
-55.311
 21
-55.386
  0
LINE
  8
0
 10
-41.2
 11
-41.324
 20
-55.386
 21
-55.45
  0
LINE
  8
0
 10
-41.324
 11
-41.453
 20
-55.45
 21
-55.503
  0
LINE
  8
0
 10
-41.453
 11
-41.586
 20
-55.503
 21
-55.545
  0
LINE
  8
0
 10
-41.586
 11
-41.722
 20
-55.545
 21
-55.576
  0
LINE
  8
0
 10
-41.722
 11
-41.861
 20
-55.576
 21
-55.594
  0
LINE
  8
0
 10
-41.861
 11
-42
 20
-55.594
 21
-55.6
  0
LINE
  8
0
 10
-42
 11
-42.139
 20
-55.6
 21
-55.594
  0
LINE
  8
0
 10
-42.139
 11
-42.278
 20
-55.594
 21
-55.576
  0
LINE
  8
0
 10
-42.278
 11
-42.414
 20
-55.576
 21
-55.545
  0
LINE
  8
0
 10
-42.414
 11
-42.547
 20
-55.545
 21
-55.503
  0
LINE
  8
0
 10
-42.547
 11
-42.676
 20
-55.503
 21
-55.45
  0
LINE
  8
0
 10
-42.676
 11
-42.8
 20
-55.45
 21
-55.386
  0
LINE
  8
0
 10
-42.8
 11
-42.918
 20
-55.386
 21
-55.311
  0
LINE
  8
0
 10
-42.918
 11
-43.028
 20
-55.311
 21
-55.226
  0
LINE
  8
0
 10
-43.028
 11
-43.131
 20
-55.226
 21
-55.131
  0
LINE
  8
0
 10
-43.131
 11
-43.226
 20
-55.131
 21
-55.028
  0
LINE
  8
0
 10
-43.226
 11
-43.311
 20
-55.028
 21
-54.918
  0
LINE
  8
0
 10
-43.311
 11
-43.386
 20
-54.918
 21
-54.8
  0
LINE
  8
0
 10
-43.386
 11
-43.45
 20
-54.8
 21
-54.676
  0
LINE
  8
0
 10
-43.45
 11
-43.483
 20
-54.676
 21
-54.597
  0
LINE
  8
0
 10
-43.483
 11
-43.503
 20
-54.597
 21
-54.549
  0
LINE
  8
0
 10
-43.503
 11
-43.504
 20
-54.549
 21
-54.547
  0
LINE
  8
0
 10
-43.504
 11
-43.545
 20
-54.547
 21
-54.414
  0
LINE
  8
0
 10
-43.545
 11
-43.576
 20
-54.414
 21
-54.278
  0
LINE
  8
0
 10
-43.576
 11
-43.594
 20
-54.278
 21
-54.139
  0
LINE
  8
0
 10
-43.594
 11
-43.6
 20
-54.139
 21
-54
  0
LINE
  8
0
 10
-24.75
 11
-24.75
 20
-60.5
 21
-15.25
  0
LINE
  8
0
 10
-24.75
 11
77
 20
-15.25
 21
-15.25
  0
LINE
  8
0
 10
77
 11
77
 20
-15.25
 21
-22
  0
LINE
  8
0
 10
77
 11
100
 20
-22
 21
-22
  0
LINE
  8
0
 10
100
 11
100.784
 20
-22
 21
-21.966
  0
LINE
  8
0
 10
100.784
 11
101.563
 20
-21.966
 21
-21.863
  0
LINE
  8
0
 10
101.563
 11
102.329
 20
-21.863
 21
-21.693
  0
LINE
  8
0
 10
102.329
 11
103.078
 20
-21.693
 21
-21.457
  0
LINE
  8
0
 10
103.078
 11
103.804
 20
-21.457
 21
-21.157
  0
LINE
  8
0
 10
103.804
 11
104.5
 20
-21.157
 21
-20.794
  0
LINE
  8
0
 10
104.5
 11
105.162
 20
-20.794
 21
-20.372
  0
LINE
  8
0
 10
105.162
 11
105.785
 20
-20.372
 21
-19.894
  0
LINE
  8
0
 10
105.785
 11
106.364
 20
-19.894
 21
-19.364
  0
LINE
  8
0
 10
106.364
 11
106.894
 20
-19.364
 21
-18.785
  0
LINE
  8
0
 10
106.894
 11
107.372
 20
-18.785
 21
-18.162
  0
LINE
  8
0
 10
107.372
 11
107.794
 20
-18.162
 21
-17.5
  0
LINE
  8
0
 10
107.794
 11
108.157
 20
-17.5
 21
-16.804
  0
LINE
  8
0
 10
108.157
 11
108.457
 20
-16.804
 21
-16.078
  0
LINE
  8
0
 10
108.457
 11
108.693
 20
-16.078
 21
-15.329
  0
LINE
  8
0
 10
108.693
 11
108.711
 20
-15.329
 21
-15.25
  0
LINE
  8
0
 10
108.711
 11
114.5
 20
-15.25
 21
-15.25
  0
LINE
  8
0
 10
114.5
 11
114.5
 20
-15.25
 21
-60.5
  0
LINE
  8
0
 10
114.5
 11
-24.75
 20
-60.5
 21
-60.5
  0
LINE
  8
0
 10
-24.75
 11
-24.75
 20
-14.75
 21
60.5
  0
LINE
  8
0
 10
-24.75
 11
114.5
 20
60.5
 21
60.5
  0
LINE
  8
0
 10
114.5
 11
114.5
 20
60.5
 21
-14.75
  0
LINE
  8
0
 10
114.5
 11
108.822
 20
-14.75
 21
-14.75
  0
LINE
  8
0
 10
108.822
 11
108.863
 20
-14.75
 21
-14.563
  0
LINE
  8
0
 10
108.863
 11
108.966
 20
-14.563
 21
-13.784
  0
LINE
  8
0
 10
108.966
 11
109
 20
-13.784
 21
-13
  0
LINE
  8
0
 10
109
 11
109
 20
-13
 21
49
  0
LINE
  8
0
 10
109
 11
108.966
 20
49
 21
49.784
  0
LINE
  8
0
 10
108.966
 11
108.863
 20
49.784
 21
50.563
  0
LINE
  8
0
 10
108.863
 11
108.693
 20
50.563
 21
51.329
  0
LINE
  8
0
 10
108.693
 11
108.457
 20
51.329
 21
52.078
  0
LINE
  8
0
 10
108.457
 11
108.157
 20
52.078
 21
52.804
  0
LINE
  8
0
 10
108.157
 11
107.794
 20
52.804
 21
53.5
  0
LINE
  8
0
 10
107.794
 11
107.372
 20
53.5
 21
54.162
  0
LINE
  8
0
 10
107.372
 11
107.186
 20
54.162
 21
54.405
  0
LINE
  8
0
 10
107.186
 11
107.007
 20
54.405
 21
54.638
  0
LINE
  8
0
 10
107.007
 11
106.894
 20
54.638
 21
54.785
  0
LINE
  8
0
 10
106.894
 11
106.364
 20
54.785
 21
55.364
  0
LINE
  8
0
 10
106.364
 11
105.785
 20
55.364
 21
55.894
  0
LINE
  8
0
 10
105.785
 11
105.162
 20
55.894
 21
56.372
  0
LINE
  8
0
 10
105.162
 11
104.5
 20
56.372
 21
56.794
  0
LINE
  8
0
 10
104.5
 11
103.804
 20
56.794
 21
57.157
  0
LINE
  8
0
 10
103.804
 11
103.078
 20
57.157
 21
57.457
  0
LINE
  8
0
 10
103.078
 11
102.329
 20
57.457
 21
57.693
  0
LINE
  8
0
 10
102.329
 11
101.563
 20
57.693
 21
57.863
  0
LINE
  8
0
 10
101.563
 11
100.784
 20
57.863
 21
57.966
  0
LINE
  8
0
 10
100.784
 11
100
 20
57.966
 21
58
  0
LINE
  8
0
 10
100
 11
44
 20
58
 21
58
  0
LINE
  8
0
 10
44
 11
44
 20
58
 21
46
  0
LINE
  8
0
 10
44
 11
46.922
 20
46
 21
46
  0
LINE
  8
0
 10
46.922
 11
46.922
 20
46
 21
49
  0
LINE
  8
0
 10
46.922
 11
51.078
 20
49
 21
49
  0
LINE
  8
0
 10
51.078
 11
51.078
 20
49
 21
46
  0
LINE
  8
0
 10
51.078
 11
68.922
 20
46
 21
46
  0
LINE
  8
0
 10
68.922
 11
68.922
 20
46
 21
49
  0
LINE
  8
0
 10
68.922
 11
73.078
 20
49
 21
49
  0
LINE
  8
0
 10
73.078
 11
73.078
 20
49
 21
46
  0
LINE
  8
0
 10
73.078
 11
77
 20
46
 21
46
  0
LINE
  8
0
 10
77
 11
77
 20
46
 21
-14.75
  0
LINE
  8
0
 10
77
 11
-24.75
 20
-14.75
 21
-14.75
  0
LINE
  8
0
 10
-22.571
 11
-22.571
 20
31.677
 21
32.077
  0
LINE
  8
0
 10
-22.571
 11
-17.5
 20
32.077
 21
32.077
  0
LINE
  8
0
 10
-17.5
 11
-17.5
 20
32.077
 21
31.457
  0
LINE
  8
0
 10
-17.5
 11
-21.452
 20
31.457
 21
31.457
  0
LINE
  8
0
 10
-21.452
 11
-21.024
 20
31.457
 21
30.869
  0
LINE
  8
0
 10
-21.024
 11
-20.704
 20
30.869
 21
30.217
  0
LINE
  8
0
 10
-20.704
 11
-21.304
 20
30.217
 21
30.217
  0
LINE
  8
0
 10
-21.304
 11
-21.896
 20
30.217
 21
31.126
  0
LINE
  8
0
 10
-21.896
 11
-22.571
 20
31.126
 21
31.677
  0
LINE
  8
0
 10
-22.571
 11
-22.168
 20
34.704
 21
35.738
  0
LINE
  8
0
 10
-22.168
 11
-21.169
 20
35.738
 21
36.118
  0
LINE
  8
0
 10
-21.169
 11
-20.573
 20
36.118
 21
36.007
  0
LINE
  8
0
 10
-20.573
 11
-19.956
 20
36.007
 21
35.637
  0
LINE
  8
0
 10
-19.956
 11
-19.067
 20
35.637
 21
34.778
  0
LINE
  8
0
 10
-19.067
 11
-18.432
 20
34.778
 21
34.134
  0
LINE
  8
0
 10
-18.432
 11
-18.096
 20
34.134
 21
33.899
  0
LINE
  8
0
 10
-18.096
 11
-18.096
 20
33.899
 21
36.124
  0
LINE
  8
0
 10
-18.096
 11
-17.5
 20
36.124
 21
36.124
  0
LINE
  8
0
 10
-17.5
 11
-17.5
 20
36.124
 21
33.126
  0
LINE
  8
0
 10
-17.5
 11
-17.931
 20
33.126
 21
33.191
  0
LINE
  8
0
 10
-17.931
 11
-18.602
 20
33.191
 21
33.558
  0
LINE
  8
0
 10
-18.602
 11
-19.367
 20
33.558
 21
34.286
  0
LINE
  8
0
 10
-19.367
 11
-20.437
 20
34.286
 21
35.286
  0
LINE
  8
0
 10
-20.437
 11
-21.183
 20
35.286
 21
35.546
  0
LINE
  8
0
 10
-21.183
 11
-21.805
 20
35.546
 21
35.309
  0
LINE
  8
0
 10
-21.805
 11
-22.058
 20
35.309
 21
34.692
  0
LINE
  8
0
 10
-22.058
 11
-21.789
 20
34.692
 21
34.048
  0
LINE
  8
0
 10
-21.789
 11
-21.045
 20
34.048
 21
33.803
  0
LINE
  8
0
 10
-21.045
 11
-21.111
 20
33.803
 21
33.231
  0
LINE
  8
0
 10
-21.111
 11
-22.197
 20
33.231
 21
33.674
  0
LINE
  8
0
 10
-22.197
 11
-22.571
 20
33.674
 21
34.704
  0
LINE
  8
0
 10
-22.571
 11
-22.168
 20
38.141
 21
39.175
  0
LINE
  8
0
 10
-22.168
 11
-21.169
 20
39.175
 21
39.556
  0
LINE
  8
0
 10
-21.169
 11
-20.573
 20
39.556
 21
39.444
  0
LINE
  8
0
 10
-20.573
 11
-19.956
 20
39.444
 21
39.074
  0
LINE
  8
0
 10
-19.956
 11
-19.067
 20
39.074
 21
38.216
  0
LINE
  8
0
 10
-19.067
 11
-18.432
 20
38.216
 21
37.572
  0
LINE
  8
0
 10
-18.432
 11
-18.096
 20
37.572
 21
37.337
  0
LINE
  8
0
 10
-18.096
 11
-18.096
 20
37.337
 21
39.562
  0
LINE
  8
0
 10
-18.096
 11
-17.5
 20
39.562
 21
39.562
  0
LINE
  8
0
 10
-17.5
 11
-17.5
 20
39.562
 21
36.563
  0
LINE
  8
0
 10
-17.5
 11
-17.931
 20
36.563
 21
36.628
  0
LINE
  8
0
 10
-17.931
 11
-18.602
 20
36.628
 21
36.995
  0
LINE
  8
0
 10
-18.602
 11
-19.367
 20
36.995
 21
37.724
  0
LINE
  8
0
 10
-19.367
 11
-20.437
 20
37.724
 21
38.723
  0
LINE
  8
0
 10
-20.437
 11
-21.183
 20
38.723
 21
38.983
  0
LINE
  8
0
 10
-21.183
 11
-21.805
 20
38.983
 21
38.746
  0
LINE
  8
0
 10
-21.805
 11
-22.058
 20
38.746
 21
38.129
  0
LINE
  8
0
 10
-22.058
 11
-21.789
 20
38.129
 21
37.486
  0
LINE
  8
0
 10
-21.789
 11
-21.045
 20
37.486
 21
37.241
  0
LINE
  8
0
 10
-21.045
 11
-21.111
 20
37.241
 21
36.669
  0
LINE
  8
0
 10
-21.111
 11
-22.197
 20
36.669
 21
37.111
  0
LINE
  8
0
 10
-22.197
 11
-22.571
 20
37.111
 21
38.141
  0
LINE
  8
0
 10
-21.241
 11
-21.072
 20
44.563
 21
45.013
  0
LINE
  8
0
 10
-21.072
 11
-20.601
 20
45.013
 21
45.261
  0
LINE
  8
0
 10
-20.601
 11
-21.241
 20
45.261
 21
46.025
  0
LINE
  8
0
 10
-21.241
 11
-20.94
 20
46.025
 21
46.591
  0
LINE
  8
0
 10
-20.94
 11
-20.012
 20
46.591
 21
46.789
  0
LINE
  8
0
 10
-20.012
 11
-17.5
 20
46.789
 21
46.789
  0
LINE
  8
0
 10
-17.5
 11
-17.5
 20
46.789
 21
46.216
  0
LINE
  8
0
 10
-17.5
 11
-19.774
 20
46.216
 21
46.185
  0
LINE
  8
0
 10
-19.774
 11
-20.278
 20
46.185
 21
46.207
  0
LINE
  8
0
 10
-20.278
 11
-20.542
 20
46.207
 21
46.059
  0
LINE
  8
0
 10
-20.542
 11
-20.486
 20
46.059
 21
45.808
  0
LINE
  8
0
 10
-20.486
 11
-20.198
 20
45.808
 21
45.436
  0
LINE
  8
0
 10
-20.198
 11
-19.626
 20
45.436
 21
45.326
  0
LINE
  8
0
 10
-19.626
 11
-17.5
 20
45.326
 21
45.326
  0
LINE
  8
0
 10
-17.5
 11
-17.469
 20
45.326
 21
44.845
  0
LINE
  8
0
 10
-17.469
 11
-19.784
 20
44.845
 21
44.783
  0
LINE
  8
0
 10
-19.784
 11
-20.372
 20
44.783
 21
44.711
  0
LINE
  8
0
 10
-20.372
 11
-20.517
 20
44.711
 21
44.469
  0
LINE
  8
0
 10
-20.517
 11
-20.348
 20
44.469
 21
44.267
  0
LINE
  8
0
 10
-20.348
 11
-20.132
 20
44.267
 21
44.018
  0
LINE
  8
0
 10
-20.132
 11
-19.367
 20
44.018
 21
44.044
  0
LINE
  8
0
 10
-19.367
 11
-17.531
 20
44.044
 21
44.075
  0
LINE
  8
0
 10
-17.531
 11
-17.5
 20
44.075
 21
43.438
  0
LINE
  8
0
 10
-17.5
 11
-21.159
 20
43.438
 21
43.438
  0
LINE
  8
0
 10
-21.159
 11
-21.159
 20
43.438
 21
43.813
  0
LINE
  8
0
 10
-21.159
 11
-20.646
 20
43.813
 21
43.813
  0
LINE
  8
0
 10
-20.646
 11
-21.078
 20
43.813
 21
44.122
  0
LINE
  8
0
 10
-21.078
 11
-21.241
 20
44.122
 21
44.563
  0
LINE
  8
0
 10
-21.241
 11
-21.072
 20
48
 21
48.451
  0
LINE
  8
0
 10
-21.072
 11
-20.601
 20
48.451
 21
48.699
  0
LINE
  8
0
 10
-20.601
 11
-21.241
 20
48.699
 21
49.463
  0
LINE
  8
0
 10
-21.241
 11
-20.94
 20
49.463
 21
50.029
  0
LINE
  8
0
 10
-20.94
 11
-20.012
 20
50.029
 21
50.227
  0
LINE
  8
0
 10
-20.012
 11
-17.5
 20
50.227
 21
50.227
  0
LINE
  8
0
 10
-17.5
 11
-17.5
 20
50.227
 21
49.654
  0
LINE
  8
0
 10
-17.5
 11
-19.774
 20
49.654
 21
49.622
  0
LINE
  8
0
 10
-19.774
 11
-20.278
 20
49.622
 21
49.644
  0
LINE
  8
0
 10
-20.278
 11
-20.542
 20
49.644
 21
49.496
  0
LINE
  8
0
 10
-20.542
 11
-20.486
 20
49.496
 21
49.245
  0
LINE
  8
0
 10
-20.486
 11
-20.198
 20
49.245
 21
48.874
  0
LINE
  8
0
 10
-20.198
 11
-19.626
 20
48.874
 21
48.764
  0
LINE
  8
0
 10
-19.626
 11
-17.5
 20
48.764
 21
48.764
  0
LINE
  8
0
 10
-17.5
 11
-17.469
 20
48.764
 21
48.283
  0
LINE
  8
0
 10
-17.469
 11
-19.784
 20
48.283
 21
48.22
  0
LINE
  8
0
 10
-19.784
 11
-20.372
 20
48.22
 21
48.149
  0
LINE
  8
0
 10
-20.372
 11
-20.517
 20
48.149
 21
47.907
  0
LINE
  8
0
 10
-20.517
 11
-20.348
 20
47.907
 21
47.704
  0
LINE
  8
0
 10
-20.348
 11
-20.132
 20
47.704
 21
47.456
  0
LINE
  8
0
 10
-20.132
 11
-19.367
 20
47.456
 21
47.481
  0
LINE
  8
0
 10
-19.367
 11
-17.531
 20
47.481
 21
47.512
  0
LINE
  8
0
 10
-17.531
 11
-17.5
 20
47.512
 21
46.875
  0
LINE
  8
0
 10
-17.5
 11
-21.159
 20
46.875
 21
46.875
  0
LINE
  8
0
 10
-21.159
 11
-21.159
 20
46.875
 21
47.25
  0
LINE
  8
0
 10
-21.159
 11
-20.646
 20
47.25
 21
47.25
  0
LINE
  8
0
 10
-20.646
 11
-21.078
 20
47.25
 21
47.56
  0
LINE
  8
0
 10
-21.078
 11
-21.241
 20
47.56
 21
48
  0
LINE
  8
0
 10
49.688
 11
49.753
 20
-22.5
 21
-22.069
  0
LINE
  8
0
 10
49.753
 11
50.12
 20
-22.069
 21
-21.397
  0
LINE
  8
0
 10
50.12
 11
50.849
 20
-21.397
 21
-20.632
  0
LINE
  8
0
 10
50.849
 11
51.848
 20
-20.632
 21
-19.563
  0
LINE
  8
0
 10
51.848
 11
52.108
 20
-19.563
 21
-18.817
  0
LINE
  8
0
 10
52.108
 11
51.871
 20
-18.817
 21
-18.195
  0
LINE
  8
0
 10
51.871
 11
51.254
 20
-18.195
 21
-17.942
  0
LINE
  8
0
 10
51.254
 11
50.611
 20
-17.942
 21
-18.211
  0
LINE
  8
0
 10
50.611
 11
50.366
 20
-18.211
 21
-18.955
  0
LINE
  8
0
 10
50.366
 11
49.794
 20
-18.955
 21
-18.889
  0
LINE
  8
0
 10
49.794
 11
50.236
 20
-18.889
 21
-17.802
  0
LINE
  8
0
 10
50.236
 11
51.266
 20
-17.802
 21
-17.429
  0
LINE
  8
0
 10
51.266
 11
52.3
 20
-17.429
 21
-17.832
  0
LINE
  8
0
 10
52.3
 11
52.681
 20
-17.832
 21
-18.831
  0
LINE
  8
0
 10
52.681
 11
52.569
 20
-18.831
 21
-19.427
  0
LINE
  8
0
 10
52.569
 11
52.199
 20
-19.427
 21
-20.044
  0
LINE
  8
0
 10
52.199
 11
51.341
 20
-20.044
 21
-20.932
  0
LINE
  8
0
 10
51.341
 11
50.697
 20
-20.932
 21
-21.568
  0
LINE
  8
0
 10
50.697
 11
50.462
 20
-21.568
 21
-21.904
  0
LINE
  8
0
 10
50.462
 11
52.687
 20
-21.904
 21
-21.904
  0
LINE
  8
0
 10
52.687
 11
52.687
 20
-21.904
 21
-22.5
  0
LINE
  8
0
 10
52.687
 11
49.688
 20
-22.5
 21
-22.5
  0
LINE
  8
0
 10
52.4
 11
52.406
 20
54
 21
54.139
  0
LINE
  8
0
 10
52.406
 11
52.424
 20
54.139
 21
54.278
  0
LINE
  8
0
 10
52.424
 11
52.455
 20
54.278
 21
54.414
  0
LINE
  8
0
 10
52.455
 11
52.496
 20
54.414
 21
54.547
  0
LINE
  8
0
 10
52.496
 11
52.517
 20
54.547
 21
54.597
  0
LINE
  8
0
 10
52.517
 11
52.55
 20
54.597
 21
54.676
  0
LINE
  8
0
 10
52.55
 11
52.614
 20
54.676
 21
54.8
  0
LINE
  8
0
 10
52.614
 11
52.689
 20
54.8
 21
54.918
  0
LINE
  8
0
 10
52.689
 11
52.774
 20
54.918
 21
55.028
  0
LINE
  8
0
 10
52.774
 11
52.869
 20
55.028
 21
55.131
  0
LINE
  8
0
 10
52.869
 11
52.972
 20
55.131
 21
55.226
  0
LINE
  8
0
 10
52.972
 11
53.082
 20
55.226
 21
55.311
  0
LINE
  8
0
 10
53.082
 11
53.2
 20
55.311
 21
55.386
  0
LINE
  8
0
 10
53.2
 11
53.324
 20
55.386
 21
55.45
  0
LINE
  8
0
 10
53.324
 11
53.453
 20
55.45
 21
55.503
  0
LINE
  8
0
 10
53.453
 11
53.586
 20
55.503
 21
55.545
  0
LINE
  8
0
 10
53.586
 11
53.722
 20
55.545
 21
55.576
  0
LINE
  8
0
 10
53.722
 11
53.861
 20
55.576
 21
55.594
  0
LINE
  8
0
 10
53.861
 11
54
 20
55.594
 21
55.6
  0
LINE
  8
0
 10
54
 11
54.139
 20
55.6
 21
55.594
  0
LINE
  8
0
 10
54.139
 11
54.278
 20
55.594
 21
55.576
  0
LINE
  8
0
 10
54.278
 11
54.414
 20
55.576
 21
55.545
  0
LINE
  8
0
 10
54.414
 11
54.547
 20
55.545
 21
55.503
  0
LINE
  8
0
 10
54.547
 11
54.676
 20
55.503
 21
55.45
  0
LINE
  8
0
 10
54.676
 11
54.8
 20
55.45
 21
55.386
  0
LINE
  8
0
 10
54.8
 11
54.918
 20
55.386
 21
55.311
  0
LINE
  8
0
 10
54.918
 11
55.028
 20
55.311
 21
55.226
  0
LINE
  8
0
 10
55.028
 11
55.131
 20
55.226
 21
55.131
  0
LINE
  8
0
 10
55.131
 11
55.226
 20
55.131
 21
55.028
  0
LINE
  8
0
 10
55.226
 11
55.311
 20
55.028
 21
54.918
  0
LINE
  8
0
 10
55.311
 11
55.386
 20
54.918
 21
54.8
  0
LINE
  8
0
 10
55.386
 11
55.45
 20
54.8
 21
54.676
  0
LINE
  8
0
 10
55.45
 11
55.483
 20
54.676
 21
54.597
  0
LINE
  8
0
 10
55.483
 11
55.503
 20
54.597
 21
54.549
  0
LINE
  8
0
 10
55.503
 11
55.504
 20
54.549
 21
54.547
  0
LINE
  8
0
 10
55.504
 11
55.545
 20
54.547
 21
54.414
  0
LINE
  8
0
 10
55.545
 11
55.576
 20
54.414
 21
54.278
  0
LINE
  8
0
 10
55.576
 11
55.594
 20
54.278
 21
54.139
  0
LINE
  8
0
 10
55.594
 11
55.6
 20
54.139
 21
54
  0
LINE
  8
0
 10
55.6
 11
55.594
 20
54
 21
53.861
  0
LINE
  8
0
 10
55.594
 11
55.576
 20
53.861
 21
53.722
  0
LINE
  8
0
 10
55.576
 11
55.545
 20
53.722
 21
53.586
  0
LINE
  8
0
 10
55.545
 11
55.504
 20
53.586
 21
53.453
  0
LINE
  8
0
 10
55.504
 11
55.45
 20
53.453
 21
53.324
  0
LINE
  8
0
 10
55.45
 11
55.386
 20
53.324
 21
53.2
  0
LINE
  8
0
 10
55.386
 11
55.311
 20
53.2
 21
53.082
  0
LINE
  8
0
 10
55.311
 11
55.226
 20
53.082
 21
52.971
  0
LINE
  8
0
 10
55.226
 11
55.131
 20
52.971
 21
52.869
  0
LINE
  8
0
 10
55.131
 11
55.028
 20
52.869
 21
52.774
  0
LINE
  8
0
 10
55.028
 11
54.918
 20
52.774
 21
52.689
  0
LINE
  8
0
 10
54.918
 11
54.8
 20
52.689
 21
52.614
  0
LINE
  8
0
 10
54.8
 11
54.676
 20
52.614
 21
52.55
  0
LINE
  8
0
 10
54.676
 11
54.547
 20
52.55
 21
52.496
  0
LINE
  8
0
 10
54.547
 11
54.414
 20
52.496
 21
52.454
  0
LINE
  8
0
 10
54.414
 11
54.278
 20
52.454
 21
52.424
  0
LINE
  8
0
 10
54.278
 11
54.139
 20
52.424
 21
52.406
  0
LINE
  8
0
 10
54.139
 11
54
 20
52.406
 21
52.4
  0
LINE
  8
0
 10
54
 11
53.861
 20
52.4
 21
52.406
  0
LINE
  8
0
 10
53.861
 11
53.722
 20
52.406
 21
52.424
  0
LINE
  8
0
 10
53.722
 11
53.586
 20
52.424
 21
52.454
  0
LINE
  8
0
 10
53.586
 11
53.453
 20
52.454
 21
52.496
  0
LINE
  8
0
 10
53.453
 11
53.324
 20
52.496
 21
52.55
  0
LINE
  8
0
 10
53.324
 11
53.2
 20
52.55
 21
52.614
  0
LINE
  8
0
 10
53.2
 11
53.082
 20
52.614
 21
52.689
  0
LINE
  8
0
 10
53.082
 11
52.972
 20
52.689
 21
52.774
  0
LINE
  8
0
 10
52.972
 11
52.869
 20
52.774
 21
52.869
  0
LINE
  8
0
 10
52.869
 11
52.774
 20
52.869
 21
52.971
  0
LINE
  8
0
 10
52.774
 11
52.689
 20
52.971
 21
53.082
  0
LINE
  8
0
 10
52.689
 11
52.614
 20
53.082
 21
53.2
  0
LINE
  8
0
 10
52.614
 11
52.55
 20
53.2
 21
53.324
  0
LINE
  8
0
 10
52.55
 11
52.496
 20
53.324
 21
53.453
  0
LINE
  8
0
 10
52.496
 11
52.455
 20
53.453
 21
53.586
  0
LINE
  8
0
 10
52.455
 11
52.424
 20
53.586
 21
53.722
  0
LINE
  8
0
 10
52.424
 11
52.406
 20
53.722
 21
53.861
  0
LINE
  8
0
 10
52.406
 11
52.4
 20
53.861
 21
54
  0
LINE
  8
0
 10
53.125
 11
53.687
 20
-21.077
 21
-20.994
  0
LINE
  8
0
 10
53.687
 11
54.017
 20
-20.994
 21
-21.754
  0
LINE
  8
0
 10
54.017
 11
54.584
 20
-21.754
 21
-21.986
  0
LINE
  8
0
 10
54.584
 11
55.254
 20
-21.986
 21
-21.683
  0
LINE
  8
0
 10
55.254
 11
55.527
 20
-21.683
 21
-20.932
  0
LINE
  8
0
 10
55.527
 11
55.274
 20
-20.932
 21
-20.227
  0
LINE
  8
0
 10
55.274
 11
54.631
 20
-20.227
 21
-19.951
  0
LINE
  8
0
 10
54.631
 11
54.234
 20
-19.951
 21
-20.019
  0
LINE
  8
0
 10
54.234
 11
54.296
 20
-20.019
 21
-19.475
  0
LINE
  8
0
 10
54.296
 11
54.387
 20
-19.475
 21
-19.482
  0
LINE
  8
0
 10
54.387
 11
55.034
 20
-19.482
 21
-19.275
  0
LINE
  8
0
 10
55.034
 11
55.321
 20
-19.275
 21
-18.638
  0
LINE
  8
0
 10
55.321
 11
55.112
 20
-18.638
 21
-18.073
  0
LINE
  8
0
 10
55.112
 11
54.571
 20
-18.073
 21
-17.849
  0
LINE
  8
0
 10
54.571
 11
54.025
 20
-17.849
 21
-18.076
  0
LINE
  8
0
 10
54.025
 11
53.744
 20
-18.076
 21
-18.759
  0
LINE
  8
0
 10
53.744
 11
53.181
 20
-18.759
 21
-18.648
  0
LINE
  8
0
 10
53.181
 11
53.65
 20
-18.648
 21
-17.682
  0
LINE
  8
0
 10
53.65
 11
54.559
 20
-17.682
 21
-17.339
  0
LINE
  8
0
 10
54.559
 11
55.249
 20
-17.339
 21
-17.516
  0
LINE
  8
0
 10
55.249
 11
55.732
 20
-17.516
 21
-18.001
  0
LINE
  8
0
 10
55.732
 11
55.899
 20
-18.001
 21
-18.652
  0
LINE
  8
0
 10
55.899
 11
55.739
 20
-18.652
 21
-19.247
  0
LINE
  8
0
 10
55.739
 11
55.268
 20
-19.247
 21
-19.675
  0
LINE
  8
0
 10
55.268
 11
55.899
 20
-19.675
 21
-20.104
  0
LINE
  8
0
 10
55.899
 11
56.124
 20
-20.104
 21
-20.919
  0
LINE
  8
0
 10
56.124
 11
55.686
 20
-20.919
 21
-22.04
  0
LINE
  8
0
 10
55.686
 11
54.581
 20
-22.04
 21
-22.5
  0
LINE
  8
0
 10
54.581
 11
53.579
 20
-22.5
 21
-22.104
  0
LINE
  8
0
 10
53.579
 11
53.125
 20
-22.104
 21
-21.077
  0
LINE
  8
0
 10
56.563
 11
56.731
 20
-19.923
 21
-18.481
  0
LINE
  8
0
 10
56.731
 11
57.229
 20
-18.481
 21
-17.639
  0
LINE
  8
0
 10
57.229
 11
58.062
 20
-17.639
 21
-17.342
  0
LINE
  8
0
 10
58.062
 11
58.711
 20
-17.342
 21
-17.506
  0
LINE
  8
0
 10
58.711
 11
59.173
 20
-17.506
 21
-17.978
  0
LINE
  8
0
 10
59.173
 11
59.457
 20
-17.978
 21
-18.729
  0
LINE
  8
0
 10
59.457
 11
59.561
 20
-18.729
 21
-19.923
  0
LINE
  8
0
 10
59.561
 11
59.395
 20
-19.923
 21
-21.357
  0
LINE
  8
0
 10
59.395
 11
58.898
 20
-21.357
 21
-22.202
  0
LINE
  8
0
 10
58.898
 11
58.062
 20
-22.202
 21
-22.5
  0
LINE
  8
0
 10
58.062
 11
57.018
 20
-22.5
 21
-21.976
  0
LINE
  8
0
 10
57.018
 11
56.563
 20
-21.976
 21
-19.923
  0
LINE
  8
0
 10
57.143
 11
57.434
 20
-19.923
 21
-18.217
  0
LINE
  8
0
 10
57.434
 11
58.056
 20
-18.217
 21
-17.856
  0
LINE
  8
0
 10
58.056
 11
58.716
 20
-17.856
 21
-18.266
  0
LINE
  8
0
 10
58.716
 11
58.981
 20
-18.266
 21
-19.923
  0
LINE
  8
0
 10
58.981
 11
58.716
 20
-19.923
 21
-21.576
  0
LINE
  8
0
 10
58.716
 11
58.062
 20
-21.576
 21
-21.99
  0
LINE
  8
0
 10
58.062
 11
57.408
 20
-21.99
 21
-21.578
  0
LINE
  8
0
 10
57.408
 11
57.143
 20
-21.578
 21
-19.923
  0
LINE
  8
0
 10
63.438
 11
63.438
 20
-22.5
 21
-18.841
  0
LINE
  8
0
 10
63.438
 11
63.812
 20
-18.841
 21
-18.841
  0
LINE
  8
0
 10
63.812
 11
63.812
 20
-18.841
 21
-19.354
  0
LINE
  8
0
 10
63.812
 11
64.122
 20
-19.354
 21
-18.922
  0
LINE
  8
0
 10
64.122
 11
64.562
 20
-18.922
 21
-18.759
  0
LINE
  8
0
 10
64.562
 11
65.013
 20
-18.759
 21
-18.927
  0
LINE
  8
0
 10
65.013
 11
65.261
 20
-18.927
 21
-19.399
  0
LINE
  8
0
 10
65.261
 11
66.025
 20
-19.399
 21
-18.759
  0
LINE
  8
0
 10
66.025
 11
66.591
 20
-18.759
 21
-19.06
  0
LINE
  8
0
 10
66.591
 11
66.789
 20
-19.06
 21
-19.988
  0
LINE
  8
0
 10
66.789
 11
66.789
 20
-19.988
 21
-22.5
  0
LINE
  8
0
 10
66.789
 11
66.216
 20
-22.5
 21
-22.5
  0
LINE
  8
0
 10
66.216
 11
66.185
 20
-22.5
 21
-20.226
  0
LINE
  8
0
 10
66.185
 11
66.207
 20
-20.226
 21
-19.722
  0
LINE
  8
0
 10
66.207
 11
66.059
 20
-19.722
 21
-19.458
  0
LINE
  8
0
 10
66.059
 11
65.807
 20
-19.458
 21
-19.514
  0
LINE
  8
0
 10
65.807
 11
65.436
 20
-19.514
 21
-19.802
  0
LINE
  8
0
 10
65.436
 11
65.326
 20
-19.802
 21
-20.374
  0
LINE
  8
0
 10
65.326
 11
65.326
 20
-20.374
 21
-22.5
  0
LINE
  8
0
 10
65.326
 11
64.845
 20
-22.5
 21
-22.531
  0
LINE
  8
0
 10
64.845
 11
64.783
 20
-22.531
 21
-20.216
  0
LINE
  8
0
 10
64.783
 11
64.711
 20
-20.216
 21
-19.627
  0
LINE
  8
0
 10
64.711
 11
64.469
 20
-19.627
 21
-19.483
  0
LINE
  8
0
 10
64.469
 11
64.267
 20
-19.483
 21
-19.652
  0
LINE
  8
0
 10
64.267
 11
64.018
 20
-19.652
 21
-19.868
  0
LINE
  8
0
 10
64.018
 11
64.044
 20
-19.868
 21
-20.632
  0
LINE
  8
0
 10
64.044
 11
64.075
 20
-20.632
 21
-22.469
  0
LINE
  8
0
 10
64.075
 11
63.438
 20
-22.469
 21
-22.5
  0
LINE
  8
0
 10
66.875
 11
66.875
 20
-22.5
 21
-18.841
  0
LINE
  8
0
 10
66.875
 11
67.25
 20
-18.841
 21
-18.841
  0
LINE
  8
0
 10
67.25
 11
67.25
 20
-18.841
 21
-19.354
  0
LINE
  8
0
 10
67.25
 11
67.56
 20
-19.354
 21
-18.922
  0
LINE
  8
0
 10
67.56
 11
68
 20
-18.922
 21
-18.759
  0
LINE
  8
0
 10
68
 11
68.451
 20
-18.759
 21
-18.927
  0
LINE
  8
0
 10
68.451
 11
68.699
 20
-18.927
 21
-19.399
  0
LINE
  8
0
 10
68.699
 11
69.462
 20
-19.399
 21
-18.759
  0
LINE
  8
0
 10
69.462
 11
70.029
 20
-18.759
 21
-19.06
  0
LINE
  8
0
 10
70.029
 11
70.227
 20
-19.06
 21
-19.988
  0
LINE
  8
0
 10
70.227
 11
70.227
 20
-19.988
 21
-22.5
  0
LINE
  8
0
 10
70.227
 11
69.654
 20
-22.5
 21
-22.5
  0
LINE
  8
0
 10
69.654
 11
69.622
 20
-22.5
 21
-20.226
  0
LINE
  8
0
 10
69.622
 11
69.644
 20
-20.226
 21
-19.722
  0
LINE
  8
0
 10
69.644
 11
69.496
 20
-19.722
 21
-19.458
  0
LINE
  8
0
 10
69.496
 11
69.245
 20
-19.458
 21
-19.514
  0
LINE
  8
0
 10
69.245
 11
68.874
 20
-19.514
 21
-19.802
  0
LINE
  8
0
 10
68.874
 11
68.764
 20
-19.802
 21
-20.374
  0
LINE
  8
0
 10
68.764
 11
68.764
 20
-20.374
 21
-22.5
  0
LINE
  8
0
 10
68.764
 11
68.283
 20
-22.5
 21
-22.531
  0
LINE
  8
0
 10
68.283
 11
68.22
 20
-22.531
 21
-20.216
  0
LINE
  8
0
 10
68.22
 11
68.149
 20
-20.216
 21
-19.627
  0
LINE
  8
0
 10
68.149
 11
67.907
 20
-19.627
 21
-19.483
  0
LINE
  8
0
 10
67.907
 11
67.704
 20
-19.483
 21
-19.652
  0
LINE
  8
0
 10
67.704
 11
67.456
 20
-19.652
 21
-19.868
  0
LINE
  8
0
 10
67.456
 11
67.481
 20
-19.868
 21
-20.632
  0
LINE
  8
0
 10
67.481
 11
67.512
 20
-20.632
 21
-22.469
  0
LINE
  8
0
 10
67.512
 11
66.875
 20
-22.469
 21
-22.5
  0
LINE
  8
0
 10
74.4
 11
74.406
 20
54
 21
54.139
  0
LINE
  8
0
 10
74.406
 11
74.424
 20
54.139
 21
54.278
  0
LINE
  8
0
 10
74.424
 11
74.455
 20
54.278
 21
54.414
  0
LINE
  8
0
 10
74.455
 11
74.496
 20
54.414
 21
54.547
  0
LINE
  8
0
 10
74.496
 11
74.517
 20
54.547
 21
54.597
  0
LINE
  8
0
 10
74.517
 11
74.55
 20
54.597
 21
54.676
  0
LINE
  8
0
 10
74.55
 11
74.614
 20
54.676
 21
54.8
  0
LINE
  8
0
 10
74.614
 11
74.689
 20
54.8
 21
54.918
  0
LINE
  8
0
 10
74.689
 11
74.774
 20
54.918
 21
55.028
  0
LINE
  8
0
 10
74.774
 11
74.869
 20
55.028
 21
55.131
  0
LINE
  8
0
 10
74.869
 11
74.972
 20
55.131
 21
55.226
  0
LINE
  8
0
 10
74.972
 11
75.082
 20
55.226
 21
55.311
  0
LINE
  8
0
 10
75.082
 11
75.2
 20
55.311
 21
55.386
  0
LINE
  8
0
 10
75.2
 11
75.324
 20
55.386
 21
55.45
  0
LINE
  8
0
 10
75.324
 11
75.453
 20
55.45
 21
55.503
  0
LINE
  8
0
 10
75.453
 11
75.586
 20
55.503
 21
55.545
  0
LINE
  8
0
 10
75.586
 11
75.722
 20
55.545
 21
55.576
  0
LINE
  8
0
 10
75.722
 11
75.861
 20
55.576
 21
55.594
  0
LINE
  8
0
 10
75.861
 11
76
 20
55.594
 21
55.6
  0
LINE
  8
0
 10
76
 11
76.139
 20
55.6
 21
55.594
  0
LINE
  8
0
 10
76.139
 11
76.278
 20
55.594
 21
55.576
  0
LINE
  8
0
 10
76.278
 11
76.414
 20
55.576
 21
55.545
  0
LINE
  8
0
 10
76.414
 11
76.547
 20
55.545
 21
55.503
  0
LINE
  8
0
 10
76.547
 11
76.676
 20
55.503
 21
55.45
  0
LINE
  8
0
 10
76.676
 11
76.8
 20
55.45
 21
55.386
  0
LINE
  8
0
 10
76.8
 11
76.918
 20
55.386
 21
55.311
  0
LINE
  8
0
 10
76.918
 11
77.028
 20
55.311
 21
55.226
  0
LINE
  8
0
 10
77.028
 11
77.131
 20
55.226
 21
55.131
  0
LINE
  8
0
 10
77.131
 11
77.226
 20
55.131
 21
55.028
  0
LINE
  8
0
 10
77.226
 11
77.311
 20
55.028
 21
54.918
  0
LINE
  8
0
 10
77.311
 11
77.386
 20
54.918
 21
54.8
  0
LINE
  8
0
 10
77.386
 11
77.45
 20
54.8
 21
54.676
  0
LINE
  8
0
 10
77.45
 11
77.483
 20
54.676
 21
54.597
  0
LINE
  8
0
 10
77.483
 11
77.503
 20
54.597
 21
54.549
  0
LINE
  8
0
 10
77.503
 11
77.504
 20
54.549
 21
54.547
  0
LINE
  8
0
 10
77.504
 11
77.545
 20
54.547
 21
54.414
  0
LINE
  8
0
 10
77.545
 11
77.576
 20
54.414
 21
54.278
  0
LINE
  8
0
 10
77.576
 11
77.594
 20
54.278
 21
54.139
  0
LINE
  8
0
 10
77.594
 11
77.6
 20
54.139
 21
54
  0
LINE
  8
0
 10
77.6
 11
77.594
 20
54
 21
53.861
  0
LINE
  8
0
 10
77.594
 11
77.576
 20
53.861
 21
53.722
  0
LINE
  8
0
 10
77.576
 11
77.545
 20
53.722
 21
53.586
  0
LINE
  8
0
 10
77.545
 11
77.504
 20
53.586
 21
53.453
  0
LINE
  8
0
 10
77.504
 11
77.45
 20
53.453
 21
53.324
  0
LINE
  8
0
 10
77.45
 11
77.386
 20
53.324
 21
53.2
  0
LINE
  8
0
 10
77.386
 11
77.311
 20
53.2
 21
53.082
  0
LINE
  8
0
 10
77.311
 11
77.226
 20
53.082
 21
52.971
  0
LINE
  8
0
 10
77.226
 11
77.131
 20
52.971
 21
52.869
  0
LINE
  8
0
 10
77.131
 11
77.028
 20
52.869
 21
52.774
  0
LINE
  8
0
 10
77.028
 11
76.918
 20
52.774
 21
52.689
  0
LINE
  8
0
 10
76.918
 11
76.8
 20
52.689
 21
52.614
  0
LINE
  8
0
 10
76.8
 11
76.676
 20
52.614
 21
52.55
  0
LINE
  8
0
 10
76.676
 11
76.547
 20
52.55
 21
52.496
  0
LINE
  8
0
 10
76.547
 11
76.414
 20
52.496
 21
52.454
  0
LINE
  8
0
 10
76.414
 11
76.278
 20
52.454
 21
52.424
  0
LINE
  8
0
 10
76.278
 11
76.139
 20
52.424
 21
52.406
  0
LINE
  8
0
 10
76.139
 11
76
 20
52.406
 21
52.4
  0
LINE
  8
0
 10
76
 11
75.861
 20
52.4
 21
52.406
  0
LINE
  8
0
 10
75.861
 11
75.722
 20
52.406
 21
52.424
  0
LINE
  8
0
 10
75.722
 11
75.586
 20
52.424
 21
52.454
  0
LINE
  8
0
 10
75.586
 11
75.453
 20
52.454
 21
52.496
  0
LINE
  8
0
 10
75.453
 11
75.324
 20
52.496
 21
52.55
  0
LINE
  8
0
 10
75.324
 11
75.2
 20
52.55
 21
52.614
  0
LINE
  8
0
 10
75.2
 11
75.082
 20
52.614
 21
52.689
  0
LINE
  8
0
 10
75.082
 11
74.972
 20
52.689
 21
52.774
  0
LINE
  8
0
 10
74.972
 11
74.869
 20
52.774
 21
52.869
  0
LINE
  8
0
 10
74.869
 11
74.774
 20
52.869
 21
52.971
  0
LINE
  8
0
 10
74.774
 11
74.689
 20
52.971
 21
53.082
  0
LINE
  8
0
 10
74.689
 11
74.614
 20
53.082
 21
53.2
  0
LINE
  8
0
 10
74.614
 11
74.55
 20
53.2
 21
53.324
  0
LINE
  8
0
 10
74.55
 11
74.496
 20
53.324
 21
53.453
  0
LINE
  8
0
 10
74.496
 11
74.455
 20
53.453
 21
53.586
  0
LINE
  8
0
 10
74.455
 11
74.424
 20
53.586
 21
53.722
  0
LINE
  8
0
 10
74.424
 11
74.406
 20
53.722
 21
53.861
  0
LINE
  8
0
 10
74.406
 11
74.4
 20
53.861
 21
54
  0
LINE
  8
0
 10
83.4
 11
83.406
 20
-12
 21
-11.861
  0
LINE
  8
0
 10
83.406
 11
83.424
 20
-11.861
 21
-11.722
  0
LINE
  8
0
 10
83.424
 11
83.455
 20
-11.722
 21
-11.586
  0
LINE
  8
0
 10
83.455
 11
83.496
 20
-11.586
 21
-11.453
  0
LINE
  8
0
 10
83.496
 11
83.55
 20
-11.453
 21
-11.324
  0
LINE
  8
0
 10
83.55
 11
83.614
 20
-11.324
 21
-11.2
  0
LINE
  8
0
 10
83.614
 11
83.689
 20
-11.2
 21
-11.082
  0
LINE
  8
0
 10
83.689
 11
83.774
 20
-11.082
 21
-10.972
  0
LINE
  8
0
 10
83.774
 11
83.869
 20
-10.972
 21
-10.869
  0
LINE
  8
0
 10
83.869
 11
83.972
 20
-10.869
 21
-10.774
  0
LINE
  8
0
 10
83.972
 11
84.082
 20
-10.774
 21
-10.689
  0
LINE
  8
0
 10
84.082
 11
84.2
 20
-10.689
 21
-10.614
  0
LINE
  8
0
 10
84.2
 11
84.324
 20
-10.614
 21
-10.55
  0
LINE
  8
0
 10
84.324
 11
84.453
 20
-10.55
 21
-10.497
  0
LINE
  8
0
 10
84.453
 11
84.586
 20
-10.497
 21
-10.455
  0
LINE
  8
0
 10
84.586
 11
84.722
 20
-10.455
 21
-10.424
  0
LINE
  8
0
 10
84.722
 11
84.861
 20
-10.424
 21
-10.406
  0
LINE
  8
0
 10
84.861
 11
85
 20
-10.406
 21
-10.4
  0
LINE
  8
0
 10
85
 11
85.139
 20
-10.4
 21
-10.406
  0
LINE
  8
0
 10
85.139
 11
85.278
 20
-10.406
 21
-10.424
  0
LINE
  8
0
 10
85.278
 11
85.414
 20
-10.424
 21
-10.455
  0
LINE
  8
0
 10
85.414
 11
85.547
 20
-10.455
 21
-10.497
  0
LINE
  8
0
 10
85.547
 11
85.676
 20
-10.497
 21
-10.55
  0
LINE
  8
0
 10
85.676
 11
85.8
 20
-10.55
 21
-10.614
  0
LINE
  8
0
 10
85.8
 11
85.918
 20
-10.614
 21
-10.689
  0
LINE
  8
0
 10
85.918
 11
86.028
 20
-10.689
 21
-10.774
  0
LINE
  8
0
 10
86.028
 11
86.131
 20
-10.774
 21
-10.869
  0
LINE
  8
0
 10
86.131
 11
86.226
 20
-10.869
 21
-10.972
  0
LINE
  8
0
 10
86.226
 11
86.311
 20
-10.972
 21
-11.082
  0
LINE
  8
0
 10
86.311
 11
86.386
 20
-11.082
 21
-11.2
  0
LINE
  8
0
 10
86.386
 11
86.45
 20
-11.2
 21
-11.324
  0
LINE
  8
0
 10
86.45
 11
86.504
 20
-11.324
 21
-11.453
  0
LINE
  8
0
 10
86.504
 11
86.545
 20
-11.453
 21
-11.586
  0
LINE
  8
0
 10
86.545
 11
86.576
 20
-11.586
 21
-11.722
  0
LINE
  8
0
 10
86.576
 11
86.594
 20
-11.722
 21
-11.861
  0
LINE
  8
0
 10
86.594
 11
86.6
 20
-11.861
 21
-12
  0
LINE
  8
0
 10
86.6
 11
86.594
 20
-12
 21
-12.14
  0
LINE
  8
0
 10
86.594
 11
86.576
 20
-12.14
 21
-12.278
  0
LINE
  8
0
 10
86.576
 11
86.545
 20
-12.278
 21
-12.414
  0
LINE
  8
0
 10
86.545
 11
86.504
 20
-12.414
 21
-12.547
  0
LINE
  8
0
 10
86.504
 11
86.45
 20
-12.547
 21
-12.676
  0
LINE
  8
0
 10
86.45
 11
86.386
 20
-12.676
 21
-12.8
  0
LINE
  8
0
 10
86.386
 11
86.311
 20
-12.8
 21
-12.918
  0
LINE
  8
0
 10
86.311
 11
86.226
 20
-12.918
 21
-13.029
  0
LINE
  8
0
 10
86.226
 11
86.131
 20
-13.029
 21
-13.131
  0
LINE
  8
0
 10
86.131
 11
86.028
 20
-13.131
 21
-13.226
  0
LINE
  8
0
 10
86.028
 11
85.918
 20
-13.226
 21
-13.311
  0
LINE
  8
0
 10
85.918
 11
85.8
 20
-13.311
 21
-13.386
  0
LINE
  8
0
 10
85.8
 11
85.676
 20
-13.386
 21
-13.45
  0
LINE
  8
0
 10
85.676
 11
85.547
 20
-13.45
 21
-13.504
  0
LINE
  8
0
 10
85.547
 11
85.414
 20
-13.504
 21
-13.546
  0
LINE
  8
0
 10
85.414
 11
85.278
 20
-13.546
 21
-13.576
  0
LINE
  8
0
 10
85.278
 11
85.139
 20
-13.576
 21
-13.594
  0
LINE
  8
0
 10
85.139
 11
85
 20
-13.594
 21
-13.6
  0
LINE
  8
0
 10
85
 11
84.861
 20
-13.6
 21
-13.594
  0
LINE
  8
0
 10
84.861
 11
84.722
 20
-13.594
 21
-13.576
  0
LINE
  8
0
 10
84.722
 11
84.586
 20
-13.576
 21
-13.546
  0
LINE
  8
0
 10
84.586
 11
84.453
 20
-13.546
 21
-13.504
  0
LINE
  8
0
 10
84.453
 11
84.324
 20
-13.504
 21
-13.45
  0
LINE
  8
0
 10
84.324
 11
84.2
 20
-13.45
 21
-13.386
  0
LINE
  8
0
 10
84.2
 11
84.082
 20
-13.386
 21
-13.311
  0
LINE
  8
0
 10
84.082
 11
83.972
 20
-13.311
 21
-13.226
  0
LINE
  8
0
 10
83.972
 11
83.869
 20
-13.226
 21
-13.131
  0
LINE
  8
0
 10
83.869
 11
83.774
 20
-13.131
 21
-13.029
  0
LINE
  8
0
 10
83.774
 11
83.689
 20
-13.029
 21
-12.918
  0
LINE
  8
0
 10
83.689
 11
83.614
 20
-12.918
 21
-12.8
  0
LINE
  8
0
 10
83.614
 11
83.55
 20
-12.8
 21
-12.676
  0
LINE
  8
0
 10
83.55
 11
83.496
 20
-12.676
 21
-12.547
  0
LINE
  8
0
 10
83.496
 11
83.455
 20
-12.547
 21
-12.414
  0
LINE
  8
0
 10
83.455
 11
83.424
 20
-12.414
 21
-12.278
  0
LINE
  8
0
 10
83.424
 11
83.406
 20
-12.278
 21
-12.14
  0
LINE
  8
0
 10
83.406
 11
83.4
 20
-12.14
 21
-12
  0
LINE
  8
0
 10
83.4
 11
83.406
 20
16
 21
16.139
  0
LINE
  8
0
 10
83.406
 11
83.424
 20
16.139
 21
16.278
  0
LINE
  8
0
 10
83.424
 11
83.455
 20
16.278
 21
16.414
  0
LINE
  8
0
 10
83.455
 11
83.496
 20
16.414
 21
16.547
  0
LINE
  8
0
 10
83.496
 11
83.55
 20
16.547
 21
16.676
  0
LINE
  8
0
 10
83.55
 11
83.614
 20
16.676
 21
16.8
  0
LINE
  8
0
 10
83.614
 11
83.689
 20
16.8
 21
16.918
  0
LINE
  8
0
 10
83.689
 11
83.774
 20
16.918
 21
17.028
  0
LINE
  8
0
 10
83.774
 11
83.869
 20
17.028
 21
17.131
  0
LINE
  8
0
 10
83.869
 11
83.972
 20
17.131
 21
17.226
  0
LINE
  8
0
 10
83.972
 11
84.082
 20
17.226
 21
17.311
  0
LINE
  8
0
 10
84.082
 11
84.2
 20
17.311
 21
17.386
  0
LINE
  8
0
 10
84.2
 11
84.324
 20
17.386
 21
17.45
  0
LINE
  8
0
 10
84.324
 11
84.453
 20
17.45
 21
17.503
  0
LINE
  8
0
 10
84.453
 11
84.586
 20
17.503
 21
17.545
  0
LINE
  8
0
 10
84.586
 11
84.722
 20
17.545
 21
17.576
  0
LINE
  8
0
 10
84.722
 11
84.861
 20
17.576
 21
17.594
  0
LINE
  8
0
 10
84.861
 11
85
 20
17.594
 21
17.6
  0
LINE
  8
0
 10
85
 11
85.139
 20
17.6
 21
17.594
  0
LINE
  8
0
 10
85.139
 11
85.278
 20
17.594
 21
17.576
  0
LINE
  8
0
 10
85.278
 11
85.414
 20
17.576
 21
17.545
  0
LINE
  8
0
 10
85.414
 11
85.547
 20
17.545
 21
17.503
  0
LINE
  8
0
 10
85.547
 11
85.676
 20
17.503
 21
17.45
  0
LINE
  8
0
 10
85.676
 11
85.8
 20
17.45
 21
17.386
  0
LINE
  8
0
 10
85.8
 11
85.918
 20
17.386
 21
17.311
  0
LINE
  8
0
 10
85.918
 11
86.028
 20
17.311
 21
17.226
  0
LINE
  8
0
 10
86.028
 11
86.131
 20
17.226
 21
17.131
  0
LINE
  8
0
 10
86.131
 11
86.226
 20
17.131
 21
17.028
  0
LINE
  8
0
 10
86.226
 11
86.311
 20
17.028
 21
16.918
  0
LINE
  8
0
 10
86.311
 11
86.386
 20
16.918
 21
16.8
  0
LINE
  8
0
 10
86.386
 11
86.45
 20
16.8
 21
16.676
  0
LINE
  8
0
 10
86.45
 11
86.504
 20
16.676
 21
16.547
  0
LINE
  8
0
 10
86.504
 11
86.545
 20
16.547
 21
16.414
  0
LINE
  8
0
 10
86.545
 11
86.576
 20
16.414
 21
16.278
  0
LINE
  8
0
 10
86.576
 11
86.594
 20
16.278
 21
16.139
  0
LINE
  8
0
 10
86.594
 11
86.6
 20
16.139
 21
16
  0
LINE
  8
0
 10
86.6
 11
86.594
 20
16
 21
15.861
  0
LINE
  8
0
 10
86.594
 11
86.576
 20
15.861
 21
15.722
  0
LINE
  8
0
 10
86.576
 11
86.545
 20
15.722
 21
15.586
  0
LINE
  8
0
 10
86.545
 11
86.504
 20
15.586
 21
15.453
  0
LINE
  8
0
 10
86.504
 11
86.45
 20
15.453
 21
15.324
  0
LINE
  8
0
 10
86.45
 11
86.386
 20
15.324
 21
15.2
  0
LINE
  8
0
 10
86.386
 11
86.311
 20
15.2
 21
15.082
  0
LINE
  8
0
 10
86.311
 11
86.226
 20
15.082
 21
14.971
  0
LINE
  8
0
 10
86.226
 11
86.131
 20
14.971
 21
14.869
  0
LINE
  8
0
 10
86.131
 11
86.028
 20
14.869
 21
14.774
  0
LINE
  8
0
 10
86.028
 11
85.918
 20
14.774
 21
14.689
  0
LINE
  8
0
 10
85.918
 11
85.8
 20
14.689
 21
14.614
  0
LINE
  8
0
 10
85.8
 11
85.676
 20
14.614
 21
14.55
  0
LINE
  8
0
 10
85.676
 11
85.547
 20
14.55
 21
14.496
  0
LINE
  8
0
 10
85.547
 11
85.414
 20
14.496
 21
14.454
  0
LINE
  8
0
 10
85.414
 11
85.278
 20
14.454
 21
14.424
  0
LINE
  8
0
 10
85.278
 11
85.139
 20
14.424
 21
14.406
  0
LINE
  8
0
 10
85.139
 11
85
 20
14.406
 21
14.4
  0
LINE
  8
0
 10
85
 11
84.861
 20
14.4
 21
14.406
  0
LINE
  8
0
 10
84.861
 11
84.722
 20
14.406
 21
14.424
  0
LINE
  8
0
 10
84.722
 11
84.586
 20
14.424
 21
14.454
  0
LINE
  8
0
 10
84.586
 11
84.453
 20
14.454
 21
14.496
  0
LINE
  8
0
 10
84.453
 11
84.324
 20
14.496
 21
14.55
  0
LINE
  8
0
 10
84.324
 11
84.2
 20
14.55
 21
14.614
  0
LINE
  8
0
 10
84.2
 11
84.082
 20
14.614
 21
14.689
  0
LINE
  8
0
 10
84.082
 11
83.972
 20
14.689
 21
14.774
  0
LINE
  8
0
 10
83.972
 11
83.869
 20
14.774
 21
14.869
  0
LINE
  8
0
 10
83.869
 11
83.774
 20
14.869
 21
14.971
  0
LINE
  8
0
 10
83.774
 11
83.689
 20
14.971
 21
15.082
  0
LINE
  8
0
 10
83.689
 11
83.614
 20
15.082
 21
15.2
  0
LINE
  8
0
 10
83.614
 11
83.55
 20
15.2
 21
15.324
  0
LINE
  8
0
 10
83.55
 11
83.496
 20
15.324
 21
15.453
  0
LINE
  8
0
 10
83.496
 11
83.455
 20
15.453
 21
15.586
  0
LINE
  8
0
 10
83.455
 11
83.424
 20
15.586
 21
15.722
  0
LINE
  8
0
 10
83.424
 11
83.406
 20
15.722
 21
15.861
  0
LINE
  8
0
 10
83.406
 11
83.4
 20
15.861
 21
16
  0
LINE
  8
0
 10
83.4
 11
83.406
 20
44
 21
44.139
  0
LINE
  8
0
 10
83.406
 11
83.424
 20
44.139
 21
44.278
  0
LINE
  8
0
 10
83.424
 11
83.455
 20
44.278
 21
44.414
  0
LINE
  8
0
 10
83.455
 11
83.496
 20
44.414
 21
44.547
  0
LINE
  8
0
 10
83.496
 11
83.55
 20
44.547
 21
44.676
  0
LINE
  8
0
 10
83.55
 11
83.614
 20
44.676
 21
44.8
  0
LINE
  8
0
 10
83.614
 11
83.689
 20
44.8
 21
44.918
  0
LINE
  8
0
 10
83.689
 11
83.774
 20
44.918
 21
45.028
  0
LINE
  8
0
 10
83.774
 11
83.869
 20
45.028
 21
45.131
  0
LINE
  8
0
 10
83.869
 11
83.972
 20
45.131
 21
45.226
  0
LINE
  8
0
 10
83.972
 11
84.082
 20
45.226
 21
45.311
  0
LINE
  8
0
 10
84.082
 11
84.2
 20
45.311
 21
45.386
  0
LINE
  8
0
 10
84.2
 11
84.324
 20
45.386
 21
45.45
  0
LINE
  8
0
 10
84.324
 11
84.453
 20
45.45
 21
45.503
  0
LINE
  8
0
 10
84.453
 11
84.586
 20
45.503
 21
45.545
  0
LINE
  8
0
 10
84.586
 11
84.722
 20
45.545
 21
45.576
  0
LINE
  8
0
 10
84.722
 11
84.861
 20
45.576
 21
45.594
  0
LINE
  8
0
 10
84.861
 11
85
 20
45.594
 21
45.6
  0
LINE
  8
0
 10
85
 11
85.139
 20
45.6
 21
45.594
  0
LINE
  8
0
 10
85.139
 11
85.278
 20
45.594
 21
45.576
  0
LINE
  8
0
 10
85.278
 11
85.414
 20
45.576
 21
45.545
  0
LINE
  8
0
 10
85.414
 11
85.547
 20
45.545
 21
45.503
  0
LINE
  8
0
 10
85.547
 11
85.676
 20
45.503
 21
45.45
  0
LINE
  8
0
 10
85.676
 11
85.8
 20
45.45
 21
45.386
  0
LINE
  8
0
 10
85.8
 11
85.918
 20
45.386
 21
45.311
  0
LINE
  8
0
 10
85.918
 11
86.028
 20
45.311
 21
45.226
  0
LINE
  8
0
 10
86.028
 11
86.131
 20
45.226
 21
45.131
  0
LINE
  8
0
 10
86.131
 11
86.226
 20
45.131
 21
45.028
  0
LINE
  8
0
 10
86.226
 11
86.311
 20
45.028
 21
44.918
  0
LINE
  8
0
 10
86.311
 11
86.386
 20
44.918
 21
44.8
  0
LINE
  8
0
 10
86.386
 11
86.45
 20
44.8
 21
44.676
  0
LINE
  8
0
 10
86.45
 11
86.504
 20
44.676
 21
44.547
  0
LINE
  8
0
 10
86.504
 11
86.545
 20
44.547
 21
44.414
  0
LINE
  8
0
 10
86.545
 11
86.576
 20
44.414
 21
44.278
  0
LINE
  8
0
 10
86.576
 11
86.594
 20
44.278
 21
44.139
  0
LINE
  8
0
 10
86.594
 11
86.6
 20
44.139
 21
44
  0
LINE
  8
0
 10
86.6
 11
86.594
 20
44
 21
43.86
  0
LINE
  8
0
 10
86.594
 11
86.576
 20
43.86
 21
43.722
  0
LINE
  8
0
 10
86.576
 11
86.545
 20
43.722
 21
43.586
  0
LINE
  8
0
 10
86.545
 11
86.504
 20
43.586
 21
43.453
  0
LINE
  8
0
 10
86.504
 11
86.45
 20
43.453
 21
43.324
  0
LINE
  8
0
 10
86.45
 11
86.386
 20
43.324
 21
43.2
  0
LINE
  8
0
 10
86.386
 11
86.311
 20
43.2
 21
43.082
  0
LINE
  8
0
 10
86.311
 11
86.226
 20
43.082
 21
42.971
  0
LINE
  8
0
 10
86.226
 11
86.131
 20
42.971
 21
42.869
  0
LINE
  8
0
 10
86.131
 11
86.028
 20
42.869
 21
42.774
  0
LINE
  8
0
 10
86.028
 11
85.918
 20
42.774
 21
42.689
  0
LINE
  8
0
 10
85.918
 11
85.8
 20
42.689
 21
42.614
  0
LINE
  8
0
 10
85.8
 11
85.676
 20
42.614
 21
42.55
  0
LINE
  8
0
 10
85.676
 11
85.547
 20
42.55
 21
42.496
  0
LINE
  8
0
 10
85.547
 11
85.414
 20
42.496
 21
42.454
  0
LINE
  8
0
 10
85.414
 11
85.278
 20
42.454
 21
42.424
  0
LINE
  8
0
 10
85.278
 11
85.139
 20
42.424
 21
42.406
  0
LINE
  8
0
 10
85.139
 11
85
 20
42.406
 21
42.4
  0
LINE
  8
0
 10
85
 11
84.861
 20
42.4
 21
42.406
  0
LINE
  8
0
 10
84.861
 11
84.722
 20
42.406
 21
42.424
  0
LINE
  8
0
 10
84.722
 11
84.586
 20
42.424
 21
42.454
  0
LINE
  8
0
 10
84.586
 11
84.453
 20
42.454
 21
42.496
  0
LINE
  8
0
 10
84.453
 11
84.324
 20
42.496
 21
42.55
  0
LINE
  8
0
 10
84.324
 11
84.2
 20
42.55
 21
42.614
  0
LINE
  8
0
 10
84.2
 11
84.082
 20
42.614
 21
42.689
  0
LINE
  8
0
 10
84.082
 11
83.972
 20
42.689
 21
42.774
  0
LINE
  8
0
 10
83.972
 11
83.869
 20
42.774
 21
42.869
  0
LINE
  8
0
 10
83.869
 11
83.774
 20
42.869
 21
42.971
  0
LINE
  8
0
 10
83.774
 11
83.689
 20
42.971
 21
43.082
  0
LINE
  8
0
 10
83.689
 11
83.614
 20
43.082
 21
43.2
  0
LINE
  8
0
 10
83.614
 11
83.55
 20
43.2
 21
43.324
  0
LINE
  8
0
 10
83.55
 11
83.496
 20
43.324
 21
43.453
  0
LINE
  8
0
 10
83.496
 11
83.455
 20
43.453
 21
43.586
  0
LINE
  8
0
 10
83.455
 11
83.424
 20
43.586
 21
43.722
  0
LINE
  8
0
 10
83.424
 11
83.406
 20
43.722
 21
43.86
  0
LINE
  8
0
 10
83.406
 11
83.4
 20
43.86
 21
44
  0
LINE
  8
0
 10
93.5
 11
93.5
 20
-12
 21
48
  0
LINE
  8
0
 10
93.5
 11
93.521
 20
48
 21
48.479
  0
LINE
  8
0
 10
93.521
 11
93.584
 20
48.479
 21
48.955
  0
LINE
  8
0
 10
93.584
 11
93.59
 20
48.955
 21
48.983
  0
LINE
  8
0
 10
93.59
 11
93.629
 20
48.983
 21
49.159
  0
LINE
  8
0
 10
93.629
 11
93.687
 20
49.159
 21
49.423
  0
LINE
  8
0
 10
93.687
 11
93.832
 20
49.423
 21
49.881
  0
LINE
  8
0
 10
93.832
 11
94.015
 20
49.881
 21
50.324
  0
LINE
  8
0
 10
94.015
 11
94.237
 20
50.324
 21
50.75
  0
LINE
  8
0
 10
94.237
 11
94.495
 20
50.75
 21
51.155
  0
LINE
  8
0
 10
94.495
 11
94.787
 20
51.155
 21
51.535
  0
LINE
  8
0
 10
94.787
 11
95.111
 20
51.535
 21
51.889
  0
LINE
  8
0
 10
95.111
 11
95.465
 20
51.889
 21
52.213
  0
LINE
  8
0
 10
95.465
 11
95.845
 20
52.213
 21
52.505
  0
LINE
  8
0
 10
95.845
 11
96.25
 20
52.505
 21
52.763
  0
LINE
  8
0
 10
96.25
 11
96.676
 20
52.763
 21
52.985
  0
LINE
  8
0
 10
96.676
 11
97.119
 20
52.985
 21
53.168
  0
LINE
  8
0
 10
97.119
 11
97.576
 20
53.168
 21
53.313
  0
LINE
  8
0
 10
97.576
 11
98.045
 20
53.313
 21
53.416
  0
LINE
  8
0
 10
98.045
 11
98.521
 20
53.416
 21
53.479
  0
LINE
  8
0
 10
98.521
 11
99
 20
53.479
 21
53.5
  0
LINE
  8
0
 10
99
 11
99.479
 20
53.5
 21
53.479
  0
LINE
  8
0
 10
99.479
 11
99.955
 20
53.479
 21
53.416
  0
LINE
  8
0
 10
99.955
 11
100.424
 20
53.416
 21
53.313
  0
LINE
  8
0
 10
100.424
 11
100.881
 20
53.313
 21
53.168
  0
LINE
  8
0
 10
100.881
 11
101.324
 20
53.168
 21
52.985
  0
LINE
  8
0
 10
101.324
 11
101.75
 20
52.985
 21
52.763
  0
LINE
  8
0
 10
101.75
 11
102.155
 20
52.763
 21
52.505
  0
LINE
  8
0
 10
102.155
 11
102.535
 20
52.505
 21
52.213
  0
LINE
  8
0
 10
102.535
 11
102.889
 20
52.213
 21
51.889
  0
LINE
  8
0
 10
102.889
 11
103.213
 20
51.889
 21
51.535
  0
LINE
  8
0
 10
103.213
 11
103.505
 20
51.535
 21
51.155
  0
LINE
  8
0
 10
103.505
 11
103.763
 20
51.155
 21
50.75
  0
LINE
  8
0
 10
103.763
 11
103.985
 20
50.75
 21
50.324
  0
LINE
  8
0
 10
103.985
 11
104.168
 20
50.324
 21
49.881
  0
LINE
  8
0
 10
104.168
 11
104.313
 20
49.881
 21
49.423
  0
LINE
  8
0
 10
104.313
 11
104.371
 20
49.423
 21
49.159
  0
LINE
  8
0
 10
104.371
 11
104.41
 20
49.159
 21
48.983
  0
LINE
  8
0
 10
104.41
 11
104.416
 20
48.983
 21
48.955
  0
LINE
  8
0
 10
104.416
 11
104.479
 20
48.955
 21
48.479
  0
LINE
  8
0
 10
104.479
 11
104.5
 20
48.479
 21
48
  0
LINE
  8
0
 10
104.5
 11
104.5
 20
48
 21
-12
  0
LINE
  8
0
 10
104.5
 11
104.479
 20
-12
 21
-12.479
  0
LINE
  8
0
 10
104.479
 11
104.416
 20
-12.479
 21
-12.955
  0
LINE
  8
0
 10
104.416
 11
104.313
 20
-12.955
 21
-13.424
  0
LINE
  8
0
 10
104.313
 11
104.168
 20
-13.424
 21
-13.881
  0
LINE
  8
0
 10
104.168
 11
103.985
 20
-13.881
 21
-14.324
  0
LINE
  8
0
 10
103.985
 11
103.763
 20
-14.324
 21
-14.75
  0
LINE
  8
0
 10
103.763
 11
94.237
 20
-14.75
 21
-14.75
  0
LINE
  8
0
 10
94.237
 11
94.015
 20
-14.75
 21
-14.324
  0
LINE
  8
0
 10
94.015
 11
93.832
 20
-14.324
 21
-13.881
  0
LINE
  8
0
 10
93.832
 11
93.687
 20
-13.881
 21
-13.424
  0
LINE
  8
0
 10
93.687
 11
93.584
 20
-13.424
 21
-12.955
  0
LINE
  8
0
 10
93.584
 11
93.521
 20
-12.955
 21
-12.479
  0
LINE
  8
0
 10
93.521
 11
93.5
 20
-12.479
 21
-12
  0
LINE
  8
0
 10
94.568
 11
103.432
 20
-15.25
 21
-15.25
  0
LINE
  8
0
 10
103.432
 11
103.213
 20
-15.25
 21
-15.535
  0
LINE
  8
0
 10
103.213
 11
102.889
 20
-15.535
 21
-15.889
  0
LINE
  8
0
 10
102.889
 11
102.535
 20
-15.889
 21
-16.213
  0
LINE
  8
0
 10
102.535
 11
102.155
 20
-16.213
 21
-16.505
  0
LINE
  8
0
 10
102.155
 11
101.75
 20
-16.505
 21
-16.763
  0
LINE
  8
0
 10
101.75
 11
101.324
 20
-16.763
 21
-16.985
  0
LINE
  8
0
 10
101.324
 11
100.881
 20
-16.985
 21
-17.168
  0
LINE
  8
0
 10
100.881
 11
100.424
 20
-17.168
 21
-17.313
  0
LINE
  8
0
 10
100.424
 11
99.955
 20
-17.313
 21
-17.416
  0
LINE
  8
0
 10
99.955
 11
99.479
 20
-17.416
 21
-17.479
  0
LINE
  8
0
 10
99.479
 11
99
 20
-17.479
 21
-17.5
  0
LINE
  8
0
 10
99
 11
98.521
 20
-17.5
 21
-17.479
  0
LINE
  8
0
 10
98.521
 11
98.045
 20
-17.479
 21
-17.416
  0
LINE
  8
0
 10
98.045
 11
97.576
 20
-17.416
 21
-17.313
  0
LINE
  8
0
 10
97.576
 11
97.119
 20
-17.313
 21
-17.168
  0
LINE
  8
0
 10
97.119
 11
96.676
 20
-17.168
 21
-16.985
  0
LINE
  8
0
 10
96.676
 11
96.25
 20
-16.985
 21
-16.763
  0
LINE
  8
0
 10
96.25
 11
95.845
 20
-16.763
 21
-16.505
  0
LINE
  8
0
 10
95.845
 11
95.465
 20
-16.505
 21
-16.213
  0
LINE
  8
0
 10
95.465
 11
95.111
 20
-16.213
 21
-15.889
  0
LINE
  8
0
 10
95.111
 11
94.787
 20
-15.889
 21
-15.535
  0
LINE
  8
0
 10
94.787
 11
94.568
 20
-15.535
 21
-15.25
  0
ENDSEC
  0
SECTION
  2
OBJECTS
  0
DICTIONARY
  0
ENDSEC
  0
EOF
