999
DXF created by Inkscape
  0
SECTION
  2
HEADER
  9
$ACADVER
  1
AC1014
  9
$HANDSEED
  5
FFFF
  9
$MEASUREMENT
 70
     1
  0
ENDSEC
  0
SECTION
  2
TABLES
  0
TABLE
  2
VPORT
  5
8
330
0
100
AcDbSymbolTable
 70
     4
  0
VPORT
  5
2E
330
8
100
AcDbSymbolTableRecord
100
AcDbViewportTableRecord
  2
*ACTIVE
 70
     0
 10
0.0
 20
0.0
 11
1.0
 21
1.0
 12
210.0
 22
148.5
 13
0.0
 23
0.0
 14
10.0
 24
10.0
 15
10.0
 25
10.0
 16
0.0
 26
0.0
 36
1.0
 17
0.0
 27
0.0
 37
0.0
 40
341.0
 41
1.24
 42
50.0
 43
0.0
 44
0.0
 50
0.0
 51
0.0
 71
     0
 72
   100
 73
     1
 74
     3
 75
     0
 76
     0
 77
     0
 78
     0
  0
ENDTAB
  0
TABLE
  2
LTYPE
  5
5
330
0
100
AcDbSymbolTable
 70
     1
  0
LTYPE
  5
14
330
5
100
AcDbSymbolTableRecord
100
AcDbLinetypeTableRecord
  2
BYBLOCK
 70
     0
  3

 72
    65
 73
     0
 40
0.0
  0
LTYPE
  5
15
330
5
100
AcDbSymbolTableRecord
100
AcDbLinetypeTableRecord
  2
BYLAYER
 70
     0
  3

 72
    65
 73
     0
 40
0.0
  0
LTYPE
  5
16
330
5
100
AcDbSymbolTableRecord
100
AcDbLinetypeTableRecord
  2
CONTINUOUS
 70
     0
  3
Solid line
 72
    65
 73
     0
 40
0.0
  0
ENDTAB
  0
TABLE
  2
LAYER
  5
2
330
0
100
AcDbSymbolTable
 70
1
  0
LAYER
  5
10
330
2
100
AcDbSymbolTableRecord
100
AcDbLayerTableRecord
  2
0
 70
     0
 62
     7
  6
CONTINUOUS
  0
ENDTAB
  0
TABLE
  2
STYLE
  5
3
330
0
100
AcDbSymbolTable
 70
     1
  0
STYLE
  5
11
330
3
100
AcDbSymbolTableRecord
100
AcDbTextStyleTableRecord
  2
STANDARD
 70
     0
 40
0.0
 41
1.0
 50
0.0
 71
     0
 42
2.5
  3
txt
  4

  0
ENDTAB
  0
TABLE
  2
VIEW
  5
6
330
0
100
AcDbSymbolTable
 70
     0
  0
ENDTAB
  0
TABLE
  2
UCS
  5
7
330
0
100
AcDbSymbolTable
 70
     0
  0
ENDTAB
  0
TABLE
  2
APPID
  5
9
330
0
100
AcDbSymbolTable
 70
     2
  0
APPID
  5
12
330
9
100
AcDbSymbolTableRecord
100
AcDbRegAppTableRecord
  2
ACAD
 70
     0
  0
ENDTAB
  0
TABLE
  2
DIMSTYLE
  5
A
330
0
100
AcDbSymbolTable
 70
     1
  0
DIMSTYLE
105
27
330
A
100
AcDbSymbolTableRecord
100
AcDbDimStyleTableRecord
  2
ISO-25
 70
     0
  3

  4

  5

  6

  7

 40
1.0
 41
2.5
 42
0.625
 43
3.75
 44
1.25
 45
0.0
 46
0.0
 47
0.0
 48
0.0
140
2.5
141
2.5
142
0.0
143
0.03937007874016
144
1.0
145
0.0
146
1.0
147
0.625
 71
     0
 72
     0
 73
     0
 74
     0
 75
     0
 76
     0
 77
     1
 78
     8
170
     0
171
     3
172
     1
173
     0
174
     0
175
     0
176
     0
177
     0
178
     0
270
     2
271
     2
272
     2
273
     2
274
     3
340
11
275
     0
280
     0
281
     0
282
     0
283
     0
284
     8
285
     0
286
     0
287
     3
288
     0
  0
ENDTAB
  0
TABLE
  2
BLOCK_RECORD
  5
1
330
0
100
AcDbSymbolTable
 70
     1
  0
BLOCK_RECORD
  5
1F
330
1
100
AcDbSymbolTableRecord
100
AcDbBlockTableRecord
  2
*MODEL_SPACE
  0
BLOCK_RECORD
  5
1B
330
1
100
AcDbSymbolTableRecord
100
AcDbBlockTableRecord
  2
*PAPER_SPACE
  0
ENDTAB
  0
ENDSEC
  0
SECTION
  2
BLOCKS
  0
BLOCK
  5
20
330
1F
100
AcDbEntity
  8
0
100
AcDbBlockBegin
  2
*MODEL_SPACE
 70
     0
 10
0.0
 20
0.0
 30
0.0
  3
*MODEL_SPACE
  1

  0
ENDBLK
  5
21
330
1F
100
AcDbEntity
  8
0
100
AcDbBlockEnd
  0
BLOCK
  5
1C
330
1B
100
AcDbEntity
 67
     1
  8
0
100
AcDbBlockBegin
  2
*PAPER_SPACE
  1

  0
ENDBLK
  5
1D
330
1B
100
AcDbEntity
 67
     1
  8
0
100
AcDbBlockEnd
  0
ENDSEC
  0
SECTION
  2
ENTITIES
  0
LWPOLYLINE
  5
100
100
AcDbEntity
  8
0
 62
7
100
AcDbPolyline
 90
2
 70
0
 10
0.846667
 20
29.068889
 30
0.0
 10
-0.846667
 20
27.375556
 30
0.0
  0
LWPOLYLINE
  5
101
100
AcDbEntity
  8
0
 62
7
100
AcDbPolyline
 90
2
 70
0
 10
0.000000
 20
29.633333
 30
0.0
 10
0.000000
 20
26.811111
 30
0.0
  0
LWPOLYLINE
  5
102
100
AcDbEntity
  8
0
 62
7
100
AcDbPolyline
 90
7
 70
0
 10
-4.500001
 20
-242.277765
 30
0.0
 10
-4.500001
 20
-213.277766
 30
0.0
 10
3.499999
 20
-213.277766
 30
0.0
 10
3.499999
 20
-227.277766
 30
0.0
 10
25.499999
 20
-227.277766
 30
0.0
 10
25.499999
 20
-242.277765
 30
0.0
 10
-4.500001
 20
-242.277765
 30
0.0
  0
LWPOLYLINE
  5
103
100
AcDbEntity
  8
0
 62
7
100
AcDbPolyline
 90
7
 70
0
 10
-4.500001
 20
-27.277771
 30
0.0
 10
-4.500001
 20
1.722228
 30
0.0
 10
25.499999
 20
1.722228
 30
0.0
 10
25.499999
 20
-13.277771
 30
0.0
 10
3.499999
 20
-13.277771
 30
0.0
 10
3.499999
 20
-27.277771
 30
0.0
 10
-4.500001
 20
-27.277771
 30
0.0
  0
LWPOLYLINE
  5
104
100
AcDbEntity
  8
0
 62
7
100
AcDbPolyline
 90
41
 70
0
 10
6.999999
 20
-142.877771
 30
0.0
 10
6.999999
 20
-117.777771
 30
0.0
 10
26.999999
 20
-117.777771
 30
0.0
 10
26.999999
 20
-62.877771
 30
0.0
 10
6.999999
 20
-62.877771
 30
0.0
 10
6.999999
 20
-42.877771
 30
0.0
 10
31.999998
 20
-42.877771
 30
0.0
 10
31.999998
 20
-142.777772
 30
0.0
 10
32.249999
 20
-142.777772
 30
0.0
 10
32.249999
 20
-145.027771
 30
0.0
 10
99.250000
 20
-145.027771
 30
0.0
 10
99.250000
 20
-15.527771
 30
0.0
 10
97.000001
 20
-15.527771
 30
0.0
 10
97.000001
 20
-15.027772
 30
0.0
 10
101.999999
 20
-15.027772
 30
0.0
 10
101.999999
 20
-15.527771
 30
0.0
 10
99.749999
 20
-15.527771
 30
0.0
 10
99.749999
 20
-145.027771
 30
0.0
 10
176.750001
 20
-145.027771
 30
0.0
 10
176.750001
 20
-142.777772
 30
0.0
 10
176.999999
 20
-142.777772
 30
0.0
 10
176.999999
 20
-97.677772
 30
0.0
 10
202.000000
 20
-97.677772
 30
0.0
 10
202.000000
 20
-142.877771
 30
0.0
 10
177.250000
 20
-142.877771
 30
0.0
 10
177.250000
 20
-147.777773
 30
0.0
 10
176.750001
 20
-147.777773
 30
0.0
 10
176.750001
 20
-145.527770
 30
0.0
 10
99.749999
 20
-145.527770
 30
0.0
 10
99.749999
 20
-225.027778
 30
0.0
 10
101.999999
 20
-225.027778
 30
0.0
 10
101.999999
 20
-225.527763
 30
0.0
 10
97.000001
 20
-225.527763
 30
0.0
 10
97.000001
 20
-225.027778
 30
0.0
 10
99.250000
 20
-225.027778
 30
0.0
 10
99.250000
 20
-145.527770
 30
0.0
 10
32.249999
 20
-145.527770
 30
0.0
 10
32.249999
 20
-147.777773
 30
0.0
 10
31.750000
 20
-147.777773
 30
0.0
 10
31.750000
 20
-142.877771
 30
0.0
 10
6.999999
 20
-142.877771
 30
0.0
  0
LWPOLYLINE
  5
105
100
AcDbEntity
  8
0
 62
7
100
AcDbPolyline
 90
7
 70
0
 10
7.999999
 20
-231.877763
 30
0.0
 10
9.249999
 20
-229.712780
 30
0.0
 10
11.749999
 20
-229.712780
 30
0.0
 10
12.999999
 20
-231.877763
 30
0.0
 10
11.749999
 20
-234.042774
 30
0.0
 10
9.249999
 20
-234.042774
 30
0.0
 10
7.999999
 20
-231.877763
 30
0.0
  0
LWPOLYLINE
  5
106
100
AcDbEntity
  8
0
 62
7
100
AcDbPolyline
 90
7
 70
0
 10
7.999999
 20
-8.677772
 30
0.0
 10
9.249999
 20
-6.512772
 30
0.0
 10
11.749999
 20
-6.512772
 30
0.0
 10
12.999999
 20
-8.677772
 30
0.0
 10
11.749999
 20
-10.842772
 30
0.0
 10
9.249999
 20
-10.842772
 30
0.0
 10
7.999999
 20
-8.677772
 30
0.0
  0
LWPOLYLINE
  5
107
100
AcDbEntity
  8
0
 62
7
100
AcDbPolyline
 90
8
 70
0
 10
9.747999
 20
-131.362772
 30
0.0
 10
9.747999
 20
-129.192771
 30
0.0
 10
11.443999
 20
-127.840771
 30
0.0
 10
13.558999
 20
-128.322773
 30
0.0
 10
14.499999
 20
-130.277771
 30
0.0
 10
13.558999
 20
-132.232773
 30
0.0
 10
11.443999
 20
-132.714771
 30
0.0
 10
9.747999
 20
-131.362772
 30
0.0
  0
LWPOLYLINE
  5
108
100
AcDbEntity
  8
0
 62
7
100
AcDbPolyline
 90
8
 70
0
 10
9.747999
 20
-51.462771
 30
0.0
 10
9.747999
 20
-49.292772
 30
0.0
 10
11.443999
 20
-47.940773
 30
0.0
 10
13.558999
 20
-48.422772
 30
0.0
 10
14.499999
 20
-50.377770
 30
0.0
 10
13.558999
 20
-52.332771
 30
0.0
 10
11.443999
 20
-52.814770
 30
0.0
 10
9.747999
 20
-51.462771
 30
0.0
  0
LWPOLYLINE
  5
109
100
AcDbEntity
  8
0
 62
7
100
AcDbPolyline
 90
7
 70
0
 10
17.999999
 20
-231.877763
 30
0.0
 10
19.249999
 20
-229.712780
 30
0.0
 10
21.749999
 20
-229.712780
 30
0.0
 10
22.999999
 20
-231.877763
 30
0.0
 10
21.749999
 20
-234.042774
 30
0.0
 10
19.249999
 20
-234.042774
 30
0.0
 10
17.999999
 20
-231.877763
 30
0.0
  0
LWPOLYLINE
  5
10a
100
AcDbEntity
  8
0
 62
7
100
AcDbPolyline
 90
7
 70
0
 10
17.999999
 20
-8.677772
 30
0.0
 10
19.249999
 20
-6.512772
 30
0.0
 10
21.749999
 20
-6.512772
 30
0.0
 10
22.999999
 20
-8.677772
 30
0.0
 10
21.749999
 20
-10.842772
 30
0.0
 10
19.249999
 20
-10.842772
 30
0.0
 10
17.999999
 20
-8.677772
 30
0.0
  0
LWPOLYLINE
  5
10b
100
AcDbEntity
  8
0
 62
7
100
AcDbPolyline
 90
8
 70
0
 10
19.747999
 20
-131.362772
 30
0.0
 10
19.747999
 20
-129.192771
 30
0.0
 10
21.443999
 20
-127.840771
 30
0.0
 10
23.558999
 20
-128.322773
 30
0.0
 10
24.499999
 20
-130.277771
 30
0.0
 10
23.558999
 20
-132.232773
 30
0.0
 10
21.443999
 20
-132.714771
 30
0.0
 10
19.747999
 20
-131.362772
 30
0.0
  0
LWPOLYLINE
  5
10c
100
AcDbEntity
  8
0
 62
7
100
AcDbPolyline
 90
8
 70
0
 10
19.747999
 20
-51.462771
 30
0.0
 10
19.747999
 20
-49.292772
 30
0.0
 10
21.443999
 20
-47.940773
 30
0.0
 10
23.558999
 20
-48.422772
 30
0.0
 10
24.499999
 20
-50.377770
 30
0.0
 10
23.558999
 20
-52.332771
 30
0.0
 10
21.443999
 20
-52.814770
 30
0.0
 10
19.747999
 20
-51.462771
 30
0.0
  0
LWPOLYLINE
  5
10d
100
AcDbEntity
  8
0
 62
7
100
AcDbPolyline
 90
29
 70
0
 10
54.272998
 20
-140.289771
 30
0.0
 10
54.272998
 20
-137.777773
 30
0.0
 10
54.846000
 20
-137.777773
 30
0.0
 10
54.876999
 20
-140.051770
 30
0.0
 10
54.856002
 20
-140.555771
 30
0.0
 10
55.003999
 20
-140.819773
 30
0.0
 10
55.254999
 20
-140.763772
 30
0.0
 10
55.626000
 20
-140.475772
 30
0.0
 10
55.735999
 20
-139.903773
 30
0.0
 10
55.735999
 20
-137.777773
 30
0.0
 10
56.216999
 20
-137.746771
 30
0.0
 10
56.279999
 20
-140.061772
 30
0.0
 10
56.351001
 20
-140.649771
 30
0.0
 10
56.593001
 20
-140.794771
 30
0.0
 10
56.796000
 20
-140.625771
 30
0.0
 10
57.044000
 20
-140.409772
 30
0.0
 10
57.018995
 20
-139.645771
 30
0.0
 10
56.987000
 20
-137.808772
 30
0.0
 10
57.625000
 20
-137.777773
 30
0.0
 10
57.625000
 20
-141.436770
 30
0.0
 10
57.250000
 20
-141.436770
 30
0.0
 10
57.250000
 20
-140.923772
 30
0.0
 10
56.939998
 20
-141.355772
 30
0.0
 10
56.500000
 20
-141.518773
 30
0.0
 10
56.049000
 20
-141.349772
 30
0.0
 10
55.801000
 20
-140.878772
 30
0.0
 10
55.036999
 20
-141.518773
 30
0.0
 10
54.471000
 20
-141.217771
 30
0.0
 10
54.272998
 20
-140.289771
 30
0.0
  0
LWPOLYLINE
  5
10e
100
AcDbEntity
  8
0
 62
7
100
AcDbPolyline
 90
29
 70
0
 10
57.710999
 20
-140.289771
 30
0.0
 10
57.710999
 20
-137.777773
 30
0.0
 10
58.284000
 20
-137.777773
 30
0.0
 10
58.314999
 20
-140.051770
 30
0.0
 10
58.293014
 20
-140.555771
 30
0.0
 10
58.441000
 20
-140.819773
 30
0.0
 10
58.692000
 20
-140.763772
 30
0.0
 10
59.064000
 20
-140.475772
 30
0.0
 10
59.173999
 20
-139.903773
 30
0.0
 10
59.173999
 20
-137.777773
 30
0.0
 10
59.654999
 20
-137.746771
 30
0.0
 10
59.717000
 20
-140.061772
 30
0.0
 10
59.789001
 20
-140.649771
 30
0.0
 10
60.031001
 20
-140.794771
 30
0.0
 10
60.232998
 20
-140.625771
 30
0.0
 10
60.482000
 20
-140.409772
 30
0.0
 10
60.456008
 20
-139.645771
 30
0.0
 10
60.425000
 20
-137.808772
 30
0.0
 10
61.062001
 20
-137.777773
 30
0.0
 10
61.062001
 20
-141.436770
 30
0.0
 10
60.687001
 20
-141.436770
 30
0.0
 10
60.687001
 20
-140.923772
 30
0.0
 10
60.376999
 20
-141.355772
 30
0.0
 10
59.936998
 20
-141.518773
 30
0.0
 10
59.487000
 20
-141.349772
 30
0.0
 10
59.239000
 20
-140.878772
 30
0.0
 10
58.474999
 20
-141.518773
 30
0.0
 10
57.909000
 20
-141.217771
 30
0.0
 10
57.710999
 20
-140.289771
 30
0.0
  0
LWPOLYLINE
  5
10f
100
AcDbEntity
  8
0
 62
7
100
AcDbPolyline
 90
23
 70
0
 10
64.939000
 20
-139.576770
 30
0.0
 10
65.296999
 20
-138.390771
 30
0.0
 10
66.484000
 20
-137.777773
 30
0.0
 10
67.491000
 20
-138.163771
 30
0.0
 10
67.936999
 20
-139.186770
 30
0.0
 10
67.353998
 20
-139.241773
 30
0.0
 10
67.053999
 20
-138.526771
 30
0.0
 10
66.484000
 20
-138.287771
 30
0.0
 10
65.805998
 20
-138.625772
 30
0.0
 10
65.527998
 20
-139.520772
 30
0.0
 10
65.795000
 20
-140.358772
 30
0.0
 10
66.494000
 20
-140.664771
 30
0.0
 10
66.977999
 20
-140.528771
 30
0.0
 10
67.316999
 20
-140.175773
 30
0.0
 10
67.839000
 20
-140.251773
 30
0.0
 10
67.401000
 20
-142.845770
 30
0.0
 10
65.151999
 20
-142.845770
 30
0.0
 10
65.151999
 20
-142.253772
 30
0.0
 10
66.956000
 20
-142.253772
 30
0.0
 10
67.199998
 20
-140.895773
 30
0.0
 10
66.345999
 20
-141.212770
 30
0.0
 10
65.345999
 20
-140.754772
 30
0.0
 10
64.939000
 20
-139.576770
 30
0.0
  0
LWPOLYLINE
  5
110
100
AcDbEntity
  8
0
 62
7
100
AcDbPolyline
 90
12
 70
0
 10
68.375998
 20
-139.555770
 30
0.0
 10
68.375998
 20
-138.986771
 30
0.0
 10
68.961999
 20
-138.986771
 30
0.0
 10
68.961999
 20
-137.777773
 30
0.0
 10
69.493999
 20
-137.777773
 30
0.0
 10
69.493999
 20
-138.986771
 30
0.0
 10
71.374999
 20
-138.986771
 30
0.0
 10
71.374999
 20
-139.555770
 30
0.0
 10
69.396000
 20
-142.828772
 30
0.0
 10
68.961999
 20
-142.828772
 30
0.0
 10
68.961999
 20
-139.555770
 30
0.0
 10
68.375998
 20
-139.555770
 30
0.0
  0
LWPOLYLINE
  5
111
100
AcDbEntity
  8
0
 62
7
100
AcDbPolyline
 90
4
 70
0
 10
69.493999
 20
-141.832773
 30
0.0
 10
69.493999
 20
-139.555770
 30
0.0
 10
70.851000
 20
-139.555770
 30
0.0
 10
69.493999
 20
-141.832773
 30
0.0
  0
LWPOLYLINE
  5
112
100
AcDbEntity
  8
0
 62
7
100
AcDbPolyline
 90
10
 70
0
 10
72.423000
 20
-142.848770
 30
0.0
 10
72.423000
 20
-137.777773
 30
0.0
 10
73.043000
 20
-137.777773
 30
0.0
 10
73.043000
 20
-141.729770
 30
0.0
 10
73.630999
 20
-141.301772
 30
0.0
 10
74.283000
 20
-140.981771
 30
0.0
 10
74.283000
 20
-141.581770
 30
0.0
 10
73.373999
 20
-142.173771
 30
0.0
 10
72.822999
 20
-142.848770
 30
0.0
 10
72.423000
 20
-142.848770
 30
0.0
  0
LWPOLYLINE
  5
113
100
AcDbEntity
  8
0
 62
7
100
AcDbPolyline
 90
13
 70
0
 10
101.842000
 20
-62.215770
 30
0.0
 10
102.005999
 20
-61.566772
 30
0.0
 10
102.477999
 20
-61.105771
 30
0.0
 10
103.229001
 20
-60.820771
 30
0.0
 10
104.422998
 20
-60.716772
 30
0.0
 10
105.857000
 20
-60.882773
 30
0.0
 10
106.701999
 20
-61.379772
 30
0.0
 10
107.000000
 20
-62.215770
 30
0.0
 10
106.475998
 20
-63.260772
 30
0.0
 10
104.422998
 20
-63.714771
 30
0.0
 10
102.980998
 20
-63.546773
 30
0.0
 10
102.138999
 20
-63.048772
 30
0.0
 10
101.842000
 20
-62.215770
 30
0.0
  0
LWPOLYLINE
  5
114
100
AcDbEntity
  8
0
 62
7
100
AcDbPolyline
 90
23
 70
0
 10
101.929001
 20
-69.011772
 30
0.0
 10
102.332000
 20
-67.977772
 30
0.0
 10
103.330999
 20
-67.596772
 30
0.0
 10
103.926998
 20
-67.708772
 30
0.0
 10
104.543998
 20
-68.078771
 30
0.0
 10
105.431999
 20
-68.936771
 30
0.0
 10
106.067998
 20
-69.580771
 30
0.0
 10
106.404001
 20
-69.815772
 30
0.0
 10
106.404001
 20
-67.590772
 30
0.0
 10
107.000000
 20
-67.590772
 30
0.0
 10
107.000000
 20
-70.589772
 30
0.0
 10
106.568999
 20
-70.524771
 30
0.0
 10
105.897999
 20
-70.157772
 30
0.0
 10
105.132999
 20
-69.428772
 30
0.0
 10
104.062998
 20
-68.429773
 30
0.0
 10
103.317000
 20
-68.169770
 30
0.0
 10
102.695000
 20
-68.406772
 30
0.0
 10
102.441999
 20
-69.023772
 30
0.0
 10
102.710999
 20
-69.666773
 30
0.0
 10
103.454999
 20
-69.911773
 30
0.0
 10
103.388998
 20
-70.483772
 30
0.0
 10
102.302999
 20
-70.041773
 30
0.0
 10
101.929001
 20
-69.011772
 30
0.0
  0
LWPOLYLINE
  5
115
100
AcDbEntity
  8
0
 62
7
100
AcDbPolyline
 90
10
 70
0
 10
101.929001
 20
-65.162771
 30
0.0
 10
101.929001
 20
-64.763771
 30
0.0
 10
107.000000
 20
-64.763771
 30
0.0
 10
107.000000
 20
-65.383771
 30
0.0
 10
103.048000
 20
-65.383771
 30
0.0
 10
103.475999
 20
-65.970771
 30
0.0
 10
103.795999
 20
-66.623771
 30
0.0
 10
103.196001
 20
-66.623771
 30
0.0
 10
102.604000
 20
-65.713771
 30
0.0
 10
101.929001
 20
-65.162771
 30
0.0
  0
LWPOLYLINE
  5
116
100
AcDbEntity
  8
0
 62
7
100
AcDbPolyline
 90
9
 70
0
 10
102.356000
 20
-62.221770
 30
0.0
 10
102.765998
 20
-61.561771
 30
0.0
 10
104.422998
 20
-61.296770
 30
0.0
 10
106.075999
 20
-61.561771
 30
0.0
 10
106.490000
 20
-62.215770
 30
0.0
 10
106.078000
 20
-62.869772
 30
0.0
 10
104.422998
 20
-63.134771
 30
0.0
 10
102.716999
 20
-62.843771
 30
0.0
 10
102.356000
 20
-62.221770
 30
0.0
  0
LWPOLYLINE
  5
117
100
AcDbEntity
  8
0
 62
7
100
AcDbPolyline
 90
29
 70
0
 10
103.258998
 20
-55.714770
 30
0.0
 10
103.427998
 20
-55.264772
 30
0.0
 10
103.898999
 20
-55.016773
 30
0.0
 10
103.258998
 20
-54.252772
 30
0.0
 10
103.559999
 20
-53.686772
 30
0.0
 10
104.488000
 20
-53.488771
 30
0.0
 10
107.000000
 20
-53.488771
 30
0.0
 10
107.000000
 20
-54.061772
 30
0.0
 10
104.726001
 20
-54.092771
 30
0.0
 10
104.222000
 20
-54.070786
 30
0.0
 10
103.958001
 20
-54.218772
 30
0.0
 10
104.013999
 20
-54.469772
 30
0.0
 10
104.301998
 20
-54.841772
 30
0.0
 10
104.874001
 20
-54.951771
 30
0.0
 10
107.000000
 20
-54.951771
 30
0.0
 10
107.031000
 20
-55.432771
 30
0.0
 10
104.715999
 20
-55.494772
 30
0.0
 10
104.126998
 20
-55.566773
 30
0.0
 10
103.983000
 20
-55.808773
 30
0.0
 10
104.152000
 20
-56.010770
 30
0.0
 10
104.367999
 20
-56.259772
 30
0.0
 10
105.132999
 20
-56.233780
 30
0.0
 10
106.968998
 20
-56.202772
 30
0.0
 10
107.000000
 20
-56.839773
 30
0.0
 10
103.341001
 20
-56.839773
 30
0.0
 10
103.341001
 20
-56.464773
 30
0.0
 10
103.853999
 20
-56.464773
 30
0.0
 10
103.421998
 20
-56.154772
 30
0.0
 10
103.258998
 20
-55.714770
 30
0.0
  0
LWPOLYLINE
  5
118
100
AcDbEntity
  8
0
 62
7
100
AcDbPolyline
 90
29
 70
0
 10
103.258998
 20
-52.277772
 30
0.0
 10
103.427998
 20
-51.826772
 30
0.0
 10
103.898999
 20
-51.578772
 30
0.0
 10
103.258998
 20
-50.814772
 30
0.0
 10
103.559999
 20
-50.248772
 30
0.0
 10
104.488000
 20
-50.050771
 30
0.0
 10
107.000000
 20
-50.050771
 30
0.0
 10
107.000000
 20
-50.623772
 30
0.0
 10
104.726001
 20
-50.654771
 30
0.0
 10
104.222000
 20
-50.633774
 30
0.0
 10
103.958001
 20
-50.781771
 30
0.0
 10
104.013999
 20
-51.032771
 30
0.0
 10
104.301998
 20
-51.403772
 30
0.0
 10
104.874001
 20
-51.513771
 30
0.0
 10
107.000000
 20
-51.513771
 30
0.0
 10
107.031000
 20
-51.994771
 30
0.0
 10
104.715999
 20
-52.057771
 30
0.0
 10
104.126998
 20
-52.128773
 30
0.0
 10
103.983000
 20
-52.370773
 30
0.0
 10
104.152000
 20
-52.573772
 30
0.0
 10
104.367999
 20
-52.821772
 30
0.0
 10
105.132999
 20
-52.796767
 30
0.0
 10
106.968998
 20
-52.765771
 30
0.0
 10
107.000000
 20
-53.402772
 30
0.0
 10
103.341001
 20
-53.402772
 30
0.0
 10
103.341001
 20
-53.027772
 30
0.0
 10
103.853999
 20
-53.027772
 30
0.0
 10
103.421998
 20
-52.717771
 30
0.0
 10
103.258998
 20
-52.277772
 30
0.0
  0
LWPOLYLINE
  5
119
100
AcDbEntity
  8
0
 62
7
100
AcDbPolyline
 90
9
 70
0
 10
124.499999
 20
-248.277781
 30
0.0
 10
124.499999
 20
-210.277772
 30
0.0
 10
129.500001
 20
-210.277772
 30
0.0
 10
129.500001
 20
-234.277781
 30
0.0
 10
204.500000
 20
-234.277781
 30
0.0
 10
204.500000
 20
-210.277772
 30
0.0
 10
214.500000
 20
-210.277772
 30
0.0
 10
214.500000
 20
-248.277781
 30
0.0
 10
124.499999
 20
-248.277781
 30
0.0
  0
LWPOLYLINE
  5
11a
100
AcDbEntity
  8
0
 62
7
100
AcDbPolyline
 90
9
 70
0
 10
124.499999
 20
-30.277771
 30
0.0
 10
124.499999
 20
7.722230
 30
0.0
 10
214.500000
 20
7.722230
 30
0.0
 10
214.500000
 20
-30.277771
 30
0.0
 10
204.500000
 20
-30.277771
 30
0.0
 10
204.500000
 20
-6.277771
 30
0.0
 10
129.500001
 20
-6.277771
 30
0.0
 10
129.500001
 20
-30.277771
 30
0.0
 10
124.499999
 20
-30.277771
 30
0.0
  0
LWPOLYLINE
  5
11b
100
AcDbEntity
  8
0
 62
7
100
AcDbPolyline
 90
7
 70
0
 10
134.000000
 20
-243.277763
 30
0.0
 10
135.249999
 20
-241.112779
 30
0.0
 10
137.750000
 20
-241.112779
 30
0.0
 10
138.999999
 20
-243.277763
 30
0.0
 10
137.750000
 20
-245.442774
 30
0.0
 10
135.249999
 20
-245.442774
 30
0.0
 10
134.000000
 20
-243.277763
 30
0.0
  0
LWPOLYLINE
  5
11c
100
AcDbEntity
  8
0
 62
7
100
AcDbPolyline
 90
7
 70
0
 10
134.000000
 20
2.722229
 30
0.0
 10
135.249999
 20
4.887229
 30
0.0
 10
137.750000
 20
4.887229
 30
0.0
 10
138.999999
 20
2.722229
 30
0.0
 10
137.750000
 20
0.557229
 30
0.0
 10
135.249999
 20
0.557229
 30
0.0
 10
134.000000
 20
2.722229
 30
0.0
  0
LWPOLYLINE
  5
11d
100
AcDbEntity
  8
0
 62
7
100
AcDbPolyline
 90
7
 70
0
 10
173.600000
 20
-243.277763
 30
0.0
 10
174.849999
 20
-241.112779
 30
0.0
 10
177.349999
 20
-241.112779
 30
0.0
 10
178.599998
 20
-243.277763
 30
0.0
 10
177.349999
 20
-245.442774
 30
0.0
 10
174.849999
 20
-245.442774
 30
0.0
 10
173.600000
 20
-243.277763
 30
0.0
  0
LWPOLYLINE
  5
11e
100
AcDbEntity
  8
0
 62
7
100
AcDbPolyline
 90
7
 70
0
 10
173.600000
 20
2.722229
 30
0.0
 10
174.849999
 20
4.887229
 30
0.0
 10
177.349999
 20
4.887229
 30
0.0
 10
178.599998
 20
2.722229
 30
0.0
 10
177.349999
 20
0.557229
 30
0.0
 10
174.849999
 20
0.557229
 30
0.0
 10
173.600000
 20
2.722229
 30
0.0
  0
LWPOLYLINE
  5
11f
100
AcDbEntity
  8
0
 62
7
100
AcDbPolyline
 90
8
 70
0
 10
184.500001
 20
-130.277771
 30
0.0
 10
185.441000
 20
-128.322773
 30
0.0
 10
187.555999
 20
-127.840771
 30
0.0
 10
189.251999
 20
-129.192771
 30
0.0
 10
189.251999
 20
-131.362772
 30
0.0
 10
187.555999
 20
-132.714771
 30
0.0
 10
185.441000
 20
-132.232773
 30
0.0
 10
184.500001
 20
-130.277771
 30
0.0
  0
LWPOLYLINE
  5
120
100
AcDbEntity
  8
0
 62
7
100
AcDbPolyline
 90
8
 70
0
 10
184.500001
 20
-110.277772
 30
0.0
 10
185.441000
 20
-108.322770
 30
0.0
 10
187.555999
 20
-107.840772
 30
0.0
 10
189.251999
 20
-109.192771
 30
0.0
 10
189.251999
 20
-111.362772
 30
0.0
 10
187.555999
 20
-112.714772
 30
0.0
 10
185.441000
 20
-112.232770
 30
0.0
 10
184.500001
 20
-110.277772
 30
0.0
  0
LWPOLYLINE
  5
121
100
AcDbEntity
  8
0
 62
7
100
AcDbPolyline
 90
7
 70
0
 10
193.400000
 20
-243.277763
 30
0.0
 10
194.649999
 20
-241.112779
 30
0.0
 10
197.149999
 20
-241.112779
 30
0.0
 10
198.399998
 20
-243.277763
 30
0.0
 10
197.149999
 20
-245.442774
 30
0.0
 10
194.649999
 20
-245.442774
 30
0.0
 10
193.400000
 20
-243.277763
 30
0.0
  0
LWPOLYLINE
  5
122
100
AcDbEntity
  8
0
 62
7
100
AcDbPolyline
 90
7
 70
0
 10
193.400000
 20
2.722229
 30
0.0
 10
194.649999
 20
4.887229
 30
0.0
 10
197.149999
 20
4.887229
 30
0.0
 10
198.399998
 20
2.722229
 30
0.0
 10
197.149999
 20
0.557229
 30
0.0
 10
194.649999
 20
0.557229
 30
0.0
 10
193.400000
 20
2.722229
 30
0.0
  0
LWPOLYLINE
  5
123
100
AcDbEntity
  8
0
 62
7
100
AcDbPolyline
 90
8
 70
0
 10
194.500000
 20
-130.277771
 30
0.0
 10
195.441000
 20
-128.322773
 30
0.0
 10
197.555999
 20
-127.840771
 30
0.0
 10
199.251999
 20
-129.192771
 30
0.0
 10
199.251999
 20
-131.362772
 30
0.0
 10
197.555999
 20
-132.714771
 30
0.0
 10
195.441000
 20
-132.232773
 30
0.0
 10
194.500000
 20
-130.277771
 30
0.0
  0
LWPOLYLINE
  5
124
100
AcDbEntity
  8
0
 62
7
100
AcDbPolyline
 90
8
 70
0
 10
194.500000
 20
-110.277772
 30
0.0
 10
195.441000
 20
-108.322770
 30
0.0
 10
197.555999
 20
-107.840772
 30
0.0
 10
199.251999
 20
-109.192771
 30
0.0
 10
199.251999
 20
-111.362772
 30
0.0
 10
197.555999
 20
-112.714772
 30
0.0
 10
195.441000
 20
-112.232770
 30
0.0
 10
194.500000
 20
-110.277772
 30
0.0
  0
ENDSEC
  0
SECTION
  2
OBJECTS
  0
DICTIONARY
  5
C
330
0
100
AcDbDictionary
  3
ACAD_GROUP
350
D
  3
ACAD_MLINESTYLE
350
17
  0
DICTIONARY
  5
D
330
C
100
AcDbDictionary
  0
DICTIONARY
  5
1A
330
C
100
AcDbDictionary
  0
DICTIONARY
  5
17
330
C
100
AcDbDictionary
  3
STANDARD
350
18
  0
DICTIONARY
  5
19
330
C
100
AcDbDictionary
  0
ENDSEC
  0
EOF
