  0
SECTION
  2
BLOCKS
  0
ENDSEC
  0
SECTION
  2
ENTITIES
  0
LINE
  8
0
 10
-214
 11
-214
 20
-17
 21
12
  0
LINE
  8
0
 10
-214
 11
-206
 20
12
 21
12
  0
LINE
  8
0
 10
-206
 11
-206
 20
12
 21
-2
  0
LINE
  8
0
 10
-206
 11
-184
 20
-2
 21
-2
  0
LINE
  8
0
 10
-184
 11
-184
 20
-2
 21
-17
  0
LINE
  8
0
 10
-184
 11
-214
 20
-17
 21
-17
  0
LINE
  8
0
 10
-214
 11
-214
 20
198
 21
227
  0
LINE
  8
0
 10
-214
 11
-184
 20
227
 21
227
  0
LINE
  8
0
 10
-184
 11
-184
 20
227
 21
212
  0
LINE
  8
0
 10
-184
 11
-206
 20
212
 21
212
  0
LINE
  8
0
 10
-206
 11
-206
 20
212
 21
198
  0
LINE
  8
0
 10
-206
 11
-214
 20
198
 21
198
  0
LINE
  8
0
 10
-202.5
 11
-202.5
 20
82.4
 21
107.5
  0
LINE
  8
0
 10
-202.5
 11
-182.5
 20
107.5
 21
107.5
  0
LINE
  8
0
 10
-182.5
 11
-182.5
 20
107.5
 21
162.4
  0
LINE
  8
0
 10
-182.5
 11
-202.5
 20
162.4
 21
162.4
  0
LINE
  8
0
 10
-202.5
 11
-202.5
 20
162.4
 21
182.4
  0
LINE
  8
0
 10
-202.5
 11
-177.5
 20
182.4
 21
182.4
  0
LINE
  8
0
 10
-177.5
 11
-177.5
 20
182.4
 21
82.5
  0
LINE
  8
0
 10
-177.5
 11
-177.25
 20
82.5
 21
82.5
  0
LINE
  8
0
 10
-177.25
 11
-177.25
 20
82.5
 21
80.25
  0
LINE
  8
0
 10
-177.25
 11
-110.25
 20
80.25
 21
80.25
  0
LINE
  8
0
 10
-110.25
 11
-110.25
 20
80.25
 21
209.75
  0
LINE
  8
0
 10
-110.25
 11
-112.5
 20
209.75
 21
209.75
  0
LINE
  8
0
 10
-112.5
 11
-112.5
 20
209.75
 21
210.25
  0
LINE
  8
0
 10
-112.5
 11
-107.5
 20
210.25
 21
210.25
  0
LINE
  8
0
 10
-107.5
 11
-107.5
 20
210.25
 21
209.75
  0
LINE
  8
0
 10
-107.5
 11
-109.75
 20
209.75
 21
209.75
  0
LINE
  8
0
 10
-109.75
 11
-109.75
 20
209.75
 21
80.25
  0
LINE
  8
0
 10
-109.75
 11
-32.75
 20
80.25
 21
80.25
  0
LINE
  8
0
 10
-32.75
 11
-32.75
 20
80.25
 21
82.5
  0
LINE
  8
0
 10
-32.75
 11
-32.25
 20
82.5
 21
82.5
  0
LINE
  8
0
 10
-32.25
 11
-32.25
 20
82.5
 21
77.5
  0
LINE
  8
0
 10
-32.25
 11
-32.75
 20
77.5
 21
77.5
  0
LINE
  8
0
 10
-32.75
 11
-32.75
 20
77.5
 21
79.75
  0
LINE
  8
0
 10
-32.75
 11
-109.75
 20
79.75
 21
79.75
  0
LINE
  8
0
 10
-109.75
 11
-109.75
 20
79.75
 21
0.25
  0
LINE
  8
0
 10
-109.75
 11
-107.5
 20
0.25
 21
0.25
  0
LINE
  8
0
 10
-107.5
 11
-107.5
 20
0.25
 21
-0.25
  0
LINE
  8
0
 10
-107.5
 11
-112.5
 20
-0.25
 21
-0.25
  0
LINE
  8
0
 10
-112.5
 11
-112.5
 20
-0.25
 21
0.25
  0
LINE
  8
0
 10
-112.5
 11
-110.25
 20
0.25
 21
0.25
  0
LINE
  8
0
 10
-110.25
 11
-110.25
 20
0.25
 21
79.75
  0
LINE
  8
0
 10
-110.25
 11
-177.25
 20
79.75
 21
79.75
  0
LINE
  8
0
 10
-177.25
 11
-177.25
 20
79.75
 21
77.5
  0
LINE
  8
0
 10
-177.25
 11
-177.75
 20
77.5
 21
77.5
  0
LINE
  8
0
 10
-177.75
 11
-177.75
 20
77.5
 21
82.4
  0
LINE
  8
0
 10
-177.75
 11
-202.5
 20
82.4
 21
82.4
  0
LINE
  8
0
 10
-201.5
 11
-200.25
 20
-6.6
 21
-4.435
  0
LINE
  8
0
 10
-200.25
 11
-197.75
 20
-4.435
 21
-4.435
  0
LINE
  8
0
 10
-197.75
 11
-196.5
 20
-4.435
 21
-6.6
  0
LINE
  8
0
 10
-196.5
 11
-197.75
 20
-6.6
 21
-8.765
  0
LINE
  8
0
 10
-197.75
 11
-200.25
 20
-8.765
 21
-8.765
  0
LINE
  8
0
 10
-200.25
 11
-201.5
 20
-8.765
 21
-6.6
  0
LINE
  8
0
 10
-201.5
 11
-200.25
 20
216.6
 21
218.765
  0
LINE
  8
0
 10
-200.25
 11
-197.75
 20
218.765
 21
218.765
  0
LINE
  8
0
 10
-197.75
 11
-196.5
 20
218.765
 21
216.6
  0
LINE
  8
0
 10
-196.5
 11
-197.75
 20
216.6
 21
214.435
  0
LINE
  8
0
 10
-197.75
 11
-200.25
 20
214.435
 21
214.435
  0
LINE
  8
0
 10
-200.25
 11
-201.5
 20
214.435
 21
216.6
  0
LINE
  8
0
 10
-199.752
 11
-199.752
 20
93.915
 21
96.085
  0
LINE
  8
0
 10
-199.752
 11
-198.056
 20
96.085
 21
97.437
  0
LINE
  8
0
 10
-198.056
 11
-195.941
 20
97.437
 21
96.955
  0
LINE
  8
0
 10
-195.941
 11
-195
 20
96.955
 21
95
  0
LINE
  8
0
 10
-195
 11
-195.941
 20
95
 21
93.045
  0
LINE
  8
0
 10
-195.941
 11
-198.056
 20
93.045
 21
92.563
  0
LINE
  8
0
 10
-198.056
 11
-199.752
 20
92.563
 21
93.915
  0
LINE
  8
0
 10
-199.752
 11
-199.752
 20
173.815
 21
175.985
  0
LINE
  8
0
 10
-199.752
 11
-198.056
 20
175.985
 21
177.337
  0
LINE
  8
0
 10
-198.056
 11
-195.941
 20
177.337
 21
176.855
  0
LINE
  8
0
 10
-195.941
 11
-195
 20
176.855
 21
174.9
  0
LINE
  8
0
 10
-195
 11
-195.941
 20
174.9
 21
172.945
  0
LINE
  8
0
 10
-195.941
 11
-198.056
 20
172.945
 21
172.463
  0
LINE
  8
0
 10
-198.056
 11
-199.752
 20
172.463
 21
173.815
  0
LINE
  8
0
 10
-191.5
 11
-190.25
 20
-6.6
 21
-4.435
  0
LINE
  8
0
 10
-190.25
 11
-187.75
 20
-4.435
 21
-4.435
  0
LINE
  8
0
 10
-187.75
 11
-186.5
 20
-4.435
 21
-6.6
  0
LINE
  8
0
 10
-186.5
 11
-187.75
 20
-6.6
 21
-8.765
  0
LINE
  8
0
 10
-187.75
 11
-190.25
 20
-8.765
 21
-8.765
  0
LINE
  8
0
 10
-190.25
 11
-191.5
 20
-8.765
 21
-6.6
  0
LINE
  8
0
 10
-191.5
 11
-190.25
 20
216.6
 21
218.765
  0
LINE
  8
0
 10
-190.25
 11
-187.75
 20
218.765
 21
218.765
  0
LINE
  8
0
 10
-187.75
 11
-186.5
 20
218.765
 21
216.6
  0
LINE
  8
0
 10
-186.5
 11
-187.75
 20
216.6
 21
214.435
  0
LINE
  8
0
 10
-187.75
 11
-190.25
 20
214.435
 21
214.435
  0
LINE
  8
0
 10
-190.25
 11
-191.5
 20
214.435
 21
216.6
  0
LINE
  8
0
 10
-189.752
 11
-189.752
 20
93.915
 21
96.085
  0
LINE
  8
0
 10
-189.752
 11
-188.056
 20
96.085
 21
97.437
  0
LINE
  8
0
 10
-188.056
 11
-185.941
 20
97.437
 21
96.955
  0
LINE
  8
0
 10
-185.941
 11
-185
 20
96.955
 21
95
  0
LINE
  8
0
 10
-185
 11
-185.941
 20
95
 21
93.045
  0
LINE
  8
0
 10
-185.941
 11
-188.056
 20
93.045
 21
92.563
  0
LINE
  8
0
 10
-188.056
 11
-189.752
 20
92.563
 21
93.915
  0
LINE
  8
0
 10
-189.752
 11
-189.752
 20
173.815
 21
175.985
  0
LINE
  8
0
 10
-189.752
 11
-188.056
 20
175.985
 21
177.337
  0
LINE
  8
0
 10
-188.056
 11
-185.941
 20
177.337
 21
176.855
  0
LINE
  8
0
 10
-185.941
 11
-185
 20
176.855
 21
174.9
  0
LINE
  8
0
 10
-185
 11
-185.941
 20
174.9
 21
172.945
  0
LINE
  8
0
 10
-185.941
 11
-188.056
 20
172.945
 21
172.463
  0
LINE
  8
0
 10
-188.056
 11
-189.752
 20
172.463
 21
173.815
  0
LINE
  8
0
 10
-155.227
 11
-155.227
 20
84.988
 21
87.5
  0
LINE
  8
0
 10
-155.227
 11
-154.654
 20
87.5
 21
87.5
  0
LINE
  8
0
 10
-154.654
 11
-154.622
 20
87.5
 21
85.226
  0
LINE
  8
0
 10
-154.622
 11
-154.644
 20
85.226
 21
84.722
  0
LINE
  8
0
 10
-154.644
 11
-154.496
 20
84.722
 21
84.458
  0
LINE
  8
0
 10
-154.496
 11
-154.245
 20
84.458
 21
84.514
  0
LINE
  8
0
 10
-154.245
 11
-153.874
 20
84.514
 21
84.802
  0
LINE
  8
0
 10
-153.874
 11
-153.764
 20
84.802
 21
85.374
  0
LINE
  8
0
 10
-153.764
 11
-153.764
 20
85.374
 21
87.5
  0
LINE
  8
0
 10
-153.764
 11
-153.283
 20
87.5
 21
87.531
  0
LINE
  8
0
 10
-153.283
 11
-153.22
 20
87.531
 21
85.216
  0
LINE
  8
0
 10
-153.22
 11
-153.149
 20
85.216
 21
84.628
  0
LINE
  8
0
 10
-153.149
 11
-152.907
 20
84.628
 21
84.483
  0
LINE
  8
0
 10
-152.907
 11
-152.704
 20
84.483
 21
84.652
  0
LINE
  8
0
 10
-152.704
 11
-152.456
 20
84.652
 21
84.868
  0
LINE
  8
0
 10
-152.456
 11
-152.481
 20
84.868
 21
85.633
  0
LINE
  8
0
 10
-152.481
 11
-152.513
 20
85.633
 21
87.469
  0
LINE
  8
0
 10
-152.513
 11
-151.875
 20
87.469
 21
87.5
  0
LINE
  8
0
 10
-151.875
 11
-151.875
 20
87.5
 21
83.841
  0
LINE
  8
0
 10
-151.875
 11
-152.25
 20
83.841
 21
83.841
  0
LINE
  8
0
 10
-152.25
 11
-152.25
 20
83.841
 21
84.354
  0
LINE
  8
0
 10
-152.25
 11
-152.56
 20
84.354
 21
83.922
  0
LINE
  8
0
 10
-152.56
 11
-153
 20
83.922
 21
83.759
  0
LINE
  8
0
 10
-153
 11
-153.451
 20
83.759
 21
83.928
  0
LINE
  8
0
 10
-153.451
 11
-153.699
 20
83.928
 21
84.399
  0
LINE
  8
0
 10
-153.699
 11
-154.462
 20
84.399
 21
83.759
  0
LINE
  8
0
 10
-154.462
 11
-155.029
 20
83.759
 21
84.06
  0
LINE
  8
0
 10
-155.029
 11
-155.227
 20
84.06
 21
84.988
  0
LINE
  8
0
 10
-151.789
 11
-151.789
 20
84.988
 21
87.5
  0
LINE
  8
0
 10
-151.789
 11
-151.216
 20
87.5
 21
87.5
  0
LINE
  8
0
 10
-151.216
 11
-151.185
 20
87.5
 21
85.226
  0
LINE
  8
0
 10
-151.185
 11
-151.207
 20
85.226
 21
84.722
  0
LINE
  8
0
 10
-151.207
 11
-151.059
 20
84.722
 21
84.458
  0
LINE
  8
0
 10
-151.059
 11
-150.807
 20
84.458
 21
84.514
  0
LINE
  8
0
 10
-150.807
 11
-150.436
 20
84.514
 21
84.802
  0
LINE
  8
0
 10
-150.436
 11
-150.326
 20
84.802
 21
85.374
  0
LINE
  8
0
 10
-150.326
 11
-150.326
 20
85.374
 21
87.5
  0
LINE
  8
0
 10
-150.326
 11
-149.845
 20
87.5
 21
87.531
  0
LINE
  8
0
 10
-149.845
 11
-149.783
 20
87.531
 21
85.216
  0
LINE
  8
0
 10
-149.783
 11
-149.711
 20
85.216
 21
84.628
  0
LINE
  8
0
 10
-149.711
 11
-149.469
 20
84.628
 21
84.483
  0
LINE
  8
0
 10
-149.469
 11
-149.267
 20
84.483
 21
84.652
  0
LINE
  8
0
 10
-149.267
 11
-149.018
 20
84.652
 21
84.868
  0
LINE
  8
0
 10
-149.018
 11
-149.044
 20
84.868
 21
85.633
  0
LINE
  8
0
 10
-149.044
 11
-149.075
 20
85.633
 21
87.469
  0
LINE
  8
0
 10
-149.075
 11
-148.437
 20
87.469
 21
87.5
  0
LINE
  8
0
 10
-148.437
 11
-148.438
 20
87.5
 21
83.841
  0
LINE
  8
0
 10
-148.438
 11
-148.813
 20
83.841
 21
83.841
  0
LINE
  8
0
 10
-148.813
 11
-148.813
 20
83.841
 21
84.354
  0
LINE
  8
0
 10
-148.813
 11
-149.122
 20
84.354
 21
83.922
  0
LINE
  8
0
 10
-149.122
 11
-149.563
 20
83.922
 21
83.759
  0
LINE
  8
0
 10
-149.563
 11
-150.013
 20
83.759
 21
83.928
  0
LINE
  8
0
 10
-150.013
 11
-150.261
 20
83.928
 21
84.399
  0
LINE
  8
0
 10
-150.261
 11
-151.025
 20
84.399
 21
83.759
  0
LINE
  8
0
 10
-151.025
 11
-151.591
 20
83.759
 21
84.06
  0
LINE
  8
0
 10
-151.591
 11
-151.789
 20
84.06
 21
84.988
  0
LINE
  8
0
 10
-144.561
 11
-144.203
 20
85.701
 21
86.887
  0
LINE
  8
0
 10
-144.203
 11
-143.016
 20
86.887
 21
87.5
  0
LINE
  8
0
 10
-143.016
 11
-142.009
 20
87.5
 21
87.114
  0
LINE
  8
0
 10
-142.009
 11
-141.562
 20
87.114
 21
86.091
  0
LINE
  8
0
 10
-141.562
 11
-142.146
 20
86.091
 21
86.036
  0
LINE
  8
0
 10
-142.146
 11
-142.446
 20
86.036
 21
86.751
  0
LINE
  8
0
 10
-142.446
 11
-143.016
 20
86.751
 21
86.99
  0
LINE
  8
0
 10
-143.016
 11
-143.694
 20
86.99
 21
86.653
  0
LINE
  8
0
 10
-143.694
 11
-143.972
 20
86.653
 21
85.757
  0
LINE
  8
0
 10
-143.972
 11
-143.705
 20
85.757
 21
84.919
  0
LINE
  8
0
 10
-143.705
 11
-143.006
 20
84.919
 21
84.613
  0
LINE
  8
0
 10
-143.006
 11
-142.522
 20
84.613
 21
84.749
  0
LINE
  8
0
 10
-142.522
 11
-142.182
 20
84.749
 21
85.102
  0
LINE
  8
0
 10
-142.182
 11
-141.661
 20
85.102
 21
85.026
  0
LINE
  8
0
 10
-141.661
 11
-142.099
 20
85.026
 21
82.432
  0
LINE
  8
0
 10
-142.099
 11
-144.348
 20
82.432
 21
82.432
  0
LINE
  8
0
 10
-144.348
 11
-144.348
 20
82.432
 21
83.024
  0
LINE
  8
0
 10
-144.348
 11
-142.544
 20
83.024
 21
83.024
  0
LINE
  8
0
 10
-142.544
 11
-142.3
 20
83.024
 21
84.382
  0
LINE
  8
0
 10
-142.3
 11
-143.154
 20
84.382
 21
84.065
  0
LINE
  8
0
 10
-143.154
 11
-144.154
 20
84.065
 21
84.523
  0
LINE
  8
0
 10
-144.154
 11
-144.561
 20
84.523
 21
85.701
  0
LINE
  8
0
 10
-141.124
 11
-141.124
 20
85.722
 21
86.291
  0
LINE
  8
0
 10
-141.124
 11
-140.538
 20
86.291
 21
86.291
  0
LINE
  8
0
 10
-140.538
 11
-140.538
 20
86.291
 21
87.5
  0
LINE
  8
0
 10
-140.538
 11
-140.006
 20
87.5
 21
87.5
  0
LINE
  8
0
 10
-140.006
 11
-140.006
 20
87.5
 21
86.291
  0
LINE
  8
0
 10
-140.006
 11
-138.125
 20
86.291
 21
86.291
  0
LINE
  8
0
 10
-138.125
 11
-138.125
 20
86.291
 21
85.722
  0
LINE
  8
0
 10
-138.125
 11
-140.104
 20
85.722
 21
82.449
  0
LINE
  8
0
 10
-140.104
 11
-140.538
 20
82.449
 21
82.449
  0
LINE
  8
0
 10
-140.538
 11
-140.538
 20
82.449
 21
85.722
  0
LINE
  8
0
 10
-140.538
 11
-141.124
 20
85.722
 21
85.722
  0
LINE
  8
0
 10
-140.006
 11
-140.006
 20
83.445
 21
85.722
  0
LINE
  8
0
 10
-140.006
 11
-138.649
 20
85.722
 21
85.722
  0
LINE
  8
0
 10
-138.649
 11
-140.006
 20
85.722
 21
83.445
  0
LINE
  8
0
 10
-137.077
 11
-137.077
 20
82.429
 21
87.5
  0
LINE
  8
0
 10
-137.077
 11
-136.457
 20
87.5
 21
87.5
  0
LINE
  8
0
 10
-136.457
 11
-136.457
 20
87.5
 21
83.548
  0
LINE
  8
0
 10
-136.457
 11
-135.869
 20
83.548
 21
83.976
  0
LINE
  8
0
 10
-135.869
 11
-135.217
 20
83.976
 21
84.296
  0
LINE
  8
0
 10
-135.217
 11
-135.217
 20
84.296
 21
83.696
  0
LINE
  8
0
 10
-135.217
 11
-136.126
 20
83.696
 21
83.104
  0
LINE
  8
0
 10
-136.126
 11
-136.677
 20
83.104
 21
82.429
  0
LINE
  8
0
 10
-136.677
 11
-137.077
 20
82.429
 21
82.429
  0
LINE
  8
0
 10
-107.658
 11
-107.494
 20
163.062
 21
163.711
  0
LINE
  8
0
 10
-107.494
 11
-107.022
 20
163.711
 21
164.172
  0
LINE
  8
0
 10
-107.022
 11
-106.271
 20
164.172
 21
164.457
  0
LINE
  8
0
 10
-106.271
 11
-105.077
 20
164.457
 21
164.561
  0
LINE
  8
0
 10
-105.077
 11
-103.643
 20
164.561
 21
164.395
  0
LINE
  8
0
 10
-103.643
 11
-102.798
 20
164.395
 21
163.898
  0
LINE
  8
0
 10
-102.798
 11
-102.5
 20
163.898
 21
163.062
  0
LINE
  8
0
 10
-102.5
 11
-103.024
 20
163.062
 21
162.017
  0
LINE
  8
0
 10
-103.024
 11
-105.077
 20
162.017
 21
161.563
  0
LINE
  8
0
 10
-105.077
 11
-106.519
 20
161.563
 21
161.731
  0
LINE
  8
0
 10
-106.519
 11
-107.361
 20
161.731
 21
162.229
  0
LINE
  8
0
 10
-107.361
 11
-107.658
 20
162.229
 21
163.062
  0
LINE
  8
0
 10
-107.571
 11
-107.168
 20
156.266
 21
157.3
  0
LINE
  8
0
 10
-107.168
 11
-106.169
 20
157.3
 21
157.681
  0
LINE
  8
0
 10
-106.169
 11
-105.573
 20
157.681
 21
157.569
  0
LINE
  8
0
 10
-105.573
 11
-104.956
 20
157.569
 21
157.199
  0
LINE
  8
0
 10
-104.956
 11
-104.068
 20
157.199
 21
156.341
  0
LINE
  8
0
 10
-104.068
 11
-103.432
 20
156.341
 21
155.697
  0
LINE
  8
0
 10
-103.432
 11
-103.096
 20
155.697
 21
155.462
  0
LINE
  8
0
 10
-103.096
 11
-103.096
 20
155.462
 21
157.687
  0
LINE
  8
0
 10
-103.096
 11
-102.5
 20
157.687
 21
157.687
  0
LINE
  8
0
 10
-102.5
 11
-102.5
 20
157.687
 21
154.688
  0
LINE
  8
0
 10
-102.5
 11
-102.931
 20
154.688
 21
154.753
  0
LINE
  8
0
 10
-102.931
 11
-103.602
 20
154.753
 21
155.12
  0
LINE
  8
0
 10
-103.602
 11
-104.367
 20
155.12
 21
155.849
  0
LINE
  8
0
 10
-104.367
 11
-105.437
 20
155.849
 21
156.848
  0
LINE
  8
0
 10
-105.437
 11
-106.183
 20
156.848
 21
157.108
  0
LINE
  8
0
 10
-106.183
 11
-106.805
 20
157.108
 21
156.871
  0
LINE
  8
0
 10
-106.805
 11
-107.058
 20
156.871
 21
156.254
  0
LINE
  8
0
 10
-107.058
 11
-106.789
 20
156.254
 21
155.611
  0
LINE
  8
0
 10
-106.789
 11
-106.045
 20
155.611
 21
155.366
  0
LINE
  8
0
 10
-106.045
 11
-106.111
 20
155.366
 21
154.794
  0
LINE
  8
0
 10
-106.111
 11
-107.197
 20
154.794
 21
155.236
  0
LINE
  8
0
 10
-107.197
 11
-107.571
 20
155.236
 21
156.266
  0
LINE
  8
0
 10
-107.571
 11
-107.571
 20
160.115
 21
160.514
  0
LINE
  8
0
 10
-107.571
 11
-102.5
 20
160.514
 21
160.514
  0
LINE
  8
0
 10
-102.5
 11
-102.5
 20
160.514
 21
159.894
  0
LINE
  8
0
 10
-102.5
 11
-106.452
 20
159.894
 21
159.894
  0
LINE
  8
0
 10
-106.452
 11
-106.024
 20
159.894
 21
159.307
  0
LINE
  8
0
 10
-106.024
 11
-105.704
 20
159.307
 21
158.654
  0
LINE
  8
0
 10
-105.704
 11
-106.304
 20
158.654
 21
158.654
  0
LINE
  8
0
 10
-106.304
 11
-106.896
 20
158.654
 21
159.564
  0
LINE
  8
0
 10
-106.896
 11
-107.571
 20
159.564
 21
160.115
  0
LINE
  8
0
 10
-107.144
 11
-106.734
 20
163.056
 21
163.716
  0
LINE
  8
0
 10
-106.734
 11
-105.077
 20
163.716
 21
163.981
  0
LINE
  8
0
 10
-105.077
 11
-103.424
 20
163.981
 21
163.716
  0
LINE
  8
0
 10
-103.424
 11
-103.01
 20
163.716
 21
163.062
  0
LINE
  8
0
 10
-103.01
 11
-103.422
 20
163.062
 21
162.408
  0
LINE
  8
0
 10
-103.422
 11
-105.077
 20
162.408
 21
162.143
  0
LINE
  8
0
 10
-105.077
 11
-106.783
 20
162.143
 21
162.434
  0
LINE
  8
0
 10
-106.783
 11
-107.144
 20
162.434
 21
163.056
  0
LINE
  8
0
 10
-106.241
 11
-106.072
 20
169.562
 21
170.013
  0
LINE
  8
0
 10
-106.072
 11
-105.601
 20
170.013
 21
170.261
  0
LINE
  8
0
 10
-105.601
 11
-106.241
 20
170.261
 21
171.025
  0
LINE
  8
0
 10
-106.241
 11
-105.94
 20
171.025
 21
171.591
  0
LINE
  8
0
 10
-105.94
 11
-105.012
 20
171.591
 21
171.789
  0
LINE
  8
0
 10
-105.012
 11
-102.5
 20
171.789
 21
171.789
  0
LINE
  8
0
 10
-102.5
 11
-102.5
 20
171.789
 21
171.216
  0
LINE
  8
0
 10
-102.5
 11
-104.774
 20
171.216
 21
171.185
  0
LINE
  8
0
 10
-104.774
 11
-105.278
 20
171.185
 21
171.207
  0
LINE
  8
0
 10
-105.278
 11
-105.542
 20
171.207
 21
171.059
  0
LINE
  8
0
 10
-105.542
 11
-105.486
 20
171.059
 21
170.807
  0
LINE
  8
0
 10
-105.486
 11
-105.198
 20
170.807
 21
170.436
  0
LINE
  8
0
 10
-105.198
 11
-104.626
 20
170.436
 21
170.326
  0
LINE
  8
0
 10
-104.626
 11
-102.5
 20
170.326
 21
170.326
  0
LINE
  8
0
 10
-102.5
 11
-102.469
 20
170.326
 21
169.845
  0
LINE
  8
0
 10
-102.469
 11
-104.784
 20
169.845
 21
169.783
  0
LINE
  8
0
 10
-104.784
 11
-105.372
 20
169.783
 21
169.711
  0
LINE
  8
0
 10
-105.372
 11
-105.517
 20
169.711
 21
169.469
  0
LINE
  8
0
 10
-105.517
 11
-105.348
 20
169.469
 21
169.267
  0
LINE
  8
0
 10
-105.348
 11
-105.132
 20
169.267
 21
169.018
  0
LINE
  8
0
 10
-105.132
 11
-104.367
 20
169.018
 21
169.044
  0
LINE
  8
0
 10
-104.367
 11
-102.531
 20
169.044
 21
169.075
  0
LINE
  8
0
 10
-102.531
 11
-102.5
 20
169.075
 21
168.438
  0
LINE
  8
0
 10
-102.5
 11
-106.159
 20
168.438
 21
168.438
  0
LINE
  8
0
 10
-106.159
 11
-106.159
 20
168.438
 21
168.812
  0
LINE
  8
0
 10
-106.159
 11
-105.646
 20
168.812
 21
168.812
  0
LINE
  8
0
 10
-105.646
 11
-106.078
 20
168.812
 21
169.122
  0
LINE
  8
0
 10
-106.078
 11
-106.241
 20
169.122
 21
169.562
  0
LINE
  8
0
 10
-106.241
 11
-106.072
 20
173
 21
173.451
  0
LINE
  8
0
 10
-106.072
 11
-105.601
 20
173.451
 21
173.699
  0
LINE
  8
0
 10
-105.601
 11
-106.241
 20
173.699
 21
174.462
  0
LINE
  8
0
 10
-106.241
 11
-105.94
 20
174.462
 21
175.029
  0
LINE
  8
0
 10
-105.94
 11
-105.012
 20
175.029
 21
175.227
  0
LINE
  8
0
 10
-105.012
 11
-102.5
 20
175.227
 21
175.227
  0
LINE
  8
0
 10
-102.5
 11
-102.5
 20
175.227
 21
174.654
  0
LINE
  8
0
 10
-102.5
 11
-104.774
 20
174.654
 21
174.622
  0
LINE
  8
0
 10
-104.774
 11
-105.278
 20
174.622
 21
174.644
  0
LINE
  8
0
 10
-105.278
 11
-105.542
 20
174.644
 21
174.496
  0
LINE
  8
0
 10
-105.542
 11
-105.486
 20
174.496
 21
174.245
  0
LINE
  8
0
 10
-105.486
 11
-105.198
 20
174.245
 21
173.874
  0
LINE
  8
0
 10
-105.198
 11
-104.626
 20
173.874
 21
173.764
  0
LINE
  8
0
 10
-104.626
 11
-102.5
 20
173.764
 21
173.764
  0
LINE
  8
0
 10
-102.5
 11
-102.469
 20
173.764
 21
173.283
  0
LINE
  8
0
 10
-102.469
 11
-104.784
 20
173.283
 21
173.22
  0
LINE
  8
0
 10
-104.784
 11
-105.372
 20
173.22
 21
173.149
  0
LINE
  8
0
 10
-105.372
 11
-105.517
 20
173.149
 21
172.907
  0
LINE
  8
0
 10
-105.517
 11
-105.348
 20
172.907
 21
172.704
  0
LINE
  8
0
 10
-105.348
 11
-105.132
 20
172.704
 21
172.456
  0
LINE
  8
0
 10
-105.132
 11
-104.367
 20
172.456
 21
172.481
  0
LINE
  8
0
 10
-104.367
 11
-102.531
 20
172.481
 21
172.512
  0
LINE
  8
0
 10
-102.531
 11
-102.5
 20
172.512
 21
171.875
  0
LINE
  8
0
 10
-102.5
 11
-106.159
 20
171.875
 21
171.875
  0
LINE
  8
0
 10
-106.159
 11
-106.159
 20
171.875
 21
172.25
  0
LINE
  8
0
 10
-106.159
 11
-105.646
 20
172.25
 21
172.25
  0
LINE
  8
0
 10
-105.646
 11
-106.078
 20
172.25
 21
172.56
  0
LINE
  8
0
 10
-106.078
 11
-106.241
 20
172.56
 21
173
  0
LINE
  8
0
 10
-85
 11
-85
 20
-23
 21
12
  0
LINE
  8
0
 10
-85
 11
-80
 20
12
 21
12
  0
LINE
  8
0
 10
-80
 11
-80
 20
12
 21
-9
  0
LINE
  8
0
 10
-80
 11
-5
 20
-9
 21
-9
  0
LINE
  8
0
 10
-5
 11
-5
 20
-9
 21
12
  0
LINE
  8
0
 10
-5
 11
5
 20
12
 21
12
  0
LINE
  8
0
 10
5
 11
5
 20
12
 21
-23
  0
LINE
  8
0
 10
5
 11
-85
 20
-23
 21
-23
  0
LINE
  8
0
 10
-85
 11
-85
 20
198
 21
233
  0
LINE
  8
0
 10
-85
 11
5
 20
233
 21
233
  0
LINE
  8
0
 10
5
 11
5
 20
233
 21
198
  0
LINE
  8
0
 10
5
 11
-5
 20
198
 21
198
  0
LINE
  8
0
 10
-5
 11
-5
 20
198
 21
219
  0
LINE
  8
0
 10
-5
 11
-80
 20
219
 21
219
  0
LINE
  8
0
 10
-80
 11
-80
 20
219
 21
198
  0
LINE
  8
0
 10
-80
 11
-85
 20
198
 21
198
  0
LINE
  8
0
 10
-75.5
 11
-74.25
 20
-18
 21
-15.835
  0
LINE
  8
0
 10
-74.25
 11
-71.75
 20
-15.835
 21
-15.835
  0
LINE
  8
0
 10
-71.75
 11
-70.5
 20
-15.835
 21
-18
  0
LINE
  8
0
 10
-70.5
 11
-71.75
 20
-18
 21
-20.165
  0
LINE
  8
0
 10
-71.75
 11
-74.25
 20
-20.165
 21
-20.165
  0
LINE
  8
0
 10
-74.25
 11
-75.5
 20
-20.165
 21
-18
  0
LINE
  8
0
 10
-75.5
 11
-74.25
 20
228
 21
230.165
  0
LINE
  8
0
 10
-74.25
 11
-71.75
 20
230.165
 21
230.165
  0
LINE
  8
0
 10
-71.75
 11
-70.5
 20
230.165
 21
228
  0
LINE
  8
0
 10
-70.5
 11
-71.75
 20
228
 21
225.835
  0
LINE
  8
0
 10
-71.75
 11
-74.25
 20
225.835
 21
225.835
  0
LINE
  8
0
 10
-74.25
 11
-75.5
 20
225.835
 21
228
  0
LINE
  8
0
 10
-35.9
 11
-34.65
 20
-18
 21
-15.835
  0
LINE
  8
0
 10
-34.65
 11
-32.15
 20
-15.835
 21
-15.835
  0
LINE
  8
0
 10
-32.15
 11
-30.9
 20
-15.835
 21
-18
  0
LINE
  8
0
 10
-30.9
 11
-32.15
 20
-18
 21
-20.165
  0
LINE
  8
0
 10
-32.15
 11
-34.65
 20
-20.165
 21
-20.165
  0
LINE
  8
0
 10
-34.65
 11
-35.9
 20
-20.165
 21
-18
  0
LINE
  8
0
 10
-35.9
 11
-34.65
 20
228
 21
230.165
  0
LINE
  8
0
 10
-34.65
 11
-32.15
 20
230.165
 21
230.165
  0
LINE
  8
0
 10
-32.15
 11
-30.9
 20
230.165
 21
228
  0
LINE
  8
0
 10
-30.9
 11
-32.15
 20
228
 21
225.835
  0
LINE
  8
0
 10
-32.15
 11
-34.65
 20
225.835
 21
225.835
  0
LINE
  8
0
 10
-34.65
 11
-35.9
 20
225.835
 21
228
  0
LINE
  8
0
 10
-32.5
 11
-32.5
 20
88.958
 21
127.6
  0
LINE
  8
0
 10
-32.5
 11
-7.5
 20
127.6
 21
127.6
  0
LINE
  8
0
 10
-7.5
 11
-7.5
 20
127.6
 21
102.5
  0
LINE
  8
0
 10
-7.5
 11
-27.5
 20
102.5
 21
102.5
  0
LINE
  8
0
 10
-27.5
 11
-27.5
 20
102.5
 21
88.958
  0
LINE
  8
0
 10
-27.5
 11
-32.5
 20
88.958
 21
88.958
  0
LINE
  8
0
 10
-25
 11
-24.059
 20
115
 21
116.955
  0
LINE
  8
0
 10
-24.059
 11
-21.944
 20
116.955
 21
117.437
  0
LINE
  8
0
 10
-21.944
 11
-20.248
 20
117.437
 21
116.085
  0
LINE
  8
0
 10
-20.248
 11
-20.248
 20
116.085
 21
113.915
  0
LINE
  8
0
 10
-20.248
 11
-21.944
 20
113.915
 21
112.563
  0
LINE
  8
0
 10
-21.944
 11
-24.059
 20
112.563
 21
113.045
  0
LINE
  8
0
 10
-24.059
 11
-25
 20
113.045
 21
115
  0
LINE
  8
0
 10
-16.1
 11
-14.85
 20
-18
 21
-15.835
  0
LINE
  8
0
 10
-14.85
 11
-12.35
 20
-15.835
 21
-15.835
  0
LINE
  8
0
 10
-12.35
 11
-11.1
 20
-15.835
 21
-18
  0
LINE
  8
0
 10
-11.1
 11
-12.35
 20
-18
 21
-20.165
  0
LINE
  8
0
 10
-12.35
 11
-14.85
 20
-20.165
 21
-20.165
  0
LINE
  8
0
 10
-14.85
 11
-16.1
 20
-20.165
 21
-18
  0
LINE
  8
0
 10
-16.1
 11
-14.85
 20
228
 21
230.165
  0
LINE
  8
0
 10
-14.85
 11
-12.35
 20
230.165
 21
230.165
  0
LINE
  8
0
 10
-12.35
 11
-11.1
 20
230.165
 21
228
  0
LINE
  8
0
 10
-11.1
 11
-12.35
 20
228
 21
225.835
  0
LINE
  8
0
 10
-12.35
 11
-14.85
 20
225.835
 21
225.835
  0
LINE
  8
0
 10
-14.85
 11
-16.1
 20
225.835
 21
228
  0
LINE
  8
0
 10
-15
 11
-14.059
 20
115
 21
116.955
  0
LINE
  8
0
 10
-14.059
 11
-11.944
 20
116.955
 21
117.437
  0
LINE
  8
0
 10
-11.944
 11
-10.248
 20
117.437
 21
116.085
  0
LINE
  8
0
 10
-10.248
 11
-10.248
 20
116.085
 21
113.915
  0
LINE
  8
0
 10
-10.248
 11
-11.944
 20
113.915
 21
112.563
  0
LINE
  8
0
 10
-11.944
 11
-14.059
 20
112.563
 21
113.045
  0
LINE
  8
0
 10
-14.059
 11
-15
 20
113.045
 21
115
  0
ENDSEC
  0
SECTION
  2
OBJECTS
  0
DICTIONARY
  0
ENDSEC
  0
EOF
