  0
SECTION
  2
BLOCKS
  0
ENDSEC
  0
SECTION
  2
ENTITIES
  0
LINE
  8
0
 10
-214
 11
-214
 20
-17
 21
12
  0
LINE
  8
0
 10
-214
 11
-206
 20
12
 21
12
  0
LINE
  8
0
 10
-206
 11
-206
 20
12
 21
-2
  0
LINE
  8
0
 10
-206
 11
-184
 20
-2
 21
-2
  0
LINE
  8
0
 10
-184
 11
-184
 20
-2
 21
-17
  0
LINE
  8
0
 10
-184
 11
-214
 20
-17
 21
-17
  0
LINE
  8
0
 10
-214
 11
-214
 20
198
 21
227
  0
LINE
  8
0
 10
-214
 11
-184
 20
227
 21
227
  0
LINE
  8
0
 10
-184
 11
-184
 20
227
 21
212
  0
LINE
  8
0
 10
-184
 11
-206
 20
212
 21
212
  0
LINE
  8
0
 10
-206
 11
-206
 20
212
 21
198
  0
LINE
  8
0
 10
-206
 11
-214
 20
198
 21
198
  0
LINE
  8
0
 10
-205.5
 11
-205.5
 20
82.4
 21
107.5
  0
LINE
  8
0
 10
-205.5
 11
-185.5
 20
107.5
 21
107.5
  0
LINE
  8
0
 10
-185.5
 11
-185.5
 20
107.5
 21
162.4
  0
LINE
  8
0
 10
-185.5
 11
-205.5
 20
162.4
 21
162.4
  0
LINE
  8
0
 10
-205.5
 11
-205.5
 20
162.4
 21
182.4
  0
LINE
  8
0
 10
-205.5
 11
-177.5
 20
182.4
 21
182.4
  0
LINE
  8
0
 10
-177.5
 11
-177.5
 20
182.4
 21
82.5
  0
LINE
  8
0
 10
-177.5
 11
-177.25
 20
82.5
 21
82.5
  0
LINE
  8
0
 10
-177.25
 11
-177.25
 20
82.5
 21
80.25
  0
LINE
  8
0
 10
-177.25
 11
-110.25
 20
80.25
 21
80.25
  0
LINE
  8
0
 10
-110.25
 11
-110.25
 20
80.25
 21
84.378
  0
LINE
  8
0
 10
-110.25
 11
-110.261
 20
84.378
 21
84.399
  0
LINE
  8
0
 10
-110.261
 11
-111.025
 20
84.399
 21
83.759
  0
LINE
  8
0
 10
-111.025
 11
-111.591
 20
83.759
 21
84.06
  0
LINE
  8
0
 10
-111.591
 11
-111.789
 20
84.06
 21
84.988
  0
LINE
  8
0
 10
-111.789
 11
-111.789
 20
84.988
 21
87.5
  0
LINE
  8
0
 10
-111.789
 11
-111.216
 20
87.5
 21
87.5
  0
LINE
  8
0
 10
-111.216
 11
-111.185
 20
87.5
 21
85.226
  0
LINE
  8
0
 10
-111.185
 11
-111.207
 20
85.226
 21
84.722
  0
LINE
  8
0
 10
-111.207
 11
-111.059
 20
84.722
 21
84.458
  0
LINE
  8
0
 10
-111.059
 11
-110.807
 20
84.458
 21
84.514
  0
LINE
  8
0
 10
-110.807
 11
-110.436
 20
84.514
 21
84.802
  0
LINE
  8
0
 10
-110.436
 11
-110.326
 20
84.802
 21
85.374
  0
LINE
  8
0
 10
-110.326
 11
-110.326
 20
85.374
 21
87.5
  0
LINE
  8
0
 10
-110.326
 11
-110.25
 20
87.5
 21
87.505
  0
LINE
  8
0
 10
-110.25
 11
-110.25
 20
87.505
 21
209.75
  0
LINE
  8
0
 10
-110.25
 11
-112.5
 20
209.75
 21
209.75
  0
LINE
  8
0
 10
-112.5
 11
-112.5
 20
209.75
 21
210.25
  0
LINE
  8
0
 10
-112.5
 11
-107.5
 20
210.25
 21
210.25
  0
LINE
  8
0
 10
-107.5
 11
-107.5
 20
210.25
 21
209.75
  0
LINE
  8
0
 10
-107.5
 11
-109.75
 20
209.75
 21
209.75
  0
LINE
  8
0
 10
-109.75
 11
-109.75
 20
209.75
 21
84.948
  0
LINE
  8
0
 10
-109.75
 11
-109.711
 20
84.948
 21
84.628
  0
LINE
  8
0
 10
-109.711
 11
-109.469
 20
84.628
 21
84.483
  0
LINE
  8
0
 10
-109.469
 11
-109.267
 20
84.483
 21
84.652
  0
LINE
  8
0
 10
-109.267
 11
-109.018
 20
84.652
 21
84.868
  0
LINE
  8
0
 10
-109.018
 11
-109.044
 20
84.868
 21
85.632
  0
LINE
  8
0
 10
-109.044
 11
-109.075
 20
85.632
 21
87.469
  0
LINE
  8
0
 10
-109.075
 11
-108.437
 20
87.469
 21
87.5
  0
LINE
  8
0
 10
-108.437
 11
-108.438
 20
87.5
 21
83.841
  0
LINE
  8
0
 10
-108.438
 11
-108.813
 20
83.841
 21
83.841
  0
LINE
  8
0
 10
-108.813
 11
-108.813
 20
83.841
 21
84.354
  0
LINE
  8
0
 10
-108.813
 11
-109.122
 20
84.354
 21
83.922
  0
LINE
  8
0
 10
-109.122
 11
-109.563
 20
83.922
 21
83.759
  0
LINE
  8
0
 10
-109.563
 11
-109.75
 20
83.759
 21
83.829
  0
LINE
  8
0
 10
-109.75
 11
-109.75
 20
83.829
 21
80.25
  0
LINE
  8
0
 10
-109.75
 11
-32.75
 20
80.25
 21
80.25
  0
LINE
  8
0
 10
-32.75
 11
-32.75
 20
80.25
 21
82.4
  0
LINE
  8
0
 10
-32.75
 11
-40.5
 20
82.4
 21
82.4
  0
LINE
  8
0
 10
-40.5
 11
-40.5
 20
82.4
 21
127.6
  0
LINE
  8
0
 10
-40.5
 11
-12.5
 20
127.6
 21
127.6
  0
LINE
  8
0
 10
-12.5
 11
-12.5
 20
127.6
 21
82.4
  0
LINE
  8
0
 10
-12.5
 11
-32.25
 20
82.4
 21
82.4
  0
LINE
  8
0
 10
-32.25
 11
-32.25
 20
82.4
 21
77.5
  0
LINE
  8
0
 10
-32.25
 11
-32.75
 20
77.5
 21
77.5
  0
LINE
  8
0
 10
-32.75
 11
-32.75
 20
77.5
 21
79.75
  0
LINE
  8
0
 10
-32.75
 11
-109.75
 20
79.75
 21
79.75
  0
LINE
  8
0
 10
-109.75
 11
-109.75
 20
79.75
 21
0.25
  0
LINE
  8
0
 10
-109.75
 11
-107.5
 20
0.25
 21
0.25
  0
LINE
  8
0
 10
-107.5
 11
-107.5
 20
0.25
 21
-0.25
  0
LINE
  8
0
 10
-107.5
 11
-112.5
 20
-0.25
 21
-0.25
  0
LINE
  8
0
 10
-112.5
 11
-112.5
 20
-0.25
 21
0.25
  0
LINE
  8
0
 10
-112.5
 11
-110.25
 20
0.25
 21
0.25
  0
LINE
  8
0
 10
-110.25
 11
-110.25
 20
0.25
 21
79.75
  0
LINE
  8
0
 10
-110.25
 11
-177.25
 20
79.75
 21
79.75
  0
LINE
  8
0
 10
-177.25
 11
-177.25
 20
79.75
 21
77.5
  0
LINE
  8
0
 10
-177.25
 11
-177.75
 20
77.5
 21
77.5
  0
LINE
  8
0
 10
-177.75
 11
-177.75
 20
77.5
 21
82.4
  0
LINE
  8
0
 10
-177.75
 11
-205.5
 20
82.4
 21
82.4
  0
LINE
  8
0
 10
-203.419
 11
-203.419
 20
93.915
 21
96.085
  0
LINE
  8
0
 10
-203.419
 11
-201.723
 20
96.085
 21
97.437
  0
LINE
  8
0
 10
-201.723
 11
-199.608
 20
97.437
 21
96.955
  0
LINE
  8
0
 10
-199.608
 11
-198.667
 20
96.955
 21
95
  0
LINE
  8
0
 10
-198.667
 11
-199.608
 20
95
 21
93.045
  0
LINE
  8
0
 10
-199.608
 11
-201.723
 20
93.045
 21
92.563
  0
LINE
  8
0
 10
-201.723
 11
-203.419
 20
92.563
 21
93.915
  0
LINE
  8
0
 10
-203.419
 11
-203.419
 20
173.815
 21
175.985
  0
LINE
  8
0
 10
-203.419
 11
-201.723
 20
175.985
 21
177.337
  0
LINE
  8
0
 10
-201.723
 11
-199.608
 20
177.337
 21
176.855
  0
LINE
  8
0
 10
-199.608
 11
-198.667
 20
176.855
 21
174.9
  0
LINE
  8
0
 10
-198.667
 11
-199.608
 20
174.9
 21
172.945
  0
LINE
  8
0
 10
-199.608
 11
-201.723
 20
172.945
 21
172.463
  0
LINE
  8
0
 10
-201.723
 11
-203.419
 20
172.463
 21
173.815
  0
LINE
  8
0
 10
-201.5
 11
-200.25
 20
-6.6
 21
-4.435
  0
LINE
  8
0
 10
-200.25
 11
-197.75
 20
-4.435
 21
-4.435
  0
LINE
  8
0
 10
-197.75
 11
-196.5
 20
-4.435
 21
-6.6
  0
LINE
  8
0
 10
-196.5
 11
-197.75
 20
-6.6
 21
-8.765
  0
LINE
  8
0
 10
-197.75
 11
-200.25
 20
-8.765
 21
-8.765
  0
LINE
  8
0
 10
-200.25
 11
-201.5
 20
-8.765
 21
-6.6
  0
LINE
  8
0
 10
-201.5
 11
-200.25
 20
216.6
 21
218.765
  0
LINE
  8
0
 10
-200.25
 11
-197.75
 20
218.765
 21
218.765
  0
LINE
  8
0
 10
-197.75
 11
-196.5
 20
218.765
 21
216.6
  0
LINE
  8
0
 10
-196.5
 11
-197.75
 20
216.6
 21
214.435
  0
LINE
  8
0
 10
-197.75
 11
-200.25
 20
214.435
 21
214.435
  0
LINE
  8
0
 10
-200.25
 11
-201.5
 20
214.435
 21
216.6
  0
LINE
  8
0
 10
-193.419
 11
-193.419
 20
93.915
 21
96.085
  0
LINE
  8
0
 10
-193.419
 11
-191.723
 20
96.085
 21
97.437
  0
LINE
  8
0
 10
-191.723
 11
-189.608
 20
97.437
 21
96.955
  0
LINE
  8
0
 10
-189.608
 11
-188.667
 20
96.955
 21
95
  0
LINE
  8
0
 10
-188.667
 11
-189.608
 20
95
 21
93.045
  0
LINE
  8
0
 10
-189.608
 11
-191.723
 20
93.045
 21
92.563
  0
LINE
  8
0
 10
-191.723
 11
-193.419
 20
92.563
 21
93.915
  0
LINE
  8
0
 10
-193.419
 11
-193.419
 20
173.815
 21
175.985
  0
LINE
  8
0
 10
-193.419
 11
-191.723
 20
175.985
 21
177.337
  0
LINE
  8
0
 10
-191.723
 11
-189.608
 20
177.337
 21
176.855
  0
LINE
  8
0
 10
-189.608
 11
-188.667
 20
176.855
 21
174.9
  0
LINE
  8
0
 10
-188.667
 11
-189.608
 20
174.9
 21
172.945
  0
LINE
  8
0
 10
-189.608
 11
-191.723
 20
172.945
 21
172.463
  0
LINE
  8
0
 10
-191.723
 11
-193.419
 20
172.463
 21
173.815
  0
LINE
  8
0
 10
-191.5
 11
-190.25
 20
-6.6
 21
-4.435
  0
LINE
  8
0
 10
-190.25
 11
-187.75
 20
-4.435
 21
-4.435
  0
LINE
  8
0
 10
-187.75
 11
-186.5
 20
-4.435
 21
-6.6
  0
LINE
  8
0
 10
-186.5
 11
-187.75
 20
-6.6
 21
-8.765
  0
LINE
  8
0
 10
-187.75
 11
-190.25
 20
-8.765
 21
-8.765
  0
LINE
  8
0
 10
-190.25
 11
-191.5
 20
-8.765
 21
-6.6
  0
LINE
  8
0
 10
-191.5
 11
-190.25
 20
216.6
 21
218.765
  0
LINE
  8
0
 10
-190.25
 11
-187.75
 20
218.765
 21
218.765
  0
LINE
  8
0
 10
-187.75
 11
-186.5
 20
218.765
 21
216.6
  0
LINE
  8
0
 10
-186.5
 11
-187.75
 20
216.6
 21
214.435
  0
LINE
  8
0
 10
-187.75
 11
-190.25
 20
214.435
 21
214.435
  0
LINE
  8
0
 10
-190.25
 11
-191.5
 20
214.435
 21
216.6
  0
LINE
  8
0
 10
-115.227
 11
-115.227
 20
84.988
 21
87.5
  0
LINE
  8
0
 10
-115.227
 11
-114.654
 20
87.5
 21
87.5
  0
LINE
  8
0
 10
-114.654
 11
-114.622
 20
87.5
 21
85.226
  0
LINE
  8
0
 10
-114.622
 11
-114.644
 20
85.226
 21
84.722
  0
LINE
  8
0
 10
-114.644
 11
-114.496
 20
84.722
 21
84.458
  0
LINE
  8
0
 10
-114.496
 11
-114.245
 20
84.458
 21
84.514
  0
LINE
  8
0
 10
-114.245
 11
-113.874
 20
84.514
 21
84.802
  0
LINE
  8
0
 10
-113.874
 11
-113.764
 20
84.802
 21
85.374
  0
LINE
  8
0
 10
-113.764
 11
-113.764
 20
85.374
 21
87.5
  0
LINE
  8
0
 10
-113.764
 11
-113.283
 20
87.5
 21
87.531
  0
LINE
  8
0
 10
-113.283
 11
-113.22
 20
87.531
 21
85.216
  0
LINE
  8
0
 10
-113.22
 11
-113.149
 20
85.216
 21
84.628
  0
LINE
  8
0
 10
-113.149
 11
-112.907
 20
84.628
 21
84.483
  0
LINE
  8
0
 10
-112.907
 11
-112.704
 20
84.483
 21
84.652
  0
LINE
  8
0
 10
-112.704
 11
-112.456
 20
84.652
 21
84.868
  0
LINE
  8
0
 10
-112.456
 11
-112.481
 20
84.868
 21
85.632
  0
LINE
  8
0
 10
-112.481
 11
-112.512
 20
85.632
 21
87.469
  0
LINE
  8
0
 10
-112.512
 11
-111.875
 20
87.469
 21
87.5
  0
LINE
  8
0
 10
-111.875
 11
-111.875
 20
87.5
 21
83.841
  0
LINE
  8
0
 10
-111.875
 11
-112.25
 20
83.841
 21
83.841
  0
LINE
  8
0
 10
-112.25
 11
-112.25
 20
83.841
 21
84.354
  0
LINE
  8
0
 10
-112.25
 11
-112.56
 20
84.354
 21
83.922
  0
LINE
  8
0
 10
-112.56
 11
-113
 20
83.922
 21
83.759
  0
LINE
  8
0
 10
-113
 11
-113.451
 20
83.759
 21
83.928
  0
LINE
  8
0
 10
-113.451
 11
-113.699
 20
83.928
 21
84.399
  0
LINE
  8
0
 10
-113.699
 11
-114.462
 20
84.399
 21
83.759
  0
LINE
  8
0
 10
-114.462
 11
-115.029
 20
83.759
 21
84.06
  0
LINE
  8
0
 10
-115.029
 11
-115.227
 20
84.06
 21
84.988
  0
LINE
  8
0
 10
-107.658
 11
-107.494
 20
103.062
 21
103.711
  0
LINE
  8
0
 10
-107.494
 11
-107.022
 20
103.711
 21
104.173
  0
LINE
  8
0
 10
-107.022
 11
-106.271
 20
104.173
 21
104.458
  0
LINE
  8
0
 10
-106.271
 11
-105.077
 20
104.458
 21
104.561
  0
LINE
  8
0
 10
-105.077
 11
-103.643
 20
104.561
 21
104.395
  0
LINE
  8
0
 10
-103.643
 11
-102.798
 20
104.395
 21
103.898
  0
LINE
  8
0
 10
-102.798
 11
-102.5
 20
103.898
 21
103.062
  0
LINE
  8
0
 10
-102.5
 11
-103.024
 20
103.062
 21
102.018
  0
LINE
  8
0
 10
-103.024
 11
-105.077
 20
102.018
 21
101.563
  0
LINE
  8
0
 10
-105.077
 11
-106.519
 20
101.563
 21
101.731
  0
LINE
  8
0
 10
-106.519
 11
-107.361
 20
101.731
 21
102.229
  0
LINE
  8
0
 10
-107.361
 11
-107.658
 20
102.229
 21
103.062
  0
LINE
  8
0
 10
-107.571
 11
-107.168
 20
96.266
 21
97.3
  0
LINE
  8
0
 10
-107.168
 11
-106.169
 20
97.3
 21
97.681
  0
LINE
  8
0
 10
-106.169
 11
-105.573
 20
97.681
 21
97.569
  0
LINE
  8
0
 10
-105.573
 11
-104.956
 20
97.569
 21
97.199
  0
LINE
  8
0
 10
-104.956
 11
-104.068
 20
97.199
 21
96.341
  0
LINE
  8
0
 10
-104.068
 11
-103.432
 20
96.341
 21
95.697
  0
LINE
  8
0
 10
-103.432
 11
-103.096
 20
95.697
 21
95.462
  0
LINE
  8
0
 10
-103.096
 11
-103.096
 20
95.462
 21
97.687
  0
LINE
  8
0
 10
-103.096
 11
-102.5
 20
97.687
 21
97.687
  0
LINE
  8
0
 10
-102.5
 11
-102.5
 20
97.687
 21
94.688
  0
LINE
  8
0
 10
-102.5
 11
-102.931
 20
94.688
 21
94.753
  0
LINE
  8
0
 10
-102.931
 11
-103.602
 20
94.753
 21
95.12
  0
LINE
  8
0
 10
-103.602
 11
-104.367
 20
95.12
 21
95.849
  0
LINE
  8
0
 10
-104.367
 11
-105.437
 20
95.849
 21
96.848
  0
LINE
  8
0
 10
-105.437
 11
-106.183
 20
96.848
 21
97.108
  0
LINE
  8
0
 10
-106.183
 11
-106.805
 20
97.108
 21
96.871
  0
LINE
  8
0
 10
-106.805
 11
-107.058
 20
96.871
 21
96.254
  0
LINE
  8
0
 10
-107.058
 11
-106.789
 20
96.254
 21
95.611
  0
LINE
  8
0
 10
-106.789
 11
-106.045
 20
95.611
 21
95.366
  0
LINE
  8
0
 10
-106.045
 11
-106.111
 20
95.366
 21
94.794
  0
LINE
  8
0
 10
-106.111
 11
-107.197
 20
94.794
 21
95.236
  0
LINE
  8
0
 10
-107.197
 11
-107.571
 20
95.236
 21
96.266
  0
LINE
  8
0
 10
-107.571
 11
-107.571
 20
100.115
 21
100.514
  0
LINE
  8
0
 10
-107.571
 11
-102.5
 20
100.514
 21
100.514
  0
LINE
  8
0
 10
-102.5
 11
-102.5
 20
100.514
 21
99.894
  0
LINE
  8
0
 10
-102.5
 11
-106.452
 20
99.894
 21
99.894
  0
LINE
  8
0
 10
-106.452
 11
-106.024
 20
99.894
 21
99.307
  0
LINE
  8
0
 10
-106.024
 11
-105.704
 20
99.307
 21
98.654
  0
LINE
  8
0
 10
-105.704
 11
-106.304
 20
98.654
 21
98.654
  0
LINE
  8
0
 10
-106.304
 11
-106.896
 20
98.654
 21
99.564
  0
LINE
  8
0
 10
-106.896
 11
-107.571
 20
99.564
 21
100.115
  0
LINE
  8
0
 10
-107.144
 11
-106.734
 20
103.056
 21
103.716
  0
LINE
  8
0
 10
-106.734
 11
-105.077
 20
103.716
 21
103.981
  0
LINE
  8
0
 10
-105.077
 11
-103.424
 20
103.981
 21
103.716
  0
LINE
  8
0
 10
-103.424
 11
-103.01
 20
103.716
 21
103.062
  0
LINE
  8
0
 10
-103.01
 11
-103.422
 20
103.062
 21
102.408
  0
LINE
  8
0
 10
-103.422
 11
-105.077
 20
102.408
 21
102.143
  0
LINE
  8
0
 10
-105.077
 11
-106.783
 20
102.143
 21
102.434
  0
LINE
  8
0
 10
-106.783
 11
-107.144
 20
102.434
 21
103.056
  0
LINE
  8
0
 10
-106.241
 11
-106.072
 20
109.562
 21
110.013
  0
LINE
  8
0
 10
-106.072
 11
-105.601
 20
110.013
 21
110.261
  0
LINE
  8
0
 10
-105.601
 11
-106.241
 20
110.261
 21
111.025
  0
LINE
  8
0
 10
-106.241
 11
-105.94
 20
111.025
 21
111.591
  0
LINE
  8
0
 10
-105.94
 11
-105.012
 20
111.591
 21
111.789
  0
LINE
  8
0
 10
-105.012
 11
-102.5
 20
111.789
 21
111.789
  0
LINE
  8
0
 10
-102.5
 11
-102.5
 20
111.789
 21
111.216
  0
LINE
  8
0
 10
-102.5
 11
-104.774
 20
111.216
 21
111.185
  0
LINE
  8
0
 10
-104.774
 11
-105.278
 20
111.185
 21
111.207
  0
LINE
  8
0
 10
-105.278
 11
-105.542
 20
111.207
 21
111.059
  0
LINE
  8
0
 10
-105.542
 11
-105.486
 20
111.059
 21
110.807
  0
LINE
  8
0
 10
-105.486
 11
-105.198
 20
110.807
 21
110.436
  0
LINE
  8
0
 10
-105.198
 11
-104.626
 20
110.436
 21
110.326
  0
LINE
  8
0
 10
-104.626
 11
-102.5
 20
110.326
 21
110.326
  0
LINE
  8
0
 10
-102.5
 11
-102.469
 20
110.326
 21
109.845
  0
LINE
  8
0
 10
-102.469
 11
-104.784
 20
109.845
 21
109.783
  0
LINE
  8
0
 10
-104.784
 11
-105.372
 20
109.783
 21
109.711
  0
LINE
  8
0
 10
-105.372
 11
-105.517
 20
109.711
 21
109.469
  0
LINE
  8
0
 10
-105.517
 11
-105.348
 20
109.469
 21
109.267
  0
LINE
  8
0
 10
-105.348
 11
-105.132
 20
109.267
 21
109.018
  0
LINE
  8
0
 10
-105.132
 11
-104.367
 20
109.018
 21
109.044
  0
LINE
  8
0
 10
-104.367
 11
-102.531
 20
109.044
 21
109.075
  0
LINE
  8
0
 10
-102.531
 11
-102.5
 20
109.075
 21
108.438
  0
LINE
  8
0
 10
-102.5
 11
-106.159
 20
108.438
 21
108.438
  0
LINE
  8
0
 10
-106.159
 11
-106.159
 20
108.438
 21
108.812
  0
LINE
  8
0
 10
-106.159
 11
-105.646
 20
108.812
 21
108.812
  0
LINE
  8
0
 10
-105.646
 11
-106.078
 20
108.812
 21
109.122
  0
LINE
  8
0
 10
-106.078
 11
-106.241
 20
109.122
 21
109.562
  0
LINE
  8
0
 10
-106.241
 11
-106.072
 20
113
 21
113.451
  0
LINE
  8
0
 10
-106.072
 11
-105.601
 20
113.451
 21
113.699
  0
LINE
  8
0
 10
-105.601
 11
-106.241
 20
113.699
 21
114.462
  0
LINE
  8
0
 10
-106.241
 11
-105.94
 20
114.462
 21
115.029
  0
LINE
  8
0
 10
-105.94
 11
-105.012
 20
115.029
 21
115.227
  0
LINE
  8
0
 10
-105.012
 11
-102.5
 20
115.227
 21
115.227
  0
LINE
  8
0
 10
-102.5
 11
-102.5
 20
115.227
 21
114.654
  0
LINE
  8
0
 10
-102.5
 11
-104.774
 20
114.654
 21
114.622
  0
LINE
  8
0
 10
-104.774
 11
-105.278
 20
114.622
 21
114.644
  0
LINE
  8
0
 10
-105.278
 11
-105.542
 20
114.644
 21
114.496
  0
LINE
  8
0
 10
-105.542
 11
-105.486
 20
114.496
 21
114.245
  0
LINE
  8
0
 10
-105.486
 11
-105.198
 20
114.245
 21
113.874
  0
LINE
  8
0
 10
-105.198
 11
-104.626
 20
113.874
 21
113.764
  0
LINE
  8
0
 10
-104.626
 11
-102.5
 20
113.764
 21
113.764
  0
LINE
  8
0
 10
-102.5
 11
-102.469
 20
113.764
 21
113.283
  0
LINE
  8
0
 10
-102.469
 11
-104.784
 20
113.283
 21
113.22
  0
LINE
  8
0
 10
-104.784
 11
-105.372
 20
113.22
 21
113.149
  0
LINE
  8
0
 10
-105.372
 11
-105.517
 20
113.149
 21
112.907
  0
LINE
  8
0
 10
-105.517
 11
-105.348
 20
112.907
 21
112.704
  0
LINE
  8
0
 10
-105.348
 11
-105.132
 20
112.704
 21
112.456
  0
LINE
  8
0
 10
-105.132
 11
-104.367
 20
112.456
 21
112.481
  0
LINE
  8
0
 10
-104.367
 11
-102.531
 20
112.481
 21
112.512
  0
LINE
  8
0
 10
-102.531
 11
-102.5
 20
112.512
 21
111.875
  0
LINE
  8
0
 10
-102.5
 11
-106.159
 20
111.875
 21
111.875
  0
LINE
  8
0
 10
-106.159
 11
-106.159
 20
111.875
 21
112.25
  0
LINE
  8
0
 10
-106.159
 11
-105.646
 20
112.25
 21
112.25
  0
LINE
  8
0
 10
-105.646
 11
-106.078
 20
112.25
 21
112.56
  0
LINE
  8
0
 10
-106.078
 11
-106.241
 20
112.56
 21
113
  0
LINE
  8
0
 10
-104.561
 11
-104.203
 20
85.701
 21
86.887
  0
LINE
  8
0
 10
-104.203
 11
-103.016
 20
86.887
 21
87.5
  0
LINE
  8
0
 10
-103.016
 11
-102.009
 20
87.5
 21
87.114
  0
LINE
  8
0
 10
-102.009
 11
-101.562
 20
87.114
 21
86.091
  0
LINE
  8
0
 10
-101.562
 11
-102.146
 20
86.091
 21
86.036
  0
LINE
  8
0
 10
-102.146
 11
-102.446
 20
86.036
 21
86.751
  0
LINE
  8
0
 10
-102.446
 11
-103.016
 20
86.751
 21
86.99
  0
LINE
  8
0
 10
-103.016
 11
-103.694
 20
86.99
 21
86.652
  0
LINE
  8
0
 10
-103.694
 11
-103.972
 20
86.652
 21
85.757
  0
LINE
  8
0
 10
-103.972
 11
-103.705
 20
85.757
 21
84.919
  0
LINE
  8
0
 10
-103.705
 11
-103.006
 20
84.919
 21
84.613
  0
LINE
  8
0
 10
-103.006
 11
-102.522
 20
84.613
 21
84.749
  0
LINE
  8
0
 10
-102.522
 11
-102.182
 20
84.749
 21
85.102
  0
LINE
  8
0
 10
-102.182
 11
-101.661
 20
85.102
 21
85.026
  0
LINE
  8
0
 10
-101.661
 11
-102.099
 20
85.026
 21
82.432
  0
LINE
  8
0
 10
-102.099
 11
-104.348
 20
82.432
 21
82.432
  0
LINE
  8
0
 10
-104.348
 11
-104.348
 20
82.432
 21
83.024
  0
LINE
  8
0
 10
-104.348
 11
-102.544
 20
83.024
 21
83.024
  0
LINE
  8
0
 10
-102.544
 11
-102.3
 20
83.024
 21
84.382
  0
LINE
  8
0
 10
-102.3
 11
-103.154
 20
84.382
 21
84.065
  0
LINE
  8
0
 10
-103.154
 11
-104.154
 20
84.065
 21
84.523
  0
LINE
  8
0
 10
-104.154
 11
-104.561
 20
84.523
 21
85.701
  0
LINE
  8
0
 10
-101.124
 11
-101.124
 20
85.722
 21
86.291
  0
LINE
  8
0
 10
-101.124
 11
-100.538
 20
86.291
 21
86.291
  0
LINE
  8
0
 10
-100.538
 11
-100.538
 20
86.291
 21
87.5
  0
LINE
  8
0
 10
-100.538
 11
-100.006
 20
87.5
 21
87.5
  0
LINE
  8
0
 10
-100.006
 11
-100.006
 20
87.5
 21
86.291
  0
LINE
  8
0
 10
-100.006
 11
-98.125
 20
86.291
 21
86.291
  0
LINE
  8
0
 10
-98.125
 11
-98.125
 20
86.291
 21
85.722
  0
LINE
  8
0
 10
-98.125
 11
-100.104
 20
85.722
 21
82.449
  0
LINE
  8
0
 10
-100.104
 11
-100.538
 20
82.449
 21
82.449
  0
LINE
  8
0
 10
-100.538
 11
-100.538
 20
82.449
 21
85.722
  0
LINE
  8
0
 10
-100.538
 11
-101.124
 20
85.722
 21
85.722
  0
LINE
  8
0
 10
-100.006
 11
-100.006
 20
83.445
 21
85.722
  0
LINE
  8
0
 10
-100.006
 11
-98.649
 20
85.722
 21
85.722
  0
LINE
  8
0
 10
-98.649
 11
-100.006
 20
85.722
 21
83.445
  0
LINE
  8
0
 10
-97.077
 11
-97.077
 20
82.429
 21
87.5
  0
LINE
  8
0
 10
-97.077
 11
-96.457
 20
87.5
 21
87.5
  0
LINE
  8
0
 10
-96.457
 11
-96.457
 20
87.5
 21
83.548
  0
LINE
  8
0
 10
-96.457
 11
-95.869
 20
83.548
 21
83.976
  0
LINE
  8
0
 10
-95.869
 11
-95.217
 20
83.976
 21
84.296
  0
LINE
  8
0
 10
-95.217
 11
-95.217
 20
84.296
 21
83.696
  0
LINE
  8
0
 10
-95.217
 11
-96.126
 20
83.696
 21
83.104
  0
LINE
  8
0
 10
-96.126
 11
-96.678
 20
83.104
 21
82.429
  0
LINE
  8
0
 10
-96.678
 11
-97.077
 20
82.429
 21
82.429
  0
LINE
  8
0
 10
-85
 11
-85
 20
-23
 21
15
  0
LINE
  8
0
 10
-85
 11
-80
 20
15
 21
15
  0
LINE
  8
0
 10
-80
 11
-80
 20
15
 21
-9
  0
LINE
  8
0
 10
-80
 11
-5
 20
-9
 21
-9
  0
LINE
  8
0
 10
-5
 11
-5
 20
-9
 21
15
  0
LINE
  8
0
 10
-5
 11
5
 20
15
 21
15
  0
LINE
  8
0
 10
5
 11
5
 20
15
 21
-23
  0
LINE
  8
0
 10
5
 11
-85
 20
-23
 21
-23
  0
LINE
  8
0
 10
-85
 11
-85
 20
195
 21
233
  0
LINE
  8
0
 10
-85
 11
5
 20
233
 21
233
  0
LINE
  8
0
 10
5
 11
5
 20
233
 21
195
  0
LINE
  8
0
 10
5
 11
-5
 20
195
 21
195
  0
LINE
  8
0
 10
-5
 11
-5
 20
195
 21
219
  0
LINE
  8
0
 10
-5
 11
-80
 20
219
 21
219
  0
LINE
  8
0
 10
-80
 11
-80
 20
219
 21
195
  0
LINE
  8
0
 10
-80
 11
-85
 20
195
 21
195
  0
LINE
  8
0
 10
-75.5
 11
-74.25
 20
-18
 21
-15.835
  0
LINE
  8
0
 10
-74.25
 11
-71.75
 20
-15.835
 21
-15.835
  0
LINE
  8
0
 10
-71.75
 11
-70.5
 20
-15.835
 21
-18
  0
LINE
  8
0
 10
-70.5
 11
-71.75
 20
-18
 21
-20.165
  0
LINE
  8
0
 10
-71.75
 11
-74.25
 20
-20.165
 21
-20.165
  0
LINE
  8
0
 10
-74.25
 11
-75.5
 20
-20.165
 21
-18
  0
LINE
  8
0
 10
-75.5
 11
-74.25
 20
228
 21
230.165
  0
LINE
  8
0
 10
-74.25
 11
-71.75
 20
230.165
 21
230.165
  0
LINE
  8
0
 10
-71.75
 11
-70.5
 20
230.165
 21
228
  0
LINE
  8
0
 10
-70.5
 11
-71.75
 20
228
 21
225.835
  0
LINE
  8
0
 10
-71.75
 11
-74.25
 20
225.835
 21
225.835
  0
LINE
  8
0
 10
-74.25
 11
-75.5
 20
225.835
 21
228
  0
LINE
  8
0
 10
-35.9
 11
-34.65
 20
-18
 21
-15.835
  0
LINE
  8
0
 10
-34.65
 11
-32.15
 20
-15.835
 21
-15.835
  0
LINE
  8
0
 10
-32.15
 11
-30.9
 20
-15.835
 21
-18
  0
LINE
  8
0
 10
-30.9
 11
-32.15
 20
-18
 21
-20.165
  0
LINE
  8
0
 10
-32.15
 11
-34.65
 20
-20.165
 21
-20.165
  0
LINE
  8
0
 10
-34.65
 11
-35.9
 20
-20.165
 21
-18
  0
LINE
  8
0
 10
-35.9
 11
-34.65
 20
228
 21
230.165
  0
LINE
  8
0
 10
-34.65
 11
-32.15
 20
230.165
 21
230.165
  0
LINE
  8
0
 10
-32.15
 11
-30.9
 20
230.165
 21
228
  0
LINE
  8
0
 10
-30.9
 11
-32.15
 20
228
 21
225.835
  0
LINE
  8
0
 10
-32.15
 11
-34.65
 20
225.835
 21
225.835
  0
LINE
  8
0
 10
-34.65
 11
-35.9
 20
225.835
 21
228
  0
LINE
  8
0
 10
-29.333
 11
-28.392
 20
95
 21
96.955
  0
LINE
  8
0
 10
-28.392
 11
-26.277
 20
96.955
 21
97.437
  0
LINE
  8
0
 10
-26.277
 11
-24.581
 20
97.437
 21
96.085
  0
LINE
  8
0
 10
-24.581
 11
-24.581
 20
96.085
 21
93.915
  0
LINE
  8
0
 10
-24.581
 11
-26.277
 20
93.915
 21
92.563
  0
LINE
  8
0
 10
-26.277
 11
-28.392
 20
92.563
 21
93.045
  0
LINE
  8
0
 10
-28.392
 11
-29.333
 20
93.045
 21
95
  0
LINE
  8
0
 10
-29.333
 11
-28.392
 20
115
 21
116.955
  0
LINE
  8
0
 10
-28.392
 11
-26.277
 20
116.955
 21
117.437
  0
LINE
  8
0
 10
-26.277
 11
-24.581
 20
117.437
 21
116.085
  0
LINE
  8
0
 10
-24.581
 11
-24.581
 20
116.085
 21
113.915
  0
LINE
  8
0
 10
-24.581
 11
-26.277
 20
113.915
 21
112.563
  0
LINE
  8
0
 10
-26.277
 11
-28.392
 20
112.563
 21
113.045
  0
LINE
  8
0
 10
-28.392
 11
-29.333
 20
113.045
 21
115
  0
LINE
  8
0
 10
-19.333
 11
-18.392
 20
95
 21
96.955
  0
LINE
  8
0
 10
-18.392
 11
-16.277
 20
96.955
 21
97.437
  0
LINE
  8
0
 10
-16.277
 11
-14.581
 20
97.437
 21
96.085
  0
LINE
  8
0
 10
-14.581
 11
-14.581
 20
96.085
 21
93.915
  0
LINE
  8
0
 10
-14.581
 11
-16.277
 20
93.915
 21
92.563
  0
LINE
  8
0
 10
-16.277
 11
-18.392
 20
92.563
 21
93.045
  0
LINE
  8
0
 10
-18.392
 11
-19.333
 20
93.045
 21
95
  0
LINE
  8
0
 10
-19.333
 11
-18.392
 20
115
 21
116.955
  0
LINE
  8
0
 10
-18.392
 11
-16.277
 20
116.955
 21
117.437
  0
LINE
  8
0
 10
-16.277
 11
-14.581
 20
117.437
 21
116.085
  0
LINE
  8
0
 10
-14.581
 11
-14.581
 20
116.085
 21
113.915
  0
LINE
  8
0
 10
-14.581
 11
-16.277
 20
113.915
 21
112.563
  0
LINE
  8
0
 10
-16.277
 11
-18.392
 20
112.563
 21
113.045
  0
LINE
  8
0
 10
-18.392
 11
-19.333
 20
113.045
 21
115
  0
LINE
  8
0
 10
-16.1
 11
-14.85
 20
-18
 21
-15.835
  0
LINE
  8
0
 10
-14.85
 11
-12.35
 20
-15.835
 21
-15.835
  0
LINE
  8
0
 10
-12.35
 11
-11.1
 20
-15.835
 21
-18
  0
LINE
  8
0
 10
-11.1
 11
-12.35
 20
-18
 21
-20.165
  0
LINE
  8
0
 10
-12.35
 11
-14.85
 20
-20.165
 21
-20.165
  0
LINE
  8
0
 10
-14.85
 11
-16.1
 20
-20.165
 21
-18
  0
LINE
  8
0
 10
-16.1
 11
-14.85
 20
228
 21
230.165
  0
LINE
  8
0
 10
-14.85
 11
-12.35
 20
230.165
 21
230.165
  0
LINE
  8
0
 10
-12.35
 11
-11.1
 20
230.165
 21
228
  0
LINE
  8
0
 10
-11.1
 11
-12.35
 20
228
 21
225.835
  0
LINE
  8
0
 10
-12.35
 11
-14.85
 20
225.835
 21
225.835
  0
LINE
  8
0
 10
-14.85
 11
-16.1
 20
225.835
 21
228
  0
ENDSEC
  0
SECTION
  2
OBJECTS
  0
DICTIONARY
  0
ENDSEC
  0
EOF
