  0
SECTION
  2
HEADER
  9
$ACADVER
  1
AC1014
  9
$HANDSEED
  5
FFFF
  9
$MEASUREMENT
 70
     1
  0
ENDSEC
  0
SECTION
  2
TABLES
  0
TABLE
  2
VPORT
  5
8
330
0
100
AcDbSymbolTable
 70
     4
  0
VPORT
  5
2E
330
8
100
AcDbSymbolTableRecord
100
AcDbViewportTableRecord
  2
*ACTIVE
 70
     0
 10
0.0
 20
0.0
 11
1.0
 21
1.0
 12
210.0
 22
148.5
 13
0.0
 23
0.0
 14
10.0
 24
10.0
 15
10.0
 25
10.0
 16
0.0
 26
0.0
 36
1.0
 17
0.0
 27
0.0
 37
0.0
 40
341.0
 41
1.24
 42
50.0
 43
0.0
 44
0.0
 50
0.0
 51
0.0
 71
     0
 72
   100
 73
     1
 74
     3
 75
     0
 76
     0
 77
     0
 78
     0
  0
ENDTAB
  0
TABLE
  2
LTYPE
  5
5
330
0
100
AcDbSymbolTable
 70
     1
  0
LTYPE
  5
14
330
5
100
AcDbSymbolTableRecord
100
AcDbLinetypeTableRecord
  2
BYBLOCK
 70
     0
  3

 72
    65
 73
     0
 40
0.0
  0
LTYPE
  5
15
330
5
100
AcDbSymbolTableRecord
100
AcDbLinetypeTableRecord
  2
BYLAYER
 70
     0
  3

 72
    65
 73
     0
 40
0.0
  0
LTYPE
  5
16
330
5
100
AcDbSymbolTableRecord
100
AcDbLinetypeTableRecord
  2
CONTINUOUS
 70
     0
  3
Solid line
 72
    65
 73
     0
 40
0.0
  0
ENDTAB
  0
TABLE
  2
LAYER
  5
2
100
AcDbSymbolTable
 70
1
  0
LAYER
  5
50
100
AcDbSymbolTableRecord
100
AcDbLayerTableRecord
  2
0
 70
0
  6
CONTINUOUS
  0
ENDTAB
  0
TABLE
  2
STYLE
  5
3
330
0
100
AcDbSymbolTable
 70
     1
  0
STYLE
  5
11
330
3
100
AcDbSymbolTableRecord
100
AcDbTextStyleTableRecord
  2
STANDARD
 70
     0
 40
0.0
 41
1.0
 50
0.0
 71
     0
 42
2.5
  3
txt
  4

  0
ENDTAB
  0
TABLE
  2
VIEW
  5
6
330
0
100
AcDbSymbolTable
 70
     0
  0
ENDTAB
  0
TABLE
  2
UCS
  5
7
330
0
100
AcDbSymbolTable
 70
     0
  0
ENDTAB
  0
TABLE
  2
APPID
  5
9
330
0
100
AcDbSymbolTable
 70
     2
  0
APPID
  5
12
330
9
100
AcDbSymbolTableRecord
100
AcDbRegAppTableRecord
  2
ACAD
 70
     0
  0
ENDTAB
  0
TABLE
  2
DIMSTYLE
  5
A
330
0
100
AcDbSymbolTable
 70
     1
  0
DIMSTYLE
105
27
330
A
100
AcDbSymbolTableRecord
100
AcDbDimStyleTableRecord
  2
ISO-25
 70
     0
  3

  4

  5

  6

  7

 40
1.0
 41
2.5
 42
0.625
 43
3.75
 44
1.25
 45
0.0
 46
0.0
 47
0.0
 48
0.0
140
2.5
141
2.5
142
0.0
143
0.03937007874016
144
1.0
145
0.0
146
1.0
147
0.625
 71
     0
 72
     0
 73
     0
 74
     0
 75
     0
 76
     0
 77
     1
 78
     8
170
     0
171
     3
172
     1
173
     0
174
     0
175
     0
176
     0
177
     0
178
     0
270
     2
271
     2
272
     2
273
     2
274
     3
340
11
275
     0
280
     0
281
     0
282
     0
283
     0
284
     8
285
     0
286
     0
287
     3
288
     0
  0
ENDTAB
  0
TABLE
  2
BLOCK_RECORD
  5
1
330
0
100
AcDbSymbolTable
 70
     1
  0
BLOCK_RECORD
  5
1F
330
1
100
AcDbSymbolTableRecord
100
AcDbBlockTableRecord
  2
*MODEL_SPACE
  0
BLOCK_RECORD
  5
1B
330
1
100
AcDbSymbolTableRecord
100
AcDbBlockTableRecord
  2
*PAPER_SPACE
  0
ENDTAB
  0
ENDSEC
  0
SECTION
  2
BLOCKS
  0
BLOCK
  5
20
330
1F
100
AcDbEntity
  8
0
100
AcDbBlockBegin
  2
*MODEL_SPACE
 70
     0
 10
0.0
 20
0.0
 30
0.0
  3
*MODEL_SPACE
  1

  0
ENDBLK
  5
21
330
1F
100
AcDbEntity
  8
0
100
AcDbBlockEnd
  0
BLOCK
  5
1C
330
1B
100
AcDbEntity
 67
     1
  8
0
100
AcDbBlockBegin
  2
*PAPER_SPACE
  1

  0
ENDBLK
  5
1D
330
1B
100
AcDbEntity
 67
     1
  8
0
100
AcDbBlockEnd
  0
ENDSEC
  0
SECTION
  2
ENTITIES
  0
LWPOLYLINE
  5
100
100
AcDbEntity
  8
0
 62
7
100
AcDbPolyline
 90
25
 70
0
 10
209.653999
 20
101.962056
 30
0.0
 10
209.331997
 20
102.095056
 30
0.0
 10
209.055998
 20
102.307055
 30
0.0
 10
208.842999
 20
102.584057
 30
0.0
 10
208.709999
 20
102.906055
 30
0.0
 10
208.664000
 20
103.252057
 30
0.0
 10
208.709999
 20
103.598056
 30
0.0
 10
208.842999
 20
103.920057
 30
0.0
 10
209.055998
 20
104.196056
 30
0.0
 10
209.331997
 20
104.409058
 30
0.0
 10
209.653999
 20
104.542058
 30
0.0
 10
209.999998
 20
104.588057
 30
0.0
 10
210.345999
 20
104.542058
 30
0.0
 10
210.667998
 20
104.409058
 30
0.0
 10
210.944000
 20
104.196056
 30
0.0
 10
211.156999
 20
103.920057
 30
0.0
 10
211.289999
 20
103.598056
 30
0.0
 10
211.335998
 20
103.252057
 30
0.0
 10
211.289999
 20
102.906055
 30
0.0
 10
211.156999
 20
102.584057
 30
0.0
 10
210.944000
 20
102.307055
 30
0.0
 10
210.667998
 20
102.095056
 30
0.0
 10
210.345999
 20
101.962056
 30
0.0
 10
209.999998
 20
101.916056
 30
0.0
 10
209.653999
 20
101.962056
 30
0.0
  0
LWPOLYLINE
  5
101
100
AcDbEntity
  8
0
 62
7
100
AcDbPolyline
 90
25
 70
0
 10
209.653999
 20
70.192856
 30
0.0
 10
209.331997
 20
70.326257
 30
0.0
 10
209.055998
 20
70.538457
 30
0.0
 10
208.842999
 20
70.815156
 30
0.0
 10
208.709999
 20
71.137256
 30
0.0
 10
208.664000
 20
71.482956
 30
0.0
 10
208.709999
 20
71.828656
 30
0.0
 10
208.842999
 20
72.150858
 30
0.0
 10
209.055998
 20
72.427458
 30
0.0
 10
209.331997
 20
72.639757
 30
0.0
 10
209.653999
 20
72.773158
 30
0.0
 10
209.999998
 20
72.818657
 30
0.0
 10
210.345999
 20
72.773158
 30
0.0
 10
210.667998
 20
72.639757
 30
0.0
 10
210.944000
 20
72.427458
 30
0.0
 10
211.156999
 20
72.150858
 30
0.0
 10
211.289999
 20
71.828656
 30
0.0
 10
211.335998
 20
71.482956
 30
0.0
 10
211.289999
 20
71.137256
 30
0.0
 10
211.156999
 20
70.815156
 30
0.0
 10
210.944000
 20
70.538457
 30
0.0
 10
210.667998
 20
70.326257
 30
0.0
 10
210.345999
 20
70.192856
 30
0.0
 10
209.999998
 20
70.147356
 30
0.0
 10
209.653999
 20
70.192856
 30
0.0
  0
LWPOLYLINE
  5
102
100
AcDbEntity
  8
0
 62
7
100
AcDbPolyline
 90
25
 70
0
 10
209.653999
 20
20.423856
 30
0.0
 10
209.331997
 20
20.557356
 30
0.0
 10
209.055998
 20
20.769556
 30
0.0
 10
208.842999
 20
21.046258
 30
0.0
 10
208.709999
 20
21.368358
 30
0.0
 10
208.664000
 20
21.714058
 30
0.0
 10
208.709999
 20
22.059757
 30
0.0
 10
208.842999
 20
22.381858
 30
0.0
 10
209.055998
 20
22.658557
 30
0.0
 10
209.331997
 20
22.870757
 30
0.0
 10
209.653999
 20
23.004256
 30
0.0
 10
209.999998
 20
23.049756
 30
0.0
 10
210.345999
 20
23.004256
 30
0.0
 10
210.667998
 20
22.870757
 30
0.0
 10
210.944000
 20
22.658557
 30
0.0
 10
211.156999
 20
22.381858
 30
0.0
 10
211.289999
 20
22.059757
 30
0.0
 10
211.335998
 20
21.714058
 30
0.0
 10
211.289999
 20
21.368358
 30
0.0
 10
211.156999
 20
21.046258
 30
0.0
 10
210.944000
 20
20.769556
 30
0.0
 10
210.667998
 20
20.557356
 30
0.0
 10
210.345999
 20
20.423856
 30
0.0
 10
209.999998
 20
20.378356
 30
0.0
 10
209.653999
 20
20.423856
 30
0.0
  0
LWPOLYLINE
  5
103
100
AcDbEntity
  8
0
 62
7
100
AcDbPolyline
 90
25
 70
0
 10
-0.346002
 20
101.962056
 30
0.0
 10
-0.668000
 20
102.095056
 30
0.0
 10
-0.944002
 20
102.307055
 30
0.0
 10
-1.157001
 20
102.584057
 30
0.0
 10
-1.290001
 20
102.906055
 30
0.0
 10
-1.336000
 20
103.252057
 30
0.0
 10
-1.290001
 20
103.598056
 30
0.0
 10
-1.157001
 20
103.920057
 30
0.0
 10
-0.944002
 20
104.196056
 30
0.0
 10
-0.668000
 20
104.409058
 30
0.0
 10
-0.346002
 20
104.542058
 30
0.0
 10
0.000000
 20
104.588057
 30
0.0
 10
0.345999
 20
104.542058
 30
0.0
 10
0.668000
 20
104.409058
 30
0.0
 10
0.943999
 20
104.196056
 30
0.0
 10
1.156998
 20
103.920057
 30
0.0
 10
1.289998
 20
103.598056
 30
0.0
 10
1.335998
 20
103.252057
 30
0.0
 10
1.289998
 20
102.906055
 30
0.0
 10
1.156998
 20
102.584057
 30
0.0
 10
0.943999
 20
102.307055
 30
0.0
 10
0.668000
 20
102.095056
 30
0.0
 10
0.345999
 20
101.962056
 30
0.0
 10
0.000000
 20
101.916056
 30
0.0
 10
-0.346002
 20
101.962056
 30
0.0
  0
LWPOLYLINE
  5
104
100
AcDbEntity
  8
0
 62
7
100
AcDbPolyline
 90
25
 70
0
 10
-0.346002
 20
70.192856
 30
0.0
 10
-0.668000
 20
70.326257
 30
0.0
 10
-0.944002
 20
70.538457
 30
0.0
 10
-1.157001
 20
70.815156
 30
0.0
 10
-1.290001
 20
71.137256
 30
0.0
 10
-1.336000
 20
71.482956
 30
0.0
 10
-1.290001
 20
71.828656
 30
0.0
 10
-1.157001
 20
72.150858
 30
0.0
 10
-0.944002
 20
72.427458
 30
0.0
 10
-0.668000
 20
72.639757
 30
0.0
 10
-0.346002
 20
72.773158
 30
0.0
 10
0.000000
 20
72.818657
 30
0.0
 10
0.345999
 20
72.773158
 30
0.0
 10
0.668000
 20
72.639757
 30
0.0
 10
0.943999
 20
72.427458
 30
0.0
 10
1.156998
 20
72.150858
 30
0.0
 10
1.289998
 20
71.828656
 30
0.0
 10
1.335998
 20
71.482956
 30
0.0
 10
1.289998
 20
71.137256
 30
0.0
 10
1.156998
 20
70.815156
 30
0.0
 10
0.943999
 20
70.538457
 30
0.0
 10
0.668000
 20
70.326257
 30
0.0
 10
0.345999
 20
70.192856
 30
0.0
 10
0.000000
 20
70.147356
 30
0.0
 10
-0.346002
 20
70.192856
 30
0.0
  0
LWPOLYLINE
  5
105
100
AcDbEntity
  8
0
 62
7
100
AcDbPolyline
 90
25
 70
0
 10
-0.346002
 20
20.423856
 30
0.0
 10
-0.668000
 20
20.557356
 30
0.0
 10
-0.944002
 20
20.769556
 30
0.0
 10
-1.157001
 20
21.046258
 30
0.0
 10
-1.290001
 20
21.368358
 30
0.0
 10
-1.336000
 20
21.714058
 30
0.0
 10
-1.290001
 20
22.059757
 30
0.0
 10
-1.157001
 20
22.381858
 30
0.0
 10
-0.944002
 20
22.658557
 30
0.0
 10
-0.668000
 20
22.870757
 30
0.0
 10
-0.346002
 20
23.004256
 30
0.0
 10
0.000000
 20
23.049756
 30
0.0
 10
0.345999
 20
23.004256
 30
0.0
 10
0.668000
 20
22.870757
 30
0.0
 10
0.943999
 20
22.658557
 30
0.0
 10
1.156998
 20
22.381858
 30
0.0
 10
1.289998
 20
22.059757
 30
0.0
 10
1.335998
 20
21.714058
 30
0.0
 10
1.289998
 20
21.368358
 30
0.0
 10
1.156998
 20
21.046258
 30
0.0
 10
0.943999
 20
20.769556
 30
0.0
 10
0.668000
 20
20.557356
 30
0.0
 10
0.345999
 20
20.423856
 30
0.0
 10
0.000000
 20
20.378356
 30
0.0
 10
-0.346002
 20
20.423856
 30
0.0
  0
LWPOLYLINE
  5
106
100
AcDbEntity
  8
0
 62
7
100
AcDbPolyline
 90
25
 70
0
 10
104.654296
 20
79.823856
 30
0.0
 10
104.332137
 20
79.957356
 30
0.0
 10
104.055573
 20
80.169556
 30
0.0
 10
103.843280
 20
80.446258
 30
0.0
 10
103.709840
 20
80.768358
 30
0.0
 10
103.664320
 20
81.114057
 30
0.0
 10
103.709840
 20
81.459757
 30
0.0
 10
103.843280
 20
81.781857
 30
0.0
 10
104.055573
 20
82.058556
 30
0.0
 10
104.332137
 20
82.270757
 30
0.0
 10
104.654296
 20
82.404256
 30
0.0
 10
104.999999
 20
82.449756
 30
0.0
 10
105.345715
 20
82.404256
 30
0.0
 10
105.667861
 20
82.270757
 30
0.0
 10
105.944424
 20
82.058556
 30
0.0
 10
106.156718
 20
81.781857
 30
0.0
 10
106.290158
 20
81.459757
 30
0.0
 10
106.335678
 20
81.114057
 30
0.0
 10
106.290158
 20
80.768358
 30
0.0
 10
106.156718
 20
80.446258
 30
0.0
 10
105.944424
 20
80.169556
 30
0.0
 10
105.667861
 20
79.957356
 30
0.0
 10
105.345715
 20
79.823856
 30
0.0
 10
104.999999
 20
79.778356
 30
0.0
 10
104.654296
 20
79.823856
 30
0.0
  0
LWPOLYLINE
  5
107
100
AcDbEntity
  8
0
 62
7
100
AcDbPolyline
 90
25
 70
0
 10
82.154299
 20
63.323855
 30
0.0
 10
81.832100
 20
63.457358
 30
0.0
 10
81.555598
 20
63.669558
 30
0.0
 10
81.343300
 20
63.946257
 30
0.0
 10
81.209800
 20
64.268357
 30
0.0
 10
81.164297
 20
64.614057
 30
0.0
 10
81.209800
 20
64.959756
 30
0.0
 10
81.343300
 20
65.281856
 30
0.0
 10
81.555598
 20
65.558556
 30
0.0
 10
81.832100
 20
65.770756
 30
0.0
 10
82.154299
 20
65.904258
 30
0.0
 10
82.499999
 20
65.949758
 30
0.0
 10
82.845698
 20
65.904258
 30
0.0
 10
83.167897
 20
65.770756
 30
0.0
 10
83.444399
 20
65.558556
 30
0.0
 10
83.656698
 20
65.281856
 30
0.0
 10
83.790197
 20
64.959756
 30
0.0
 10
83.835700
 20
64.614057
 30
0.0
 10
83.790197
 20
64.268357
 30
0.0
 10
83.656698
 20
63.946257
 30
0.0
 10
83.444399
 20
63.669558
 30
0.0
 10
83.167897
 20
63.457358
 30
0.0
 10
82.845698
 20
63.323855
 30
0.0
 10
82.499999
 20
63.278358
 30
0.0
 10
82.154299
 20
63.323855
 30
0.0
  0
LWPOLYLINE
  5
108
100
AcDbEntity
  8
0
 62
7
100
AcDbPolyline
 90
25
 70
0
 10
127.154299
 20
63.323855
 30
0.0
 10
126.832098
 20
63.457358
 30
0.0
 10
126.555599
 20
63.669558
 30
0.0
 10
126.343300
 20
63.946257
 30
0.0
 10
126.209798
 20
64.268357
 30
0.0
 10
126.164298
 20
64.614057
 30
0.0
 10
126.209798
 20
64.959756
 30
0.0
 10
126.343300
 20
65.281856
 30
0.0
 10
126.555599
 20
65.558556
 30
0.0
 10
126.832098
 20
65.770756
 30
0.0
 10
127.154299
 20
65.904258
 30
0.0
 10
127.499999
 20
65.949758
 30
0.0
 10
127.845699
 20
65.904258
 30
0.0
 10
128.167898
 20
65.770756
 30
0.0
 10
128.444399
 20
65.558556
 30
0.0
 10
128.656698
 20
65.281856
 30
0.0
 10
128.790198
 20
64.959756
 30
0.0
 10
128.835698
 20
64.614057
 30
0.0
 10
128.790198
 20
64.268357
 30
0.0
 10
128.656698
 20
63.946257
 30
0.0
 10
128.444399
 20
63.669558
 30
0.0
 10
128.167898
 20
63.457358
 30
0.0
 10
127.845699
 20
63.323855
 30
0.0
 10
127.499999
 20
63.278358
 30
0.0
 10
127.154299
 20
63.323855
 30
0.0
  0
LWPOLYLINE
  5
109
100
AcDbEntity
  8
0
 62
7
100
AcDbPolyline
 90
25
 70
0
 10
115.654300
 20
-68.976154
 30
0.0
 10
115.332098
 20
-68.842663
 30
0.0
 10
115.055599
 20
-68.630460
 30
0.0
 10
114.843258
 20
-68.353741
 30
0.0
 10
114.709818
 20
-68.031641
 30
0.0
 10
114.664309
 20
-67.685947
 30
0.0
 10
114.709818
 20
-67.340253
 30
0.0
 10
114.843258
 20
-67.018153
 30
0.0
 10
115.055599
 20
-66.741462
 30
0.0
 10
115.332098
 20
-66.529259
 30
0.0
 10
115.654300
 20
-66.395740
 30
0.0
 10
115.999999
 20
-66.350246
 30
0.0
 10
116.345699
 20
-66.395740
 30
0.0
 10
116.667898
 20
-66.529259
 30
0.0
 10
116.944400
 20
-66.741462
 30
0.0
 10
117.156698
 20
-67.018153
 30
0.0
 10
117.290198
 20
-67.340253
 30
0.0
 10
117.335698
 20
-67.685947
 30
0.0
 10
117.290198
 20
-68.031641
 30
0.0
 10
117.156698
 20
-68.353741
 30
0.0
 10
116.944400
 20
-68.630460
 30
0.0
 10
116.667898
 20
-68.842663
 30
0.0
 10
116.345699
 20
-68.976154
 30
0.0
 10
115.999999
 20
-69.021648
 30
0.0
 10
115.654300
 20
-68.976154
 30
0.0
  0
LWPOLYLINE
  5
10a
100
AcDbEntity
  8
0
 62
7
100
AcDbPolyline
 90
25
 70
0
 10
35.695100
 20
-85.476163
 30
0.0
 10
35.372898
 20
-85.342644
 30
0.0
 10
35.096298
 20
-85.130441
 30
0.0
 10
34.884100
 20
-84.853863
 30
0.0
 10
34.750598
 20
-84.531650
 30
0.0
 10
34.705098
 20
-84.185956
 30
0.0
 10
34.750598
 20
-83.840262
 30
0.0
 10
34.884100
 20
-83.518049
 30
0.0
 10
35.096298
 20
-83.241443
 30
0.0
 10
35.372898
 20
-83.029240
 30
0.0
 10
35.695100
 20
-82.895749
 30
0.0
 10
36.040799
 20
-82.850255
 30
0.0
 10
36.386499
 20
-82.895749
 30
0.0
 10
36.708698
 20
-83.029240
 30
0.0
 10
36.985298
 20
-83.241443
 30
0.0
 10
37.197498
 20
-83.518049
 30
0.0
 10
37.330998
 20
-83.840262
 30
0.0
 10
37.376498
 20
-84.185956
 30
0.0
 10
37.330998
 20
-84.531650
 30
0.0
 10
37.197498
 20
-84.853863
 30
0.0
 10
36.985298
 20
-85.130441
 30
0.0
 10
36.708698
 20
-85.342644
 30
0.0
 10
36.386499
 20
-85.476163
 30
0.0
 10
36.040799
 20
-85.521658
 30
0.0
 10
35.695100
 20
-85.476163
 30
0.0
  0
LWPOLYLINE
  5
10b
100
AcDbEntity
  8
0
 62
7
100
AcDbPolyline
 90
25
 70
0
 10
127.154299
 20
-85.476163
 30
0.0
 10
126.832098
 20
-85.342644
 30
0.0
 10
126.555599
 20
-85.130441
 30
0.0
 10
126.343300
 20
-84.853750
 30
0.0
 10
126.209798
 20
-84.531650
 30
0.0
 10
126.164298
 20
-84.185956
 30
0.0
 10
126.209798
 20
-83.840262
 30
0.0
 10
126.343300
 20
-83.518162
 30
0.0
 10
126.555599
 20
-83.241443
 30
0.0
 10
126.832098
 20
-83.029240
 30
0.0
 10
127.154299
 20
-82.895749
 30
0.0
 10
127.499999
 20
-82.850255
 30
0.0
 10
127.845699
 20
-82.895749
 30
0.0
 10
128.167898
 20
-83.029240
 30
0.0
 10
128.444399
 20
-83.241443
 30
0.0
 10
128.656698
 20
-83.518162
 30
0.0
 10
128.790198
 20
-83.840262
 30
0.0
 10
128.835698
 20
-84.185956
 30
0.0
 10
128.790198
 20
-84.531650
 30
0.0
 10
128.656698
 20
-84.853750
 30
0.0
 10
128.444399
 20
-85.130441
 30
0.0
 10
128.167898
 20
-85.342644
 30
0.0
 10
127.845699
 20
-85.476163
 30
0.0
 10
127.499999
 20
-85.521658
 30
0.0
 10
127.154299
 20
-85.476163
 30
0.0
  0
LWPOLYLINE
  5
10c
100
AcDbEntity
  8
0
 62
7
100
AcDbPolyline
 90
25
 70
0
 10
182.529299
 20
-101.576151
 30
0.0
 10
182.207199
 20
-101.442660
 30
0.0
 10
181.930500
 20
-101.230457
 30
0.0
 10
181.718300
 20
-100.953738
 30
0.0
 10
181.584800
 20
-100.631666
 30
0.0
 10
181.539298
 20
-100.285944
 30
0.0
 10
181.584800
 20
-99.940250
 30
0.0
 10
181.718300
 20
-99.618065
 30
0.0
 10
181.930500
 20
-99.341459
 30
0.0
 10
182.207199
 20
-99.129256
 30
0.0
 10
182.529299
 20
-98.995765
 30
0.0
 10
182.874999
 20
-98.950242
 30
0.0
 10
183.220699
 20
-98.995765
 30
0.0
 10
183.542799
 20
-99.129256
 30
0.0
 10
183.819498
 20
-99.341459
 30
0.0
 10
184.031698
 20
-99.618065
 30
0.0
 10
184.165198
 20
-99.940250
 30
0.0
 10
184.210700
 20
-100.285944
 30
0.0
 10
184.165198
 20
-100.631666
 30
0.0
 10
184.031698
 20
-100.953738
 30
0.0
 10
183.819498
 20
-101.230457
 30
0.0
 10
183.542799
 20
-101.442660
 30
0.0
 10
183.220699
 20
-101.576151
 30
0.0
 10
182.874999
 20
-101.621645
 30
0.0
 10
182.529299
 20
-101.576151
 30
0.0
  0
LWPOLYLINE
  5
10d
100
AcDbEntity
  8
0
 62
7
100
AcDbPolyline
 90
25
 70
0
 10
162.654299
 20
-113.075944
 30
0.0
 10
162.332199
 20
-112.942961
 30
0.0
 10
162.055500
 20
-112.729940
 30
0.0
 10
161.843299
 20
-112.453955
 30
0.0
 10
161.709800
 20
-112.131657
 30
0.0
 10
161.664300
 20
-111.785963
 30
0.0
 10
161.709800
 20
-111.440241
 30
0.0
 10
161.843299
 20
-111.118056
 30
0.0
 10
162.055500
 20
-110.841450
 30
0.0
 10
162.332199
 20
-110.629247
 30
0.0
 10
162.654299
 20
-110.495756
 30
0.0
 10
162.999999
 20
-110.450262
 30
0.0
 10
163.345698
 20
-110.495756
 30
0.0
 10
163.667798
 20
-110.629247
 30
0.0
 10
163.944498
 20
-110.841450
 30
0.0
 10
164.156698
 20
-111.118056
 30
0.0
 10
164.290200
 20
-111.440241
 30
0.0
 10
164.335700
 20
-111.785963
 30
0.0
 10
164.290200
 20
-112.131657
 30
0.0
 10
164.156698
 20
-112.453955
 30
0.0
 10
163.944498
 20
-112.729940
 30
0.0
 10
163.667798
 20
-112.942961
 30
0.0
 10
163.345698
 20
-113.075944
 30
0.0
 10
162.999999
 20
-113.121947
 30
0.0
 10
162.654299
 20
-113.075944
 30
0.0
  0
LWPOLYLINE
  5
10e
100
AcDbEntity
  8
0
 62
7
100
AcDbPolyline
 90
25
 70
0
 10
202.404300
 20
-113.075944
 30
0.0
 10
202.082200
 20
-112.942961
 30
0.0
 10
201.805498
 20
-112.729940
 30
0.0
 10
201.593298
 20
-112.453955
 30
0.0
 10
201.459798
 20
-112.131657
 30
0.0
 10
201.414298
 20
-111.785963
 30
0.0
 10
201.459798
 20
-111.440241
 30
0.0
 10
201.593298
 20
-111.118056
 30
0.0
 10
201.805498
 20
-110.841450
 30
0.0
 10
202.082200
 20
-110.629247
 30
0.0
 10
202.404300
 20
-110.495756
 30
0.0
 10
202.749999
 20
-110.450262
 30
0.0
 10
203.095699
 20
-110.495756
 30
0.0
 10
203.417799
 20
-110.629247
 30
0.0
 10
203.694498
 20
-110.841450
 30
0.0
 10
203.906699
 20
-111.118056
 30
0.0
 10
204.040198
 20
-111.440241
 30
0.0
 10
204.085698
 20
-111.785963
 30
0.0
 10
204.040198
 20
-112.131657
 30
0.0
 10
203.906699
 20
-112.453955
 30
0.0
 10
203.694498
 20
-112.729940
 30
0.0
 10
203.417799
 20
-112.942961
 30
0.0
 10
203.095699
 20
-113.075944
 30
0.0
 10
202.749999
 20
-113.121947
 30
0.0
 10
202.404300
 20
-113.075944
 30
0.0
  0
LWPOLYLINE
  5
10f
100
AcDbEntity
  8
0
 62
7
100
AcDbPolyline
 90
25
 70
0
 10
26.779299
 20
-101.576151
 30
0.0
 10
26.457199
 20
-101.442660
 30
0.0
 10
26.180500
 20
-101.230457
 30
0.0
 10
25.968300
 20
-100.953738
 30
0.0
 10
25.834800
 20
-100.631666
 30
0.0
 10
25.789297
 20
-100.285944
 30
0.0
 10
25.834800
 20
-99.940250
 30
0.0
 10
25.968300
 20
-99.618065
 30
0.0
 10
26.180500
 20
-99.341459
 30
0.0
 10
26.457199
 20
-99.129256
 30
0.0
 10
26.779299
 20
-98.995765
 30
0.0
 10
27.124999
 20
-98.950242
 30
0.0
 10
27.470698
 20
-98.995765
 30
0.0
 10
27.792799
 20
-99.129256
 30
0.0
 10
28.069498
 20
-99.341459
 30
0.0
 10
28.281698
 20
-99.618065
 30
0.0
 10
28.415197
 20
-99.940250
 30
0.0
 10
28.460700
 20
-100.285944
 30
0.0
 10
28.415197
 20
-100.631666
 30
0.0
 10
28.281698
 20
-100.953738
 30
0.0
 10
28.069498
 20
-101.230457
 30
0.0
 10
27.792799
 20
-101.442660
 30
0.0
 10
27.470698
 20
-101.576151
 30
0.0
 10
27.124999
 20
-101.621645
 30
0.0
 10
26.779299
 20
-101.576151
 30
0.0
  0
LWPOLYLINE
  5
110
100
AcDbEntity
  8
0
 62
7
100
AcDbPolyline
 90
25
 70
0
 10
6.904299
 20
-113.075944
 30
0.0
 10
6.582198
 20
-112.942961
 30
0.0
 10
6.305499
 20
-112.729940
 30
0.0
 10
6.093299
 20
-112.453955
 30
0.0
 10
5.959800
 20
-112.131657
 30
0.0
 10
5.914300
 20
-111.785963
 30
0.0
 10
5.959800
 20
-111.440241
 30
0.0
 10
6.093299
 20
-111.118056
 30
0.0
 10
6.305499
 20
-110.841450
 30
0.0
 10
6.582198
 20
-110.629247
 30
0.0
 10
6.904299
 20
-110.495756
 30
0.0
 10
7.249998
 20
-110.450262
 30
0.0
 10
7.595698
 20
-110.495756
 30
0.0
 10
7.917798
 20
-110.629247
 30
0.0
 10
8.194500
 20
-110.841450
 30
0.0
 10
8.406700
 20
-111.118056
 30
0.0
 10
8.540200
 20
-111.440241
 30
0.0
 10
8.585700
 20
-111.785963
 30
0.0
 10
8.540200
 20
-112.131657
 30
0.0
 10
8.406700
 20
-112.453955
 30
0.0
 10
8.194500
 20
-112.729940
 30
0.0
 10
7.917798
 20
-112.942961
 30
0.0
 10
7.595698
 20
-113.075944
 30
0.0
 10
7.249998
 20
-113.121947
 30
0.0
 10
6.904299
 20
-113.075944
 30
0.0
  0
LWPOLYLINE
  5
111
100
AcDbEntity
  8
0
 62
7
100
AcDbPolyline
 90
25
 70
0
 10
46.654299
 20
-113.075944
 30
0.0
 10
46.332199
 20
-112.942961
 30
0.0
 10
46.055500
 20
-112.729940
 30
0.0
 10
45.843300
 20
-112.453955
 30
0.0
 10
45.709798
 20
-112.131657
 30
0.0
 10
45.664298
 20
-111.785963
 30
0.0
 10
45.709798
 20
-111.440241
 30
0.0
 10
45.843300
 20
-111.118056
 30
0.0
 10
46.055500
 20
-110.841450
 30
0.0
 10
46.332199
 20
-110.629247
 30
0.0
 10
46.654299
 20
-110.495756
 30
0.0
 10
46.999999
 20
-110.450262
 30
0.0
 10
47.345699
 20
-110.495756
 30
0.0
 10
47.667799
 20
-110.629247
 30
0.0
 10
47.944498
 20
-110.841450
 30
0.0
 10
48.156698
 20
-111.118056
 30
0.0
 10
48.290198
 20
-111.440241
 30
0.0
 10
48.335698
 20
-111.785963
 30
0.0
 10
48.290198
 20
-112.131657
 30
0.0
 10
48.156698
 20
-112.453955
 30
0.0
 10
47.944498
 20
-112.729940
 30
0.0
 10
47.667799
 20
-112.942961
 30
0.0
 10
47.345699
 20
-113.075944
 30
0.0
 10
46.999999
 20
-113.121947
 30
0.0
 10
46.654299
 20
-113.075944
 30
0.0
  0
LWPOLYLINE
  5
112
100
AcDbEntity
  8
0
 62
7
100
AcDbPolyline
 90
9
 70
0
 10
257.899998
 20
-113.533935
 30
0.0
 10
257.899998
 20
108.500064
 30
0.0
 10
237.606998
 20
128.793064
 30
0.0
 10
-27.607000
 20
128.793064
 30
0.0
 10
-47.900000
 20
108.500064
 30
0.0
 10
-47.900000
 20
-113.533935
 30
0.0
 10
-27.607000
 20
-133.826954
 30
0.0
 10
237.606998
 20
-133.826954
 30
0.0
 10
257.899998
 20
-113.533935
 30
0.0
  0
ENDSEC
  0
SECTION
  2
OBJECTS
  0
DICTIONARY
  5
C
330
0
100
AcDbDictionary
  3
ACAD_GROUP
350
D
  3
ACAD_MLINESTYLE
350
17
  0
DICTIONARY
  5
D
330
C
100
AcDbDictionary
  0
DICTIONARY
  5
1A
330
C
100
AcDbDictionary
  0
DICTIONARY
  5
17
330
C
100
AcDbDictionary
  3
STANDARD
350
18
  0
DICTIONARY
  5
19
330
C
100
AcDbDictionary
  0
ENDSEC
  0
EOF
