  0
SECTION
  2
HEADER
  9
$ACADVER
  1
AC1014
  9
$HANDSEED
  5
FFFF
  9
$MEASUREMENT
 70
     1
  0
ENDSEC
  0
SECTION
  2
TABLES
  0
TABLE
  2
VPORT
  5
8
330
0
100
AcDbSymbolTable
 70
     4
  0
VPORT
  5
2E
330
8
100
AcDbSymbolTableRecord
100
AcDbViewportTableRecord
  2
*ACTIVE
 70
     0
 10
0.0
 20
0.0
 11
1.0
 21
1.0
 12
210.0
 22
148.5
 13
0.0
 23
0.0
 14
10.0
 24
10.0
 15
10.0
 25
10.0
 16
0.0
 26
0.0
 36
1.0
 17
0.0
 27
0.0
 37
0.0
 40
341.0
 41
1.24
 42
50.0
 43
0.0
 44
0.0
 50
0.0
 51
0.0
 71
     0
 72
   100
 73
     1
 74
     3
 75
     0
 76
     0
 77
     0
 78
     0
  0
ENDTAB
  0
TABLE
  2
LTYPE
  5
5
330
0
100
AcDbSymbolTable
 70
     1
  0
LTYPE
  5
14
330
5
100
AcDbSymbolTableRecord
100
AcDbLinetypeTableRecord
  2
BYBLOCK
 70
     0
  3

 72
    65
 73
     0
 40
0.0
  0
LTYPE
  5
15
330
5
100
AcDbSymbolTableRecord
100
AcDbLinetypeTableRecord
  2
BYLAYER
 70
     0
  3

 72
    65
 73
     0
 40
0.0
  0
LTYPE
  5
16
330
5
100
AcDbSymbolTableRecord
100
AcDbLinetypeTableRecord
  2
CONTINUOUS
 70
     0
  3
Solid line
 72
    65
 73
     0
 40
0.0
  0
ENDTAB
  0
TABLE
  2
LAYER
  5
2
100
AcDbSymbolTable
 70
1
  0
LAYER
  5
50
100
AcDbSymbolTableRecord
100
AcDbLayerTableRecord
  2
0
 70
0
  6
CONTINUOUS
  0
ENDTAB
  0
TABLE
  2
STYLE
  5
3
330
0
100
AcDbSymbolTable
 70
     1
  0
STYLE
  5
11
330
3
100
AcDbSymbolTableRecord
100
AcDbTextStyleTableRecord
  2
STANDARD
 70
     0
 40
0.0
 41
1.0
 50
0.0
 71
     0
 42
2.5
  3
txt
  4

  0
ENDTAB
  0
TABLE
  2
VIEW
  5
6
330
0
100
AcDbSymbolTable
 70
     0
  0
ENDTAB
  0
TABLE
  2
UCS
  5
7
330
0
100
AcDbSymbolTable
 70
     0
  0
ENDTAB
  0
TABLE
  2
APPID
  5
9
330
0
100
AcDbSymbolTable
 70
     2
  0
APPID
  5
12
330
9
100
AcDbSymbolTableRecord
100
AcDbRegAppTableRecord
  2
ACAD
 70
     0
  0
ENDTAB
  0
TABLE
  2
DIMSTYLE
  5
A
330
0
100
AcDbSymbolTable
 70
     1
  0
DIMSTYLE
105
27
330
A
100
AcDbSymbolTableRecord
100
AcDbDimStyleTableRecord
  2
ISO-25
 70
     0
  3

  4

  5

  6

  7

 40
1.0
 41
2.5
 42
0.625
 43
3.75
 44
1.25
 45
0.0
 46
0.0
 47
0.0
 48
0.0
140
2.5
141
2.5
142
0.0
143
0.03937007874016
144
1.0
145
0.0
146
1.0
147
0.625
 71
     0
 72
     0
 73
     0
 74
     0
 75
     0
 76
     0
 77
     1
 78
     8
170
     0
171
     3
172
     1
173
     0
174
     0
175
     0
176
     0
177
     0
178
     0
270
     2
271
     2
272
     2
273
     2
274
     3
340
11
275
     0
280
     0
281
     0
282
     0
283
     0
284
     8
285
     0
286
     0
287
     3
288
     0
  0
ENDTAB
  0
TABLE
  2
BLOCK_RECORD
  5
1
330
0
100
AcDbSymbolTable
 70
     1
  0
BLOCK_RECORD
  5
1F
330
1
100
AcDbSymbolTableRecord
100
AcDbBlockTableRecord
  2
*MODEL_SPACE
  0
BLOCK_RECORD
  5
1B
330
1
100
AcDbSymbolTableRecord
100
AcDbBlockTableRecord
  2
*PAPER_SPACE
  0
ENDTAB
  0
ENDSEC
  0
SECTION
  2
BLOCKS
  0
BLOCK
  5
20
330
1F
100
AcDbEntity
  8
0
100
AcDbBlockBegin
  2
*MODEL_SPACE
 70
     0
 10
0.0
 20
0.0
 30
0.0
  3
*MODEL_SPACE
  1

  0
ENDBLK
  5
21
330
1F
100
AcDbEntity
  8
0
100
AcDbBlockEnd
  0
BLOCK
  5
1C
330
1B
100
AcDbEntity
 67
     1
  8
0
100
AcDbBlockBegin
  2
*PAPER_SPACE
  1

  0
ENDBLK
  5
1D
330
1B
100
AcDbEntity
 67
     1
  8
0
100
AcDbBlockEnd
  0
ENDSEC
  0
SECTION
  2
ENTITIES
  0
LWPOLYLINE
  5
100
100
AcDbEntity
  8
0
 62
7
100
AcDbPolyline
 90
26
 70
0
 10
207.311498
 20
253.988004
 30
0.0
 10
206.938499
 20
254.084005
 30
0.0
 10
206.601500
 20
254.270003
 30
0.0
 10
206.320500
 20
254.533003
 30
0.0
 10
206.113499
 20
254.859004
 30
0.0
 10
205.994500
 20
255.225004
 30
0.0
 10
205.970511
 20
255.609004
 30
0.0
 10
206.042500
 20
255.988003
 30
0.0
 10
206.206499
 20
256.336003
 30
0.0
 10
206.452498
 20
256.633005
 30
0.0
 10
206.764501
 20
256.860005
 30
0.0
 10
207.122499
 20
257.001003
 30
0.0
 10
207.504498
 20
257.050002
 30
0.0
 10
207.886500
 20
257.001003
 30
0.0
 10
208.244499
 20
256.860005
 30
0.0
 10
208.556499
 20
256.633005
 30
0.0
 10
208.802501
 20
256.336003
 30
0.0
 10
208.966500
 20
255.988003
 30
0.0
 10
209.038500
 20
255.609004
 30
0.0
 10
209.014512
 20
255.225004
 30
0.0
 10
208.895498
 20
254.859004
 30
0.0
 10
208.688500
 20
254.533003
 30
0.0
 10
208.407500
 20
254.270003
 30
0.0
 10
208.070498
 20
254.084005
 30
0.0
 10
207.697499
 20
253.988004
 30
0.0
 10
207.311498
 20
253.988004
 30
0.0
  0
LWPOLYLINE
  5
101
100
AcDbEntity
  8
0
 62
7
100
AcDbPolyline
 90
26
 70
0
 10
207.311498
 20
222.219205
 30
0.0
 10
206.938499
 20
222.315003
 30
0.0
 10
206.601500
 20
222.500603
 30
0.0
 10
206.320500
 20
222.764405
 30
0.0
 10
206.113499
 20
223.089604
 30
0.0
 10
205.994500
 20
223.455903
 30
0.0
 10
205.970511
 20
223.840504
 30
0.0
 10
206.042500
 20
224.218803
 30
0.0
 10
206.206499
 20
224.567404
 30
0.0
 10
206.452498
 20
224.864203
 30
0.0
 10
206.764501
 20
225.090605
 30
0.0
 10
207.122499
 20
225.232503
 30
0.0
 10
207.504498
 20
225.280803
 30
0.0
 10
207.886500
 20
225.232503
 30
0.0
 10
208.244499
 20
225.090605
 30
0.0
 10
208.556499
 20
224.864203
 30
0.0
 10
208.802501
 20
224.567404
 30
0.0
 10
208.966500
 20
224.218803
 30
0.0
 10
209.038500
 20
223.840504
 30
0.0
 10
209.014512
 20
223.455903
 30
0.0
 10
208.895498
 20
223.089604
 30
0.0
 10
208.688500
 20
222.764405
 30
0.0
 10
208.407500
 20
222.500603
 30
0.0
 10
208.070498
 20
222.315003
 30
0.0
 10
207.697499
 20
222.219205
 30
0.0
 10
207.311498
 20
222.219205
 30
0.0
  0
LWPOLYLINE
  5
102
100
AcDbEntity
  8
0
 62
7
100
AcDbPolyline
 90
26
 70
0
 10
207.311498
 20
172.450304
 30
0.0
 10
206.938499
 20
172.546104
 30
0.0
 10
206.601500
 20
172.731702
 30
0.0
 10
206.320500
 20
172.995405
 30
0.0
 10
206.113499
 20
173.320703
 30
0.0
 10
205.994500
 20
173.687005
 30
0.0
 10
205.970511
 20
174.071504
 30
0.0
 10
206.042500
 20
174.449905
 30
0.0
 10
206.206499
 20
174.798404
 30
0.0
 10
206.452498
 20
175.095305
 30
0.0
 10
206.764501
 20
175.321704
 30
0.0
 10
207.122499
 20
175.463503
 30
0.0
 10
207.504498
 20
175.511803
 30
0.0
 10
207.886500
 20
175.463503
 30
0.0
 10
208.244499
 20
175.321704
 30
0.0
 10
208.556499
 20
175.095305
 30
0.0
 10
208.802501
 20
174.798404
 30
0.0
 10
208.966500
 20
174.449905
 30
0.0
 10
209.038500
 20
174.071504
 30
0.0
 10
209.014512
 20
173.687005
 30
0.0
 10
208.895498
 20
173.320703
 30
0.0
 10
208.688500
 20
172.995405
 30
0.0
 10
208.407500
 20
172.731702
 30
0.0
 10
208.070498
 20
172.546104
 30
0.0
 10
207.697499
 20
172.450304
 30
0.0
 10
207.311498
 20
172.450304
 30
0.0
  0
LWPOLYLINE
  5
103
100
AcDbEntity
  8
0
 62
7
100
AcDbPolyline
 90
26
 70
0
 10
-2.688501
 20
253.988004
 30
0.0
 10
-3.061501
 20
254.084005
 30
0.0
 10
-3.398501
 20
254.270003
 30
0.0
 10
-3.679501
 20
254.533003
 30
0.0
 10
-3.886501
 20
254.859004
 30
0.0
 10
-4.005501
 20
255.225004
 30
0.0
 10
-4.029501
 20
255.609004
 30
0.0
 10
-3.957501
 20
255.988003
 30
0.0
 10
-3.793501
 20
256.336003
 30
0.0
 10
-3.547501
 20
256.633005
 30
0.0
 10
-3.235501
 20
256.860005
 30
0.0
 10
-2.877501
 20
257.001003
 30
0.0
 10
-2.495501
 20
257.050002
 30
0.0
 10
-2.113501
 20
257.001003
 30
0.0
 10
-1.755501
 20
256.860005
 30
0.0
 10
-1.443501
 20
256.633005
 30
0.0
 10
-1.197501
 20
256.336003
 30
0.0
 10
-1.033501
 20
255.988003
 30
0.0
 10
-0.961501
 20
255.609004
 30
0.0
 10
-0.985501
 20
255.225004
 30
0.0
 10
-1.104501
 20
254.859004
 30
0.0
 10
-1.311501
 20
254.533003
 30
0.0
 10
-1.592501
 20
254.270003
 30
0.0
 10
-1.929501
 20
254.084005
 30
0.0
 10
-2.302501
 20
253.988004
 30
0.0
 10
-2.688501
 20
253.988004
 30
0.0
  0
LWPOLYLINE
  5
104
100
AcDbEntity
  8
0
 62
7
100
AcDbPolyline
 90
26
 70
0
 10
-2.688501
 20
222.219205
 30
0.0
 10
-3.061501
 20
222.315003
 30
0.0
 10
-3.398501
 20
222.500603
 30
0.0
 10
-3.679501
 20
222.764405
 30
0.0
 10
-3.886501
 20
223.089604
 30
0.0
 10
-4.005501
 20
223.455903
 30
0.0
 10
-4.029501
 20
223.840504
 30
0.0
 10
-3.957501
 20
224.218803
 30
0.0
 10
-3.793501
 20
224.567404
 30
0.0
 10
-3.547501
 20
224.864203
 30
0.0
 10
-3.235501
 20
225.090605
 30
0.0
 10
-2.877501
 20
225.232503
 30
0.0
 10
-2.495501
 20
225.280803
 30
0.0
 10
-2.113501
 20
225.232503
 30
0.0
 10
-1.755501
 20
225.090605
 30
0.0
 10
-1.443501
 20
224.864203
 30
0.0
 10
-1.197501
 20
224.567404
 30
0.0
 10
-1.033501
 20
224.218803
 30
0.0
 10
-0.961501
 20
223.840504
 30
0.0
 10
-0.985501
 20
223.455903
 30
0.0
 10
-1.104501
 20
223.089604
 30
0.0
 10
-1.311501
 20
222.764405
 30
0.0
 10
-1.592501
 20
222.500603
 30
0.0
 10
-1.929501
 20
222.315003
 30
0.0
 10
-2.302501
 20
222.219205
 30
0.0
 10
-2.688501
 20
222.219205
 30
0.0
  0
LWPOLYLINE
  5
105
100
AcDbEntity
  8
0
 62
7
100
AcDbPolyline
 90
26
 70
0
 10
-2.688501
 20
172.450304
 30
0.0
 10
-3.061501
 20
172.546104
 30
0.0
 10
-3.398501
 20
172.731702
 30
0.0
 10
-3.679501
 20
172.995405
 30
0.0
 10
-3.886501
 20
173.320703
 30
0.0
 10
-4.005501
 20
173.687005
 30
0.0
 10
-4.029501
 20
174.071504
 30
0.0
 10
-3.957501
 20
174.449905
 30
0.0
 10
-3.793501
 20
174.798404
 30
0.0
 10
-3.547501
 20
175.095305
 30
0.0
 10
-3.235501
 20
175.321704
 30
0.0
 10
-2.877501
 20
175.463503
 30
0.0
 10
-2.495501
 20
175.511803
 30
0.0
 10
-2.113501
 20
175.463503
 30
0.0
 10
-1.755501
 20
175.321704
 30
0.0
 10
-1.443501
 20
175.095305
 30
0.0
 10
-1.197501
 20
174.798404
 30
0.0
 10
-1.033501
 20
174.449905
 30
0.0
 10
-0.961501
 20
174.071504
 30
0.0
 10
-0.985501
 20
173.687005
 30
0.0
 10
-1.104501
 20
173.320703
 30
0.0
 10
-1.311501
 20
172.995405
 30
0.0
 10
-1.592501
 20
172.731702
 30
0.0
 10
-1.929501
 20
172.546104
 30
0.0
 10
-2.302501
 20
172.450304
 30
0.0
 10
-2.688501
 20
172.450304
 30
0.0
  0
LWPOLYLINE
  5
106
100
AcDbEntity
  8
0
 62
7
100
AcDbPolyline
 90
26
 70
0
 10
102.311917
 20
232.850305
 30
0.0
 10
101.938796
 20
232.946105
 30
0.0
 10
101.601194
 20
233.131703
 30
0.0
 10
101.320360
 20
233.395403
 30
0.0
 10
101.113940
 20
233.720703
 30
0.0
 10
100.994918
 20
234.087002
 30
0.0
 10
100.970732
 20
234.471505
 30
0.0
 10
101.042891
 20
234.849903
 30
0.0
 10
101.206918
 20
235.198504
 30
0.0
 10
101.452480
 20
235.495303
 30
0.0
 10
101.764098
 20
235.721704
 30
0.0
 10
102.122311
 20
235.863504
 30
0.0
 10
102.504500
 20
235.911803
 30
0.0
 10
102.886685
 20
235.863504
 30
0.0
 10
103.244901
 20
235.721704
 30
0.0
 10
103.556520
 20
235.495303
 30
0.0
 10
103.802078
 20
235.198504
 30
0.0
 10
103.966109
 20
234.849903
 30
0.0
 10
104.038270
 20
234.471505
 30
0.0
 10
104.014084
 20
234.087002
 30
0.0
 10
103.895059
 20
233.720703
 30
0.0
 10
103.688639
 20
233.395403
 30
0.0
 10
103.407805
 20
233.131703
 30
0.0
 10
103.070203
 20
232.946105
 30
0.0
 10
102.697080
 20
232.850305
 30
0.0
 10
102.311917
 20
232.850305
 30
0.0
  0
LWPOLYLINE
  5
107
100
AcDbEntity
  8
0
 62
7
100
AcDbPolyline
 90
26
 70
0
 10
79.811900
 20
216.350304
 30
0.0
 10
79.438799
 20
216.446104
 30
0.0
 10
79.101199
 20
216.631705
 30
0.0
 10
78.820399
 20
216.895405
 30
0.0
 10
78.613900
 20
217.220703
 30
0.0
 10
78.494898
 20
217.587004
 30
0.0
 10
78.470684
 20
217.971504
 30
0.0
 10
78.542899
 20
218.349905
 30
0.0
 10
78.706898
 20
218.698503
 30
0.0
 10
78.952499
 20
218.995305
 30
0.0
 10
79.264098
 20
219.221703
 30
0.0
 10
79.622300
 20
219.363503
 30
0.0
 10
80.004499
 20
219.411803
 30
0.0
 10
80.386699
 20
219.363503
 30
0.0
 10
80.744898
 20
219.221703
 30
0.0
 10
81.056500
 20
218.995305
 30
0.0
 10
81.302098
 20
218.698503
 30
0.0
 10
81.466100
 20
218.349905
 30
0.0
 10
81.538298
 20
217.971504
 30
0.0
 10
81.514112
 20
217.587004
 30
0.0
 10
81.395099
 20
217.220703
 30
0.0
 10
81.188698
 20
216.895405
 30
0.0
 10
80.907800
 20
216.631705
 30
0.0
 10
80.570200
 20
216.446104
 30
0.0
 10
80.197099
 20
216.350304
 30
0.0
 10
79.811900
 20
216.350304
 30
0.0
  0
LWPOLYLINE
  5
108
100
AcDbEntity
  8
0
 62
7
100
AcDbPolyline
 90
26
 70
0
 10
124.811900
 20
216.350304
 30
0.0
 10
124.438799
 20
216.446104
 30
0.0
 10
124.101200
 20
216.631705
 30
0.0
 10
123.820298
 20
216.895405
 30
0.0
 10
123.613901
 20
217.220703
 30
0.0
 10
123.494899
 20
217.587004
 30
0.0
 10
123.470684
 20
217.971504
 30
0.0
 10
123.542899
 20
218.349905
 30
0.0
 10
123.706898
 20
218.698503
 30
0.0
 10
123.952500
 20
218.995305
 30
0.0
 10
124.264098
 20
219.221703
 30
0.0
 10
124.622300
 20
219.363503
 30
0.0
 10
125.004500
 20
219.411803
 30
0.0
 10
125.386699
 20
219.363503
 30
0.0
 10
125.744899
 20
219.221703
 30
0.0
 10
126.056500
 20
218.995305
 30
0.0
 10
126.302098
 20
218.698503
 30
0.0
 10
126.466100
 20
218.349905
 30
0.0
 10
126.538299
 20
217.971504
 30
0.0
 10
126.514084
 20
217.587004
 30
0.0
 10
126.395099
 20
217.220703
 30
0.0
 10
126.188600
 20
216.895405
 30
0.0
 10
125.907800
 20
216.631705
 30
0.0
 10
125.570200
 20
216.446104
 30
0.0
 10
125.197100
 20
216.350304
 30
0.0
 10
124.811900
 20
216.350304
 30
0.0
  0
LWPOLYLINE
  5
109
100
AcDbEntity
  8
0
 62
7
100
AcDbPolyline
 90
26
 70
0
 10
129.529600
 20
139.513404
 30
0.0
 10
129.180999
 20
139.677432
 30
0.0
 10
128.884200
 20
139.922965
 30
0.0
 10
128.657799
 20
140.234652
 30
0.0
 10
128.515999
 20
140.592820
 30
0.0
 10
128.467699
 20
140.975005
 30
0.0
 10
128.515999
 20
141.357162
 30
0.0
 10
128.657799
 20
141.715359
 30
0.0
 10
128.884200
 20
142.027045
 30
0.0
 10
129.180999
 20
142.272578
 30
0.0
 10
129.529600
 20
142.436606
 30
0.0
 10
129.907899
 20
142.508770
 30
0.0
 10
130.292500
 20
142.484499
 30
0.0
 10
130.658799
 20
142.365570
 30
0.0
 10
130.984100
 20
142.159125
 30
0.0
 10
131.247800
 20
141.878286
 30
0.0
 10
131.433398
 20
141.540748
 30
0.0
 10
131.529198
 20
141.167565
 30
0.0
 10
131.529198
 20
140.782445
 30
0.0
 10
131.433398
 20
140.409262
 30
0.0
 10
131.247800
 20
140.071668
 30
0.0
 10
130.984100
 20
139.790885
 30
0.0
 10
130.658799
 20
139.584440
 30
0.0
 10
130.292500
 20
139.465427
 30
0.0
 10
129.907899
 20
139.441156
 30
0.0
 10
129.529600
 20
139.513404
 30
0.0
  0
LWPOLYLINE
  5
10a
100
AcDbEntity
  8
0
 62
7
100
AcDbPolyline
 90
26
 70
0
 10
212.029500
 20
139.513404
 30
0.0
 10
211.681500
 20
139.677432
 30
0.0
 10
211.384498
 20
139.922965
 30
0.0
 10
211.157498
 20
140.234652
 30
0.0
 10
211.015498
 20
140.592820
 30
0.0
 10
210.967501
 20
140.975005
 30
0.0
 10
211.015498
 20
141.357162
 30
0.0
 10
211.157498
 20
141.715359
 30
0.0
 10
211.384498
 20
142.027045
 30
0.0
 10
211.681500
 20
142.272578
 30
0.0
 10
212.029500
 20
142.436606
 30
0.0
 10
212.407500
 20
142.508770
 30
0.0
 10
212.792499
 20
142.484499
 30
0.0
 10
213.158499
 20
142.365570
 30
0.0
 10
213.484500
 20
142.159125
 30
0.0
 10
213.747500
 20
141.878286
 30
0.0
 10
213.933498
 20
141.540748
 30
0.0
 10
214.029499
 20
141.167565
 30
0.0
 10
214.029499
 20
140.782445
 30
0.0
 10
213.933498
 20
140.409262
 30
0.0
 10
213.747500
 20
140.071668
 30
0.0
 10
213.484500
 20
139.790885
 30
0.0
 10
213.158499
 20
139.584440
 30
0.0
 10
212.792499
 20
139.465427
 30
0.0
 10
212.407500
 20
139.441156
 30
0.0
 10
212.029500
 20
139.513404
 30
0.0
  0
LWPOLYLINE
  5
10b
100
AcDbEntity
  8
0
 62
7
100
AcDbPolyline
 90
26
 70
0
 10
212.029500
 20
91.013403
 30
0.0
 10
211.681500
 20
91.177402
 30
0.0
 10
211.384498
 20
91.422992
 30
0.0
 10
211.157498
 20
91.734593
 30
0.0
 10
211.015498
 20
92.092790
 30
0.0
 10
210.967501
 20
92.475003
 30
0.0
 10
211.015498
 20
92.857217
 30
0.0
 10
211.157498
 20
93.215413
 30
0.0
 10
211.384498
 20
93.527015
 30
0.0
 10
211.681500
 20
93.772605
 30
0.0
 10
212.029500
 20
93.936604
 30
0.0
 10
212.407500
 20
94.008796
 30
0.0
 10
212.792499
 20
93.984525
 30
0.0
 10
213.158499
 20
93.865597
 30
0.0
 10
213.484500
 20
93.659095
 30
0.0
 10
213.747500
 20
93.378397
 30
0.0
 10
213.933498
 20
93.040802
 30
0.0
 10
214.029499
 20
92.667592
 30
0.0
 10
214.029499
 20
92.282415
 30
0.0
 10
213.933498
 20
91.909317
 30
0.0
 10
213.747500
 20
91.571695
 30
0.0
 10
213.484500
 20
91.290912
 30
0.0
 10
213.158499
 20
91.084410
 30
0.0
 10
212.792499
 20
90.965397
 30
0.0
 10
212.407500
 20
90.941126
 30
0.0
 10
212.029500
 20
91.013403
 30
0.0
  0
LWPOLYLINE
  5
10c
100
AcDbEntity
  8
0
 62
7
100
AcDbPolyline
 90
2
 70
0
 10
65.604500
 20
74.974996
 30
0.0
 10
65.604500
 20
74.969352
 30
0.0
  0
LWPOLYLINE
  5
10d
100
AcDbEntity
  8
0
 62
7
100
AcDbPolyline
 90
26
 70
0
 10
113.311900
 20
84.050303
 30
0.0
 10
112.938800
 20
84.146118
 30
0.0
 10
112.601200
 20
84.331707
 30
0.0
 10
112.320358
 20
84.595415
 30
0.0
 10
112.113918
 20
84.920705
 30
0.0
 10
111.994899
 20
85.287001
 30
0.0
 10
111.970713
 20
85.671500
 30
0.0
 10
112.042880
 20
86.049904
 30
0.0
 10
112.206910
 20
86.398505
 30
0.0
 10
112.452449
 20
86.695290
 30
0.0
 10
112.764099
 20
86.921717
 30
0.0
 10
113.122298
 20
87.063505
 30
0.0
 10
113.504500
 20
87.111793
 30
0.0
 10
113.886700
 20
87.063505
 30
0.0
 10
114.244899
 20
86.921717
 30
0.0
 10
114.556500
 20
86.695290
 30
0.0
 10
114.802099
 20
86.398505
 30
0.0
 10
114.966098
 20
86.049904
 30
0.0
 10
115.038299
 20
85.671500
 30
0.0
 10
115.014084
 20
85.287001
 30
0.0
 10
114.895099
 20
84.920705
 30
0.0
 10
114.688600
 20
84.595415
 30
0.0
 10
114.407800
 20
84.331707
 30
0.0
 10
114.070201
 20
84.146118
 30
0.0
 10
113.697100
 20
84.050303
 30
0.0
 10
113.311900
 20
84.050303
 30
0.0
  0
LWPOLYLINE
  5
10e
100
AcDbEntity
  8
0
 62
7
100
AcDbPolyline
 90
26
 70
0
 10
33.352700
 20
67.550294
 30
0.0
 10
32.979600
 20
67.646108
 30
0.0
 10
32.642000
 20
67.831698
 30
0.0
 10
32.361200
 20
68.095406
 30
0.0
 10
32.154698
 20
68.420695
 30
0.0
 10
32.035699
 20
68.786992
 30
0.0
 10
32.011485
 20
69.171491
 30
0.0
 10
32.083700
 20
69.549895
 30
0.0
 10
32.247699
 20
69.898496
 30
0.0
 10
32.493300
 20
70.195309
 30
0.0
 10
32.804899
 20
70.421707
 30
0.0
 10
33.163098
 20
70.563496
 30
0.0
 10
33.545300
 20
70.611812
 30
0.0
 10
33.927500
 20
70.563496
 30
0.0
 10
34.285699
 20
70.421707
 30
0.0
 10
34.597300
 20
70.195309
 30
0.0
 10
34.842899
 20
69.898496
 30
0.0
 10
35.006898
 20
69.549895
 30
0.0
 10
35.079099
 20
69.171491
 30
0.0
 10
35.054884
 20
68.786992
 30
0.0
 10
34.935899
 20
68.420695
 30
0.0
 10
34.729400
 20
68.095406
 30
0.0
 10
34.448600
 20
67.831698
 30
0.0
 10
34.111001
 20
67.646108
 30
0.0
 10
33.737900
 20
67.550294
 30
0.0
 10
33.352700
 20
67.550294
 30
0.0
  0
LWPOLYLINE
  5
10f
100
AcDbEntity
  8
0
 62
7
100
AcDbPolyline
 90
26
 70
0
 10
124.811900
 20
67.550294
 30
0.0
 10
124.438799
 20
67.646108
 30
0.0
 10
124.101200
 20
67.831698
 30
0.0
 10
123.820400
 20
68.095406
 30
0.0
 10
123.613901
 20
68.420695
 30
0.0
 10
123.494899
 20
68.786992
 30
0.0
 10
123.470684
 20
69.171491
 30
0.0
 10
123.542899
 20
69.549895
 30
0.0
 10
123.706898
 20
69.898496
 30
0.0
 10
123.952500
 20
70.195309
 30
0.0
 10
124.264098
 20
70.421707
 30
0.0
 10
124.622300
 20
70.563496
 30
0.0
 10
125.004500
 20
70.611812
 30
0.0
 10
125.386699
 20
70.563496
 30
0.0
 10
125.744899
 20
70.421707
 30
0.0
 10
126.056500
 20
70.195309
 30
0.0
 10
126.302098
 20
69.898496
 30
0.0
 10
126.466100
 20
69.549895
 30
0.0
 10
126.538299
 20
69.171491
 30
0.0
 10
126.514084
 20
68.786992
 30
0.0
 10
126.395099
 20
68.420695
 30
0.0
 10
126.188600
 20
68.095406
 30
0.0
 10
125.907800
 20
67.831698
 30
0.0
 10
125.570200
 20
67.646108
 30
0.0
 10
125.197100
 20
67.550294
 30
0.0
 10
124.811900
 20
67.550294
 30
0.0
  0
LWPOLYLINE
  5
110
100
AcDbEntity
  8
0
 62
7
100
AcDbPolyline
 90
26
 70
0
 10
180.186900
 20
51.450306
 30
0.0
 10
179.813698
 20
51.546092
 30
0.0
 10
179.476200
 20
51.731710
 30
0.0
 10
179.195400
 20
51.995390
 30
0.0
 10
178.988901
 20
52.320708
 30
0.0
 10
178.869899
 20
52.687004
 30
0.0
 10
178.845712
 20
53.071616
 30
0.0
 10
178.917899
 20
53.449907
 30
0.0
 10
179.081898
 20
53.798508
 30
0.0
 10
179.327500
 20
54.095293
 30
0.0
 10
179.639098
 20
54.321692
 30
0.0
 10
179.997300
 20
54.463508
 30
0.0
 10
180.379500
 20
54.511796
 30
0.0
 10
180.761699
 20
54.463508
 30
0.0
 10
181.119899
 20
54.321692
 30
0.0
 10
181.431500
 20
54.095293
 30
0.0
 10
181.677098
 20
53.798508
 30
0.0
 10
181.841100
 20
53.449907
 30
0.0
 10
181.913299
 20
53.071616
 30
0.0
 10
181.889112
 20
52.687004
 30
0.0
 10
181.770099
 20
52.320708
 30
0.0
 10
181.563600
 20
51.995390
 30
0.0
 10
181.282800
 20
51.731710
 30
0.0
 10
180.945200
 20
51.546092
 30
0.0
 10
180.572100
 20
51.450306
 30
0.0
 10
180.186900
 20
51.450306
 30
0.0
  0
LWPOLYLINE
  5
111
100
AcDbEntity
  8
0
 62
7
100
AcDbPolyline
 90
26
 70
0
 10
160.311900
 20
39.950005
 30
0.0
 10
159.938700
 20
40.046017
 30
0.0
 10
159.601199
 20
40.232001
 30
0.0
 10
159.320399
 20
40.495004
 30
0.0
 10
159.113900
 20
40.820999
 30
0.0
 10
158.994898
 20
41.187013
 30
0.0
 10
158.970712
 20
41.571597
 30
0.0
 10
159.042899
 20
41.949916
 30
0.0
 10
159.206898
 20
42.298517
 30
0.0
 10
159.452499
 20
42.595302
 30
0.0
 10
159.764098
 20
42.821700
 30
0.0
 10
160.122300
 20
42.963517
 30
0.0
 10
160.504499
 20
43.011805
 30
0.0
 10
160.886699
 20
42.963517
 30
0.0
 10
161.244898
 20
42.821700
 30
0.0
 10
161.556500
 20
42.595302
 30
0.0
 10
161.802098
 20
42.298517
 30
0.0
 10
161.966100
 20
41.949916
 30
0.0
 10
162.038298
 20
41.571597
 30
0.0
 10
162.014112
 20
41.187013
 30
0.0
 10
161.895099
 20
40.820999
 30
0.0
 10
161.688599
 20
40.495004
 30
0.0
 10
161.407800
 20
40.232001
 30
0.0
 10
161.070200
 20
40.046017
 30
0.0
 10
160.697099
 20
39.950005
 30
0.0
 10
160.311900
 20
39.950005
 30
0.0
  0
LWPOLYLINE
  5
112
100
AcDbEntity
  8
0
 62
7
100
AcDbPolyline
 90
26
 70
0
 10
200.061901
 20
39.950005
 30
0.0
 10
199.688698
 20
40.046017
 30
0.0
 10
199.351200
 20
40.232001
 30
0.0
 10
199.070400
 20
40.495004
 30
0.0
 10
198.863898
 20
40.820999
 30
0.0
 10
198.744899
 20
41.187013
 30
0.0
 10
198.720713
 20
41.571597
 30
0.0
 10
198.792900
 20
41.949916
 30
0.0
 10
198.956899
 20
42.298517
 30
0.0
 10
199.202500
 20
42.595302
 30
0.0
 10
199.514099
 20
42.821700
 30
0.0
 10
199.872298
 20
42.963517
 30
0.0
 10
200.254500
 20
43.011805
 30
0.0
 10
200.636700
 20
42.963517
 30
0.0
 10
200.994899
 20
42.821700
 30
0.0
 10
201.306501
 20
42.595302
 30
0.0
 10
201.552099
 20
42.298517
 30
0.0
 10
201.716098
 20
41.949916
 30
0.0
 10
201.788299
 20
41.571597
 30
0.0
 10
201.764084
 20
41.187013
 30
0.0
 10
201.645099
 20
40.820999
 30
0.0
 10
201.438600
 20
40.495004
 30
0.0
 10
201.157800
 20
40.232001
 30
0.0
 10
200.820201
 20
40.046017
 30
0.0
 10
200.447100
 20
39.950005
 30
0.0
 10
200.061901
 20
39.950005
 30
0.0
  0
LWPOLYLINE
  5
113
100
AcDbEntity
  8
0
 62
7
100
AcDbPolyline
 90
26
 70
0
 10
24.436899
 20
51.450306
 30
0.0
 10
24.063799
 20
51.546092
 30
0.0
 10
23.726199
 20
51.731710
 30
0.0
 10
23.445399
 20
51.995390
 30
0.0
 10
23.238899
 20
52.320708
 30
0.0
 10
23.119899
 20
52.687004
 30
0.0
 10
23.095698
 20
53.071616
 30
0.0
 10
23.167899
 20
53.449907
 30
0.0
 10
23.331899
 20
53.798508
 30
0.0
 10
23.577499
 20
54.095293
 30
0.0
 10
23.889099
 20
54.321692
 30
0.0
 10
24.247299
 20
54.463508
 30
0.0
 10
24.629499
 20
54.511796
 30
0.0
 10
25.011699
 20
54.463508
 30
0.0
 10
25.369899
 20
54.321692
 30
0.0
 10
25.681499
 20
54.095293
 30
0.0
 10
25.927099
 20
53.798508
 30
0.0
 10
26.091099
 20
53.449907
 30
0.0
 10
26.163299
 20
53.071616
 30
0.0
 10
26.139099
 20
52.687004
 30
0.0
 10
26.020099
 20
52.320708
 30
0.0
 10
25.813599
 20
51.995390
 30
0.0
 10
25.532799
 20
51.731710
 30
0.0
 10
25.195299
 20
51.546092
 30
0.0
 10
24.822099
 20
51.450306
 30
0.0
 10
24.436899
 20
51.450306
 30
0.0
  0
LWPOLYLINE
  5
114
100
AcDbEntity
  8
0
 62
7
100
AcDbPolyline
 90
26
 70
0
 10
4.561899
 20
39.950005
 30
0.0
 10
4.188799
 20
40.046017
 30
0.0
 10
3.851199
 20
40.232001
 30
0.0
 10
3.570399
 20
40.495004
 30
0.0
 10
3.363899
 20
40.820999
 30
0.0
 10
3.244899
 20
41.187013
 30
0.0
 10
3.220699
 20
41.571597
 30
0.0
 10
3.292899
 20
41.949916
 30
0.0
 10
3.456899
 20
42.298517
 30
0.0
 10
3.702499
 20
42.595302
 30
0.0
 10
4.014099
 20
42.821700
 30
0.0
 10
4.372299
 20
42.963517
 30
0.0
 10
4.754499
 20
43.011805
 30
0.0
 10
5.136699
 20
42.963517
 30
0.0
 10
5.494899
 20
42.821700
 30
0.0
 10
5.806499
 20
42.595302
 30
0.0
 10
6.052099
 20
42.298517
 30
0.0
 10
6.216099
 20
41.949916
 30
0.0
 10
6.288299
 20
41.571597
 30
0.0
 10
6.264099
 20
41.187013
 30
0.0
 10
6.145099
 20
40.820999
 30
0.0
 10
5.938599
 20
40.495004
 30
0.0
 10
5.657799
 20
40.232001
 30
0.0
 10
5.320299
 20
40.046017
 30
0.0
 10
4.947099
 20
39.950005
 30
0.0
 10
4.561899
 20
39.950005
 30
0.0
  0
LWPOLYLINE
  5
115
100
AcDbEntity
  8
0
 62
7
100
AcDbPolyline
 90
26
 70
0
 10
44.311900
 20
39.950005
 30
0.0
 10
43.938800
 20
40.046017
 30
0.0
 10
43.601200
 20
40.232001
 30
0.0
 10
43.320400
 20
40.495004
 30
0.0
 10
43.113898
 20
40.820999
 30
0.0
 10
42.994899
 20
41.187013
 30
0.0
 10
42.970684
 20
41.571597
 30
0.0
 10
43.042899
 20
41.949916
 30
0.0
 10
43.206899
 20
42.298517
 30
0.0
 10
43.452500
 20
42.595302
 30
0.0
 10
43.764098
 20
42.821700
 30
0.0
 10
44.122300
 20
42.963517
 30
0.0
 10
44.504500
 20
43.011805
 30
0.0
 10
44.886699
 20
42.963517
 30
0.0
 10
45.244899
 20
42.821700
 30
0.0
 10
45.556500
 20
42.595302
 30
0.0
 10
45.802098
 20
42.298517
 30
0.0
 10
45.966101
 20
41.949916
 30
0.0
 10
46.038299
 20
41.571597
 30
0.0
 10
46.014112
 20
41.187013
 30
0.0
 10
45.895099
 20
40.820999
 30
0.0
 10
45.688600
 20
40.495004
 30
0.0
 10
45.407800
 20
40.232001
 30
0.0
 10
45.070299
 20
40.046017
 30
0.0
 10
44.697100
 20
39.950005
 30
0.0
 10
44.311900
 20
39.950005
 30
0.0
  0
LWPOLYLINE
  5
116
100
AcDbEntity
  8
0
 62
7
100
AcDbPolyline
 90
9
 70
0
 10
257.899998
 20
37.483016
 30
0.0
 10
257.899998
 20
259.517008
 30
0.0
 10
237.606998
 20
279.810008
 30
0.0
 10
-27.607000
 20
279.810008
 30
0.0
 10
-47.900000
 20
259.517008
 30
0.0
 10
-47.900000
 20
37.483016
 30
0.0
 10
-27.607000
 20
17.189996
 30
0.0
 10
237.606998
 20
17.189996
 30
0.0
 10
257.899998
 20
37.483016
 30
0.0
  0
ENDSEC
  0
SECTION
  2
OBJECTS
  0
DICTIONARY
  5
C
330
0
100
AcDbDictionary
  3
ACAD_GROUP
350
D
  3
ACAD_MLINESTYLE
350
17
  0
DICTIONARY
  5
D
330
C
100
AcDbDictionary
  0
DICTIONARY
  5
1A
330
C
100
AcDbDictionary
  0
DICTIONARY
  5
17
330
C
100
AcDbDictionary
  3
STANDARD
350
18
  0
DICTIONARY
  5
19
330
C
100
AcDbDictionary
  0
ENDSEC
  0
EOF
