  0
SECTION
  2
HEADER
  9
$ACADVER
  1
AC1014
  9
$HANDSEED
  5
FFFF
  9
$MEASUREMENT
 70
     1
  0
ENDSEC
  0
SECTION
  2
TABLES
  0
TABLE
  2
VPORT
  5
8
330
0
100
AcDbSymbolTable
 70
     4
  0
VPORT
  5
2E
330
8
100
AcDbSymbolTableRecord
100
AcDbViewportTableRecord
  2
*ACTIVE
 70
     0
 10
0.0
 20
0.0
 11
1.0
 21
1.0
 12
210.0
 22
148.5
 13
0.0
 23
0.0
 14
10.0
 24
10.0
 15
10.0
 25
10.0
 16
0.0
 26
0.0
 36
1.0
 17
0.0
 27
0.0
 37
0.0
 40
341.0
 41
1.24
 42
50.0
 43
0.0
 44
0.0
 50
0.0
 51
0.0
 71
     0
 72
   100
 73
     1
 74
     3
 75
     0
 76
     0
 77
     0
 78
     0
  0
ENDTAB
  0
TABLE
  2
LTYPE
  5
5
330
0
100
AcDbSymbolTable
 70
     1
  0
LTYPE
  5
14
330
5
100
AcDbSymbolTableRecord
100
AcDbLinetypeTableRecord
  2
BYBLOCK
 70
     0
  3

 72
    65
 73
     0
 40
0.0
  0
LTYPE
  5
15
330
5
100
AcDbSymbolTableRecord
100
AcDbLinetypeTableRecord
  2
BYLAYER
 70
     0
  3

 72
    65
 73
     0
 40
0.0
  0
LTYPE
  5
16
330
5
100
AcDbSymbolTableRecord
100
AcDbLinetypeTableRecord
  2
CONTINUOUS
 70
     0
  3
Solid line
 72
    65
 73
     0
 40
0.0
  0
ENDTAB
  0
TABLE
  2
LAYER
  5
2
100
AcDbSymbolTable
 70
1
  0
LAYER
  5
50
100
AcDbSymbolTableRecord
100
AcDbLayerTableRecord
  2
0
 70
0
  6
CONTINUOUS
  0
ENDTAB
  0
TABLE
  2
STYLE
  5
3
330
0
100
AcDbSymbolTable
 70
     1
  0
STYLE
  5
11
330
3
100
AcDbSymbolTableRecord
100
AcDbTextStyleTableRecord
  2
STANDARD
 70
     0
 40
0.0
 41
1.0
 50
0.0
 71
     0
 42
2.5
  3
txt
  4

  0
ENDTAB
  0
TABLE
  2
VIEW
  5
6
330
0
100
AcDbSymbolTable
 70
     0
  0
ENDTAB
  0
TABLE
  2
UCS
  5
7
330
0
100
AcDbSymbolTable
 70
     0
  0
ENDTAB
  0
TABLE
  2
APPID
  5
9
330
0
100
AcDbSymbolTable
 70
     2
  0
APPID
  5
12
330
9
100
AcDbSymbolTableRecord
100
AcDbRegAppTableRecord
  2
ACAD
 70
     0
  0
ENDTAB
  0
TABLE
  2
DIMSTYLE
  5
A
330
0
100
AcDbSymbolTable
 70
     1
  0
DIMSTYLE
105
27
330
A
100
AcDbSymbolTableRecord
100
AcDbDimStyleTableRecord
  2
ISO-25
 70
     0
  3

  4

  5

  6

  7

 40
1.0
 41
2.5
 42
0.625
 43
3.75
 44
1.25
 45
0.0
 46
0.0
 47
0.0
 48
0.0
140
2.5
141
2.5
142
0.0
143
0.03937007874016
144
1.0
145
0.0
146
1.0
147
0.625
 71
     0
 72
     0
 73
     0
 74
     0
 75
     0
 76
     0
 77
     1
 78
     8
170
     0
171
     3
172
     1
173
     0
174
     0
175
     0
176
     0
177
     0
178
     0
270
     2
271
     2
272
     2
273
     2
274
     3
340
11
275
     0
280
     0
281
     0
282
     0
283
     0
284
     8
285
     0
286
     0
287
     3
288
     0
  0
ENDTAB
  0
TABLE
  2
BLOCK_RECORD
  5
1
330
0
100
AcDbSymbolTable
 70
     1
  0
BLOCK_RECORD
  5
1F
330
1
100
AcDbSymbolTableRecord
100
AcDbBlockTableRecord
  2
*MODEL_SPACE
  0
BLOCK_RECORD
  5
1B
330
1
100
AcDbSymbolTableRecord
100
AcDbBlockTableRecord
  2
*PAPER_SPACE
  0
ENDTAB
  0
ENDSEC
  0
SECTION
  2
BLOCKS
  0
BLOCK
  5
20
330
1F
100
AcDbEntity
  8
0
100
AcDbBlockBegin
  2
*MODEL_SPACE
 70
     0
 10
0.0
 20
0.0
 30
0.0
  3
*MODEL_SPACE
  1

  0
ENDBLK
  5
21
330
1F
100
AcDbEntity
  8
0
100
AcDbBlockEnd
  0
BLOCK
  5
1C
330
1B
100
AcDbEntity
 67
     1
  8
0
100
AcDbBlockBegin
  2
*PAPER_SPACE
  1

  0
ENDBLK
  5
1D
330
1B
100
AcDbEntity
 67
     1
  8
0
100
AcDbBlockEnd
  0
ENDSEC
  0
SECTION
  2
ENTITIES
  0
LWPOLYLINE
  5
100
100
AcDbEntity
  8
0
 62
7
100
AcDbPolyline
 90
25
 70
0
 10
204.404299
 20
172.209797
 30
0.0
 10
204.082100
 20
172.343297
 30
0.0
 10
203.805499
 20
172.555497
 30
0.0
 10
203.593299
 20
172.832196
 30
0.0
 10
203.459800
 20
173.154296
 30
0.0
 10
203.414300
 20
173.499996
 30
0.0
 10
203.459800
 20
173.845695
 30
0.0
 10
203.593299
 20
174.167796
 30
0.0
 10
203.805499
 20
174.444498
 30
0.0
 10
204.082100
 20
174.656698
 30
0.0
 10
204.404299
 20
174.790197
 30
0.0
 10
204.749998
 20
174.835697
 30
0.0
 10
205.096000
 20
174.790197
 30
0.0
 10
205.417999
 20
174.656698
 30
0.0
 10
205.693998
 20
174.444498
 30
0.0
 10
205.906999
 20
174.167796
 30
0.0
 10
206.039999
 20
173.845695
 30
0.0
 10
206.085999
 20
173.499996
 30
0.0
 10
206.039999
 20
173.154296
 30
0.0
 10
205.906999
 20
172.832196
 30
0.0
 10
205.693998
 20
172.555497
 30
0.0
 10
205.417999
 20
172.343297
 30
0.0
 10
205.096000
 20
172.209797
 30
0.0
 10
204.749998
 20
172.164297
 30
0.0
 10
204.404299
 20
172.209797
 30
0.0
  0
LWPOLYLINE
  5
101
100
AcDbEntity
  8
0
 62
7
100
AcDbPolyline
 90
25
 70
0
 10
4.903998
 20
172.209797
 30
0.0
 10
4.581999
 20
172.343297
 30
0.0
 10
4.306000
 20
172.555497
 30
0.0
 10
4.092998
 20
172.832196
 30
0.0
 10
3.959998
 20
173.154296
 30
0.0
 10
3.913999
 20
173.499996
 30
0.0
 10
3.959998
 20
173.845695
 30
0.0
 10
4.092998
 20
174.167796
 30
0.0
 10
4.306000
 20
174.444498
 30
0.0
 10
4.581999
 20
174.656698
 30
0.0
 10
4.903998
 20
174.790197
 30
0.0
 10
5.249999
 20
174.835697
 30
0.0
 10
5.595699
 20
174.790197
 30
0.0
 10
5.917898
 20
174.656698
 30
0.0
 10
6.194498
 20
174.444498
 30
0.0
 10
6.406698
 20
174.167796
 30
0.0
 10
6.540198
 20
173.845695
 30
0.0
 10
6.585698
 20
173.499996
 30
0.0
 10
6.540198
 20
173.154296
 30
0.0
 10
6.406698
 20
172.832196
 30
0.0
 10
6.194498
 20
172.555497
 30
0.0
 10
5.917898
 20
172.343297
 30
0.0
 10
5.595699
 20
172.209797
 30
0.0
 10
5.249999
 20
172.164297
 30
0.0
 10
4.903998
 20
172.209797
 30
0.0
  0
LWPOLYLINE
  5
102
100
AcDbEntity
  8
0
 62
7
100
AcDbPolyline
 90
25
 70
0
 10
104.654310
 20
152.209809
 30
0.0
 10
104.332168
 20
152.343244
 30
0.0
 10
104.055539
 20
152.555531
 30
0.0
 10
103.843280
 20
152.832137
 30
0.0
 10
103.709840
 20
153.154294
 30
0.0
 10
103.664320
 20
153.499988
 30
0.0
 10
103.709840
 20
153.845654
 30
0.0
 10
103.843280
 20
154.167839
 30
0.0
 10
104.055539
 20
154.444445
 30
0.0
 10
104.332168
 20
154.656704
 30
0.0
 10
104.654310
 20
154.790167
 30
0.0
 10
104.999999
 20
154.835689
 30
0.0
 10
105.345687
 20
154.790167
 30
0.0
 10
105.667830
 20
154.656704
 30
0.0
 10
105.944456
 20
154.444445
 30
0.0
 10
106.156718
 20
154.167839
 30
0.0
 10
106.290158
 20
153.845654
 30
0.0
 10
106.335678
 20
153.499988
 30
0.0
 10
106.290158
 20
153.154294
 30
0.0
 10
106.156718
 20
152.832137
 30
0.0
 10
105.944456
 20
152.555531
 30
0.0
 10
105.667830
 20
152.343244
 30
0.0
 10
105.345687
 20
152.209809
 30
0.0
 10
104.999999
 20
152.164315
 30
0.0
 10
104.654310
 20
152.209809
 30
0.0
  0
LWPOLYLINE
  5
103
100
AcDbEntity
  8
0
 62
7
100
AcDbPolyline
 90
25
 70
0
 10
104.654310
 20
142.209829
 30
0.0
 10
104.332168
 20
142.343264
 30
0.0
 10
104.055539
 20
142.555523
 30
0.0
 10
103.843280
 20
142.832157
 30
0.0
 10
103.709840
 20
143.154314
 30
0.0
 10
103.664320
 20
143.500008
 30
0.0
 10
103.709840
 20
143.845674
 30
0.0
 10
103.843280
 20
144.167859
 30
0.0
 10
104.055539
 20
144.444465
 30
0.0
 10
104.332168
 20
144.656724
 30
0.0
 10
104.654310
 20
144.790187
 30
0.0
 10
104.999999
 20
144.835681
 30
0.0
 10
105.345687
 20
144.790187
 30
0.0
 10
105.667830
 20
144.656724
 30
0.0
 10
105.944456
 20
144.444465
 30
0.0
 10
106.156718
 20
144.167859
 30
0.0
 10
106.290158
 20
143.845674
 30
0.0
 10
106.335678
 20
143.500008
 30
0.0
 10
106.290158
 20
143.154314
 30
0.0
 10
106.156718
 20
142.832157
 30
0.0
 10
105.944456
 20
142.555523
 30
0.0
 10
105.667830
 20
142.343264
 30
0.0
 10
105.345687
 20
142.209829
 30
0.0
 10
104.999999
 20
142.164307
 30
0.0
 10
104.654310
 20
142.209829
 30
0.0
  0
LWPOLYLINE
  5
104
100
AcDbEntity
  8
0
 62
7
100
AcDbPolyline
 90
25
 70
0
 10
204.404299
 20
122.209784
 30
0.0
 10
204.082100
 20
122.343304
 30
0.0
 10
203.805499
 20
122.555507
 30
0.0
 10
203.593299
 20
122.832197
 30
0.0
 10
203.459800
 20
123.154297
 30
0.0
 10
203.414300
 20
123.499991
 30
0.0
 10
203.459800
 20
123.845685
 30
0.0
 10
203.593299
 20
124.167899
 30
0.0
 10
203.805499
 20
124.444505
 30
0.0
 10
204.082100
 20
124.656707
 30
0.0
 10
204.404299
 20
124.790199
 30
0.0
 10
204.749998
 20
124.835693
 30
0.0
 10
205.096000
 20
124.790199
 30
0.0
 10
205.417999
 20
124.656707
 30
0.0
 10
205.693998
 20
124.444505
 30
0.0
 10
205.906999
 20
124.167899
 30
0.0
 10
206.039999
 20
123.845685
 30
0.0
 10
206.085999
 20
123.499991
 30
0.0
 10
206.039999
 20
123.154297
 30
0.0
 10
205.906999
 20
122.832197
 30
0.0
 10
205.693998
 20
122.555507
 30
0.0
 10
205.417999
 20
122.343304
 30
0.0
 10
205.096000
 20
122.209784
 30
0.0
 10
204.749998
 20
122.164290
 30
0.0
 10
204.404299
 20
122.209784
 30
0.0
  0
LWPOLYLINE
  5
105
100
AcDbEntity
  8
0
 62
7
100
AcDbPolyline
 90
25
 70
0
 10
4.903998
 20
122.209784
 30
0.0
 10
4.581999
 20
122.343304
 30
0.0
 10
4.306000
 20
122.555507
 30
0.0
 10
4.092998
 20
122.832197
 30
0.0
 10
3.959998
 20
123.154297
 30
0.0
 10
3.913999
 20
123.499991
 30
0.0
 10
3.959998
 20
123.845685
 30
0.0
 10
4.092998
 20
124.167899
 30
0.0
 10
4.306000
 20
124.444505
 30
0.0
 10
4.581999
 20
124.656707
 30
0.0
 10
4.903998
 20
124.790199
 30
0.0
 10
5.249999
 20
124.835693
 30
0.0
 10
5.595699
 20
124.790199
 30
0.0
 10
5.917898
 20
124.656707
 30
0.0
 10
6.194498
 20
124.444505
 30
0.0
 10
6.406698
 20
124.167899
 30
0.0
 10
6.540198
 20
123.845685
 30
0.0
 10
6.585698
 20
123.499991
 30
0.0
 10
6.540198
 20
123.154297
 30
0.0
 10
6.406698
 20
122.832197
 30
0.0
 10
6.194498
 20
122.555507
 30
0.0
 10
5.917898
 20
122.343304
 30
0.0
 10
5.595699
 20
122.209784
 30
0.0
 10
5.249999
 20
122.164290
 30
0.0
 10
4.903998
 20
122.209784
 30
0.0
  0
LWPOLYLINE
  5
106
100
AcDbEntity
  8
0
 62
7
100
AcDbPolyline
 90
69
 70
0
 10
209.842997
 20
88.016335
 30
0.0
 10
210.182999
 20
88.066740
 30
0.0
 10
210.515999
 20
88.150137
 30
0.0
 10
210.839998
 20
88.265933
 30
0.0
 10
211.150000
 20
88.412829
 30
0.0
 10
211.444998
 20
88.589416
 30
0.0
 10
211.721000
 20
88.794027
 30
0.0
 10
211.975000
 20
89.024715
 30
0.0
 10
212.205999
 20
89.279336
 30
0.0
 10
212.411000
 20
89.555237
 30
0.0
 10
212.586999
 20
89.849820
 30
0.0
 10
212.734000
 20
90.160434
 30
0.0
 10
212.849999
 20
90.483832
 30
0.0
 10
212.932998
 20
90.817137
 30
0.0
 10
212.983998
 20
91.156932
 30
0.0
 10
213.000000
 20
91.487725
 30
0.0
 10
212.999997
 20
205.512327
 30
0.0
 10
212.983995
 20
205.843128
 30
0.0
 10
212.932998
 20
206.182927
 30
0.0
 10
212.849999
 20
206.516228
 30
0.0
 10
212.734000
 20
206.839627
 30
0.0
 10
212.586999
 20
207.150229
 30
0.0
 10
212.411000
 20
207.444827
 30
0.0
 10
212.205999
 20
207.720727
 30
0.0
 10
211.975000
 20
207.975328
 30
0.0
 10
211.721000
 20
208.206028
 30
0.0
 10
211.444998
 20
208.410628
 30
0.0
 10
211.150000
 20
208.587228
 30
0.0
 10
210.839998
 20
208.734128
 30
0.0
 10
210.515999
 20
208.849927
 30
0.0
 10
210.182999
 20
208.933326
 30
0.0
 10
209.842997
 20
208.983728
 30
0.0
 10
209.511999
 20
209.000041
 30
0.0
 10
0.487999
 20
209.000026
 30
0.0
 10
0.157000
 20
208.983714
 30
0.0
 10
-0.183001
 20
208.933326
 30
0.0
 10
-0.516001
 20
208.849927
 30
0.0
 10
-0.840001
 20
208.734128
 30
0.0
 10
-1.150002
 20
208.587228
 30
0.0
 10
-1.445000
 20
208.410628
 30
0.0
 10
-1.721002
 20
208.206028
 30
0.0
 10
-1.975002
 20
207.975328
 30
0.0
 10
-2.206001
 20
207.720727
 30
0.0
 10
-2.411002
 20
207.444827
 30
0.0
 10
-2.587001
 20
207.150229
 30
0.0
 10
-2.734002
 20
206.839627
 30
0.0
 10
-2.850001
 20
206.516228
 30
0.0
 10
-2.933000
 20
206.182927
 30
0.0
 10
-2.984000
 20
205.843128
 30
0.0
 10
-3.000002
 20
205.512327
 30
0.0
 10
-3.000000
 20
91.487725
 30
0.0
 10
-2.983998
 20
91.156932
 30
0.0
 10
-2.933000
 20
90.817137
 30
0.0
 10
-2.850001
 20
90.483832
 30
0.0
 10
-2.734002
 20
90.160434
 30
0.0
 10
-2.587001
 20
89.849820
 30
0.0
 10
-2.411002
 20
89.555237
 30
0.0
 10
-2.206001
 20
89.279336
 30
0.0
 10
-1.975002
 20
89.024715
 30
0.0
 10
-1.721002
 20
88.794027
 30
0.0
 10
-1.445000
 20
88.589416
 30
0.0
 10
-1.150002
 20
88.412829
 30
0.0
 10
-0.840001
 20
88.265933
 30
0.0
 10
-0.516001
 20
88.150137
 30
0.0
 10
-0.183001
 20
88.066740
 30
0.0
 10
0.157000
 20
88.016335
 30
0.0
 10
0.487999
 20
87.999966
 30
0.0
 10
209.511999
 20
88.000023
 30
0.0
 10
209.842997
 20
88.016392
 30
0.0
  0
LWPOLYLINE
  5
107
100
AcDbEntity
  8
0
 62
7
100
AcDbPolyline
 90
124
 70
0
 10
50.521901
 20
167.919297
 30
0.0
 10
52.456961
 20
167.884948
 30
0.0
 10
54.918723
 20
167.650218
 30
0.0
 10
57.386209
 20
167.272367
 30
0.0
 10
59.819348
 20
166.757114
 30
0.0
 10
62.178057
 20
166.115911
 30
0.0
 10
64.427992
 20
165.360210
 30
0.0
 10
66.529080
 20
164.507179
 30
0.0
 10
68.446963
 20
163.562551
 30
0.0
 10
70.141572
 20
162.537771
 30
0.0
 10
70.485073
 20
162.297320
 30
0.0
 10
71.498404
 20
161.873668
 30
0.0
 10
72.471661
 20
161.369865
 30
0.0
 10
73.399114
 20
160.797360
 30
0.0
 10
74.280768
 20
160.156148
 30
0.0
 10
75.889502
 20
158.690548
 30
0.0
 10
77.269233
 20
156.990213
 30
0.0
 10
77.858911
 20
156.068487
 30
0.0
 10
78.385611
 20
155.095240
 30
0.0
 10
78.837889
 20
154.081896
 30
0.0
 10
79.221465
 20
153.022778
 30
0.0
 10
79.519168
 20
151.935026
 30
0.0
 10
79.742445
 20
150.812919
 30
0.0
 10
79.788244
 20
150.412161
 30
0.0
 10
69.557621
 20
150.412161
 30
0.0
 10
69.357243
 20
150.790011
 30
0.0
 10
68.830543
 20
151.419759
 30
0.0
 10
68.200786
 20
151.946470
 30
0.0
 10
67.473709
 20
152.335762
 30
0.0
 10
66.672203
 20
152.587662
 30
0.0
 10
65.813452
 20
152.673537
 30
0.0
 10
64.954695
 20
152.587662
 30
0.0
 10
64.153195
 20
152.335762
 30
0.0
 10
63.426114
 20
151.946470
 30
0.0
 10
62.796361
 20
151.419759
 30
0.0
 10
62.269658
 20
150.790011
 30
0.0
 10
61.880358
 20
150.062942
 30
0.0
 10
61.628455
 20
149.261422
 30
0.0
 10
61.542580
 20
148.402682
 30
0.0
 10
61.628455
 20
147.543922
 30
0.0
 10
61.880358
 20
146.742422
 30
0.0
 10
62.269658
 20
146.015333
 30
0.0
 10
62.796361
 20
145.385585
 30
0.0
 10
63.426114
 20
144.864597
 30
0.0
 10
64.153195
 20
144.469579
 30
0.0
 10
64.954695
 20
144.223403
 30
0.0
 10
65.813452
 20
144.137528
 30
0.0
 10
66.672203
 20
144.223403
 30
0.0
 10
67.473709
 20
144.469579
 30
0.0
 10
68.200786
 20
144.864597
 30
0.0
 10
68.830543
 20
145.385585
 30
0.0
 10
69.357243
 20
146.015333
 30
0.0
 10
69.746546
 20
146.742422
 30
0.0
 10
69.763705
 20
146.793942
 30
0.0
 10
79.816853
 20
146.793942
 30
0.0
 10
79.593575
 20
145.356951
 30
0.0
 10
79.198552
 20
143.874184
 30
0.0
 10
78.660399
 20
142.460104
 30
0.0
 10
77.984844
 20
141.114708
 30
0.0
 10
77.183338
 20
139.860930
 30
0.0
 10
76.267335
 20
138.698747
 30
0.0
 10
75.242555
 20
137.633906
 30
0.0
 10
75.265444
 20
137.359095
 30
0.0
 10
75.391394
 20
136.271346
 30
0.0
 10
75.608945
 20
135.366784
 30
0.0
 10
75.946722
 20
134.565287
 30
0.0
 10
76.427624
 20
133.786678
 30
0.0
 10
77.126078
 20
133.002346
 30
0.0
 10
77.944757
 20
132.292444
 30
0.0
 10
79.313038
 20
131.468036
 30
0.0
 10
80.910323
 20
130.786766
 30
0.0
 10
82.788131
 20
130.231423
 30
0.0
 10
84.997993
 20
129.784888
 30
0.0
 10
85.427368
 20
129.699014
 30
0.0
 10
85.341494
 20
129.624586
 30
0.0
 10
83.990389
 20
129.298255
 30
0.0
 10
82.295780
 20
129.080710
 30
0.0
 10
78.482910
 20
129.080710
 30
0.0
 10
76.015421
 20
129.315420
 30
0.0
 10
73.547935
 20
129.693293
 30
0.0
 10
71.114799
 20
130.208535
 30
0.0
 10
68.756087
 20
130.849730
 30
0.0
 10
66.506152
 20
131.605453
 30
0.0
 10
64.405064
 20
132.458470
 30
0.0
 10
62.487181
 20
133.403107
 30
0.0
 10
60.792574
 20
134.427870
 30
0.0
 10
60.380372
 20
134.725592
 30
0.0
 10
59.384215
 20
135.160683
 30
0.0
 10
58.422410
 20
135.664483
 30
0.0
 10
56.641927
 20
136.883929
 30
0.0
 10
55.061818
 20
138.349531
 30
0.0
 10
53.704987
 20
140.038400
 30
0.0
 10
52.605782
 20
141.927672
 30
0.0
 10
52.159230
 20
142.935270
 30
0.0
 10
51.787103
 20
143.982947
 30
0.0
 10
51.489401
 20
145.059255
 30
0.0
 10
51.277574
 20
146.175638
 30
0.0
 10
51.145900
 20
147.314910
 30
0.0
 10
51.100101
 20
148.482836
 30
0.0
 10
51.180249
 20
150.057198
 30
0.0
 10
51.420700
 20
151.585787
 30
0.0
 10
51.810003
 20
153.051387
 30
0.0
 10
52.342429
 20
154.454026
 30
0.0
 10
53.006535
 20
155.787955
 30
0.0
 10
53.790864
 20
157.036009
 30
0.0
 10
54.695417
 20
158.192471
 30
0.0
 10
55.703021
 20
159.251612
 30
0.0
 10
55.674398
 20
159.600828
 30
0.0
 10
55.548448
 20
160.688583
 30
0.0
 10
55.325171
 20
161.593142
 30
0.0
 10
54.987396
 20
162.394645
 30
0.0
 10
54.506492
 20
163.173245
 30
0.0
 10
53.808040
 20
163.957577
 30
0.0
 10
52.995085
 20
164.673205
 30
0.0
 10
51.626804
 20
165.497610
 30
0.0
 10
50.029519
 20
166.173160
 30
0.0
 10
48.151711
 20
166.728491
 30
0.0
 10
45.941849
 20
167.175040
 30
0.0
 10
45.512471
 20
167.260920
 30
0.0
 10
45.598348
 20
167.335342
 30
0.0
 10
46.949453
 20
167.661670
 30
0.0
 10
48.644062
 20
167.879224
 30
0.0
 10
50.521873
 20
167.919297
 30
0.0
 10
50.521873
 20
167.919297
 30
0.0
  0
LWPOLYLINE
  5
108
100
AcDbEntity
  8
0
 62
7
100
AcDbPolyline
 90
97
 70
0
 10
131.414341
 20
154.857102
 30
0.0
 10
131.050330
 20
154.285702
 30
0.0
 10
130.424348
 20
153.083224
 30
0.0
 10
129.905568
 20
151.830764
 30
0.0
 10
129.497922
 20
150.537842
 30
0.0
 10
129.351289
 20
149.876404
 30
0.0
 10
124.528507
 20
149.179827
 30
0.0
 10
124.528507
 20
143.851968
 30
0.0
 10
129.351305
 20
143.155345
 30
0.0
 10
129.497922
 20
142.493953
 30
0.0
 10
129.905568
 20
141.201030
 30
0.0
 10
130.424348
 20
139.948570
 30
0.0
 10
131.050330
 20
138.746092
 30
0.0
 10
131.414309
 20
138.174738
 30
0.0
 10
128.496757
 20
134.271927
 30
0.0
 10
132.264030
 20
130.504624
 30
0.0
 10
136.166827
 20
133.422203
 30
0.0
 10
136.738193
 20
133.058216
 30
0.0
 10
137.940704
 20
132.432234
 30
0.0
 10
142.168448
 20
141.498706
 30
0.0
 10
141.848248
 20
141.644905
 30
0.0
 10
141.182100
 20
142.072993
 30
0.0
 10
140.583673
 20
142.591569
 30
0.0
 10
140.065133
 20
143.189989
 30
0.0
 10
139.637044
 20
143.856118
 30
0.0
 10
139.308102
 20
144.576423
 30
0.0
 10
139.085019
 20
145.336199
 30
0.0
 10
138.972302
 20
146.119973
 30
0.0
 10
138.972302
 20
146.911821
 30
0.0
 10
139.085019
 20
147.695595
 30
0.0
 10
139.308102
 20
148.455371
 30
0.0
 10
139.637044
 20
149.175676
 30
0.0
 10
140.065133
 20
149.841805
 30
0.0
 10
140.583673
 20
150.440225
 30
0.0
 10
141.182100
 20
150.958757
 30
0.0
 10
141.848248
 20
151.386889
 30
0.0
 10
142.568534
 20
151.715826
 30
0.0
 10
143.328310
 20
151.938891
 30
0.0
 10
144.112092
 20
152.051619
 30
0.0
 10
144.903942
 20
152.051619
 30
0.0
 10
145.687724
 20
151.938891
 30
0.0
 10
146.447500
 20
151.715826
 30
0.0
 10
147.167785
 20
151.386889
 30
0.0
 10
147.833934
 20
150.958757
 30
0.0
 10
148.432360
 20
150.440225
 30
0.0
 10
148.950901
 20
149.841805
 30
0.0
 10
149.378989
 20
149.175676
 30
0.0
 10
149.707932
 20
148.455371
 30
0.0
 10
149.931015
 20
147.695595
 30
0.0
 10
150.043731
 20
146.911821
 30
0.0
 10
150.043731
 20
146.119973
 30
0.0
 10
149.931015
 20
145.336199
 30
0.0
 10
149.707932
 20
144.576423
 30
0.0
 10
149.378989
 20
143.856118
 30
0.0
 10
148.950901
 20
143.189989
 30
0.0
 10
148.432360
 20
142.591569
 30
0.0
 10
147.833934
 20
142.072993
 30
0.0
 10
147.167785
 20
141.644905
 30
0.0
 10
146.847586
 20
141.498706
 30
0.0
 10
151.075330
 20
132.432234
 30
0.0
 10
152.277840
 20
133.058216
 30
0.0
 10
152.849190
 20
133.422203
 30
0.0
 10
156.751988
 20
130.504624
 30
0.0
 10
160.519276
 20
134.271927
 30
0.0
 10
157.601693
 20
138.174693
 30
0.0
 10
157.965703
 20
138.746092
 30
0.0
 10
158.591685
 20
139.948570
 30
0.0
 10
159.110465
 20
141.201030
 30
0.0
 10
159.518111
 20
142.493953
 30
0.0
 10
159.664745
 20
143.155390
 30
0.0
 10
164.487527
 20
143.851968
 30
0.0
 10
164.487527
 20
149.179827
 30
0.0
 10
159.664729
 20
149.876449
 30
0.0
 10
159.518111
 20
150.537842
 30
0.0
 10
159.110465
 20
151.830764
 30
0.0
 10
158.591685
 20
153.083224
 30
0.0
 10
157.965703
 20
154.285702
 30
0.0
 10
157.601725
 20
154.857057
 30
0.0
 10
160.519276
 20
158.759868
 30
0.0
 10
156.752004
 20
162.527170
 30
0.0
 10
152.849207
 20
159.609591
 30
0.0
 10
152.277840
 20
159.973578
 30
0.0
 10
151.075330
 20
160.599560
 30
0.0
 10
149.822886
 20
161.118362
 30
0.0
 10
148.529956
 20
161.525970
 30
0.0
 10
147.868538
 20
161.672620
 30
0.0
 10
147.171941
 20
166.495390
 30
0.0
 10
141.844093
 20
166.495390
 30
0.0
 10
141.147479
 20
161.672620
 30
0.0
 10
140.486078
 20
161.525970
 30
0.0
 10
139.193147
 20
161.118362
 30
0.0
 10
137.940704
 20
160.599560
 30
0.0
 10
136.738193
 20
159.973578
 30
0.0
 10
136.166843
 20
159.609591
 30
0.0
 10
132.264045
 20
162.527170
 30
0.0
 10
128.496757
 20
158.759868
 30
0.0
 10
131.414341
 20
154.857102
 30
0.0
  0
ENDSEC
  0
SECTION
  2
OBJECTS
  0
DICTIONARY
  5
C
330
0
100
AcDbDictionary
  3
ACAD_GROUP
350
D
  3
ACAD_MLINESTYLE
350
17
  0
DICTIONARY
  5
D
330
C
100
AcDbDictionary
  0
DICTIONARY
  5
1A
330
C
100
AcDbDictionary
  0
DICTIONARY
  5
17
330
C
100
AcDbDictionary
  3
STANDARD
350
18
  0
DICTIONARY
  5
19
330
C
100
AcDbDictionary
  0
ENDSEC
  0
EOF
