solid OpenSCAD_Model
  facet normal -1 0 0
    outer loop
      vertex -8.65 20.1647 1.5
      vertex -8.65 35.5 1.5
      vertex -8.65 20.1647 -1.5
    endloop
  endfacet
  facet normal -1 0 0
    outer loop
      vertex -8.65 20.1647 -1.5
      vertex -8.65 35.5 1.5
      vertex -8.65 35.5 -1.5
    endloop
  endfacet
  facet normal -0.707107 -0.707107 1.57009e-16
    outer loop
      vertex -6.98528 18.5 -1.5
      vertex -6.98528 18.5 1.5
      vertex -8.65 20.1647 -1.5
    endloop
  endfacet
  facet normal -0.707107 -0.707107 1.57009e-16
    outer loop
      vertex -8.65 20.1647 -1.5
      vertex -6.98528 18.5 1.5
      vertex -8.65 20.1647 1.5
    endloop
  endfacet
  facet normal 0 -2.22045e-16 -1
    outer loop
      vertex 1.35447e-15 26.1 -1.5
      vertex -2.77208 35.5 -1.5
      vertex 8.65 24.0779 -1.5
    endloop
  endfacet
  facet normal 0 -2.22045e-16 -1
    outer loop
      vertex 5.28275 23.05 -1.5
      vertex 8.65 24.0779 -1.5
      vertex 8.65 18.5 -1.5
    endloop
  endfacet
  facet normal 0 -2.22045e-16 -1
    outer loop
      vertex 1.35447e-15 26.1 -1.5
      vertex 8.65 24.0779 -1.5
      vertex 5.28275 23.05 -1.5
    endloop
  endfacet
  facet normal 0 -2.22045e-16 -1
    outer loop
      vertex -2.5 30 -1.5
      vertex -2.77208 35.5 -1.5
      vertex 1.35447e-15 26.1 -1.5
    endloop
  endfacet
  facet normal 0 -2.22045e-16 -1
    outer loop
      vertex -5.28275 18.5 -1.5
      vertex -8.65 20.1647 -1.5
      vertex -5.28275 23.05 -1.5
    endloop
  endfacet
  facet normal 0 -2.22045e-16 -1
    outer loop
      vertex -5.21352 29.1183 -1.5
      vertex -8.65 20.1647 -1.5
      vertex -5.42658 29.5365 -1.5
    endloop
  endfacet
  facet normal 0 -2.22045e-16 -1
    outer loop
      vertex -8.65 20.1647 -1.5
      vertex -5.28275 18.5 -1.5
      vertex -6.98528 18.5 -1.5
    endloop
  endfacet
  facet normal 0 -2.22045e-16 -1
    outer loop
      vertex -8.65 35.5 -1.5
      vertex -5.5 30 -1.5
      vertex -8.65 20.1647 -1.5
    endloop
  endfacet
  facet normal 0 -2.22045e-16 -1
    outer loop
      vertex -5.21352 30.8817 -1.5
      vertex -2.77208 35.5 -1.5
      vertex -4.88168 31.2135 -1.5
    endloop
  endfacet
  facet normal 0 -2.22045e-16 -1
    outer loop
      vertex -5.5 30 -1.5
      vertex -5.42658 29.5365 -1.5
      vertex -8.65 20.1647 -1.5
    endloop
  endfacet
  facet normal 0 -2.22045e-16 -1
    outer loop
      vertex -4 28.5 -1.5
      vertex -5.28275 23.05 -1.5
      vertex -4.46352 28.5734 -1.5
    endloop
  endfacet
  facet normal 0 -2.22045e-16 -1
    outer loop
      vertex -8.65 20.1647 -1.5
      vertex -5.21352 29.1183 -1.5
      vertex -5.28275 23.05 -1.5
    endloop
  endfacet
  facet normal 0 -2.22045e-16 -1
    outer loop
      vertex -5.21352 29.1183 -1.5
      vertex -4.88168 28.7865 -1.5
      vertex -5.28275 23.05 -1.5
    endloop
  endfacet
  facet normal 0 -2.22045e-16 -1
    outer loop
      vertex -4.46352 31.4266 -1.5
      vertex -2.77208 35.5 -1.5
      vertex -4 31.5 -1.5
    endloop
  endfacet
  facet normal 0 -2.22045e-16 -1
    outer loop
      vertex -4.88168 28.7865 -1.5
      vertex -4.46352 28.5734 -1.5
      vertex -5.28275 23.05 -1.5
    endloop
  endfacet
  facet normal 0 -2.22045e-16 -1
    outer loop
      vertex -4 31.5 -1.5
      vertex -2.77208 35.5 -1.5
      vertex -3.53647 31.4266 -1.5
    endloop
  endfacet
  facet normal 0 -2.22045e-16 -1
    outer loop
      vertex -5.28275 23.05 -1.5
      vertex -4 28.5 -1.5
      vertex 1.35447e-15 26.1 -1.5
    endloop
  endfacet
  facet normal 0 -2.22045e-16 -1
    outer loop
      vertex -4 28.5 -1.5
      vertex -3.53647 28.5734 -1.5
      vertex 1.35447e-15 26.1 -1.5
    endloop
  endfacet
  facet normal 0 -2.22045e-16 -1
    outer loop
      vertex -3.53647 31.4266 -1.5
      vertex -2.77208 35.5 -1.5
      vertex -3.11832 31.2135 -1.5
    endloop
  endfacet
  facet normal 0 -2.22045e-16 -1
    outer loop
      vertex -3.53647 28.5734 -1.5
      vertex -3.11832 28.7865 -1.5
      vertex 1.35447e-15 26.1 -1.5
    endloop
  endfacet
  facet normal 0 -2.22045e-16 -1
    outer loop
      vertex -3.11832 31.2135 -1.5
      vertex -2.77208 35.5 -1.5
      vertex -2.78647 30.8817 -1.5
    endloop
  endfacet
  facet normal 0 -2.22045e-16 -1
    outer loop
      vertex -3.11832 28.7865 -1.5
      vertex -2.78647 29.1183 -1.5
      vertex 1.35447e-15 26.1 -1.5
    endloop
  endfacet
  facet normal 0 -2.22045e-16 -1
    outer loop
      vertex -2.78647 29.1183 -1.5
      vertex -2.57341 29.5365 -1.5
      vertex 1.35447e-15 26.1 -1.5
    endloop
  endfacet
  facet normal 0 -2.22045e-16 -1
    outer loop
      vertex -2.57341 30.4635 -1.5
      vertex -2.77208 35.5 -1.5
      vertex -2.5 30 -1.5
    endloop
  endfacet
  facet normal 0 -2.22045e-16 -1
    outer loop
      vertex -2.57341 29.5365 -1.5
      vertex -2.5 30 -1.5
      vertex 1.35447e-15 26.1 -1.5
    endloop
  endfacet
  facet normal 0 -2.22045e-16 -1
    outer loop
      vertex -2.78647 30.8817 -1.5
      vertex -2.77208 35.5 -1.5
      vertex -2.57341 30.4635 -1.5
    endloop
  endfacet
  facet normal 0 -2.22045e-16 -1
    outer loop
      vertex -8.65 35.5 -1.5
      vertex -2.77208 35.5 -1.5
      vertex -5.21352 30.8817 -1.5
    endloop
  endfacet
  facet normal 0 -2.22045e-16 -1
    outer loop
      vertex -8.65 35.5 -1.5
      vertex -5.21352 30.8817 -1.5
      vertex -5.42658 30.4635 -1.5
    endloop
  endfacet
  facet normal 0 -2.22045e-16 -1
    outer loop
      vertex -8.65 35.5 -1.5
      vertex -5.42658 30.4635 -1.5
      vertex -5.5 30 -1.5
    endloop
  endfacet
  facet normal 0 -2.22045e-16 -1
    outer loop
      vertex 5.28275 23.05 -1.5
      vertex 8.65 18.5 -1.5
      vertex 5.28275 18.5 -1.5
    endloop
  endfacet
  facet normal 0 -2.22045e-16 -1
    outer loop
      vertex -4.88168 31.2135 -1.5
      vertex -2.77208 35.5 -1.5
      vertex -4.46352 31.4266 -1.5
    endloop
  endfacet
  facet normal 0 1 -2.22045e-16
    outer loop
      vertex -8.65 35.5 1.5
      vertex -2.77208 35.5 1.5
      vertex -8.65 35.5 -1.5
    endloop
  endfacet
  facet normal 0 1 -2.22045e-16
    outer loop
      vertex -8.65 35.5 -1.5
      vertex -2.77208 35.5 1.5
      vertex -2.77208 35.5 -1.5
    endloop
  endfacet
  facet normal 0 2.22045e-16 1
    outer loop
      vertex -8.65 20.1647 1.5
      vertex -6.98528 18.5 1.5
      vertex -6.62509 18.5 1.5
    endloop
  endfacet
  facet normal 0 2.22045e-16 1
    outer loop
      vertex -5.21352 29.1183 1.5
      vertex -8.65 20.1647 1.5
      vertex -6.62509 24.825 1.5
    endloop
  endfacet
  facet normal 0 2.22045e-16 1
    outer loop
      vertex -6.62509 24.825 1.5
      vertex -8.65 20.1647 1.5
      vertex -6.62509 18.5 1.5
    endloop
  endfacet
  facet normal 0 2.22045e-16 1
    outer loop
      vertex -2.78647 29.1183 1.5
      vertex -6.62509 24.825 1.5
      vertex -1.69864e-15 28.65 1.5
    endloop
  endfacet
  facet normal 0 2.22045e-16 1
    outer loop
      vertex 8.65 24.0779 1.5
      vertex -1.69864e-15 28.65 1.5
      vertex 6.62509 24.825 1.5
    endloop
  endfacet
  facet normal 0 2.22045e-16 1
    outer loop
      vertex 8.65 18.5 1.5
      vertex 6.62509 24.825 1.5
      vertex 6.62509 18.5 1.5
    endloop
  endfacet
  facet normal 0 2.22045e-16 1
    outer loop
      vertex 8.65 24.0779 1.5
      vertex 6.62509 24.825 1.5
      vertex 8.65 18.5 1.5
    endloop
  endfacet
  facet normal 0 2.22045e-16 1
    outer loop
      vertex -2.77208 35.5 1.5
      vertex -1.69864e-15 28.65 1.5
      vertex 8.65 24.0779 1.5
    endloop
  endfacet
  facet normal 0 2.22045e-16 1
    outer loop
      vertex -8.65 35.5 1.5
      vertex -8.65 20.1647 1.5
      vertex -5.5 30 1.5
    endloop
  endfacet
  facet normal 0 2.22045e-16 1
    outer loop
      vertex -8.65 35.5 1.5
      vertex -5.5 30 1.5
      vertex -5.42658 30.4635 1.5
    endloop
  endfacet
  facet normal 0 2.22045e-16 1
    outer loop
      vertex -8.65 35.5 1.5
      vertex -5.21352 30.8817 1.5
      vertex -2.77208 35.5 1.5
    endloop
  endfacet
  facet normal 0 2.22045e-16 1
    outer loop
      vertex -8.65 35.5 1.5
      vertex -5.42658 30.4635 1.5
      vertex -5.21352 30.8817 1.5
    endloop
  endfacet
  facet normal 0 2.22045e-16 1
    outer loop
      vertex -4.88168 31.2135 1.5
      vertex -4.46352 31.4266 1.5
      vertex -2.77208 35.5 1.5
    endloop
  endfacet
  facet normal 0 2.22045e-16 1
    outer loop
      vertex -3.11832 28.7865 1.5
      vertex -3.53647 28.5734 1.5
      vertex -6.62509 24.825 1.5
    endloop
  endfacet
  facet normal 0 2.22045e-16 1
    outer loop
      vertex -3.53647 28.5734 1.5
      vertex -4 28.5 1.5
      vertex -6.62509 24.825 1.5
    endloop
  endfacet
  facet normal 0 2.22045e-16 1
    outer loop
      vertex -2.77208 35.5 1.5
      vertex -4 31.5 1.5
      vertex -3.53647 31.4266 1.5
    endloop
  endfacet
  facet normal 0 2.22045e-16 1
    outer loop
      vertex -2.77208 35.5 1.5
      vertex -3.11832 31.2135 1.5
      vertex -1.69864e-15 28.65 1.5
    endloop
  endfacet
  facet normal 0 2.22045e-16 1
    outer loop
      vertex -2.77208 35.5 1.5
      vertex -3.53647 31.4266 1.5
      vertex -3.11832 31.2135 1.5
    endloop
  endfacet
  facet normal 0 2.22045e-16 1
    outer loop
      vertex -3.11832 31.2135 1.5
      vertex -2.78647 30.8817 1.5
      vertex -1.69864e-15 28.65 1.5
    endloop
  endfacet
  facet normal 0 2.22045e-16 1
    outer loop
      vertex -2.57341 30.4635 1.5
      vertex -2.5 30 1.5
      vertex -1.69864e-15 28.65 1.5
    endloop
  endfacet
  facet normal 0 2.22045e-16 1
    outer loop
      vertex -4.88168 28.7865 1.5
      vertex -5.21352 29.1183 1.5
      vertex -6.62509 24.825 1.5
    endloop
  endfacet
  facet normal 0 2.22045e-16 1
    outer loop
      vertex -2.5 30 1.5
      vertex -2.57341 29.5365 1.5
      vertex -1.69864e-15 28.65 1.5
    endloop
  endfacet
  facet normal 0 2.22045e-16 1
    outer loop
      vertex -2.57341 29.5365 1.5
      vertex -2.78647 29.1183 1.5
      vertex -1.69864e-15 28.65 1.5
    endloop
  endfacet
  facet normal 0 2.22045e-16 1
    outer loop
      vertex -3.11832 28.7865 1.5
      vertex -6.62509 24.825 1.5
      vertex -2.78647 29.1183 1.5
    endloop
  endfacet
  facet normal 0 2.22045e-16 1
    outer loop
      vertex -4.46352 28.5734 1.5
      vertex -6.62509 24.825 1.5
      vertex -4 28.5 1.5
    endloop
  endfacet
  facet normal 0 2.22045e-16 1
    outer loop
      vertex -4.88168 28.7865 1.5
      vertex -6.62509 24.825 1.5
      vertex -4.46352 28.5734 1.5
    endloop
  endfacet
  facet normal 0 2.22045e-16 1
    outer loop
      vertex -5.21352 29.1183 1.5
      vertex -5.42658 29.5365 1.5
      vertex -8.65 20.1647 1.5
    endloop
  endfacet
  facet normal 0 2.22045e-16 1
    outer loop
      vertex -2.78647 30.8817 1.5
      vertex -2.57341 30.4635 1.5
      vertex -1.69864e-15 28.65 1.5
    endloop
  endfacet
  facet normal 0 2.22045e-16 1
    outer loop
      vertex -5.42658 29.5365 1.5
      vertex -5.5 30 1.5
      vertex -8.65 20.1647 1.5
    endloop
  endfacet
  facet normal 0 2.22045e-16 1
    outer loop
      vertex -5.21352 30.8817 1.5
      vertex -4.88168 31.2135 1.5
      vertex -2.77208 35.5 1.5
    endloop
  endfacet
  facet normal 0 2.22045e-16 1
    outer loop
      vertex -4.46352 31.4266 1.5
      vertex -4 31.5 1.5
      vertex -2.77208 35.5 1.5
    endloop
  endfacet
  facet normal 0 -1 2.22045e-16
    outer loop
      vertex -6.98528 18.5 -1.5
      vertex -5.28275 18.5 -1.5
      vertex -5.28275 18.5 0.5
    endloop
  endfacet
  facet normal 0 -1 2.22045e-16
    outer loop
      vertex -6.62509 18.5 1.5
      vertex -6.98528 18.5 -1.5
      vertex -6.62509 18.5 0.5
    endloop
  endfacet
  facet normal 0 -1 2.22045e-16
    outer loop
      vertex -6.62509 18.5 0.5
      vertex -6.98528 18.5 -1.5
      vertex -5.28275 18.5 0.5
    endloop
  endfacet
  facet normal 0 -1 2.22045e-16
    outer loop
      vertex -6.98528 18.5 1.5
      vertex -6.98528 18.5 -1.5
      vertex -6.62509 18.5 1.5
    endloop
  endfacet
  facet normal 1 -2.22045e-16 0
    outer loop
      vertex -5.28275 18.5 -1.5
      vertex -5.28275 23.05 -1.5
      vertex -5.28275 23.05 0.5
    endloop
  endfacet
  facet normal 1 -2.22045e-16 0
    outer loop
      vertex -5.28275 18.5 0.5
      vertex -5.28275 18.5 -1.5
      vertex -5.28275 23.05 0.5
    endloop
  endfacet
  facet normal 0.5 -0.866025 0
    outer loop
      vertex -5.28275 23.05 -1.5
      vertex 1.35447e-15 26.1 -1.5
      vertex 1.35447e-15 26.1 0.5
    endloop
  endfacet
  facet normal 0.5 -0.866025 0
    outer loop
      vertex -5.28275 23.05 0.5
      vertex -5.28275 23.05 -1.5
      vertex 1.35447e-15 26.1 0.5
    endloop
  endfacet
  facet normal -0.5 -0.866025 0
    outer loop
      vertex 1.35447e-15 26.1 -1.5
      vertex 5.28275 23.05 -1.5
      vertex 5.28275 23.05 0.5
    endloop
  endfacet
  facet normal -0.5 -0.866025 0
    outer loop
      vertex 1.35447e-15 26.1 0.5
      vertex 1.35447e-15 26.1 -1.5
      vertex 5.28275 23.05 0.5
    endloop
  endfacet
  facet normal -1 2.22045e-16 0
    outer loop
      vertex 5.28275 18.5 0.5
      vertex 5.28275 23.05 0.5
      vertex 5.28275 18.5 -1.5
    endloop
  endfacet
  facet normal -1 2.22045e-16 0
    outer loop
      vertex 5.28275 18.5 -1.5
      vertex 5.28275 23.05 0.5
      vertex 5.28275 23.05 -1.5
    endloop
  endfacet
  facet normal 0 -1 2.22045e-16
    outer loop
      vertex 5.28275 18.5 -1.5
      vertex 8.65 18.5 -1.5
      vertex 8.65 18.5 1.5
    endloop
  endfacet
  facet normal 0 -1 2.22045e-16
    outer loop
      vertex 6.62509 18.5 0.5
      vertex 5.28275 18.5 -1.5
      vertex 8.65 18.5 1.5
    endloop
  endfacet
  facet normal 0 -1 2.22045e-16
    outer loop
      vertex 6.62509 18.5 1.5
      vertex 6.62509 18.5 0.5
      vertex 8.65 18.5 1.5
    endloop
  endfacet
  facet normal 0 -1 2.22045e-16
    outer loop
      vertex 6.62509 18.5 0.5
      vertex 5.28275 18.5 0.5
      vertex 5.28275 18.5 -1.5
    endloop
  endfacet
  facet normal 1 0 0
    outer loop
      vertex 8.65 18.5 -1.5
      vertex 8.65 24.0779 -1.5
      vertex 8.65 24.0779 1.5
    endloop
  endfacet
  facet normal 1 0 0
    outer loop
      vertex 8.65 18.5 1.5
      vertex 8.65 18.5 -1.5
      vertex 8.65 24.0779 1.5
    endloop
  endfacet
  facet normal 0.707107 0.707107 -1.57009e-16
    outer loop
      vertex -2.77208 35.5 -1.5
      vertex -2.77208 35.5 1.5
      vertex 8.65 24.0779 1.5
    endloop
  endfacet
  facet normal 0.707107 0.707107 -1.57009e-16
    outer loop
      vertex 8.65 24.0779 -1.5
      vertex -2.77208 35.5 -1.5
      vertex 8.65 24.0779 1.5
    endloop
  endfacet
  facet normal 0.987688 -0.156434 0
    outer loop
      vertex -5.5 30 -1.5
      vertex -5.42658 30.4635 -1.5
      vertex -5.42658 30.4635 1.5
    endloop
  endfacet
  facet normal 0.987688 -0.156434 0
    outer loop
      vertex -5.5 30 1.5
      vertex -5.5 30 -1.5
      vertex -5.42658 30.4635 1.5
    endloop
  endfacet
  facet normal 0.987688 0.156434 0
    outer loop
      vertex -5.5 30 -1.5
      vertex -5.5 30 1.5
      vertex -5.42658 29.5365 1.5
    endloop
  endfacet
  facet normal 0.987688 0.156434 0
    outer loop
      vertex -5.42658 29.5365 -1.5
      vertex -5.5 30 -1.5
      vertex -5.42658 29.5365 1.5
    endloop
  endfacet
  facet normal 0.891006 -0.453991 0
    outer loop
      vertex -5.42658 30.4635 -1.5
      vertex -5.21352 30.8817 -1.5
      vertex -5.21352 30.8817 1.5
    endloop
  endfacet
  facet normal 0.891006 -0.453991 0
    outer loop
      vertex -5.42658 30.4635 1.5
      vertex -5.42658 30.4635 -1.5
      vertex -5.21352 30.8817 1.5
    endloop
  endfacet
  facet normal 0.707107 -0.707107 0
    outer loop
      vertex -5.21352 30.8817 -1.5
      vertex -4.88168 31.2135 -1.5
      vertex -4.88168 31.2135 1.5
    endloop
  endfacet
  facet normal 0.707107 -0.707107 0
    outer loop
      vertex -5.21352 30.8817 1.5
      vertex -5.21352 30.8817 -1.5
      vertex -4.88168 31.2135 1.5
    endloop
  endfacet
  facet normal 0.453991 -0.891006 0
    outer loop
      vertex -4.88168 31.2135 -1.5
      vertex -4.46352 31.4266 -1.5
      vertex -4.46352 31.4266 1.5
    endloop
  endfacet
  facet normal 0.453991 -0.891006 0
    outer loop
      vertex -4.88168 31.2135 1.5
      vertex -4.88168 31.2135 -1.5
      vertex -4.46352 31.4266 1.5
    endloop
  endfacet
  facet normal 0.156434 -0.987688 0
    outer loop
      vertex -4.46352 31.4266 -1.5
      vertex -4 31.5 -1.5
      vertex -4 31.5 1.5
    endloop
  endfacet
  facet normal 0.156434 -0.987688 0
    outer loop
      vertex -4.46352 31.4266 1.5
      vertex -4.46352 31.4266 -1.5
      vertex -4 31.5 1.5
    endloop
  endfacet
  facet normal -0.156434 -0.987688 0
    outer loop
      vertex -4 31.5 -1.5
      vertex -3.53647 31.4266 -1.5
      vertex -3.53647 31.4266 1.5
    endloop
  endfacet
  facet normal -0.156434 -0.987688 0
    outer loop
      vertex -4 31.5 1.5
      vertex -4 31.5 -1.5
      vertex -3.53647 31.4266 1.5
    endloop
  endfacet
  facet normal -0.453991 -0.891006 0
    outer loop
      vertex -3.53647 31.4266 -1.5
      vertex -3.11832 31.2135 -1.5
      vertex -3.11832 31.2135 1.5
    endloop
  endfacet
  facet normal -0.453991 -0.891006 0
    outer loop
      vertex -3.53647 31.4266 1.5
      vertex -3.53647 31.4266 -1.5
      vertex -3.11832 31.2135 1.5
    endloop
  endfacet
  facet normal -0.707107 -0.707107 0
    outer loop
      vertex -2.78647 30.8817 -1.5
      vertex -2.78647 30.8817 1.5
      vertex -3.11832 31.2135 -1.5
    endloop
  endfacet
  facet normal -0.707107 -0.707107 0
    outer loop
      vertex -3.11832 31.2135 -1.5
      vertex -2.78647 30.8817 1.5
      vertex -3.11832 31.2135 1.5
    endloop
  endfacet
  facet normal -0.891006 -0.453991 0
    outer loop
      vertex -2.57341 30.4635 -1.5
      vertex -2.57341 30.4635 1.5
      vertex -2.78647 30.8817 -1.5
    endloop
  endfacet
  facet normal -0.891006 -0.453991 0
    outer loop
      vertex -2.78647 30.8817 -1.5
      vertex -2.57341 30.4635 1.5
      vertex -2.78647 30.8817 1.5
    endloop
  endfacet
  facet normal -0.987688 -0.156434 0
    outer loop
      vertex -2.5 30 -1.5
      vertex -2.5 30 1.5
      vertex -2.57341 30.4635 -1.5
    endloop
  endfacet
  facet normal -0.987688 -0.156434 0
    outer loop
      vertex -2.57341 30.4635 -1.5
      vertex -2.5 30 1.5
      vertex -2.57341 30.4635 1.5
    endloop
  endfacet
  facet normal -0.987688 0.156434 0
    outer loop
      vertex -2.57341 29.5365 1.5
      vertex -2.5 30 1.5
      vertex -2.57341 29.5365 -1.5
    endloop
  endfacet
  facet normal -0.987688 0.156434 0
    outer loop
      vertex -2.57341 29.5365 -1.5
      vertex -2.5 30 1.5
      vertex -2.5 30 -1.5
    endloop
  endfacet
  facet normal -0.891006 0.453991 0
    outer loop
      vertex -2.78647 29.1183 1.5
      vertex -2.57341 29.5365 1.5
      vertex -2.78647 29.1183 -1.5
    endloop
  endfacet
  facet normal -0.891006 0.453991 0
    outer loop
      vertex -2.78647 29.1183 -1.5
      vertex -2.57341 29.5365 1.5
      vertex -2.57341 29.5365 -1.5
    endloop
  endfacet
  facet normal -0.707107 0.707107 0
    outer loop
      vertex -3.11832 28.7865 1.5
      vertex -2.78647 29.1183 1.5
      vertex -3.11832 28.7865 -1.5
    endloop
  endfacet
  facet normal -0.707107 0.707107 0
    outer loop
      vertex -3.11832 28.7865 -1.5
      vertex -2.78647 29.1183 1.5
      vertex -2.78647 29.1183 -1.5
    endloop
  endfacet
  facet normal -0.453991 0.891006 0
    outer loop
      vertex -3.53647 28.5734 1.5
      vertex -3.11832 28.7865 1.5
      vertex -3.53647 28.5734 -1.5
    endloop
  endfacet
  facet normal -0.453991 0.891006 0
    outer loop
      vertex -3.53647 28.5734 -1.5
      vertex -3.11832 28.7865 1.5
      vertex -3.11832 28.7865 -1.5
    endloop
  endfacet
  facet normal -0.156434 0.987688 0
    outer loop
      vertex -4 28.5 1.5
      vertex -3.53647 28.5734 1.5
      vertex -4 28.5 -1.5
    endloop
  endfacet
  facet normal -0.156434 0.987688 0
    outer loop
      vertex -4 28.5 -1.5
      vertex -3.53647 28.5734 1.5
      vertex -3.53647 28.5734 -1.5
    endloop
  endfacet
  facet normal 0.156434 0.987688 0
    outer loop
      vertex -4.46352 28.5734 1.5
      vertex -4 28.5 1.5
      vertex -4.46352 28.5734 -1.5
    endloop
  endfacet
  facet normal 0.156434 0.987688 0
    outer loop
      vertex -4.46352 28.5734 -1.5
      vertex -4 28.5 1.5
      vertex -4 28.5 -1.5
    endloop
  endfacet
  facet normal 0.453991 0.891006 0
    outer loop
      vertex -4.88168 28.7865 1.5
      vertex -4.46352 28.5734 1.5
      vertex -4.88168 28.7865 -1.5
    endloop
  endfacet
  facet normal 0.453991 0.891006 0
    outer loop
      vertex -4.88168 28.7865 -1.5
      vertex -4.46352 28.5734 1.5
      vertex -4.46352 28.5734 -1.5
    endloop
  endfacet
  facet normal 0.707107 0.707107 0
    outer loop
      vertex -5.21352 29.1183 -1.5
      vertex -5.21352 29.1183 1.5
      vertex -4.88168 28.7865 1.5
    endloop
  endfacet
  facet normal 0.707107 0.707107 0
    outer loop
      vertex -4.88168 28.7865 -1.5
      vertex -5.21352 29.1183 -1.5
      vertex -4.88168 28.7865 1.5
    endloop
  endfacet
  facet normal 0.891006 0.453991 0
    outer loop
      vertex -5.42658 29.5365 -1.5
      vertex -5.42658 29.5365 1.5
      vertex -5.21352 29.1183 1.5
    endloop
  endfacet
  facet normal 0.891006 0.453991 0
    outer loop
      vertex -5.21352 29.1183 -1.5
      vertex -5.42658 29.5365 -1.5
      vertex -5.21352 29.1183 1.5
    endloop
  endfacet
  facet normal -1 -2.22045e-16 9.86076e-32
    outer loop
      vertex 6.62509 18.5 0.5
      vertex 6.62509 18.5 1.5
      vertex 6.62509 24.825 0.5
    endloop
  endfacet
  facet normal -1 -2.22045e-16 9.86076e-32
    outer loop
      vertex 6.62509 24.825 0.5
      vertex 6.62509 18.5 1.5
      vertex 6.62509 24.825 1.5
    endloop
  endfacet
  facet normal -0.5 -0.866025 3.84593e-16
    outer loop
      vertex -1.69864e-15 28.65 0.5
      vertex 6.62509 24.825 0.5
      vertex 6.62509 24.825 1.5
    endloop
  endfacet
  facet normal -0.5 -0.866025 3.84593e-16
    outer loop
      vertex -1.69864e-15 28.65 1.5
      vertex -1.69864e-15 28.65 0.5
      vertex 6.62509 24.825 1.5
    endloop
  endfacet
  facet normal 0.5 -0.866025 3.84593e-16
    outer loop
      vertex -6.62509 24.825 0.5
      vertex -1.69864e-15 28.65 0.5
      vertex -1.69864e-15 28.65 1.5
    endloop
  endfacet
  facet normal 0.5 -0.866025 3.84593e-16
    outer loop
      vertex -6.62509 24.825 1.5
      vertex -6.62509 24.825 0.5
      vertex -1.69864e-15 28.65 1.5
    endloop
  endfacet
  facet normal 1 0 0
    outer loop
      vertex -6.62509 18.5 0.5
      vertex -6.62509 24.825 0.5
      vertex -6.62509 24.825 1.5
    endloop
  endfacet
  facet normal 1 0 0
    outer loop
      vertex -6.62509 18.5 1.5
      vertex -6.62509 18.5 0.5
      vertex -6.62509 24.825 1.5
    endloop
  endfacet
  facet normal 0 4.44089e-16 1
    outer loop
      vertex 1.35447e-15 26.1 0.5
      vertex -1.69864e-15 28.65 0.5
      vertex -5.28275 23.05 0.5
    endloop
  endfacet
  facet normal 0 4.44089e-16 1
    outer loop
      vertex -6.62509 18.5 0.5
      vertex -5.28275 18.5 0.5
      vertex -5.28275 23.05 0.5
    endloop
  endfacet
  facet normal 0 4.44089e-16 1
    outer loop
      vertex 5.28275 23.05 0.5
      vertex 6.62509 24.825 0.5
      vertex 1.35447e-15 26.1 0.5
    endloop
  endfacet
  facet normal 0 4.44089e-16 1
    outer loop
      vertex -6.62509 24.825 0.5
      vertex -6.62509 18.5 0.5
      vertex -5.28275 23.05 0.5
    endloop
  endfacet
  facet normal 0 4.44089e-16 1
    outer loop
      vertex 5.28275 18.5 0.5
      vertex 6.62509 18.5 0.5
      vertex 5.28275 23.05 0.5
    endloop
  endfacet
  facet normal 0 4.44089e-16 1
    outer loop
      vertex 6.62509 18.5 0.5
      vertex 6.62509 24.825 0.5
      vertex 5.28275 23.05 0.5
    endloop
  endfacet
  facet normal 0 4.44089e-16 1
    outer loop
      vertex 6.62509 24.825 0.5
      vertex -1.69864e-15 28.65 0.5
      vertex 1.35447e-15 26.1 0.5
    endloop
  endfacet
  facet normal 0 4.44089e-16 1
    outer loop
      vertex -1.69864e-15 28.65 0.5
      vertex -6.62509 24.825 0.5
      vertex -5.28275 23.05 0.5
    endloop
  endfacet
endsolid OpenSCAD_Model
