  0
SECTION
  2
HEADER
  9
$ACADVER
  1
AC1014
  9
$HANDSEED
  5
FFFF
  9
$MEASUREMENT
 70
     1
  0
ENDSEC
  0
SECTION
  2
TABLES
  0
TABLE
  2
VPORT
  5
8
330
0
100
AcDbSymbolTable
 70
     4
  0
VPORT
  5
2E
330
8
100
AcDbSymbolTableRecord
100
AcDbViewportTableRecord
  2
*ACTIVE
 70
     0
 10
0.0
 20
0.0
 11
1.0
 21
1.0
 12
210.0
 22
148.5
 13
0.0
 23
0.0
 14
10.0
 24
10.0
 15
10.0
 25
10.0
 16
0.0
 26
0.0
 36
1.0
 17
0.0
 27
0.0
 37
0.0
 40
341.0
 41
1.24
 42
50.0
 43
0.0
 44
0.0
 50
0.0
 51
0.0
 71
     0
 72
   100
 73
     1
 74
     3
 75
     0
 76
     0
 77
     0
 78
     0
  0
ENDTAB
  0
TABLE
  2
LTYPE
  5
5
330
0
100
AcDbSymbolTable
 70
     1
  0
LTYPE
  5
14
330
5
100
AcDbSymbolTableRecord
100
AcDbLinetypeTableRecord
  2
BYBLOCK
 70
     0
  3

 72
    65
 73
     0
 40
0.0
  0
LTYPE
  5
15
330
5
100
AcDbSymbolTableRecord
100
AcDbLinetypeTableRecord
  2
BYLAYER
 70
     0
  3

 72
    65
 73
     0
 40
0.0
  0
LTYPE
  5
16
330
5
100
AcDbSymbolTableRecord
100
AcDbLinetypeTableRecord
  2
CONTINUOUS
 70
     0
  3
Solid line
 72
    65
 73
     0
 40
0.0
  0
ENDTAB
  0
TABLE
  2
LAYER
  5
2
100
AcDbSymbolTable
 70
1
  0
LAYER
  5
50
100
AcDbSymbolTableRecord
100
AcDbLayerTableRecord
  2
0
 70
0
  6
CONTINUOUS
  0
ENDTAB
  0
TABLE
  2
STYLE
  5
3
330
0
100
AcDbSymbolTable
 70
     1
  0
STYLE
  5
11
330
3
100
AcDbSymbolTableRecord
100
AcDbTextStyleTableRecord
  2
STANDARD
 70
     0
 40
0.0
 41
1.0
 50
0.0
 71
     0
 42
2.5
  3
txt
  4

  0
ENDTAB
  0
TABLE
  2
VIEW
  5
6
330
0
100
AcDbSymbolTable
 70
     0
  0
ENDTAB
  0
TABLE
  2
UCS
  5
7
330
0
100
AcDbSymbolTable
 70
     0
  0
ENDTAB
  0
TABLE
  2
APPID
  5
9
330
0
100
AcDbSymbolTable
 70
     2
  0
APPID
  5
12
330
9
100
AcDbSymbolTableRecord
100
AcDbRegAppTableRecord
  2
ACAD
 70
     0
  0
ENDTAB
  0
TABLE
  2
DIMSTYLE
  5
A
330
0
100
AcDbSymbolTable
 70
     1
  0
DIMSTYLE
105
27
330
A
100
AcDbSymbolTableRecord
100
AcDbDimStyleTableRecord
  2
ISO-25
 70
     0
  3

  4

  5

  6

  7

 40
1.0
 41
2.5
 42
0.625
 43
3.75
 44
1.25
 45
0.0
 46
0.0
 47
0.0
 48
0.0
140
2.5
141
2.5
142
0.0
143
0.03937007874016
144
1.0
145
0.0
146
1.0
147
0.625
 71
     0
 72
     0
 73
     0
 74
     0
 75
     0
 76
     0
 77
     1
 78
     8
170
     0
171
     3
172
     1
173
     0
174
     0
175
     0
176
     0
177
     0
178
     0
270
     2
271
     2
272
     2
273
     2
274
     3
340
11
275
     0
280
     0
281
     0
282
     0
283
     0
284
     8
285
     0
286
     0
287
     3
288
     0
  0
ENDTAB
  0
TABLE
  2
BLOCK_RECORD
  5
1
330
0
100
AcDbSymbolTable
 70
     1
  0
BLOCK_RECORD
  5
1F
330
1
100
AcDbSymbolTableRecord
100
AcDbBlockTableRecord
  2
*MODEL_SPACE
  0
BLOCK_RECORD
  5
1B
330
1
100
AcDbSymbolTableRecord
100
AcDbBlockTableRecord
  2
*PAPER_SPACE
  0
ENDTAB
  0
ENDSEC
  0
SECTION
  2
BLOCKS
  0
BLOCK
  5
20
330
1F
100
AcDbEntity
  8
0
100
AcDbBlockBegin
  2
*MODEL_SPACE
 70
     0
 10
0.0
 20
0.0
 30
0.0
  3
*MODEL_SPACE
  1

  0
ENDBLK
  5
21
330
1F
100
AcDbEntity
  8
0
100
AcDbBlockEnd
  0
BLOCK
  5
1C
330
1B
100
AcDbEntity
 67
     1
  8
0
100
AcDbBlockBegin
  2
*PAPER_SPACE
  1

  0
ENDBLK
  5
1D
330
1B
100
AcDbEntity
 67
     1
  8
0
100
AcDbBlockEnd
  0
ENDSEC
  0
SECTION
  2
ENTITIES
  0
LWPOLYLINE
  5
100
100
AcDbEntity
  8
0
 62
7
100
AcDbPolyline
 90
25
 70
0
 10
204.387007
 20
172.145287
 30
0.0
 10
204.048696
 20
172.285461
 30
0.0
 10
203.758267
 20
172.508273
 30
0.0
 10
203.535458
 20
172.798806
 30
0.0
 10
203.395281
 20
173.137010
 30
0.0
 10
203.347506
 20
173.499996
 30
0.0
 10
203.395281
 20
173.862982
 30
0.0
 10
203.535458
 20
174.201185
 30
0.0
 10
203.758267
 20
174.491722
 30
0.0
 10
204.048696
 20
174.714534
 30
0.0
 10
204.387007
 20
174.854708
 30
0.0
 10
204.749990
 20
174.902482
 30
0.0
 10
205.113292
 20
174.854708
 30
0.0
 10
205.451391
 20
174.714534
 30
0.0
 10
205.741191
 20
174.491722
 30
0.0
 10
205.964841
 20
174.201185
 30
0.0
 10
206.104493
 20
173.862982
 30
0.0
 10
206.152792
 20
173.499996
 30
0.0
 10
206.104493
 20
173.137010
 30
0.0
 10
205.964841
 20
172.798806
 30
0.0
 10
205.741191
 20
172.508273
 30
0.0
 10
205.451391
 20
172.285461
 30
0.0
 10
205.113292
 20
172.145287
 30
0.0
 10
204.749990
 20
172.097512
 30
0.0
 10
204.387007
 20
172.145287
 30
0.0
  0
LWPOLYLINE
  5
101
100
AcDbEntity
  8
0
 62
7
100
AcDbPolyline
 90
25
 70
0
 10
4.886705
 20
172.145287
 30
0.0
 10
4.548607
 20
172.285461
 30
0.0
 10
4.258808
 20
172.508273
 30
0.0
 10
4.035155
 20
172.798806
 30
0.0
 10
3.895505
 20
173.137010
 30
0.0
 10
3.847206
 20
173.499996
 30
0.0
 10
3.895505
 20
173.862982
 30
0.0
 10
4.035155
 20
174.201185
 30
0.0
 10
4.258808
 20
174.491722
 30
0.0
 10
4.548607
 20
174.714534
 30
0.0
 10
4.886705
 20
174.854708
 30
0.0
 10
5.250007
 20
174.902482
 30
0.0
 10
5.612992
 20
174.854708
 30
0.0
 10
5.951300
 20
174.714534
 30
0.0
 10
6.241731
 20
174.491722
 30
0.0
 10
6.464540
 20
174.201185
 30
0.0
 10
6.604715
 20
173.862982
 30
0.0
 10
6.652490
 20
173.499996
 30
0.0
 10
6.604715
 20
173.137010
 30
0.0
 10
6.464540
 20
172.798806
 30
0.0
 10
6.241731
 20
172.508273
 30
0.0
 10
5.951300
 20
172.285461
 30
0.0
 10
5.612992
 20
172.145287
 30
0.0
 10
5.250007
 20
172.097512
 30
0.0
 10
4.886705
 20
172.145287
 30
0.0
  0
LWPOLYLINE
  5
102
100
AcDbEntity
  8
0
 62
7
100
AcDbPolyline
 90
25
 70
0
 10
104.308622
 20
150.919616
 30
0.0
 10
103.664337
 20
151.186485
 30
0.0
 10
103.111080
 20
151.611060
 30
0.0
 10
102.686561
 20
152.164272
 30
0.0
 10
102.419681
 20
152.808586
 30
0.0
 10
102.328641
 20
153.499974
 30
0.0
 10
102.419681
 20
154.191305
 30
0.0
 10
102.686561
 20
154.835675
 30
0.0
 10
103.111080
 20
155.388887
 30
0.0
 10
103.664337
 20
155.813406
 30
0.0
 10
104.308622
 20
156.080332
 30
0.0
 10
104.999999
 20
156.171376
 30
0.0
 10
105.691376
 20
156.080332
 30
0.0
 10
106.335661
 20
155.813406
 30
0.0
 10
106.888912
 20
155.388887
 30
0.0
 10
107.313436
 20
154.835675
 30
0.0
 10
107.580317
 20
154.191305
 30
0.0
 10
107.671356
 20
153.499974
 30
0.0
 10
107.580317
 20
152.808586
 30
0.0
 10
107.313436
 20
152.164272
 30
0.0
 10
106.888912
 20
151.611060
 30
0.0
 10
106.335661
 20
151.186485
 30
0.0
 10
105.691376
 20
150.919616
 30
0.0
 10
104.999999
 20
150.828628
 30
0.0
 10
104.308622
 20
150.919616
 30
0.0
  0
LWPOLYLINE
  5
103
100
AcDbEntity
  8
0
 62
7
100
AcDbPolyline
 90
25
 70
0
 10
104.308622
 20
140.919664
 30
0.0
 10
103.664337
 20
141.186534
 30
0.0
 10
103.111080
 20
141.611052
 30
0.0
 10
102.686561
 20
142.164321
 30
0.0
 10
102.419681
 20
142.808634
 30
0.0
 10
102.328641
 20
143.500022
 30
0.0
 10
102.419681
 20
144.191354
 30
0.0
 10
102.686561
 20
144.835723
 30
0.0
 10
103.111080
 20
145.388935
 30
0.0
 10
103.664337
 20
145.813454
 30
0.0
 10
104.308622
 20
146.080380
 30
0.0
 10
104.999999
 20
146.171368
 30
0.0
 10
105.691376
 20
146.080380
 30
0.0
 10
106.335661
 20
145.813454
 30
0.0
 10
106.888912
 20
145.388935
 30
0.0
 10
107.313436
 20
144.835723
 30
0.0
 10
107.580317
 20
144.191354
 30
0.0
 10
107.671356
 20
143.500022
 30
0.0
 10
107.580317
 20
142.808634
 30
0.0
 10
107.313436
 20
142.164321
 30
0.0
 10
106.888912
 20
141.611052
 30
0.0
 10
106.335661
 20
141.186534
 30
0.0
 10
105.691376
 20
140.919664
 30
0.0
 10
104.999999
 20
140.828619
 30
0.0
 10
104.308622
 20
140.919664
 30
0.0
  0
LWPOLYLINE
  5
104
100
AcDbEntity
  8
0
 62
7
100
AcDbPolyline
 90
25
 70
0
 10
204.387007
 20
122.145274
 30
0.0
 10
204.048696
 20
122.285468
 30
0.0
 10
203.758267
 20
122.508282
 30
0.0
 10
203.535458
 20
122.798807
 30
0.0
 10
203.395281
 20
123.137011
 30
0.0
 10
203.347506
 20
123.499991
 30
0.0
 10
203.395281
 20
123.862969
 30
0.0
 10
203.535458
 20
124.201294
 30
0.0
 10
203.758267
 20
124.491729
 30
0.0
 10
204.048696
 20
124.714543
 30
0.0
 10
204.387007
 20
124.854709
 30
0.0
 10
204.749990
 20
124.902478
 30
0.0
 10
205.113292
 20
124.854709
 30
0.0
 10
205.451391
 20
124.714543
 30
0.0
 10
205.741191
 20
124.491729
 30
0.0
 10
205.964841
 20
124.201294
 30
0.0
 10
206.104493
 20
123.862969
 30
0.0
 10
206.152792
 20
123.499991
 30
0.0
 10
206.104493
 20
123.137011
 30
0.0
 10
205.964841
 20
122.798807
 30
0.0
 10
205.741191
 20
122.508282
 30
0.0
 10
205.451391
 20
122.285468
 30
0.0
 10
205.113292
 20
122.145274
 30
0.0
 10
204.749990
 20
122.097505
 30
0.0
 10
204.387007
 20
122.145274
 30
0.0
  0
LWPOLYLINE
  5
105
100
AcDbEntity
  8
0
 62
7
100
AcDbPolyline
 90
25
 70
0
 10
4.886705
 20
122.145274
 30
0.0
 10
4.548607
 20
122.285468
 30
0.0
 10
4.258808
 20
122.508282
 30
0.0
 10
4.035155
 20
122.798807
 30
0.0
 10
3.895505
 20
123.137011
 30
0.0
 10
3.847206
 20
123.499991
 30
0.0
 10
3.895505
 20
123.862969
 30
0.0
 10
4.035155
 20
124.201294
 30
0.0
 10
4.258808
 20
124.491729
 30
0.0
 10
4.548607
 20
124.714543
 30
0.0
 10
4.886705
 20
124.854709
 30
0.0
 10
5.250007
 20
124.902478
 30
0.0
 10
5.612992
 20
124.854709
 30
0.0
 10
5.951300
 20
124.714543
 30
0.0
 10
6.241731
 20
124.491729
 30
0.0
 10
6.464540
 20
124.201294
 30
0.0
 10
6.604715
 20
123.862969
 30
0.0
 10
6.652490
 20
123.499991
 30
0.0
 10
6.604715
 20
123.137011
 30
0.0
 10
6.464540
 20
122.798807
 30
0.0
 10
6.241731
 20
122.508282
 30
0.0
 10
5.951300
 20
122.285468
 30
0.0
 10
5.612992
 20
122.145274
 30
0.0
 10
5.250007
 20
122.097505
 30
0.0
 10
4.886705
 20
122.145274
 30
0.0
  0
LWPOLYLINE
  5
106
100
AcDbEntity
  8
0
 62
7
100
AcDbPolyline
 90
69
 70
0
 10
209.842997
 20
88.016335
 30
0.0
 10
210.182999
 20
88.066740
 30
0.0
 10
210.515999
 20
88.150137
 30
0.0
 10
210.839998
 20
88.265933
 30
0.0
 10
211.150000
 20
88.412829
 30
0.0
 10
211.444998
 20
88.589416
 30
0.0
 10
211.721000
 20
88.794027
 30
0.0
 10
211.975000
 20
89.024715
 30
0.0
 10
212.205999
 20
89.279336
 30
0.0
 10
212.411000
 20
89.555237
 30
0.0
 10
212.586999
 20
89.849820
 30
0.0
 10
212.734000
 20
90.160434
 30
0.0
 10
212.849999
 20
90.483832
 30
0.0
 10
212.932998
 20
90.817137
 30
0.0
 10
212.983998
 20
91.156932
 30
0.0
 10
213.000000
 20
91.487725
 30
0.0
 10
212.999997
 20
205.512327
 30
0.0
 10
212.983995
 20
205.843128
 30
0.0
 10
212.932998
 20
206.182927
 30
0.0
 10
212.849999
 20
206.516228
 30
0.0
 10
212.734000
 20
206.839627
 30
0.0
 10
212.586999
 20
207.150229
 30
0.0
 10
212.411000
 20
207.444827
 30
0.0
 10
212.205999
 20
207.720727
 30
0.0
 10
211.975000
 20
207.975328
 30
0.0
 10
211.721000
 20
208.206028
 30
0.0
 10
211.444998
 20
208.410628
 30
0.0
 10
211.150000
 20
208.587228
 30
0.0
 10
210.839998
 20
208.734128
 30
0.0
 10
210.515999
 20
208.849927
 30
0.0
 10
210.182999
 20
208.933326
 30
0.0
 10
209.842997
 20
208.983728
 30
0.0
 10
209.511999
 20
209.000041
 30
0.0
 10
0.487999
 20
209.000026
 30
0.0
 10
0.157000
 20
208.983714
 30
0.0
 10
-0.183001
 20
208.933326
 30
0.0
 10
-0.516001
 20
208.849927
 30
0.0
 10
-0.840001
 20
208.734128
 30
0.0
 10
-1.150002
 20
208.587228
 30
0.0
 10
-1.445000
 20
208.410628
 30
0.0
 10
-1.721002
 20
208.206028
 30
0.0
 10
-1.975002
 20
207.975328
 30
0.0
 10
-2.206001
 20
207.720727
 30
0.0
 10
-2.411002
 20
207.444827
 30
0.0
 10
-2.587001
 20
207.150229
 30
0.0
 10
-2.734002
 20
206.839627
 30
0.0
 10
-2.850001
 20
206.516228
 30
0.0
 10
-2.933000
 20
206.182927
 30
0.0
 10
-2.984000
 20
205.843128
 30
0.0
 10
-3.000002
 20
205.512327
 30
0.0
 10
-3.000000
 20
91.487725
 30
0.0
 10
-2.983998
 20
91.156932
 30
0.0
 10
-2.933000
 20
90.817137
 30
0.0
 10
-2.850001
 20
90.483832
 30
0.0
 10
-2.734002
 20
90.160434
 30
0.0
 10
-2.587001
 20
89.849820
 30
0.0
 10
-2.411002
 20
89.555237
 30
0.0
 10
-2.206001
 20
89.279336
 30
0.0
 10
-1.975002
 20
89.024715
 30
0.0
 10
-1.721002
 20
88.794027
 30
0.0
 10
-1.445000
 20
88.589416
 30
0.0
 10
-1.150002
 20
88.412829
 30
0.0
 10
-0.840001
 20
88.265933
 30
0.0
 10
-0.516001
 20
88.150137
 30
0.0
 10
-0.183001
 20
88.066740
 30
0.0
 10
0.157000
 20
88.016335
 30
0.0
 10
0.487999
 20
87.999966
 30
0.0
 10
209.511999
 20
88.000023
 30
0.0
 10
209.842997
 20
88.016392
 30
0.0
  0
ENDSEC
  0
SECTION
  2
OBJECTS
  0
DICTIONARY
  5
C
330
0
100
AcDbDictionary
  3
ACAD_GROUP
350
D
  3
ACAD_MLINESTYLE
350
17
  0
DICTIONARY
  5
D
330
C
100
AcDbDictionary
  0
DICTIONARY
  5
1A
330
C
100
AcDbDictionary
  0
DICTIONARY
  5
17
330
C
100
AcDbDictionary
  3
STANDARD
350
18
  0
DICTIONARY
  5
19
330
C
100
AcDbDictionary
  0
ENDSEC
  0
EOF
