  0
SECTION
  2
BLOCKS
  0
ENDSEC
  0
SECTION
  2
ENTITIES
  0
LINE
  8
0
 10
-11
 11
-10.9695
 20
-12
 21
-12.4269
  0
LINE
  8
0
 10
-10.9695
 11
-10.8785
 20
-12.4269
 21
-12.8452
  0
LINE
  8
0
 10
-10.8785
 11
-10.7289
 20
-12.8452
 21
-13.2462
  0
LINE
  8
0
 10
-10.7289
 11
-10.5238
 20
-13.2462
 21
-13.6219
  0
LINE
  8
0
 10
-10.5238
 11
-10.2672
 20
-13.6219
 21
-13.9646
  0
LINE
  8
0
 10
-10.2672
 11
-9.96458
 20
-13.9646
 21
-14.2672
  0
LINE
  8
0
 10
-9.96458
 11
-9.62192
 20
-14.2672
 21
-14.5238
  0
LINE
  8
0
 10
-9.62192
 11
-9.24625
 20
-14.5238
 21
-14.7289
  0
LINE
  8
0
 10
-9.24625
 11
-8.8452
 20
-14.7289
 21
-14.8785
  0
LINE
  8
0
 10
-8.8452
 11
-8.42694
 20
-14.8785
 21
-14.9695
  0
LINE
  8
0
 10
-8.42694
 11
-8
 20
-14.9695
 21
-15
  0
LINE
  8
0
 10
-8
 11
8
 20
-15
 21
-15
  0
LINE
  8
0
 10
8
 11
8.42694
 20
-15
 21
-14.9695
  0
LINE
  8
0
 10
8.42694
 11
8.8452
 20
-14.9695
 21
-14.8785
  0
LINE
  8
0
 10
8.8452
 11
9.24625
 20
-14.8785
 21
-14.7289
  0
LINE
  8
0
 10
9.24625
 11
9.62192
 20
-14.7289
 21
-14.5238
  0
LINE
  8
0
 10
9.62192
 11
9.96458
 20
-14.5238
 21
-14.2672
  0
LINE
  8
0
 10
9.96458
 11
10.2672
 20
-14.2672
 21
-13.9646
  0
LINE
  8
0
 10
10.2672
 11
10.5238
 20
-13.9646
 21
-13.6219
  0
LINE
  8
0
 10
10.5238
 11
10.7289
 20
-13.6219
 21
-13.2462
  0
LINE
  8
0
 10
10.7289
 11
10.8785
 20
-13.2462
 21
-12.8452
  0
LINE
  8
0
 10
10.8785
 11
10.9695
 20
-12.8452
 21
-12.4269
  0
LINE
  8
0
 10
10.9695
 11
11
 20
-12.4269
 21
-12
  0
LINE
  8
0
 10
11
 11
11
 20
-12
 21
12
  0
LINE
  8
0
 10
11
 11
10.9695
 20
12
 21
12.4269
  0
LINE
  8
0
 10
10.9695
 11
10.8785
 20
12.4269
 21
12.8452
  0
LINE
  8
0
 10
10.8785
 11
10.7289
 20
12.8452
 21
13.2462
  0
LINE
  8
0
 10
10.7289
 11
10.5238
 20
13.2462
 21
13.6219
  0
LINE
  8
0
 10
10.5238
 11
10.2672
 20
13.6219
 21
13.9646
  0
LINE
  8
0
 10
10.2672
 11
9.96458
 20
13.9646
 21
14.2672
  0
LINE
  8
0
 10
9.96458
 11
9.62192
 20
14.2672
 21
14.5238
  0
LINE
  8
0
 10
9.62192
 11
9.24625
 20
14.5238
 21
14.7289
  0
LINE
  8
0
 10
9.24625
 11
8.8452
 20
14.7289
 21
14.8785
  0
LINE
  8
0
 10
8.8452
 11
8.42694
 20
14.8785
 21
14.9695
  0
LINE
  8
0
 10
8.42694
 11
8
 20
14.9695
 21
15
  0
LINE
  8
0
 10
8
 11
-8
 20
15
 21
15
  0
LINE
  8
0
 10
-8
 11
-8.42694
 20
15
 21
14.9695
  0
LINE
  8
0
 10
-8.42694
 11
-8.8452
 20
14.9695
 21
14.8785
  0
LINE
  8
0
 10
-8.8452
 11
-9.24625
 20
14.8785
 21
14.7289
  0
LINE
  8
0
 10
-9.24625
 11
-9.62192
 20
14.7289
 21
14.5238
  0
LINE
  8
0
 10
-9.62192
 11
-9.96458
 20
14.5238
 21
14.2672
  0
LINE
  8
0
 10
-9.96458
 11
-10.2672
 20
14.2672
 21
13.9646
  0
LINE
  8
0
 10
-10.2672
 11
-10.5238
 20
13.9646
 21
13.6219
  0
LINE
  8
0
 10
-10.5238
 11
-10.7289
 20
13.6219
 21
13.2462
  0
LINE
  8
0
 10
-10.7289
 11
-10.8785
 20
13.2462
 21
12.8452
  0
LINE
  8
0
 10
-10.8785
 11
-10.9695
 20
12.8452
 21
12.4269
  0
LINE
  8
0
 10
-10.9695
 11
-11
 20
12.4269
 21
12
  0
LINE
  8
0
 10
-11
 11
-11
 20
12
 21
-12
  0
LINE
  8
0
 10
-1.84
 11
-1.7773
 20
-5
 21
-4.52377
  0
LINE
  8
0
 10
-1.7773
 11
-1.59349
 20
-4.52377
 21
-4.08
  0
LINE
  8
0
 10
-1.59349
 11
-1.30108
 20
-4.08
 21
-3.69892
  0
LINE
  8
0
 10
-1.30108
 11
-0.92
 20
-3.69892
 21
-3.40651
  0
LINE
  8
0
 10
-0.92
 11
-0.476227
 20
-3.40651
 21
-3.2227
  0
LINE
  8
0
 10
-0.476227
 11
0
 20
-3.2227
 21
-3.16
  0
LINE
  8
0
 10
0
 11
0.476227
 20
-3.16
 21
-3.2227
  0
LINE
  8
0
 10
0.476227
 11
0.92
 20
-3.2227
 21
-3.40651
  0
LINE
  8
0
 10
0.92
 11
1.30108
 20
-3.40651
 21
-3.69892
  0
LINE
  8
0
 10
1.30108
 11
1.59349
 20
-3.69892
 21
-4.08
  0
LINE
  8
0
 10
1.59349
 11
1.7773
 20
-4.08
 21
-4.52377
  0
LINE
  8
0
 10
1.7773
 11
1.84
 20
-4.52377
 21
-5
  0
LINE
  8
0
 10
1.84
 11
1.7773
 20
-5
 21
-5.47623
  0
LINE
  8
0
 10
1.7773
 11
1.59349
 20
-5.47623
 21
-5.92
  0
LINE
  8
0
 10
1.59349
 11
1.30108
 20
-5.92
 21
-6.30108
  0
LINE
  8
0
 10
1.30108
 11
0.92
 20
-6.30108
 21
-6.59349
  0
LINE
  8
0
 10
0.92
 11
0.476227
 20
-6.59349
 21
-6.7773
  0
LINE
  8
0
 10
0.476227
 11
0
 20
-6.7773
 21
-6.84
  0
LINE
  8
0
 10
0
 11
-0.476227
 20
-6.84
 21
-6.7773
  0
LINE
  8
0
 10
-0.476227
 11
-0.92
 20
-6.7773
 21
-6.59349
  0
LINE
  8
0
 10
-0.92
 11
-1.30108
 20
-6.59349
 21
-6.30108
  0
LINE
  8
0
 10
-1.30108
 11
-1.59349
 20
-6.30108
 21
-5.92
  0
LINE
  8
0
 10
-1.59349
 11
-1.7773
 20
-5.92
 21
-5.47623
  0
LINE
  8
0
 10
-1.7773
 11
-1.84
 20
-5.47623
 21
-5
  0
LINE
  8
0
 10
-1.84
 11
-1.7773
 20
5
 21
5.47623
  0
LINE
  8
0
 10
-1.7773
 11
-1.59349
 20
5.47623
 21
5.92
  0
LINE
  8
0
 10
-1.59349
 11
-1.30108
 20
5.92
 21
6.30108
  0
LINE
  8
0
 10
-1.30108
 11
-0.92
 20
6.30108
 21
6.59349
  0
LINE
  8
0
 10
-0.92
 11
-0.476227
 20
6.59349
 21
6.7773
  0
LINE
  8
0
 10
-0.476227
 11
0
 20
6.7773
 21
6.84
  0
LINE
  8
0
 10
0
 11
0.476227
 20
6.84
 21
6.7773
  0
LINE
  8
0
 10
0.476227
 11
0.92
 20
6.7773
 21
6.59349
  0
LINE
  8
0
 10
0.92
 11
1.30108
 20
6.59349
 21
6.30108
  0
LINE
  8
0
 10
1.30108
 11
1.59349
 20
6.30108
 21
5.92
  0
LINE
  8
0
 10
1.59349
 11
1.7773
 20
5.92
 21
5.47623
  0
LINE
  8
0
 10
1.7773
 11
1.84
 20
5.47623
 21
5
  0
LINE
  8
0
 10
1.84
 11
1.7773
 20
5
 21
4.52377
  0
LINE
  8
0
 10
1.7773
 11
1.59349
 20
4.52377
 21
4.08
  0
LINE
  8
0
 10
1.59349
 11
1.30108
 20
4.08
 21
3.69892
  0
LINE
  8
0
 10
1.30108
 11
0.92
 20
3.69892
 21
3.40651
  0
LINE
  8
0
 10
0.92
 11
0.476227
 20
3.40651
 21
3.2227
  0
LINE
  8
0
 10
0.476227
 11
0
 20
3.2227
 21
3.16
  0
LINE
  8
0
 10
0
 11
-0.476227
 20
3.16
 21
3.2227
  0
LINE
  8
0
 10
-0.476227
 11
-0.92
 20
3.2227
 21
3.40651
  0
LINE
  8
0
 10
-0.92
 11
-1.30108
 20
3.40651
 21
3.69892
  0
LINE
  8
0
 10
-1.30108
 11
-1.59349
 20
3.69892
 21
4.08
  0
LINE
  8
0
 10
-1.59349
 11
-1.7773
 20
4.08
 21
4.52377
  0
LINE
  8
0
 10
-1.7773
 11
-1.84
 20
4.52377
 21
5
  0
ENDSEC
  0
SECTION
  2
OBJECTS
  0
DICTIONARY
  0
ENDSEC
  0
EOF
