  0
SECTION
  2
HEADER
  9
$ACADVER
  1
AC1014
  9
$HANDSEED
  5
FFFF
  9
$MEASUREMENT
 70
     1
  0
ENDSEC
  0
SECTION
  2
TABLES
  0
TABLE
  2
VPORT
  5
8
330
0
100
AcDbSymbolTable
 70
     4
  0
VPORT
  5
2E
330
8
100
AcDbSymbolTableRecord
100
AcDbViewportTableRecord
  2
*ACTIVE
 70
     0
 10
0.0
 20
0.0
 11
1.0
 21
1.0
 12
210.0
 22
148.5
 13
0.0
 23
0.0
 14
10.0
 24
10.0
 15
10.0
 25
10.0
 16
0.0
 26
0.0
 36
1.0
 17
0.0
 27
0.0
 37
0.0
 40
341.0
 41
1.24
 42
50.0
 43
0.0
 44
0.0
 50
0.0
 51
0.0
 71
     0
 72
   100
 73
     1
 74
     3
 75
     0
 76
     0
 77
     0
 78
     0
  0
ENDTAB
  0
TABLE
  2
LTYPE
  5
5
330
0
100
AcDbSymbolTable
 70
     1
  0
LTYPE
  5
14
330
5
100
AcDbSymbolTableRecord
100
AcDbLinetypeTableRecord
  2
BYBLOCK
 70
     0
  3

 72
    65
 73
     0
 40
0.0
  0
LTYPE
  5
15
330
5
100
AcDbSymbolTableRecord
100
AcDbLinetypeTableRecord
  2
BYLAYER
 70
     0
  3

 72
    65
 73
     0
 40
0.0
  0
LTYPE
  5
16
330
5
100
AcDbSymbolTableRecord
100
AcDbLinetypeTableRecord
  2
CONTINUOUS
 70
     0
  3
Solid line
 72
    65
 73
     0
 40
0.0
  0
ENDTAB
  0
TABLE
  2
LAYER
  5
2
100
AcDbSymbolTable
 70
1
  0
LAYER
  5
50
100
AcDbSymbolTableRecord
100
AcDbLayerTableRecord
  2
0
 70
0
  6
CONTINUOUS
  0
ENDTAB
  0
TABLE
  2
STYLE
  5
3
330
0
100
AcDbSymbolTable
 70
     1
  0
STYLE
  5
11
330
3
100
AcDbSymbolTableRecord
100
AcDbTextStyleTableRecord
  2
STANDARD
 70
     0
 40
0.0
 41
1.0
 50
0.0
 71
     0
 42
2.5
  3
txt
  4

  0
ENDTAB
  0
TABLE
  2
VIEW
  5
6
330
0
100
AcDbSymbolTable
 70
     0
  0
ENDTAB
  0
TABLE
  2
UCS
  5
7
330
0
100
AcDbSymbolTable
 70
     0
  0
ENDTAB
  0
TABLE
  2
APPID
  5
9
330
0
100
AcDbSymbolTable
 70
     2
  0
APPID
  5
12
330
9
100
AcDbSymbolTableRecord
100
AcDbRegAppTableRecord
  2
ACAD
 70
     0
  0
ENDTAB
  0
TABLE
  2
DIMSTYLE
  5
A
330
0
100
AcDbSymbolTable
 70
     1
  0
DIMSTYLE
105
27
330
A
100
AcDbSymbolTableRecord
100
AcDbDimStyleTableRecord
  2
ISO-25
 70
     0
  3

  4

  5

  6

  7

 40
1.0
 41
2.5
 42
0.625
 43
3.75
 44
1.25
 45
0.0
 46
0.0
 47
0.0
 48
0.0
140
2.5
141
2.5
142
0.0
143
0.03937007874016
144
1.0
145
0.0
146
1.0
147
0.625
 71
     0
 72
     0
 73
     0
 74
     0
 75
     0
 76
     0
 77
     1
 78
     8
170
     0
171
     3
172
     1
173
     0
174
     0
175
     0
176
     0
177
     0
178
     0
270
     2
271
     2
272
     2
273
     2
274
     3
340
11
275
     0
280
     0
281
     0
282
     0
283
     0
284
     8
285
     0
286
     0
287
     3
288
     0
  0
ENDTAB
  0
TABLE
  2
BLOCK_RECORD
  5
1
330
0
100
AcDbSymbolTable
 70
     1
  0
BLOCK_RECORD
  5
1F
330
1
100
AcDbSymbolTableRecord
100
AcDbBlockTableRecord
  2
*MODEL_SPACE
  0
BLOCK_RECORD
  5
1B
330
1
100
AcDbSymbolTableRecord
100
AcDbBlockTableRecord
  2
*PAPER_SPACE
  0
ENDTAB
  0
ENDSEC
  0
SECTION
  2
BLOCKS
  0
BLOCK
  5
20
330
1F
100
AcDbEntity
  8
0
100
AcDbBlockBegin
  2
*MODEL_SPACE
 70
     0
 10
0.0
 20
0.0
 30
0.0
  3
*MODEL_SPACE
  1

  0
ENDBLK
  5
21
330
1F
100
AcDbEntity
  8
0
100
AcDbBlockEnd
  0
BLOCK
  5
1C
330
1B
100
AcDbEntity
 67
     1
  8
0
100
AcDbBlockBegin
  2
*PAPER_SPACE
  1

  0
ENDBLK
  5
1D
330
1B
100
AcDbEntity
 67
     1
  8
0
100
AcDbBlockEnd
  0
ENDSEC
  0
SECTION
  2
ENTITIES
  0
LWPOLYLINE
  5
100
100
AcDbEntity
  8
0
 62
7
100
AcDbPolyline
 90
55
 70
0
 10
23.509997
 20
130.141091
 30
0.0
 10
42.509996
 20
130.141091
 30
0.0
 10
43.932997
 20
130.242891
 30
0.0
 10
45.326997
 20
130.546193
 30
0.0
 10
46.663997
 20
131.044792
 30
0.0
 10
47.915997
 20
131.728591
 30
0.0
 10
49.058596
 20
132.583592
 30
0.0
 10
50.067498
 20
133.592491
 30
0.0
 10
50.922496
 20
134.734692
 30
0.0
 10
51.606298
 20
135.986893
 30
0.0
 10
52.104897
 20
137.323790
 30
0.0
 10
52.408195
 20
138.717991
 30
0.0
 10
52.509996
 20
140.141091
 30
0.0
 10
52.509996
 20
199.141091
 30
0.0
 10
74.374996
 20
199.141091
 30
0.0
 10
74.944297
 20
199.181791
 30
0.0
 10
75.501898
 20
199.303092
 30
0.0
 10
76.036698
 20
199.502593
 30
0.0
 10
76.537597
 20
199.776091
 30
0.0
 10
76.994396
 20
200.118091
 30
0.0
 10
77.397997
 20
200.521691
 30
0.0
 10
77.739996
 20
200.978491
 30
0.0
 10
78.013498
 20
201.479393
 30
0.0
 10
78.212998
 20
202.014193
 30
0.0
 10
78.334297
 20
202.571793
 30
0.0
 10
78.374996
 20
203.141092
 30
0.0
 10
78.374996
 20
206.141091
 30
0.0
 10
78.334297
 20
206.710091
 30
0.0
 10
78.212998
 20
207.268092
 30
0.0
 10
78.013498
 20
207.803092
 30
0.0
 10
77.739996
 20
208.304090
 30
0.0
 10
77.397997
 20
208.760091
 30
0.0
 10
76.994396
 20
209.164092
 30
0.0
 10
76.537597
 20
209.506092
 30
0.0
 10
76.036698
 20
209.780093
 30
0.0
 10
75.501898
 20
209.979091
 30
0.0
 10
74.944297
 20
210.100091
 30
0.0
 10
74.374996
 20
210.141092
 30
0.0
 10
52.509996
 20
210.141092
 30
0.0
 10
52.509996
 20
219.679091
 30
0.0
 10
52.408195
 20
221.102092
 30
0.0
 10
52.104897
 20
222.496092
 30
0.0
 10
51.606298
 20
223.833092
 30
0.0
 10
50.922496
 20
225.085092
 30
0.0
 10
50.067498
 20
226.227092
 30
0.0
 10
49.058596
 20
227.236091
 30
0.0
 10
47.915997
 20
228.091091
 30
0.0
 10
46.663997
 20
228.775091
 30
0.0
 10
45.326997
 20
229.274091
 30
0.0
 10
43.932997
 20
229.577093
 30
0.0
 10
42.509996
 20
229.679091
 30
0.0
 10
33.509997
 20
229.679091
 30
0.0
 10
33.509997
 20
229.679091
 30
0.0
 10
23.509997
 20
229.679091
 30
0.0
 10
23.509997
 20
130.141091
 30
0.0
  0
LWPOLYLINE
  5
101
100
AcDbEntity
  8
0
 62
7
100
AcDbPolyline
 90
25
 70
0
 10
41.659996
 20
139.141093
 30
0.0
 10
41.722997
 20
139.617292
 30
0.0
 10
41.906997
 20
140.061092
 30
0.0
 10
42.198996
 20
140.442191
 30
0.0
 10
42.579996
 20
140.734593
 30
0.0
 10
43.023996
 20
140.918393
 30
0.0
 10
43.499998
 20
140.981091
 30
0.0
 10
43.975996
 20
140.918393
 30
0.0
 10
44.419997
 20
140.734593
 30
0.0
 10
44.800997
 20
140.442191
 30
0.0
 10
45.092995
 20
140.061092
 30
0.0
 10
45.276996
 20
139.617292
 30
0.0
 10
45.339996
 20
139.141093
 30
0.0
 10
45.276996
 20
138.664891
 30
0.0
 10
45.092995
 20
138.221091
 30
0.0
 10
44.800997
 20
137.839992
 30
0.0
 10
44.419997
 20
137.547593
 30
0.0
 10
43.975996
 20
137.363793
 30
0.0
 10
43.499998
 20
137.301091
 30
0.0
 10
43.023996
 20
137.363793
 30
0.0
 10
42.579996
 20
137.547593
 30
0.0
 10
42.198996
 20
137.839992
 30
0.0
 10
41.906997
 20
138.221091
 30
0.0
 10
41.722997
 20
138.664891
 30
0.0
 10
41.659996
 20
139.141093
 30
0.0
  0
LWPOLYLINE
  5
102
100
AcDbEntity
  8
0
 62
7
100
AcDbPolyline
 90
25
 70
0
 10
41.659996
 20
188.909991
 30
0.0
 10
41.722997
 20
189.386292
 30
0.0
 10
41.906997
 20
189.829993
 30
0.0
 10
42.198996
 20
190.211092
 30
0.0
 10
42.579996
 20
190.503491
 30
0.0
 10
43.023996
 20
190.687291
 30
0.0
 10
43.499998
 20
190.749992
 30
0.0
 10
43.975996
 20
190.687291
 30
0.0
 10
44.419997
 20
190.503491
 30
0.0
 10
44.800997
 20
190.211092
 30
0.0
 10
45.092995
 20
189.829993
 30
0.0
 10
45.276996
 20
189.386292
 30
0.0
 10
45.339996
 20
188.909991
 30
0.0
 10
45.276996
 20
188.433792
 30
0.0
 10
45.092995
 20
187.989992
 30
0.0
 10
44.800997
 20
187.608992
 30
0.0
 10
44.419997
 20
187.316593
 30
0.0
 10
43.975996
 20
187.132691
 30
0.0
 10
43.499998
 20
187.069992
 30
0.0
 10
43.023996
 20
187.132691
 30
0.0
 10
42.579996
 20
187.316593
 30
0.0
 10
42.198996
 20
187.608992
 30
0.0
 10
41.906997
 20
187.989992
 30
0.0
 10
41.722997
 20
188.433792
 30
0.0
 10
41.659996
 20
188.909991
 30
0.0
  0
LWPOLYLINE
  5
103
100
AcDbEntity
  8
0
 62
7
100
AcDbPolyline
 90
25
 70
0
 10
41.659996
 20
220.679092
 30
0.0
 10
41.722997
 20
221.155091
 30
0.0
 10
41.906997
 20
221.599091
 30
0.0
 10
42.198996
 20
221.980091
 30
0.0
 10
42.579996
 20
222.272092
 30
0.0
 10
43.023996
 20
222.456093
 30
0.0
 10
43.499998
 20
222.519090
 30
0.0
 10
43.975996
 20
222.456093
 30
0.0
 10
44.419997
 20
222.272092
 30
0.0
 10
44.800997
 20
221.980091
 30
0.0
 10
45.092995
 20
221.599091
 30
0.0
 10
45.276996
 20
221.155091
 30
0.0
 10
45.339996
 20
220.679092
 30
0.0
 10
45.276996
 20
220.203093
 30
0.0
 10
45.092995
 20
219.759093
 30
0.0
 10
44.800997
 20
219.378093
 30
0.0
 10
44.419997
 20
219.085092
 30
0.0
 10
43.975996
 20
218.902091
 30
0.0
 10
43.499998
 20
218.839090
 30
0.0
 10
43.023996
 20
218.902091
 30
0.0
 10
42.579996
 20
219.085092
 30
0.0
 10
42.198996
 20
219.378093
 30
0.0
 10
41.906997
 20
219.759093
 30
0.0
 10
41.722997
 20
220.203093
 30
0.0
 10
41.659996
 20
220.679092
 30
0.0
  0
LWPOLYLINE
  5
104
100
AcDbEntity
  8
0
 62
7
100
AcDbPolyline
 90
77
 70
0
 10
45.249996
 20
5.641080
 30
0.0
 10
45.272009
 20
5.148095
 30
0.0
 10
45.337995
 20
4.659088
 30
0.0
 10
45.447997
 20
4.178097
 30
0.0
 10
45.600995
 20
3.708084
 30
0.0
 10
45.794998
 20
3.255089
 30
0.0
 10
46.028997
 20
2.820100
 30
0.0
 10
46.299998
 20
2.408084
 30
0.0
 10
46.607995
 20
2.022088
 30
0.0
 10
46.948996
 20
1.666093
 30
0.0
 10
47.320996
 20
1.341086
 30
0.0
 10
47.719996
 20
1.051103
 30
0.0
 10
48.143995
 20
0.798091
 30
0.0
 10
48.588397
 20
0.584081
 30
0.0
 10
49.050397
 20
0.410091
 30
0.0
 10
49.526097
 20
0.279084
 30
0.0
 10
50.011697
 20
0.191087
 30
0.0
 10
50.503195
 20
0.147089
 30
0.0
 10
56.749995
 20
0.147089
 30
0.0
 10
56.749995
 20
0.141162
 30
0.0
 10
84.499998
 20
0.141105
 30
0.0
 10
84.499998
 20
0.147032
 30
0.0
 10
90.746797
 20
0.147089
 30
0.0
 10
91.238296
 20
0.191087
 30
0.0
 10
91.723896
 20
0.279084
 30
0.0
 10
92.199595
 20
0.410091
 30
0.0
 10
92.661596
 20
0.584081
 30
0.0
 10
93.106296
 20
0.798091
 30
0.0
 10
93.529898
 20
1.051103
 30
0.0
 10
93.929197
 20
1.341086
 30
0.0
 10
94.300796
 20
1.666093
 30
0.0
 10
94.641896
 20
2.022088
 30
0.0
 10
94.949597
 20
2.408084
 30
0.0
 10
95.221496
 20
2.820100
 30
0.0
 10
95.455297
 20
3.255089
 30
0.0
 10
95.649296
 20
3.708084
 30
0.0
 10
95.801795
 20
4.178097
 30
0.0
 10
95.911597
 20
4.659088
 30
0.0
 10
95.977896
 20
5.148095
 30
0.0
 10
95.999994
 20
5.641080
 30
0.0
 10
95.977899
 20
6.134094
 30
0.0
 10
95.911597
 20
6.623185
 30
0.0
 10
95.801795
 20
7.104290
 30
0.0
 10
95.649296
 20
7.573682
 30
0.0
 10
95.455297
 20
8.027495
 30
0.0
 10
95.221496
 20
8.462004
 30
0.0
 10
94.949597
 20
8.873879
 30
0.0
 10
94.641896
 20
9.259790
 30
0.0
 10
94.300796
 20
9.616491
 30
0.0
 10
93.929197
 20
9.941187
 30
0.0
 10
93.529898
 20
10.231284
 30
0.0
 10
93.106296
 20
10.484381
 30
0.0
 10
73.231296
 20
21.984406
 30
0.0
 10
72.786596
 20
22.198499
 30
0.0
 10
72.324598
 20
22.371897
 30
0.0
 10
71.848895
 20
22.503186
 30
0.0
 10
71.363295
 20
22.591296
 30
0.0
 10
70.871797
 20
22.635605
 30
0.0
 10
70.378196
 20
22.635605
 30
0.0
 10
69.886697
 20
22.591296
 30
0.0
 10
69.401097
 20
22.503186
 30
0.0
 10
68.925398
 20
22.371897
 30
0.0
 10
68.463397
 20
22.198499
 30
0.0
 10
68.018697
 20
21.984406
 30
0.0
 10
48.143995
 20
10.484381
 30
0.0
 10
47.719996
 20
10.231284
 30
0.0
 10
47.320996
 20
9.941187
 30
0.0
 10
46.948996
 20
9.616491
 30
0.0
 10
46.607995
 20
9.259790
 30
0.0
 10
46.299998
 20
8.873879
 30
0.0
 10
46.028997
 20
8.462004
 30
0.0
 10
45.794998
 20
8.027495
 30
0.0
 10
45.600995
 20
7.573682
 30
0.0
 10
45.447997
 20
7.104290
 30
0.0
 10
45.337995
 20
6.623185
 30
0.0
 10
45.271998
 20
6.134094
 30
0.0
 10
45.249984
 20
5.641080
 30
0.0
  0
LWPOLYLINE
  5
105
100
AcDbEntity
  8
0
 62
7
100
AcDbPolyline
 90
25
 70
0
 10
48.909997
 20
5.641080
 30
0.0
 10
48.972696
 20
6.117302
 30
0.0
 10
49.156496
 20
6.561097
 30
0.0
 10
49.448898
 20
6.942181
 30
0.0
 10
49.829997
 20
7.234592
 30
0.0
 10
50.273797
 20
7.418403
 30
0.0
 10
50.749996
 20
7.481085
 30
0.0
 10
51.226195
 20
7.418403
 30
0.0
 10
51.669995
 20
7.234592
 30
0.0
 10
52.051097
 20
6.942181
 30
0.0
 10
52.343496
 20
6.561097
 30
0.0
 10
52.527296
 20
6.117302
 30
0.0
 10
52.589997
 20
5.641080
 30
0.0
 10
52.527296
 20
5.164887
 30
0.0
 10
52.343496
 20
4.721092
 30
0.0
 10
52.051097
 20
4.340092
 30
0.0
 10
51.669995
 20
4.048105
 30
0.0
 10
51.226195
 20
3.864096
 30
0.0
 10
50.749996
 20
3.801104
 30
0.0
 10
50.273797
 20
3.864096
 30
0.0
 10
49.829997
 20
4.048105
 30
0.0
 10
49.448898
 20
4.340092
 30
0.0
 10
49.156496
 20
4.721092
 30
0.0
 10
48.972696
 20
5.164887
 30
0.0
 10
48.909997
 20
5.641080
 30
0.0
  0
LWPOLYLINE
  5
106
100
AcDbEntity
  8
0
 62
7
100
AcDbPolyline
 90
25
 70
0
 10
68.784998
 20
17.141105
 30
0.0
 10
68.847696
 20
17.617299
 30
0.0
 10
69.031496
 20
18.061093
 30
0.0
 10
69.323895
 20
18.442206
 30
0.0
 10
69.704997
 20
18.734588
 30
0.0
 10
70.148797
 20
18.918400
 30
0.0
 10
70.624996
 20
18.981110
 30
0.0
 10
71.101196
 20
18.918400
 30
0.0
 10
71.544996
 20
18.734588
 30
0.0
 10
71.926097
 20
18.442206
 30
0.0
 10
72.218496
 20
18.061093
 30
0.0
 10
72.402296
 20
17.617299
 30
0.0
 10
72.464998
 20
17.141105
 30
0.0
 10
72.402296
 20
16.664884
 30
0.0
 10
72.218496
 20
16.221089
 30
0.0
 10
71.926097
 20
15.840004
 30
0.0
 10
71.544996
 20
15.547594
 30
0.0
 10
71.101196
 20
15.363811
 30
0.0
 10
70.624996
 20
15.301101
 30
0.0
 10
70.148797
 20
15.363811
 30
0.0
 10
69.704997
 20
15.547594
 30
0.0
 10
69.323895
 20
15.840004
 30
0.0
 10
69.031496
 20
16.221089
 30
0.0
 10
68.847696
 20
16.664884
 30
0.0
 10
68.784998
 20
17.141105
 30
0.0
  0
LWPOLYLINE
  5
107
100
AcDbEntity
  8
0
 62
7
100
AcDbPolyline
 90
25
 70
0
 10
88.659995
 20
5.641080
 30
0.0
 10
88.722697
 20
6.117302
 30
0.0
 10
88.906497
 20
6.561097
 30
0.0
 10
89.198896
 20
6.942181
 30
0.0
 10
89.579998
 20
7.234592
 30
0.0
 10
90.023798
 20
7.418403
 30
0.0
 10
90.499997
 20
7.481085
 30
0.0
 10
90.976196
 20
7.418403
 30
0.0
 10
91.419996
 20
7.234592
 30
0.0
 10
91.801098
 20
6.942181
 30
0.0
 10
92.093497
 20
6.561097
 30
0.0
 10
92.277297
 20
6.117302
 30
0.0
 10
92.339995
 20
5.641080
 30
0.0
 10
92.277297
 20
5.164887
 30
0.0
 10
92.093497
 20
4.721092
 30
0.0
 10
91.801098
 20
4.340092
 30
0.0
 10
91.419996
 20
4.048105
 30
0.0
 10
90.976196
 20
3.864096
 30
0.0
 10
90.499997
 20
3.801104
 30
0.0
 10
90.023798
 20
3.864096
 30
0.0
 10
89.579998
 20
4.048105
 30
0.0
 10
89.198896
 20
4.340092
 30
0.0
 10
88.906497
 20
4.721092
 30
0.0
 10
88.722697
 20
5.164887
 30
0.0
 10
88.659995
 20
5.641080
 30
0.0
  0
LWPOLYLINE
  5
108
100
AcDbEntity
  8
0
 62
7
100
AcDbPolyline
 90
20
 70
0
 10
74.040797
 20
42.441077
 30
0.0
 10
74.062895
 20
41.948092
 30
0.0
 10
74.129197
 20
41.459000
 30
0.0
 10
74.238996
 20
40.977896
 30
0.0
 10
74.391497
 20
40.508476
 30
0.0
 10
74.585497
 20
40.054691
 30
0.0
 10
74.819296
 20
39.620182
 30
0.0
 10
75.091197
 20
39.208278
 30
0.0
 10
75.398895
 20
38.822396
 30
0.0
 10
75.739998
 20
38.465695
 30
0.0
 10
76.111597
 20
38.140998
 30
0.0
 10
76.510896
 20
37.850902
 30
0.0
 10
76.934497
 20
37.597777
 30
0.0
 10
77.379198
 20
37.383683
 30
0.0
 10
77.841196
 20
37.210286
 30
0.0
 10
78.316895
 20
37.078996
 30
0.0
 10
78.802495
 20
36.990886
 30
0.0
 10
79.293997
 20
36.946578
 30
0.0
 10
111.999996
 20
36.946578
 30
0.0
 10
111.999996
 20
36.941215
 30
0.0
  0
LWPOLYLINE
  5
109
100
AcDbEntity
  8
0
 62
7
100
AcDbPolyline
 90
3
 70
0
 10
111.999996
 20
36.941102
 30
0.0
 10
164.999995
 20
36.941102
 30
0.0
 10
164.999995
 20
36.946465
 30
0.0
  0
LWPOLYLINE
  5
10a
100
AcDbEntity
  8
0
 62
7
100
AcDbPolyline
 90
51
 70
0
 10
164.999995
 20
36.946578
 30
0.0
 10
171.246794
 20
36.946578
 30
0.0
 10
171.738296
 20
36.990886
 30
0.0
 10
172.223896
 20
37.078996
 30
0.0
 10
172.699595
 20
37.210286
 30
0.0
 10
173.161596
 20
37.383683
 30
0.0
 10
173.606296
 20
37.597777
 30
0.0
 10
174.029895
 20
37.850902
 30
0.0
 10
174.429194
 20
38.140998
 30
0.0
 10
174.800796
 20
38.465695
 30
0.0
 10
175.141896
 20
38.822396
 30
0.0
 10
175.449594
 20
39.208278
 30
0.0
 10
175.721495
 20
39.620182
 30
0.0
 10
175.955294
 20
40.054691
 30
0.0
 10
176.149296
 20
40.508476
 30
0.0
 10
176.301795
 20
40.977896
 30
0.0
 10
176.411596
 20
41.459000
 30
0.0
 10
176.477896
 20
41.948092
 30
0.0
 10
176.499994
 20
42.441077
 30
0.0
 10
176.477896
 20
42.934091
 30
0.0
 10
176.411596
 20
43.423182
 30
0.0
 10
176.301795
 20
43.904287
 30
0.0
 10
176.149296
 20
44.373679
 30
0.0
 10
175.955294
 20
44.827492
 30
0.0
 10
175.721495
 20
45.262001
 30
0.0
 10
175.449594
 20
45.673876
 30
0.0
 10
163.949594
 20
62.173886
 30
0.0
 10
163.641896
 20
62.559796
 30
0.0
 10
163.300797
 20
62.916497
 30
0.0
 10
162.929195
 20
63.241194
 30
0.0
 10
162.529895
 20
63.531290
 30
0.0
 10
162.106294
 20
63.784387
 30
0.0
 10
161.661596
 20
63.998481
 30
0.0
 10
161.199596
 20
64.171878
 30
0.0
 10
160.723896
 20
64.303196
 30
0.0
 10
160.238296
 20
64.391278
 30
0.0
 10
159.746795
 20
64.435586
 30
0.0
 10
159.253197
 20
64.435586
 30
0.0
 10
158.761695
 20
64.391278
 30
0.0
 10
158.276126
 20
64.303196
 30
0.0
 10
157.800404
 20
64.171878
 30
0.0
 10
157.338355
 20
63.998481
 30
0.0
 10
156.893714
 20
63.784387
 30
0.0
 10
156.470065
 20
63.531290
 30
0.0
 10
156.070805
 20
63.241194
 30
0.0
 10
155.699155
 20
62.916497
 30
0.0
 10
155.358107
 20
62.559796
 30
0.0
 10
155.050405
 20
62.173886
 30
0.0
 10
145.561854
 20
47.941080
 30
0.0
 10
111.999996
 20
47.941080
 30
0.0
 10
111.999996
 20
47.935436
 30
0.0
  0
LWPOLYLINE
  5
10b
100
AcDbEntity
  8
0
 62
7
100
AcDbPolyline
 90
19
 70
0
 10
111.999996
 20
47.935577
 30
0.0
 10
79.293997
 20
47.935577
 30
0.0
 10
78.802495
 20
47.891296
 30
0.0
 10
78.316895
 20
47.803187
 30
0.0
 10
77.841196
 20
47.671897
 30
0.0
 10
77.379198
 20
47.498500
 30
0.0
 10
76.934497
 20
47.284378
 30
0.0
 10
76.510896
 20
47.031281
 30
0.0
 10
76.111597
 20
46.741184
 30
0.0
 10
75.739998
 20
46.416488
 30
0.0
 10
75.398895
 20
46.059787
 30
0.0
 10
75.091197
 20
45.673876
 30
0.0
 10
74.819296
 20
45.262001
 30
0.0
 10
74.585497
 20
44.827492
 30
0.0
 10
74.391497
 20
44.373679
 30
0.0
 10
74.238996
 20
43.904287
 30
0.0
 10
74.129197
 20
43.423182
 30
0.0
 10
74.062898
 20
42.934091
 30
0.0
 10
74.040800
 20
42.441077
 30
0.0
  0
LWPOLYLINE
  5
10c
100
AcDbEntity
  8
0
 62
7
100
AcDbPolyline
 90
25
 70
0
 10
77.700796
 20
42.441077
 30
0.0
 10
77.763497
 20
42.917299
 30
0.0
 10
77.947297
 20
43.361094
 30
0.0
 10
78.239696
 20
43.742178
 30
0.0
 10
78.620798
 20
44.034589
 30
0.0
 10
79.064598
 20
44.218400
 30
0.0
 10
79.540797
 20
44.281082
 30
0.0
 10
80.016996
 20
44.218400
 30
0.0
 10
80.460796
 20
44.034589
 30
0.0
 10
80.841898
 20
43.742178
 30
0.0
 10
81.134297
 20
43.361094
 30
0.0
 10
81.318097
 20
42.917299
 30
0.0
 10
81.380796
 20
42.441077
 30
0.0
 10
81.318097
 20
41.964884
 30
0.0
 10
81.134297
 20
41.521089
 30
0.0
 10
80.841898
 20
41.139976
 30
0.0
 10
80.460796
 20
40.847594
 30
0.0
 10
80.016996
 20
40.663783
 30
0.0
 10
79.540797
 20
40.601101
 30
0.0
 10
79.064598
 20
40.663783
 30
0.0
 10
78.620798
 20
40.847594
 30
0.0
 10
78.239696
 20
41.139976
 30
0.0
 10
77.947297
 20
41.521089
 30
0.0
 10
77.763497
 20
41.964884
 30
0.0
 10
77.700796
 20
42.441077
 30
0.0
  0
LWPOLYLINE
  5
10d
100
AcDbEntity
  8
0
 62
7
100
AcDbPolyline
 90
25
 70
0
 10
157.659996
 20
58.941087
 30
0.0
 10
157.722694
 20
59.417280
 30
0.0
 10
157.906506
 20
59.861075
 30
0.0
 10
158.198916
 20
60.242188
 30
0.0
 10
158.579995
 20
60.534598
 30
0.0
 10
159.023795
 20
60.718381
 30
0.0
 10
159.499994
 20
60.781091
 30
0.0
 10
159.976196
 20
60.718381
 30
0.0
 10
160.419996
 20
60.534598
 30
0.0
 10
160.801095
 20
60.242188
 30
0.0
 10
161.093494
 20
59.861075
 30
0.0
 10
161.277294
 20
59.417280
 30
0.0
 10
161.339996
 20
58.941087
 30
0.0
 10
161.277294
 20
58.464893
 30
0.0
 10
161.093494
 20
58.021099
 30
0.0
 10
160.801095
 20
57.639986
 30
0.0
 10
160.419996
 20
57.347575
 30
0.0
 10
159.976196
 20
57.163792
 30
0.0
 10
159.499994
 20
57.101082
 30
0.0
 10
159.023795
 20
57.163792
 30
0.0
 10
158.579995
 20
57.347575
 30
0.0
 10
158.198916
 20
57.639986
 30
0.0
 10
157.906506
 20
58.021099
 30
0.0
 10
157.722694
 20
58.464893
 30
0.0
 10
157.659996
 20
58.941087
 30
0.0
  0
LWPOLYLINE
  5
10e
100
AcDbEntity
  8
0
 62
7
100
AcDbPolyline
 90
25
 70
0
 10
169.159995
 20
42.441077
 30
0.0
 10
169.222697
 20
42.917299
 30
0.0
 10
169.406497
 20
43.361094
 30
0.0
 10
169.698896
 20
43.742178
 30
0.0
 10
170.079995
 20
44.034589
 30
0.0
 10
170.523795
 20
44.218400
 30
0.0
 10
170.999994
 20
44.281082
 30
0.0
 10
171.476196
 20
44.218400
 30
0.0
 10
171.919996
 20
44.034589
 30
0.0
 10
172.301095
 20
43.742178
 30
0.0
 10
172.593494
 20
43.361094
 30
0.0
 10
172.777294
 20
42.917299
 30
0.0
 10
172.839995
 20
42.441077
 30
0.0
 10
172.777294
 20
41.964884
 30
0.0
 10
172.593494
 20
41.521089
 30
0.0
 10
172.301095
 20
41.139976
 30
0.0
 10
171.919996
 20
40.847594
 30
0.0
 10
171.476196
 20
40.663783
 30
0.0
 10
170.999994
 20
40.601101
 30
0.0
 10
170.523795
 20
40.663783
 30
0.0
 10
170.079995
 20
40.847594
 30
0.0
 10
169.698896
 20
41.139976
 30
0.0
 10
169.406497
 20
41.521089
 30
0.0
 10
169.222697
 20
41.964884
 30
0.0
 10
169.159995
 20
42.441077
 30
0.0
  0
LWPOLYLINE
  5
10f
100
AcDbEntity
  8
0
 62
7
100
AcDbPolyline
 90
77
 70
0
 10
120.499996
 20
172.841090
 30
0.0
 10
120.522094
 20
172.348090
 30
0.0
 10
120.588397
 20
171.858991
 30
0.0
 10
120.698195
 20
171.377892
 30
0.0
 10
120.850694
 20
170.908492
 30
0.0
 10
121.044696
 20
170.454693
 30
0.0
 10
121.278495
 20
170.020192
 30
0.0
 10
121.550396
 20
169.608291
 30
0.0
 10
121.858095
 20
169.222392
 30
0.0
 10
122.199194
 20
168.865691
 30
0.0
 10
122.570796
 20
168.540992
 30
0.0
 10
122.970095
 20
168.250893
 30
0.0
 10
123.393694
 20
167.997793
 30
0.0
 10
123.838394
 20
167.783691
 30
0.0
 10
124.300395
 20
167.610290
 30
0.0
 10
124.776095
 20
167.478992
 30
0.0
 10
125.261695
 20
167.390891
 30
0.0
 10
125.753196
 20
167.346590
 30
0.0
 10
131.999996
 20
167.346590
 30
0.0
 10
131.999996
 20
167.341087
 30
0.0
 10
164.999995
 20
167.341093
 30
0.0
 10
164.999995
 20
167.346596
 30
0.0
 10
171.246794
 20
167.346590
 30
0.0
 10
171.738296
 20
167.390891
 30
0.0
 10
172.223896
 20
167.478992
 30
0.0
 10
172.699595
 20
167.610290
 30
0.0
 10
173.161596
 20
167.783691
 30
0.0
 10
173.606296
 20
167.997793
 30
0.0
 10
174.029895
 20
168.250893
 30
0.0
 10
174.429194
 20
168.540992
 30
0.0
 10
174.800796
 20
168.865691
 30
0.0
 10
175.141896
 20
169.222392
 30
0.0
 10
175.449594
 20
169.608291
 30
0.0
 10
175.721495
 20
170.020192
 30
0.0
 10
175.955294
 20
170.454693
 30
0.0
 10
176.149296
 20
170.908492
 30
0.0
 10
176.301795
 20
171.377892
 30
0.0
 10
176.411596
 20
171.858991
 30
0.0
 10
176.477896
 20
172.348090
 30
0.0
 10
176.499994
 20
172.841090
 30
0.0
 10
176.477896
 20
173.334090
 30
0.0
 10
176.411596
 20
173.823193
 30
0.0
 10
176.301795
 20
174.304291
 30
0.0
 10
176.149296
 20
174.773692
 30
0.0
 10
175.955294
 20
175.227491
 30
0.0
 10
175.721495
 20
175.661992
 30
0.0
 10
175.449594
 20
176.073892
 30
0.0
 10
175.141896
 20
176.459792
 30
0.0
 10
174.800796
 20
176.816492
 30
0.0
 10
174.429194
 20
177.141192
 30
0.0
 10
151.929186
 20
193.641193
 30
0.0
 10
151.529926
 20
193.931292
 30
0.0
 10
151.106276
 20
194.184391
 30
0.0
 10
150.661635
 20
194.398491
 30
0.0
 10
150.199584
 20
194.571891
 30
0.0
 10
149.723864
 20
194.703192
 30
0.0
 10
149.238279
 20
194.791290
 30
0.0
 10
148.746752
 20
194.835591
 30
0.0
 10
148.253238
 20
194.835591
 30
0.0
 10
147.761712
 20
194.791290
 30
0.0
 10
147.276126
 20
194.703192
 30
0.0
 10
146.800406
 20
194.571891
 30
0.0
 10
146.338355
 20
194.398491
 30
0.0
 10
145.893717
 20
194.184391
 30
0.0
 10
145.470064
 20
193.931292
 30
0.0
 10
145.070805
 20
193.641193
 30
0.0
 10
122.570796
 20
177.141192
 30
0.0
 10
122.199194
 20
176.816492
 30
0.0
 10
121.858095
 20
176.459792
 30
0.0
 10
121.550396
 20
176.073892
 30
0.0
 10
121.278495
 20
175.661992
 30
0.0
 10
121.044696
 20
175.227491
 30
0.0
 10
120.850694
 20
174.773692
 30
0.0
 10
120.698195
 20
174.304291
 30
0.0
 10
120.588397
 20
173.823193
 30
0.0
 10
120.522094
 20
173.334090
 30
0.0
 10
120.499996
 20
172.841090
 30
0.0
  0
LWPOLYLINE
  5
110
100
AcDbEntity
  8
0
 62
7
100
AcDbPolyline
 90
25
 70
0
 10
124.159995
 20
172.841090
 30
0.0
 10
124.222696
 20
173.317292
 30
0.0
 10
124.406496
 20
173.761092
 30
0.0
 10
124.698895
 20
174.142191
 30
0.0
 10
125.079994
 20
174.434590
 30
0.0
 10
125.523794
 20
174.618390
 30
0.0
 10
125.999996
 20
174.681092
 30
0.0
 10
126.476196
 20
174.618390
 30
0.0
 10
126.919996
 20
174.434590
 30
0.0
 10
127.301094
 20
174.142191
 30
0.0
 10
127.593496
 20
173.761092
 30
0.0
 10
127.777296
 20
173.317292
 30
0.0
 10
127.839995
 20
172.841090
 30
0.0
 10
127.777296
 20
172.364891
 30
0.0
 10
127.593496
 20
171.921091
 30
0.0
 10
127.301094
 20
171.539992
 30
0.0
 10
126.919996
 20
171.247593
 30
0.0
 10
126.476196
 20
171.063793
 30
0.0
 10
125.999996
 20
171.001092
 30
0.0
 10
125.523794
 20
171.063793
 30
0.0
 10
125.079994
 20
171.247593
 30
0.0
 10
124.698895
 20
171.539992
 30
0.0
 10
124.406496
 20
171.921091
 30
0.0
 10
124.222696
 20
172.364891
 30
0.0
 10
124.159995
 20
172.841090
 30
0.0
  0
LWPOLYLINE
  5
111
100
AcDbEntity
  8
0
 62
7
100
AcDbPolyline
 90
25
 70
0
 10
146.659995
 20
189.341091
 30
0.0
 10
146.722696
 20
189.817290
 30
0.0
 10
146.906505
 20
190.261090
 30
0.0
 10
147.198915
 20
190.642192
 30
0.0
 10
147.579994
 20
190.934591
 30
0.0
 10
148.023769
 20
191.118391
 30
0.0
 10
148.499997
 20
191.181093
 30
0.0
 10
148.976221
 20
191.118391
 30
0.0
 10
149.419996
 20
190.934591
 30
0.0
 10
149.801075
 20
190.642192
 30
0.0
 10
150.093485
 20
190.261090
 30
0.0
 10
150.277297
 20
189.817290
 30
0.0
 10
150.339995
 20
189.341091
 30
0.0
 10
150.277297
 20
188.864892
 30
0.0
 10
150.093485
 20
188.421092
 30
0.0
 10
149.801075
 20
188.039993
 30
0.0
 10
149.419996
 20
187.747591
 30
0.0
 10
148.976221
 20
187.563791
 30
0.0
 10
148.499997
 20
187.501093
 30
0.0
 10
148.023769
 20
187.563791
 30
0.0
 10
147.579994
 20
187.747591
 30
0.0
 10
147.198915
 20
188.039993
 30
0.0
 10
146.906505
 20
188.421092
 30
0.0
 10
146.722696
 20
188.864892
 30
0.0
 10
146.659995
 20
189.341091
 30
0.0
  0
LWPOLYLINE
  5
112
100
AcDbEntity
  8
0
 62
7
100
AcDbPolyline
 90
25
 70
0
 10
169.159995
 20
172.841090
 30
0.0
 10
169.222697
 20
173.317292
 30
0.0
 10
169.406497
 20
173.761092
 30
0.0
 10
169.698896
 20
174.142191
 30
0.0
 10
170.079995
 20
174.434590
 30
0.0
 10
170.523795
 20
174.618390
 30
0.0
 10
170.999994
 20
174.681092
 30
0.0
 10
171.476196
 20
174.618390
 30
0.0
 10
171.919996
 20
174.434590
 30
0.0
 10
172.301095
 20
174.142191
 30
0.0
 10
172.593494
 20
173.761092
 30
0.0
 10
172.777294
 20
173.317292
 30
0.0
 10
172.839995
 20
172.841090
 30
0.0
 10
172.777294
 20
172.364891
 30
0.0
 10
172.593494
 20
171.921091
 30
0.0
 10
172.301095
 20
171.539992
 30
0.0
 10
171.919996
 20
171.247593
 30
0.0
 10
171.476196
 20
171.063793
 30
0.0
 10
170.999994
 20
171.001092
 30
0.0
 10
170.523795
 20
171.063793
 30
0.0
 10
170.079995
 20
171.247593
 30
0.0
 10
169.698896
 20
171.539992
 30
0.0
 10
169.406497
 20
171.921091
 30
0.0
 10
169.222697
 20
172.364891
 30
0.0
 10
169.159995
 20
172.841090
 30
0.0
  0
LWPOLYLINE
  5
113
100
AcDbEntity
  8
0
 62
7
100
AcDbPolyline
 90
77
 70
0
 10
200.999996
 20
5.641080
 30
0.0
 10
201.022094
 20
5.148095
 30
0.0
 10
201.088396
 20
4.659088
 30
0.0
 10
201.198198
 20
4.178097
 30
0.0
 10
201.350697
 20
3.708084
 30
0.0
 10
201.544696
 20
3.255089
 30
0.0
 10
201.778497
 20
2.820100
 30
0.0
 10
202.050396
 20
2.408084
 30
0.0
 10
202.358097
 20
2.022088
 30
0.0
 10
202.699197
 20
1.666093
 30
0.0
 10
203.070796
 20
1.341086
 30
0.0
 10
203.470095
 20
1.051103
 30
0.0
 10
203.893697
 20
0.798091
 30
0.0
 10
204.338397
 20
0.584081
 30
0.0
 10
204.800398
 20
0.410091
 30
0.0
 10
205.276097
 20
0.279084
 30
0.0
 10
205.761697
 20
0.191087
 30
0.0
 10
206.253196
 20
0.147089
 30
0.0
 10
212.499996
 20
0.147089
 30
0.0
 10
212.499996
 20
0.141162
 30
0.0
 10
240.249998
 20
0.141105
 30
0.0
 10
240.249998
 20
0.147032
 30
0.0
 10
246.496798
 20
0.147089
 30
0.0
 10
246.988296
 20
0.191087
 30
0.0
 10
247.473896
 20
0.279084
 30
0.0
 10
247.949596
 20
0.410091
 30
0.0
 10
248.411596
 20
0.584081
 30
0.0
 10
248.855998
 20
0.798091
 30
0.0
 10
249.279997
 20
1.051103
 30
0.0
 10
249.678997
 20
1.341086
 30
0.0
 10
250.050997
 20
1.666093
 30
0.0
 10
250.391998
 20
2.022088
 30
0.0
 10
250.699995
 20
2.408084
 30
0.0
 10
250.970996
 20
2.820100
 30
0.0
 10
251.204995
 20
3.255089
 30
0.0
 10
251.398998
 20
3.708084
 30
0.0
 10
251.551996
 20
4.178097
 30
0.0
 10
251.661998
 20
4.659088
 30
0.0
 10
251.727995
 20
5.148095
 30
0.0
 10
251.750009
 20
5.641080
 30
0.0
 10
251.727984
 20
6.134094
 30
0.0
 10
251.661998
 20
6.623185
 30
0.0
 10
251.551996
 20
7.104290
 30
0.0
 10
251.398998
 20
7.573682
 30
0.0
 10
251.204995
 20
8.027495
 30
0.0
 10
250.970996
 20
8.462004
 30
0.0
 10
250.699995
 20
8.873879
 30
0.0
 10
250.391998
 20
9.259790
 30
0.0
 10
250.050997
 20
9.616491
 30
0.0
 10
249.678997
 20
9.941187
 30
0.0
 10
249.279997
 20
10.231284
 30
0.0
 10
248.855998
 20
10.484381
 30
0.0
 10
228.981296
 20
21.984406
 30
0.0
 10
228.536596
 20
22.198499
 30
0.0
 10
228.074595
 20
22.371897
 30
0.0
 10
227.598896
 20
22.503186
 30
0.0
 10
227.113296
 20
22.591296
 30
0.0
 10
226.621797
 20
22.635605
 30
0.0
 10
226.128196
 20
22.635605
 30
0.0
 10
225.636698
 20
22.591296
 30
0.0
 10
225.151098
 20
22.503186
 30
0.0
 10
224.675395
 20
22.371897
 30
0.0
 10
224.213397
 20
22.198499
 30
0.0
 10
223.768697
 20
21.984406
 30
0.0
 10
203.893697
 20
10.484381
 30
0.0
 10
203.470095
 20
10.231284
 30
0.0
 10
203.070796
 20
9.941187
 30
0.0
 10
202.699197
 20
9.616491
 30
0.0
 10
202.358097
 20
9.259790
 30
0.0
 10
202.050396
 20
8.873879
 30
0.0
 10
201.778497
 20
8.462004
 30
0.0
 10
201.544696
 20
8.027495
 30
0.0
 10
201.350697
 20
7.573682
 30
0.0
 10
201.198198
 20
7.104290
 30
0.0
 10
201.088396
 20
6.623185
 30
0.0
 10
201.022097
 20
6.134094
 30
0.0
 10
200.999999
 20
5.641080
 30
0.0
  0
LWPOLYLINE
  5
114
100
AcDbEntity
  8
0
 62
7
100
AcDbPolyline
 90
25
 70
0
 10
204.659998
 20
5.641080
 30
0.0
 10
204.722696
 20
6.117302
 30
0.0
 10
204.906496
 20
6.561097
 30
0.0
 10
205.198895
 20
6.942181
 30
0.0
 10
205.579997
 20
7.234592
 30
0.0
 10
206.023797
 20
7.418403
 30
0.0
 10
206.499996
 20
7.481085
 30
0.0
 10
206.976195
 20
7.418403
 30
0.0
 10
207.419996
 20
7.234592
 30
0.0
 10
207.801097
 20
6.942181
 30
0.0
 10
208.093496
 20
6.561097
 30
0.0
 10
208.277296
 20
6.117302
 30
0.0
 10
208.339998
 20
5.641080
 30
0.0
 10
208.277296
 20
5.164887
 30
0.0
 10
208.093496
 20
4.721092
 30
0.0
 10
207.801097
 20
4.340092
 30
0.0
 10
207.419996
 20
4.048105
 30
0.0
 10
206.976195
 20
3.864096
 30
0.0
 10
206.499996
 20
3.801104
 30
0.0
 10
206.023797
 20
3.864096
 30
0.0
 10
205.579997
 20
4.048105
 30
0.0
 10
205.198895
 20
4.340092
 30
0.0
 10
204.906496
 20
4.721092
 30
0.0
 10
204.722696
 20
5.164887
 30
0.0
 10
204.659998
 20
5.641080
 30
0.0
  0
LWPOLYLINE
  5
115
100
AcDbEntity
  8
0
 62
7
100
AcDbPolyline
 90
25
 70
0
 10
224.534995
 20
17.141105
 30
0.0
 10
224.597697
 20
17.617299
 30
0.0
 10
224.781497
 20
18.061093
 30
0.0
 10
225.073896
 20
18.442206
 30
0.0
 10
225.454997
 20
18.734588
 30
0.0
 10
225.898797
 20
18.918400
 30
0.0
 10
226.374997
 20
18.981110
 30
0.0
 10
226.851196
 20
18.918400
 30
0.0
 10
227.294996
 20
18.734588
 30
0.0
 10
227.676098
 20
18.442206
 30
0.0
 10
227.968497
 20
18.061093
 30
0.0
 10
228.152297
 20
17.617299
 30
0.0
 10
228.214995
 20
17.141105
 30
0.0
 10
228.152297
 20
16.664884
 30
0.0
 10
227.968497
 20
16.221089
 30
0.0
 10
227.676098
 20
15.840004
 30
0.0
 10
227.294996
 20
15.547594
 30
0.0
 10
226.851196
 20
15.363811
 30
0.0
 10
226.374997
 20
15.301101
 30
0.0
 10
225.898797
 20
15.363811
 30
0.0
 10
225.454997
 20
15.547594
 30
0.0
 10
225.073896
 20
15.840004
 30
0.0
 10
224.781497
 20
16.221089
 30
0.0
 10
224.597697
 20
16.664884
 30
0.0
 10
224.534995
 20
17.141105
 30
0.0
  0
LWPOLYLINE
  5
116
100
AcDbEntity
  8
0
 62
7
100
AcDbPolyline
 90
25
 70
0
 10
244.409996
 20
5.641080
 30
0.0
 10
244.472697
 20
6.117302
 30
0.0
 10
244.656497
 20
6.561097
 30
0.0
 10
244.948896
 20
6.942181
 30
0.0
 10
245.329998
 20
7.234592
 30
0.0
 10
245.773798
 20
7.418403
 30
0.0
 10
246.249997
 20
7.481085
 30
0.0
 10
246.726196
 20
7.418403
 30
0.0
 10
247.169996
 20
7.234592
 30
0.0
 10
247.551095
 20
6.942181
 30
0.0
 10
247.843497
 20
6.561097
 30
0.0
 10
248.027297
 20
6.117302
 30
0.0
 10
248.089996
 20
5.641080
 30
0.0
 10
248.027297
 20
5.164887
 30
0.0
 10
247.843497
 20
4.721092
 30
0.0
 10
247.551095
 20
4.340092
 30
0.0
 10
247.169996
 20
4.048105
 30
0.0
 10
246.726196
 20
3.864096
 30
0.0
 10
246.249997
 20
3.801104
 30
0.0
 10
245.773798
 20
3.864096
 30
0.0
 10
245.329998
 20
4.048105
 30
0.0
 10
244.948896
 20
4.340092
 30
0.0
 10
244.656497
 20
4.721092
 30
0.0
 10
244.472697
 20
5.164887
 30
0.0
 10
244.409996
 20
5.641080
 30
0.0
  0
LWPOLYLINE
  5
117
100
AcDbEntity
  8
0
 62
7
100
AcDbPolyline
 90
55
 70
0
 10
218.624997
 20
203.141092
 30
0.0
 10
218.665696
 20
202.571793
 30
0.0
 10
218.786995
 20
202.014193
 30
0.0
 10
218.986495
 20
201.479393
 30
0.0
 10
219.259997
 20
200.978491
 30
0.0
 10
219.601996
 20
200.521691
 30
0.0
 10
220.005597
 20
200.118091
 30
0.0
 10
220.462396
 20
199.776091
 30
0.0
 10
220.963295
 20
199.502593
 30
0.0
 10
221.498095
 20
199.303092
 30
0.0
 10
222.055696
 20
199.181791
 30
0.0
 10
222.624997
 20
199.141091
 30
0.0
 10
244.489997
 20
199.141091
 30
0.0
 10
244.489997
 20
140.141091
 30
0.0
 10
244.591798
 20
138.717991
 30
0.0
 10
244.895096
 20
137.323790
 30
0.0
 10
245.393695
 20
135.986893
 30
0.0
 10
246.077497
 20
134.734692
 30
0.0
 10
246.932495
 20
133.592491
 30
0.0
 10
247.941397
 20
132.583592
 30
0.0
 10
249.083997
 20
131.728591
 30
0.0
 10
250.335996
 20
131.044792
 30
0.0
 10
251.672996
 20
130.546193
 30
0.0
 10
253.066996
 20
130.242891
 30
0.0
 10
254.489997
 20
130.141091
 30
0.0
 10
273.489996
 20
130.141091
 30
0.0
 10
273.489996
 20
229.679091
 30
0.0
 10
263.489996
 20
229.679091
 30
0.0
 10
263.489996
 20
229.679091
 30
0.0
 10
254.489997
 20
229.679091
 30
0.0
 10
253.066996
 20
229.577093
 30
0.0
 10
251.672996
 20
229.274091
 30
0.0
 10
250.335996
 20
228.775091
 30
0.0
 10
249.083997
 20
228.091091
 30
0.0
 10
247.941397
 20
227.236091
 30
0.0
 10
246.932495
 20
226.227092
 30
0.0
 10
246.077497
 20
225.085092
 30
0.0
 10
245.393695
 20
223.833092
 30
0.0
 10
244.895096
 20
222.496092
 30
0.0
 10
244.591798
 20
221.102092
 30
0.0
 10
244.489997
 20
219.679091
 30
0.0
 10
244.489997
 20
210.141092
 30
0.0
 10
222.624997
 20
210.141092
 30
0.0
 10
222.055696
 20
210.100091
 30
0.0
 10
221.498095
 20
209.979091
 30
0.0
 10
220.963295
 20
209.780093
 30
0.0
 10
220.462396
 20
209.506092
 30
0.0
 10
220.005597
 20
209.164092
 30
0.0
 10
219.601996
 20
208.760091
 30
0.0
 10
219.259997
 20
208.304090
 30
0.0
 10
218.986495
 20
207.803092
 30
0.0
 10
218.786995
 20
207.268092
 30
0.0
 10
218.665696
 20
206.710091
 30
0.0
 10
218.624997
 20
206.141091
 30
0.0
 10
218.624997
 20
203.141092
 30
0.0
  0
LWPOLYLINE
  5
118
100
AcDbEntity
  8
0
 62
7
100
AcDbPolyline
 90
25
 70
0
 10
251.659997
 20
139.141093
 30
0.0
 10
251.722997
 20
139.617292
 30
0.0
 10
251.906998
 20
140.061092
 30
0.0
 10
252.198996
 20
140.442191
 30
0.0
 10
252.579996
 20
140.734593
 30
0.0
 10
253.023997
 20
140.918393
 30
0.0
 10
253.499995
 20
140.981091
 30
0.0
 10
253.975997
 20
140.918393
 30
0.0
 10
254.419997
 20
140.734593
 30
0.0
 10
254.800997
 20
140.442191
 30
0.0
 10
255.092996
 20
140.061092
 30
0.0
 10
255.276996
 20
139.617292
 30
0.0
 10
255.339997
 20
139.141093
 30
0.0
 10
255.276996
 20
138.664891
 30
0.0
 10
255.092996
 20
138.221091
 30
0.0
 10
254.800997
 20
137.839992
 30
0.0
 10
254.419997
 20
137.547593
 30
0.0
 10
253.975997
 20
137.363793
 30
0.0
 10
253.499995
 20
137.301091
 30
0.0
 10
253.023997
 20
137.363793
 30
0.0
 10
252.579996
 20
137.547593
 30
0.0
 10
252.198996
 20
137.839992
 30
0.0
 10
251.906998
 20
138.221091
 30
0.0
 10
251.722997
 20
138.664891
 30
0.0
 10
251.659997
 20
139.141093
 30
0.0
  0
LWPOLYLINE
  5
119
100
AcDbEntity
  8
0
 62
7
100
AcDbPolyline
 90
25
 70
0
 10
251.659997
 20
188.909991
 30
0.0
 10
251.722997
 20
189.386292
 30
0.0
 10
251.906998
 20
189.829993
 30
0.0
 10
252.198996
 20
190.211092
 30
0.0
 10
252.579996
 20
190.503491
 30
0.0
 10
253.023997
 20
190.687291
 30
0.0
 10
253.499995
 20
190.749992
 30
0.0
 10
253.975997
 20
190.687291
 30
0.0
 10
254.419997
 20
190.503491
 30
0.0
 10
254.800997
 20
190.211092
 30
0.0
 10
255.092996
 20
189.829993
 30
0.0
 10
255.276996
 20
189.386292
 30
0.0
 10
255.339997
 20
188.909991
 30
0.0
 10
255.276996
 20
188.433792
 30
0.0
 10
255.092996
 20
187.989992
 30
0.0
 10
254.800997
 20
187.608992
 30
0.0
 10
254.419997
 20
187.316593
 30
0.0
 10
253.975997
 20
187.132691
 30
0.0
 10
253.499995
 20
187.069992
 30
0.0
 10
253.023997
 20
187.132691
 30
0.0
 10
252.579996
 20
187.316593
 30
0.0
 10
252.198996
 20
187.608992
 30
0.0
 10
251.906998
 20
187.989992
 30
0.0
 10
251.722997
 20
188.433792
 30
0.0
 10
251.659997
 20
188.909991
 30
0.0
  0
LWPOLYLINE
  5
11a
100
AcDbEntity
  8
0
 62
7
100
AcDbPolyline
 90
25
 70
0
 10
251.659997
 20
220.679092
 30
0.0
 10
251.722997
 20
221.155091
 30
0.0
 10
251.906998
 20
221.599091
 30
0.0
 10
252.198996
 20
221.980091
 30
0.0
 10
252.579996
 20
222.272092
 30
0.0
 10
253.023997
 20
222.456093
 30
0.0
 10
253.499995
 20
222.519090
 30
0.0
 10
253.975997
 20
222.456093
 30
0.0
 10
254.419997
 20
222.272092
 30
0.0
 10
254.800997
 20
221.980091
 30
0.0
 10
255.092996
 20
221.599091
 30
0.0
 10
255.276996
 20
221.155091
 30
0.0
 10
255.339997
 20
220.679092
 30
0.0
 10
255.276996
 20
220.203093
 30
0.0
 10
255.092996
 20
219.759093
 30
0.0
 10
254.800997
 20
219.378093
 30
0.0
 10
254.419997
 20
219.085092
 30
0.0
 10
253.975997
 20
218.902091
 30
0.0
 10
253.499995
 20
218.839090
 30
0.0
 10
253.023997
 20
218.902091
 30
0.0
 10
252.579996
 20
219.085092
 30
0.0
 10
252.198996
 20
219.378093
 30
0.0
 10
251.906998
 20
219.759093
 30
0.0
 10
251.722997
 20
220.203093
 30
0.0
 10
251.659997
 20
220.679092
 30
0.0
  0
ENDSEC
  0
SECTION
  2
OBJECTS
  0
DICTIONARY
  5
C
330
0
100
AcDbDictionary
  3
ACAD_GROUP
350
D
  3
ACAD_MLINESTYLE
350
17
  0
DICTIONARY
  5
D
330
C
100
AcDbDictionary
  0
DICTIONARY
  5
1A
330
C
100
AcDbDictionary
  0
DICTIONARY
  5
17
330
C
100
AcDbDictionary
  3
STANDARD
350
18
  0
DICTIONARY
  5
19
330
C
100
AcDbDictionary
  0
ENDSEC
  0
EOF
