  0
SECTION
  2
BLOCKS
  0
ENDSEC
  0
SECTION
  2
ENTITIES
  0
LINE
  8
0
 10
-124.99
 11
-105.99
 20
25
 21
25
  0
LINE
  8
0
 10
-105.99
 11
-104.567
 20
25
 21
25.1018
  0
LINE
  8
0
 10
-104.567
 11
-103.173
 20
25.1018
 21
25.4051
  0
LINE
  8
0
 10
-103.173
 11
-101.836
 20
25.4051
 21
25.9037
  0
LINE
  8
0
 10
-101.836
 11
-100.584
 20
25.9037
 21
26.5875
  0
LINE
  8
0
 10
-100.584
 11
-99.4414
 20
26.5875
 21
27.4425
  0
LINE
  8
0
 10
-99.4414
 11
-98.4325
 20
27.4425
 21
28.4514
  0
LINE
  8
0
 10
-98.4325
 11
-97.5775
 20
28.4514
 21
29.5936
  0
LINE
  8
0
 10
-97.5775
 11
-96.8937
 20
29.5936
 21
30.8458
  0
LINE
  8
0
 10
-96.8937
 11
-96.3951
 20
30.8458
 21
32.1827
  0
LINE
  8
0
 10
-96.3951
 11
-96.0918
 20
32.1827
 21
33.5769
  0
LINE
  8
0
 10
-96.0918
 11
-95.99
 20
33.5769
 21
35
  0
LINE
  8
0
 10
-95.99
 11
-95.99
 20
35
 21
94
  0
LINE
  8
0
 10
-95.99
 11
-74.125
 20
94
 21
94
  0
LINE
  8
0
 10
-74.125
 11
-73.5557
 20
94
 21
94.0407
  0
LINE
  8
0
 10
-73.5557
 11
-72.9981
 20
94.0407
 21
94.162
  0
LINE
  8
0
 10
-72.9981
 11
-72.4633
 20
94.162
 21
94.3615
  0
LINE
  8
0
 10
-72.4633
 11
-71.9624
 20
94.3615
 21
94.635
  0
LINE
  8
0
 10
-71.9624
 11
-71.5056
 20
94.635
 21
94.977
  0
LINE
  8
0
 10
-71.5056
 11
-71.102
 20
94.977
 21
95.3806
  0
LINE
  8
0
 10
-71.102
 11
-70.76
 20
95.3806
 21
95.8374
  0
LINE
  8
0
 10
-70.76
 11
-70.4865
 20
95.8374
 21
96.3383
  0
LINE
  8
0
 10
-70.4865
 11
-70.287
 20
96.3383
 21
96.8731
  0
LINE
  8
0
 10
-70.287
 11
-70.1657
 20
96.8731
 21
97.4307
  0
LINE
  8
0
 10
-70.1657
 11
-70.125
 20
97.4307
 21
98
  0
LINE
  8
0
 10
-70.125
 11
-70.125
 20
98
 21
101
  0
LINE
  8
0
 10
-70.125
 11
-70.1657
 20
101
 21
101.569
  0
LINE
  8
0
 10
-70.1657
 11
-70.287
 20
101.569
 21
102.127
  0
LINE
  8
0
 10
-70.287
 11
-70.4865
 20
102.127
 21
102.662
  0
LINE
  8
0
 10
-70.4865
 11
-70.76
 20
102.662
 21
103.163
  0
LINE
  8
0
 10
-70.76
 11
-71.102
 20
103.163
 21
103.619
  0
LINE
  8
0
 10
-71.102
 11
-71.5056
 20
103.619
 21
104.023
  0
LINE
  8
0
 10
-71.5056
 11
-71.9624
 20
104.023
 21
104.365
  0
LINE
  8
0
 10
-71.9624
 11
-72.4633
 20
104.365
 21
104.639
  0
LINE
  8
0
 10
-72.4633
 11
-72.9981
 20
104.639
 21
104.838
  0
LINE
  8
0
 10
-72.9981
 11
-73.5557
 20
104.838
 21
104.959
  0
LINE
  8
0
 10
-73.5557
 11
-74.125
 20
104.959
 21
105
  0
LINE
  8
0
 10
-74.125
 11
-95.99
 20
105
 21
105
  0
LINE
  8
0
 10
-95.99
 11
-95.99
 20
105
 21
114.538
  0
LINE
  8
0
 10
-95.99
 11
-96.0918
 20
114.538
 21
115.961
  0
LINE
  8
0
 10
-96.0918
 11
-96.3951
 20
115.961
 21
117.355
  0
LINE
  8
0
 10
-96.3951
 11
-96.8937
 20
117.355
 21
118.692
  0
LINE
  8
0
 10
-96.8937
 11
-97.5775
 20
118.692
 21
119.944
  0
LINE
  8
0
 10
-97.5775
 11
-98.4325
 20
119.944
 21
121.086
  0
LINE
  8
0
 10
-98.4325
 11
-99.4414
 20
121.086
 21
122.095
  0
LINE
  8
0
 10
-99.4414
 11
-100.584
 20
122.095
 21
122.95
  0
LINE
  8
0
 10
-100.584
 11
-101.836
 20
122.95
 21
123.634
  0
LINE
  8
0
 10
-101.836
 11
-103.173
 20
123.634
 21
124.133
  0
LINE
  8
0
 10
-103.173
 11
-104.567
 20
124.133
 21
124.436
  0
LINE
  8
0
 10
-104.567
 11
-105.99
 20
124.436
 21
124.538
  0
LINE
  8
0
 10
-105.99
 11
-114.99
 20
124.538
 21
124.538
  0
LINE
  8
0
 10
-114.99
 11
-114.99
 20
124.538
 21
124.538
  0
LINE
  8
0
 10
-114.99
 11
-124.99
 20
124.538
 21
124.538
  0
LINE
  8
0
 10
-124.99
 11
-124.99
 20
124.538
 21
25
  0
LINE
  8
0
 10
-106.84
 11
-106.777
 20
34
 21
34.4762
  0
LINE
  8
0
 10
-106.777
 11
-106.593
 20
34.4762
 21
34.92
  0
LINE
  8
0
 10
-106.593
 11
-106.301
 20
34.92
 21
35.3011
  0
LINE
  8
0
 10
-106.301
 11
-105.92
 20
35.3011
 21
35.5935
  0
LINE
  8
0
 10
-105.92
 11
-105.476
 20
35.5935
 21
35.7773
  0
LINE
  8
0
 10
-105.476
 11
-105
 20
35.7773
 21
35.84
  0
LINE
  8
0
 10
-105
 11
-104.524
 20
35.84
 21
35.7773
  0
LINE
  8
0
 10
-104.524
 11
-104.08
 20
35.7773
 21
35.5935
  0
LINE
  8
0
 10
-104.08
 11
-103.699
 20
35.5935
 21
35.3011
  0
LINE
  8
0
 10
-103.699
 11
-103.407
 20
35.3011
 21
34.92
  0
LINE
  8
0
 10
-103.407
 11
-103.223
 20
34.92
 21
34.4762
  0
LINE
  8
0
 10
-103.223
 11
-103.16
 20
34.4762
 21
34
  0
LINE
  8
0
 10
-103.16
 11
-103.223
 20
34
 21
33.5238
  0
LINE
  8
0
 10
-103.223
 11
-103.407
 20
33.5238
 21
33.08
  0
LINE
  8
0
 10
-103.407
 11
-103.699
 20
33.08
 21
32.6989
  0
LINE
  8
0
 10
-103.699
 11
-104.08
 20
32.6989
 21
32.4065
  0
LINE
  8
0
 10
-104.08
 11
-104.524
 20
32.4065
 21
32.2227
  0
LINE
  8
0
 10
-104.524
 11
-105
 20
32.2227
 21
32.16
  0
LINE
  8
0
 10
-105
 11
-105.476
 20
32.16
 21
32.2227
  0
LINE
  8
0
 10
-105.476
 11
-105.92
 20
32.2227
 21
32.4065
  0
LINE
  8
0
 10
-105.92
 11
-106.301
 20
32.4065
 21
32.6989
  0
LINE
  8
0
 10
-106.301
 11
-106.593
 20
32.6989
 21
33.08
  0
LINE
  8
0
 10
-106.593
 11
-106.777
 20
33.08
 21
33.5238
  0
LINE
  8
0
 10
-106.777
 11
-106.84
 20
33.5238
 21
34
  0
LINE
  8
0
 10
-106.84
 11
-106.777
 20
83.7689
 21
84.2452
  0
LINE
  8
0
 10
-106.777
 11
-106.593
 20
84.2452
 21
84.6889
  0
LINE
  8
0
 10
-106.593
 11
-106.301
 20
84.6889
 21
85.07
  0
LINE
  8
0
 10
-106.301
 11
-105.92
 20
85.07
 21
85.3624
  0
LINE
  8
0
 10
-105.92
 11
-105.476
 20
85.3624
 21
85.5462
  0
LINE
  8
0
 10
-105.476
 11
-105
 20
85.5462
 21
85.6089
  0
LINE
  8
0
 10
-105
 11
-104.524
 20
85.6089
 21
85.5462
  0
LINE
  8
0
 10
-104.524
 11
-104.08
 20
85.5462
 21
85.3624
  0
LINE
  8
0
 10
-104.08
 11
-103.699
 20
85.3624
 21
85.07
  0
LINE
  8
0
 10
-103.699
 11
-103.407
 20
85.07
 21
84.6889
  0
LINE
  8
0
 10
-103.407
 11
-103.223
 20
84.6889
 21
84.2452
  0
LINE
  8
0
 10
-103.223
 11
-103.16
 20
84.2452
 21
83.7689
  0
LINE
  8
0
 10
-103.16
 11
-103.223
 20
83.7689
 21
83.2927
  0
LINE
  8
0
 10
-103.223
 11
-103.407
 20
83.2927
 21
82.8489
  0
LINE
  8
0
 10
-103.407
 11
-103.699
 20
82.8489
 21
82.4679
  0
LINE
  8
0
 10
-103.699
 11
-104.08
 20
82.4679
 21
82.1755
  0
LINE
  8
0
 10
-104.08
 11
-104.524
 20
82.1755
 21
81.9916
  0
LINE
  8
0
 10
-104.524
 11
-105
 20
81.9916
 21
81.9289
  0
LINE
  8
0
 10
-105
 11
-105.476
 20
81.9289
 21
81.9916
  0
LINE
  8
0
 10
-105.476
 11
-105.92
 20
81.9916
 21
82.1755
  0
LINE
  8
0
 10
-105.92
 11
-106.301
 20
82.1755
 21
82.4679
  0
LINE
  8
0
 10
-106.301
 11
-106.593
 20
82.4679
 21
82.8489
  0
LINE
  8
0
 10
-106.593
 11
-106.777
 20
82.8489
 21
83.2927
  0
LINE
  8
0
 10
-106.777
 11
-106.84
 20
83.2927
 21
83.7689
  0
LINE
  8
0
 10
-106.84
 11
-106.777
 20
115.538
 21
116.014
  0
LINE
  8
0
 10
-106.777
 11
-106.593
 20
116.014
 21
116.458
  0
LINE
  8
0
 10
-106.593
 11
-106.301
 20
116.458
 21
116.839
  0
LINE
  8
0
 10
-106.301
 11
-105.92
 20
116.839
 21
117.131
  0
LINE
  8
0
 10
-105.92
 11
-105.476
 20
117.131
 21
117.315
  0
LINE
  8
0
 10
-105.476
 11
-105
 20
117.315
 21
117.378
  0
LINE
  8
0
 10
-105
 11
-104.524
 20
117.378
 21
117.315
  0
LINE
  8
0
 10
-104.524
 11
-104.08
 20
117.315
 21
117.131
  0
LINE
  8
0
 10
-104.08
 11
-103.699
 20
117.131
 21
116.839
  0
LINE
  8
0
 10
-103.699
 11
-103.407
 20
116.839
 21
116.458
  0
LINE
  8
0
 10
-103.407
 11
-103.223
 20
116.458
 21
116.014
  0
LINE
  8
0
 10
-103.223
 11
-103.16
 20
116.014
 21
115.538
  0
LINE
  8
0
 10
-103.16
 11
-103.223
 20
115.538
 21
115.062
  0
LINE
  8
0
 10
-103.223
 11
-103.407
 20
115.062
 21
114.618
  0
LINE
  8
0
 10
-103.407
 11
-103.699
 20
114.618
 21
114.237
  0
LINE
  8
0
 10
-103.699
 11
-104.08
 20
114.237
 21
113.944
  0
LINE
  8
0
 10
-104.08
 11
-104.524
 20
113.944
 21
113.761
  0
LINE
  8
0
 10
-104.524
 11
-105
 20
113.761
 21
113.698
  0
LINE
  8
0
 10
-105
 11
-105.476
 20
113.698
 21
113.761
  0
LINE
  8
0
 10
-105.476
 11
-105.92
 20
113.761
 21
113.944
  0
LINE
  8
0
 10
-105.92
 11
-106.301
 20
113.944
 21
114.237
  0
LINE
  8
0
 10
-106.301
 11
-106.593
 20
114.237
 21
114.618
  0
LINE
  8
0
 10
-106.593
 11
-106.777
 20
114.618
 21
115.062
  0
LINE
  8
0
 10
-106.777
 11
-106.84
 20
115.062
 21
115.538
  0
LINE
  8
0
 10
-103.25
 11
-103.228
 20
-99.5
 21
-99.993
  0
LINE
  8
0
 10
-103.228
 11
-103.162
 20
-99.993
 21
-100.482
  0
LINE
  8
0
 10
-103.162
 11
-103.052
 20
-100.482
 21
-100.963
  0
LINE
  8
0
 10
-103.052
 11
-102.899
 20
-100.963
 21
-101.433
  0
LINE
  8
0
 10
-102.899
 11
-102.705
 20
-101.433
 21
-101.886
  0
LINE
  8
0
 10
-102.705
 11
-102.471
 20
-101.886
 21
-102.321
  0
LINE
  8
0
 10
-102.471
 11
-102.2
 20
-102.321
 21
-102.733
  0
LINE
  8
0
 10
-102.2
 11
-101.892
 20
-102.733
 21
-103.119
  0
LINE
  8
0
 10
-101.892
 11
-101.551
 20
-103.119
 21
-103.475
  0
LINE
  8
0
 10
-101.551
 11
-101.179
 20
-103.475
 21
-103.8
  0
LINE
  8
0
 10
-101.179
 11
-100.78
 20
-103.8
 21
-104.09
  0
LINE
  8
0
 10
-100.78
 11
-100.356
 20
-104.09
 21
-104.343
  0
LINE
  8
0
 10
-100.356
 11
-99.9116
 20
-104.343
 21
-104.557
  0
LINE
  8
0
 10
-99.9116
 11
-99.4496
 20
-104.557
 21
-104.731
  0
LINE
  8
0
 10
-99.4496
 11
-98.9739
 20
-104.731
 21
-104.862
  0
LINE
  8
0
 10
-98.9739
 11
-98.4883
 20
-104.862
 21
-104.95
  0
LINE
  8
0
 10
-98.4883
 11
-97.9968
 20
-104.95
 21
-104.994
  0
LINE
  8
0
 10
-97.9968
 11
-91.75
 20
-104.994
 21
-104.994
  0
LINE
  8
0
 10
-91.75
 11
-91.75
 20
-104.994
 21
-105
  0
LINE
  8
0
 10
-91.75
 11
-64
 20
-105
 21
-105
  0
LINE
  8
0
 10
-64
 11
-64
 20
-105
 21
-104.994
  0
LINE
  8
0
 10
-64
 11
-57.7532
 20
-104.994
 21
-104.994
  0
LINE
  8
0
 10
-57.7532
 11
-57.2617
 20
-104.994
 21
-104.95
  0
LINE
  8
0
 10
-57.2617
 11
-56.7761
 20
-104.95
 21
-104.862
  0
LINE
  8
0
 10
-56.7761
 11
-56.3004
 20
-104.862
 21
-104.731
  0
LINE
  8
0
 10
-56.3004
 11
-55.8384
 20
-104.731
 21
-104.557
  0
LINE
  8
0
 10
-55.8384
 11
-55.3937
 20
-104.557
 21
-104.343
  0
LINE
  8
0
 10
-55.3937
 11
-54.9701
 20
-104.343
 21
-104.09
  0
LINE
  8
0
 10
-54.9701
 11
-54.5708
 20
-104.09
 21
-103.8
  0
LINE
  8
0
 10
-54.5708
 11
-54.1992
 20
-103.8
 21
-103.475
  0
LINE
  8
0
 10
-54.1992
 11
-53.8581
 20
-103.475
 21
-103.119
  0
LINE
  8
0
 10
-53.8581
 11
-53.5504
 20
-103.119
 21
-102.733
  0
LINE
  8
0
 10
-53.5504
 11
-53.2785
 20
-102.733
 21
-102.321
  0
LINE
  8
0
 10
-53.2785
 11
-53.0447
 20
-102.321
 21
-101.886
  0
LINE
  8
0
 10
-53.0447
 11
-52.8507
 20
-101.886
 21
-101.433
  0
LINE
  8
0
 10
-52.8507
 11
-52.6982
 20
-101.433
 21
-100.963
  0
LINE
  8
0
 10
-52.6982
 11
-52.5884
 20
-100.963
 21
-100.482
  0
LINE
  8
0
 10
-52.5884
 11
-52.5221
 20
-100.482
 21
-99.993
  0
LINE
  8
0
 10
-52.5221
 11
-52.5
 20
-99.993
 21
-99.5
  0
LINE
  8
0
 10
-52.5
 11
-52.5221
 20
-99.5
 21
-99.007
  0
LINE
  8
0
 10
-52.5221
 11
-52.5884
 20
-99.007
 21
-98.5179
  0
LINE
  8
0
 10
-52.5884
 11
-52.6982
 20
-98.5179
 21
-98.0368
  0
LINE
  8
0
 10
-52.6982
 11
-52.8507
 20
-98.0368
 21
-97.5674
  0
LINE
  8
0
 10
-52.8507
 11
-53.0447
 20
-97.5674
 21
-97.1136
  0
LINE
  8
0
 10
-53.0447
 11
-53.2785
 20
-97.1136
 21
-96.6791
  0
LINE
  8
0
 10
-53.2785
 11
-53.5504
 20
-96.6791
 21
-96.2672
  0
LINE
  8
0
 10
-53.5504
 11
-53.8581
 20
-96.2672
 21
-95.8813
  0
LINE
  8
0
 10
-53.8581
 11
-54.1992
 20
-95.8813
 21
-95.5246
  0
LINE
  8
0
 10
-54.1992
 11
-54.5708
 20
-95.5246
 21
-95.1999
  0
LINE
  8
0
 10
-54.5708
 11
-54.9701
 20
-95.1999
 21
-94.9098
  0
LINE
  8
0
 10
-54.9701
 11
-55.3937
 20
-94.9098
 21
-94.6567
  0
LINE
  8
0
 10
-55.3937
 11
-75.2687
 20
-94.6567
 21
-83.1567
  0
LINE
  8
0
 10
-75.2687
 11
-75.7134
 20
-83.1567
 21
-82.9426
  0
LINE
  8
0
 10
-75.7134
 11
-76.1754
 20
-82.9426
 21
-82.7692
  0
LINE
  8
0
 10
-76.1754
 11
-76.6511
 20
-82.7692
 21
-82.6379
  0
LINE
  8
0
 10
-76.6511
 11
-77.1367
 20
-82.6379
 21
-82.5498
  0
LINE
  8
0
 10
-77.1367
 11
-77.6282
 20
-82.5498
 21
-82.5055
  0
LINE
  8
0
 10
-77.6282
 11
-78.1218
 20
-82.5055
 21
-82.5055
  0
LINE
  8
0
 10
-78.1218
 11
-78.6133
 20
-82.5055
 21
-82.5498
  0
LINE
  8
0
 10
-78.6133
 11
-79.0989
 20
-82.5498
 21
-82.6379
  0
LINE
  8
0
 10
-79.0989
 11
-79.5746
 20
-82.6379
 21
-82.7692
  0
LINE
  8
0
 10
-79.5746
 11
-80.0366
 20
-82.7692
 21
-82.9426
  0
LINE
  8
0
 10
-80.0366
 11
-80.4813
 20
-82.9426
 21
-83.1567
  0
LINE
  8
0
 10
-80.4813
 11
-100.356
 20
-83.1567
 21
-94.6567
  0
LINE
  8
0
 10
-100.356
 11
-100.78
 20
-94.6567
 21
-94.9098
  0
LINE
  8
0
 10
-100.78
 11
-101.179
 20
-94.9098
 21
-95.1999
  0
LINE
  8
0
 10
-101.179
 11
-101.551
 20
-95.1999
 21
-95.5246
  0
LINE
  8
0
 10
-101.551
 11
-101.892
 20
-95.5246
 21
-95.8813
  0
LINE
  8
0
 10
-101.892
 11
-102.2
 20
-95.8813
 21
-96.2672
  0
LINE
  8
0
 10
-102.2
 11
-102.471
 20
-96.2672
 21
-96.6791
  0
LINE
  8
0
 10
-102.471
 11
-102.705
 20
-96.6791
 21
-97.1136
  0
LINE
  8
0
 10
-102.705
 11
-102.899
 20
-97.1136
 21
-97.5674
  0
LINE
  8
0
 10
-102.899
 11
-103.052
 20
-97.5674
 21
-98.0368
  0
LINE
  8
0
 10
-103.052
 11
-103.162
 20
-98.0368
 21
-98.5179
  0
LINE
  8
0
 10
-103.162
 11
-103.228
 20
-98.5179
 21
-99.007
  0
LINE
  8
0
 10
-103.228
 11
-103.25
 20
-99.007
 21
-99.5
  0
LINE
  8
0
 10
-99.59
 11
-99.5273
 20
-99.5
 21
-99.0238
  0
LINE
  8
0
 10
-99.5273
 11
-99.3435
 20
-99.0238
 21
-98.58
  0
LINE
  8
0
 10
-99.3435
 11
-99.0511
 20
-98.58
 21
-98.1989
  0
LINE
  8
0
 10
-99.0511
 11
-98.67
 20
-98.1989
 21
-97.9065
  0
LINE
  8
0
 10
-98.67
 11
-98.2262
 20
-97.9065
 21
-97.7227
  0
LINE
  8
0
 10
-98.2262
 11
-97.75
 20
-97.7227
 21
-97.66
  0
LINE
  8
0
 10
-97.75
 11
-97.2738
 20
-97.66
 21
-97.7227
  0
LINE
  8
0
 10
-97.2738
 11
-96.83
 20
-97.7227
 21
-97.9065
  0
LINE
  8
0
 10
-96.83
 11
-96.4489
 20
-97.9065
 21
-98.1989
  0
LINE
  8
0
 10
-96.4489
 11
-96.1565
 20
-98.1989
 21
-98.58
  0
LINE
  8
0
 10
-96.1565
 11
-95.9727
 20
-98.58
 21
-99.0238
  0
LINE
  8
0
 10
-95.9727
 11
-95.91
 20
-99.0238
 21
-99.5
  0
LINE
  8
0
 10
-95.91
 11
-95.9727
 20
-99.5
 21
-99.9762
  0
LINE
  8
0
 10
-95.9727
 11
-96.1565
 20
-99.9762
 21
-100.42
  0
LINE
  8
0
 10
-96.1565
 11
-96.4489
 20
-100.42
 21
-100.801
  0
LINE
  8
0
 10
-96.4489
 11
-96.83
 20
-100.801
 21
-101.093
  0
LINE
  8
0
 10
-96.83
 11
-97.2738
 20
-101.093
 21
-101.277
  0
LINE
  8
0
 10
-97.2738
 11
-97.75
 20
-101.277
 21
-101.34
  0
LINE
  8
0
 10
-97.75
 11
-98.2262
 20
-101.34
 21
-101.277
  0
LINE
  8
0
 10
-98.2262
 11
-98.67
 20
-101.277
 21
-101.093
  0
LINE
  8
0
 10
-98.67
 11
-99.0511
 20
-101.093
 21
-100.801
  0
LINE
  8
0
 10
-99.0511
 11
-99.3435
 20
-100.801
 21
-100.42
  0
LINE
  8
0
 10
-99.3435
 11
-99.5273
 20
-100.42
 21
-99.9762
  0
LINE
  8
0
 10
-99.5273
 11
-99.59
 20
-99.9762
 21
-99.5
  0
LINE
  8
0
 10
-79.715
 11
-79.6523
 20
-88
 21
-87.5238
  0
LINE
  8
0
 10
-79.6523
 11
-79.4685
 20
-87.5238
 21
-87.08
  0
LINE
  8
0
 10
-79.4685
 11
-79.1761
 20
-87.08
 21
-86.6989
  0
LINE
  8
0
 10
-79.1761
 11
-78.795
 20
-86.6989
 21
-86.4065
  0
LINE
  8
0
 10
-78.795
 11
-78.3512
 20
-86.4065
 21
-86.2227
  0
LINE
  8
0
 10
-78.3512
 11
-77.875
 20
-86.2227
 21
-86.16
  0
LINE
  8
0
 10
-77.875
 11
-77.3988
 20
-86.16
 21
-86.2227
  0
LINE
  8
0
 10
-77.3988
 11
-76.955
 20
-86.2227
 21
-86.4065
  0
LINE
  8
0
 10
-76.955
 11
-76.5739
 20
-86.4065
 21
-86.6989
  0
LINE
  8
0
 10
-76.5739
 11
-76.2815
 20
-86.6989
 21
-87.08
  0
LINE
  8
0
 10
-76.2815
 11
-76.0977
 20
-87.08
 21
-87.5238
  0
LINE
  8
0
 10
-76.0977
 11
-76.035
 20
-87.5238
 21
-88
  0
LINE
  8
0
 10
-76.035
 11
-76.0977
 20
-88
 21
-88.4762
  0
LINE
  8
0
 10
-76.0977
 11
-76.2815
 20
-88.4762
 21
-88.92
  0
LINE
  8
0
 10
-76.2815
 11
-76.5739
 20
-88.92
 21
-89.3011
  0
LINE
  8
0
 10
-76.5739
 11
-76.955
 20
-89.3011
 21
-89.5935
  0
LINE
  8
0
 10
-76.955
 11
-77.3988
 20
-89.5935
 21
-89.7773
  0
LINE
  8
0
 10
-77.3988
 11
-77.875
 20
-89.7773
 21
-89.84
  0
LINE
  8
0
 10
-77.875
 11
-78.3512
 20
-89.84
 21
-89.7773
  0
LINE
  8
0
 10
-78.3512
 11
-78.795
 20
-89.7773
 21
-89.5935
  0
LINE
  8
0
 10
-78.795
 11
-79.1761
 20
-89.5935
 21
-89.3011
  0
LINE
  8
0
 10
-79.1761
 11
-79.4685
 20
-89.3011
 21
-88.92
  0
LINE
  8
0
 10
-79.4685
 11
-79.6523
 20
-88.92
 21
-88.4762
  0
LINE
  8
0
 10
-79.6523
 11
-79.715
 20
-88.4762
 21
-88
  0
LINE
  8
0
 10
-59.84
 11
-59.7773
 20
-99.5
 21
-99.0238
  0
LINE
  8
0
 10
-59.7773
 11
-59.5935
 20
-99.0238
 21
-98.58
  0
LINE
  8
0
 10
-59.5935
 11
-59.3011
 20
-98.58
 21
-98.1989
  0
LINE
  8
0
 10
-59.3011
 11
-58.92
 20
-98.1989
 21
-97.9065
  0
LINE
  8
0
 10
-58.92
 11
-58.4762
 20
-97.9065
 21
-97.7227
  0
LINE
  8
0
 10
-58.4762
 11
-58
 20
-97.7227
 21
-97.66
  0
LINE
  8
0
 10
-58
 11
-57.5238
 20
-97.66
 21
-97.7227
  0
LINE
  8
0
 10
-57.5238
 11
-57.08
 20
-97.7227
 21
-97.9065
  0
LINE
  8
0
 10
-57.08
 11
-56.6989
 20
-97.9065
 21
-98.1989
  0
LINE
  8
0
 10
-56.6989
 11
-56.4065
 20
-98.1989
 21
-98.58
  0
LINE
  8
0
 10
-56.4065
 11
-56.2227
 20
-98.58
 21
-99.0238
  0
LINE
  8
0
 10
-56.2227
 11
-56.16
 20
-99.0238
 21
-99.5
  0
LINE
  8
0
 10
-56.16
 11
-56.2227
 20
-99.5
 21
-99.9762
  0
LINE
  8
0
 10
-56.2227
 11
-56.4065
 20
-99.9762
 21
-100.42
  0
LINE
  8
0
 10
-56.4065
 11
-56.6989
 20
-100.42
 21
-100.801
  0
LINE
  8
0
 10
-56.6989
 11
-57.08
 20
-100.801
 21
-101.093
  0
LINE
  8
0
 10
-57.08
 11
-57.5238
 20
-101.093
 21
-101.277
  0
LINE
  8
0
 10
-57.5238
 11
-58
 20
-101.277
 21
-101.34
  0
LINE
  8
0
 10
-58
 11
-58.4762
 20
-101.34
 21
-101.277
  0
LINE
  8
0
 10
-58.4762
 11
-58.92
 20
-101.277
 21
-101.093
  0
LINE
  8
0
 10
-58.92
 11
-59.3011
 20
-101.093
 21
-100.801
  0
LINE
  8
0
 10
-59.3011
 11
-59.5935
 20
-100.801
 21
-100.42
  0
LINE
  8
0
 10
-59.5935
 11
-59.7773
 20
-100.42
 21
-99.9762
  0
LINE
  8
0
 10
-59.7773
 11
-59.84
 20
-99.9762
 21
-99.5
  0
LINE
  8
0
 10
-74.4592
 11
-74.4371
 20
-71.9
 21
-72.393
  0
LINE
  8
0
 10
-74.4371
 11
-74.3708
 20
-72.393
 21
-72.8821
  0
LINE
  8
0
 10
-74.3708
 11
-74.261
 20
-72.8821
 21
-73.3632
  0
LINE
  8
0
 10
-74.261
 11
-74.1085
 20
-73.3632
 21
-73.8326
  0
LINE
  8
0
 10
-74.1085
 11
-73.9145
 20
-73.8326
 21
-74.2864
  0
LINE
  8
0
 10
-73.9145
 11
-73.6807
 20
-74.2864
 21
-74.7209
  0
LINE
  8
0
 10
-73.6807
 11
-73.4088
 20
-74.7209
 21
-75.1328
  0
LINE
  8
0
 10
-73.4088
 11
-73.1011
 20
-75.1328
 21
-75.5187
  0
LINE
  8
0
 10
-73.1011
 11
-72.76
 20
-75.5187
 21
-75.8754
  0
LINE
  8
0
 10
-72.76
 11
-72.3884
 20
-75.8754
 21
-76.2001
  0
LINE
  8
0
 10
-72.3884
 11
-71.9891
 20
-76.2001
 21
-76.4902
  0
LINE
  8
0
 10
-71.9891
 11
-71.5655
 20
-76.4902
 21
-76.7433
  0
LINE
  8
0
 10
-71.5655
 11
-71.1208
 20
-76.7433
 21
-76.9574
  0
LINE
  8
0
 10
-71.1208
 11
-70.6588
 20
-76.9574
 21
-77.1308
  0
LINE
  8
0
 10
-70.6588
 11
-70.1831
 20
-77.1308
 21
-77.2621
  0
LINE
  8
0
 10
-70.1831
 11
-69.6975
 20
-77.2621
 21
-77.3502
  0
LINE
  8
0
 10
-69.6975
 11
-69.206
 20
-77.3502
 21
-77.3945
  0
LINE
  8
0
 10
-69.206
 11
-36.5
 20
-77.3945
 21
-77.3945
  0
LINE
  8
0
 10
-36.5
 11
-36.5
 20
-77.3945
 21
-77.4
  0
LINE
  8
0
 10
-36.5
 11
16.5
 20
-77.4
 21
-77.4
  0
LINE
  8
0
 10
16.5
 11
16.5
 20
-77.4
 21
-77.3945
  0
LINE
  8
0
 10
16.5
 11
22.7468
 20
-77.3945
 21
-77.3945
  0
LINE
  8
0
 10
22.7468
 11
23.2383
 20
-77.3945
 21
-77.3502
  0
LINE
  8
0
 10
23.2383
 11
23.7239
 20
-77.3502
 21
-77.2621
  0
LINE
  8
0
 10
23.7239
 11
24.1996
 20
-77.2621
 21
-77.1308
  0
LINE
  8
0
 10
24.1996
 11
24.6616
 20
-77.1308
 21
-76.9574
  0
LINE
  8
0
 10
24.6616
 11
25.1063
 20
-76.9574
 21
-76.7433
  0
LINE
  8
0
 10
25.1063
 11
25.5299
 20
-76.7433
 21
-76.4902
  0
LINE
  8
0
 10
25.5299
 11
25.9292
 20
-76.4902
 21
-76.2001
  0
LINE
  8
0
 10
25.9292
 11
26.3008
 20
-76.2001
 21
-75.8754
  0
LINE
  8
0
 10
26.3008
 11
26.6419
 20
-75.8754
 21
-75.5187
  0
LINE
  8
0
 10
26.6419
 11
26.9496
 20
-75.5187
 21
-75.1328
  0
LINE
  8
0
 10
26.9496
 11
27.2215
 20
-75.1328
 21
-74.7209
  0
LINE
  8
0
 10
27.2215
 11
27.4553
 20
-74.7209
 21
-74.2864
  0
LINE
  8
0
 10
27.4553
 11
27.6493
 20
-74.2864
 21
-73.8326
  0
LINE
  8
0
 10
27.6493
 11
27.8018
 20
-73.8326
 21
-73.3632
  0
LINE
  8
0
 10
27.8018
 11
27.9116
 20
-73.3632
 21
-72.8821
  0
LINE
  8
0
 10
27.9116
 11
27.9779
 20
-72.8821
 21
-72.393
  0
LINE
  8
0
 10
27.9779
 11
28
 20
-72.393
 21
-71.9
  0
LINE
  8
0
 10
28
 11
27.9779
 20
-71.9
 21
-71.407
  0
LINE
  8
0
 10
27.9779
 11
27.9116
 20
-71.407
 21
-70.9179
  0
LINE
  8
0
 10
27.9116
 11
27.8018
 20
-70.9179
 21
-70.4368
  0
LINE
  8
0
 10
27.8018
 11
27.6493
 20
-70.4368
 21
-69.9674
  0
LINE
  8
0
 10
27.6493
 11
27.4553
 20
-69.9674
 21
-69.5136
  0
LINE
  8
0
 10
27.4553
 11
27.2215
 20
-69.5136
 21
-69.0791
  0
LINE
  8
0
 10
27.2215
 11
26.9496
 20
-69.0791
 21
-68.6672
  0
LINE
  8
0
 10
26.9496
 11
15.4496
 20
-68.6672
 21
-52.1672
  0
LINE
  8
0
 10
15.4496
 11
15.1419
 20
-52.1672
 21
-51.7813
  0
LINE
  8
0
 10
15.1419
 11
14.8008
 20
-51.7813
 21
-51.4246
  0
LINE
  8
0
 10
14.8008
 11
14.4292
 20
-51.4246
 21
-51.0999
  0
LINE
  8
0
 10
14.4292
 11
14.0299
 20
-51.0999
 21
-50.8098
  0
LINE
  8
0
 10
14.0299
 11
13.6063
 20
-50.8098
 21
-50.5567
  0
LINE
  8
0
 10
13.6063
 11
13.1616
 20
-50.5567
 21
-50.3426
  0
LINE
  8
0
 10
13.1616
 11
12.6996
 20
-50.3426
 21
-50.1692
  0
LINE
  8
0
 10
12.6996
 11
12.2239
 20
-50.1692
 21
-50.0379
  0
LINE
  8
0
 10
12.2239
 11
11.7383
 20
-50.0379
 21
-49.9498
  0
LINE
  8
0
 10
11.7383
 11
11.2468
 20
-49.9498
 21
-49.9055
  0
LINE
  8
0
 10
11.2468
 11
10.7532
 20
-49.9055
 21
-49.9055
  0
LINE
  8
0
 10
10.7532
 11
10.2617
 20
-49.9055
 21
-49.9498
  0
LINE
  8
0
 10
10.2617
 11
9.77613
 20
-49.9498
 21
-50.0379
  0
LINE
  8
0
 10
9.77613
 11
9.30041
 20
-50.0379
 21
-50.1692
  0
LINE
  8
0
 10
9.30041
 11
8.83836
 20
-50.1692
 21
-50.3426
  0
LINE
  8
0
 10
8.83836
 11
8.39372
 20
-50.3426
 21
-50.5567
  0
LINE
  8
0
 10
8.39372
 11
7.97007
 20
-50.5567
 21
-50.8098
  0
LINE
  8
0
 10
7.97007
 11
7.57081
 20
-50.8098
 21
-51.0999
  0
LINE
  8
0
 10
7.57081
 11
7.19916
 20
-51.0999
 21
-51.4246
  0
LINE
  8
0
 10
7.19916
 11
6.85811
 20
-51.4246
 21
-51.7813
  0
LINE
  8
0
 10
6.85811
 11
6.55041
 20
-51.7813
 21
-52.1672
  0
LINE
  8
0
 10
6.55041
 11
-2.93814
 20
-52.1672
 21
-66.4
  0
LINE
  8
0
 10
-2.93814
 11
-36.5
 20
-66.4
 21
-66.4
  0
LINE
  8
0
 10
-36.5
 11
-36.5
 20
-66.4
 21
-66.4055
  0
LINE
  8
0
 10
-36.5
 11
-69.206
 20
-66.4055
 21
-66.4055
  0
LINE
  8
0
 10
-69.206
 11
-69.6975
 20
-66.4055
 21
-66.4498
  0
LINE
  8
0
 10
-69.6975
 11
-70.1831
 20
-66.4498
 21
-66.5379
  0
LINE
  8
0
 10
-70.1831
 11
-70.6588
 20
-66.5379
 21
-66.6692
  0
LINE
  8
0
 10
-70.6588
 11
-71.1208
 20
-66.6692
 21
-66.8426
  0
LINE
  8
0
 10
-71.1208
 11
-71.5655
 20
-66.8426
 21
-67.0567
  0
LINE
  8
0
 10
-71.5655
 11
-71.9891
 20
-67.0567
 21
-67.3098
  0
LINE
  8
0
 10
-71.9891
 11
-72.3884
 20
-67.3098
 21
-67.5999
  0
LINE
  8
0
 10
-72.3884
 11
-72.76
 20
-67.5999
 21
-67.9246
  0
LINE
  8
0
 10
-72.76
 11
-73.1011
 20
-67.9246
 21
-68.2813
  0
LINE
  8
0
 10
-73.1011
 11
-73.4088
 20
-68.2813
 21
-68.6672
  0
LINE
  8
0
 10
-73.4088
 11
-73.6807
 20
-68.6672
 21
-69.0791
  0
LINE
  8
0
 10
-73.6807
 11
-73.9145
 20
-69.0791
 21
-69.5136
  0
LINE
  8
0
 10
-73.9145
 11
-74.1085
 20
-69.5136
 21
-69.9674
  0
LINE
  8
0
 10
-74.1085
 11
-74.261
 20
-69.9674
 21
-70.4368
  0
LINE
  8
0
 10
-74.261
 11
-74.3708
 20
-70.4368
 21
-70.9179
  0
LINE
  8
0
 10
-74.3708
 11
-74.4371
 20
-70.9179
 21
-71.407
  0
LINE
  8
0
 10
-74.4371
 11
-74.4592
 20
-71.407
 21
-71.9
  0
LINE
  8
0
 10
-70.7992
 11
-70.7365
 20
-71.9
 21
-71.4238
  0
LINE
  8
0
 10
-70.7365
 11
-70.5527
 20
-71.4238
 21
-70.98
  0
LINE
  8
0
 10
-70.5527
 11
-70.2603
 20
-70.98
 21
-70.5989
  0
LINE
  8
0
 10
-70.2603
 11
-69.8792
 20
-70.5989
 21
-70.3065
  0
LINE
  8
0
 10
-69.8792
 11
-69.4354
 20
-70.3065
 21
-70.1227
  0
LINE
  8
0
 10
-69.4354
 11
-68.9592
 20
-70.1227
 21
-70.06
  0
LINE
  8
0
 10
-68.9592
 11
-68.483
 20
-70.06
 21
-70.1227
  0
LINE
  8
0
 10
-68.483
 11
-68.0392
 20
-70.1227
 21
-70.3065
  0
LINE
  8
0
 10
-68.0392
 11
-67.6581
 20
-70.3065
 21
-70.5989
  0
LINE
  8
0
 10
-67.6581
 11
-67.3657
 20
-70.5989
 21
-70.98
  0
LINE
  8
0
 10
-67.3657
 11
-67.1819
 20
-70.98
 21
-71.4238
  0
LINE
  8
0
 10
-67.1819
 11
-67.1192
 20
-71.4238
 21
-71.9
  0
LINE
  8
0
 10
-67.1192
 11
-67.1819
 20
-71.9
 21
-72.3762
  0
LINE
  8
0
 10
-67.1819
 11
-67.3657
 20
-72.3762
 21
-72.82
  0
LINE
  8
0
 10
-67.3657
 11
-67.6581
 20
-72.82
 21
-73.2011
  0
LINE
  8
0
 10
-67.6581
 11
-68.0392
 20
-73.2011
 21
-73.4935
  0
LINE
  8
0
 10
-68.0392
 11
-68.483
 20
-73.4935
 21
-73.6773
  0
LINE
  8
0
 10
-68.483
 11
-68.9592
 20
-73.6773
 21
-73.74
  0
LINE
  8
0
 10
-68.9592
 11
-69.4354
 20
-73.74
 21
-73.6773
  0
LINE
  8
0
 10
-69.4354
 11
-69.8792
 20
-73.6773
 21
-73.4935
  0
LINE
  8
0
 10
-69.8792
 11
-70.2603
 20
-73.4935
 21
-73.2011
  0
LINE
  8
0
 10
-70.2603
 11
-70.5527
 20
-73.2011
 21
-72.82
  0
LINE
  8
0
 10
-70.5527
 11
-70.7365
 20
-72.82
 21
-72.3762
  0
LINE
  8
0
 10
-70.7365
 11
-70.7992
 20
-72.3762
 21
-71.9
  0
LINE
  8
0
 10
9.16
 11
9.2227
 20
-55.4
 21
-54.9238
  0
LINE
  8
0
 10
9.2227
 11
9.40651
 20
-54.9238
 21
-54.48
  0
LINE
  8
0
 10
9.40651
 11
9.69892
 20
-54.48
 21
-54.0989
  0
LINE
  8
0
 10
9.69892
 11
10.08
 20
-54.0989
 21
-53.8065
  0
LINE
  8
0
 10
10.08
 11
10.5238
 20
-53.8065
 21
-53.6227
  0
LINE
  8
0
 10
10.5238
 11
11
 20
-53.6227
 21
-53.56
  0
LINE
  8
0
 10
11
 11
11.4762
 20
-53.56
 21
-53.6227
  0
LINE
  8
0
 10
11.4762
 11
11.92
 20
-53.6227
 21
-53.8065
  0
LINE
  8
0
 10
11.92
 11
12.3011
 20
-53.8065
 21
-54.0989
  0
LINE
  8
0
 10
12.3011
 11
12.5935
 20
-54.0989
 21
-54.48
  0
LINE
  8
0
 10
12.5935
 11
12.7773
 20
-54.48
 21
-54.9238
  0
LINE
  8
0
 10
12.7773
 11
12.84
 20
-54.9238
 21
-55.4
  0
LINE
  8
0
 10
12.84
 11
12.7773
 20
-55.4
 21
-55.8762
  0
LINE
  8
0
 10
12.7773
 11
12.5935
 20
-55.8762
 21
-56.32
  0
LINE
  8
0
 10
12.5935
 11
12.3011
 20
-56.32
 21
-56.7011
  0
LINE
  8
0
 10
12.3011
 11
11.92
 20
-56.7011
 21
-56.9935
  0
LINE
  8
0
 10
11.92
 11
11.4762
 20
-56.9935
 21
-57.1773
  0
LINE
  8
0
 10
11.4762
 11
11
 20
-57.1773
 21
-57.24
  0
LINE
  8
0
 10
11
 11
10.5238
 20
-57.24
 21
-57.1773
  0
LINE
  8
0
 10
10.5238
 11
10.08
 20
-57.1773
 21
-56.9935
  0
LINE
  8
0
 10
10.08
 11
9.69892
 20
-56.9935
 21
-56.7011
  0
LINE
  8
0
 10
9.69892
 11
9.40651
 20
-56.7011
 21
-56.32
  0
LINE
  8
0
 10
9.40651
 11
9.2227
 20
-56.32
 21
-55.8762
  0
LINE
  8
0
 10
9.2227
 11
9.16
 20
-55.8762
 21
-55.4
  0
LINE
  8
0
 10
20.66
 11
20.7227
 20
-71.9
 21
-71.4238
  0
LINE
  8
0
 10
20.7227
 11
20.9065
 20
-71.4238
 21
-70.98
  0
LINE
  8
0
 10
20.9065
 11
21.1989
 20
-70.98
 21
-70.5989
  0
LINE
  8
0
 10
21.1989
 11
21.58
 20
-70.5989
 21
-70.3065
  0
LINE
  8
0
 10
21.58
 11
22.0238
 20
-70.3065
 21
-70.1227
  0
LINE
  8
0
 10
22.0238
 11
22.5
 20
-70.1227
 21
-70.06
  0
LINE
  8
0
 10
22.5
 11
22.9762
 20
-70.06
 21
-70.1227
  0
LINE
  8
0
 10
22.9762
 11
23.42
 20
-70.1227
 21
-70.3065
  0
LINE
  8
0
 10
23.42
 11
23.8011
 20
-70.3065
 21
-70.5989
  0
LINE
  8
0
 10
23.8011
 11
24.0935
 20
-70.5989
 21
-70.98
  0
LINE
  8
0
 10
24.0935
 11
24.2773
 20
-70.98
 21
-71.4238
  0
LINE
  8
0
 10
24.2773
 11
24.34
 20
-71.4238
 21
-71.9
  0
LINE
  8
0
 10
24.34
 11
24.2773
 20
-71.9
 21
-72.3762
  0
LINE
  8
0
 10
24.2773
 11
24.0935
 20
-72.3762
 21
-72.82
  0
LINE
  8
0
 10
24.0935
 11
23.8011
 20
-72.82
 21
-73.2011
  0
LINE
  8
0
 10
23.8011
 11
23.42
 20
-73.2011
 21
-73.4935
  0
LINE
  8
0
 10
23.42
 11
22.9762
 20
-73.4935
 21
-73.6773
  0
LINE
  8
0
 10
22.9762
 11
22.5
 20
-73.6773
 21
-73.74
  0
LINE
  8
0
 10
22.5
 11
22.0238
 20
-73.74
 21
-73.6773
  0
LINE
  8
0
 10
22.0238
 11
21.58
 20
-73.6773
 21
-73.4935
  0
LINE
  8
0
 10
21.58
 11
21.1989
 20
-73.4935
 21
-73.2011
  0
LINE
  8
0
 10
21.1989
 11
20.9065
 20
-73.2011
 21
-72.82
  0
LINE
  8
0
 10
20.9065
 11
20.7227
 20
-72.82
 21
-72.3762
  0
LINE
  8
0
 10
20.7227
 11
20.66
 20
-72.3762
 21
-71.9
  0
LINE
  8
0
 10
-28
 11
-27.9779
 20
76.9
 21
76.407
  0
LINE
  8
0
 10
-27.9779
 11
-27.9116
 20
76.407
 21
75.9179
  0
LINE
  8
0
 10
-27.9116
 11
-27.8018
 20
75.9179
 21
75.4368
  0
LINE
  8
0
 10
-27.8018
 11
-27.6493
 20
75.4368
 21
74.9674
  0
LINE
  8
0
 10
-27.6493
 11
-27.4553
 20
74.9674
 21
74.5136
  0
LINE
  8
0
 10
-27.4553
 11
-27.2215
 20
74.5136
 21
74.0791
  0
LINE
  8
0
 10
-27.2215
 11
-26.9496
 20
74.0791
 21
73.6672
  0
LINE
  8
0
 10
-26.9496
 11
-26.6419
 20
73.6672
 21
73.2813
  0
LINE
  8
0
 10
-26.6419
 11
-26.3008
 20
73.2813
 21
72.9246
  0
LINE
  8
0
 10
-26.3008
 11
-25.9292
 20
72.9246
 21
72.5999
  0
LINE
  8
0
 10
-25.9292
 11
-25.5299
 20
72.5999
 21
72.3098
  0
LINE
  8
0
 10
-25.5299
 11
-25.1063
 20
72.3098
 21
72.0567
  0
LINE
  8
0
 10
-25.1063
 11
-24.6616
 20
72.0567
 21
71.8426
  0
LINE
  8
0
 10
-24.6616
 11
-24.1996
 20
71.8426
 21
71.6692
  0
LINE
  8
0
 10
-24.1996
 11
-23.7239
 20
71.6692
 21
71.5379
  0
LINE
  8
0
 10
-23.7239
 11
-23.2383
 20
71.5379
 21
71.4498
  0
LINE
  8
0
 10
-23.2383
 11
-22.7468
 20
71.4498
 21
71.4055
  0
LINE
  8
0
 10
-22.7468
 11
-16.5
 20
71.4055
 21
71.4055
  0
LINE
  8
0
 10
-16.5
 11
-16.5
 20
71.4055
 21
71.4
  0
LINE
  8
0
 10
-16.5
 11
16.5
 20
71.4
 21
71.4
  0
LINE
  8
0
 10
16.5
 11
16.5
 20
71.4
 21
71.4055
  0
LINE
  8
0
 10
16.5
 11
22.7468
 20
71.4055
 21
71.4055
  0
LINE
  8
0
 10
22.7468
 11
23.2383
 20
71.4055
 21
71.4498
  0
LINE
  8
0
 10
23.2383
 11
23.7239
 20
71.4498
 21
71.5379
  0
LINE
  8
0
 10
23.7239
 11
24.1996
 20
71.5379
 21
71.6692
  0
LINE
  8
0
 10
24.1996
 11
24.6616
 20
71.6692
 21
71.8426
  0
LINE
  8
0
 10
24.6616
 11
25.1063
 20
71.8426
 21
72.0567
  0
LINE
  8
0
 10
25.1063
 11
25.5299
 20
72.0567
 21
72.3098
  0
LINE
  8
0
 10
25.5299
 11
25.9292
 20
72.3098
 21
72.5999
  0
LINE
  8
0
 10
25.9292
 11
26.3008
 20
72.5999
 21
72.9246
  0
LINE
  8
0
 10
26.3008
 11
26.6419
 20
72.9246
 21
73.2813
  0
LINE
  8
0
 10
26.6419
 11
26.9496
 20
73.2813
 21
73.6672
  0
LINE
  8
0
 10
26.9496
 11
27.2215
 20
73.6672
 21
74.0791
  0
LINE
  8
0
 10
27.2215
 11
27.4553
 20
74.0791
 21
74.5136
  0
LINE
  8
0
 10
27.4553
 11
27.6493
 20
74.5136
 21
74.9674
  0
LINE
  8
0
 10
27.6493
 11
27.8018
 20
74.9674
 21
75.4368
  0
LINE
  8
0
 10
27.8018
 11
27.9116
 20
75.4368
 21
75.9179
  0
LINE
  8
0
 10
27.9116
 11
27.9779
 20
75.9179
 21
76.407
  0
LINE
  8
0
 10
27.9779
 11
28
 20
76.407
 21
76.9
  0
LINE
  8
0
 10
28
 11
27.9779
 20
76.9
 21
77.393
  0
LINE
  8
0
 10
27.9779
 11
27.9116
 20
77.393
 21
77.8821
  0
LINE
  8
0
 10
27.9116
 11
27.8018
 20
77.8821
 21
78.3632
  0
LINE
  8
0
 10
27.8018
 11
27.6493
 20
78.3632
 21
78.8326
  0
LINE
  8
0
 10
27.6493
 11
27.4553
 20
78.8326
 21
79.2864
  0
LINE
  8
0
 10
27.4553
 11
27.2215
 20
79.2864
 21
79.7209
  0
LINE
  8
0
 10
27.2215
 11
26.9496
 20
79.7209
 21
80.1328
  0
LINE
  8
0
 10
26.9496
 11
26.6419
 20
80.1328
 21
80.5187
  0
LINE
  8
0
 10
26.6419
 11
26.3008
 20
80.5187
 21
80.8754
  0
LINE
  8
0
 10
26.3008
 11
25.9292
 20
80.8754
 21
81.2001
  0
LINE
  8
0
 10
25.9292
 11
3.42919
 20
81.2001
 21
97.7001
  0
LINE
  8
0
 10
3.42919
 11
3.02993
 20
97.7001
 21
97.9902
  0
LINE
  8
0
 10
3.02993
 11
2.60628
 20
97.9902
 21
98.2433
  0
LINE
  8
0
 10
2.60628
 11
2.16164
 20
98.2433
 21
98.4574
  0
LINE
  8
0
 10
2.16164
 11
1.69959
 20
98.4574
 21
98.6308
  0
LINE
  8
0
 10
1.69959
 11
1.22387
 20
98.6308
 21
98.7621
  0
LINE
  8
0
 10
1.22387
 11
0.738283
 20
98.7621
 21
98.8502
  0
LINE
  8
0
 10
0.738283
 11
0.246757
 20
98.8502
 21
98.8945
  0
LINE
  8
0
 10
0.246757
 11
-0.246757
 20
98.8945
 21
98.8945
  0
LINE
  8
0
 10
-0.246757
 11
-0.738283
 20
98.8945
 21
98.8502
  0
LINE
  8
0
 10
-0.738283
 11
-1.22387
 20
98.8502
 21
98.7621
  0
LINE
  8
0
 10
-1.22387
 11
-1.69959
 20
98.7621
 21
98.6308
  0
LINE
  8
0
 10
-1.69959
 11
-2.16164
 20
98.6308
 21
98.4574
  0
LINE
  8
0
 10
-2.16164
 11
-2.60628
 20
98.4574
 21
98.2433
  0
LINE
  8
0
 10
-2.60628
 11
-3.02993
 20
98.2433
 21
97.9902
  0
LINE
  8
0
 10
-3.02993
 11
-3.42919
 20
97.9902
 21
97.7001
  0
LINE
  8
0
 10
-3.42919
 11
-25.9292
 20
97.7001
 21
81.2001
  0
LINE
  8
0
 10
-25.9292
 11
-26.3008
 20
81.2001
 21
80.8754
  0
LINE
  8
0
 10
-26.3008
 11
-26.6419
 20
80.8754
 21
80.5187
  0
LINE
  8
0
 10
-26.6419
 11
-26.9496
 20
80.5187
 21
80.1328
  0
LINE
  8
0
 10
-26.9496
 11
-27.2215
 20
80.1328
 21
79.7209
  0
LINE
  8
0
 10
-27.2215
 11
-27.4553
 20
79.7209
 21
79.2864
  0
LINE
  8
0
 10
-27.4553
 11
-27.6493
 20
79.2864
 21
78.8326
  0
LINE
  8
0
 10
-27.6493
 11
-27.8018
 20
78.8326
 21
78.3632
  0
LINE
  8
0
 10
-27.8018
 11
-27.9116
 20
78.3632
 21
77.8821
  0
LINE
  8
0
 10
-27.9116
 11
-27.9779
 20
77.8821
 21
77.393
  0
LINE
  8
0
 10
-27.9779
 11
-28
 20
77.393
 21
76.9
  0
LINE
  8
0
 10
-24.34
 11
-24.2773
 20
76.9
 21
77.3762
  0
LINE
  8
0
 10
-24.2773
 11
-24.0935
 20
77.3762
 21
77.82
  0
LINE
  8
0
 10
-24.0935
 11
-23.8011
 20
77.82
 21
78.2011
  0
LINE
  8
0
 10
-23.8011
 11
-23.42
 20
78.2011
 21
78.4935
  0
LINE
  8
0
 10
-23.42
 11
-22.9762
 20
78.4935
 21
78.6773
  0
LINE
  8
0
 10
-22.9762
 11
-22.5
 20
78.6773
 21
78.74
  0
LINE
  8
0
 10
-22.5
 11
-22.0238
 20
78.74
 21
78.6773
  0
LINE
  8
0
 10
-22.0238
 11
-21.58
 20
78.6773
 21
78.4935
  0
LINE
  8
0
 10
-21.58
 11
-21.1989
 20
78.4935
 21
78.2011
  0
LINE
  8
0
 10
-21.1989
 11
-20.9065
 20
78.2011
 21
77.82
  0
LINE
  8
0
 10
-20.9065
 11
-20.7227
 20
77.82
 21
77.3762
  0
LINE
  8
0
 10
-20.7227
 11
-20.66
 20
77.3762
 21
76.9
  0
LINE
  8
0
 10
-20.66
 11
-20.7227
 20
76.9
 21
76.4238
  0
LINE
  8
0
 10
-20.7227
 11
-20.9065
 20
76.4238
 21
75.98
  0
LINE
  8
0
 10
-20.9065
 11
-21.1989
 20
75.98
 21
75.5989
  0
LINE
  8
0
 10
-21.1989
 11
-21.58
 20
75.5989
 21
75.3065
  0
LINE
  8
0
 10
-21.58
 11
-22.0238
 20
75.3065
 21
75.1227
  0
LINE
  8
0
 10
-22.0238
 11
-22.5
 20
75.1227
 21
75.06
  0
LINE
  8
0
 10
-22.5
 11
-22.9762
 20
75.06
 21
75.1227
  0
LINE
  8
0
 10
-22.9762
 11
-23.42
 20
75.1227
 21
75.3065
  0
LINE
  8
0
 10
-23.42
 11
-23.8011
 20
75.3065
 21
75.5989
  0
LINE
  8
0
 10
-23.8011
 11
-24.0935
 20
75.5989
 21
75.98
  0
LINE
  8
0
 10
-24.0935
 11
-24.2773
 20
75.98
 21
76.4238
  0
LINE
  8
0
 10
-24.2773
 11
-24.34
 20
76.4238
 21
76.9
  0
LINE
  8
0
 10
-1.84
 11
-1.7773
 20
93.4
 21
93.8762
  0
LINE
  8
0
 10
-1.7773
 11
-1.59349
 20
93.8762
 21
94.32
  0
LINE
  8
0
 10
-1.59349
 11
-1.30108
 20
94.32
 21
94.7011
  0
LINE
  8
0
 10
-1.30108
 11
-0.92
 20
94.7011
 21
94.9935
  0
LINE
  8
0
 10
-0.92
 11
-0.476227
 20
94.9935
 21
95.1773
  0
LINE
  8
0
 10
-0.476227
 11
2.22045e-15
 20
95.1773
 21
95.24
  0
LINE
  8
0
 10
2.22045e-15
 11
0.476227
 20
95.24
 21
95.1773
  0
LINE
  8
0
 10
0.476227
 11
0.92
 20
95.1773
 21
94.9935
  0
LINE
  8
0
 10
0.92
 11
1.30108
 20
94.9935
 21
94.7011
  0
LINE
  8
0
 10
1.30108
 11
1.59349
 20
94.7011
 21
94.32
  0
LINE
  8
0
 10
1.59349
 11
1.7773
 20
94.32
 21
93.8762
  0
LINE
  8
0
 10
1.7773
 11
1.84
 20
93.8762
 21
93.4
  0
LINE
  8
0
 10
1.84
 11
1.7773
 20
93.4
 21
92.9238
  0
LINE
  8
0
 10
1.7773
 11
1.59349
 20
92.9238
 21
92.48
  0
LINE
  8
0
 10
1.59349
 11
1.30108
 20
92.48
 21
92.0989
  0
LINE
  8
0
 10
1.30108
 11
0.92
 20
92.0989
 21
91.8065
  0
LINE
  8
0
 10
0.92
 11
0.476227
 20
91.8065
 21
91.6227
  0
LINE
  8
0
 10
0.476227
 11
2.22045e-15
 20
91.6227
 21
91.56
  0
LINE
  8
0
 10
2.22045e-15
 11
-0.476227
 20
91.56
 21
91.6227
  0
LINE
  8
0
 10
-0.476227
 11
-0.92
 20
91.6227
 21
91.8065
  0
LINE
  8
0
 10
-0.92
 11
-1.30108
 20
91.8065
 21
92.0989
  0
LINE
  8
0
 10
-1.30108
 11
-1.59349
 20
92.0989
 21
92.48
  0
LINE
  8
0
 10
-1.59349
 11
-1.7773
 20
92.48
 21
92.9238
  0
LINE
  8
0
 10
-1.7773
 11
-1.84
 20
92.9238
 21
93.4
  0
LINE
  8
0
 10
20.66
 11
20.7227
 20
76.9
 21
77.3762
  0
LINE
  8
0
 10
20.7227
 11
20.9065
 20
77.3762
 21
77.82
  0
LINE
  8
0
 10
20.9065
 11
21.1989
 20
77.82
 21
78.2011
  0
LINE
  8
0
 10
21.1989
 11
21.58
 20
78.2011
 21
78.4935
  0
LINE
  8
0
 10
21.58
 11
22.0238
 20
78.4935
 21
78.6773
  0
LINE
  8
0
 10
22.0238
 11
22.5
 20
78.6773
 21
78.74
  0
LINE
  8
0
 10
22.5
 11
22.9762
 20
78.74
 21
78.6773
  0
LINE
  8
0
 10
22.9762
 11
23.42
 20
78.6773
 21
78.4935
  0
LINE
  8
0
 10
23.42
 11
23.8011
 20
78.4935
 21
78.2011
  0
LINE
  8
0
 10
23.8011
 11
24.0935
 20
78.2011
 21
77.82
  0
LINE
  8
0
 10
24.0935
 11
24.2773
 20
77.82
 21
77.3762
  0
LINE
  8
0
 10
24.2773
 11
24.34
 20
77.3762
 21
76.9
  0
LINE
  8
0
 10
24.34
 11
24.2773
 20
76.9
 21
76.4238
  0
LINE
  8
0
 10
24.2773
 11
24.0935
 20
76.4238
 21
75.98
  0
LINE
  8
0
 10
24.0935
 11
23.8011
 20
75.98
 21
75.5989
  0
LINE
  8
0
 10
23.8011
 11
23.42
 20
75.5989
 21
75.3065
  0
LINE
  8
0
 10
23.42
 11
22.9762
 20
75.3065
 21
75.1227
  0
LINE
  8
0
 10
22.9762
 11
22.5
 20
75.1227
 21
75.06
  0
LINE
  8
0
 10
22.5
 11
22.0238
 20
75.06
 21
75.1227
  0
LINE
  8
0
 10
22.0238
 11
21.58
 20
75.1227
 21
75.3065
  0
LINE
  8
0
 10
21.58
 11
21.1989
 20
75.3065
 21
75.5989
  0
LINE
  8
0
 10
21.1989
 11
20.9065
 20
75.5989
 21
75.98
  0
LINE
  8
0
 10
20.9065
 11
20.7227
 20
75.98
 21
76.4238
  0
LINE
  8
0
 10
20.7227
 11
20.66
 20
76.4238
 21
76.9
  0
LINE
  8
0
 10
52.5
 11
52.5221
 20
-99.5
 21
-99.993
  0
LINE
  8
0
 10
52.5221
 11
52.5884
 20
-99.993
 21
-100.482
  0
LINE
  8
0
 10
52.5884
 11
52.6982
 20
-100.482
 21
-100.963
  0
LINE
  8
0
 10
52.6982
 11
52.8507
 20
-100.963
 21
-101.433
  0
LINE
  8
0
 10
52.8507
 11
53.0447
 20
-101.433
 21
-101.886
  0
LINE
  8
0
 10
53.0447
 11
53.2785
 20
-101.886
 21
-102.321
  0
LINE
  8
0
 10
53.2785
 11
53.5504
 20
-102.321
 21
-102.733
  0
LINE
  8
0
 10
53.5504
 11
53.8581
 20
-102.733
 21
-103.119
  0
LINE
  8
0
 10
53.8581
 11
54.1992
 20
-103.119
 21
-103.475
  0
LINE
  8
0
 10
54.1992
 11
54.5708
 20
-103.475
 21
-103.8
  0
LINE
  8
0
 10
54.5708
 11
54.9701
 20
-103.8
 21
-104.09
  0
LINE
  8
0
 10
54.9701
 11
55.3937
 20
-104.09
 21
-104.343
  0
LINE
  8
0
 10
55.3937
 11
55.8384
 20
-104.343
 21
-104.557
  0
LINE
  8
0
 10
55.8384
 11
56.3004
 20
-104.557
 21
-104.731
  0
LINE
  8
0
 10
56.3004
 11
56.7761
 20
-104.731
 21
-104.862
  0
LINE
  8
0
 10
56.7761
 11
57.2617
 20
-104.862
 21
-104.95
  0
LINE
  8
0
 10
57.2617
 11
57.7532
 20
-104.95
 21
-104.994
  0
LINE
  8
0
 10
57.7532
 11
64
 20
-104.994
 21
-104.994
  0
LINE
  8
0
 10
64
 11
64
 20
-104.994
 21
-105
  0
LINE
  8
0
 10
64
 11
91.75
 20
-105
 21
-105
  0
LINE
  8
0
 10
91.75
 11
91.75
 20
-105
 21
-104.994
  0
LINE
  8
0
 10
91.75
 11
97.9968
 20
-104.994
 21
-104.994
  0
LINE
  8
0
 10
97.9968
 11
98.4883
 20
-104.994
 21
-104.95
  0
LINE
  8
0
 10
98.4883
 11
98.9739
 20
-104.95
 21
-104.862
  0
LINE
  8
0
 10
98.9739
 11
99.4496
 20
-104.862
 21
-104.731
  0
LINE
  8
0
 10
99.4496
 11
99.9116
 20
-104.731
 21
-104.557
  0
LINE
  8
0
 10
99.9116
 11
100.356
 20
-104.557
 21
-104.343
  0
LINE
  8
0
 10
100.356
 11
100.78
 20
-104.343
 21
-104.09
  0
LINE
  8
0
 10
100.78
 11
101.179
 20
-104.09
 21
-103.8
  0
LINE
  8
0
 10
101.179
 11
101.551
 20
-103.8
 21
-103.475
  0
LINE
  8
0
 10
101.551
 11
101.892
 20
-103.475
 21
-103.119
  0
LINE
  8
0
 10
101.892
 11
102.2
 20
-103.119
 21
-102.733
  0
LINE
  8
0
 10
102.2
 11
102.471
 20
-102.733
 21
-102.321
  0
LINE
  8
0
 10
102.471
 11
102.705
 20
-102.321
 21
-101.886
  0
LINE
  8
0
 10
102.705
 11
102.899
 20
-101.886
 21
-101.433
  0
LINE
  8
0
 10
102.899
 11
103.052
 20
-101.433
 21
-100.963
  0
LINE
  8
0
 10
103.052
 11
103.162
 20
-100.963
 21
-100.482
  0
LINE
  8
0
 10
103.162
 11
103.228
 20
-100.482
 21
-99.993
  0
LINE
  8
0
 10
103.228
 11
103.25
 20
-99.993
 21
-99.5
  0
LINE
  8
0
 10
103.25
 11
103.228
 20
-99.5
 21
-99.007
  0
LINE
  8
0
 10
103.228
 11
103.162
 20
-99.007
 21
-98.5179
  0
LINE
  8
0
 10
103.162
 11
103.052
 20
-98.5179
 21
-98.0368
  0
LINE
  8
0
 10
103.052
 11
102.899
 20
-98.0368
 21
-97.5674
  0
LINE
  8
0
 10
102.899
 11
102.705
 20
-97.5674
 21
-97.1136
  0
LINE
  8
0
 10
102.705
 11
102.471
 20
-97.1136
 21
-96.6791
  0
LINE
  8
0
 10
102.471
 11
102.2
 20
-96.6791
 21
-96.2672
  0
LINE
  8
0
 10
102.2
 11
101.892
 20
-96.2672
 21
-95.8813
  0
LINE
  8
0
 10
101.892
 11
101.551
 20
-95.8813
 21
-95.5246
  0
LINE
  8
0
 10
101.551
 11
101.179
 20
-95.5246
 21
-95.1999
  0
LINE
  8
0
 10
101.179
 11
100.78
 20
-95.1999
 21
-94.9098
  0
LINE
  8
0
 10
100.78
 11
100.356
 20
-94.9098
 21
-94.6567
  0
LINE
  8
0
 10
100.356
 11
80.4813
 20
-94.6567
 21
-83.1567
  0
LINE
  8
0
 10
80.4813
 11
80.0366
 20
-83.1567
 21
-82.9426
  0
LINE
  8
0
 10
80.0366
 11
79.5746
 20
-82.9426
 21
-82.7692
  0
LINE
  8
0
 10
79.5746
 11
79.0989
 20
-82.7692
 21
-82.6379
  0
LINE
  8
0
 10
79.0989
 11
78.6133
 20
-82.6379
 21
-82.5498
  0
LINE
  8
0
 10
78.6133
 11
78.1218
 20
-82.5498
 21
-82.5055
  0
LINE
  8
0
 10
78.1218
 11
77.6282
 20
-82.5055
 21
-82.5055
  0
LINE
  8
0
 10
77.6282
 11
77.1367
 20
-82.5055
 21
-82.5498
  0
LINE
  8
0
 10
77.1367
 11
76.6511
 20
-82.5498
 21
-82.6379
  0
LINE
  8
0
 10
76.6511
 11
76.1754
 20
-82.6379
 21
-82.7692
  0
LINE
  8
0
 10
76.1754
 11
75.7134
 20
-82.7692
 21
-82.9426
  0
LINE
  8
0
 10
75.7134
 11
75.2687
 20
-82.9426
 21
-83.1567
  0
LINE
  8
0
 10
75.2687
 11
55.3937
 20
-83.1567
 21
-94.6567
  0
LINE
  8
0
 10
55.3937
 11
54.9701
 20
-94.6567
 21
-94.9098
  0
LINE
  8
0
 10
54.9701
 11
54.5708
 20
-94.9098
 21
-95.1999
  0
LINE
  8
0
 10
54.5708
 11
54.1992
 20
-95.1999
 21
-95.5246
  0
LINE
  8
0
 10
54.1992
 11
53.8581
 20
-95.5246
 21
-95.8813
  0
LINE
  8
0
 10
53.8581
 11
53.5504
 20
-95.8813
 21
-96.2672
  0
LINE
  8
0
 10
53.5504
 11
53.2785
 20
-96.2672
 21
-96.6791
  0
LINE
  8
0
 10
53.2785
 11
53.0447
 20
-96.6791
 21
-97.1136
  0
LINE
  8
0
 10
53.0447
 11
52.8507
 20
-97.1136
 21
-97.5674
  0
LINE
  8
0
 10
52.8507
 11
52.6982
 20
-97.5674
 21
-98.0368
  0
LINE
  8
0
 10
52.6982
 11
52.5884
 20
-98.0368
 21
-98.5179
  0
LINE
  8
0
 10
52.5884
 11
52.5221
 20
-98.5179
 21
-99.007
  0
LINE
  8
0
 10
52.5221
 11
52.5
 20
-99.007
 21
-99.5
  0
LINE
  8
0
 10
56.16
 11
56.2227
 20
-99.5
 21
-99.0238
  0
LINE
  8
0
 10
56.2227
 11
56.4065
 20
-99.0238
 21
-98.58
  0
LINE
  8
0
 10
56.4065
 11
56.6989
 20
-98.58
 21
-98.1989
  0
LINE
  8
0
 10
56.6989
 11
57.08
 20
-98.1989
 21
-97.9065
  0
LINE
  8
0
 10
57.08
 11
57.5238
 20
-97.9065
 21
-97.7227
  0
LINE
  8
0
 10
57.5238
 11
58
 20
-97.7227
 21
-97.66
  0
LINE
  8
0
 10
58
 11
58.4762
 20
-97.66
 21
-97.7227
  0
LINE
  8
0
 10
58.4762
 11
58.92
 20
-97.7227
 21
-97.9065
  0
LINE
  8
0
 10
58.92
 11
59.3011
 20
-97.9065
 21
-98.1989
  0
LINE
  8
0
 10
59.3011
 11
59.5935
 20
-98.1989
 21
-98.58
  0
LINE
  8
0
 10
59.5935
 11
59.7773
 20
-98.58
 21
-99.0238
  0
LINE
  8
0
 10
59.7773
 11
59.84
 20
-99.0238
 21
-99.5
  0
LINE
  8
0
 10
59.84
 11
59.7773
 20
-99.5
 21
-99.9762
  0
LINE
  8
0
 10
59.7773
 11
59.5935
 20
-99.9762
 21
-100.42
  0
LINE
  8
0
 10
59.5935
 11
59.3011
 20
-100.42
 21
-100.801
  0
LINE
  8
0
 10
59.3011
 11
58.92
 20
-100.801
 21
-101.093
  0
LINE
  8
0
 10
58.92
 11
58.4762
 20
-101.093
 21
-101.277
  0
LINE
  8
0
 10
58.4762
 11
58
 20
-101.277
 21
-101.34
  0
LINE
  8
0
 10
58
 11
57.5238
 20
-101.34
 21
-101.277
  0
LINE
  8
0
 10
57.5238
 11
57.08
 20
-101.277
 21
-101.093
  0
LINE
  8
0
 10
57.08
 11
56.6989
 20
-101.093
 21
-100.801
  0
LINE
  8
0
 10
56.6989
 11
56.4065
 20
-100.801
 21
-100.42
  0
LINE
  8
0
 10
56.4065
 11
56.2227
 20
-100.42
 21
-99.9762
  0
LINE
  8
0
 10
56.2227
 11
56.16
 20
-99.9762
 21
-99.5
  0
LINE
  8
0
 10
76.035
 11
76.0977
 20
-88
 21
-87.5238
  0
LINE
  8
0
 10
76.0977
 11
76.2815
 20
-87.5238
 21
-87.08
  0
LINE
  8
0
 10
76.2815
 11
76.5739
 20
-87.08
 21
-86.6989
  0
LINE
  8
0
 10
76.5739
 11
76.955
 20
-86.6989
 21
-86.4065
  0
LINE
  8
0
 10
76.955
 11
77.3988
 20
-86.4065
 21
-86.2227
  0
LINE
  8
0
 10
77.3988
 11
77.875
 20
-86.2227
 21
-86.16
  0
LINE
  8
0
 10
77.875
 11
78.3512
 20
-86.16
 21
-86.2227
  0
LINE
  8
0
 10
78.3512
 11
78.795
 20
-86.2227
 21
-86.4065
  0
LINE
  8
0
 10
78.795
 11
79.1761
 20
-86.4065
 21
-86.6989
  0
LINE
  8
0
 10
79.1761
 11
79.4685
 20
-86.6989
 21
-87.08
  0
LINE
  8
0
 10
79.4685
 11
79.6523
 20
-87.08
 21
-87.5238
  0
LINE
  8
0
 10
79.6523
 11
79.715
 20
-87.5238
 21
-88
  0
LINE
  8
0
 10
79.715
 11
79.6523
 20
-88
 21
-88.4762
  0
LINE
  8
0
 10
79.6523
 11
79.4685
 20
-88.4762
 21
-88.92
  0
LINE
  8
0
 10
79.4685
 11
79.1761
 20
-88.92
 21
-89.3011
  0
LINE
  8
0
 10
79.1761
 11
78.795
 20
-89.3011
 21
-89.5935
  0
LINE
  8
0
 10
78.795
 11
78.3512
 20
-89.5935
 21
-89.7773
  0
LINE
  8
0
 10
78.3512
 11
77.875
 20
-89.7773
 21
-89.84
  0
LINE
  8
0
 10
77.875
 11
77.3988
 20
-89.84
 21
-89.7773
  0
LINE
  8
0
 10
77.3988
 11
76.955
 20
-89.7773
 21
-89.5935
  0
LINE
  8
0
 10
76.955
 11
76.5739
 20
-89.5935
 21
-89.3011
  0
LINE
  8
0
 10
76.5739
 11
76.2815
 20
-89.3011
 21
-88.92
  0
LINE
  8
0
 10
76.2815
 11
76.0977
 20
-88.92
 21
-88.4762
  0
LINE
  8
0
 10
76.0977
 11
76.035
 20
-88.4762
 21
-88
  0
LINE
  8
0
 10
95.91
 11
95.9727
 20
-99.5
 21
-99.0238
  0
LINE
  8
0
 10
95.9727
 11
96.1565
 20
-99.0238
 21
-98.58
  0
LINE
  8
0
 10
96.1565
 11
96.4489
 20
-98.58
 21
-98.1989
  0
LINE
  8
0
 10
96.4489
 11
96.83
 20
-98.1989
 21
-97.9065
  0
LINE
  8
0
 10
96.83
 11
97.2738
 20
-97.9065
 21
-97.7227
  0
LINE
  8
0
 10
97.2738
 11
97.75
 20
-97.7227
 21
-97.66
  0
LINE
  8
0
 10
97.75
 11
98.2262
 20
-97.66
 21
-97.7227
  0
LINE
  8
0
 10
98.2262
 11
98.67
 20
-97.7227
 21
-97.9065
  0
LINE
  8
0
 10
98.67
 11
99.0511
 20
-97.9065
 21
-98.1989
  0
LINE
  8
0
 10
99.0511
 11
99.3435
 20
-98.1989
 21
-98.58
  0
LINE
  8
0
 10
99.3435
 11
99.5273
 20
-98.58
 21
-99.0238
  0
LINE
  8
0
 10
99.5273
 11
99.59
 20
-99.0238
 21
-99.5
  0
LINE
  8
0
 10
99.59
 11
99.5273
 20
-99.5
 21
-99.9762
  0
LINE
  8
0
 10
99.5273
 11
99.3435
 20
-99.9762
 21
-100.42
  0
LINE
  8
0
 10
99.3435
 11
99.0511
 20
-100.42
 21
-100.801
  0
LINE
  8
0
 10
99.0511
 11
98.67
 20
-100.801
 21
-101.093
  0
LINE
  8
0
 10
98.67
 11
98.2262
 20
-101.093
 21
-101.277
  0
LINE
  8
0
 10
98.2262
 11
97.75
 20
-101.277
 21
-101.34
  0
LINE
  8
0
 10
97.75
 11
97.2738
 20
-101.34
 21
-101.277
  0
LINE
  8
0
 10
97.2738
 11
96.83
 20
-101.277
 21
-101.093
  0
LINE
  8
0
 10
96.83
 11
96.4489
 20
-101.093
 21
-100.801
  0
LINE
  8
0
 10
96.4489
 11
96.1565
 20
-100.801
 21
-100.42
  0
LINE
  8
0
 10
96.1565
 11
95.9727
 20
-100.42
 21
-99.9762
  0
LINE
  8
0
 10
95.9727
 11
95.91
 20
-99.9762
 21
-99.5
  0
LINE
  8
0
 10
70.125
 11
70.1657
 20
98
 21
97.4307
  0
LINE
  8
0
 10
70.1657
 11
70.287
 20
97.4307
 21
96.8731
  0
LINE
  8
0
 10
70.287
 11
70.4865
 20
96.8731
 21
96.3383
  0
LINE
  8
0
 10
70.4865
 11
70.76
 20
96.3383
 21
95.8374
  0
LINE
  8
0
 10
70.76
 11
71.102
 20
95.8374
 21
95.3806
  0
LINE
  8
0
 10
71.102
 11
71.5056
 20
95.3806
 21
94.977
  0
LINE
  8
0
 10
71.5056
 11
71.9624
 20
94.977
 21
94.635
  0
LINE
  8
0
 10
71.9624
 11
72.4633
 20
94.635
 21
94.3615
  0
LINE
  8
0
 10
72.4633
 11
72.9981
 20
94.3615
 21
94.162
  0
LINE
  8
0
 10
72.9981
 11
73.5557
 20
94.162
 21
94.0407
  0
LINE
  8
0
 10
73.5557
 11
74.125
 20
94.0407
 21
94
  0
LINE
  8
0
 10
74.125
 11
95.99
 20
94
 21
94
  0
LINE
  8
0
 10
95.99
 11
95.99
 20
94
 21
35
  0
LINE
  8
0
 10
95.99
 11
96.0918
 20
35
 21
33.5769
  0
LINE
  8
0
 10
96.0918
 11
96.3951
 20
33.5769
 21
32.1827
  0
LINE
  8
0
 10
96.3951
 11
96.8937
 20
32.1827
 21
30.8458
  0
LINE
  8
0
 10
96.8937
 11
97.5775
 20
30.8458
 21
29.5936
  0
LINE
  8
0
 10
97.5775
 11
98.4325
 20
29.5936
 21
28.4514
  0
LINE
  8
0
 10
98.4325
 11
99.4414
 20
28.4514
 21
27.4425
  0
LINE
  8
0
 10
99.4414
 11
100.584
 20
27.4425
 21
26.5875
  0
LINE
  8
0
 10
100.584
 11
101.836
 20
26.5875
 21
25.9037
  0
LINE
  8
0
 10
101.836
 11
103.173
 20
25.9037
 21
25.4051
  0
LINE
  8
0
 10
103.173
 11
104.567
 20
25.4051
 21
25.1018
  0
LINE
  8
0
 10
104.567
 11
105.99
 20
25.1018
 21
25
  0
LINE
  8
0
 10
105.99
 11
124.99
 20
25
 21
25
  0
LINE
  8
0
 10
124.99
 11
124.99
 20
25
 21
124.538
  0
LINE
  8
0
 10
124.99
 11
114.99
 20
124.538
 21
124.538
  0
LINE
  8
0
 10
114.99
 11
114.99
 20
124.538
 21
124.538
  0
LINE
  8
0
 10
114.99
 11
105.99
 20
124.538
 21
124.538
  0
LINE
  8
0
 10
105.99
 11
104.567
 20
124.538
 21
124.436
  0
LINE
  8
0
 10
104.567
 11
103.173
 20
124.436
 21
124.133
  0
LINE
  8
0
 10
103.173
 11
101.836
 20
124.133
 21
123.634
  0
LINE
  8
0
 10
101.836
 11
100.584
 20
123.634
 21
122.95
  0
LINE
  8
0
 10
100.584
 11
99.4414
 20
122.95
 21
122.095
  0
LINE
  8
0
 10
99.4414
 11
98.4325
 20
122.095
 21
121.086
  0
LINE
  8
0
 10
98.4325
 11
97.5775
 20
121.086
 21
119.944
  0
LINE
  8
0
 10
97.5775
 11
96.8937
 20
119.944
 21
118.692
  0
LINE
  8
0
 10
96.8937
 11
96.3951
 20
118.692
 21
117.355
  0
LINE
  8
0
 10
96.3951
 11
96.0918
 20
117.355
 21
115.961
  0
LINE
  8
0
 10
96.0918
 11
95.99
 20
115.961
 21
114.538
  0
LINE
  8
0
 10
95.99
 11
95.99
 20
114.538
 21
105
  0
LINE
  8
0
 10
95.99
 11
74.125
 20
105
 21
105
  0
LINE
  8
0
 10
74.125
 11
73.5557
 20
105
 21
104.959
  0
LINE
  8
0
 10
73.5557
 11
72.9981
 20
104.959
 21
104.838
  0
LINE
  8
0
 10
72.9981
 11
72.4633
 20
104.838
 21
104.639
  0
LINE
  8
0
 10
72.4633
 11
71.9624
 20
104.639
 21
104.365
  0
LINE
  8
0
 10
71.9624
 11
71.5056
 20
104.365
 21
104.023
  0
LINE
  8
0
 10
71.5056
 11
71.102
 20
104.023
 21
103.619
  0
LINE
  8
0
 10
71.102
 11
70.76
 20
103.619
 21
103.163
  0
LINE
  8
0
 10
70.76
 11
70.4865
 20
103.163
 21
102.662
  0
LINE
  8
0
 10
70.4865
 11
70.287
 20
102.662
 21
102.127
  0
LINE
  8
0
 10
70.287
 11
70.1657
 20
102.127
 21
101.569
  0
LINE
  8
0
 10
70.1657
 11
70.125
 20
101.569
 21
101
  0
LINE
  8
0
 10
70.125
 11
70.125
 20
101
 21
98
  0
LINE
  8
0
 10
103.16
 11
103.223
 20
34
 21
34.4762
  0
LINE
  8
0
 10
103.223
 11
103.407
 20
34.4762
 21
34.92
  0
LINE
  8
0
 10
103.407
 11
103.699
 20
34.92
 21
35.3011
  0
LINE
  8
0
 10
103.699
 11
104.08
 20
35.3011
 21
35.5935
  0
LINE
  8
0
 10
104.08
 11
104.524
 20
35.5935
 21
35.7773
  0
LINE
  8
0
 10
104.524
 11
105
 20
35.7773
 21
35.84
  0
LINE
  8
0
 10
105
 11
105.476
 20
35.84
 21
35.7773
  0
LINE
  8
0
 10
105.476
 11
105.92
 20
35.7773
 21
35.5935
  0
LINE
  8
0
 10
105.92
 11
106.301
 20
35.5935
 21
35.3011
  0
LINE
  8
0
 10
106.301
 11
106.593
 20
35.3011
 21
34.92
  0
LINE
  8
0
 10
106.593
 11
106.777
 20
34.92
 21
34.4762
  0
LINE
  8
0
 10
106.777
 11
106.84
 20
34.4762
 21
34
  0
LINE
  8
0
 10
106.84
 11
106.777
 20
34
 21
33.5238
  0
LINE
  8
0
 10
106.777
 11
106.593
 20
33.5238
 21
33.08
  0
LINE
  8
0
 10
106.593
 11
106.301
 20
33.08
 21
32.6989
  0
LINE
  8
0
 10
106.301
 11
105.92
 20
32.6989
 21
32.4065
  0
LINE
  8
0
 10
105.92
 11
105.476
 20
32.4065
 21
32.2227
  0
LINE
  8
0
 10
105.476
 11
105
 20
32.2227
 21
32.16
  0
LINE
  8
0
 10
105
 11
104.524
 20
32.16
 21
32.2227
  0
LINE
  8
0
 10
104.524
 11
104.08
 20
32.2227
 21
32.4065
  0
LINE
  8
0
 10
104.08
 11
103.699
 20
32.4065
 21
32.6989
  0
LINE
  8
0
 10
103.699
 11
103.407
 20
32.6989
 21
33.08
  0
LINE
  8
0
 10
103.407
 11
103.223
 20
33.08
 21
33.5238
  0
LINE
  8
0
 10
103.223
 11
103.16
 20
33.5238
 21
34
  0
LINE
  8
0
 10
103.16
 11
103.223
 20
83.7689
 21
84.2452
  0
LINE
  8
0
 10
103.223
 11
103.407
 20
84.2452
 21
84.6889
  0
LINE
  8
0
 10
103.407
 11
103.699
 20
84.6889
 21
85.07
  0
LINE
  8
0
 10
103.699
 11
104.08
 20
85.07
 21
85.3624
  0
LINE
  8
0
 10
104.08
 11
104.524
 20
85.3624
 21
85.5462
  0
LINE
  8
0
 10
104.524
 11
105
 20
85.5462
 21
85.6089
  0
LINE
  8
0
 10
105
 11
105.476
 20
85.6089
 21
85.5462
  0
LINE
  8
0
 10
105.476
 11
105.92
 20
85.5462
 21
85.3624
  0
LINE
  8
0
 10
105.92
 11
106.301
 20
85.3624
 21
85.07
  0
LINE
  8
0
 10
106.301
 11
106.593
 20
85.07
 21
84.6889
  0
LINE
  8
0
 10
106.593
 11
106.777
 20
84.6889
 21
84.2452
  0
LINE
  8
0
 10
106.777
 11
106.84
 20
84.2452
 21
83.7689
  0
LINE
  8
0
 10
106.84
 11
106.777
 20
83.7689
 21
83.2927
  0
LINE
  8
0
 10
106.777
 11
106.593
 20
83.2927
 21
82.8489
  0
LINE
  8
0
 10
106.593
 11
106.301
 20
82.8489
 21
82.4679
  0
LINE
  8
0
 10
106.301
 11
105.92
 20
82.4679
 21
82.1755
  0
LINE
  8
0
 10
105.92
 11
105.476
 20
82.1755
 21
81.9916
  0
LINE
  8
0
 10
105.476
 11
105
 20
81.9916
 21
81.9289
  0
LINE
  8
0
 10
105
 11
104.524
 20
81.9289
 21
81.9916
  0
LINE
  8
0
 10
104.524
 11
104.08
 20
81.9916
 21
82.1755
  0
LINE
  8
0
 10
104.08
 11
103.699
 20
82.1755
 21
82.4679
  0
LINE
  8
0
 10
103.699
 11
103.407
 20
82.4679
 21
82.8489
  0
LINE
  8
0
 10
103.407
 11
103.223
 20
82.8489
 21
83.2927
  0
LINE
  8
0
 10
103.223
 11
103.16
 20
83.2927
 21
83.7689
  0
LINE
  8
0
 10
103.16
 11
103.223
 20
115.538
 21
116.014
  0
LINE
  8
0
 10
103.223
 11
103.407
 20
116.014
 21
116.458
  0
LINE
  8
0
 10
103.407
 11
103.699
 20
116.458
 21
116.839
  0
LINE
  8
0
 10
103.699
 11
104.08
 20
116.839
 21
117.131
  0
LINE
  8
0
 10
104.08
 11
104.524
 20
117.131
 21
117.315
  0
LINE
  8
0
 10
104.524
 11
105
 20
117.315
 21
117.378
  0
LINE
  8
0
 10
105
 11
105.476
 20
117.378
 21
117.315
  0
LINE
  8
0
 10
105.476
 11
105.92
 20
117.315
 21
117.131
  0
LINE
  8
0
 10
105.92
 11
106.301
 20
117.131
 21
116.839
  0
LINE
  8
0
 10
106.301
 11
106.593
 20
116.839
 21
116.458
  0
LINE
  8
0
 10
106.593
 11
106.777
 20
116.458
 21
116.014
  0
LINE
  8
0
 10
106.777
 11
106.84
 20
116.014
 21
115.538
  0
LINE
  8
0
 10
106.84
 11
106.777
 20
115.538
 21
115.062
  0
LINE
  8
0
 10
106.777
 11
106.593
 20
115.062
 21
114.618
  0
LINE
  8
0
 10
106.593
 11
106.301
 20
114.618
 21
114.237
  0
LINE
  8
0
 10
106.301
 11
105.92
 20
114.237
 21
113.944
  0
LINE
  8
0
 10
105.92
 11
105.476
 20
113.944
 21
113.761
  0
LINE
  8
0
 10
105.476
 11
105
 20
113.761
 21
113.698
  0
LINE
  8
0
 10
105
 11
104.524
 20
113.698
 21
113.761
  0
LINE
  8
0
 10
104.524
 11
104.08
 20
113.761
 21
113.944
  0
LINE
  8
0
 10
104.08
 11
103.699
 20
113.944
 21
114.237
  0
LINE
  8
0
 10
103.699
 11
103.407
 20
114.237
 21
114.618
  0
LINE
  8
0
 10
103.407
 11
103.223
 20
114.618
 21
115.062
  0
LINE
  8
0
 10
103.223
 11
103.16
 20
115.062
 21
115.538
  0
ENDSEC
  0
SECTION
  2
OBJECTS
  0
DICTIONARY
  0
ENDSEC
  0
EOF
