  0
SECTION
  2
BLOCKS
  0
ENDSEC
  0
SECTION
  2
ENTITIES
  0
LINE
  8
0
 10
-107.5
 11
-107.486
 20
-57
 21
-57.2941
  0
LINE
  8
0
 10
-107.486
 11
-107.442
 20
-57.2941
 21
-57.5853
  0
LINE
  8
0
 10
-107.442
 11
-107.371
 20
-57.5853
 21
-57.8709
  0
LINE
  8
0
 10
-107.371
 11
-107.272
 20
-57.8709
 21
-58.1481
  0
LINE
  8
0
 10
-107.272
 11
-107.146
 20
-58.1481
 21
-58.4142
  0
LINE
  8
0
 10
-107.146
 11
-106.994
 20
-58.4142
 21
-58.6667
  0
LINE
  8
0
 10
-106.994
 11
-106.819
 20
-58.6667
 21
-58.9032
  0
LINE
  8
0
 10
-106.819
 11
-106.621
 20
-58.9032
 21
-59.1213
  0
LINE
  8
0
 10
-106.621
 11
-106.403
 20
-59.1213
 21
-59.319
  0
LINE
  8
0
 10
-106.403
 11
-106.167
 20
-59.319
 21
-59.4944
  0
LINE
  8
0
 10
-106.167
 11
-105.914
 20
-59.4944
 21
-59.6458
  0
LINE
  8
0
 10
-105.914
 11
-105.648
 20
-59.6458
 21
-59.7716
  0
LINE
  8
0
 10
-105.648
 11
-105.371
 20
-59.7716
 21
-59.8708
  0
LINE
  8
0
 10
-105.371
 11
-105.085
 20
-59.8708
 21
-59.9424
  0
LINE
  8
0
 10
-105.085
 11
-104.794
 20
-59.9424
 21
-59.9856
  0
LINE
  8
0
 10
-104.794
 11
-104.5
 20
-59.9856
 21
-60
  0
LINE
  8
0
 10
-104.5
 11
104.5
 20
-60
 21
-60
  0
LINE
  8
0
 10
104.5
 11
104.794
 20
-60
 21
-59.9856
  0
LINE
  8
0
 10
104.794
 11
105.085
 20
-59.9856
 21
-59.9424
  0
LINE
  8
0
 10
105.085
 11
105.371
 20
-59.9424
 21
-59.8708
  0
LINE
  8
0
 10
105.371
 11
105.648
 20
-59.8708
 21
-59.7716
  0
LINE
  8
0
 10
105.648
 11
105.914
 20
-59.7716
 21
-59.6458
  0
LINE
  8
0
 10
105.914
 11
106.167
 20
-59.6458
 21
-59.4944
  0
LINE
  8
0
 10
106.167
 11
106.403
 20
-59.4944
 21
-59.319
  0
LINE
  8
0
 10
106.403
 11
106.621
 20
-59.319
 21
-59.1213
  0
LINE
  8
0
 10
106.621
 11
106.819
 20
-59.1213
 21
-58.9032
  0
LINE
  8
0
 10
106.819
 11
106.994
 20
-58.9032
 21
-58.6667
  0
LINE
  8
0
 10
106.994
 11
107.146
 20
-58.6667
 21
-58.4142
  0
LINE
  8
0
 10
107.146
 11
107.272
 20
-58.4142
 21
-58.1481
  0
LINE
  8
0
 10
107.272
 11
107.371
 20
-58.1481
 21
-57.8709
  0
LINE
  8
0
 10
107.371
 11
107.442
 20
-57.8709
 21
-57.5853
  0
LINE
  8
0
 10
107.442
 11
107.486
 20
-57.5853
 21
-57.2941
  0
LINE
  8
0
 10
107.486
 11
107.5
 20
-57.2941
 21
-57
  0
LINE
  8
0
 10
107.5
 11
107.5
 20
-57
 21
57
  0
LINE
  8
0
 10
107.5
 11
107.486
 20
57
 21
57.2941
  0
LINE
  8
0
 10
107.486
 11
107.442
 20
57.2941
 21
57.5853
  0
LINE
  8
0
 10
107.442
 11
107.371
 20
57.5853
 21
57.8709
  0
LINE
  8
0
 10
107.371
 11
107.272
 20
57.8709
 21
58.1481
  0
LINE
  8
0
 10
107.272
 11
107.146
 20
58.1481
 21
58.4142
  0
LINE
  8
0
 10
107.146
 11
106.994
 20
58.4142
 21
58.6667
  0
LINE
  8
0
 10
106.994
 11
106.819
 20
58.6667
 21
58.9032
  0
LINE
  8
0
 10
106.819
 11
106.621
 20
58.9032
 21
59.1213
  0
LINE
  8
0
 10
106.621
 11
106.403
 20
59.1213
 21
59.319
  0
LINE
  8
0
 10
106.403
 11
106.167
 20
59.319
 21
59.4944
  0
LINE
  8
0
 10
106.167
 11
105.914
 20
59.4944
 21
59.6458
  0
LINE
  8
0
 10
105.914
 11
105.648
 20
59.6458
 21
59.7716
  0
LINE
  8
0
 10
105.648
 11
105.371
 20
59.7716
 21
59.8708
  0
LINE
  8
0
 10
105.371
 11
105.085
 20
59.8708
 21
59.9424
  0
LINE
  8
0
 10
105.085
 11
104.794
 20
59.9424
 21
59.9856
  0
LINE
  8
0
 10
104.794
 11
104.5
 20
59.9856
 21
60
  0
LINE
  8
0
 10
104.5
 11
-104.5
 20
60
 21
60
  0
LINE
  8
0
 10
-104.5
 11
-104.794
 20
60
 21
59.9856
  0
LINE
  8
0
 10
-104.794
 11
-105.085
 20
59.9856
 21
59.9424
  0
LINE
  8
0
 10
-105.085
 11
-105.371
 20
59.9424
 21
59.8708
  0
LINE
  8
0
 10
-105.371
 11
-105.648
 20
59.8708
 21
59.7716
  0
LINE
  8
0
 10
-105.648
 11
-105.914
 20
59.7716
 21
59.6458
  0
LINE
  8
0
 10
-105.914
 11
-106.167
 20
59.6458
 21
59.4944
  0
LINE
  8
0
 10
-106.167
 11
-106.403
 20
59.4944
 21
59.319
  0
LINE
  8
0
 10
-106.403
 11
-106.621
 20
59.319
 21
59.1213
  0
LINE
  8
0
 10
-106.621
 11
-106.819
 20
59.1213
 21
58.9032
  0
LINE
  8
0
 10
-106.819
 11
-106.994
 20
58.9032
 21
58.6667
  0
LINE
  8
0
 10
-106.994
 11
-107.146
 20
58.6667
 21
58.4142
  0
LINE
  8
0
 10
-107.146
 11
-107.272
 20
58.4142
 21
58.1481
  0
LINE
  8
0
 10
-107.272
 11
-107.371
 20
58.1481
 21
57.8709
  0
LINE
  8
0
 10
-107.371
 11
-107.442
 20
57.8709
 21
57.5853
  0
LINE
  8
0
 10
-107.442
 11
-107.486
 20
57.5853
 21
57.2941
  0
LINE
  8
0
 10
-107.486
 11
-107.5
 20
57.2941
 21
57
  0
LINE
  8
0
 10
-107.5
 11
-107.5
 20
57
 21
-57
  0
ENDSEC
  0
SECTION
  2
OBJECTS
  0
DICTIONARY
  0
ENDSEC
  0
EOF
