  0
SECTION
  2
BLOCKS
  0
ENDSEC
  0
SECTION
  2
ENTITIES
  0
LINE
  8
0
 10
-132.49
 11
-101.49
 20
35
 21
35
  0
LINE
  8
0
 10
-101.49
 11
-101.063
 20
35
 21
35.0305
  0
LINE
  8
0
 10
-101.063
 11
-100.645
 20
35.0305
 21
35.1215
  0
LINE
  8
0
 10
-100.645
 11
-100.244
 20
35.1215
 21
35.2711
  0
LINE
  8
0
 10
-100.244
 11
-99.8681
 20
35.2711
 21
35.4762
  0
LINE
  8
0
 10
-99.8681
 11
-99.5254
 20
35.4762
 21
35.7328
  0
LINE
  8
0
 10
-99.5254
 11
-99.2228
 20
35.7328
 21
36.0354
  0
LINE
  8
0
 10
-99.2228
 11
-98.9662
 20
36.0354
 21
36.3781
  0
LINE
  8
0
 10
-98.9662
 11
-98.7611
 20
36.3781
 21
36.7538
  0
LINE
  8
0
 10
-98.7611
 11
-98.6115
 20
36.7538
 21
37.1548
  0
LINE
  8
0
 10
-98.6115
 11
-98.5205
 20
37.1548
 21
37.5731
  0
LINE
  8
0
 10
-98.5205
 11
-98.49
 20
37.5731
 21
38
  0
LINE
  8
0
 10
-98.49
 11
-98.49
 20
38
 21
89
  0
LINE
  8
0
 10
-98.49
 11
-80.625
 20
89
 21
89
  0
LINE
  8
0
 10
-80.625
 11
-80.1981
 20
89
 21
89.0305
  0
LINE
  8
0
 10
-80.1981
 11
-79.7798
 20
89.0305
 21
89.1215
  0
LINE
  8
0
 10
-79.7798
 11
-79.3788
 20
89.1215
 21
89.2711
  0
LINE
  8
0
 10
-79.3788
 11
-79.0031
 20
89.2711
 21
89.4762
  0
LINE
  8
0
 10
-79.0031
 11
-78.6604
 20
89.4762
 21
89.7328
  0
LINE
  8
0
 10
-78.6604
 11
-78.3578
 20
89.7328
 21
90.0354
  0
LINE
  8
0
 10
-78.3578
 11
-78.1012
 20
90.0354
 21
90.3781
  0
LINE
  8
0
 10
-78.1012
 11
-77.8961
 20
90.3781
 21
90.7538
  0
LINE
  8
0
 10
-77.8961
 11
-77.7465
 20
90.7538
 21
91.1548
  0
LINE
  8
0
 10
-77.7465
 11
-77.6555
 20
91.1548
 21
91.5731
  0
LINE
  8
0
 10
-77.6555
 11
-77.625
 20
91.5731
 21
92
  0
LINE
  8
0
 10
-77.625
 11
-77.625
 20
92
 21
102
  0
LINE
  8
0
 10
-77.625
 11
-77.6555
 20
102
 21
102.427
  0
LINE
  8
0
 10
-77.6555
 11
-77.7465
 20
102.427
 21
102.845
  0
LINE
  8
0
 10
-77.7465
 11
-77.8961
 20
102.845
 21
103.246
  0
LINE
  8
0
 10
-77.8961
 11
-78.1012
 20
103.246
 21
103.622
  0
LINE
  8
0
 10
-78.1012
 11
-78.3578
 20
103.622
 21
103.965
  0
LINE
  8
0
 10
-78.3578
 11
-78.6604
 20
103.965
 21
104.267
  0
LINE
  8
0
 10
-78.6604
 11
-79.0031
 20
104.267
 21
104.524
  0
LINE
  8
0
 10
-79.0031
 11
-79.3788
 20
104.524
 21
104.729
  0
LINE
  8
0
 10
-79.3788
 11
-79.7798
 20
104.729
 21
104.878
  0
LINE
  8
0
 10
-79.7798
 11
-80.1981
 20
104.878
 21
104.969
  0
LINE
  8
0
 10
-80.1981
 11
-80.625
 20
104.969
 21
105
  0
LINE
  8
0
 10
-80.625
 11
-98.49
 20
105
 21
105
  0
LINE
  8
0
 10
-98.49
 11
-98.49
 20
105
 21
131.538
  0
LINE
  8
0
 10
-98.49
 11
-98.5205
 20
131.538
 21
131.965
  0
LINE
  8
0
 10
-98.5205
 11
-98.6115
 20
131.965
 21
132.383
  0
LINE
  8
0
 10
-98.6115
 11
-98.7611
 20
132.383
 21
132.784
  0
LINE
  8
0
 10
-98.7611
 11
-98.9662
 20
132.784
 21
133.16
  0
LINE
  8
0
 10
-98.9662
 11
-99.2228
 20
133.16
 21
133.502
  0
LINE
  8
0
 10
-99.2228
 11
-99.5254
 20
133.502
 21
133.805
  0
LINE
  8
0
 10
-99.5254
 11
-99.8681
 20
133.805
 21
134.062
  0
LINE
  8
0
 10
-99.8681
 11
-100.244
 20
134.062
 21
134.267
  0
LINE
  8
0
 10
-100.244
 11
-100.645
 20
134.267
 21
134.416
  0
LINE
  8
0
 10
-100.645
 11
-101.063
 20
134.416
 21
134.507
  0
LINE
  8
0
 10
-101.063
 11
-101.49
 20
134.507
 21
134.538
  0
LINE
  8
0
 10
-101.49
 11
-129.49
 20
134.538
 21
134.538
  0
LINE
  8
0
 10
-129.49
 11
-129.49
 20
134.538
 21
134.538
  0
LINE
  8
0
 10
-129.49
 11
-132.49
 20
134.538
 21
134.538
  0
LINE
  8
0
 10
-132.49
 11
-132.49
 20
134.538
 21
35
  0
LINE
  8
0
 10
-109.222
 11
-109.222
 20
43.7524
 21
44.2476
  0
LINE
  8
0
 10
-109.222
 11
-109.083
 20
44.2476
 21
44.7228
  0
LINE
  8
0
 10
-109.083
 11
-108.815
 20
44.7228
 21
45.1395
  0
LINE
  8
0
 10
-108.815
 11
-108.441
 20
45.1395
 21
45.4638
  0
LINE
  8
0
 10
-108.441
 11
-107.99
 20
45.4638
 21
45.6695
  0
LINE
  8
0
 10
-107.99
 11
-107.5
 20
45.6695
 21
45.74
  0
LINE
  8
0
 10
-107.5
 11
-107.01
 20
45.74
 21
45.6695
  0
LINE
  8
0
 10
-107.01
 11
-106.559
 20
45.6695
 21
45.4638
  0
LINE
  8
0
 10
-106.559
 11
-106.185
 20
45.4638
 21
45.1395
  0
LINE
  8
0
 10
-106.185
 11
-105.917
 20
45.1395
 21
44.7228
  0
LINE
  8
0
 10
-105.917
 11
-105.778
 20
44.7228
 21
44.2476
  0
LINE
  8
0
 10
-105.778
 11
-105.778
 20
44.2476
 21
43.7524
  0
LINE
  8
0
 10
-105.778
 11
-105.917
 20
43.7524
 21
43.2772
  0
LINE
  8
0
 10
-105.917
 11
-106.185
 20
43.2772
 21
42.8605
  0
LINE
  8
0
 10
-106.185
 11
-106.559
 20
42.8605
 21
42.5362
  0
LINE
  8
0
 10
-106.559
 11
-107.01
 20
42.5362
 21
42.3305
  0
LINE
  8
0
 10
-107.01
 11
-107.5
 20
42.3305
 21
42.26
  0
LINE
  8
0
 10
-107.5
 11
-107.99
 20
42.26
 21
42.3305
  0
LINE
  8
0
 10
-107.99
 11
-108.441
 20
42.3305
 21
42.5362
  0
LINE
  8
0
 10
-108.441
 11
-108.815
 20
42.5362
 21
42.8605
  0
LINE
  8
0
 10
-108.815
 11
-109.083
 20
42.8605
 21
43.2772
  0
LINE
  8
0
 10
-109.083
 11
-109.222
 20
43.2772
 21
43.7524
  0
LINE
  8
0
 10
-109.222
 11
-109.222
 20
76.9317
 21
77.4269
  0
LINE
  8
0
 10
-109.222
 11
-109.083
 20
77.4269
 21
77.9021
  0
LINE
  8
0
 10
-109.083
 11
-108.815
 20
77.9021
 21
78.3188
  0
LINE
  8
0
 10
-108.815
 11
-108.441
 20
78.3188
 21
78.6431
  0
LINE
  8
0
 10
-108.441
 11
-107.99
 20
78.6431
 21
78.8488
  0
LINE
  8
0
 10
-107.99
 11
-107.5
 20
78.8488
 21
78.9193
  0
LINE
  8
0
 10
-107.5
 11
-107.01
 20
78.9193
 21
78.8488
  0
LINE
  8
0
 10
-107.01
 11
-106.559
 20
78.8488
 21
78.6431
  0
LINE
  8
0
 10
-106.559
 11
-106.185
 20
78.6431
 21
78.3188
  0
LINE
  8
0
 10
-106.185
 11
-105.917
 20
78.3188
 21
77.9021
  0
LINE
  8
0
 10
-105.917
 11
-105.778
 20
77.9021
 21
77.4269
  0
LINE
  8
0
 10
-105.778
 11
-105.778
 20
77.4269
 21
76.9317
  0
LINE
  8
0
 10
-105.778
 11
-105.917
 20
76.9317
 21
76.4565
  0
LINE
  8
0
 10
-105.917
 11
-106.185
 20
76.4565
 21
76.0398
  0
LINE
  8
0
 10
-106.185
 11
-106.559
 20
76.0398
 21
75.7155
  0
LINE
  8
0
 10
-106.559
 11
-107.01
 20
75.7155
 21
75.5098
  0
LINE
  8
0
 10
-107.01
 11
-107.5
 20
75.5098
 21
75.4393
  0
LINE
  8
0
 10
-107.5
 11
-107.99
 20
75.4393
 21
75.5098
  0
LINE
  8
0
 10
-107.99
 11
-108.441
 20
75.5098
 21
75.7155
  0
LINE
  8
0
 10
-108.441
 11
-108.815
 20
75.7155
 21
76.0398
  0
LINE
  8
0
 10
-108.815
 11
-109.083
 20
76.0398
 21
76.4565
  0
LINE
  8
0
 10
-109.083
 11
-109.222
 20
76.4565
 21
76.9317
  0
LINE
  8
0
 10
-109.222
 11
-109.222
 20
125.29
 21
125.786
  0
LINE
  8
0
 10
-109.222
 11
-109.083
 20
125.786
 21
126.261
  0
LINE
  8
0
 10
-109.083
 11
-108.815
 20
126.261
 21
126.677
  0
LINE
  8
0
 10
-108.815
 11
-108.441
 20
126.677
 21
127.002
  0
LINE
  8
0
 10
-108.441
 11
-107.99
 20
127.002
 21
127.207
  0
LINE
  8
0
 10
-107.99
 11
-107.5
 20
127.207
 21
127.278
  0
LINE
  8
0
 10
-107.5
 11
-107.01
 20
127.278
 21
127.207
  0
LINE
  8
0
 10
-107.01
 11
-106.559
 20
127.207
 21
127.002
  0
LINE
  8
0
 10
-106.559
 11
-106.185
 20
127.002
 21
126.677
  0
LINE
  8
0
 10
-106.185
 11
-105.917
 20
126.677
 21
126.261
  0
LINE
  8
0
 10
-105.917
 11
-105.778
 20
126.261
 21
125.786
  0
LINE
  8
0
 10
-105.778
 11
-105.778
 20
125.786
 21
125.29
  0
LINE
  8
0
 10
-105.778
 11
-105.917
 20
125.29
 21
124.815
  0
LINE
  8
0
 10
-105.917
 11
-106.185
 20
124.815
 21
124.398
  0
LINE
  8
0
 10
-106.185
 11
-106.559
 20
124.398
 21
124.074
  0
LINE
  8
0
 10
-106.559
 11
-107.01
 20
124.074
 21
123.868
  0
LINE
  8
0
 10
-107.01
 11
-107.5
 20
123.868
 21
123.798
  0
LINE
  8
0
 10
-107.5
 11
-107.99
 20
123.798
 21
123.868
  0
LINE
  8
0
 10
-107.99
 11
-108.441
 20
123.868
 21
124.074
  0
LINE
  8
0
 10
-108.441
 11
-108.815
 20
124.074
 21
124.398
  0
LINE
  8
0
 10
-108.815
 11
-109.083
 20
124.398
 21
124.815
  0
LINE
  8
0
 10
-109.083
 11
-109.222
 20
124.815
 21
125.29
  0
LINE
  8
0
 10
-113.25
 11
-113.22
 20
-97
 21
-97.6972
  0
LINE
  8
0
 10
-113.22
 11
-113.128
 20
-97.6972
 21
-98.3892
  0
LINE
  8
0
 10
-113.128
 11
-112.977
 20
-98.3892
 21
-99.0706
  0
LINE
  8
0
 10
-112.977
 11
-112.768
 20
-99.0706
 21
-99.7362
  0
LINE
  8
0
 10
-112.768
 11
-112.5
 20
-99.7362
 21
-100.381
  0
LINE
  8
0
 10
-112.5
 11
-112.178
 20
-100.381
 21
-101
  0
LINE
  8
0
 10
-112.178
 11
-111.803
 20
-101
 21
-101.589
  0
LINE
  8
0
 10
-111.803
 11
-111.378
 20
-101.589
 21
-102.142
  0
LINE
  8
0
 10
-111.378
 11
-110.907
 20
-102.142
 21
-102.657
  0
LINE
  8
0
 10
-110.907
 11
-110.392
 20
-102.657
 21
-103.128
  0
LINE
  8
0
 10
-110.392
 11
-109.839
 20
-103.128
 21
-103.553
  0
LINE
  8
0
 10
-109.839
 11
-109.25
 20
-103.553
 21
-103.928
  0
LINE
  8
0
 10
-109.25
 11
-108.631
 20
-103.928
 21
-104.25
  0
LINE
  8
0
 10
-108.631
 11
-107.986
 20
-104.25
 21
-104.518
  0
LINE
  8
0
 10
-107.986
 11
-107.321
 20
-104.518
 21
-104.727
  0
LINE
  8
0
 10
-107.321
 11
-106.639
 20
-104.727
 21
-104.878
  0
LINE
  8
0
 10
-106.639
 11
-105.947
 20
-104.878
 21
-104.97
  0
LINE
  8
0
 10
-105.947
 11
-105.25
 20
-104.97
 21
-105
  0
LINE
  8
0
 10
-105.25
 11
-65.5
 20
-105
 21
-105
  0
LINE
  8
0
 10
-65.5
 11
-64.8028
 20
-105
 21
-104.97
  0
LINE
  8
0
 10
-64.8028
 11
-64.1108
 20
-104.97
 21
-104.878
  0
LINE
  8
0
 10
-64.1108
 11
-63.4294
 20
-104.878
 21
-104.727
  0
LINE
  8
0
 10
-63.4294
 11
-62.7638
 20
-104.727
 21
-104.518
  0
LINE
  8
0
 10
-62.7638
 11
-62.1191
 20
-104.518
 21
-104.25
  0
LINE
  8
0
 10
-62.1191
 11
-61.5
 20
-104.25
 21
-103.928
  0
LINE
  8
0
 10
-61.5
 11
-60.9114
 20
-103.928
 21
-103.553
  0
LINE
  8
0
 10
-60.9114
 11
-60.3577
 20
-103.553
 21
-103.128
  0
LINE
  8
0
 10
-60.3577
 11
-59.8431
 20
-103.128
 21
-102.657
  0
LINE
  8
0
 10
-59.8431
 11
-59.3716
 20
-102.657
 21
-102.142
  0
LINE
  8
0
 10
-59.3716
 11
-58.9468
 20
-102.142
 21
-101.589
  0
LINE
  8
0
 10
-58.9468
 11
-58.5718
 20
-101.589
 21
-101
  0
LINE
  8
0
 10
-58.5718
 11
-58.2495
 20
-101
 21
-100.381
  0
LINE
  8
0
 10
-58.2495
 11
-57.9825
 20
-100.381
 21
-99.7362
  0
LINE
  8
0
 10
-57.9825
 11
-57.7726
 20
-99.7362
 21
-99.0706
  0
LINE
  8
0
 10
-57.7726
 11
-57.6215
 20
-99.0706
 21
-98.3892
  0
LINE
  8
0
 10
-57.6215
 11
-57.5304
 20
-98.3892
 21
-97.6972
  0
LINE
  8
0
 10
-57.5304
 11
-57.5
 20
-97.6972
 21
-97
  0
LINE
  8
0
 10
-57.5
 11
-57.5304
 20
-97
 21
-96.3028
  0
LINE
  8
0
 10
-57.5304
 11
-57.6215
 20
-96.3028
 21
-95.6108
  0
LINE
  8
0
 10
-57.6215
 11
-57.7726
 20
-95.6108
 21
-94.9294
  0
LINE
  8
0
 10
-57.7726
 11
-57.9825
 20
-94.9294
 21
-94.2638
  0
LINE
  8
0
 10
-57.9825
 11
-58.2495
 20
-94.2638
 21
-93.6191
  0
LINE
  8
0
 10
-58.2495
 11
-58.5718
 20
-93.6191
 21
-93
  0
LINE
  8
0
 10
-58.5718
 11
-58.9468
 20
-93
 21
-92.4114
  0
LINE
  8
0
 10
-58.9468
 11
-59.3716
 20
-92.4114
 21
-91.8577
  0
LINE
  8
0
 10
-59.3716
 11
-59.8431
 20
-91.8577
 21
-91.3431
  0
LINE
  8
0
 10
-59.8431
 11
-60.3577
 20
-91.3431
 21
-90.8716
  0
LINE
  8
0
 10
-60.3577
 11
-60.9114
 20
-90.8716
 21
-90.4468
  0
LINE
  8
0
 10
-60.9114
 11
-80.7864
 20
-90.4468
 21
-76.4468
  0
LINE
  8
0
 10
-80.7864
 11
-81.375
 20
-76.4468
 21
-76.0718
  0
LINE
  8
0
 10
-81.375
 11
-81.9941
 20
-76.0718
 21
-75.7495
  0
LINE
  8
0
 10
-81.9941
 11
-82.6388
 20
-75.7495
 21
-75.4825
  0
LINE
  8
0
 10
-82.6388
 11
-83.3044
 20
-75.4825
 21
-75.2726
  0
LINE
  8
0
 10
-83.3044
 11
-83.9858
 20
-75.2726
 21
-75.1215
  0
LINE
  8
0
 10
-83.9858
 11
-84.6778
 20
-75.1215
 21
-75.0304
  0
LINE
  8
0
 10
-84.6778
 11
-85.375
 20
-75.0304
 21
-75
  0
LINE
  8
0
 10
-85.375
 11
-86.0722
 20
-75
 21
-75.0304
  0
LINE
  8
0
 10
-86.0722
 11
-86.7642
 20
-75.0304
 21
-75.1215
  0
LINE
  8
0
 10
-86.7642
 11
-87.4456
 20
-75.1215
 21
-75.2726
  0
LINE
  8
0
 10
-87.4456
 11
-88.1112
 20
-75.2726
 21
-75.4825
  0
LINE
  8
0
 10
-88.1112
 11
-88.7559
 20
-75.4825
 21
-75.7495
  0
LINE
  8
0
 10
-88.7559
 11
-89.375
 20
-75.7495
 21
-76.0718
  0
LINE
  8
0
 10
-89.375
 11
-89.9636
 20
-76.0718
 21
-76.4468
  0
LINE
  8
0
 10
-89.9636
 11
-109.839
 20
-76.4468
 21
-90.4468
  0
LINE
  8
0
 10
-109.839
 11
-110.392
 20
-90.4468
 21
-90.8716
  0
LINE
  8
0
 10
-110.392
 11
-110.907
 20
-90.8716
 21
-91.3431
  0
LINE
  8
0
 10
-110.907
 11
-111.378
 20
-91.3431
 21
-91.8577
  0
LINE
  8
0
 10
-111.378
 11
-111.803
 20
-91.8577
 21
-92.4114
  0
LINE
  8
0
 10
-111.803
 11
-112.178
 20
-92.4114
 21
-93
  0
LINE
  8
0
 10
-112.178
 11
-112.5
 20
-93
 21
-93.6191
  0
LINE
  8
0
 10
-112.5
 11
-112.768
 20
-93.6191
 21
-94.2638
  0
LINE
  8
0
 10
-112.768
 11
-112.977
 20
-94.2638
 21
-94.9294
  0
LINE
  8
0
 10
-112.977
 11
-113.128
 20
-94.9294
 21
-95.6108
  0
LINE
  8
0
 10
-113.128
 11
-113.22
 20
-95.6108
 21
-96.3028
  0
LINE
  8
0
 10
-113.22
 11
-113.25
 20
-96.3028
 21
-97
  0
LINE
  8
0
 10
-106.972
 11
-106.972
 20
-97.2476
 21
-96.7524
  0
LINE
  8
0
 10
-106.972
 11
-106.833
 20
-96.7524
 21
-96.2772
  0
LINE
  8
0
 10
-106.833
 11
-106.565
 20
-96.2772
 21
-95.8605
  0
LINE
  8
0
 10
-106.565
 11
-106.191
 20
-95.8605
 21
-95.5362
  0
LINE
  8
0
 10
-106.191
 11
-105.74
 20
-95.5362
 21
-95.3305
  0
LINE
  8
0
 10
-105.74
 11
-105.25
 20
-95.3305
 21
-95.26
  0
LINE
  8
0
 10
-105.25
 11
-104.76
 20
-95.26
 21
-95.3305
  0
LINE
  8
0
 10
-104.76
 11
-104.309
 20
-95.3305
 21
-95.5362
  0
LINE
  8
0
 10
-104.309
 11
-103.935
 20
-95.5362
 21
-95.8605
  0
LINE
  8
0
 10
-103.935
 11
-103.667
 20
-95.8605
 21
-96.2772
  0
LINE
  8
0
 10
-103.667
 11
-103.528
 20
-96.2772
 21
-96.7524
  0
LINE
  8
0
 10
-103.528
 11
-103.528
 20
-96.7524
 21
-97.2476
  0
LINE
  8
0
 10
-103.528
 11
-103.667
 20
-97.2476
 21
-97.7228
  0
LINE
  8
0
 10
-103.667
 11
-103.935
 20
-97.7228
 21
-98.1395
  0
LINE
  8
0
 10
-103.935
 11
-104.309
 20
-98.1395
 21
-98.4638
  0
LINE
  8
0
 10
-104.309
 11
-104.76
 20
-98.4638
 21
-98.6695
  0
LINE
  8
0
 10
-104.76
 11
-105.25
 20
-98.6695
 21
-98.74
  0
LINE
  8
0
 10
-105.25
 11
-105.74
 20
-98.74
 21
-98.6695
  0
LINE
  8
0
 10
-105.74
 11
-106.191
 20
-98.6695
 21
-98.4638
  0
LINE
  8
0
 10
-106.191
 11
-106.565
 20
-98.4638
 21
-98.1395
  0
LINE
  8
0
 10
-106.565
 11
-106.833
 20
-98.1395
 21
-97.7228
  0
LINE
  8
0
 10
-106.833
 11
-106.972
 20
-97.7228
 21
-97.2476
  0
LINE
  8
0
 10
-87.0973
 11
-87.0973
 20
-83.2476
 21
-82.7524
  0
LINE
  8
0
 10
-87.0973
 11
-86.9578
 20
-82.7524
 21
-82.2772
  0
LINE
  8
0
 10
-86.9578
 11
-86.69
 20
-82.2772
 21
-81.8605
  0
LINE
  8
0
 10
-86.69
 11
-86.3157
 20
-81.8605
 21
-81.5362
  0
LINE
  8
0
 10
-86.3157
 11
-85.8652
 20
-81.5362
 21
-81.3305
  0
LINE
  8
0
 10
-85.8652
 11
-85.375
 20
-81.3305
 21
-81.26
  0
LINE
  8
0
 10
-85.375
 11
-84.8848
 20
-81.26
 21
-81.3305
  0
LINE
  8
0
 10
-84.8848
 11
-84.4343
 20
-81.3305
 21
-81.5362
  0
LINE
  8
0
 10
-84.4343
 11
-84.06
 20
-81.5362
 21
-81.8605
  0
LINE
  8
0
 10
-84.06
 11
-83.7922
 20
-81.8605
 21
-82.2772
  0
LINE
  8
0
 10
-83.7922
 11
-83.6527
 20
-82.2772
 21
-82.7524
  0
LINE
  8
0
 10
-83.6527
 11
-83.6527
 20
-82.7524
 21
-83.2476
  0
LINE
  8
0
 10
-83.6527
 11
-83.7922
 20
-83.2476
 21
-83.7228
  0
LINE
  8
0
 10
-83.7922
 11
-84.06
 20
-83.7228
 21
-84.1395
  0
LINE
  8
0
 10
-84.06
 11
-84.4343
 20
-84.1395
 21
-84.4638
  0
LINE
  8
0
 10
-84.4343
 11
-84.8848
 20
-84.4638
 21
-84.6695
  0
LINE
  8
0
 10
-84.8848
 11
-85.375
 20
-84.6695
 21
-84.74
  0
LINE
  8
0
 10
-85.375
 11
-85.8652
 20
-84.74
 21
-84.6695
  0
LINE
  8
0
 10
-85.8652
 11
-86.3157
 20
-84.6695
 21
-84.4638
  0
LINE
  8
0
 10
-86.3157
 11
-86.69
 20
-84.4638
 21
-84.1395
  0
LINE
  8
0
 10
-86.69
 11
-86.9578
 20
-84.1395
 21
-83.7228
  0
LINE
  8
0
 10
-86.9578
 11
-87.0973
 20
-83.7228
 21
-83.2476
  0
LINE
  8
0
 10
-67.2223
 11
-67.2223
 20
-97.2476
 21
-96.7524
  0
LINE
  8
0
 10
-67.2223
 11
-67.0828
 20
-96.7524
 21
-96.2772
  0
LINE
  8
0
 10
-67.0828
 11
-66.815
 20
-96.2772
 21
-95.8605
  0
LINE
  8
0
 10
-66.815
 11
-66.4407
 20
-95.8605
 21
-95.5362
  0
LINE
  8
0
 10
-66.4407
 11
-65.9902
 20
-95.5362
 21
-95.3305
  0
LINE
  8
0
 10
-65.9902
 11
-65.5
 20
-95.3305
 21
-95.26
  0
LINE
  8
0
 10
-65.5
 11
-65.0098
 20
-95.26
 21
-95.3305
  0
LINE
  8
0
 10
-65.0098
 11
-64.5593
 20
-95.3305
 21
-95.5362
  0
LINE
  8
0
 10
-64.5593
 11
-64.185
 20
-95.5362
 21
-95.8605
  0
LINE
  8
0
 10
-64.185
 11
-63.9172
 20
-95.8605
 21
-96.2772
  0
LINE
  8
0
 10
-63.9172
 11
-63.7777
 20
-96.2772
 21
-96.7524
  0
LINE
  8
0
 10
-63.7777
 11
-63.7777
 20
-96.7524
 21
-97.2476
  0
LINE
  8
0
 10
-63.7777
 11
-63.9172
 20
-97.2476
 21
-97.7228
  0
LINE
  8
0
 10
-63.9172
 11
-64.185
 20
-97.7228
 21
-98.1395
  0
LINE
  8
0
 10
-64.185
 11
-64.5593
 20
-98.1395
 21
-98.4638
  0
LINE
  8
0
 10
-64.5593
 11
-65.0098
 20
-98.4638
 21
-98.6695
  0
LINE
  8
0
 10
-65.0098
 11
-65.5
 20
-98.6695
 21
-98.74
  0
LINE
  8
0
 10
-65.5
 11
-65.9902
 20
-98.74
 21
-98.6695
  0
LINE
  8
0
 10
-65.9902
 11
-66.4407
 20
-98.6695
 21
-98.4638
  0
LINE
  8
0
 10
-66.4407
 11
-66.815
 20
-98.4638
 21
-98.1395
  0
LINE
  8
0
 10
-66.815
 11
-67.0828
 20
-98.1395
 21
-97.7228
  0
LINE
  8
0
 10
-67.0828
 11
-67.2223
 20
-97.7228
 21
-97.2476
  0
LINE
  8
0
 10
-15
 11
15
 20
53.2
 21
53.2
  0
LINE
  8
0
 10
15
 11
15
 20
53.2
 21
63.2
  0
LINE
  8
0
 10
15
 11
-15
 20
63.2
 21
63.2
  0
LINE
  8
0
 10
-15
 11
-15
 20
63.2
 21
53.2
  0
LINE
  8
0
 10
-10
 11
10
 20
-80
 21
-80
  0
LINE
  8
0
 10
10
 11
10
 20
-80
 21
-70
  0
LINE
  8
0
 10
10
 11
-10
 20
-70
 21
-70
  0
LINE
  8
0
 10
-10
 11
-10
 20
-70
 21
-80
  0
LINE
  8
0
 10
57.5
 11
57.5304
 20
-97
 21
-97.6972
  0
LINE
  8
0
 10
57.5304
 11
57.6215
 20
-97.6972
 21
-98.3892
  0
LINE
  8
0
 10
57.6215
 11
57.7726
 20
-98.3892
 21
-99.0706
  0
LINE
  8
0
 10
57.7726
 11
57.9825
 20
-99.0706
 21
-99.7362
  0
LINE
  8
0
 10
57.9825
 11
58.2495
 20
-99.7362
 21
-100.381
  0
LINE
  8
0
 10
58.2495
 11
58.5718
 20
-100.381
 21
-101
  0
LINE
  8
0
 10
58.5718
 11
58.9468
 20
-101
 21
-101.589
  0
LINE
  8
0
 10
58.9468
 11
59.3716
 20
-101.589
 21
-102.142
  0
LINE
  8
0
 10
59.3716
 11
59.8431
 20
-102.142
 21
-102.657
  0
LINE
  8
0
 10
59.8431
 11
60.3577
 20
-102.657
 21
-103.128
  0
LINE
  8
0
 10
60.3577
 11
60.9114
 20
-103.128
 21
-103.553
  0
LINE
  8
0
 10
60.9114
 11
61.5
 20
-103.553
 21
-103.928
  0
LINE
  8
0
 10
61.5
 11
62.1191
 20
-103.928
 21
-104.25
  0
LINE
  8
0
 10
62.1191
 11
62.7638
 20
-104.25
 21
-104.518
  0
LINE
  8
0
 10
62.7638
 11
63.4294
 20
-104.518
 21
-104.727
  0
LINE
  8
0
 10
63.4294
 11
64.1108
 20
-104.727
 21
-104.878
  0
LINE
  8
0
 10
64.1108
 11
64.8028
 20
-104.878
 21
-104.97
  0
LINE
  8
0
 10
64.8028
 11
65.5
 20
-104.97
 21
-105
  0
LINE
  8
0
 10
65.5
 11
105.25
 20
-105
 21
-105
  0
LINE
  8
0
 10
105.25
 11
105.947
 20
-105
 21
-104.97
  0
LINE
  8
0
 10
105.947
 11
106.639
 20
-104.97
 21
-104.878
  0
LINE
  8
0
 10
106.639
 11
107.321
 20
-104.878
 21
-104.727
  0
LINE
  8
0
 10
107.321
 11
107.986
 20
-104.727
 21
-104.518
  0
LINE
  8
0
 10
107.986
 11
108.631
 20
-104.518
 21
-104.25
  0
LINE
  8
0
 10
108.631
 11
109.25
 20
-104.25
 21
-103.928
  0
LINE
  8
0
 10
109.25
 11
109.839
 20
-103.928
 21
-103.553
  0
LINE
  8
0
 10
109.839
 11
110.392
 20
-103.553
 21
-103.128
  0
LINE
  8
0
 10
110.392
 11
110.907
 20
-103.128
 21
-102.657
  0
LINE
  8
0
 10
110.907
 11
111.378
 20
-102.657
 21
-102.142
  0
LINE
  8
0
 10
111.378
 11
111.803
 20
-102.142
 21
-101.589
  0
LINE
  8
0
 10
111.803
 11
112.178
 20
-101.589
 21
-101
  0
LINE
  8
0
 10
112.178
 11
112.5
 20
-101
 21
-100.381
  0
LINE
  8
0
 10
112.5
 11
112.768
 20
-100.381
 21
-99.7362
  0
LINE
  8
0
 10
112.768
 11
112.977
 20
-99.7362
 21
-99.0706
  0
LINE
  8
0
 10
112.977
 11
113.128
 20
-99.0706
 21
-98.3892
  0
LINE
  8
0
 10
113.128
 11
113.22
 20
-98.3892
 21
-97.6972
  0
LINE
  8
0
 10
113.22
 11
113.25
 20
-97.6972
 21
-97
  0
LINE
  8
0
 10
113.25
 11
113.22
 20
-97
 21
-96.3028
  0
LINE
  8
0
 10
113.22
 11
113.128
 20
-96.3028
 21
-95.6108
  0
LINE
  8
0
 10
113.128
 11
112.977
 20
-95.6108
 21
-94.9294
  0
LINE
  8
0
 10
112.977
 11
112.768
 20
-94.9294
 21
-94.2638
  0
LINE
  8
0
 10
112.768
 11
112.5
 20
-94.2638
 21
-93.6191
  0
LINE
  8
0
 10
112.5
 11
112.178
 20
-93.6191
 21
-93
  0
LINE
  8
0
 10
112.178
 11
111.803
 20
-93
 21
-92.4114
  0
LINE
  8
0
 10
111.803
 11
111.378
 20
-92.4114
 21
-91.8577
  0
LINE
  8
0
 10
111.378
 11
110.907
 20
-91.8577
 21
-91.3431
  0
LINE
  8
0
 10
110.907
 11
110.392
 20
-91.3431
 21
-90.8716
  0
LINE
  8
0
 10
110.392
 11
109.839
 20
-90.8716
 21
-90.4468
  0
LINE
  8
0
 10
109.839
 11
89.9636
 20
-90.4468
 21
-76.4468
  0
LINE
  8
0
 10
89.9636
 11
89.375
 20
-76.4468
 21
-76.0718
  0
LINE
  8
0
 10
89.375
 11
88.7559
 20
-76.0718
 21
-75.7495
  0
LINE
  8
0
 10
88.7559
 11
88.1112
 20
-75.7495
 21
-75.4825
  0
LINE
  8
0
 10
88.1112
 11
87.4456
 20
-75.4825
 21
-75.2726
  0
LINE
  8
0
 10
87.4456
 11
86.7642
 20
-75.2726
 21
-75.1215
  0
LINE
  8
0
 10
86.7642
 11
86.0722
 20
-75.1215
 21
-75.0304
  0
LINE
  8
0
 10
86.0722
 11
85.375
 20
-75.0304
 21
-75
  0
LINE
  8
0
 10
85.375
 11
84.6778
 20
-75
 21
-75.0304
  0
LINE
  8
0
 10
84.6778
 11
83.9858
 20
-75.0304
 21
-75.1215
  0
LINE
  8
0
 10
83.9858
 11
83.3044
 20
-75.1215
 21
-75.2726
  0
LINE
  8
0
 10
83.3044
 11
82.6388
 20
-75.2726
 21
-75.4825
  0
LINE
  8
0
 10
82.6388
 11
81.9941
 20
-75.4825
 21
-75.7495
  0
LINE
  8
0
 10
81.9941
 11
81.375
 20
-75.7495
 21
-76.0718
  0
LINE
  8
0
 10
81.375
 11
80.7864
 20
-76.0718
 21
-76.4468
  0
LINE
  8
0
 10
80.7864
 11
60.9114
 20
-76.4468
 21
-90.4468
  0
LINE
  8
0
 10
60.9114
 11
60.3577
 20
-90.4468
 21
-90.8716
  0
LINE
  8
0
 10
60.3577
 11
59.8431
 20
-90.8716
 21
-91.3431
  0
LINE
  8
0
 10
59.8431
 11
59.3716
 20
-91.3431
 21
-91.8577
  0
LINE
  8
0
 10
59.3716
 11
58.9468
 20
-91.8577
 21
-92.4114
  0
LINE
  8
0
 10
58.9468
 11
58.5718
 20
-92.4114
 21
-93
  0
LINE
  8
0
 10
58.5718
 11
58.2495
 20
-93
 21
-93.6191
  0
LINE
  8
0
 10
58.2495
 11
57.9825
 20
-93.6191
 21
-94.2638
  0
LINE
  8
0
 10
57.9825
 11
57.7726
 20
-94.2638
 21
-94.9294
  0
LINE
  8
0
 10
57.7726
 11
57.6215
 20
-94.9294
 21
-95.6108
  0
LINE
  8
0
 10
57.6215
 11
57.5304
 20
-95.6108
 21
-96.3028
  0
LINE
  8
0
 10
57.5304
 11
57.5
 20
-96.3028
 21
-97
  0
LINE
  8
0
 10
63.7777
 11
63.7777
 20
-97.2476
 21
-96.7524
  0
LINE
  8
0
 10
63.7777
 11
63.9172
 20
-96.7524
 21
-96.2772
  0
LINE
  8
0
 10
63.9172
 11
64.185
 20
-96.2772
 21
-95.8605
  0
LINE
  8
0
 10
64.185
 11
64.5593
 20
-95.8605
 21
-95.5362
  0
LINE
  8
0
 10
64.5593
 11
65.0098
 20
-95.5362
 21
-95.3305
  0
LINE
  8
0
 10
65.0098
 11
65.5
 20
-95.3305
 21
-95.26
  0
LINE
  8
0
 10
65.5
 11
65.9902
 20
-95.26
 21
-95.3305
  0
LINE
  8
0
 10
65.9902
 11
66.4407
 20
-95.3305
 21
-95.5362
  0
LINE
  8
0
 10
66.4407
 11
66.815
 20
-95.5362
 21
-95.8605
  0
LINE
  8
0
 10
66.815
 11
67.0828
 20
-95.8605
 21
-96.2772
  0
LINE
  8
0
 10
67.0828
 11
67.2223
 20
-96.2772
 21
-96.7524
  0
LINE
  8
0
 10
67.2223
 11
67.2223
 20
-96.7524
 21
-97.2476
  0
LINE
  8
0
 10
67.2223
 11
67.0828
 20
-97.2476
 21
-97.7228
  0
LINE
  8
0
 10
67.0828
 11
66.815
 20
-97.7228
 21
-98.1395
  0
LINE
  8
0
 10
66.815
 11
66.4407
 20
-98.1395
 21
-98.4638
  0
LINE
  8
0
 10
66.4407
 11
65.9902
 20
-98.4638
 21
-98.6695
  0
LINE
  8
0
 10
65.9902
 11
65.5
 20
-98.6695
 21
-98.74
  0
LINE
  8
0
 10
65.5
 11
65.0098
 20
-98.74
 21
-98.6695
  0
LINE
  8
0
 10
65.0098
 11
64.5593
 20
-98.6695
 21
-98.4638
  0
LINE
  8
0
 10
64.5593
 11
64.185
 20
-98.4638
 21
-98.1395
  0
LINE
  8
0
 10
64.185
 11
63.9172
 20
-98.1395
 21
-97.7228
  0
LINE
  8
0
 10
63.9172
 11
63.7777
 20
-97.7228
 21
-97.2476
  0
LINE
  8
0
 10
83.6527
 11
83.6527
 20
-83.2476
 21
-82.7524
  0
LINE
  8
0
 10
83.6527
 11
83.7922
 20
-82.7524
 21
-82.2772
  0
LINE
  8
0
 10
83.7922
 11
84.06
 20
-82.2772
 21
-81.8605
  0
LINE
  8
0
 10
84.06
 11
84.4343
 20
-81.8605
 21
-81.5362
  0
LINE
  8
0
 10
84.4343
 11
84.8848
 20
-81.5362
 21
-81.3305
  0
LINE
  8
0
 10
84.8848
 11
85.375
 20
-81.3305
 21
-81.26
  0
LINE
  8
0
 10
85.375
 11
85.8652
 20
-81.26
 21
-81.3305
  0
LINE
  8
0
 10
85.8652
 11
86.3157
 20
-81.3305
 21
-81.5362
  0
LINE
  8
0
 10
86.3157
 11
86.69
 20
-81.5362
 21
-81.8605
  0
LINE
  8
0
 10
86.69
 11
86.9578
 20
-81.8605
 21
-82.2772
  0
LINE
  8
0
 10
86.9578
 11
87.0973
 20
-82.2772
 21
-82.7524
  0
LINE
  8
0
 10
87.0973
 11
87.0973
 20
-82.7524
 21
-83.2476
  0
LINE
  8
0
 10
87.0973
 11
86.9578
 20
-83.2476
 21
-83.7228
  0
LINE
  8
0
 10
86.9578
 11
86.69
 20
-83.7228
 21
-84.1395
  0
LINE
  8
0
 10
86.69
 11
86.3157
 20
-84.1395
 21
-84.4638
  0
LINE
  8
0
 10
86.3157
 11
85.8652
 20
-84.4638
 21
-84.6695
  0
LINE
  8
0
 10
85.8652
 11
85.375
 20
-84.6695
 21
-84.74
  0
LINE
  8
0
 10
85.375
 11
84.8848
 20
-84.74
 21
-84.6695
  0
LINE
  8
0
 10
84.8848
 11
84.4343
 20
-84.6695
 21
-84.4638
  0
LINE
  8
0
 10
84.4343
 11
84.06
 20
-84.4638
 21
-84.1395
  0
LINE
  8
0
 10
84.06
 11
83.7922
 20
-84.1395
 21
-83.7228
  0
LINE
  8
0
 10
83.7922
 11
83.6527
 20
-83.7228
 21
-83.2476
  0
LINE
  8
0
 10
103.528
 11
103.528
 20
-97.2476
 21
-96.7524
  0
LINE
  8
0
 10
103.528
 11
103.667
 20
-96.7524
 21
-96.2772
  0
LINE
  8
0
 10
103.667
 11
103.935
 20
-96.2772
 21
-95.8605
  0
LINE
  8
0
 10
103.935
 11
104.309
 20
-95.8605
 21
-95.5362
  0
LINE
  8
0
 10
104.309
 11
104.76
 20
-95.5362
 21
-95.3305
  0
LINE
  8
0
 10
104.76
 11
105.25
 20
-95.3305
 21
-95.26
  0
LINE
  8
0
 10
105.25
 11
105.74
 20
-95.26
 21
-95.3305
  0
LINE
  8
0
 10
105.74
 11
106.191
 20
-95.3305
 21
-95.5362
  0
LINE
  8
0
 10
106.191
 11
106.565
 20
-95.5362
 21
-95.8605
  0
LINE
  8
0
 10
106.565
 11
106.833
 20
-95.8605
 21
-96.2772
  0
LINE
  8
0
 10
106.833
 11
106.972
 20
-96.2772
 21
-96.7524
  0
LINE
  8
0
 10
106.972
 11
106.972
 20
-96.7524
 21
-97.2476
  0
LINE
  8
0
 10
106.972
 11
106.833
 20
-97.2476
 21
-97.7228
  0
LINE
  8
0
 10
106.833
 11
106.565
 20
-97.7228
 21
-98.1395
  0
LINE
  8
0
 10
106.565
 11
106.191
 20
-98.1395
 21
-98.4638
  0
LINE
  8
0
 10
106.191
 11
105.74
 20
-98.4638
 21
-98.6695
  0
LINE
  8
0
 10
105.74
 11
105.25
 20
-98.6695
 21
-98.74
  0
LINE
  8
0
 10
105.25
 11
104.76
 20
-98.74
 21
-98.6695
  0
LINE
  8
0
 10
104.76
 11
104.309
 20
-98.6695
 21
-98.4638
  0
LINE
  8
0
 10
104.309
 11
103.935
 20
-98.4638
 21
-98.1395
  0
LINE
  8
0
 10
103.935
 11
103.667
 20
-98.1395
 21
-97.7228
  0
LINE
  8
0
 10
103.667
 11
103.528
 20
-97.7228
 21
-97.2476
  0
LINE
  8
0
 10
77.625
 11
77.6555
 20
92
 21
91.5731
  0
LINE
  8
0
 10
77.6555
 11
77.7465
 20
91.5731
 21
91.1548
  0
LINE
  8
0
 10
77.7465
 11
77.8961
 20
91.1548
 21
90.7538
  0
LINE
  8
0
 10
77.8961
 11
78.1012
 20
90.7538
 21
90.3781
  0
LINE
  8
0
 10
78.1012
 11
78.3578
 20
90.3781
 21
90.0354
  0
LINE
  8
0
 10
78.3578
 11
78.6604
 20
90.0354
 21
89.7328
  0
LINE
  8
0
 10
78.6604
 11
79.0031
 20
89.7328
 21
89.4762
  0
LINE
  8
0
 10
79.0031
 11
79.3788
 20
89.4762
 21
89.2711
  0
LINE
  8
0
 10
79.3788
 11
79.7798
 20
89.2711
 21
89.1215
  0
LINE
  8
0
 10
79.7798
 11
80.1981
 20
89.1215
 21
89.0305
  0
LINE
  8
0
 10
80.1981
 11
80.625
 20
89.0305
 21
89
  0
LINE
  8
0
 10
80.625
 11
98.49
 20
89
 21
89
  0
LINE
  8
0
 10
98.49
 11
98.49
 20
89
 21
38
  0
LINE
  8
0
 10
98.49
 11
98.5205
 20
38
 21
37.5731
  0
LINE
  8
0
 10
98.5205
 11
98.6115
 20
37.5731
 21
37.1548
  0
LINE
  8
0
 10
98.6115
 11
98.7611
 20
37.1548
 21
36.7538
  0
LINE
  8
0
 10
98.7611
 11
98.9662
 20
36.7538
 21
36.3781
  0
LINE
  8
0
 10
98.9662
 11
99.2228
 20
36.3781
 21
36.0354
  0
LINE
  8
0
 10
99.2228
 11
99.5254
 20
36.0354
 21
35.7328
  0
LINE
  8
0
 10
99.5254
 11
99.8681
 20
35.7328
 21
35.4762
  0
LINE
  8
0
 10
99.8681
 11
100.244
 20
35.4762
 21
35.2711
  0
LINE
  8
0
 10
100.244
 11
100.645
 20
35.2711
 21
35.1215
  0
LINE
  8
0
 10
100.645
 11
101.063
 20
35.1215
 21
35.0305
  0
LINE
  8
0
 10
101.063
 11
101.49
 20
35.0305
 21
35
  0
LINE
  8
0
 10
101.49
 11
132.49
 20
35
 21
35
  0
LINE
  8
0
 10
132.49
 11
132.49
 20
35
 21
134.538
  0
LINE
  8
0
 10
132.49
 11
129.49
 20
134.538
 21
134.538
  0
LINE
  8
0
 10
129.49
 11
129.49
 20
134.538
 21
134.538
  0
LINE
  8
0
 10
129.49
 11
101.49
 20
134.538
 21
134.538
  0
LINE
  8
0
 10
101.49
 11
101.063
 20
134.538
 21
134.507
  0
LINE
  8
0
 10
101.063
 11
100.645
 20
134.507
 21
134.416
  0
LINE
  8
0
 10
100.645
 11
100.244
 20
134.416
 21
134.267
  0
LINE
  8
0
 10
100.244
 11
99.8681
 20
134.267
 21
134.062
  0
LINE
  8
0
 10
99.8681
 11
99.5254
 20
134.062
 21
133.805
  0
LINE
  8
0
 10
99.5254
 11
99.2228
 20
133.805
 21
133.502
  0
LINE
  8
0
 10
99.2228
 11
98.9662
 20
133.502
 21
133.16
  0
LINE
  8
0
 10
98.9662
 11
98.7611
 20
133.16
 21
132.784
  0
LINE
  8
0
 10
98.7611
 11
98.6115
 20
132.784
 21
132.383
  0
LINE
  8
0
 10
98.6115
 11
98.5205
 20
132.383
 21
131.965
  0
LINE
  8
0
 10
98.5205
 11
98.49
 20
131.965
 21
131.538
  0
LINE
  8
0
 10
98.49
 11
98.49
 20
131.538
 21
105
  0
LINE
  8
0
 10
98.49
 11
80.625
 20
105
 21
105
  0
LINE
  8
0
 10
80.625
 11
80.1981
 20
105
 21
104.969
  0
LINE
  8
0
 10
80.1981
 11
79.7798
 20
104.969
 21
104.878
  0
LINE
  8
0
 10
79.7798
 11
79.3788
 20
104.878
 21
104.729
  0
LINE
  8
0
 10
79.3788
 11
79.0031
 20
104.729
 21
104.524
  0
LINE
  8
0
 10
79.0031
 11
78.6604
 20
104.524
 21
104.267
  0
LINE
  8
0
 10
78.6604
 11
78.3578
 20
104.267
 21
103.965
  0
LINE
  8
0
 10
78.3578
 11
78.1012
 20
103.965
 21
103.622
  0
LINE
  8
0
 10
78.1012
 11
77.8961
 20
103.622
 21
103.246
  0
LINE
  8
0
 10
77.8961
 11
77.7465
 20
103.246
 21
102.845
  0
LINE
  8
0
 10
77.7465
 11
77.6555
 20
102.845
 21
102.427
  0
LINE
  8
0
 10
77.6555
 11
77.625
 20
102.427
 21
102
  0
LINE
  8
0
 10
77.625
 11
77.625
 20
102
 21
92
  0
LINE
  8
0
 10
105.778
 11
105.778
 20
43.7524
 21
44.2476
  0
LINE
  8
0
 10
105.778
 11
105.917
 20
44.2476
 21
44.7228
  0
LINE
  8
0
 10
105.917
 11
106.185
 20
44.7228
 21
45.1395
  0
LINE
  8
0
 10
106.185
 11
106.559
 20
45.1395
 21
45.4638
  0
LINE
  8
0
 10
106.559
 11
107.01
 20
45.4638
 21
45.6695
  0
LINE
  8
0
 10
107.01
 11
107.5
 20
45.6695
 21
45.74
  0
LINE
  8
0
 10
107.5
 11
107.99
 20
45.74
 21
45.6695
  0
LINE
  8
0
 10
107.99
 11
108.441
 20
45.6695
 21
45.4638
  0
LINE
  8
0
 10
108.441
 11
108.815
 20
45.4638
 21
45.1395
  0
LINE
  8
0
 10
108.815
 11
109.083
 20
45.1395
 21
44.7228
  0
LINE
  8
0
 10
109.083
 11
109.222
 20
44.7228
 21
44.2476
  0
LINE
  8
0
 10
109.222
 11
109.222
 20
44.2476
 21
43.7524
  0
LINE
  8
0
 10
109.222
 11
109.083
 20
43.7524
 21
43.2772
  0
LINE
  8
0
 10
109.083
 11
108.815
 20
43.2772
 21
42.8605
  0
LINE
  8
0
 10
108.815
 11
108.441
 20
42.8605
 21
42.5362
  0
LINE
  8
0
 10
108.441
 11
107.99
 20
42.5362
 21
42.3305
  0
LINE
  8
0
 10
107.99
 11
107.5
 20
42.3305
 21
42.26
  0
LINE
  8
0
 10
107.5
 11
107.01
 20
42.26
 21
42.3305
  0
LINE
  8
0
 10
107.01
 11
106.559
 20
42.3305
 21
42.5362
  0
LINE
  8
0
 10
106.559
 11
106.185
 20
42.5362
 21
42.8605
  0
LINE
  8
0
 10
106.185
 11
105.917
 20
42.8605
 21
43.2772
  0
LINE
  8
0
 10
105.917
 11
105.778
 20
43.2772
 21
43.7524
  0
LINE
  8
0
 10
105.778
 11
105.778
 20
76.9317
 21
77.4269
  0
LINE
  8
0
 10
105.778
 11
105.917
 20
77.4269
 21
77.9021
  0
LINE
  8
0
 10
105.917
 11
106.185
 20
77.9021
 21
78.3188
  0
LINE
  8
0
 10
106.185
 11
106.559
 20
78.3188
 21
78.6431
  0
LINE
  8
0
 10
106.559
 11
107.01
 20
78.6431
 21
78.8488
  0
LINE
  8
0
 10
107.01
 11
107.5
 20
78.8488
 21
78.9193
  0
LINE
  8
0
 10
107.5
 11
107.99
 20
78.9193
 21
78.8488
  0
LINE
  8
0
 10
107.99
 11
108.441
 20
78.8488
 21
78.6431
  0
LINE
  8
0
 10
108.441
 11
108.815
 20
78.6431
 21
78.3188
  0
LINE
  8
0
 10
108.815
 11
109.083
 20
78.3188
 21
77.9021
  0
LINE
  8
0
 10
109.083
 11
109.222
 20
77.9021
 21
77.4269
  0
LINE
  8
0
 10
109.222
 11
109.222
 20
77.4269
 21
76.9317
  0
LINE
  8
0
 10
109.222
 11
109.083
 20
76.9317
 21
76.4565
  0
LINE
  8
0
 10
109.083
 11
108.815
 20
76.4565
 21
76.0398
  0
LINE
  8
0
 10
108.815
 11
108.441
 20
76.0398
 21
75.7155
  0
LINE
  8
0
 10
108.441
 11
107.99
 20
75.7155
 21
75.5098
  0
LINE
  8
0
 10
107.99
 11
107.5
 20
75.5098
 21
75.4393
  0
LINE
  8
0
 10
107.5
 11
107.01
 20
75.4393
 21
75.5098
  0
LINE
  8
0
 10
107.01
 11
106.559
 20
75.5098
 21
75.7155
  0
LINE
  8
0
 10
106.559
 11
106.185
 20
75.7155
 21
76.0398
  0
LINE
  8
0
 10
106.185
 11
105.917
 20
76.0398
 21
76.4565
  0
LINE
  8
0
 10
105.917
 11
105.778
 20
76.4565
 21
76.9317
  0
LINE
  8
0
 10
105.778
 11
105.778
 20
125.29
 21
125.786
  0
LINE
  8
0
 10
105.778
 11
105.917
 20
125.786
 21
126.261
  0
LINE
  8
0
 10
105.917
 11
106.185
 20
126.261
 21
126.677
  0
LINE
  8
0
 10
106.185
 11
106.559
 20
126.677
 21
127.002
  0
LINE
  8
0
 10
106.559
 11
107.01
 20
127.002
 21
127.207
  0
LINE
  8
0
 10
107.01
 11
107.5
 20
127.207
 21
127.278
  0
LINE
  8
0
 10
107.5
 11
107.99
 20
127.278
 21
127.207
  0
LINE
  8
0
 10
107.99
 11
108.441
 20
127.207
 21
127.002
  0
LINE
  8
0
 10
108.441
 11
108.815
 20
127.002
 21
126.677
  0
LINE
  8
0
 10
108.815
 11
109.083
 20
126.677
 21
126.261
  0
LINE
  8
0
 10
109.083
 11
109.222
 20
126.261
 21
125.786
  0
LINE
  8
0
 10
109.222
 11
109.222
 20
125.786
 21
125.29
  0
LINE
  8
0
 10
109.222
 11
109.083
 20
125.29
 21
124.815
  0
LINE
  8
0
 10
109.083
 11
108.815
 20
124.815
 21
124.398
  0
LINE
  8
0
 10
108.815
 11
108.441
 20
124.398
 21
124.074
  0
LINE
  8
0
 10
108.441
 11
107.99
 20
124.074
 21
123.868
  0
LINE
  8
0
 10
107.99
 11
107.5
 20
123.868
 21
123.798
  0
LINE
  8
0
 10
107.5
 11
107.01
 20
123.798
 21
123.868
  0
LINE
  8
0
 10
107.01
 11
106.559
 20
123.868
 21
124.074
  0
LINE
  8
0
 10
106.559
 11
106.185
 20
124.074
 21
124.398
  0
LINE
  8
0
 10
106.185
 11
105.917
 20
124.398
 21
124.815
  0
LINE
  8
0
 10
105.917
 11
105.778
 20
124.815
 21
125.29
  0
ENDSEC
  0
SECTION
  2
OBJECTS
  0
DICTIONARY
  0
ENDSEC
  0
EOF
