  0
SECTION
  2
HEADER
  9
$ACADVER
  1
AC1014
  9
$HANDSEED
  5
FFFF
  9
$MEASUREMENT
 70
     1
  0
ENDSEC
  0
SECTION
  2
TABLES
  0
TABLE
  2
VPORT
  5
8
330
0
100
AcDbSymbolTable
 70
     4
  0
VPORT
  5
2E
330
8
100
AcDbSymbolTableRecord
100
AcDbViewportTableRecord
  2
*ACTIVE
 70
     0
 10
0.0
 20
0.0
 11
1.0
 21
1.0
 12
210.0
 22
148.5
 13
0.0
 23
0.0
 14
10.0
 24
10.0
 15
10.0
 25
10.0
 16
0.0
 26
0.0
 36
1.0
 17
0.0
 27
0.0
 37
0.0
 40
341.0
 41
1.24
 42
50.0
 43
0.0
 44
0.0
 50
0.0
 51
0.0
 71
     0
 72
   100
 73
     1
 74
     3
 75
     0
 76
     0
 77
     0
 78
     0
  0
ENDTAB
  0
TABLE
  2
LTYPE
  5
5
330
0
100
AcDbSymbolTable
 70
     1
  0
LTYPE
  5
14
330
5
100
AcDbSymbolTableRecord
100
AcDbLinetypeTableRecord
  2
BYBLOCK
 70
     0
  3

 72
    65
 73
     0
 40
0.0
  0
LTYPE
  5
15
330
5
100
AcDbSymbolTableRecord
100
AcDbLinetypeTableRecord
  2
BYLAYER
 70
     0
  3

 72
    65
 73
     0
 40
0.0
  0
LTYPE
  5
16
330
5
100
AcDbSymbolTableRecord
100
AcDbLinetypeTableRecord
  2
CONTINUOUS
 70
     0
  3
Solid line
 72
    65
 73
     0
 40
0.0
  0
ENDTAB
  0
TABLE
  2
LAYER
  5
2
100
AcDbSymbolTable
 70
1
  0
LAYER
  5
50
100
AcDbSymbolTableRecord
100
AcDbLayerTableRecord
  2
0
 70
0
  6
CONTINUOUS
  0
ENDTAB
  0
TABLE
  2
STYLE
  5
3
330
0
100
AcDbSymbolTable
 70
     1
  0
STYLE
  5
11
330
3
100
AcDbSymbolTableRecord
100
AcDbTextStyleTableRecord
  2
STANDARD
 70
     0
 40
0.0
 41
1.0
 50
0.0
 71
     0
 42
2.5
  3
txt
  4

  0
ENDTAB
  0
TABLE
  2
VIEW
  5
6
330
0
100
AcDbSymbolTable
 70
     0
  0
ENDTAB
  0
TABLE
  2
UCS
  5
7
330
0
100
AcDbSymbolTable
 70
     0
  0
ENDTAB
  0
TABLE
  2
APPID
  5
9
330
0
100
AcDbSymbolTable
 70
     2
  0
APPID
  5
12
330
9
100
AcDbSymbolTableRecord
100
AcDbRegAppTableRecord
  2
ACAD
 70
     0
  0
ENDTAB
  0
TABLE
  2
DIMSTYLE
  5
A
330
0
100
AcDbSymbolTable
 70
     1
  0
DIMSTYLE
105
27
330
A
100
AcDbSymbolTableRecord
100
AcDbDimStyleTableRecord
  2
ISO-25
 70
     0
  3

  4

  5

  6

  7

 40
1.0
 41
2.5
 42
0.625
 43
3.75
 44
1.25
 45
0.0
 46
0.0
 47
0.0
 48
0.0
140
2.5
141
2.5
142
0.0
143
0.03937007874016
144
1.0
145
0.0
146
1.0
147
0.625
 71
     0
 72
     0
 73
     0
 74
     0
 75
     0
 76
     0
 77
     1
 78
     8
170
     0
171
     3
172
     1
173
     0
174
     0
175
     0
176
     0
177
     0
178
     0
270
     2
271
     2
272
     2
273
     2
274
     3
340
11
275
     0
280
     0
281
     0
282
     0
283
     0
284
     8
285
     0
286
     0
287
     3
288
     0
  0
ENDTAB
  0
TABLE
  2
BLOCK_RECORD
  5
1
330
0
100
AcDbSymbolTable
 70
     1
  0
BLOCK_RECORD
  5
1F
330
1
100
AcDbSymbolTableRecord
100
AcDbBlockTableRecord
  2
*MODEL_SPACE
  0
BLOCK_RECORD
  5
1B
330
1
100
AcDbSymbolTableRecord
100
AcDbBlockTableRecord
  2
*PAPER_SPACE
  0
ENDTAB
  0
ENDSEC
  0
SECTION
  2
BLOCKS
  0
BLOCK
  5
20
330
1F
100
AcDbEntity
  8
0
100
AcDbBlockBegin
  2
*MODEL_SPACE
 70
     0
 10
0.0
 20
0.0
 30
0.0
  3
*MODEL_SPACE
  1

  0
ENDBLK
  5
21
330
1F
100
AcDbEntity
  8
0
100
AcDbBlockEnd
  0
BLOCK
  5
1C
330
1B
100
AcDbEntity
 67
     1
  8
0
100
AcDbBlockBegin
  2
*PAPER_SPACE
  1

  0
ENDBLK
  5
1D
330
1B
100
AcDbEntity
 67
     1
  8
0
100
AcDbBlockEnd
  0
ENDSEC
  0
SECTION
  2
ENTITIES
  0
LWPOLYLINE
  5
100
100
AcDbEntity
  8
0
 62
7
100
AcDbPolyline
 90
9
 70
0
 10
-47.400001
 20
37.689992
 30
0.0
 10
-27.400002
 20
17.690003
 30
0.0
 10
237.399999
 20
17.690003
 30
0.0
 10
257.399999
 20
37.689992
 30
0.0
 10
257.399999
 20
259.310001
 30
0.0
 10
237.399999
 20
279.310001
 30
0.0
 10
-27.400002
 20
279.310001
 30
0.0
 10
-47.400001
 20
259.310001
 30
0.0
 10
-47.400001
 20
37.689992
 30
0.0
  0
LWPOLYLINE
  5
101
100
AcDbEntity
  8
0
 62
7
100
AcDbPolyline
 90
25
 70
0
 10
-1.840001
 20
172.730997
 30
0.0
 10
-1.777001
 20
173.207196
 30
0.0
 10
-1.593001
 20
173.650996
 30
0.0
 10
-1.301002
 20
174.032095
 30
0.0
 10
-0.920002
 20
174.324497
 30
0.0
 10
-0.476002
 20
174.508297
 30
0.0
 10
0.000000
 20
174.570995
 30
0.0
 10
0.475999
 20
174.508297
 30
0.0
 10
0.919999
 20
174.324497
 30
0.0
 10
1.300999
 20
174.032095
 30
0.0
 10
1.592998
 20
173.650996
 30
0.0
 10
1.776998
 20
173.207196
 30
0.0
 10
1.839999
 20
172.730997
 30
0.0
 10
1.776998
 20
172.254795
 30
0.0
 10
1.592998
 20
171.810995
 30
0.0
 10
1.300999
 20
171.429896
 30
0.0
 10
0.919999
 20
171.137497
 30
0.0
 10
0.475999
 20
170.953697
 30
0.0
 10
0.000000
 20
170.890995
 30
0.0
 10
-0.476002
 20
170.953697
 30
0.0
 10
-0.920002
 20
171.137497
 30
0.0
 10
-1.301002
 20
171.429896
 30
0.0
 10
-1.593001
 20
171.810995
 30
0.0
 10
-1.777001
 20
172.254795
 30
0.0
 10
-1.840001
 20
172.730997
 30
0.0
  0
LWPOLYLINE
  5
102
100
AcDbEntity
  8
0
 62
7
100
AcDbPolyline
 90
25
 70
0
 10
-1.840001
 20
222.499895
 30
0.0
 10
-1.777001
 20
222.976196
 30
0.0
 10
-1.593001
 20
223.419897
 30
0.0
 10
-1.301002
 20
223.800996
 30
0.0
 10
-0.920002
 20
224.093395
 30
0.0
 10
-0.476002
 20
224.277195
 30
0.0
 10
0.000000
 20
224.339896
 30
0.0
 10
0.475999
 20
224.277195
 30
0.0
 10
0.919999
 20
224.093395
 30
0.0
 10
1.300999
 20
223.800996
 30
0.0
 10
1.592998
 20
223.419897
 30
0.0
 10
1.776998
 20
222.976196
 30
0.0
 10
1.839999
 20
222.499895
 30
0.0
 10
1.776998
 20
222.023696
 30
0.0
 10
1.592998
 20
221.579896
 30
0.0
 10
1.300999
 20
221.198896
 30
0.0
 10
0.919999
 20
220.906497
 30
0.0
 10
0.475999
 20
220.722595
 30
0.0
 10
0.000000
 20
220.659896
 30
0.0
 10
-0.476002
 20
220.722595
 30
0.0
 10
-0.920002
 20
220.906497
 30
0.0
 10
-1.301002
 20
221.198896
 30
0.0
 10
-1.593001
 20
221.579896
 30
0.0
 10
-1.777001
 20
222.023696
 30
0.0
 10
-1.840001
 20
222.499895
 30
0.0
  0
LWPOLYLINE
  5
103
100
AcDbEntity
  8
0
 62
7
100
AcDbPolyline
 90
25
 70
0
 10
-1.840001
 20
254.268996
 30
0.0
 10
-1.777001
 20
254.744995
 30
0.0
 10
-1.593001
 20
255.188995
 30
0.0
 10
-1.301002
 20
255.569995
 30
0.0
 10
-0.920002
 20
255.861996
 30
0.0
 10
-0.476002
 20
256.045997
 30
0.0
 10
0.000000
 20
256.108994
 30
0.0
 10
0.475999
 20
256.045997
 30
0.0
 10
0.919999
 20
255.861996
 30
0.0
 10
1.300999
 20
255.569995
 30
0.0
 10
1.592998
 20
255.188995
 30
0.0
 10
1.776998
 20
254.744995
 30
0.0
 10
1.839999
 20
254.268996
 30
0.0
 10
1.776998
 20
253.792997
 30
0.0
 10
1.592998
 20
253.348997
 30
0.0
 10
1.300999
 20
252.967997
 30
0.0
 10
0.919999
 20
252.674996
 30
0.0
 10
0.475999
 20
252.491995
 30
0.0
 10
0.000000
 20
252.428994
 30
0.0
 10
-0.476002
 20
252.491995
 30
0.0
 10
-0.920002
 20
252.674996
 30
0.0
 10
-1.301002
 20
252.967997
 30
0.0
 10
-1.593001
 20
253.348997
 30
0.0
 10
-1.777001
 20
253.792997
 30
0.0
 10
-1.840001
 20
254.268996
 30
0.0
  0
LWPOLYLINE
  5
104
100
AcDbEntity
  8
0
 62
7
100
AcDbPolyline
 90
25
 70
0
 10
5.410000
 20
39.230984
 30
0.0
 10
5.472698
 20
39.707206
 30
0.0
 10
5.656498
 20
40.151001
 30
0.0
 10
5.948900
 20
40.532085
 30
0.0
 10
6.329999
 20
40.824496
 30
0.0
 10
6.773799
 20
41.008307
 30
0.0
 10
7.249998
 20
41.070989
 30
0.0
 10
7.726197
 20
41.008307
 30
0.0
 10
8.169997
 20
40.824496
 30
0.0
 10
8.551099
 20
40.532085
 30
0.0
 10
8.843498
 20
40.151001
 30
0.0
 10
9.027298
 20
39.707206
 30
0.0
 10
9.090000
 20
39.230984
 30
0.0
 10
9.027298
 20
38.754791
 30
0.0
 10
8.843498
 20
38.310996
 30
0.0
 10
8.551099
 20
37.929996
 30
0.0
 10
8.169997
 20
37.638009
 30
0.0
 10
7.726197
 20
37.454000
 30
0.0
 10
7.249998
 20
37.391008
 30
0.0
 10
6.773799
 20
37.454000
 30
0.0
 10
6.329999
 20
37.638009
 30
0.0
 10
5.948900
 20
37.929996
 30
0.0
 10
5.656498
 20
38.310996
 30
0.0
 10
5.472698
 20
38.754791
 30
0.0
 10
5.410000
 20
39.230984
 30
0.0
  0
LWPOLYLINE
  5
105
100
AcDbEntity
  8
0
 62
7
100
AcDbPolyline
 90
25
 70
0
 10
25.285000
 20
50.731004
 30
0.0
 10
25.347699
 20
51.207197
 30
0.0
 10
25.531499
 20
51.650992
 30
0.0
 10
25.823898
 20
52.032105
 30
0.0
 10
26.204999
 20
52.324487
 30
0.0
 10
26.648799
 20
52.508298
 30
0.0
 10
27.124999
 20
52.571008
 30
0.0
 10
27.601198
 20
52.508298
 30
0.0
 10
28.044998
 20
52.324487
 30
0.0
 10
28.426100
 20
52.032105
 30
0.0
 10
28.718499
 20
51.650992
 30
0.0
 10
28.902299
 20
51.207197
 30
0.0
 10
28.965000
 20
50.731004
 30
0.0
 10
28.902299
 20
50.254782
 30
0.0
 10
28.718499
 20
49.810987
 30
0.0
 10
28.426100
 20
49.429903
 30
0.0
 10
28.044998
 20
49.137492
 30
0.0
 10
27.601198
 20
48.953709
 30
0.0
 10
27.124999
 20
48.890999
 30
0.0
 10
26.648799
 20
48.953709
 30
0.0
 10
26.204999
 20
49.137492
 30
0.0
 10
25.823898
 20
49.429903
 30
0.0
 10
25.531499
 20
49.810987
 30
0.0
 10
25.347699
 20
50.254782
 30
0.0
 10
25.285000
 20
50.731004
 30
0.0
  0
LWPOLYLINE
  5
106
100
AcDbEntity
  8
0
 62
7
100
AcDbPolyline
 90
25
 70
0
 10
45.159998
 20
39.230984
 30
0.0
 10
45.222699
 20
39.707206
 30
0.0
 10
45.406499
 20
40.151001
 30
0.0
 10
45.698898
 20
40.532085
 30
0.0
 10
46.080000
 20
40.824496
 30
0.0
 10
46.523800
 20
41.008307
 30
0.0
 10
46.999999
 20
41.070989
 30
0.0
 10
47.476198
 20
41.008307
 30
0.0
 10
47.919998
 20
40.824496
 30
0.0
 10
48.301100
 20
40.532085
 30
0.0
 10
48.593499
 20
40.151001
 30
0.0
 10
48.777299
 20
39.707206
 30
0.0
 10
48.839998
 20
39.230984
 30
0.0
 10
48.777299
 20
38.754791
 30
0.0
 10
48.593499
 20
38.310996
 30
0.0
 10
48.301100
 20
37.929996
 30
0.0
 10
47.919998
 20
37.638009
 30
0.0
 10
47.476198
 20
37.454000
 30
0.0
 10
46.999999
 20
37.391008
 30
0.0
 10
46.523800
 20
37.454000
 30
0.0
 10
46.080000
 20
37.638009
 30
0.0
 10
45.698898
 20
37.929996
 30
0.0
 10
45.406499
 20
38.310996
 30
0.0
 10
45.222699
 20
38.754791
 30
0.0
 10
45.159998
 20
39.230984
 30
0.0
  0
LWPOLYLINE
  5
107
100
AcDbEntity
  8
0
 62
7
100
AcDbPolyline
 90
25
 70
0
 10
34.200798
 20
66.830991
 30
0.0
 10
34.263499
 20
67.307185
 30
0.0
 10
34.447299
 20
67.751007
 30
0.0
 10
34.739699
 20
68.132092
 30
0.0
 10
35.120800
 20
68.424503
 30
0.0
 10
35.564600
 20
68.608286
 30
0.0
 10
36.040799
 20
68.670995
 30
0.0
 10
36.516999
 20
68.608286
 30
0.0
 10
36.960799
 20
68.424503
 30
0.0
 10
37.341900
 20
68.132092
 30
0.0
 10
37.634299
 20
67.751007
 30
0.0
 10
37.818100
 20
67.307185
 30
0.0
 10
37.880798
 20
66.830991
 30
0.0
 10
37.818100
 20
66.354798
 30
0.0
 10
37.634299
 20
65.911003
 30
0.0
 10
37.341900
 20
65.529890
 30
0.0
 10
36.960799
 20
65.237508
 30
0.0
 10
36.516999
 20
65.053697
 30
0.0
 10
36.040799
 20
64.990987
 30
0.0
 10
35.564600
 20
65.053697
 30
0.0
 10
35.120800
 20
65.237508
 30
0.0
 10
34.739699
 20
65.529890
 30
0.0
 10
34.447299
 20
65.911003
 30
0.0
 10
34.263499
 20
66.354798
 30
0.0
 10
34.200798
 20
66.830991
 30
0.0
  0
LWPOLYLINE
  5
108
100
AcDbEntity
  8
0
 62
7
100
AcDbPolyline
 90
25
 70
0
 10
114.159998
 20
83.331001
 30
0.0
 10
114.222699
 20
83.807194
 30
0.0
 10
114.406508
 20
84.250989
 30
0.0
 10
114.698918
 20
84.632101
 30
0.0
 10
115.079997
 20
84.924484
 30
0.0
 10
115.523797
 20
85.108295
 30
0.0
 10
115.999999
 20
85.171005
 30
0.0
 10
116.476199
 20
85.108295
 30
0.0
 10
116.919999
 20
84.924484
 30
0.0
 10
117.301097
 20
84.632101
 30
0.0
 10
117.593499
 20
84.250989
 30
0.0
 10
117.777300
 20
83.807194
 30
0.0
 10
117.839998
 20
83.331001
 30
0.0
 10
117.777300
 20
82.854807
 30
0.0
 10
117.593499
 20
82.410984
 30
0.0
 10
117.301097
 20
82.029900
 30
0.0
 10
116.919999
 20
81.737489
 30
0.0
 10
116.476199
 20
81.553706
 30
0.0
 10
115.999999
 20
81.490996
 30
0.0
 10
115.523797
 20
81.553706
 30
0.0
 10
115.079997
 20
81.737489
 30
0.0
 10
114.698918
 20
82.029900
 30
0.0
 10
114.406508
 20
82.410984
 30
0.0
 10
114.222699
 20
82.854807
 30
0.0
 10
114.159998
 20
83.331001
 30
0.0
  0
LWPOLYLINE
  5
109
100
AcDbEntity
  8
0
 62
7
100
AcDbPolyline
 90
25
 70
0
 10
125.659998
 20
66.830991
 30
0.0
 10
125.722699
 20
67.307185
 30
0.0
 10
125.906499
 20
67.751007
 30
0.0
 10
126.198898
 20
68.132092
 30
0.0
 10
126.580000
 20
68.424503
 30
0.0
 10
127.023800
 20
68.608286
 30
0.0
 10
127.499999
 20
68.670995
 30
0.0
 10
127.976198
 20
68.608286
 30
0.0
 10
128.419998
 20
68.424503
 30
0.0
 10
128.801100
 20
68.132092
 30
0.0
 10
129.093499
 20
67.751007
 30
0.0
 10
129.277299
 20
67.307185
 30
0.0
 10
129.339998
 20
66.830991
 30
0.0
 10
129.277299
 20
66.354798
 30
0.0
 10
129.093499
 20
65.911003
 30
0.0
 10
128.801100
 20
65.529890
 30
0.0
 10
128.419998
 20
65.237508
 30
0.0
 10
127.976198
 20
65.053697
 30
0.0
 10
127.499999
 20
64.990987
 30
0.0
 10
127.023800
 20
65.053697
 30
0.0
 10
126.580000
 20
65.237508
 30
0.0
 10
126.198898
 20
65.529890
 30
0.0
 10
125.906499
 20
65.911003
 30
0.0
 10
125.722699
 20
66.354798
 30
0.0
 10
125.659998
 20
66.830991
 30
0.0
  0
LWPOLYLINE
  5
10a
100
AcDbEntity
  8
0
 62
7
100
AcDbPolyline
 90
25
 70
0
 10
80.660000
 20
215.630996
 30
0.0
 10
80.722699
 20
216.107195
 30
0.0
 10
80.906499
 20
216.550995
 30
0.0
 10
81.198898
 20
216.932096
 30
0.0
 10
81.579999
 20
217.224496
 30
0.0
 10
82.023799
 20
217.408296
 30
0.0
 10
82.499999
 20
217.470994
 30
0.0
 10
82.976198
 20
217.408296
 30
0.0
 10
83.419998
 20
217.224496
 30
0.0
 10
83.801100
 20
216.932096
 30
0.0
 10
84.093499
 20
216.550995
 30
0.0
 10
84.277299
 20
216.107195
 30
0.0
 10
84.340000
 20
215.630996
 30
0.0
 10
84.277299
 20
215.154796
 30
0.0
 10
84.093499
 20
214.710996
 30
0.0
 10
83.801100
 20
214.329895
 30
0.0
 10
83.419998
 20
214.037496
 30
0.0
 10
82.976198
 20
213.853695
 30
0.0
 10
82.499999
 20
213.790997
 30
0.0
 10
82.023799
 20
213.853695
 30
0.0
 10
81.579999
 20
214.037496
 30
0.0
 10
81.198898
 20
214.329895
 30
0.0
 10
80.906499
 20
214.710996
 30
0.0
 10
80.722699
 20
215.154796
 30
0.0
 10
80.660000
 20
215.630996
 30
0.0
  0
LWPOLYLINE
  5
10b
100
AcDbEntity
  8
0
 62
7
100
AcDbPolyline
 90
25
 70
0
 10
103.159997
 20
232.130996
 30
0.0
 10
103.222699
 20
232.607196
 30
0.0
 10
103.406510
 20
233.050996
 30
0.0
 10
103.698918
 20
233.432095
 30
0.0
 10
104.080000
 20
233.724496
 30
0.0
 10
104.523771
 20
233.908297
 30
0.0
 10
104.999999
 20
233.970995
 30
0.0
 10
105.476226
 20
233.908297
 30
0.0
 10
105.919998
 20
233.724496
 30
0.0
 10
106.301080
 20
233.432095
 30
0.0
 10
106.593488
 20
233.050996
 30
0.0
 10
106.777299
 20
232.607196
 30
0.0
 10
106.839997
 20
232.130996
 30
0.0
 10
106.777299
 20
231.654794
 30
0.0
 10
106.593488
 20
231.210997
 30
0.0
 10
106.301080
 20
230.829896
 30
0.0
 10
105.919998
 20
230.537496
 30
0.0
 10
105.476226
 20
230.353696
 30
0.0
 10
104.999999
 20
230.290995
 30
0.0
 10
104.523771
 20
230.353696
 30
0.0
 10
104.080000
 20
230.537496
 30
0.0
 10
103.698918
 20
230.829896
 30
0.0
 10
103.406510
 20
231.210997
 30
0.0
 10
103.222699
 20
231.654794
 30
0.0
 10
103.159997
 20
232.130996
 30
0.0
  0
LWPOLYLINE
  5
10c
100
AcDbEntity
  8
0
 62
7
100
AcDbPolyline
 90
25
 70
0
 10
125.659998
 20
215.630996
 30
0.0
 10
125.722699
 20
216.107195
 30
0.0
 10
125.906499
 20
216.550995
 30
0.0
 10
126.198898
 20
216.932096
 30
0.0
 10
126.580000
 20
217.224496
 30
0.0
 10
127.023800
 20
217.408296
 30
0.0
 10
127.499999
 20
217.470994
 30
0.0
 10
127.976198
 20
217.408296
 30
0.0
 10
128.419998
 20
217.224496
 30
0.0
 10
128.801100
 20
216.932096
 30
0.0
 10
129.093499
 20
216.550995
 30
0.0
 10
129.277299
 20
216.107195
 30
0.0
 10
129.339998
 20
215.630996
 30
0.0
 10
129.277299
 20
215.154796
 30
0.0
 10
129.093499
 20
214.710996
 30
0.0
 10
128.801100
 20
214.329895
 30
0.0
 10
128.419998
 20
214.037496
 30
0.0
 10
127.976198
 20
213.853695
 30
0.0
 10
127.499999
 20
213.790997
 30
0.0
 10
127.023800
 20
213.853695
 30
0.0
 10
126.580000
 20
214.037496
 30
0.0
 10
126.198898
 20
214.329895
 30
0.0
 10
125.906499
 20
214.710996
 30
0.0
 10
125.722699
 20
215.154796
 30
0.0
 10
125.659998
 20
215.630996
 30
0.0
  0
LWPOLYLINE
  5
10d
100
AcDbEntity
  8
0
 62
7
100
AcDbPolyline
 90
25
 70
0
 10
161.160000
 20
39.230984
 30
0.0
 10
161.222698
 20
39.707206
 30
0.0
 10
161.406499
 20
40.151001
 30
0.0
 10
161.698898
 20
40.532085
 30
0.0
 10
162.079999
 20
40.824496
 30
0.0
 10
162.523799
 20
41.008307
 30
0.0
 10
162.999999
 20
41.070989
 30
0.0
 10
163.476198
 20
41.008307
 30
0.0
 10
163.919998
 20
40.824496
 30
0.0
 10
164.301099
 20
40.532085
 30
0.0
 10
164.593499
 20
40.151001
 30
0.0
 10
164.777299
 20
39.707206
 30
0.0
 10
164.840000
 20
39.230984
 30
0.0
 10
164.777299
 20
38.754791
 30
0.0
 10
164.593499
 20
38.310996
 30
0.0
 10
164.301099
 20
37.929996
 30
0.0
 10
163.919998
 20
37.638009
 30
0.0
 10
163.476198
 20
37.454000
 30
0.0
 10
162.999999
 20
37.391008
 30
0.0
 10
162.523799
 20
37.454000
 30
0.0
 10
162.079999
 20
37.638009
 30
0.0
 10
161.698898
 20
37.929996
 30
0.0
 10
161.406499
 20
38.310996
 30
0.0
 10
161.222698
 20
38.754791
 30
0.0
 10
161.160000
 20
39.230984
 30
0.0
  0
LWPOLYLINE
  5
10e
100
AcDbEntity
  8
0
 62
7
100
AcDbPolyline
 90
25
 70
0
 10
181.034998
 20
50.731004
 30
0.0
 10
181.097699
 20
51.207197
 30
0.0
 10
181.281499
 20
51.650992
 30
0.0
 10
181.573898
 20
52.032105
 30
0.0
 10
181.955000
 20
52.324487
 30
0.0
 10
182.398800
 20
52.508298
 30
0.0
 10
182.874999
 20
52.571008
 30
0.0
 10
183.351198
 20
52.508298
 30
0.0
 10
183.794998
 20
52.324487
 30
0.0
 10
184.176100
 20
52.032105
 30
0.0
 10
184.468499
 20
51.650992
 30
0.0
 10
184.652299
 20
51.207197
 30
0.0
 10
184.714998
 20
50.731004
 30
0.0
 10
184.652299
 20
50.254782
 30
0.0
 10
184.468499
 20
49.810987
 30
0.0
 10
184.176100
 20
49.429903
 30
0.0
 10
183.794998
 20
49.137492
 30
0.0
 10
183.351198
 20
48.953709
 30
0.0
 10
182.874999
 20
48.890999
 30
0.0
 10
182.398800
 20
48.953709
 30
0.0
 10
181.955000
 20
49.137492
 30
0.0
 10
181.573898
 20
49.429903
 30
0.0
 10
181.281499
 20
49.810987
 30
0.0
 10
181.097699
 20
50.254782
 30
0.0
 10
181.034998
 20
50.731004
 30
0.0
  0
LWPOLYLINE
  5
10f
100
AcDbEntity
  8
0
 62
7
100
AcDbPolyline
 90
25
 70
0
 10
200.909998
 20
39.230984
 30
0.0
 10
200.972699
 20
39.707206
 30
0.0
 10
201.156499
 20
40.151001
 30
0.0
 10
201.448899
 20
40.532085
 30
0.0
 10
201.830000
 20
40.824496
 30
0.0
 10
202.273800
 20
41.008307
 30
0.0
 10
202.749999
 20
41.070989
 30
0.0
 10
203.226199
 20
41.008307
 30
0.0
 10
203.669999
 20
40.824496
 30
0.0
 10
204.051098
 20
40.532085
 30
0.0
 10
204.343500
 20
40.151001
 30
0.0
 10
204.527300
 20
39.707206
 30
0.0
 10
204.589998
 20
39.230984
 30
0.0
 10
204.527300
 20
38.754791
 30
0.0
 10
204.343500
 20
38.310996
 30
0.0
 10
204.051098
 20
37.929996
 30
0.0
 10
203.669999
 20
37.638009
 30
0.0
 10
203.226199
 20
37.454000
 30
0.0
 10
202.749999
 20
37.391008
 30
0.0
 10
202.273800
 20
37.454000
 30
0.0
 10
201.830000
 20
37.638009
 30
0.0
 10
201.448899
 20
37.929996
 30
0.0
 10
201.156499
 20
38.310996
 30
0.0
 10
200.972699
 20
38.754791
 30
0.0
 10
200.909998
 20
39.230984
 30
0.0
  0
LWPOLYLINE
  5
110
100
AcDbEntity
  8
0
 62
7
100
AcDbPolyline
 90
25
 70
0
 10
208.159999
 20
172.730997
 30
0.0
 10
208.223000
 20
173.207196
 30
0.0
 10
208.407000
 20
173.650996
 30
0.0
 10
208.698998
 20
174.032095
 30
0.0
 10
209.079998
 20
174.324497
 30
0.0
 10
209.523999
 20
174.508297
 30
0.0
 10
209.999998
 20
174.570995
 30
0.0
 10
210.475999
 20
174.508297
 30
0.0
 10
210.920000
 20
174.324497
 30
0.0
 10
211.301000
 20
174.032095
 30
0.0
 10
211.592998
 20
173.650996
 30
0.0
 10
211.776999
 20
173.207196
 30
0.0
 10
211.839999
 20
172.730997
 30
0.0
 10
211.776999
 20
172.254795
 30
0.0
 10
211.592998
 20
171.810995
 30
0.0
 10
211.301000
 20
171.429896
 30
0.0
 10
210.920000
 20
171.137497
 30
0.0
 10
210.475999
 20
170.953697
 30
0.0
 10
209.999998
 20
170.890995
 30
0.0
 10
209.523999
 20
170.953697
 30
0.0
 10
209.079998
 20
171.137497
 30
0.0
 10
208.698998
 20
171.429896
 30
0.0
 10
208.407000
 20
171.810995
 30
0.0
 10
208.223000
 20
172.254795
 30
0.0
 10
208.159999
 20
172.730997
 30
0.0
  0
LWPOLYLINE
  5
111
100
AcDbEntity
  8
0
 62
7
100
AcDbPolyline
 90
25
 70
0
 10
208.159999
 20
222.499895
 30
0.0
 10
208.223000
 20
222.976196
 30
0.0
 10
208.407000
 20
223.419897
 30
0.0
 10
208.698998
 20
223.800996
 30
0.0
 10
209.079998
 20
224.093395
 30
0.0
 10
209.523999
 20
224.277195
 30
0.0
 10
209.999998
 20
224.339896
 30
0.0
 10
210.475999
 20
224.277195
 30
0.0
 10
210.920000
 20
224.093395
 30
0.0
 10
211.301000
 20
223.800996
 30
0.0
 10
211.592998
 20
223.419897
 30
0.0
 10
211.776999
 20
222.976196
 30
0.0
 10
211.839999
 20
222.499895
 30
0.0
 10
211.776999
 20
222.023696
 30
0.0
 10
211.592998
 20
221.579896
 30
0.0
 10
211.301000
 20
221.198896
 30
0.0
 10
210.920000
 20
220.906497
 30
0.0
 10
210.475999
 20
220.722595
 30
0.0
 10
209.999998
 20
220.659896
 30
0.0
 10
209.523999
 20
220.722595
 30
0.0
 10
209.079998
 20
220.906497
 30
0.0
 10
208.698998
 20
221.198896
 30
0.0
 10
208.407000
 20
221.579896
 30
0.0
 10
208.223000
 20
222.023696
 30
0.0
 10
208.159999
 20
222.499895
 30
0.0
  0
LWPOLYLINE
  5
112
100
AcDbEntity
  8
0
 62
7
100
AcDbPolyline
 90
25
 70
0
 10
208.159999
 20
254.268996
 30
0.0
 10
208.223000
 20
254.744995
 30
0.0
 10
208.407000
 20
255.188995
 30
0.0
 10
208.698998
 20
255.569995
 30
0.0
 10
209.079998
 20
255.861996
 30
0.0
 10
209.523999
 20
256.045997
 30
0.0
 10
209.999998
 20
256.108994
 30
0.0
 10
210.475999
 20
256.045997
 30
0.0
 10
210.920000
 20
255.861996
 30
0.0
 10
211.301000
 20
255.569995
 30
0.0
 10
211.592998
 20
255.188995
 30
0.0
 10
211.776999
 20
254.744995
 30
0.0
 10
211.839999
 20
254.268996
 30
0.0
 10
211.776999
 20
253.792997
 30
0.0
 10
211.592998
 20
253.348997
 30
0.0
 10
211.301000
 20
252.967997
 30
0.0
 10
210.920000
 20
252.674996
 30
0.0
 10
210.475999
 20
252.491995
 30
0.0
 10
209.999998
 20
252.428994
 30
0.0
 10
209.523999
 20
252.491995
 30
0.0
 10
209.079998
 20
252.674996
 30
0.0
 10
208.698998
 20
252.967997
 30
0.0
 10
208.407000
 20
253.348997
 30
0.0
 10
208.223000
 20
253.792997
 30
0.0
 10
208.159999
 20
254.268996
 30
0.0
  0
ENDSEC
  0
SECTION
  2
OBJECTS
  0
DICTIONARY
  5
C
330
0
100
AcDbDictionary
  3
ACAD_GROUP
350
D
  3
ACAD_MLINESTYLE
350
17
  0
DICTIONARY
  5
D
330
C
100
AcDbDictionary
  0
DICTIONARY
  5
1A
330
C
100
AcDbDictionary
  0
DICTIONARY
  5
17
330
C
100
AcDbDictionary
  3
STANDARD
350
18
  0
DICTIONARY
  5
19
330
C
100
AcDbDictionary
  0
ENDSEC
  0
EOF
