  0
SECTION
  2
HEADER
  9
$ACADVER
  1
AC1014
  9
$HANDSEED
  5
FFFF
  9
$MEASUREMENT
 70
     1
  0
ENDSEC
  0
SECTION
  2
TABLES
  0
TABLE
  2
VPORT
  5
8
330
0
100
AcDbSymbolTable
 70
     4
  0
VPORT
  5
2E
330
8
100
AcDbSymbolTableRecord
100
AcDbViewportTableRecord
  2
*ACTIVE
 70
     0
 10
0.0
 20
0.0
 11
1.0
 21
1.0
 12
210.0
 22
148.5
 13
0.0
 23
0.0
 14
10.0
 24
10.0
 15
10.0
 25
10.0
 16
0.0
 26
0.0
 36
1.0
 17
0.0
 27
0.0
 37
0.0
 40
341.0
 41
1.24
 42
50.0
 43
0.0
 44
0.0
 50
0.0
 51
0.0
 71
     0
 72
   100
 73
     1
 74
     3
 75
     0
 76
     0
 77
     0
 78
     0
  0
ENDTAB
  0
TABLE
  2
LTYPE
  5
5
330
0
100
AcDbSymbolTable
 70
     1
  0
LTYPE
  5
14
330
5
100
AcDbSymbolTableRecord
100
AcDbLinetypeTableRecord
  2
BYBLOCK
 70
     0
  3

 72
    65
 73
     0
 40
0.0
  0
LTYPE
  5
15
330
5
100
AcDbSymbolTableRecord
100
AcDbLinetypeTableRecord
  2
BYLAYER
 70
     0
  3

 72
    65
 73
     0
 40
0.0
  0
LTYPE
  5
16
330
5
100
AcDbSymbolTableRecord
100
AcDbLinetypeTableRecord
  2
CONTINUOUS
 70
     0
  3
Solid line
 72
    65
 73
     0
 40
0.0
  0
ENDTAB
  0
TABLE
  2
LAYER
  5
2
100
AcDbSymbolTable
 70
1
  0
LAYER
  5
50
100
AcDbSymbolTableRecord
100
AcDbLayerTableRecord
  2
0
 70
0
  6
CONTINUOUS
  0
ENDTAB
  0
TABLE
  2
STYLE
  5
3
330
0
100
AcDbSymbolTable
 70
     1
  0
STYLE
  5
11
330
3
100
AcDbSymbolTableRecord
100
AcDbTextStyleTableRecord
  2
STANDARD
 70
     0
 40
0.0
 41
1.0
 50
0.0
 71
     0
 42
2.5
  3
txt
  4

  0
ENDTAB
  0
TABLE
  2
VIEW
  5
6
330
0
100
AcDbSymbolTable
 70
     0
  0
ENDTAB
  0
TABLE
  2
UCS
  5
7
330
0
100
AcDbSymbolTable
 70
     0
  0
ENDTAB
  0
TABLE
  2
APPID
  5
9
330
0
100
AcDbSymbolTable
 70
     2
  0
APPID
  5
12
330
9
100
AcDbSymbolTableRecord
100
AcDbRegAppTableRecord
  2
ACAD
 70
     0
  0
ENDTAB
  0
TABLE
  2
DIMSTYLE
  5
A
330
0
100
AcDbSymbolTable
 70
     1
  0
DIMSTYLE
105
27
330
A
100
AcDbSymbolTableRecord
100
AcDbDimStyleTableRecord
  2
ISO-25
 70
     0
  3

  4

  5

  6

  7

 40
1.0
 41
2.5
 42
0.625
 43
3.75
 44
1.25
 45
0.0
 46
0.0
 47
0.0
 48
0.0
140
2.5
141
2.5
142
0.0
143
0.03937007874016
144
1.0
145
0.0
146
1.0
147
0.625
 71
     0
 72
     0
 73
     0
 74
     0
 75
     0
 76
     0
 77
     1
 78
     8
170
     0
171
     3
172
     1
173
     0
174
     0
175
     0
176
     0
177
     0
178
     0
270
     2
271
     2
272
     2
273
     2
274
     3
340
11
275
     0
280
     0
281
     0
282
     0
283
     0
284
     8
285
     0
286
     0
287
     3
288
     0
  0
ENDTAB
  0
TABLE
  2
BLOCK_RECORD
  5
1
330
0
100
AcDbSymbolTable
 70
     1
  0
BLOCK_RECORD
  5
1F
330
1
100
AcDbSymbolTableRecord
100
AcDbBlockTableRecord
  2
*MODEL_SPACE
  0
BLOCK_RECORD
  5
1B
330
1
100
AcDbSymbolTableRecord
100
AcDbBlockTableRecord
  2
*PAPER_SPACE
  0
ENDTAB
  0
ENDSEC
  0
SECTION
  2
BLOCKS
  0
BLOCK
  5
20
330
1F
100
AcDbEntity
  8
0
100
AcDbBlockBegin
  2
*MODEL_SPACE
 70
     0
 10
0.0
 20
0.0
 30
0.0
  3
*MODEL_SPACE
  1

  0
ENDBLK
  5
21
330
1F
100
AcDbEntity
  8
0
100
AcDbBlockEnd
  0
BLOCK
  5
1C
330
1B
100
AcDbEntity
 67
     1
  8
0
100
AcDbBlockBegin
  2
*PAPER_SPACE
  1

  0
ENDBLK
  5
1D
330
1B
100
AcDbEntity
 67
     1
  8
0
100
AcDbBlockEnd
  0
ENDSEC
  0
SECTION
  2
ENTITIES
  0
LWPOLYLINE
  5
100
100
AcDbEntity
  8
0
 62
7
100
AcDbPolyline
 90
9
 70
0
 10
-47.400001
 20
37.689992
 30
0.0
 10
-27.400002
 20
17.690003
 30
0.0
 10
237.399999
 20
17.690003
 30
0.0
 10
257.399999
 20
37.689992
 30
0.0
 10
257.399999
 20
259.310001
 30
0.0
 10
237.399999
 20
279.310001
 30
0.0
 10
-27.400002
 20
279.310001
 30
0.0
 10
-47.400001
 20
259.310001
 30
0.0
 10
-47.400001
 20
37.689992
 30
0.0
  0
LWPOLYLINE
  5
101
100
AcDbEntity
  8
0
 62
7
100
AcDbPolyline
 90
55
 70
0
 10
-19.990000
 20
163.730995
 30
0.0
 10
-0.990002
 20
163.730995
 30
0.0
 10
0.432999
 20
163.832795
 30
0.0
 10
1.826999
 20
164.136097
 30
0.0
 10
3.163999
 20
164.634696
 30
0.0
 10
4.415999
 20
165.318495
 30
0.0
 10
5.558598
 20
166.173496
 30
0.0
 10
6.567500
 20
167.182395
 30
0.0
 10
7.422498
 20
168.324596
 30
0.0
 10
8.106300
 20
169.576796
 30
0.0
 10
8.604899
 20
170.913694
 30
0.0
 10
8.908198
 20
172.307895
 30
0.0
 10
9.009998
 20
173.730995
 30
0.0
 10
9.009998
 20
232.730995
 30
0.0
 10
30.874998
 20
232.730995
 30
0.0
 10
31.444300
 20
232.771695
 30
0.0
 10
32.001900
 20
232.892996
 30
0.0
 10
32.536700
 20
233.092497
 30
0.0
 10
33.037599
 20
233.365995
 30
0.0
 10
33.494399
 20
233.707995
 30
0.0
 10
33.897999
 20
234.111595
 30
0.0
 10
34.239999
 20
234.568395
 30
0.0
 10
34.513500
 20
235.069297
 30
0.0
 10
34.713000
 20
235.604096
 30
0.0
 10
34.834299
 20
236.161697
 30
0.0
 10
34.874999
 20
236.730996
 30
0.0
 10
34.874999
 20
239.730995
 30
0.0
 10
34.834299
 20
240.299995
 30
0.0
 10
34.713000
 20
240.857996
 30
0.0
 10
34.513500
 20
241.392996
 30
0.0
 10
34.239999
 20
241.893994
 30
0.0
 10
33.897999
 20
242.349995
 30
0.0
 10
33.494399
 20
242.753996
 30
0.0
 10
33.037599
 20
243.095996
 30
0.0
 10
32.536700
 20
243.369997
 30
0.0
 10
32.001900
 20
243.568995
 30
0.0
 10
31.444300
 20
243.689995
 30
0.0
 10
30.874998
 20
243.730996
 30
0.0
 10
9.009998
 20
243.730996
 30
0.0
 10
9.009998
 20
253.268995
 30
0.0
 10
8.908198
 20
254.691996
 30
0.0
 10
8.604899
 20
256.085996
 30
0.0
 10
8.106300
 20
257.422996
 30
0.0
 10
7.422498
 20
258.674996
 30
0.0
 10
6.567500
 20
259.816996
 30
0.0
 10
5.558598
 20
260.825995
 30
0.0
 10
4.415999
 20
261.680995
 30
0.0
 10
3.163999
 20
262.364995
 30
0.0
 10
1.826999
 20
262.863995
 30
0.0
 10
0.432999
 20
263.166997
 30
0.0
 10
-0.990002
 20
263.268995
 30
0.0
 10
-9.990001
 20
263.268995
 30
0.0
 10
-9.990001
 20
263.268995
 30
0.0
 10
-19.990000
 20
263.268995
 30
0.0
 10
-19.990000
 20
163.730995
 30
0.0
  0
LWPOLYLINE
  5
102
100
AcDbEntity
  8
0
 62
7
100
AcDbPolyline
 90
25
 70
0
 10
-1.840001
 20
172.730997
 30
0.0
 10
-1.777001
 20
173.207196
 30
0.0
 10
-1.593001
 20
173.650996
 30
0.0
 10
-1.301002
 20
174.032095
 30
0.0
 10
-0.920002
 20
174.324497
 30
0.0
 10
-0.476002
 20
174.508297
 30
0.0
 10
0.000000
 20
174.570995
 30
0.0
 10
0.475999
 20
174.508297
 30
0.0
 10
0.919999
 20
174.324497
 30
0.0
 10
1.300999
 20
174.032095
 30
0.0
 10
1.592998
 20
173.650996
 30
0.0
 10
1.776998
 20
173.207196
 30
0.0
 10
1.839999
 20
172.730997
 30
0.0
 10
1.776998
 20
172.254795
 30
0.0
 10
1.592998
 20
171.810995
 30
0.0
 10
1.300999
 20
171.429896
 30
0.0
 10
0.919999
 20
171.137497
 30
0.0
 10
0.475999
 20
170.953697
 30
0.0
 10
0.000000
 20
170.890995
 30
0.0
 10
-0.476002
 20
170.953697
 30
0.0
 10
-0.920002
 20
171.137497
 30
0.0
 10
-1.301002
 20
171.429896
 30
0.0
 10
-1.593001
 20
171.810995
 30
0.0
 10
-1.777001
 20
172.254795
 30
0.0
 10
-1.840001
 20
172.730997
 30
0.0
  0
LWPOLYLINE
  5
103
100
AcDbEntity
  8
0
 62
7
100
AcDbPolyline
 90
25
 70
0
 10
-1.840001
 20
222.499895
 30
0.0
 10
-1.777001
 20
222.976196
 30
0.0
 10
-1.593001
 20
223.419897
 30
0.0
 10
-1.301002
 20
223.800996
 30
0.0
 10
-0.920002
 20
224.093395
 30
0.0
 10
-0.476002
 20
224.277195
 30
0.0
 10
0.000000
 20
224.339896
 30
0.0
 10
0.475999
 20
224.277195
 30
0.0
 10
0.919999
 20
224.093395
 30
0.0
 10
1.300999
 20
223.800996
 30
0.0
 10
1.592998
 20
223.419897
 30
0.0
 10
1.776998
 20
222.976196
 30
0.0
 10
1.839999
 20
222.499895
 30
0.0
 10
1.776998
 20
222.023696
 30
0.0
 10
1.592998
 20
221.579896
 30
0.0
 10
1.300999
 20
221.198896
 30
0.0
 10
0.919999
 20
220.906497
 30
0.0
 10
0.475999
 20
220.722595
 30
0.0
 10
0.000000
 20
220.659896
 30
0.0
 10
-0.476002
 20
220.722595
 30
0.0
 10
-0.920002
 20
220.906497
 30
0.0
 10
-1.301002
 20
221.198896
 30
0.0
 10
-1.593001
 20
221.579896
 30
0.0
 10
-1.777001
 20
222.023696
 30
0.0
 10
-1.840001
 20
222.499895
 30
0.0
  0
LWPOLYLINE
  5
104
100
AcDbEntity
  8
0
 62
7
100
AcDbPolyline
 90
25
 70
0
 10
-1.840001
 20
254.268996
 30
0.0
 10
-1.777001
 20
254.744995
 30
0.0
 10
-1.593001
 20
255.188995
 30
0.0
 10
-1.301002
 20
255.569995
 30
0.0
 10
-0.920002
 20
255.861996
 30
0.0
 10
-0.476002
 20
256.045997
 30
0.0
 10
0.000000
 20
256.108994
 30
0.0
 10
0.475999
 20
256.045997
 30
0.0
 10
0.919999
 20
255.861996
 30
0.0
 10
1.300999
 20
255.569995
 30
0.0
 10
1.592998
 20
255.188995
 30
0.0
 10
1.776998
 20
254.744995
 30
0.0
 10
1.839999
 20
254.268996
 30
0.0
 10
1.776998
 20
253.792997
 30
0.0
 10
1.592998
 20
253.348997
 30
0.0
 10
1.300999
 20
252.967997
 30
0.0
 10
0.919999
 20
252.674996
 30
0.0
 10
0.475999
 20
252.491995
 30
0.0
 10
0.000000
 20
252.428994
 30
0.0
 10
-0.476002
 20
252.491995
 30
0.0
 10
-0.920002
 20
252.674996
 30
0.0
 10
-1.301002
 20
252.967997
 30
0.0
 10
-1.593001
 20
253.348997
 30
0.0
 10
-1.777001
 20
253.792997
 30
0.0
 10
-1.840001
 20
254.268996
 30
0.0
  0
LWPOLYLINE
  5
105
100
AcDbEntity
  8
0
 62
7
100
AcDbPolyline
 90
77
 70
0
 10
1.749998
 20
39.230984
 30
0.0
 10
1.772011
 20
38.737999
 30
0.0
 10
1.837998
 20
38.248992
 30
0.0
 10
1.947999
 20
37.768001
 30
0.0
 10
2.100998
 20
37.297988
 30
0.0
 10
2.295000
 20
36.844993
 30
0.0
 10
2.528999
 20
36.410004
 30
0.0
 10
2.800000
 20
35.997988
 30
0.0
 10
3.107998
 20
35.611992
 30
0.0
 10
3.448998
 20
35.255997
 30
0.0
 10
3.820998
 20
34.930990
 30
0.0
 10
4.219998
 20
34.641007
 30
0.0
 10
4.643998
 20
34.387995
 30
0.0
 10
5.088399
 20
34.173985
 30
0.0
 10
5.550400
 20
33.999995
 30
0.0
 10
6.026099
 20
33.868988
 30
0.0
 10
6.511699
 20
33.780991
 30
0.0
 10
7.003198
 20
33.736993
 30
0.0
 10
13.249997
 20
33.736993
 30
0.0
 10
13.249997
 20
33.731066
 30
0.0
 10
41.000000
 20
33.731009
 30
0.0
 10
41.000000
 20
33.736936
 30
0.0
 10
47.246800
 20
33.736993
 30
0.0
 10
47.738298
 20
33.780991
 30
0.0
 10
48.223898
 20
33.868988
 30
0.0
 10
48.699598
 20
33.999995
 30
0.0
 10
49.161598
 20
34.173985
 30
0.0
 10
49.606299
 20
34.387995
 30
0.0
 10
50.029900
 20
34.641007
 30
0.0
 10
50.429200
 20
34.930990
 30
0.0
 10
50.800799
 20
35.255997
 30
0.0
 10
51.141898
 20
35.611992
 30
0.0
 10
51.449599
 20
35.997988
 30
0.0
 10
51.721498
 20
36.410004
 30
0.0
 10
51.955299
 20
36.844993
 30
0.0
 10
52.149299
 20
37.297988
 30
0.0
 10
52.301798
 20
37.768001
 30
0.0
 10
52.411599
 20
38.248992
 30
0.0
 10
52.477899
 20
38.737999
 30
0.0
 10
52.499997
 20
39.230984
 30
0.0
 10
52.477901
 20
39.723998
 30
0.0
 10
52.411599
 20
40.213089
 30
0.0
 10
52.301798
 20
40.694194
 30
0.0
 10
52.149299
 20
41.163586
 30
0.0
 10
51.955299
 20
41.617399
 30
0.0
 10
51.721498
 20
42.051908
 30
0.0
 10
51.449599
 20
42.463783
 30
0.0
 10
51.141898
 20
42.849694
 30
0.0
 10
50.800799
 20
43.206395
 30
0.0
 10
50.429200
 20
43.531091
 30
0.0
 10
50.029900
 20
43.821188
 30
0.0
 10
49.606299
 20
44.074285
 30
0.0
 10
29.731298
 20
55.574304
 30
0.0
 10
29.286598
 20
55.788398
 30
0.0
 10
28.824600
 20
55.961795
 30
0.0
 10
28.348898
 20
56.093085
 30
0.0
 10
27.863298
 20
56.181195
 30
0.0
 10
27.371799
 20
56.225503
 30
0.0
 10
26.878198
 20
56.225503
 30
0.0
 10
26.386700
 20
56.181195
 30
0.0
 10
25.901100
 20
56.093085
 30
0.0
 10
25.425400
 20
55.961795
 30
0.0
 10
24.963399
 20
55.788398
 30
0.0
 10
24.518699
 20
55.574304
 30
0.0
 10
4.643998
 20
44.074285
 30
0.0
 10
4.219998
 20
43.821188
 30
0.0
 10
3.820998
 20
43.531091
 30
0.0
 10
3.448998
 20
43.206395
 30
0.0
 10
3.107998
 20
42.849694
 30
0.0
 10
2.800000
 20
42.463783
 30
0.0
 10
2.528999
 20
42.051908
 30
0.0
 10
2.295000
 20
41.617399
 30
0.0
 10
2.100998
 20
41.163586
 30
0.0
 10
1.947999
 20
40.694194
 30
0.0
 10
1.837998
 20
40.213089
 30
0.0
 10
1.772000
 20
39.723998
 30
0.0
 10
1.749987
 20
39.230984
 30
0.0
  0
LWPOLYLINE
  5
106
100
AcDbEntity
  8
0
 62
7
100
AcDbPolyline
 90
25
 70
0
 10
5.410000
 20
39.230984
 30
0.0
 10
5.472698
 20
39.707206
 30
0.0
 10
5.656498
 20
40.151001
 30
0.0
 10
5.948900
 20
40.532085
 30
0.0
 10
6.329999
 20
40.824496
 30
0.0
 10
6.773799
 20
41.008307
 30
0.0
 10
7.249998
 20
41.070989
 30
0.0
 10
7.726197
 20
41.008307
 30
0.0
 10
8.169997
 20
40.824496
 30
0.0
 10
8.551099
 20
40.532085
 30
0.0
 10
8.843498
 20
40.151001
 30
0.0
 10
9.027298
 20
39.707206
 30
0.0
 10
9.090000
 20
39.230984
 30
0.0
 10
9.027298
 20
38.754791
 30
0.0
 10
8.843498
 20
38.310996
 30
0.0
 10
8.551099
 20
37.929996
 30
0.0
 10
8.169997
 20
37.638009
 30
0.0
 10
7.726197
 20
37.454000
 30
0.0
 10
7.249998
 20
37.391008
 30
0.0
 10
6.773799
 20
37.454000
 30
0.0
 10
6.329999
 20
37.638009
 30
0.0
 10
5.948900
 20
37.929996
 30
0.0
 10
5.656498
 20
38.310996
 30
0.0
 10
5.472698
 20
38.754791
 30
0.0
 10
5.410000
 20
39.230984
 30
0.0
  0
LWPOLYLINE
  5
107
100
AcDbEntity
  8
0
 62
7
100
AcDbPolyline
 90
25
 70
0
 10
25.285000
 20
50.731004
 30
0.0
 10
25.347699
 20
51.207197
 30
0.0
 10
25.531499
 20
51.650992
 30
0.0
 10
25.823898
 20
52.032105
 30
0.0
 10
26.204999
 20
52.324487
 30
0.0
 10
26.648799
 20
52.508298
 30
0.0
 10
27.124999
 20
52.571008
 30
0.0
 10
27.601198
 20
52.508298
 30
0.0
 10
28.044998
 20
52.324487
 30
0.0
 10
28.426100
 20
52.032105
 30
0.0
 10
28.718499
 20
51.650992
 30
0.0
 10
28.902299
 20
51.207197
 30
0.0
 10
28.965000
 20
50.731004
 30
0.0
 10
28.902299
 20
50.254782
 30
0.0
 10
28.718499
 20
49.810987
 30
0.0
 10
28.426100
 20
49.429903
 30
0.0
 10
28.044998
 20
49.137492
 30
0.0
 10
27.601198
 20
48.953709
 30
0.0
 10
27.124999
 20
48.890999
 30
0.0
 10
26.648799
 20
48.953709
 30
0.0
 10
26.204999
 20
49.137492
 30
0.0
 10
25.823898
 20
49.429903
 30
0.0
 10
25.531499
 20
49.810987
 30
0.0
 10
25.347699
 20
50.254782
 30
0.0
 10
25.285000
 20
50.731004
 30
0.0
  0
LWPOLYLINE
  5
108
100
AcDbEntity
  8
0
 62
7
100
AcDbPolyline
 90
25
 70
0
 10
45.159998
 20
39.230984
 30
0.0
 10
45.222699
 20
39.707206
 30
0.0
 10
45.406499
 20
40.151001
 30
0.0
 10
45.698898
 20
40.532085
 30
0.0
 10
46.080000
 20
40.824496
 30
0.0
 10
46.523800
 20
41.008307
 30
0.0
 10
46.999999
 20
41.070989
 30
0.0
 10
47.476198
 20
41.008307
 30
0.0
 10
47.919998
 20
40.824496
 30
0.0
 10
48.301100
 20
40.532085
 30
0.0
 10
48.593499
 20
40.151001
 30
0.0
 10
48.777299
 20
39.707206
 30
0.0
 10
48.839998
 20
39.230984
 30
0.0
 10
48.777299
 20
38.754791
 30
0.0
 10
48.593499
 20
38.310996
 30
0.0
 10
48.301100
 20
37.929996
 30
0.0
 10
47.919998
 20
37.638009
 30
0.0
 10
47.476198
 20
37.454000
 30
0.0
 10
46.999999
 20
37.391008
 30
0.0
 10
46.523800
 20
37.454000
 30
0.0
 10
46.080000
 20
37.638009
 30
0.0
 10
45.698898
 20
37.929996
 30
0.0
 10
45.406499
 20
38.310996
 30
0.0
 10
45.222699
 20
38.754791
 30
0.0
 10
45.159998
 20
39.230984
 30
0.0
  0
LWPOLYLINE
  5
109
100
AcDbEntity
  8
0
 62
7
100
AcDbPolyline
 90
20
 70
0
 10
30.540799
 20
66.830991
 30
0.0
 10
30.562897
 20
66.338005
 30
0.0
 10
30.629200
 20
65.848886
 30
0.0
 10
30.738998
 20
65.367782
 30
0.0
 10
30.891500
 20
64.898390
 30
0.0
 10
31.085499
 20
64.444605
 30
0.0
 10
31.319298
 20
64.010095
 30
0.0
 10
31.591199
 20
63.598192
 30
0.0
 10
31.898898
 20
63.212281
 30
0.0
 10
32.240000
 20
62.855609
 30
0.0
 10
32.611599
 20
62.530884
 30
0.0
 10
33.010898
 20
62.240788
 30
0.0
 10
33.434500
 20
61.987691
 30
0.0
 10
33.879200
 20
61.773597
 30
0.0
 10
34.341198
 20
61.600200
 30
0.0
 10
34.816898
 20
61.468882
 30
0.0
 10
35.302498
 20
61.380800
 30
0.0
 10
35.793999
 20
61.336491
 30
0.0
 10
68.499998
 20
61.336491
 30
0.0
 10
68.499998
 20
61.331129
 30
0.0
  0
LWPOLYLINE
  5
10a
100
AcDbEntity
  8
0
 62
7
100
AcDbPolyline
 90
3
 70
0
 10
68.499998
 20
61.330988
 30
0.0
 10
121.499999
 20
61.330988
 30
0.0
 10
121.499999
 20
61.336350
 30
0.0
  0
LWPOLYLINE
  5
10b
100
AcDbEntity
  8
0
 62
7
100
AcDbPolyline
 90
51
 70
0
 10
121.499999
 20
61.336491
 30
0.0
 10
127.746799
 20
61.336491
 30
0.0
 10
128.238299
 20
61.380800
 30
0.0
 10
128.723899
 20
61.468882
 30
0.0
 10
129.199599
 20
61.600200
 30
0.0
 10
129.661599
 20
61.773597
 30
0.0
 10
130.106299
 20
61.987691
 30
0.0
 10
130.529899
 20
62.240788
 30
0.0
 10
130.929199
 20
62.530884
 30
0.0
 10
131.300799
 20
62.855609
 30
0.0
 10
131.641899
 20
63.212281
 30
0.0
 10
131.949599
 20
63.598192
 30
0.0
 10
132.221499
 20
64.010095
 30
0.0
 10
132.455299
 20
64.444605
 30
0.0
 10
132.649299
 20
64.898390
 30
0.0
 10
132.801799
 20
65.367782
 30
0.0
 10
132.911599
 20
65.848886
 30
0.0
 10
132.977899
 20
66.338005
 30
0.0
 10
133.000000
 20
66.830991
 30
0.0
 10
132.977898
 20
67.324005
 30
0.0
 10
132.911599
 20
67.813096
 30
0.0
 10
132.801799
 20
68.294201
 30
0.0
 10
132.649299
 20
68.763593
 30
0.0
 10
132.455299
 20
69.217406
 30
0.0
 10
132.221499
 20
69.651887
 30
0.0
 10
131.949599
 20
70.063790
 30
0.0
 10
120.449599
 20
86.563800
 30
0.0
 10
120.141899
 20
86.949682
 30
0.0
 10
119.800799
 20
87.306383
 30
0.0
 10
119.429199
 20
87.631108
 30
0.0
 10
119.029899
 20
87.921204
 30
0.0
 10
118.606299
 20
88.174301
 30
0.0
 10
118.161599
 20
88.388395
 30
0.0
 10
117.699599
 20
88.561792
 30
0.0
 10
117.223899
 20
88.693082
 30
0.0
 10
116.738299
 20
88.781191
 30
0.0
 10
116.246799
 20
88.825500
 30
0.0
 10
115.753199
 20
88.825500
 30
0.0
 10
115.261699
 20
88.781191
 30
0.0
 10
114.776129
 20
88.693082
 30
0.0
 10
114.300409
 20
88.561792
 30
0.0
 10
113.838359
 20
88.388395
 30
0.0
 10
113.393719
 20
88.174301
 30
0.0
 10
112.970069
 20
87.921204
 30
0.0
 10
112.570809
 20
87.631108
 30
0.0
 10
112.199159
 20
87.306383
 30
0.0
 10
111.858109
 20
86.949682
 30
0.0
 10
111.550409
 20
86.563800
 30
0.0
 10
102.061859
 20
72.330994
 30
0.0
 10
68.499998
 20
72.330994
 30
0.0
 10
68.499998
 20
72.325350
 30
0.0
  0
LWPOLYLINE
  5
10c
100
AcDbEntity
  8
0
 62
7
100
AcDbPolyline
 90
19
 70
0
 10
68.499998
 20
72.325491
 30
0.0
 10
35.793999
 20
72.325491
 30
0.0
 10
35.302498
 20
72.281182
 30
0.0
 10
34.816898
 20
72.193101
 30
0.0
 10
34.341198
 20
72.061783
 30
0.0
 10
33.879200
 20
71.888385
 30
0.0
 10
33.434500
 20
71.674291
 30
0.0
 10
33.010898
 20
71.421195
 30
0.0
 10
32.611599
 20
71.131098
 30
0.0
 10
32.240000
 20
70.806402
 30
0.0
 10
31.898898
 20
70.449701
 30
0.0
 10
31.591199
 20
70.063790
 30
0.0
 10
31.319298
 20
69.651887
 30
0.0
 10
31.085499
 20
69.217406
 30
0.0
 10
30.891500
 20
68.763593
 30
0.0
 10
30.738998
 20
68.294201
 30
0.0
 10
30.629200
 20
67.813096
 30
0.0
 10
30.562900
 20
67.324005
 30
0.0
 10
30.540802
 20
66.830991
 30
0.0
  0
LWPOLYLINE
  5
10d
100
AcDbEntity
  8
0
 62
7
100
AcDbPolyline
 90
25
 70
0
 10
34.200798
 20
66.830991
 30
0.0
 10
34.263499
 20
67.307185
 30
0.0
 10
34.447299
 20
67.751007
 30
0.0
 10
34.739699
 20
68.132092
 30
0.0
 10
35.120800
 20
68.424503
 30
0.0
 10
35.564600
 20
68.608286
 30
0.0
 10
36.040799
 20
68.670995
 30
0.0
 10
36.516999
 20
68.608286
 30
0.0
 10
36.960799
 20
68.424503
 30
0.0
 10
37.341900
 20
68.132092
 30
0.0
 10
37.634299
 20
67.751007
 30
0.0
 10
37.818100
 20
67.307185
 30
0.0
 10
37.880798
 20
66.830991
 30
0.0
 10
37.818100
 20
66.354798
 30
0.0
 10
37.634299
 20
65.911003
 30
0.0
 10
37.341900
 20
65.529890
 30
0.0
 10
36.960799
 20
65.237508
 30
0.0
 10
36.516999
 20
65.053697
 30
0.0
 10
36.040799
 20
64.990987
 30
0.0
 10
35.564600
 20
65.053697
 30
0.0
 10
35.120800
 20
65.237508
 30
0.0
 10
34.739699
 20
65.529890
 30
0.0
 10
34.447299
 20
65.911003
 30
0.0
 10
34.263499
 20
66.354798
 30
0.0
 10
34.200798
 20
66.830991
 30
0.0
  0
LWPOLYLINE
  5
10e
100
AcDbEntity
  8
0
 62
7
100
AcDbPolyline
 90
25
 70
0
 10
114.159999
 20
83.331001
 30
0.0
 10
114.222699
 20
83.807194
 30
0.0
 10
114.406509
 20
84.250989
 30
0.0
 10
114.698919
 20
84.632101
 30
0.0
 10
115.079999
 20
84.924484
 30
0.0
 10
115.523799
 20
85.108295
 30
0.0
 10
115.999999
 20
85.171005
 30
0.0
 10
116.476199
 20
85.108295
 30
0.0
 10
116.919999
 20
84.924484
 30
0.0
 10
117.301099
 20
84.632101
 30
0.0
 10
117.593499
 20
84.250989
 30
0.0
 10
117.777299
 20
83.807194
 30
0.0
 10
117.839999
 20
83.331001
 30
0.0
 10
117.777299
 20
82.854807
 30
0.0
 10
117.593499
 20
82.410984
 30
0.0
 10
117.301099
 20
82.029900
 30
0.0
 10
116.919999
 20
81.737489
 30
0.0
 10
116.476199
 20
81.553706
 30
0.0
 10
115.999999
 20
81.490996
 30
0.0
 10
115.523799
 20
81.553706
 30
0.0
 10
115.079999
 20
81.737489
 30
0.0
 10
114.698919
 20
82.029900
 30
0.0
 10
114.406509
 20
82.410984
 30
0.0
 10
114.222699
 20
82.854807
 30
0.0
 10
114.159999
 20
83.331001
 30
0.0
  0
LWPOLYLINE
  5
10f
100
AcDbEntity
  8
0
 62
7
100
AcDbPolyline
 90
25
 70
0
 10
125.659999
 20
66.830991
 30
0.0
 10
125.722699
 20
67.307185
 30
0.0
 10
125.906499
 20
67.751007
 30
0.0
 10
126.198899
 20
68.132092
 30
0.0
 10
126.579999
 20
68.424503
 30
0.0
 10
127.023799
 20
68.608286
 30
0.0
 10
127.499999
 20
68.670995
 30
0.0
 10
127.976199
 20
68.608286
 30
0.0
 10
128.419999
 20
68.424503
 30
0.0
 10
128.801099
 20
68.132092
 30
0.0
 10
129.093499
 20
67.751007
 30
0.0
 10
129.277299
 20
67.307185
 30
0.0
 10
129.339999
 20
66.830991
 30
0.0
 10
129.277299
 20
66.354798
 30
0.0
 10
129.093499
 20
65.911003
 30
0.0
 10
128.801099
 20
65.529890
 30
0.0
 10
128.419999
 20
65.237508
 30
0.0
 10
127.976199
 20
65.053697
 30
0.0
 10
127.499999
 20
64.990987
 30
0.0
 10
127.023799
 20
65.053697
 30
0.0
 10
126.579999
 20
65.237508
 30
0.0
 10
126.198899
 20
65.529890
 30
0.0
 10
125.906499
 20
65.911003
 30
0.0
 10
125.722699
 20
66.354798
 30
0.0
 10
125.659999
 20
66.830991
 30
0.0
  0
LWPOLYLINE
  5
110
100
AcDbEntity
  8
0
 62
7
100
AcDbPolyline
 90
77
 70
0
 10
76.999999
 20
215.630996
 30
0.0
 10
77.022100
 20
215.137996
 30
0.0
 10
77.088399
 20
214.648896
 30
0.0
 10
77.198199
 20
214.167795
 30
0.0
 10
77.350699
 20
213.698394
 30
0.0
 10
77.544699
 20
213.244595
 30
0.0
 10
77.778499
 20
212.810097
 30
0.0
 10
78.050399
 20
212.398196
 30
0.0
 10
78.358099
 20
212.012294
 30
0.0
 10
78.699199
 20
211.655596
 30
0.0
 10
79.070799
 20
211.330894
 30
0.0
 10
79.470099
 20
211.040795
 30
0.0
 10
79.893699
 20
210.787695
 30
0.0
 10
80.338399
 20
210.573596
 30
0.0
 10
80.800399
 20
210.400196
 30
0.0
 10
81.276099
 20
210.268895
 30
0.0
 10
81.761699
 20
210.180796
 30
0.0
 10
82.253199
 20
210.136496
 30
0.0
 10
88.499999
 20
210.136496
 30
0.0
 10
88.499999
 20
210.130992
 30
0.0
 10
121.499999
 20
210.130995
 30
0.0
 10
121.499999
 20
210.136499
 30
0.0
 10
127.746799
 20
210.136496
 30
0.0
 10
128.238299
 20
210.180796
 30
0.0
 10
128.723899
 20
210.268895
 30
0.0
 10
129.199599
 20
210.400196
 30
0.0
 10
129.661599
 20
210.573596
 30
0.0
 10
130.106299
 20
210.787695
 30
0.0
 10
130.529899
 20
211.040795
 30
0.0
 10
130.929199
 20
211.330894
 30
0.0
 10
131.300799
 20
211.655596
 30
0.0
 10
131.641899
 20
212.012294
 30
0.0
 10
131.949599
 20
212.398196
 30
0.0
 10
132.221499
 20
212.810097
 30
0.0
 10
132.455299
 20
213.244595
 30
0.0
 10
132.649299
 20
213.698394
 30
0.0
 10
132.801799
 20
214.167795
 30
0.0
 10
132.911599
 20
214.648896
 30
0.0
 10
132.977899
 20
215.137996
 30
0.0
 10
133.000000
 20
215.630996
 30
0.0
 10
132.977898
 20
216.123995
 30
0.0
 10
132.911599
 20
216.613095
 30
0.0
 10
132.801799
 20
217.094196
 30
0.0
 10
132.649299
 20
217.563597
 30
0.0
 10
132.455299
 20
218.017396
 30
0.0
 10
132.221499
 20
218.451897
 30
0.0
 10
131.949599
 20
218.863795
 30
0.0
 10
131.641899
 20
219.249697
 30
0.0
 10
131.300799
 20
219.606395
 30
0.0
 10
130.929199
 20
219.931097
 30
0.0
 10
108.429189
 20
236.431095
 30
0.0
 10
108.029929
 20
236.721197
 30
0.0
 10
107.606279
 20
236.974297
 30
0.0
 10
107.161639
 20
237.188396
 30
0.0
 10
106.699589
 20
237.361796
 30
0.0
 10
106.223869
 20
237.493094
 30
0.0
 10
105.738282
 20
237.581196
 30
0.0
 10
105.246756
 20
237.625496
 30
0.0
 10
104.753242
 20
237.625496
 30
0.0
 10
104.261716
 20
237.581196
 30
0.0
 10
103.776129
 20
237.493094
 30
0.0
 10
103.300409
 20
237.361796
 30
0.0
 10
102.838359
 20
237.188396
 30
0.0
 10
102.393719
 20
236.974297
 30
0.0
 10
101.970069
 20
236.721197
 30
0.0
 10
101.570809
 20
236.431095
 30
0.0
 10
79.070799
 20
219.931097
 30
0.0
 10
78.699199
 20
219.606395
 30
0.0
 10
78.358099
 20
219.249697
 30
0.0
 10
78.050399
 20
218.863795
 30
0.0
 10
77.778499
 20
218.451897
 30
0.0
 10
77.544699
 20
218.017396
 30
0.0
 10
77.350699
 20
217.563597
 30
0.0
 10
77.198199
 20
217.094196
 30
0.0
 10
77.088399
 20
216.613095
 30
0.0
 10
77.022099
 20
216.123995
 30
0.0
 10
76.999998
 20
215.630996
 30
0.0
  0
LWPOLYLINE
  5
111
100
AcDbEntity
  8
0
 62
7
100
AcDbPolyline
 90
25
 70
0
 10
80.659999
 20
215.630996
 30
0.0
 10
80.722699
 20
216.107195
 30
0.0
 10
80.906499
 20
216.550995
 30
0.0
 10
81.198899
 20
216.932096
 30
0.0
 10
81.579999
 20
217.224496
 30
0.0
 10
82.023799
 20
217.408296
 30
0.0
 10
82.499999
 20
217.470994
 30
0.0
 10
82.976199
 20
217.408296
 30
0.0
 10
83.419999
 20
217.224496
 30
0.0
 10
83.801099
 20
216.932096
 30
0.0
 10
84.093499
 20
216.550995
 30
0.0
 10
84.277299
 20
216.107195
 30
0.0
 10
84.339999
 20
215.630996
 30
0.0
 10
84.277299
 20
215.154796
 30
0.0
 10
84.093499
 20
214.710996
 30
0.0
 10
83.801099
 20
214.329895
 30
0.0
 10
83.419999
 20
214.037496
 30
0.0
 10
82.976199
 20
213.853695
 30
0.0
 10
82.499999
 20
213.790997
 30
0.0
 10
82.023799
 20
213.853695
 30
0.0
 10
81.579999
 20
214.037496
 30
0.0
 10
81.198899
 20
214.329895
 30
0.0
 10
80.906499
 20
214.710996
 30
0.0
 10
80.722699
 20
215.154796
 30
0.0
 10
80.659999
 20
215.630996
 30
0.0
  0
LWPOLYLINE
  5
112
100
AcDbEntity
  8
0
 62
7
100
AcDbPolyline
 90
25
 70
0
 10
103.159999
 20
232.130996
 30
0.0
 10
103.222699
 20
232.607196
 30
0.0
 10
103.406509
 20
233.050996
 30
0.0
 10
103.698919
 20
233.432095
 30
0.0
 10
104.079999
 20
233.724496
 30
0.0
 10
104.523772
 20
233.908297
 30
0.0
 10
104.999999
 20
233.970995
 30
0.0
 10
105.476226
 20
233.908297
 30
0.0
 10
105.919999
 20
233.724496
 30
0.0
 10
106.301079
 20
233.432095
 30
0.0
 10
106.593489
 20
233.050996
 30
0.0
 10
106.777299
 20
232.607196
 30
0.0
 10
106.839999
 20
232.130996
 30
0.0
 10
106.777299
 20
231.654794
 30
0.0
 10
106.593489
 20
231.210997
 30
0.0
 10
106.301079
 20
230.829896
 30
0.0
 10
105.919999
 20
230.537496
 30
0.0
 10
105.476226
 20
230.353696
 30
0.0
 10
104.999999
 20
230.290995
 30
0.0
 10
104.523772
 20
230.353696
 30
0.0
 10
104.079999
 20
230.537496
 30
0.0
 10
103.698919
 20
230.829896
 30
0.0
 10
103.406509
 20
231.210997
 30
0.0
 10
103.222699
 20
231.654794
 30
0.0
 10
103.159999
 20
232.130996
 30
0.0
  0
LWPOLYLINE
  5
113
100
AcDbEntity
  8
0
 62
7
100
AcDbPolyline
 90
25
 70
0
 10
125.659999
 20
215.630996
 30
0.0
 10
125.722699
 20
216.107195
 30
0.0
 10
125.906499
 20
216.550995
 30
0.0
 10
126.198899
 20
216.932096
 30
0.0
 10
126.579999
 20
217.224496
 30
0.0
 10
127.023799
 20
217.408296
 30
0.0
 10
127.499999
 20
217.470994
 30
0.0
 10
127.976199
 20
217.408296
 30
0.0
 10
128.419999
 20
217.224496
 30
0.0
 10
128.801099
 20
216.932096
 30
0.0
 10
129.093499
 20
216.550995
 30
0.0
 10
129.277299
 20
216.107195
 30
0.0
 10
129.339999
 20
215.630996
 30
0.0
 10
129.277299
 20
215.154796
 30
0.0
 10
129.093499
 20
214.710996
 30
0.0
 10
128.801099
 20
214.329895
 30
0.0
 10
128.419999
 20
214.037496
 30
0.0
 10
127.976199
 20
213.853695
 30
0.0
 10
127.499999
 20
213.790997
 30
0.0
 10
127.023799
 20
213.853695
 30
0.0
 10
126.579999
 20
214.037496
 30
0.0
 10
126.198899
 20
214.329895
 30
0.0
 10
125.906499
 20
214.710996
 30
0.0
 10
125.722699
 20
215.154796
 30
0.0
 10
125.659999
 20
215.630996
 30
0.0
  0
LWPOLYLINE
  5
114
100
AcDbEntity
  8
0
 62
7
100
AcDbPolyline
 90
77
 70
0
 10
157.499998
 20
39.230984
 30
0.0
 10
157.522096
 20
38.737999
 30
0.0
 10
157.588399
 20
38.248992
 30
0.0
 10
157.698200
 20
37.768001
 30
0.0
 10
157.850699
 20
37.297988
 30
0.0
 10
158.044698
 20
36.844993
 30
0.0
 10
158.278500
 20
36.410004
 30
0.0
 10
158.550398
 20
35.997988
 30
0.0
 10
158.858100
 20
35.611992
 30
0.0
 10
159.199199
 20
35.255997
 30
0.0
 10
159.570798
 20
34.930990
 30
0.0
 10
159.970097
 20
34.641007
 30
0.0
 10
160.393699
 20
34.387995
 30
0.0
 10
160.838399
 20
34.173985
 30
0.0
 10
161.300400
 20
33.999995
 30
0.0
 10
161.776100
 20
33.868988
 30
0.0
 10
162.261700
 20
33.780991
 30
0.0
 10
162.753198
 20
33.736993
 30
0.0
 10
168.999998
 20
33.736993
 30
0.0
 10
168.999998
 20
33.731066
 30
0.0
 10
196.750000
 20
33.731009
 30
0.0
 10
196.750000
 20
33.736936
 30
0.0
 10
202.996800
 20
33.736993
 30
0.0
 10
203.488298
 20
33.780991
 30
0.0
 10
203.973898
 20
33.868988
 30
0.0
 10
204.449598
 20
33.999995
 30
0.0
 10
204.911599
 20
34.173985
 30
0.0
 10
205.356000
 20
34.387995
 30
0.0
 10
205.779999
 20
34.641007
 30
0.0
 10
206.178999
 20
34.930990
 30
0.0
 10
206.550999
 20
35.255997
 30
0.0
 10
206.892000
 20
35.611992
 30
0.0
 10
207.199998
 20
35.997988
 30
0.0
 10
207.470999
 20
36.410004
 30
0.0
 10
207.704998
 20
36.844993
 30
0.0
 10
207.899000
 20
37.297988
 30
0.0
 10
208.051998
 20
37.768001
 30
0.0
 10
208.162000
 20
38.248992
 30
0.0
 10
208.227998
 20
38.737999
 30
0.0
 10
208.250011
 20
39.230984
 30
0.0
 10
208.227986
 20
39.723998
 30
0.0
 10
208.162000
 20
40.213089
 30
0.0
 10
208.051998
 20
40.694194
 30
0.0
 10
207.899000
 20
41.163586
 30
0.0
 10
207.704998
 20
41.617399
 30
0.0
 10
207.470999
 20
42.051908
 30
0.0
 10
207.199998
 20
42.463783
 30
0.0
 10
206.892000
 20
42.849694
 30
0.0
 10
206.550999
 20
43.206395
 30
0.0
 10
206.178999
 20
43.531091
 30
0.0
 10
205.779999
 20
43.821188
 30
0.0
 10
205.356000
 20
44.074285
 30
0.0
 10
185.481299
 20
55.574304
 30
0.0
 10
185.036598
 20
55.788398
 30
0.0
 10
184.574598
 20
55.961795
 30
0.0
 10
184.098898
 20
56.093085
 30
0.0
 10
183.613298
 20
56.181195
 30
0.0
 10
183.121800
 20
56.225503
 30
0.0
 10
182.628199
 20
56.225503
 30
0.0
 10
182.136700
 20
56.181195
 30
0.0
 10
181.651100
 20
56.093085
 30
0.0
 10
181.175398
 20
55.961795
 30
0.0
 10
180.713400
 20
55.788398
 30
0.0
 10
180.268699
 20
55.574304
 30
0.0
 10
160.393699
 20
44.074285
 30
0.0
 10
159.970097
 20
43.821188
 30
0.0
 10
159.570798
 20
43.531091
 30
0.0
 10
159.199199
 20
43.206395
 30
0.0
 10
158.858100
 20
42.849694
 30
0.0
 10
158.550398
 20
42.463783
 30
0.0
 10
158.278500
 20
42.051908
 30
0.0
 10
158.044698
 20
41.617399
 30
0.0
 10
157.850699
 20
41.163586
 30
0.0
 10
157.698200
 20
40.694194
 30
0.0
 10
157.588399
 20
40.213089
 30
0.0
 10
157.522099
 20
39.723998
 30
0.0
 10
157.500001
 20
39.230984
 30
0.0
  0
LWPOLYLINE
  5
115
100
AcDbEntity
  8
0
 62
7
100
AcDbPolyline
 90
25
 70
0
 10
161.160000
 20
39.230984
 30
0.0
 10
161.222698
 20
39.707206
 30
0.0
 10
161.406499
 20
40.151001
 30
0.0
 10
161.698898
 20
40.532085
 30
0.0
 10
162.079999
 20
40.824496
 30
0.0
 10
162.523799
 20
41.008307
 30
0.0
 10
162.999999
 20
41.070989
 30
0.0
 10
163.476198
 20
41.008307
 30
0.0
 10
163.919998
 20
40.824496
 30
0.0
 10
164.301099
 20
40.532085
 30
0.0
 10
164.593499
 20
40.151001
 30
0.0
 10
164.777299
 20
39.707206
 30
0.0
 10
164.840000
 20
39.230984
 30
0.0
 10
164.777299
 20
38.754791
 30
0.0
 10
164.593499
 20
38.310996
 30
0.0
 10
164.301099
 20
37.929996
 30
0.0
 10
163.919998
 20
37.638009
 30
0.0
 10
163.476198
 20
37.454000
 30
0.0
 10
162.999999
 20
37.391008
 30
0.0
 10
162.523799
 20
37.454000
 30
0.0
 10
162.079999
 20
37.638009
 30
0.0
 10
161.698898
 20
37.929996
 30
0.0
 10
161.406499
 20
38.310996
 30
0.0
 10
161.222698
 20
38.754791
 30
0.0
 10
161.160000
 20
39.230984
 30
0.0
  0
LWPOLYLINE
  5
116
100
AcDbEntity
  8
0
 62
7
100
AcDbPolyline
 90
25
 70
0
 10
181.034998
 20
50.731004
 30
0.0
 10
181.097699
 20
51.207197
 30
0.0
 10
181.281499
 20
51.650992
 30
0.0
 10
181.573898
 20
52.032105
 30
0.0
 10
181.955000
 20
52.324487
 30
0.0
 10
182.398800
 20
52.508298
 30
0.0
 10
182.874999
 20
52.571008
 30
0.0
 10
183.351198
 20
52.508298
 30
0.0
 10
183.794998
 20
52.324487
 30
0.0
 10
184.176100
 20
52.032105
 30
0.0
 10
184.468499
 20
51.650992
 30
0.0
 10
184.652299
 20
51.207197
 30
0.0
 10
184.714998
 20
50.731004
 30
0.0
 10
184.652299
 20
50.254782
 30
0.0
 10
184.468499
 20
49.810987
 30
0.0
 10
184.176100
 20
49.429903
 30
0.0
 10
183.794998
 20
49.137492
 30
0.0
 10
183.351198
 20
48.953709
 30
0.0
 10
182.874999
 20
48.890999
 30
0.0
 10
182.398800
 20
48.953709
 30
0.0
 10
181.955000
 20
49.137492
 30
0.0
 10
181.573898
 20
49.429903
 30
0.0
 10
181.281499
 20
49.810987
 30
0.0
 10
181.097699
 20
50.254782
 30
0.0
 10
181.034998
 20
50.731004
 30
0.0
  0
LWPOLYLINE
  5
117
100
AcDbEntity
  8
0
 62
7
100
AcDbPolyline
 90
25
 70
0
 10
200.909998
 20
39.230984
 30
0.0
 10
200.972699
 20
39.707206
 30
0.0
 10
201.156499
 20
40.151001
 30
0.0
 10
201.448899
 20
40.532085
 30
0.0
 10
201.830000
 20
40.824496
 30
0.0
 10
202.273800
 20
41.008307
 30
0.0
 10
202.749999
 20
41.070989
 30
0.0
 10
203.226199
 20
41.008307
 30
0.0
 10
203.669999
 20
40.824496
 30
0.0
 10
204.051098
 20
40.532085
 30
0.0
 10
204.343500
 20
40.151001
 30
0.0
 10
204.527300
 20
39.707206
 30
0.0
 10
204.589998
 20
39.230984
 30
0.0
 10
204.527300
 20
38.754791
 30
0.0
 10
204.343500
 20
38.310996
 30
0.0
 10
204.051098
 20
37.929996
 30
0.0
 10
203.669999
 20
37.638009
 30
0.0
 10
203.226199
 20
37.454000
 30
0.0
 10
202.749999
 20
37.391008
 30
0.0
 10
202.273800
 20
37.454000
 30
0.0
 10
201.830000
 20
37.638009
 30
0.0
 10
201.448899
 20
37.929996
 30
0.0
 10
201.156499
 20
38.310996
 30
0.0
 10
200.972699
 20
38.754791
 30
0.0
 10
200.909998
 20
39.230984
 30
0.0
  0
LWPOLYLINE
  5
118
100
AcDbEntity
  8
0
 62
7
100
AcDbPolyline
 90
55
 70
0
 10
175.124999
 20
236.730996
 30
0.0
 10
175.165698
 20
236.161697
 30
0.0
 10
175.286997
 20
235.604096
 30
0.0
 10
175.486497
 20
235.069297
 30
0.0
 10
175.759999
 20
234.568395
 30
0.0
 10
176.101999
 20
234.111595
 30
0.0
 10
176.505599
 20
233.707995
 30
0.0
 10
176.962398
 20
233.365995
 30
0.0
 10
177.463298
 20
233.092497
 30
0.0
 10
177.998097
 20
232.892996
 30
0.0
 10
178.555698
 20
232.771695
 30
0.0
 10
179.124999
 20
232.730995
 30
0.0
 10
200.990000
 20
232.730995
 30
0.0
 10
200.990000
 20
173.730995
 30
0.0
 10
201.091800
 20
172.307895
 30
0.0
 10
201.395099
 20
170.913694
 30
0.0
 10
201.893698
 20
169.576796
 30
0.0
 10
202.577500
 20
168.324596
 30
0.0
 10
203.432497
 20
167.182395
 30
0.0
 10
204.441400
 20
166.173496
 30
0.0
 10
205.583999
 20
165.318495
 30
0.0
 10
206.835999
 20
164.634696
 30
0.0
 10
208.172998
 20
164.136097
 30
0.0
 10
209.566998
 20
163.832795
 30
0.0
 10
210.989999
 20
163.730995
 30
0.0
 10
229.989998
 20
163.730995
 30
0.0
 10
229.989998
 20
263.268995
 30
0.0
 10
219.989998
 20
263.268995
 30
0.0
 10
219.989998
 20
263.268995
 30
0.0
 10
210.989999
 20
263.268995
 30
0.0
 10
209.566998
 20
263.166997
 30
0.0
 10
208.172998
 20
262.863995
 30
0.0
 10
206.835999
 20
262.364995
 30
0.0
 10
205.583999
 20
261.680995
 30
0.0
 10
204.441400
 20
260.825995
 30
0.0
 10
203.432497
 20
259.816996
 30
0.0
 10
202.577500
 20
258.674996
 30
0.0
 10
201.893698
 20
257.422996
 30
0.0
 10
201.395099
 20
256.085996
 30
0.0
 10
201.091800
 20
254.691996
 30
0.0
 10
200.990000
 20
253.268995
 30
0.0
 10
200.990000
 20
243.730996
 30
0.0
 10
179.124999
 20
243.730996
 30
0.0
 10
178.555698
 20
243.689995
 30
0.0
 10
177.998097
 20
243.568995
 30
0.0
 10
177.463298
 20
243.369997
 30
0.0
 10
176.962398
 20
243.095996
 30
0.0
 10
176.505599
 20
242.753996
 30
0.0
 10
176.101999
 20
242.349995
 30
0.0
 10
175.759999
 20
241.893994
 30
0.0
 10
175.486497
 20
241.392996
 30
0.0
 10
175.286997
 20
240.857996
 30
0.0
 10
175.165698
 20
240.299995
 30
0.0
 10
175.124999
 20
239.730995
 30
0.0
 10
175.124999
 20
236.730996
 30
0.0
  0
LWPOLYLINE
  5
119
100
AcDbEntity
  8
0
 62
7
100
AcDbPolyline
 90
25
 70
0
 10
208.159999
 20
172.730997
 30
0.0
 10
208.223000
 20
173.207196
 30
0.0
 10
208.407000
 20
173.650996
 30
0.0
 10
208.698998
 20
174.032095
 30
0.0
 10
209.079998
 20
174.324497
 30
0.0
 10
209.523999
 20
174.508297
 30
0.0
 10
209.999998
 20
174.570995
 30
0.0
 10
210.475999
 20
174.508297
 30
0.0
 10
210.920000
 20
174.324497
 30
0.0
 10
211.301000
 20
174.032095
 30
0.0
 10
211.592998
 20
173.650996
 30
0.0
 10
211.776999
 20
173.207196
 30
0.0
 10
211.839999
 20
172.730997
 30
0.0
 10
211.776999
 20
172.254795
 30
0.0
 10
211.592998
 20
171.810995
 30
0.0
 10
211.301000
 20
171.429896
 30
0.0
 10
210.920000
 20
171.137497
 30
0.0
 10
210.475999
 20
170.953697
 30
0.0
 10
209.999998
 20
170.890995
 30
0.0
 10
209.523999
 20
170.953697
 30
0.0
 10
209.079998
 20
171.137497
 30
0.0
 10
208.698998
 20
171.429896
 30
0.0
 10
208.407000
 20
171.810995
 30
0.0
 10
208.223000
 20
172.254795
 30
0.0
 10
208.159999
 20
172.730997
 30
0.0
  0
LWPOLYLINE
  5
11a
100
AcDbEntity
  8
0
 62
7
100
AcDbPolyline
 90
25
 70
0
 10
208.159999
 20
222.499895
 30
0.0
 10
208.223000
 20
222.976196
 30
0.0
 10
208.407000
 20
223.419897
 30
0.0
 10
208.698998
 20
223.800996
 30
0.0
 10
209.079998
 20
224.093395
 30
0.0
 10
209.523999
 20
224.277195
 30
0.0
 10
209.999998
 20
224.339896
 30
0.0
 10
210.475999
 20
224.277195
 30
0.0
 10
210.920000
 20
224.093395
 30
0.0
 10
211.301000
 20
223.800996
 30
0.0
 10
211.592998
 20
223.419897
 30
0.0
 10
211.776999
 20
222.976196
 30
0.0
 10
211.839999
 20
222.499895
 30
0.0
 10
211.776999
 20
222.023696
 30
0.0
 10
211.592998
 20
221.579896
 30
0.0
 10
211.301000
 20
221.198896
 30
0.0
 10
210.920000
 20
220.906497
 30
0.0
 10
210.475999
 20
220.722595
 30
0.0
 10
209.999998
 20
220.659896
 30
0.0
 10
209.523999
 20
220.722595
 30
0.0
 10
209.079998
 20
220.906497
 30
0.0
 10
208.698998
 20
221.198896
 30
0.0
 10
208.407000
 20
221.579896
 30
0.0
 10
208.223000
 20
222.023696
 30
0.0
 10
208.159999
 20
222.499895
 30
0.0
  0
LWPOLYLINE
  5
11b
100
AcDbEntity
  8
0
 62
7
100
AcDbPolyline
 90
25
 70
0
 10
208.159999
 20
254.268996
 30
0.0
 10
208.223000
 20
254.744995
 30
0.0
 10
208.407000
 20
255.188995
 30
0.0
 10
208.698998
 20
255.569995
 30
0.0
 10
209.079998
 20
255.861996
 30
0.0
 10
209.523999
 20
256.045997
 30
0.0
 10
209.999998
 20
256.108994
 30
0.0
 10
210.475999
 20
256.045997
 30
0.0
 10
210.920000
 20
255.861996
 30
0.0
 10
211.301000
 20
255.569995
 30
0.0
 10
211.592998
 20
255.188995
 30
0.0
 10
211.776999
 20
254.744995
 30
0.0
 10
211.839999
 20
254.268996
 30
0.0
 10
211.776999
 20
253.792997
 30
0.0
 10
211.592998
 20
253.348997
 30
0.0
 10
211.301000
 20
252.967997
 30
0.0
 10
210.920000
 20
252.674996
 30
0.0
 10
210.475999
 20
252.491995
 30
0.0
 10
209.999998
 20
252.428994
 30
0.0
 10
209.523999
 20
252.491995
 30
0.0
 10
209.079998
 20
252.674996
 30
0.0
 10
208.698998
 20
252.967997
 30
0.0
 10
208.407000
 20
253.348997
 30
0.0
 10
208.223000
 20
253.792997
 30
0.0
 10
208.159999
 20
254.268996
 30
0.0
  0
ENDSEC
  0
SECTION
  2
OBJECTS
  0
DICTIONARY
  5
C
330
0
100
AcDbDictionary
  3
ACAD_GROUP
350
D
  3
ACAD_MLINESTYLE
350
17
  0
DICTIONARY
  5
D
330
C
100
AcDbDictionary
  0
DICTIONARY
  5
1A
330
C
100
AcDbDictionary
  0
DICTIONARY
  5
17
330
C
100
AcDbDictionary
  3
STANDARD
350
18
  0
DICTIONARY
  5
19
330
C
100
AcDbDictionary
  0
ENDSEC
  0
EOF
