  0
SECTION
  2
HEADER
  9
$ACADVER
  1
AC1014
  9
$HANDSEED
  5
FFFF
  9
$MEASUREMENT
 70
     1
  0
ENDSEC
  0
SECTION
  2
TABLES
  0
TABLE
  2
VPORT
  5
8
330
0
100
AcDbSymbolTable
 70
     4
  0
VPORT
  5
2E
330
8
100
AcDbSymbolTableRecord
100
AcDbViewportTableRecord
  2
*ACTIVE
 70
     0
 10
0.0
 20
0.0
 11
1.0
 21
1.0
 12
210.0
 22
148.5
 13
0.0
 23
0.0
 14
10.0
 24
10.0
 15
10.0
 25
10.0
 16
0.0
 26
0.0
 36
1.0
 17
0.0
 27
0.0
 37
0.0
 40
341.0
 41
1.24
 42
50.0
 43
0.0
 44
0.0
 50
0.0
 51
0.0
 71
     0
 72
   100
 73
     1
 74
     3
 75
     0
 76
     0
 77
     0
 78
     0
  0
ENDTAB
  0
TABLE
  2
LTYPE
  5
5
330
0
100
AcDbSymbolTable
 70
     1
  0
LTYPE
  5
14
330
5
100
AcDbSymbolTableRecord
100
AcDbLinetypeTableRecord
  2
BYBLOCK
 70
     0
  3

 72
    65
 73
     0
 40
0.0
  0
LTYPE
  5
15
330
5
100
AcDbSymbolTableRecord
100
AcDbLinetypeTableRecord
  2
BYLAYER
 70
     0
  3

 72
    65
 73
     0
 40
0.0
  0
LTYPE
  5
16
330
5
100
AcDbSymbolTableRecord
100
AcDbLinetypeTableRecord
  2
CONTINUOUS
 70
     0
  3
Solid line
 72
    65
 73
     0
 40
0.0
  0
ENDTAB
  0
TABLE
  2
LAYER
  5
2
100
AcDbSymbolTable
 70
1
  0
LAYER
  5
50
100
AcDbSymbolTableRecord
100
AcDbLayerTableRecord
  2
0
 70
0
  6
CONTINUOUS
  0
ENDTAB
  0
TABLE
  2
STYLE
  5
3
330
0
100
AcDbSymbolTable
 70
     1
  0
STYLE
  5
11
330
3
100
AcDbSymbolTableRecord
100
AcDbTextStyleTableRecord
  2
STANDARD
 70
     0
 40
0.0
 41
1.0
 50
0.0
 71
     0
 42
2.5
  3
txt
  4

  0
ENDTAB
  0
TABLE
  2
VIEW
  5
6
330
0
100
AcDbSymbolTable
 70
     0
  0
ENDTAB
  0
TABLE
  2
UCS
  5
7
330
0
100
AcDbSymbolTable
 70
     0
  0
ENDTAB
  0
TABLE
  2
APPID
  5
9
330
0
100
AcDbSymbolTable
 70
     2
  0
APPID
  5
12
330
9
100
AcDbSymbolTableRecord
100
AcDbRegAppTableRecord
  2
ACAD
 70
     0
  0
ENDTAB
  0
TABLE
  2
DIMSTYLE
  5
A
330
0
100
AcDbSymbolTable
 70
     1
  0
DIMSTYLE
105
27
330
A
100
AcDbSymbolTableRecord
100
AcDbDimStyleTableRecord
  2
ISO-25
 70
     0
  3

  4

  5

  6

  7

 40
1.0
 41
2.5
 42
0.625
 43
3.75
 44
1.25
 45
0.0
 46
0.0
 47
0.0
 48
0.0
140
2.5
141
2.5
142
0.0
143
0.03937007874016
144
1.0
145
0.0
146
1.0
147
0.625
 71
     0
 72
     0
 73
     0
 74
     0
 75
     0
 76
     0
 77
     1
 78
     8
170
     0
171
     3
172
     1
173
     0
174
     0
175
     0
176
     0
177
     0
178
     0
270
     2
271
     2
272
     2
273
     2
274
     3
340
11
275
     0
280
     0
281
     0
282
     0
283
     0
284
     8
285
     0
286
     0
287
     3
288
     0
  0
ENDTAB
  0
TABLE
  2
BLOCK_RECORD
  5
1
330
0
100
AcDbSymbolTable
 70
     1
  0
BLOCK_RECORD
  5
1F
330
1
100
AcDbSymbolTableRecord
100
AcDbBlockTableRecord
  2
*MODEL_SPACE
  0
BLOCK_RECORD
  5
1B
330
1
100
AcDbSymbolTableRecord
100
AcDbBlockTableRecord
  2
*PAPER_SPACE
  0
ENDTAB
  0
ENDSEC
  0
SECTION
  2
BLOCKS
  0
BLOCK
  5
20
330
1F
100
AcDbEntity
  8
0
100
AcDbBlockBegin
  2
*MODEL_SPACE
 70
     0
 10
0.0
 20
0.0
 30
0.0
  3
*MODEL_SPACE
  1

  0
ENDBLK
  5
21
330
1F
100
AcDbEntity
  8
0
100
AcDbBlockEnd
  0
BLOCK
  5
1C
330
1B
100
AcDbEntity
 67
     1
  8
0
100
AcDbBlockBegin
  2
*PAPER_SPACE
  1

  0
ENDBLK
  5
1D
330
1B
100
AcDbEntity
 67
     1
  8
0
100
AcDbBlockEnd
  0
ENDSEC
  0
SECTION
  2
ENTITIES
  0
LWPOLYLINE
  5
100
100
AcDbEntity
  8
0
 62
7
100
AcDbPolyline
 90
53
 70
0
 10
43.984997
 20
127.891972
 30
0.0
 10
45.434998
 20
128.207471
 30
0.0
 10
46.825998
 20
128.726071
 30
0.0
 10
48.127996
 20
129.437271
 30
0.0
 10
49.316197
 20
130.326573
 30
0.0
 10
50.365598
 20
131.375971
 30
0.0
 10
51.254897
 20
132.563972
 30
0.0
 10
51.966097
 20
133.866371
 30
0.0
 10
52.484697
 20
135.256871
 30
0.0
 10
52.800196
 20
136.706971
 30
0.0
 10
52.904997
 20
138.172873
 30
0.0
 10
52.904997
 20
197.787173
 30
0.0
 10
74.384298
 20
197.787173
 30
0.0
 10
74.996297
 20
197.830971
 30
0.0
 10
75.609896
 20
197.964371
 30
0.0
 10
76.198298
 20
198.183873
 30
0.0
 10
76.749396
 20
198.484772
 30
0.0
 10
77.252096
 20
198.861070
 30
0.0
 10
77.696097
 20
199.305071
 30
0.0
 10
78.072398
 20
199.807771
 30
0.0
 10
78.373297
 20
200.358872
 30
0.0
 10
78.592796
 20
200.947271
 30
0.0
 10
78.726197
 20
201.560873
 30
0.0
 10
78.769997
 20
202.172872
 30
0.0
 10
78.769997
 20
205.201173
 30
0.0
 10
78.726197
 20
205.813172
 30
0.0
 10
78.592796
 20
206.427172
 30
0.0
 10
78.373297
 20
207.015170
 30
0.0
 10
78.072398
 20
207.566173
 30
0.0
 10
77.696097
 20
208.069172
 30
0.0
 10
77.252096
 20
208.513172
 30
0.0
 10
76.749396
 20
208.889171
 30
0.0
 10
76.198298
 20
209.190172
 30
0.0
 10
75.609896
 20
209.410173
 30
0.0
 10
74.996297
 20
209.543173
 30
0.0
 10
74.384298
 20
209.587171
 30
0.0
 10
52.904997
 20
209.587171
 30
0.0
 10
52.904997
 20
217.760172
 30
0.0
 10
52.800196
 20
219.226172
 30
0.0
 10
52.484697
 20
220.677173
 30
0.0
 10
51.966097
 20
222.067171
 30
0.0
 10
51.254897
 20
223.369172
 30
0.0
 10
50.365598
 20
224.557172
 30
0.0
 10
49.316197
 20
225.607172
 30
0.0
 10
48.127996
 20
226.496172
 30
0.0
 10
46.825998
 20
227.207171
 30
0.0
 10
45.434998
 20
227.726172
 30
0.0
 10
43.984997
 20
228.041172
 30
0.0
 10
42.518996
 20
228.146173
 30
0.0
 10
23.104997
 20
228.146173
 30
0.0
 10
23.104997
 20
127.787171
 30
0.0
 10
42.518996
 20
127.787171
 30
0.0
 10
43.984997
 20
127.891972
 30
0.0
  0
LWPOLYLINE
  5
101
100
AcDbEntity
  8
0
 62
7
100
AcDbPolyline
 90
51
 70
0
 10
43.307996
 20
217.269173
 30
0.0
 10
43.124998
 20
217.304171
 30
0.0
 10
42.946997
 20
217.362171
 30
0.0
 10
42.777997
 20
217.441170
 30
0.0
 10
42.619998
 20
217.541173
 30
0.0
 10
42.475997
 20
217.661171
 30
0.0
 10
42.347998
 20
217.797171
 30
0.0
 10
42.237996
 20
217.948171
 30
0.0
 10
42.147998
 20
218.112171
 30
0.0
 10
42.078997
 20
218.286172
 30
0.0
 10
42.031996
 20
218.467172
 30
0.0
 10
42.008995
 20
218.653171
 30
0.0
 10
42.008998
 20
218.840171
 30
0.0
 10
42.031999
 20
219.025171
 30
0.0
 10
42.078997
 20
219.206171
 30
0.0
 10
42.147998
 20
219.380173
 30
0.0
 10
42.237996
 20
219.544172
 30
0.0
 10
42.347998
 20
219.695172
 30
0.0
 10
42.475997
 20
219.832171
 30
0.0
 10
42.619998
 20
219.951173
 30
0.0
 10
42.777997
 20
220.051173
 30
0.0
 10
42.946997
 20
220.131172
 30
0.0
 10
43.124998
 20
220.189171
 30
0.0
 10
43.307996
 20
220.224172
 30
0.0
 10
43.494997
 20
220.235179
 30
0.0
 10
43.681997
 20
220.224164
 30
0.0
 10
43.864998
 20
220.189171
 30
0.0
 10
44.042996
 20
220.131172
 30
0.0
 10
44.211996
 20
220.051173
 30
0.0
 10
44.369998
 20
219.951173
 30
0.0
 10
44.513997
 20
219.832171
 30
0.0
 10
44.641996
 20
219.695172
 30
0.0
 10
44.751998
 20
219.544172
 30
0.0
 10
44.841998
 20
219.380173
 30
0.0
 10
44.910996
 20
219.206171
 30
0.0
 10
44.957997
 20
219.025171
 30
0.0
 10
44.980998
 20
218.840171
 30
0.0
 10
44.980998
 20
218.653171
 30
0.0
 10
44.957997
 20
218.467172
 30
0.0
 10
44.910996
 20
218.286172
 30
0.0
 10
44.841998
 20
218.112171
 30
0.0
 10
44.751998
 20
217.948171
 30
0.0
 10
44.641996
 20
217.797171
 30
0.0
 10
44.513997
 20
217.661171
 30
0.0
 10
44.369998
 20
217.541173
 30
0.0
 10
44.211996
 20
217.441170
 30
0.0
 10
44.042996
 20
217.362171
 30
0.0
 10
43.864998
 20
217.304171
 30
0.0
 10
43.681997
 20
217.269173
 30
0.0
 10
43.494997
 20
217.257178
 30
0.0
 10
43.307996
 20
217.269167
 30
0.0
  0
LWPOLYLINE
  5
102
100
AcDbEntity
  8
0
 62
7
100
AcDbPolyline
 90
51
 70
0
 10
43.307996
 20
185.489271
 30
0.0
 10
43.124998
 20
185.524371
 30
0.0
 10
42.946997
 20
185.582072
 30
0.0
 10
42.777997
 20
185.661771
 30
0.0
 10
42.619998
 20
185.761971
 30
0.0
 10
42.475997
 20
185.881171
 30
0.0
 10
42.347998
 20
186.017473
 30
0.0
 10
42.237996
 20
186.168871
 30
0.0
 10
42.147998
 20
186.332571
 30
0.0
 10
42.078997
 20
186.506572
 30
0.0
 10
42.031996
 20
186.687770
 30
0.0
 10
42.008995
 20
186.873371
 30
0.0
 10
42.008998
 20
187.060171
 30
0.0
 10
42.031999
 20
187.245772
 30
0.0
 10
42.078997
 20
187.426973
 30
0.0
 10
42.147998
 20
187.600971
 30
0.0
 10
42.237996
 20
187.764671
 30
0.0
 10
42.347998
 20
187.916072
 30
0.0
 10
42.475997
 20
188.052371
 30
0.0
 10
42.619998
 20
188.171571
 30
0.0
 10
42.777997
 20
188.271771
 30
0.0
 10
42.946997
 20
188.351372
 30
0.0
 10
43.124998
 20
188.409171
 30
0.0
 10
43.307996
 20
188.444172
 30
0.0
 10
43.494997
 20
188.455969
 30
0.0
 10
43.681997
 20
188.444175
 30
0.0
 10
43.864998
 20
188.409171
 30
0.0
 10
44.042996
 20
188.351372
 30
0.0
 10
44.211996
 20
188.271771
 30
0.0
 10
44.369998
 20
188.171571
 30
0.0
 10
44.513997
 20
188.052371
 30
0.0
 10
44.641996
 20
187.916072
 30
0.0
 10
44.751998
 20
187.764671
 30
0.0
 10
44.841998
 20
187.600872
 30
0.0
 10
44.910996
 20
187.426973
 30
0.0
 10
44.957997
 20
187.245772
 30
0.0
 10
44.980998
 20
187.060171
 30
0.0
 10
44.980998
 20
186.873371
 30
0.0
 10
44.957997
 20
186.687770
 30
0.0
 10
44.910996
 20
186.506572
 30
0.0
 10
44.841998
 20
186.332673
 30
0.0
 10
44.751998
 20
186.168871
 30
0.0
 10
44.641996
 20
186.017473
 30
0.0
 10
44.513997
 20
185.881171
 30
0.0
 10
44.369998
 20
185.761971
 30
0.0
 10
44.211996
 20
185.661771
 30
0.0
 10
44.042996
 20
185.582171
 30
0.0
 10
43.864998
 20
185.524371
 30
0.0
 10
43.681997
 20
185.489271
 30
0.0
 10
43.494997
 20
185.477559
 30
0.0
 10
43.307996
 20
185.489283
 30
0.0
  0
LWPOLYLINE
  5
103
100
AcDbEntity
  8
0
 62
7
100
AcDbPolyline
 90
51
 70
0
 10
43.307996
 20
135.709671
 30
0.0
 10
43.124998
 20
135.744771
 30
0.0
 10
42.946997
 20
135.802472
 30
0.0
 10
42.777997
 20
135.882171
 30
0.0
 10
42.619998
 20
135.982371
 30
0.0
 10
42.475997
 20
136.101571
 30
0.0
 10
42.347998
 20
136.237873
 30
0.0
 10
42.237996
 20
136.389271
 30
0.0
 10
42.147998
 20
136.552971
 30
0.0
 10
42.078997
 20
136.726972
 30
0.0
 10
42.031996
 20
136.908170
 30
0.0
 10
42.008995
 20
137.093771
 30
0.0
 10
42.008998
 20
137.280571
 30
0.0
 10
42.031999
 20
137.466172
 30
0.0
 10
42.078997
 20
137.647372
 30
0.0
 10
42.147998
 20
137.821371
 30
0.0
 10
42.237996
 20
137.985071
 30
0.0
 10
42.347998
 20
138.136370
 30
0.0
 10
42.475997
 20
138.272771
 30
0.0
 10
42.619998
 20
138.391971
 30
0.0
 10
42.777997
 20
138.492171
 30
0.0
 10
42.946997
 20
138.571772
 30
0.0
 10
43.124998
 20
138.629571
 30
0.0
 10
43.307996
 20
138.664572
 30
0.0
 10
43.494997
 20
138.676369
 30
0.0
 10
43.681997
 20
138.664575
 30
0.0
 10
43.864998
 20
138.629571
 30
0.0
 10
44.042996
 20
138.571772
 30
0.0
 10
44.211996
 20
138.492171
 30
0.0
 10
44.369998
 20
138.391971
 30
0.0
 10
44.513997
 20
138.272771
 30
0.0
 10
44.641996
 20
138.136472
 30
0.0
 10
44.751998
 20
137.985071
 30
0.0
 10
44.841998
 20
137.821272
 30
0.0
 10
44.910996
 20
137.647372
 30
0.0
 10
44.957997
 20
137.466172
 30
0.0
 10
44.980998
 20
137.280571
 30
0.0
 10
44.980998
 20
137.093771
 30
0.0
 10
44.957997
 20
136.908170
 30
0.0
 10
44.910996
 20
136.726972
 30
0.0
 10
44.841998
 20
136.553073
 30
0.0
 10
44.751998
 20
136.389271
 30
0.0
 10
44.641996
 20
136.237873
 30
0.0
 10
44.513997
 20
136.101571
 30
0.0
 10
44.369998
 20
135.982371
 30
0.0
 10
44.211996
 20
135.882171
 30
0.0
 10
44.042996
 20
135.802570
 30
0.0
 10
43.864998
 20
135.744771
 30
0.0
 10
43.681997
 20
135.709671
 30
0.0
 10
43.494997
 20
135.697959
 30
0.0
 10
43.307996
 20
135.709683
 30
0.0
  0
LWPOLYLINE
  5
104
100
AcDbEntity
  8
0
 62
7
100
AcDbPolyline
 90
53
 70
0
 10
273.884997
 20
228.146173
 30
0.0
 10
254.470998
 20
228.146173
 30
0.0
 10
253.004997
 20
228.041172
 30
0.0
 10
251.554996
 20
227.726172
 30
0.0
 10
250.163996
 20
227.207171
 30
0.0
 10
248.861998
 20
226.496172
 30
0.0
 10
247.673797
 20
225.607172
 30
0.0
 10
246.624396
 20
224.557172
 30
0.0
 10
245.735097
 20
223.369172
 30
0.0
 10
245.023897
 20
222.067171
 30
0.0
 10
244.505297
 20
220.677173
 30
0.0
 10
244.189798
 20
219.226172
 30
0.0
 10
244.084997
 20
217.760172
 30
0.0
 10
244.084997
 20
209.587171
 30
0.0
 10
222.605696
 20
209.587171
 30
0.0
 10
221.993697
 20
209.543173
 30
0.0
 10
221.380098
 20
209.410173
 30
0.0
 10
220.791696
 20
209.190172
 30
0.0
 10
220.240598
 20
208.889171
 30
0.0
 10
219.737898
 20
208.513172
 30
0.0
 10
219.293897
 20
208.069172
 30
0.0
 10
218.917596
 20
207.566173
 30
0.0
 10
218.616697
 20
207.015170
 30
0.0
 10
218.397198
 20
206.427172
 30
0.0
 10
218.263797
 20
205.813172
 30
0.0
 10
218.219996
 20
205.201173
 30
0.0
 10
218.219996
 20
202.172872
 30
0.0
 10
218.263797
 20
201.560873
 30
0.0
 10
218.397198
 20
200.947271
 30
0.0
 10
218.616697
 20
200.358872
 30
0.0
 10
218.917596
 20
199.807771
 30
0.0
 10
219.293897
 20
199.305071
 30
0.0
 10
219.737898
 20
198.861070
 30
0.0
 10
220.240598
 20
198.484772
 30
0.0
 10
220.791696
 20
198.183873
 30
0.0
 10
221.380098
 20
197.964371
 30
0.0
 10
221.993697
 20
197.830971
 30
0.0
 10
222.605696
 20
197.787173
 30
0.0
 10
244.084997
 20
197.787173
 30
0.0
 10
244.084997
 20
138.172873
 30
0.0
 10
244.189798
 20
136.706971
 30
0.0
 10
244.505297
 20
135.256871
 30
0.0
 10
245.023897
 20
133.866371
 30
0.0
 10
245.735097
 20
132.563972
 30
0.0
 10
246.624396
 20
131.375971
 30
0.0
 10
247.673797
 20
130.326573
 30
0.0
 10
248.861998
 20
129.437271
 30
0.0
 10
250.163996
 20
128.726071
 30
0.0
 10
251.554996
 20
128.207471
 30
0.0
 10
253.004997
 20
127.891972
 30
0.0
 10
254.470998
 20
127.787171
 30
0.0
 10
273.884997
 20
127.787171
 30
0.0
 10
273.884997
 20
228.146173
 30
0.0
  0
LWPOLYLINE
  5
105
100
AcDbEntity
  8
0
 62
7
100
AcDbPolyline
 90
51
 70
0
 10
253.307997
 20
217.269173
 30
0.0
 10
253.124995
 20
217.304171
 30
0.0
 10
252.946998
 20
217.362171
 30
0.0
 10
252.777998
 20
217.441170
 30
0.0
 10
252.619995
 20
217.541173
 30
0.0
 10
252.475997
 20
217.661171
 30
0.0
 10
252.347998
 20
217.797171
 30
0.0
 10
252.237996
 20
217.948171
 30
0.0
 10
252.147996
 20
218.112171
 30
0.0
 10
252.078998
 20
218.286172
 30
0.0
 10
252.031997
 20
218.467172
 30
0.0
 10
252.008996
 20
218.653171
 30
0.0
 10
252.008996
 20
218.840171
 30
0.0
 10
252.031997
 20
219.025171
 30
0.0
 10
252.078998
 20
219.206171
 30
0.0
 10
252.147996
 20
219.380173
 30
0.0
 10
252.237996
 20
219.544172
 30
0.0
 10
252.347998
 20
219.695172
 30
0.0
 10
252.475997
 20
219.832171
 30
0.0
 10
252.619995
 20
219.951173
 30
0.0
 10
252.777998
 20
220.051173
 30
0.0
 10
252.946998
 20
220.131172
 30
0.0
 10
253.124995
 20
220.189171
 30
0.0
 10
253.307997
 20
220.224172
 30
0.0
 10
253.494997
 20
220.235179
 30
0.0
 10
253.681998
 20
220.224164
 30
0.0
 10
253.864996
 20
220.189171
 30
0.0
 10
254.042997
 20
220.131172
 30
0.0
 10
254.211997
 20
220.051173
 30
0.0
 10
254.369996
 20
219.951173
 30
0.0
 10
254.513997
 20
219.832171
 30
0.0
 10
254.641996
 20
219.695172
 30
0.0
 10
254.751998
 20
219.544172
 30
0.0
 10
254.841996
 20
219.380173
 30
0.0
 10
254.910996
 20
219.206171
 30
0.0
 10
254.957998
 20
219.025171
 30
0.0
 10
254.980999
 20
218.840171
 30
0.0
 10
254.980996
 20
218.653171
 30
0.0
 10
254.957995
 20
218.467172
 30
0.0
 10
254.910996
 20
218.286172
 30
0.0
 10
254.841996
 20
218.112171
 30
0.0
 10
254.751998
 20
217.948171
 30
0.0
 10
254.641996
 20
217.797171
 30
0.0
 10
254.513997
 20
217.661171
 30
0.0
 10
254.369996
 20
217.541173
 30
0.0
 10
254.211997
 20
217.441170
 30
0.0
 10
254.042997
 20
217.362171
 30
0.0
 10
253.864996
 20
217.304171
 30
0.0
 10
253.681998
 20
217.269173
 30
0.0
 10
253.494997
 20
217.257178
 30
0.0
 10
253.307997
 20
217.269167
 30
0.0
  0
LWPOLYLINE
  5
106
100
AcDbEntity
  8
0
 62
7
100
AcDbPolyline
 90
51
 70
0
 10
253.307997
 20
185.489271
 30
0.0
 10
253.124995
 20
185.524371
 30
0.0
 10
252.946998
 20
185.582171
 30
0.0
 10
252.777998
 20
185.661771
 30
0.0
 10
252.619995
 20
185.761971
 30
0.0
 10
252.475997
 20
185.881171
 30
0.0
 10
252.347998
 20
186.017473
 30
0.0
 10
252.237996
 20
186.168871
 30
0.0
 10
252.147996
 20
186.332673
 30
0.0
 10
252.078998
 20
186.506572
 30
0.0
 10
252.031997
 20
186.687770
 30
0.0
 10
252.008996
 20
186.873371
 30
0.0
 10
252.008996
 20
187.060171
 30
0.0
 10
252.031997
 20
187.245772
 30
0.0
 10
252.078998
 20
187.426973
 30
0.0
 10
252.147996
 20
187.600872
 30
0.0
 10
252.237996
 20
187.764671
 30
0.0
 10
252.347998
 20
187.916072
 30
0.0
 10
252.475997
 20
188.052371
 30
0.0
 10
252.619995
 20
188.171571
 30
0.0
 10
252.777998
 20
188.271771
 30
0.0
 10
252.946998
 20
188.351372
 30
0.0
 10
253.124995
 20
188.409171
 30
0.0
 10
253.307997
 20
188.444172
 30
0.0
 10
253.494997
 20
188.455969
 30
0.0
 10
253.681998
 20
188.444175
 30
0.0
 10
253.864996
 20
188.409171
 30
0.0
 10
254.042997
 20
188.351372
 30
0.0
 10
254.211997
 20
188.271771
 30
0.0
 10
254.369996
 20
188.171571
 30
0.0
 10
254.513997
 20
188.052371
 30
0.0
 10
254.641996
 20
187.916072
 30
0.0
 10
254.751998
 20
187.764671
 30
0.0
 10
254.841996
 20
187.600971
 30
0.0
 10
254.910996
 20
187.426973
 30
0.0
 10
254.957998
 20
187.245772
 30
0.0
 10
254.980999
 20
187.060171
 30
0.0
 10
254.980996
 20
186.873371
 30
0.0
 10
254.957995
 20
186.687770
 30
0.0
 10
254.910996
 20
186.506572
 30
0.0
 10
254.841996
 20
186.332571
 30
0.0
 10
254.751998
 20
186.168871
 30
0.0
 10
254.641996
 20
186.017473
 30
0.0
 10
254.513997
 20
185.881171
 30
0.0
 10
254.369996
 20
185.761971
 30
0.0
 10
254.211997
 20
185.661771
 30
0.0
 10
254.042997
 20
185.582072
 30
0.0
 10
253.864996
 20
185.524371
 30
0.0
 10
253.681998
 20
185.489271
 30
0.0
 10
253.494997
 20
185.477559
 30
0.0
 10
253.307997
 20
185.489283
 30
0.0
  0
LWPOLYLINE
  5
107
100
AcDbEntity
  8
0
 62
7
100
AcDbPolyline
 90
51
 70
0
 10
253.307997
 20
135.709671
 30
0.0
 10
253.124995
 20
135.744771
 30
0.0
 10
252.946998
 20
135.802570
 30
0.0
 10
252.777998
 20
135.882171
 30
0.0
 10
252.619995
 20
135.982371
 30
0.0
 10
252.475997
 20
136.101571
 30
0.0
 10
252.347998
 20
136.237873
 30
0.0
 10
252.237996
 20
136.389271
 30
0.0
 10
252.147996
 20
136.553073
 30
0.0
 10
252.078998
 20
136.726972
 30
0.0
 10
252.031997
 20
136.908170
 30
0.0
 10
252.008996
 20
137.093771
 30
0.0
 10
252.008996
 20
137.280571
 30
0.0
 10
252.031997
 20
137.466172
 30
0.0
 10
252.078998
 20
137.647372
 30
0.0
 10
252.147996
 20
137.821272
 30
0.0
 10
252.237996
 20
137.985071
 30
0.0
 10
252.347998
 20
138.136472
 30
0.0
 10
252.475997
 20
138.272771
 30
0.0
 10
252.619995
 20
138.391971
 30
0.0
 10
252.777998
 20
138.492171
 30
0.0
 10
252.946998
 20
138.571772
 30
0.0
 10
253.124995
 20
138.629571
 30
0.0
 10
253.307997
 20
138.664572
 30
0.0
 10
253.494997
 20
138.676369
 30
0.0
 10
253.681998
 20
138.664575
 30
0.0
 10
253.864996
 20
138.629571
 30
0.0
 10
254.042997
 20
138.571772
 30
0.0
 10
254.211997
 20
138.492171
 30
0.0
 10
254.369996
 20
138.391971
 30
0.0
 10
254.513997
 20
138.272771
 30
0.0
 10
254.641996
 20
138.136370
 30
0.0
 10
254.751998
 20
137.985071
 30
0.0
 10
254.841996
 20
137.821371
 30
0.0
 10
254.910996
 20
137.647372
 30
0.0
 10
254.957998
 20
137.466172
 30
0.0
 10
254.980999
 20
137.280571
 30
0.0
 10
254.980996
 20
137.093771
 30
0.0
 10
254.957995
 20
136.908170
 30
0.0
 10
254.910996
 20
136.726972
 30
0.0
 10
254.841996
 20
136.552971
 30
0.0
 10
254.751998
 20
136.389271
 30
0.0
 10
254.641996
 20
136.237873
 30
0.0
 10
254.513997
 20
136.101571
 30
0.0
 10
254.369996
 20
135.982371
 30
0.0
 10
254.211997
 20
135.882171
 30
0.0
 10
254.042997
 20
135.802472
 30
0.0
 10
253.864996
 20
135.744771
 30
0.0
 10
253.681998
 20
135.709671
 30
0.0
 10
253.494997
 20
135.697959
 30
0.0
 10
253.307997
 20
135.709683
 30
0.0
  0
LWPOLYLINE
  5
108
100
AcDbEntity
  8
0
 62
7
100
AcDbPolyline
 90
57
 70
0
 10
165.394998
 20
175.798071
 30
0.0
 10
171.365497
 20
175.798071
 30
0.0
 10
172.100697
 20
175.890871
 30
0.0
 10
172.818397
 20
176.075171
 30
0.0
 10
173.507397
 20
176.347972
 30
0.0
 10
174.156796
 20
176.704972
 30
0.0
 10
174.756298
 20
177.140571
 30
0.0
 10
175.296497
 20
177.647772
 30
0.0
 10
175.768796
 20
178.218773
 30
0.0
 10
176.165897
 20
178.844471
 30
0.0
 10
176.481396
 20
179.514971
 30
0.0
 10
176.710396
 20
180.219672
 30
0.0
 10
176.849196
 20
180.947571
 30
0.0
 10
176.895797
 20
181.687171
 30
0.0
 10
176.849196
 20
182.426771
 30
0.0
 10
176.710396
 20
183.154673
 30
0.0
 10
176.481396
 20
183.859370
 30
0.0
 10
176.165897
 20
184.529871
 30
0.0
 10
175.768796
 20
185.155572
 30
0.0
 10
175.296497
 20
185.726572
 30
0.0
 10
174.756897
 20
186.233173
 30
0.0
 10
152.236647
 20
202.748072
 30
0.0
 10
151.656788
 20
203.169370
 30
0.0
 10
151.007437
 20
203.526373
 30
0.0
 10
150.318436
 20
203.799172
 30
0.0
 10
149.600697
 20
203.983471
 30
0.0
 10
148.865497
 20
204.076272
 30
0.0
 10
148.124497
 20
204.076272
 30
0.0
 10
147.389297
 20
203.983471
 30
0.0
 10
146.671558
 20
203.799172
 30
0.0
 10
145.982557
 20
203.526373
 30
0.0
 10
145.333206
 20
203.169370
 30
0.0
 10
144.753347
 20
202.748072
 30
0.0
 10
122.233097
 20
186.233173
 30
0.0
 10
121.693497
 20
185.726572
 30
0.0
 10
121.221198
 20
185.155572
 30
0.0
 10
120.824097
 20
184.529871
 30
0.0
 10
120.508598
 20
183.859370
 30
0.0
 10
120.279597
 20
183.154673
 30
0.0
 10
120.140798
 20
182.426771
 30
0.0
 10
120.094197
 20
181.687171
 30
0.0
 10
120.140798
 20
180.947571
 30
0.0
 10
120.279597
 20
180.219672
 30
0.0
 10
120.508598
 20
179.514971
 30
0.0
 10
120.824097
 20
178.844471
 30
0.0
 10
121.221198
 20
178.218773
 30
0.0
 10
121.693497
 20
177.647772
 30
0.0
 10
122.233698
 20
177.140571
 30
0.0
 10
122.833198
 20
176.704972
 30
0.0
 10
123.482597
 20
176.347972
 30
0.0
 10
124.171597
 20
176.075171
 30
0.0
 10
124.889297
 20
175.890871
 30
0.0
 10
125.624497
 20
175.798071
 30
0.0
 10
131.594998
 20
175.798071
 30
0.0
 10
131.594998
 20
175.787177
 30
0.0
 10
165.394998
 20
175.787171
 30
0.0
 10
165.394998
 20
175.798065
 30
0.0
  0
LWPOLYLINE
  5
109
100
AcDbEntity
  8
0
 62
7
100
AcDbPolyline
 90
51
 70
0
 10
148.495012
 20
196.697973
 30
0.0
 10
148.308337
 20
196.709685
 30
0.0
 10
148.124621
 20
196.744771
 30
0.0
 10
147.946793
 20
196.802573
 30
0.0
 10
147.777575
 20
196.882171
 30
0.0
 10
147.619678
 20
196.982371
 30
0.0
 10
147.475606
 20
197.101573
 30
0.0
 10
147.347576
 20
197.237872
 30
0.0
 10
147.237608
 20
197.389273
 30
0.0
 10
147.147537
 20
197.553072
 30
0.0
 10
147.078686
 20
197.726972
 30
0.0
 10
147.032167
 20
197.908172
 30
0.0
 10
147.008715
 20
198.093773
 30
0.0
 10
147.008726
 20
198.280570
 30
0.0
 10
147.032178
 20
198.466171
 30
0.0
 10
147.078686
 20
198.647372
 30
0.0
 10
147.147537
 20
198.821271
 30
0.0
 10
147.237608
 20
198.985070
 30
0.0
 10
147.347576
 20
199.136471
 30
0.0
 10
147.475606
 20
199.272771
 30
0.0
 10
147.619647
 20
199.391973
 30
0.0
 10
147.777558
 20
199.492173
 30
0.0
 10
147.946855
 20
199.571771
 30
0.0
 10
148.124621
 20
199.629573
 30
0.0
 10
148.308337
 20
199.664571
 30
0.0
 10
148.494981
 20
199.676368
 30
0.0
 10
148.681657
 20
199.664574
 30
0.0
 10
148.865373
 20
199.629573
 30
0.0
 10
149.043215
 20
199.571771
 30
0.0
 10
149.212373
 20
199.492173
 30
0.0
 10
149.370347
 20
199.391973
 30
0.0
 10
149.514388
 20
199.272771
 30
0.0
 10
149.642446
 20
199.136373
 30
0.0
 10
149.752417
 20
198.985070
 30
0.0
 10
149.842426
 20
198.821373
 30
0.0
 10
149.911308
 20
198.647372
 30
0.0
 10
149.957827
 20
198.466171
 30
0.0
 10
149.981279
 20
198.280570
 30
0.0
 10
149.981268
 20
198.093773
 30
0.0
 10
149.957815
 20
197.908172
 30
0.0
 10
149.911308
 20
197.726972
 30
0.0
 10
149.842426
 20
197.552970
 30
0.0
 10
149.752417
 20
197.389273
 30
0.0
 10
149.642446
 20
197.237872
 30
0.0
 10
149.514388
 20
197.101573
 30
0.0
 10
149.370316
 20
196.982371
 30
0.0
 10
149.212464
 20
196.882171
 30
0.0
 10
149.043170
 20
196.802471
 30
0.0
 10
148.865373
 20
196.744771
 30
0.0
 10
148.681674
 20
196.709671
 30
0.0
 10
148.495012
 20
196.697958
 30
0.0
  0
LWPOLYLINE
  5
10a
100
AcDbEntity
  8
0
 62
7
100
AcDbPolyline
 90
51
 70
0
 10
125.994998
 20
180.197972
 30
0.0
 10
125.808297
 20
180.209684
 30
0.0
 10
125.624598
 20
180.244773
 30
0.0
 10
125.446798
 20
180.302572
 30
0.0
 10
125.277598
 20
180.382172
 30
0.0
 10
125.119697
 20
180.482373
 30
0.0
 10
124.975597
 20
180.601572
 30
0.0
 10
124.847598
 20
180.737871
 30
0.0
 10
124.737597
 20
180.889272
 30
0.0
 10
124.647497
 20
181.053071
 30
0.0
 10
124.578697
 20
181.226971
 30
0.0
 10
124.532198
 20
181.408172
 30
0.0
 10
124.508689
 20
181.593772
 30
0.0
 10
124.508697
 20
181.780572
 30
0.0
 10
124.532207
 20
181.966173
 30
0.0
 10
124.578697
 20
182.147371
 30
0.0
 10
124.647497
 20
182.321271
 30
0.0
 10
124.737597
 20
182.485072
 30
0.0
 10
124.847598
 20
182.636470
 30
0.0
 10
124.975597
 20
182.772772
 30
0.0
 10
125.119598
 20
182.891972
 30
0.0
 10
125.277598
 20
182.992172
 30
0.0
 10
125.446897
 20
183.071773
 30
0.0
 10
125.624598
 20
183.129572
 30
0.0
 10
125.808297
 20
183.164570
 30
0.0
 10
125.994998
 20
183.176367
 30
0.0
 10
126.181697
 20
183.164576
 30
0.0
 10
126.365398
 20
183.129572
 30
0.0
 10
126.543198
 20
183.071773
 30
0.0
 10
126.712396
 20
182.992172
 30
0.0
 10
126.870398
 20
182.891972
 30
0.0
 10
127.014396
 20
182.772772
 30
0.0
 10
127.142497
 20
182.636372
 30
0.0
 10
127.252397
 20
182.485072
 30
0.0
 10
127.342398
 20
182.321372
 30
0.0
 10
127.411297
 20
182.147371
 30
0.0
 10
127.457798
 20
181.966173
 30
0.0
 10
127.481307
 20
181.780572
 30
0.0
 10
127.481296
 20
181.593772
 30
0.0
 10
127.457787
 20
181.408172
 30
0.0
 10
127.411297
 20
181.226971
 30
0.0
 10
127.342398
 20
181.052972
 30
0.0
 10
127.252397
 20
180.889272
 30
0.0
 10
127.142497
 20
180.737871
 30
0.0
 10
127.014396
 20
180.601572
 30
0.0
 10
126.870296
 20
180.482373
 30
0.0
 10
126.712497
 20
180.382172
 30
0.0
 10
126.543198
 20
180.302473
 30
0.0
 10
126.365398
 20
180.244773
 30
0.0
 10
126.181697
 20
180.209673
 30
0.0
 10
125.994998
 20
180.197960
 30
0.0
  0
LWPOLYLINE
  5
10b
100
AcDbEntity
  8
0
 62
7
100
AcDbPolyline
 90
51
 70
0
 10
170.994996
 20
180.197972
 30
0.0
 10
170.808297
 20
180.209684
 30
0.0
 10
170.624596
 20
180.244773
 30
0.0
 10
170.446796
 20
180.302572
 30
0.0
 10
170.277598
 20
180.382172
 30
0.0
 10
170.119698
 20
180.482373
 30
0.0
 10
169.975598
 20
180.601572
 30
0.0
 10
169.847596
 20
180.737871
 30
0.0
 10
169.737597
 20
180.889272
 30
0.0
 10
169.647497
 20
181.053071
 30
0.0
 10
169.578697
 20
181.226971
 30
0.0
 10
169.532198
 20
181.408172
 30
0.0
 10
169.508689
 20
181.593772
 30
0.0
 10
169.508698
 20
181.780572
 30
0.0
 10
169.532207
 20
181.966173
 30
0.0
 10
169.578697
 20
182.147371
 30
0.0
 10
169.647497
 20
182.321271
 30
0.0
 10
169.737597
 20
182.485072
 30
0.0
 10
169.847596
 20
182.636470
 30
0.0
 10
169.975598
 20
182.772772
 30
0.0
 10
170.119596
 20
182.891972
 30
0.0
 10
170.277496
 20
182.992172
 30
0.0
 10
170.446796
 20
183.071773
 30
0.0
 10
170.624596
 20
183.129572
 30
0.0
 10
170.808297
 20
183.164570
 30
0.0
 10
170.994996
 20
183.176367
 30
0.0
 10
171.181697
 20
183.164576
 30
0.0
 10
171.365398
 20
183.129572
 30
0.0
 10
171.543198
 20
183.071773
 30
0.0
 10
171.712396
 20
182.992172
 30
0.0
 10
171.870398
 20
182.891972
 30
0.0
 10
172.014396
 20
182.772772
 30
0.0
 10
172.142398
 20
182.636372
 30
0.0
 10
172.252397
 20
182.485072
 30
0.0
 10
172.342398
 20
182.321372
 30
0.0
 10
172.411297
 20
182.147371
 30
0.0
 10
172.457796
 20
181.966173
 30
0.0
 10
172.481305
 20
181.780572
 30
0.0
 10
172.481296
 20
181.593772
 30
0.0
 10
172.457787
 20
181.408172
 30
0.0
 10
172.411297
 20
181.226971
 30
0.0
 10
172.342398
 20
181.052972
 30
0.0
 10
172.252397
 20
180.889272
 30
0.0
 10
172.142398
 20
180.737871
 30
0.0
 10
172.014396
 20
180.601572
 30
0.0
 10
171.870297
 20
180.482373
 30
0.0
 10
171.712498
 20
180.382172
 30
0.0
 10
171.543198
 20
180.302473
 30
0.0
 10
171.365398
 20
180.244773
 30
0.0
 10
171.181697
 20
180.209673
 30
0.0
 10
170.994996
 20
180.197960
 30
0.0
  0
LWPOLYLINE
  5
10c
100
AcDbEntity
  8
0
 62
7
100
AcDbPolyline
 90
5
 70
0
 10
273.894996
 20
117.087173
 30
0.0
 10
170.594996
 20
117.087173
 30
0.0
 10
170.594996
 20
51.787165
 30
0.0
 10
273.894996
 20
51.787165
 30
0.0
 10
273.894996
 20
117.087173
 30
0.0
  0
LWPOLYLINE
  5
10d
100
AcDbEntity
  8
0
 62
7
100
AcDbPolyline
 90
51
 70
0
 10
258.401998
 20
102.700901
 30
0.0
 10
258.215996
 20
102.724354
 30
0.0
 10
258.034996
 20
102.770861
 30
0.0
 10
257.860998
 20
102.839712
 30
0.0
 10
257.696995
 20
102.929780
 30
0.0
 10
257.545998
 20
103.039751
 30
0.0
 10
257.408996
 20
103.167781
 30
0.0
 10
257.289997
 20
103.311853
 30
0.0
 10
257.189997
 20
103.469750
 30
0.0
 10
257.109996
 20
103.638968
 30
0.0
 10
257.052998
 20
103.816793
 30
0.0
 10
257.017997
 20
104.000512
 30
0.0
 10
257.006003
 20
104.187125
 30
0.0
 10
257.017991
 20
104.373832
 30
0.0
 10
257.052998
 20
104.557548
 30
0.0
 10
257.109996
 20
104.735390
 30
0.0
 10
257.189997
 20
104.904548
 30
0.0
 10
257.289997
 20
105.062522
 30
0.0
 10
257.408996
 20
105.206563
 30
0.0
 10
257.545998
 20
105.334621
 30
0.0
 10
257.696995
 20
105.444592
 30
0.0
 10
257.860998
 20
105.534601
 30
0.0
 10
258.034996
 20
105.603483
 30
0.0
 10
258.215996
 20
105.650002
 30
0.0
 10
258.401998
 20
105.673426
 30
0.0
 10
258.587996
 20
105.673440
 30
0.0
 10
258.773998
 20
105.650016
 30
0.0
 10
258.954998
 20
105.603483
 30
0.0
 10
259.128997
 20
105.534601
 30
0.0
 10
259.292996
 20
105.444592
 30
0.0
 10
259.443996
 20
105.334621
 30
0.0
 10
259.580998
 20
105.206563
 30
0.0
 10
259.699997
 20
105.062491
 30
0.0
 10
259.799997
 20
104.904639
 30
0.0
 10
259.879996
 20
104.735345
 30
0.0
 10
259.936996
 20
104.557548
 30
0.0
 10
259.971997
 20
104.373847
 30
0.0
 10
259.983992
 20
104.187157
 30
0.0
 10
259.972003
 20
104.000512
 30
0.0
 10
259.936996
 20
103.816793
 30
0.0
 10
259.879996
 20
103.639030
 30
0.0
 10
259.799997
 20
103.469734
 30
0.0
 10
259.699997
 20
103.311822
 30
0.0
 10
259.580998
 20
103.167781
 30
0.0
 10
259.443996
 20
103.039751
 30
0.0
 10
259.292996
 20
102.929780
 30
0.0
 10
259.128997
 20
102.839712
 30
0.0
 10
258.954998
 20
102.770861
 30
0.0
 10
258.773998
 20
102.724342
 30
0.0
 10
258.587996
 20
102.700890
 30
0.0
 10
258.401998
 20
102.700901
 30
0.0
  0
LWPOLYLINE
  5
10e
100
AcDbEntity
  8
0
 62
7
100
AcDbPolyline
 90
51
 70
0
 10
175.901598
 20
102.700901
 30
0.0
 10
175.715998
 20
102.724354
 30
0.0
 10
175.534797
 20
102.770861
 30
0.0
 10
175.360897
 20
102.839712
 30
0.0
 10
175.197098
 20
102.929780
 30
0.0
 10
175.045697
 20
103.039751
 30
0.0
 10
174.909398
 20
103.167781
 30
0.0
 10
174.790196
 20
103.311853
 30
0.0
 10
174.689996
 20
103.469750
 30
0.0
 10
174.610398
 20
103.638968
 30
0.0
 10
174.552596
 20
103.816793
 30
0.0
 10
174.517496
 20
104.000512
 30
0.0
 10
174.505812
 20
104.187125
 30
0.0
 10
174.517482
 20
104.373832
 30
0.0
 10
174.552596
 20
104.557548
 30
0.0
 10
174.610398
 20
104.735390
 30
0.0
 10
174.689996
 20
104.904548
 30
0.0
 10
174.790196
 20
105.062522
 30
0.0
 10
174.909398
 20
105.206563
 30
0.0
 10
175.045697
 20
105.334621
 30
0.0
 10
175.197098
 20
105.444592
 30
0.0
 10
175.360798
 20
105.534601
 30
0.0
 10
175.534797
 20
105.603483
 30
0.0
 10
175.715998
 20
105.650002
 30
0.0
 10
175.901598
 20
105.673426
 30
0.0
 10
176.088398
 20
105.673440
 30
0.0
 10
176.273996
 20
105.650016
 30
0.0
 10
176.455197
 20
105.603483
 30
0.0
 10
176.629198
 20
105.534601
 30
0.0
 10
176.792898
 20
105.444592
 30
0.0
 10
176.944198
 20
105.334621
 30
0.0
 10
177.080596
 20
105.206563
 30
0.0
 10
177.199798
 20
105.062491
 30
0.0
 10
177.299998
 20
104.904639
 30
0.0
 10
177.379596
 20
104.735345
 30
0.0
 10
177.437398
 20
104.557548
 30
0.0
 10
177.472396
 20
104.373847
 30
0.0
 10
177.484193
 20
104.187157
 30
0.0
 10
177.472399
 20
104.000512
 30
0.0
 10
177.437398
 20
103.816793
 30
0.0
 10
177.379596
 20
103.639030
 30
0.0
 10
177.299998
 20
103.469734
 30
0.0
 10
177.199798
 20
103.311822
 30
0.0
 10
177.080596
 20
103.167781
 30
0.0
 10
176.944297
 20
103.039751
 30
0.0
 10
176.792898
 20
102.929780
 30
0.0
 10
176.629097
 20
102.839712
 30
0.0
 10
176.455197
 20
102.770861
 30
0.0
 10
176.273996
 20
102.724342
 30
0.0
 10
176.088398
 20
102.700890
 30
0.0
 10
175.901598
 20
102.700901
 30
0.0
  0
LWPOLYLINE
  5
10f
100
AcDbEntity
  8
0
 62
7
100
AcDbPolyline
 90
51
 70
0
 10
258.401998
 20
54.200871
 30
0.0
 10
258.215996
 20
54.224295
 30
0.0
 10
258.034996
 20
54.270862
 30
0.0
 10
257.860998
 20
54.339668
 30
0.0
 10
257.696995
 20
54.429781
 30
0.0
 10
257.545998
 20
54.539763
 30
0.0
 10
257.408996
 20
54.667779
 30
0.0
 10
257.289997
 20
54.811882
 30
0.0
 10
257.189997
 20
54.969785
 30
0.0
 10
257.109996
 20
55.138978
 30
0.0
 10
257.052998
 20
55.316778
 30
0.0
 10
257.017997
 20
55.500476
 30
0.0
 10
257.006003
 20
55.687166
 30
0.0
 10
257.017991
 20
55.873884
 30
0.0
 10
257.052998
 20
56.057583
 30
0.0
 10
257.109996
 20
56.235383
 30
0.0
 10
257.189997
 20
56.404660
 30
0.0
 10
257.289997
 20
56.562478
 30
0.0
 10
257.408996
 20
56.706581
 30
0.0
 10
257.545998
 20
56.834682
 30
0.0
 10
257.696995
 20
56.944579
 30
0.0
 10
257.860998
 20
57.034580
 30
0.0
 10
258.034996
 20
57.103470
 30
0.0
 10
258.215996
 20
57.149980
 30
0.0
 10
258.401998
 20
57.173405
 30
0.0
 10
258.587996
 20
57.173461
 30
0.0
 10
258.773998
 20
57.150037
 30
0.0
 10
258.954998
 20
57.103470
 30
0.0
 10
259.128997
 20
57.034580
 30
0.0
 10
259.292996
 20
56.944579
 30
0.0
 10
259.443996
 20
56.834682
 30
0.0
 10
259.580998
 20
56.706581
 30
0.0
 10
259.699997
 20
56.562563
 30
0.0
 10
259.799997
 20
56.404575
 30
0.0
 10
259.879996
 20
56.235383
 30
0.0
 10
259.936996
 20
56.057583
 30
0.0
 10
259.971997
 20
55.873884
 30
0.0
 10
259.983992
 20
55.687166
 30
0.0
 10
259.972003
 20
55.500476
 30
0.0
 10
259.936996
 20
55.316778
 30
0.0
 10
259.879996
 20
55.139062
 30
0.0
 10
259.799997
 20
54.969785
 30
0.0
 10
259.699997
 20
54.811769
 30
0.0
 10
259.580998
 20
54.667779
 30
0.0
 10
259.443996
 20
54.539763
 30
0.0
 10
259.292996
 20
54.429781
 30
0.0
 10
259.128997
 20
54.339668
 30
0.0
 10
258.954998
 20
54.270862
 30
0.0
 10
258.773998
 20
54.224380
 30
0.0
 10
258.587996
 20
54.200956
 30
0.0
 10
258.401998
 20
54.200871
 30
0.0
  0
LWPOLYLINE
  5
110
100
AcDbEntity
  8
0
 62
7
100
AcDbPolyline
 90
38
 70
0
 10
165.394998
 20
27.548058
 30
0.0
 10
171.365497
 20
27.548058
 30
0.0
 10
172.100697
 20
27.640881
 30
0.0
 10
172.818397
 20
27.825172
 30
0.0
 10
173.507397
 20
28.097968
 30
0.0
 10
174.156796
 20
28.454979
 30
0.0
 10
174.756298
 20
28.890561
 30
0.0
 10
175.296497
 20
29.397771
 30
0.0
 10
175.768796
 20
29.968763
 30
0.0
 10
176.165897
 20
30.594478
 30
0.0
 10
176.481396
 20
31.264981
 30
0.0
 10
176.710396
 20
31.969662
 30
0.0
 10
176.849196
 20
32.697570
 30
0.0
 10
176.895797
 20
33.437161
 30
0.0
 10
176.849196
 20
34.176781
 30
0.0
 10
176.710396
 20
34.904660
 30
0.0
 10
176.481396
 20
35.609369
 30
0.0
 10
176.165897
 20
36.279873
 30
0.0
 10
175.777697
 20
36.891674
 30
0.0
 10
164.263296
 20
53.412286
 30
0.0
 10
163.796497
 20
53.976561
 30
0.0
 10
163.256296
 20
54.483770
 30
0.0
 10
162.656797
 20
54.919380
 30
0.0
 10
162.007398
 20
55.276363
 30
0.0
 10
161.318397
 20
55.549159
 30
0.0
 10
160.600698
 20
55.733479
 30
0.0
 10
159.865497
 20
55.826273
 30
0.0
 10
159.124498
 20
55.826273
 30
0.0
 10
158.389286
 20
55.733479
 30
0.0
 10
157.671536
 20
55.549159
 30
0.0
 10
156.982547
 20
55.276363
 30
0.0
 10
156.333198
 20
54.919380
 30
0.0
 10
155.733677
 20
54.483770
 30
0.0
 10
155.193498
 20
53.976561
 30
0.0
 10
154.724027
 20
53.409068
 30
0.0
 10
145.342788
 20
39.337158
 30
0.0
 10
111.594996
 20
39.337158
 30
0.0
 10
111.594996
 20
39.326151
 30
0.0
  0
LWPOLYLINE
  5
111
100
AcDbEntity
  8
0
 62
7
100
AcDbPolyline
 90
28
 70
0
 10
111.594996
 20
39.326264
 30
0.0
 10
79.165298
 20
39.326264
 30
0.0
 10
78.430097
 20
39.233469
 30
0.0
 10
77.712398
 20
39.049178
 30
0.0
 10
77.023397
 20
38.776382
 30
0.0
 10
76.373998
 20
38.419371
 30
0.0
 10
75.774496
 20
37.983761
 30
0.0
 10
75.234298
 20
37.476580
 30
0.0
 10
74.761996
 20
36.905559
 30
0.0
 10
74.364898
 20
36.279873
 30
0.0
 10
74.049396
 20
35.609369
 30
0.0
 10
73.820398
 20
34.904660
 30
0.0
 10
73.681497
 20
34.176781
 30
0.0
 10
73.634998
 20
33.437161
 30
0.0
 10
73.681497
 20
32.697570
 30
0.0
 10
73.820398
 20
31.969662
 30
0.0
 10
74.049396
 20
31.264981
 30
0.0
 10
74.364898
 20
30.594478
 30
0.0
 10
74.761996
 20
29.968763
 30
0.0
 10
75.234298
 20
29.397771
 30
0.0
 10
75.774496
 20
28.890561
 30
0.0
 10
76.373998
 20
28.454979
 30
0.0
 10
77.023397
 20
28.097968
 30
0.0
 10
77.712398
 20
27.825172
 30
0.0
 10
78.430097
 20
27.640881
 30
0.0
 10
79.165298
 20
27.548058
 30
0.0
 10
111.594996
 20
27.548058
 30
0.0
 10
111.594996
 20
27.537052
 30
0.0
  0
LWPOLYLINE
  5
112
100
AcDbEntity
  8
0
 62
7
100
AcDbPolyline
 90
3
 70
0
 10
111.594996
 20
27.537164
 30
0.0
 10
165.394998
 20
27.537164
 30
0.0
 10
165.394998
 20
27.548171
 30
0.0
  0
LWPOLYLINE
  5
113
100
AcDbEntity
  8
0
 62
7
100
AcDbPolyline
 90
26
 70
0
 10
159.494996
 20
48.447968
 30
0.0
 10
159.308298
 20
48.459822
 30
0.0
 10
159.124596
 20
48.494761
 30
0.0
 10
158.946796
 20
48.552560
 30
0.0
 10
158.777596
 20
48.632175
 30
0.0
 10
158.619698
 20
48.732364
 30
0.0
 10
158.475587
 20
48.851574
 30
0.0
 10
158.347568
 20
48.987860
 30
0.0
 10
158.237597
 20
49.139272
 30
0.0
 10
158.147526
 20
49.303074
 30
0.0
 10
158.078678
 20
49.476979
 30
0.0
 10
158.032156
 20
49.658166
 30
0.0
 10
158.008704
 20
49.843783
 30
0.0
 10
158.008718
 20
50.030558
 30
0.0
 10
158.032171
 20
50.216175
 30
0.0
 10
158.078678
 20
50.397362
 30
0.0
 10
158.147526
 20
50.571267
 30
0.0
 10
158.237597
 20
50.735069
 30
0.0
 10
158.347568
 20
50.886481
 30
0.0
 10
158.475587
 20
51.022766
 30
0.0
 10
158.619596
 20
51.141977
 30
0.0
 10
158.777497
 20
51.242166
 30
0.0
 10
158.946796
 20
51.321866
 30
0.0
 10
159.124596
 20
51.379580
 30
0.0
 10
159.308298
 20
51.414660
 30
0.0
 10
159.494996
 20
51.426514
 30
0.0
  0
LWPOLYLINE
  5
114
100
AcDbEntity
  8
0
 62
7
100
AcDbPolyline
 90
2
 70
0
 10
159.494996
 20
51.426372
 30
0.0
 10
159.681697
 20
51.414519
 30
0.0
  0
LWPOLYLINE
  5
115
100
AcDbEntity
  8
0
 62
7
100
AcDbPolyline
 90
25
 70
0
 10
159.681697
 20
51.414660
 30
0.0
 10
159.865396
 20
51.379580
 30
0.0
 10
160.043196
 20
51.321781
 30
0.0
 10
160.212397
 20
51.242166
 30
0.0
 10
160.370396
 20
51.141977
 30
0.0
 10
160.514397
 20
51.022766
 30
0.0
 10
160.642396
 20
50.886481
 30
0.0
 10
160.752398
 20
50.735069
 30
0.0
 10
160.842398
 20
50.571380
 30
0.0
 10
160.911297
 20
50.397362
 30
0.0
 10
160.957796
 20
50.216175
 30
0.0
 10
160.981305
 20
50.030558
 30
0.0
 10
160.981297
 20
49.843783
 30
0.0
 10
160.957788
 20
49.658166
 30
0.0
 10
160.911297
 20
49.476979
 30
0.0
 10
160.842398
 20
49.302961
 30
0.0
 10
160.752398
 20
49.139272
 30
0.0
 10
160.642396
 20
48.987972
 30
0.0
 10
160.514397
 20
48.851574
 30
0.0
 10
160.370297
 20
48.732364
 30
0.0
 10
160.212498
 20
48.632175
 30
0.0
 10
160.043196
 20
48.552560
 30
0.0
 10
159.865396
 20
48.494761
 30
0.0
 10
159.681697
 20
48.459765
 30
0.0
 10
159.494996
 20
48.447912
 30
0.0
  0
LWPOLYLINE
  5
116
100
AcDbEntity
  8
0
 62
7
100
AcDbPolyline
 90
26
 70
0
 10
79.535796
 20
31.947959
 30
0.0
 10
79.349098
 20
31.959812
 30
0.0
 10
79.165396
 20
31.994780
 30
0.0
 10
78.987596
 20
32.052579
 30
0.0
 10
78.818396
 20
32.132166
 30
0.0
 10
78.660396
 20
32.232383
 30
0.0
 10
78.516398
 20
32.351565
 30
0.0
 10
78.388396
 20
32.487963
 30
0.0
 10
78.278397
 20
32.639262
 30
0.0
 10
78.188298
 20
32.803064
 30
0.0
 10
78.119498
 20
32.976970
 30
0.0
 10
78.072996
 20
33.158072
 30
0.0
 10
78.049487
 20
33.343774
 30
0.0
 10
78.049498
 20
33.530577
 30
0.0
 10
78.073007
 20
33.716279
 30
0.0
 10
78.119498
 20
33.897381
 30
0.0
 10
78.188298
 20
34.071258
 30
0.0
 10
78.278397
 20
34.235060
 30
0.0
 10
78.388396
 20
34.386472
 30
0.0
 10
78.516398
 20
34.522785
 30
0.0
 10
78.660498
 20
34.641968
 30
0.0
 10
78.818297
 20
34.742185
 30
0.0
 10
78.987596
 20
34.821772
 30
0.0
 10
79.165396
 20
34.879571
 30
0.0
 10
79.349098
 20
34.914679
 30
0.0
 10
79.535796
 20
34.926250
 30
0.0
  0
LWPOLYLINE
  5
117
100
AcDbEntity
  8
0
 62
7
100
AcDbPolyline
 90
2
 70
0
 10
79.535796
 20
34.926363
 30
0.0
 10
79.722497
 20
34.914792
 30
0.0
  0
LWPOLYLINE
  5
118
100
AcDbEntity
  8
0
 62
7
100
AcDbPolyline
 90
25
 70
0
 10
79.722497
 20
34.914679
 30
0.0
 10
79.906196
 20
34.879571
 30
0.0
 10
80.083996
 20
34.821884
 30
0.0
 10
80.253298
 20
34.742185
 30
0.0
 10
80.411196
 20
34.641968
 30
0.0
 10
80.555197
 20
34.522785
 30
0.0
 10
80.683196
 20
34.386472
 30
0.0
 10
80.793198
 20
34.235060
 30
0.0
 10
80.883297
 20
34.071258
 30
0.0
 10
80.952097
 20
33.897381
 30
0.0
 10
80.998596
 20
33.716279
 30
0.0
 10
81.022105
 20
33.530577
 30
0.0
 10
81.022097
 20
33.343774
 30
0.0
 10
80.998588
 20
33.158072
 30
0.0
 10
80.952097
 20
32.976970
 30
0.0
 10
80.883297
 20
32.803064
 30
0.0
 10
80.793198
 20
32.639262
 30
0.0
 10
80.683196
 20
32.487963
 30
0.0
 10
80.555197
 20
32.351565
 30
0.0
 10
80.411097
 20
32.232383
 30
0.0
 10
80.253197
 20
32.132166
 30
0.0
 10
80.083996
 20
32.052579
 30
0.0
 10
79.906196
 20
31.994780
 30
0.0
 10
79.722497
 20
31.959784
 30
0.0
 10
79.535796
 20
31.947931
 30
0.0
  0
LWPOLYLINE
  5
119
100
AcDbEntity
  8
0
 62
7
100
AcDbPolyline
 90
26
 70
0
 10
170.994996
 20
31.947959
 30
0.0
 10
170.808297
 20
31.959812
 30
0.0
 10
170.624596
 20
31.994780
 30
0.0
 10
170.446796
 20
32.052579
 30
0.0
 10
170.277598
 20
32.132166
 30
0.0
 10
170.119698
 20
32.232383
 30
0.0
 10
169.975598
 20
32.351565
 30
0.0
 10
169.847596
 20
32.487878
 30
0.0
 10
169.737597
 20
32.639262
 30
0.0
 10
169.647497
 20
32.803064
 30
0.0
 10
169.578697
 20
32.976970
 30
0.0
 10
169.532198
 20
33.158184
 30
0.0
 10
169.508689
 20
33.343774
 30
0.0
 10
169.508698
 20
33.530577
 30
0.0
 10
169.532207
 20
33.716166
 30
0.0
 10
169.578697
 20
33.897381
 30
0.0
 10
169.647497
 20
34.071258
 30
0.0
 10
169.737597
 20
34.235060
 30
0.0
 10
169.847596
 20
34.386472
 30
0.0
 10
169.975598
 20
34.522785
 30
0.0
 10
170.119596
 20
34.641968
 30
0.0
 10
170.277496
 20
34.742185
 30
0.0
 10
170.446796
 20
34.821884
 30
0.0
 10
170.624596
 20
34.879571
 30
0.0
 10
170.808297
 20
34.914679
 30
0.0
 10
170.994996
 20
34.926250
 30
0.0
  0
LWPOLYLINE
  5
11a
100
AcDbEntity
  8
0
 62
7
100
AcDbPolyline
 90
2
 70
0
 10
170.994996
 20
34.926363
 30
0.0
 10
171.181697
 20
34.914792
 30
0.0
  0
LWPOLYLINE
  5
11b
100
AcDbEntity
  8
0
 62
7
100
AcDbPolyline
 90
25
 70
0
 10
171.181697
 20
34.914679
 30
0.0
 10
171.365398
 20
34.879571
 30
0.0
 10
171.543198
 20
34.821772
 30
0.0
 10
171.712396
 20
34.742185
 30
0.0
 10
171.870398
 20
34.641968
 30
0.0
 10
172.014396
 20
34.522785
 30
0.0
 10
172.142398
 20
34.386472
 30
0.0
 10
172.252397
 20
34.235060
 30
0.0
 10
172.342398
 20
34.071371
 30
0.0
 10
172.411297
 20
33.897381
 30
0.0
 10
172.457796
 20
33.716166
 30
0.0
 10
172.481305
 20
33.530577
 30
0.0
 10
172.481296
 20
33.343774
 30
0.0
 10
172.457787
 20
33.158184
 30
0.0
 10
172.411297
 20
32.976970
 30
0.0
 10
172.342398
 20
32.802980
 30
0.0
 10
172.252397
 20
32.639262
 30
0.0
 10
172.142398
 20
32.487963
 30
0.0
 10
172.014396
 20
32.351565
 30
0.0
 10
171.870297
 20
32.232383
 30
0.0
 10
171.712498
 20
32.132166
 30
0.0
 10
171.543198
 20
32.052579
 30
0.0
 10
171.365398
 20
31.994780
 30
0.0
 10
171.181697
 20
31.959784
 30
0.0
 10
170.994996
 20
31.947931
 30
0.0
  0
LWPOLYLINE
  5
11c
100
AcDbEntity
  8
0
 62
7
100
AcDbPolyline
 90
57
 70
0
 10
84.894996
 20
-1.201849
 30
0.0
 10
90.865497
 20
-1.201849
 30
0.0
 10
91.600697
 20
-1.108829
 30
0.0
 10
92.318496
 20
-0.924848
 30
0.0
 10
93.007496
 20
-0.651854
 30
0.0
 10
93.656796
 20
-0.294843
 30
0.0
 10
94.256298
 20
0.140146
 30
0.0
 10
94.796497
 20
0.648146
 30
0.0
 10
95.268796
 20
1.219166
 30
0.0
 10
95.665897
 20
1.844147
 30
0.0
 10
95.981396
 20
2.515159
 30
0.0
 10
96.210397
 20
3.220150
 30
0.0
 10
96.349298
 20
3.947154
 30
0.0
 10
96.395797
 20
4.687169
 30
0.0
 10
96.349298
 20
5.426761
 30
0.0
 10
96.210397
 20
6.154668
 30
0.0
 10
95.981396
 20
6.859349
 30
0.0
 10
95.665897
 20
7.529853
 30
0.0
 10
95.268796
 20
8.155567
 30
0.0
 10
94.796497
 20
8.726559
 30
0.0
 10
94.256298
 20
9.233769
 30
0.0
 10
93.660397
 20
9.666755
 30
0.0
 10
73.763598
 20
21.179361
 30
0.0
 10
73.132498
 20
21.526353
 30
0.0
 10
72.443498
 20
21.799149
 30
0.0
 10
71.725697
 20
21.983469
 30
0.0
 10
70.990497
 20
22.076263
 30
0.0
 10
70.249497
 20
22.076263
 30
0.0
 10
69.514297
 20
21.983469
 30
0.0
 10
68.796597
 20
21.799149
 30
0.0
 10
68.107597
 20
21.526353
 30
0.0
 10
67.476398
 20
21.179361
 30
0.0
 10
47.579997
 20
9.666755
 30
0.0
 10
46.983997
 20
9.233769
 30
0.0
 10
46.443996
 20
8.726559
 30
0.0
 10
45.970997
 20
8.155567
 30
0.0
 10
45.573998
 20
7.529853
 30
0.0
 10
45.258998
 20
6.859349
 30
0.0
 10
45.029998
 20
6.154668
 30
0.0
 10
44.890998
 20
5.426761
 30
0.0
 10
44.843996
 20
4.687169
 30
0.0
 10
44.890998
 20
3.947154
 30
0.0
 10
45.029998
 20
3.220150
 30
0.0
 10
45.258998
 20
2.515159
 30
0.0
 10
45.573998
 20
1.844147
 30
0.0
 10
45.970997
 20
1.219166
 30
0.0
 10
46.443996
 20
0.648146
 30
0.0
 10
46.983997
 20
0.140146
 30
0.0
 10
47.582997
 20
-0.294843
 30
0.0
 10
48.232997
 20
-0.651854
 30
0.0
 10
48.921597
 20
-0.924848
 30
0.0
 10
49.639296
 20
-1.108829
 30
0.0
 10
50.374496
 20
-1.201849
 30
0.0
 10
56.344998
 20
-1.201849
 30
0.0
 10
56.344998
 20
-1.212856
 30
0.0
 10
84.894996
 20
-1.212856
 30
0.0
 10
84.894996
 20
-1.201849
 30
0.0
  0
LWPOLYLINE
  5
11d
100
AcDbEntity
  8
0
 62
7
100
AcDbPolyline
 90
26
 70
0
 10
70.619998
 20
14.697958
 30
0.0
 10
70.433297
 20
14.709812
 30
0.0
 10
70.249598
 20
14.744751
 30
0.0
 10
70.071798
 20
14.802550
 30
0.0
 10
69.902598
 20
14.882165
 30
0.0
 10
69.744697
 20
14.982354
 30
0.0
 10
69.600597
 20
15.101564
 30
0.0
 10
69.472598
 20
15.237849
 30
0.0
 10
69.362597
 20
15.389262
 30
0.0
 10
69.272497
 20
15.553063
 30
0.0
 10
69.203697
 20
15.726969
 30
0.0
 10
69.157198
 20
15.908155
 30
0.0
 10
69.133689
 20
16.093745
 30
0.0
 10
69.133697
 20
16.280548
 30
0.0
 10
69.157207
 20
16.466165
 30
0.0
 10
69.203697
 20
16.647352
 30
0.0
 10
69.272497
 20
16.821257
 30
0.0
 10
69.362597
 20
16.985059
 30
0.0
 10
69.472598
 20
17.136471
 30
0.0
 10
69.600597
 20
17.272756
 30
0.0
 10
69.744598
 20
17.391967
 30
0.0
 10
69.902598
 20
17.492156
 30
0.0
 10
70.071897
 20
17.571855
 30
0.0
 10
70.249598
 20
17.629570
 30
0.0
 10
70.433297
 20
17.664650
 30
0.0
 10
70.619998
 20
17.676221
 30
0.0
  0
LWPOLYLINE
  5
11e
100
AcDbEntity
  8
0
 62
7
100
AcDbPolyline
 90
2
 70
0
 10
70.619998
 20
17.676362
 30
0.0
 10
70.806697
 20
17.664791
 30
0.0
  0
LWPOLYLINE
  5
11f
100
AcDbEntity
  8
0
 62
7
100
AcDbPolyline
 90
25
 70
0
 10
70.806697
 20
17.664650
 30
0.0
 10
70.990398
 20
17.629570
 30
0.0
 10
71.168198
 20
17.571771
 30
0.0
 10
71.337396
 20
17.492156
 30
0.0
 10
71.495398
 20
17.391967
 30
0.0
 10
71.639396
 20
17.272756
 30
0.0
 10
71.767497
 20
17.136471
 30
0.0
 10
71.877397
 20
16.985059
 30
0.0
 10
71.967398
 20
16.821370
 30
0.0
 10
72.036297
 20
16.647352
 30
0.0
 10
72.082798
 20
16.466165
 30
0.0
 10
72.106307
 20
16.280548
 30
0.0
 10
72.106296
 20
16.093745
 30
0.0
 10
72.082787
 20
15.908155
 30
0.0
 10
72.036297
 20
15.726969
 30
0.0
 10
71.967398
 20
15.552951
 30
0.0
 10
71.877397
 20
15.389262
 30
0.0
 10
71.767497
 20
15.237962
 30
0.0
 10
71.639396
 20
15.101564
 30
0.0
 10
71.495296
 20
14.982354
 30
0.0
 10
71.337497
 20
14.882165
 30
0.0
 10
71.168198
 20
14.802550
 30
0.0
 10
70.990398
 20
14.744751
 30
0.0
 10
70.806697
 20
14.709755
 30
0.0
 10
70.619998
 20
14.697902
 30
0.0
  0
LWPOLYLINE
  5
120
100
AcDbEntity
  8
0
 62
7
100
AcDbPolyline
 90
2
 70
0
 10
50.744998
 20
3.198165
 30
0.0
 10
50.558296
 20
3.210018
 30
0.0
  0
LWPOLYLINE
  5
121
100
AcDbEntity
  8
0
 62
7
100
AcDbPolyline
 90
25
 70
0
 10
50.558296
 20
3.210159
 30
0.0
 10
50.374598
 20
3.245155
 30
0.0
 10
50.196798
 20
3.302164
 30
0.0
 10
50.027597
 20
3.382145
 30
0.0
 10
49.869697
 20
3.482165
 30
0.0
 10
49.725597
 20
3.601150
 30
0.0
 10
49.597598
 20
3.738169
 30
0.0
 10
49.487596
 20
3.889158
 30
0.0
 10
49.397497
 20
4.053157
 30
0.0
 10
49.328697
 20
4.226949
 30
0.0
 10
49.282198
 20
4.408164
 30
0.0
 10
49.258688
 20
4.593754
 30
0.0
 10
49.258697
 20
4.780557
 30
0.0
 10
49.282206
 20
4.966146
 30
0.0
 10
49.328697
 20
5.147361
 30
0.0
 10
49.397497
 20
5.321266
 30
0.0
 10
49.487596
 20
5.485068
 30
0.0
 10
49.597598
 20
5.636452
 30
0.0
 10
49.725597
 20
5.772765
 30
0.0
 10
49.869598
 20
5.891948
 30
0.0
 10
50.027597
 20
5.992165
 30
0.0
 10
50.196897
 20
6.071864
 30
0.0
 10
50.374598
 20
6.129551
 30
0.0
 10
50.558296
 20
6.164659
 30
0.0
 10
50.744998
 20
6.176512
 30
0.0
  0
LWPOLYLINE
  5
122
100
AcDbEntity
  8
0
 62
7
100
AcDbPolyline
 90
2
 70
0
 10
50.744998
 20
6.176371
 30
0.0
 10
50.931696
 20
6.164518
 30
0.0
  0
LWPOLYLINE
  5
123
100
AcDbEntity
  8
0
 62
7
100
AcDbPolyline
 90
25
 70
0
 10
50.931696
 20
6.164659
 30
0.0
 10
51.115397
 20
6.129551
 30
0.0
 10
51.293197
 20
6.071751
 30
0.0
 10
51.462398
 20
5.992165
 30
0.0
 10
51.620397
 20
5.891948
 30
0.0
 10
51.764398
 20
5.772765
 30
0.0
 10
51.892496
 20
5.636452
 30
0.0
 10
52.002396
 20
5.485068
 30
0.0
 10
52.092397
 20
5.321351
 30
0.0
 10
52.161296
 20
5.147361
 30
0.0
 10
52.207798
 20
4.966146
 30
0.0
 10
52.231307
 20
4.780557
 30
0.0
 10
52.231298
 20
4.593754
 30
0.0
 10
52.207789
 20
4.408164
 30
0.0
 10
52.161296
 20
4.226949
 30
0.0
 10
52.092397
 20
4.053157
 30
0.0
 10
52.002396
 20
3.889158
 30
0.0
 10
51.892496
 20
3.738169
 30
0.0
 10
51.764398
 20
3.601150
 30
0.0
 10
51.620296
 20
3.482165
 30
0.0
 10
51.462497
 20
3.382145
 30
0.0
 10
51.293197
 20
3.302164
 30
0.0
 10
51.115397
 20
3.245155
 30
0.0
 10
50.931696
 20
3.210159
 30
0.0
 10
50.744998
 20
3.198306
 30
0.0
  0
LWPOLYLINE
  5
124
100
AcDbEntity
  8
0
 62
7
100
AcDbPolyline
 90
2
 70
0
 10
90.494996
 20
3.198165
 30
0.0
 10
90.308297
 20
3.210018
 30
0.0
  0
LWPOLYLINE
  5
125
100
AcDbEntity
  8
0
 62
7
100
AcDbPolyline
 90
25
 70
0
 10
90.308297
 20
3.210159
 30
0.0
 10
90.124596
 20
3.245155
 30
0.0
 10
89.946796
 20
3.302164
 30
0.0
 10
89.777598
 20
3.382145
 30
0.0
 10
89.619698
 20
3.482165
 30
0.0
 10
89.475598
 20
3.601150
 30
0.0
 10
89.347596
 20
3.738169
 30
0.0
 10
89.237597
 20
3.889158
 30
0.0
 10
89.147498
 20
4.053157
 30
0.0
 10
89.078697
 20
4.226949
 30
0.0
 10
89.032196
 20
4.408164
 30
0.0
 10
89.008687
 20
4.593754
 30
0.0
 10
89.008698
 20
4.780557
 30
0.0
 10
89.032207
 20
4.966146
 30
0.0
 10
89.078697
 20
5.147361
 30
0.0
 10
89.147498
 20
5.321266
 30
0.0
 10
89.237597
 20
5.485068
 30
0.0
 10
89.347596
 20
5.636452
 30
0.0
 10
89.475598
 20
5.772765
 30
0.0
 10
89.619596
 20
5.891948
 30
0.0
 10
89.777598
 20
5.992165
 30
0.0
 10
89.946898
 20
6.071864
 30
0.0
 10
90.124596
 20
6.129551
 30
0.0
 10
90.308297
 20
6.164659
 30
0.0
 10
90.494996
 20
6.176512
 30
0.0
  0
LWPOLYLINE
  5
126
100
AcDbEntity
  8
0
 62
7
100
AcDbPolyline
 90
2
 70
0
 10
90.494996
 20
6.176371
 30
0.0
 10
90.681697
 20
6.164518
 30
0.0
  0
LWPOLYLINE
  5
127
100
AcDbEntity
  8
0
 62
7
100
AcDbPolyline
 90
25
 70
0
 10
90.681697
 20
6.164659
 30
0.0
 10
90.865398
 20
6.129551
 30
0.0
 10
91.043198
 20
6.071751
 30
0.0
 10
91.212396
 20
5.992165
 30
0.0
 10
91.370398
 20
5.891948
 30
0.0
 10
91.514397
 20
5.772765
 30
0.0
 10
91.642497
 20
5.636452
 30
0.0
 10
91.752397
 20
5.485068
 30
0.0
 10
91.842398
 20
5.321351
 30
0.0
 10
91.911297
 20
5.147361
 30
0.0
 10
91.957796
 20
4.966146
 30
0.0
 10
91.981305
 20
4.780557
 30
0.0
 10
91.981297
 20
4.593754
 30
0.0
 10
91.957787
 20
4.408164
 30
0.0
 10
91.911297
 20
4.226949
 30
0.0
 10
91.842398
 20
4.053157
 30
0.0
 10
91.752397
 20
3.889158
 30
0.0
 10
91.642497
 20
3.738169
 30
0.0
 10
91.514397
 20
3.601150
 30
0.0
 10
91.370297
 20
3.482165
 30
0.0
 10
91.212498
 20
3.382145
 30
0.0
 10
91.043198
 20
3.302164
 30
0.0
 10
90.865398
 20
3.245155
 30
0.0
 10
90.681697
 20
3.210159
 30
0.0
 10
90.494996
 20
3.198306
 30
0.0
  0
LWPOLYLINE
  5
128
100
AcDbEntity
  8
0
 62
7
100
AcDbPolyline
 90
57
 70
0
 10
240.644996
 20
-1.201849
 30
0.0
 10
246.615498
 20
-1.201849
 30
0.0
 10
247.350698
 20
-1.108829
 30
0.0
 10
248.068397
 20
-0.924848
 30
0.0
 10
248.756997
 20
-0.651854
 30
0.0
 10
249.406997
 20
-0.294843
 30
0.0
 10
250.005997
 20
0.140146
 30
0.0
 10
250.545998
 20
0.648146
 30
0.0
 10
251.018997
 20
1.219166
 30
0.0
 10
251.415996
 20
1.844147
 30
0.0
 10
251.730995
 20
2.515159
 30
0.0
 10
251.959996
 20
3.220150
 30
0.0
 10
252.098996
 20
3.947154
 30
0.0
 10
252.145998
 20
4.687169
 30
0.0
 10
252.098996
 20
5.426761
 30
0.0
 10
251.959996
 20
6.154668
 30
0.0
 10
251.730995
 20
6.859349
 30
0.0
 10
251.415996
 20
7.529853
 30
0.0
 10
251.018997
 20
8.155567
 30
0.0
 10
250.545998
 20
8.726559
 30
0.0
 10
250.005997
 20
9.233769
 30
0.0
 10
249.409997
 20
9.666755
 30
0.0
 10
229.513598
 20
21.179361
 30
0.0
 10
228.882397
 20
21.526353
 30
0.0
 10
228.193397
 20
21.799149
 30
0.0
 10
227.475697
 20
21.983469
 30
0.0
 10
226.740497
 20
22.076263
 30
0.0
 10
225.999497
 20
22.076263
 30
0.0
 10
225.264297
 20
21.983469
 30
0.0
 10
224.546496
 20
21.799149
 30
0.0
 10
223.857498
 20
21.526353
 30
0.0
 10
223.226396
 20
21.179361
 30
0.0
 10
203.329596
 20
9.666755
 30
0.0
 10
202.733698
 20
9.233769
 30
0.0
 10
202.193497
 20
8.726559
 30
0.0
 10
201.721198
 20
8.155567
 30
0.0
 10
201.324097
 20
7.529853
 30
0.0
 10
201.008598
 20
6.859349
 30
0.0
 10
200.779597
 20
6.154668
 30
0.0
 10
200.640696
 20
5.426761
 30
0.0
 10
200.594197
 20
4.687169
 30
0.0
 10
200.640696
 20
3.947154
 30
0.0
 10
200.779597
 20
3.220150
 30
0.0
 10
201.008598
 20
2.515159
 30
0.0
 10
201.324097
 20
1.844147
 30
0.0
 10
201.721198
 20
1.219166
 30
0.0
 10
202.193497
 20
0.648146
 30
0.0
 10
202.733698
 20
0.140146
 30
0.0
 10
203.333198
 20
-0.294843
 30
0.0
 10
203.982498
 20
-0.651854
 30
0.0
 10
204.671498
 20
-0.924848
 30
0.0
 10
205.389297
 20
-1.108829
 30
0.0
 10
206.124497
 20
-1.201849
 30
0.0
 10
212.094998
 20
-1.201849
 30
0.0
 10
212.094998
 20
-1.212856
 30
0.0
 10
240.644996
 20
-1.212856
 30
0.0
 10
240.644996
 20
-1.201849
 30
0.0
  0
LWPOLYLINE
  5
129
100
AcDbEntity
  8
0
 62
7
100
AcDbPolyline
 90
25
 70
0
 10
226.183297
 20
14.709755
 30
0.0
 10
225.999596
 20
14.744751
 30
0.0
 10
225.821796
 20
14.802550
 30
0.0
 10
225.652497
 20
14.882165
 30
0.0
 10
225.494698
 20
14.982354
 30
0.0
 10
225.350598
 20
15.101564
 30
0.0
 10
225.222497
 20
15.237962
 30
0.0
 10
225.112597
 20
15.389262
 30
0.0
 10
225.022596
 20
15.552951
 30
0.0
 10
224.953697
 20
15.726969
 30
0.0
 10
224.907198
 20
15.908155
 30
0.0
 10
224.883689
 20
16.093745
 30
0.0
 10
224.883698
 20
16.280548
 30
0.0
 10
224.907207
 20
16.466165
 30
0.0
 10
224.953697
 20
16.647352
 30
0.0
 10
225.022596
 20
16.821370
 30
0.0
 10
225.112597
 20
16.985059
 30
0.0
 10
225.222497
 20
17.136471
 30
0.0
 10
225.350598
 20
17.272756
 30
0.0
 10
225.494596
 20
17.391967
 30
0.0
 10
225.652598
 20
17.492156
 30
0.0
 10
225.821796
 20
17.571771
 30
0.0
 10
225.999596
 20
17.629570
 30
0.0
 10
226.183297
 20
17.664650
 30
0.0
 10
226.369996
 20
17.676221
 30
0.0
  0
LWPOLYLINE
  5
12a
100
AcDbEntity
  8
0
 62
7
100
AcDbPolyline
 90
2
 70
0
 10
226.369996
 20
17.676362
 30
0.0
 10
226.556697
 20
17.664791
 30
0.0
  0
LWPOLYLINE
  5
12b
100
AcDbEntity
  8
0
 62
7
100
AcDbPolyline
 90
26
 70
0
 10
226.556697
 20
17.664650
 30
0.0
 10
226.740398
 20
17.629570
 30
0.0
 10
226.918097
 20
17.571855
 30
0.0
 10
227.087396
 20
17.492156
 30
0.0
 10
227.245398
 20
17.391967
 30
0.0
 10
227.389396
 20
17.272756
 30
0.0
 10
227.517398
 20
17.136471
 30
0.0
 10
227.627397
 20
16.985059
 30
0.0
 10
227.717497
 20
16.821257
 30
0.0
 10
227.786297
 20
16.647352
 30
0.0
 10
227.832796
 20
16.466165
 30
0.0
 10
227.856305
 20
16.280548
 30
0.0
 10
227.856296
 20
16.093745
 30
0.0
 10
227.832787
 20
15.908155
 30
0.0
 10
227.786297
 20
15.726969
 30
0.0
 10
227.717497
 20
15.553063
 30
0.0
 10
227.627397
 20
15.389262
 30
0.0
 10
227.517398
 20
15.237849
 30
0.0
 10
227.389396
 20
15.101564
 30
0.0
 10
227.245297
 20
14.982354
 30
0.0
 10
227.087396
 20
14.882165
 30
0.0
 10
226.918198
 20
14.802550
 30
0.0
 10
226.740398
 20
14.744751
 30
0.0
 10
226.556697
 20
14.709755
 30
0.0
 10
226.369996
 20
14.697902
 30
0.0
 10
226.183297
 20
14.709812
 30
0.0
  0
LWPOLYLINE
  5
12c
100
AcDbEntity
  8
0
 62
7
100
AcDbPolyline
 90
25
 70
0
 10
206.308297
 20
3.210159
 30
0.0
 10
206.124598
 20
3.245155
 30
0.0
 10
205.946798
 20
3.302164
 30
0.0
 10
205.777496
 20
3.382145
 30
0.0
 10
205.619697
 20
3.482165
 30
0.0
 10
205.475597
 20
3.601150
 30
0.0
 10
205.347497
 20
3.738169
 30
0.0
 10
205.237596
 20
3.889158
 30
0.0
 10
205.147596
 20
4.053157
 30
0.0
 10
205.078697
 20
4.226949
 30
0.0
 10
205.032198
 20
4.408164
 30
0.0
 10
205.008689
 20
4.593754
 30
0.0
 10
205.008697
 20
4.780557
 30
0.0
 10
205.032206
 20
4.966146
 30
0.0
 10
205.078697
 20
5.147361
 30
0.0
 10
205.147596
 20
5.321351
 30
0.0
 10
205.237596
 20
5.485068
 30
0.0
 10
205.347497
 20
5.636452
 30
0.0
 10
205.475597
 20
5.772765
 30
0.0
 10
205.619598
 20
5.891948
 30
0.0
 10
205.777598
 20
5.992165
 30
0.0
 10
205.946798
 20
6.071751
 30
0.0
 10
206.124598
 20
6.129551
 30
0.0
 10
206.308297
 20
6.164659
 30
0.0
 10
206.494998
 20
6.176512
 30
0.0
  0
LWPOLYLINE
  5
12d
100
AcDbEntity
  8
0
 62
7
100
AcDbPolyline
 90
2
 70
0
 10
206.494998
 20
6.176371
 30
0.0
 10
206.681697
 20
6.164518
 30
0.0
  0
LWPOLYLINE
  5
12e
100
AcDbEntity
  8
0
 62
7
100
AcDbPolyline
 90
25
 70
0
 10
206.681697
 20
6.164659
 30
0.0
 10
206.865398
 20
6.129551
 30
0.0
 10
207.043096
 20
6.071864
 30
0.0
 10
207.212398
 20
5.992165
 30
0.0
 10
207.370398
 20
5.891948
 30
0.0
 10
207.514396
 20
5.772765
 30
0.0
 10
207.642398
 20
5.636452
 30
0.0
 10
207.752397
 20
5.485068
 30
0.0
 10
207.842496
 20
5.321266
 30
0.0
 10
207.911296
 20
5.147361
 30
0.0
 10
207.957798
 20
4.966146
 30
0.0
 10
207.981307
 20
4.780557
 30
0.0
 10
207.981296
 20
4.593754
 30
0.0
 10
207.957787
 20
4.408164
 30
0.0
 10
207.911296
 20
4.226949
 30
0.0
 10
207.842496
 20
4.053157
 30
0.0
 10
207.752397
 20
3.889158
 30
0.0
 10
207.642398
 20
3.738169
 30
0.0
 10
207.514396
 20
3.601150
 30
0.0
 10
207.370296
 20
3.482165
 30
0.0
 10
207.212398
 20
3.382145
 30
0.0
 10
207.043198
 20
3.302164
 30
0.0
 10
206.865398
 20
3.245155
 30
0.0
 10
206.681697
 20
3.210159
 30
0.0
 10
206.494998
 20
3.198306
 30
0.0
  0
LWPOLYLINE
  5
12f
100
AcDbEntity
  8
0
 62
7
100
AcDbPolyline
 90
2
 70
0
 10
206.494998
 20
3.198165
 30
0.0
 10
206.308297
 20
3.210018
 30
0.0
  0
LWPOLYLINE
  5
130
100
AcDbEntity
  8
0
 62
7
100
AcDbPolyline
 90
25
 70
0
 10
246.058298
 20
3.210159
 30
0.0
 10
245.874596
 20
3.245155
 30
0.0
 10
245.696796
 20
3.302164
 30
0.0
 10
245.527497
 20
3.382145
 30
0.0
 10
245.369698
 20
3.482165
 30
0.0
 10
245.225595
 20
3.601150
 30
0.0
 10
245.097498
 20
3.738169
 30
0.0
 10
244.987597
 20
3.889158
 30
0.0
 10
244.897597
 20
4.053157
 30
0.0
 10
244.828698
 20
4.226949
 30
0.0
 10
244.782196
 20
4.408164
 30
0.0
 10
244.758687
 20
4.593754
 30
0.0
 10
244.758695
 20
4.780557
 30
0.0
 10
244.782205
 20
4.966146
 30
0.0
 10
244.828698
 20
5.147361
 30
0.0
 10
244.897597
 20
5.321351
 30
0.0
 10
244.987597
 20
5.485068
 30
0.0
 10
245.097498
 20
5.636452
 30
0.0
 10
245.225595
 20
5.772765
 30
0.0
 10
245.369596
 20
5.891948
 30
0.0
 10
245.527596
 20
5.992165
 30
0.0
 10
245.696796
 20
6.071751
 30
0.0
 10
245.874596
 20
6.129551
 30
0.0
 10
246.058298
 20
6.164659
 30
0.0
 10
246.244996
 20
6.176512
 30
0.0
  0
LWPOLYLINE
  5
131
100
AcDbEntity
  8
0
 62
7
100
AcDbPolyline
 90
2
 70
0
 10
246.244996
 20
6.176371
 30
0.0
 10
246.431697
 20
6.164518
 30
0.0
  0
LWPOLYLINE
  5
132
100
AcDbEntity
  8
0
 62
7
100
AcDbPolyline
 90
25
 70
0
 10
246.431697
 20
6.164659
 30
0.0
 10
246.615396
 20
6.129551
 30
0.0
 10
246.793097
 20
6.071864
 30
0.0
 10
246.962397
 20
5.992165
 30
0.0
 10
247.120396
 20
5.891948
 30
0.0
 10
247.264397
 20
5.772765
 30
0.0
 10
247.392396
 20
5.636452
 30
0.0
 10
247.502398
 20
5.485068
 30
0.0
 10
247.592497
 20
5.321266
 30
0.0
 10
247.661297
 20
5.147361
 30
0.0
 10
247.707796
 20
4.966146
 30
0.0
 10
247.731305
 20
4.780557
 30
0.0
 10
247.731297
 20
4.593754
 30
0.0
 10
247.707788
 20
4.408164
 30
0.0
 10
247.661297
 20
4.226949
 30
0.0
 10
247.592497
 20
4.053157
 30
0.0
 10
247.502398
 20
3.889158
 30
0.0
 10
247.392396
 20
3.738169
 30
0.0
 10
247.264397
 20
3.601150
 30
0.0
 10
247.120297
 20
3.482165
 30
0.0
 10
246.962397
 20
3.382145
 30
0.0
 10
246.793196
 20
3.302164
 30
0.0
 10
246.615396
 20
3.245155
 30
0.0
 10
246.431697
 20
3.210159
 30
0.0
 10
246.244996
 20
3.198306
 30
0.0
  0
LWPOLYLINE
  5
133
100
AcDbEntity
  8
0
 62
7
100
AcDbPolyline
 90
2
 70
0
 10
246.244996
 20
3.198165
 30
0.0
 10
246.058298
 20
3.210018
 30
0.0
  0
LWPOLYLINE
  5
134
100
AcDbEntity
  8
0
 62
7
100
AcDbPolyline
 90
9
 70
0
 10
301.299996
 20
2.490648
 30
0.0
 10
301.299996
 20
224.442661
 30
0.0
 10
281.065997
 20
244.676662
 30
0.0
 10
15.933996
 20
244.676662
 30
0.0
 10
-4.300003
 20
224.442661
 30
0.0
 10
-4.300003
 20
2.490648
 30
0.0
 10
15.933996
 20
-17.743331
 30
0.0
 10
281.065997
 20
-17.743331
 30
0.0
 10
301.299996
 20
2.490648
 30
0.0
  0
ENDSEC
  0
SECTION
  2
OBJECTS
  0
DICTIONARY
  5
C
330
0
100
AcDbDictionary
  3
ACAD_GROUP
350
D
  3
ACAD_MLINESTYLE
350
17
  0
DICTIONARY
  5
D
330
C
100
AcDbDictionary
  0
DICTIONARY
  5
1A
330
C
100
AcDbDictionary
  0
DICTIONARY
  5
17
330
C
100
AcDbDictionary
  3
STANDARD
350
18
  0
DICTIONARY
  5
19
330
C
100
AcDbDictionary
  0
ENDSEC
  0
EOF
