  0
SECTION
  2
HEADER
  9
$ACADVER
  1
AC1014
  9
$HANDSEED
  5
FFFF
  9
$MEASUREMENT
 70
     1
  0
ENDSEC
  0
SECTION
  2
TABLES
  0
TABLE
  2
VPORT
  5
8
330
0
100
AcDbSymbolTable
 70
     4
  0
VPORT
  5
2E
330
8
100
AcDbSymbolTableRecord
100
AcDbViewportTableRecord
  2
*ACTIVE
 70
     0
 10
0.0
 20
0.0
 11
1.0
 21
1.0
 12
210.0
 22
148.5
 13
0.0
 23
0.0
 14
10.0
 24
10.0
 15
10.0
 25
10.0
 16
0.0
 26
0.0
 36
1.0
 17
0.0
 27
0.0
 37
0.0
 40
341.0
 41
1.24
 42
50.0
 43
0.0
 44
0.0
 50
0.0
 51
0.0
 71
     0
 72
   100
 73
     1
 74
     3
 75
     0
 76
     0
 77
     0
 78
     0
  0
ENDTAB
  0
TABLE
  2
LTYPE
  5
5
330
0
100
AcDbSymbolTable
 70
     1
  0
LTYPE
  5
14
330
5
100
AcDbSymbolTableRecord
100
AcDbLinetypeTableRecord
  2
BYBLOCK
 70
     0
  3

 72
    65
 73
     0
 40
0.0
  0
LTYPE
  5
15
330
5
100
AcDbSymbolTableRecord
100
AcDbLinetypeTableRecord
  2
BYLAYER
 70
     0
  3

 72
    65
 73
     0
 40
0.0
  0
LTYPE
  5
16
330
5
100
AcDbSymbolTableRecord
100
AcDbLinetypeTableRecord
  2
CONTINUOUS
 70
     0
  3
Solid line
 72
    65
 73
     0
 40
0.0
  0
ENDTAB
  0
TABLE
  2
LAYER
  5
2
100
AcDbSymbolTable
 70
1
  0
LAYER
  5
50
100
AcDbSymbolTableRecord
100
AcDbLayerTableRecord
  2
0
 70
0
  6
CONTINUOUS
  0
ENDTAB
  0
TABLE
  2
STYLE
  5
3
330
0
100
AcDbSymbolTable
 70
     1
  0
STYLE
  5
11
330
3
100
AcDbSymbolTableRecord
100
AcDbTextStyleTableRecord
  2
STANDARD
 70
     0
 40
0.0
 41
1.0
 50
0.0
 71
     0
 42
2.5
  3
txt
  4

  0
ENDTAB
  0
TABLE
  2
VIEW
  5
6
330
0
100
AcDbSymbolTable
 70
     0
  0
ENDTAB
  0
TABLE
  2
UCS
  5
7
330
0
100
AcDbSymbolTable
 70
     0
  0
ENDTAB
  0
TABLE
  2
APPID
  5
9
330
0
100
AcDbSymbolTable
 70
     2
  0
APPID
  5
12
330
9
100
AcDbSymbolTableRecord
100
AcDbRegAppTableRecord
  2
ACAD
 70
     0
  0
ENDTAB
  0
TABLE
  2
DIMSTYLE
  5
A
330
0
100
AcDbSymbolTable
 70
     1
  0
DIMSTYLE
105
27
330
A
100
AcDbSymbolTableRecord
100
AcDbDimStyleTableRecord
  2
ISO-25
 70
     0
  3

  4

  5

  6

  7

 40
1.0
 41
2.5
 42
0.625
 43
3.75
 44
1.25
 45
0.0
 46
0.0
 47
0.0
 48
0.0
140
2.5
141
2.5
142
0.0
143
0.03937007874016
144
1.0
145
0.0
146
1.0
147
0.625
 71
     0
 72
     0
 73
     0
 74
     0
 75
     0
 76
     0
 77
     1
 78
     8
170
     0
171
     3
172
     1
173
     0
174
     0
175
     0
176
     0
177
     0
178
     0
270
     2
271
     2
272
     2
273
     2
274
     3
340
11
275
     0
280
     0
281
     0
282
     0
283
     0
284
     8
285
     0
286
     0
287
     3
288
     0
  0
ENDTAB
  0
TABLE
  2
BLOCK_RECORD
  5
1
330
0
100
AcDbSymbolTable
 70
     1
  0
BLOCK_RECORD
  5
1F
330
1
100
AcDbSymbolTableRecord
100
AcDbBlockTableRecord
  2
*MODEL_SPACE
  0
BLOCK_RECORD
  5
1B
330
1
100
AcDbSymbolTableRecord
100
AcDbBlockTableRecord
  2
*PAPER_SPACE
  0
ENDTAB
  0
ENDSEC
  0
SECTION
  2
BLOCKS
  0
BLOCK
  5
20
330
1F
100
AcDbEntity
  8
0
100
AcDbBlockBegin
  2
*MODEL_SPACE
 70
     0
 10
0.0
 20
0.0
 30
0.0
  3
*MODEL_SPACE
  1

  0
ENDBLK
  5
21
330
1F
100
AcDbEntity
  8
0
100
AcDbBlockEnd
  0
BLOCK
  5
1C
330
1B
100
AcDbEntity
 67
     1
  8
0
100
AcDbBlockBegin
  2
*PAPER_SPACE
  1

  0
ENDBLK
  5
1D
330
1B
100
AcDbEntity
 67
     1
  8
0
100
AcDbBlockEnd
  0
ENDSEC
  0
SECTION
  2
ENTITIES
  0
LWPOLYLINE
  5
100
100
AcDbEntity
  8
0
 62
7
100
AcDbPolyline
 90
25
 70
0
 10
204.404299
 20
172.209797
 30
0.0
 10
204.082100
 20
172.343297
 30
0.0
 10
203.805499
 20
172.555497
 30
0.0
 10
203.593299
 20
172.832196
 30
0.0
 10
203.459800
 20
173.154296
 30
0.0
 10
203.414300
 20
173.499996
 30
0.0
 10
203.459800
 20
173.845695
 30
0.0
 10
203.593299
 20
174.167796
 30
0.0
 10
203.805499
 20
174.444498
 30
0.0
 10
204.082100
 20
174.656698
 30
0.0
 10
204.404299
 20
174.790197
 30
0.0
 10
204.749998
 20
174.835697
 30
0.0
 10
205.096000
 20
174.790197
 30
0.0
 10
205.417999
 20
174.656698
 30
0.0
 10
205.693998
 20
174.444498
 30
0.0
 10
205.906999
 20
174.167796
 30
0.0
 10
206.039999
 20
173.845695
 30
0.0
 10
206.085999
 20
173.499996
 30
0.0
 10
206.039999
 20
173.154296
 30
0.0
 10
205.906999
 20
172.832196
 30
0.0
 10
205.693998
 20
172.555497
 30
0.0
 10
205.417999
 20
172.343297
 30
0.0
 10
205.096000
 20
172.209797
 30
0.0
 10
204.749998
 20
172.164297
 30
0.0
 10
204.404299
 20
172.209797
 30
0.0
  0
LWPOLYLINE
  5
101
100
AcDbEntity
  8
0
 62
7
100
AcDbPolyline
 90
25
 70
0
 10
4.903998
 20
172.209797
 30
0.0
 10
4.581999
 20
172.343297
 30
0.0
 10
4.306000
 20
172.555497
 30
0.0
 10
4.092998
 20
172.832196
 30
0.0
 10
3.959998
 20
173.154296
 30
0.0
 10
3.913999
 20
173.499996
 30
0.0
 10
3.959998
 20
173.845695
 30
0.0
 10
4.092998
 20
174.167796
 30
0.0
 10
4.306000
 20
174.444498
 30
0.0
 10
4.581999
 20
174.656698
 30
0.0
 10
4.903998
 20
174.790197
 30
0.0
 10
5.249999
 20
174.835697
 30
0.0
 10
5.595699
 20
174.790197
 30
0.0
 10
5.917898
 20
174.656698
 30
0.0
 10
6.194498
 20
174.444498
 30
0.0
 10
6.406698
 20
174.167796
 30
0.0
 10
6.540198
 20
173.845695
 30
0.0
 10
6.585698
 20
173.499996
 30
0.0
 10
6.540198
 20
173.154296
 30
0.0
 10
6.406698
 20
172.832196
 30
0.0
 10
6.194498
 20
172.555497
 30
0.0
 10
5.917898
 20
172.343297
 30
0.0
 10
5.595699
 20
172.209797
 30
0.0
 10
5.249999
 20
172.164297
 30
0.0
 10
4.903998
 20
172.209797
 30
0.0
  0
LWPOLYLINE
  5
102
100
AcDbEntity
  8
0
 62
7
100
AcDbPolyline
 90
25
 70
0
 10
104.654310
 20
152.209809
 30
0.0
 10
104.332168
 20
152.343244
 30
0.0
 10
104.055539
 20
152.555531
 30
0.0
 10
103.843280
 20
152.832137
 30
0.0
 10
103.709840
 20
153.154294
 30
0.0
 10
103.664320
 20
153.499988
 30
0.0
 10
103.709840
 20
153.845654
 30
0.0
 10
103.843280
 20
154.167839
 30
0.0
 10
104.055539
 20
154.444445
 30
0.0
 10
104.332168
 20
154.656704
 30
0.0
 10
104.654310
 20
154.790167
 30
0.0
 10
104.999999
 20
154.835689
 30
0.0
 10
105.345687
 20
154.790167
 30
0.0
 10
105.667830
 20
154.656704
 30
0.0
 10
105.944456
 20
154.444445
 30
0.0
 10
106.156718
 20
154.167839
 30
0.0
 10
106.290158
 20
153.845654
 30
0.0
 10
106.335678
 20
153.499988
 30
0.0
 10
106.290158
 20
153.154294
 30
0.0
 10
106.156718
 20
152.832137
 30
0.0
 10
105.944456
 20
152.555531
 30
0.0
 10
105.667830
 20
152.343244
 30
0.0
 10
105.345687
 20
152.209809
 30
0.0
 10
104.999999
 20
152.164315
 30
0.0
 10
104.654310
 20
152.209809
 30
0.0
  0
LWPOLYLINE
  5
103
100
AcDbEntity
  8
0
 62
7
100
AcDbPolyline
 90
25
 70
0
 10
104.654310
 20
142.209829
 30
0.0
 10
104.332168
 20
142.343264
 30
0.0
 10
104.055539
 20
142.555523
 30
0.0
 10
103.843280
 20
142.832157
 30
0.0
 10
103.709840
 20
143.154314
 30
0.0
 10
103.664320
 20
143.500008
 30
0.0
 10
103.709840
 20
143.845674
 30
0.0
 10
103.843280
 20
144.167859
 30
0.0
 10
104.055539
 20
144.444465
 30
0.0
 10
104.332168
 20
144.656724
 30
0.0
 10
104.654310
 20
144.790187
 30
0.0
 10
104.999999
 20
144.835681
 30
0.0
 10
105.345687
 20
144.790187
 30
0.0
 10
105.667830
 20
144.656724
 30
0.0
 10
105.944456
 20
144.444465
 30
0.0
 10
106.156718
 20
144.167859
 30
0.0
 10
106.290158
 20
143.845674
 30
0.0
 10
106.335678
 20
143.500008
 30
0.0
 10
106.290158
 20
143.154314
 30
0.0
 10
106.156718
 20
142.832157
 30
0.0
 10
105.944456
 20
142.555523
 30
0.0
 10
105.667830
 20
142.343264
 30
0.0
 10
105.345687
 20
142.209829
 30
0.0
 10
104.999999
 20
142.164307
 30
0.0
 10
104.654310
 20
142.209829
 30
0.0
  0
LWPOLYLINE
  5
104
100
AcDbEntity
  8
0
 62
7
100
AcDbPolyline
 90
25
 70
0
 10
204.404299
 20
122.209784
 30
0.0
 10
204.082100
 20
122.343304
 30
0.0
 10
203.805499
 20
122.555507
 30
0.0
 10
203.593299
 20
122.832197
 30
0.0
 10
203.459800
 20
123.154297
 30
0.0
 10
203.414300
 20
123.499991
 30
0.0
 10
203.459800
 20
123.845685
 30
0.0
 10
203.593299
 20
124.167899
 30
0.0
 10
203.805499
 20
124.444505
 30
0.0
 10
204.082100
 20
124.656707
 30
0.0
 10
204.404299
 20
124.790199
 30
0.0
 10
204.749998
 20
124.835693
 30
0.0
 10
205.096000
 20
124.790199
 30
0.0
 10
205.417999
 20
124.656707
 30
0.0
 10
205.693998
 20
124.444505
 30
0.0
 10
205.906999
 20
124.167899
 30
0.0
 10
206.039999
 20
123.845685
 30
0.0
 10
206.085999
 20
123.499991
 30
0.0
 10
206.039999
 20
123.154297
 30
0.0
 10
205.906999
 20
122.832197
 30
0.0
 10
205.693998
 20
122.555507
 30
0.0
 10
205.417999
 20
122.343304
 30
0.0
 10
205.096000
 20
122.209784
 30
0.0
 10
204.749998
 20
122.164290
 30
0.0
 10
204.404299
 20
122.209784
 30
0.0
  0
LWPOLYLINE
  5
105
100
AcDbEntity
  8
0
 62
7
100
AcDbPolyline
 90
25
 70
0
 10
4.903998
 20
122.209784
 30
0.0
 10
4.581999
 20
122.343304
 30
0.0
 10
4.306000
 20
122.555507
 30
0.0
 10
4.092998
 20
122.832197
 30
0.0
 10
3.959998
 20
123.154297
 30
0.0
 10
3.913999
 20
123.499991
 30
0.0
 10
3.959998
 20
123.845685
 30
0.0
 10
4.092998
 20
124.167899
 30
0.0
 10
4.306000
 20
124.444505
 30
0.0
 10
4.581999
 20
124.656707
 30
0.0
 10
4.903998
 20
124.790199
 30
0.0
 10
5.249999
 20
124.835693
 30
0.0
 10
5.595699
 20
124.790199
 30
0.0
 10
5.917898
 20
124.656707
 30
0.0
 10
6.194498
 20
124.444505
 30
0.0
 10
6.406698
 20
124.167899
 30
0.0
 10
6.540198
 20
123.845685
 30
0.0
 10
6.585698
 20
123.499991
 30
0.0
 10
6.540198
 20
123.154297
 30
0.0
 10
6.406698
 20
122.832197
 30
0.0
 10
6.194498
 20
122.555507
 30
0.0
 10
5.917898
 20
122.343304
 30
0.0
 10
5.595699
 20
122.209784
 30
0.0
 10
5.249999
 20
122.164290
 30
0.0
 10
4.903998
 20
122.209784
 30
0.0
  0
LWPOLYLINE
  5
106
100
AcDbEntity
  8
0
 62
7
100
AcDbPolyline
 90
69
 70
0
 10
209.842997
 20
88.016335
 30
0.0
 10
210.182999
 20
88.066740
 30
0.0
 10
210.515999
 20
88.150137
 30
0.0
 10
210.839998
 20
88.265933
 30
0.0
 10
211.150000
 20
88.412829
 30
0.0
 10
211.444998
 20
88.589416
 30
0.0
 10
211.721000
 20
88.794027
 30
0.0
 10
211.975000
 20
89.024715
 30
0.0
 10
212.205999
 20
89.279336
 30
0.0
 10
212.411000
 20
89.555237
 30
0.0
 10
212.586999
 20
89.849820
 30
0.0
 10
212.734000
 20
90.160434
 30
0.0
 10
212.849999
 20
90.483832
 30
0.0
 10
212.932998
 20
90.817137
 30
0.0
 10
212.983998
 20
91.156932
 30
0.0
 10
213.000000
 20
91.487725
 30
0.0
 10
212.999997
 20
205.512327
 30
0.0
 10
212.983995
 20
205.843128
 30
0.0
 10
212.932998
 20
206.182927
 30
0.0
 10
212.849999
 20
206.516228
 30
0.0
 10
212.734000
 20
206.839627
 30
0.0
 10
212.586999
 20
207.150229
 30
0.0
 10
212.411000
 20
207.444827
 30
0.0
 10
212.205999
 20
207.720727
 30
0.0
 10
211.975000
 20
207.975328
 30
0.0
 10
211.721000
 20
208.206028
 30
0.0
 10
211.444998
 20
208.410628
 30
0.0
 10
211.150000
 20
208.587228
 30
0.0
 10
210.839998
 20
208.734128
 30
0.0
 10
210.515999
 20
208.849927
 30
0.0
 10
210.182999
 20
208.933326
 30
0.0
 10
209.842997
 20
208.983728
 30
0.0
 10
209.511999
 20
209.000041
 30
0.0
 10
0.487999
 20
209.000026
 30
0.0
 10
0.157000
 20
208.983714
 30
0.0
 10
-0.183001
 20
208.933326
 30
0.0
 10
-0.516001
 20
208.849927
 30
0.0
 10
-0.840001
 20
208.734128
 30
0.0
 10
-1.150002
 20
208.587228
 30
0.0
 10
-1.445000
 20
208.410628
 30
0.0
 10
-1.721002
 20
208.206028
 30
0.0
 10
-1.975002
 20
207.975328
 30
0.0
 10
-2.206001
 20
207.720727
 30
0.0
 10
-2.411002
 20
207.444827
 30
0.0
 10
-2.587001
 20
207.150229
 30
0.0
 10
-2.734002
 20
206.839627
 30
0.0
 10
-2.850001
 20
206.516228
 30
0.0
 10
-2.933000
 20
206.182927
 30
0.0
 10
-2.984000
 20
205.843128
 30
0.0
 10
-3.000002
 20
205.512327
 30
0.0
 10
-3.000000
 20
91.487725
 30
0.0
 10
-2.983998
 20
91.156932
 30
0.0
 10
-2.933000
 20
90.817137
 30
0.0
 10
-2.850001
 20
90.483832
 30
0.0
 10
-2.734002
 20
90.160434
 30
0.0
 10
-2.587001
 20
89.849820
 30
0.0
 10
-2.411002
 20
89.555237
 30
0.0
 10
-2.206001
 20
89.279336
 30
0.0
 10
-1.975002
 20
89.024715
 30
0.0
 10
-1.721002
 20
88.794027
 30
0.0
 10
-1.445000
 20
88.589416
 30
0.0
 10
-1.150002
 20
88.412829
 30
0.0
 10
-0.840001
 20
88.265933
 30
0.0
 10
-0.516001
 20
88.150137
 30
0.0
 10
-0.183001
 20
88.066740
 30
0.0
 10
0.157000
 20
88.016335
 30
0.0
 10
0.487999
 20
87.999966
 30
0.0
 10
209.511999
 20
88.000023
 30
0.0
 10
209.842997
 20
88.016392
 30
0.0
  0
LWPOLYLINE
  5
107
100
AcDbEntity
  8
0
 62
7
100
AcDbPolyline
 90
124
 70
0
 10
47.893063
 20
167.919297
 30
0.0
 10
49.828123
 20
167.884947
 30
0.0
 10
52.289885
 20
167.650218
 30
0.0
 10
54.757372
 20
167.272366
 30
0.0
 10
57.190509
 20
166.757115
 30
0.0
 10
59.549220
 20
166.115911
 30
0.0
 10
61.799155
 20
165.360209
 30
0.0
 10
63.900241
 20
164.507180
 30
0.0
 10
65.818125
 20
163.562551
 30
0.0
 10
67.512735
 20
162.537770
 30
0.0
 10
67.856237
 20
162.297320
 30
0.0
 10
68.869567
 20
161.873668
 30
0.0
 10
69.842822
 20
161.369864
 30
0.0
 10
70.770276
 20
160.797360
 30
0.0
 10
71.651931
 20
160.156149
 30
0.0
 10
73.260663
 20
158.690547
 30
0.0
 10
74.640395
 20
156.990212
 30
0.0
 10
75.230073
 20
156.068486
 30
0.0
 10
75.756774
 20
155.095241
 30
0.0
 10
76.209052
 20
154.081897
 30
0.0
 10
76.592628
 20
153.022777
 30
0.0
 10
76.890331
 20
151.935026
 30
0.0
 10
77.113607
 20
150.812920
 30
0.0
 10
77.159407
 20
150.412160
 30
0.0
 10
66.928783
 20
150.412160
 30
0.0
 10
66.728405
 20
150.790010
 30
0.0
 10
66.201704
 20
151.419760
 30
0.0
 10
65.571950
 20
151.946470
 30
0.0
 10
64.844871
 20
152.335763
 30
0.0
 10
64.043366
 20
152.587663
 30
0.0
 10
63.184614
 20
152.673537
 30
0.0
 10
62.325858
 20
152.587663
 30
0.0
 10
61.524356
 20
152.335763
 30
0.0
 10
60.797277
 20
151.946470
 30
0.0
 10
60.167524
 20
151.419760
 30
0.0
 10
59.640821
 20
150.790010
 30
0.0
 10
59.251519
 20
150.062942
 30
0.0
 10
58.999618
 20
149.261422
 30
0.0
 10
58.913743
 20
148.402683
 30
0.0
 10
58.999618
 20
147.543921
 30
0.0
 10
59.251519
 20
146.742423
 30
0.0
 10
59.640821
 20
146.015333
 30
0.0
 10
60.167524
 20
145.385584
 30
0.0
 10
60.797277
 20
144.864596
 30
0.0
 10
61.524356
 20
144.469580
 30
0.0
 10
62.325858
 20
144.223402
 30
0.0
 10
63.184614
 20
144.137528
 30
0.0
 10
64.043366
 20
144.223402
 30
0.0
 10
64.844871
 20
144.469580
 30
0.0
 10
65.571950
 20
144.864596
 30
0.0
 10
66.201704
 20
145.385584
 30
0.0
 10
66.728405
 20
146.015333
 30
0.0
 10
67.117708
 20
146.742423
 30
0.0
 10
67.134874
 20
146.793943
 30
0.0
 10
77.188024
 20
146.793943
 30
0.0
 10
76.964747
 20
145.356952
 30
0.0
 10
76.569721
 20
143.874184
 30
0.0
 10
76.031569
 20
142.460103
 30
0.0
 10
75.356014
 20
141.114707
 30
0.0
 10
74.554510
 20
139.860929
 30
0.0
 10
73.638506
 20
138.698748
 30
0.0
 10
72.613725
 20
137.633906
 30
0.0
 10
72.636627
 20
137.359096
 30
0.0
 10
72.762576
 20
136.271345
 30
0.0
 10
72.980126
 20
135.366785
 30
0.0
 10
73.317905
 20
134.565287
 30
0.0
 10
73.798806
 20
133.786677
 30
0.0
 10
74.497259
 20
133.002345
 30
0.0
 10
75.315939
 20
132.292444
 30
0.0
 10
76.684219
 20
131.468036
 30
0.0
 10
78.281504
 20
130.786766
 30
0.0
 10
80.159312
 20
130.231424
 30
0.0
 10
82.369174
 20
129.784889
 30
0.0
 10
82.798550
 20
129.699015
 30
0.0
 10
82.712677
 20
129.624585
 30
0.0
 10
81.361570
 20
129.298255
 30
0.0
 10
79.666961
 20
129.080709
 30
0.0
 10
75.854092
 20
129.080709
 30
0.0
 10
73.386604
 20
129.315421
 30
0.0
 10
70.919118
 20
129.693293
 30
0.0
 10
68.485980
 20
130.208536
 30
0.0
 10
66.127269
 20
130.849730
 30
0.0
 10
63.877333
 20
131.605452
 30
0.0
 10
61.776247
 20
132.458470
 30
0.0
 10
59.858363
 20
133.403106
 30
0.0
 10
58.163755
 20
134.427871
 30
0.0
 10
57.751553
 20
134.725591
 30
0.0
 10
56.755397
 20
135.160683
 30
0.0
 10
55.793593
 20
135.664483
 30
0.0
 10
54.013109
 20
136.883929
 30
0.0
 10
52.433001
 20
138.349530
 30
0.0
 10
51.076170
 20
140.038399
 30
0.0
 10
49.976964
 20
141.927671
 30
0.0
 10
49.530412
 20
142.935270
 30
0.0
 10
49.158285
 20
143.982946
 30
0.0
 10
48.860584
 20
145.059254
 30
0.0
 10
48.648757
 20
146.175637
 30
0.0
 10
48.517082
 20
147.314909
 30
0.0
 10
48.471282
 20
148.482835
 30
0.0
 10
48.551432
 20
150.057198
 30
0.0
 10
48.791883
 20
151.585786
 30
0.0
 10
49.181185
 20
153.051387
 30
0.0
 10
49.713612
 20
154.454025
 30
0.0
 10
50.377716
 20
155.787954
 30
0.0
 10
51.162045
 20
157.036010
 30
0.0
 10
52.066599
 20
158.192470
 30
0.0
 10
53.074204
 20
159.251612
 30
0.0
 10
53.045580
 20
159.600829
 30
0.0
 10
52.919629
 20
160.688583
 30
0.0
 10
52.696353
 20
161.593141
 30
0.0
 10
52.358577
 20
162.394643
 30
0.0
 10
51.877674
 20
163.173246
 30
0.0
 10
51.179221
 20
163.957578
 30
0.0
 10
50.366267
 20
164.673206
 30
0.0
 10
48.997985
 20
165.497609
 30
0.0
 10
47.400702
 20
166.173161
 30
0.0
 10
45.522892
 20
166.728490
 30
0.0
 10
43.313031
 20
167.175041
 30
0.0
 10
42.883654
 20
167.260920
 30
0.0
 10
42.969530
 20
167.335343
 30
0.0
 10
44.320636
 20
167.661669
 30
0.0
 10
46.015244
 20
167.879223
 30
0.0
 10
47.893054
 20
167.919297
 30
0.0
 10
47.893054
 20
167.919297
 30
0.0
  0
ENDSEC
  0
SECTION
  2
OBJECTS
  0
DICTIONARY
  5
C
330
0
100
AcDbDictionary
  3
ACAD_GROUP
350
D
  3
ACAD_MLINESTYLE
350
17
  0
DICTIONARY
  5
D
330
C
100
AcDbDictionary
  0
DICTIONARY
  5
1A
330
C
100
AcDbDictionary
  0
DICTIONARY
  5
17
330
C
100
AcDbDictionary
  3
STANDARD
350
18
  0
DICTIONARY
  5
19
330
C
100
AcDbDictionary
  0
ENDSEC
  0
EOF
