M48
;DRILL file {Pcbnew (2013-mar-13)-testing} date lun 27 may 2013 00:27:12 CEST
;FORMAT={-:-/ absolute / inch / decimal}
FMAT,2
INCH,TZ
T1C0.025
T2C0.032
T3C0.040
T4C0.060
T5C0.125
%
G90
G05
M72
T1
X2.77Y-1.93
X3.24Y-2.34
X4.1Y-2.07
X4.1Y-2.2
T2
X2.305Y-0.91
X2.46Y-0.77
X2.46Y-1.08
X2.56Y-0.77
X2.56Y-1.08
X2.655Y-0.91
X2.66Y-0.77
X2.76Y-0.77
X2.82Y-2.67
X2.86Y-0.77
X2.92Y-2.67
X2.96Y-0.77
X2.97Y-1.94
X2.97Y-2.06
X3.01Y-1.47
X3.02Y-2.67
X3.06Y-0.77
X3.12Y-2.67
X3.16Y-0.77
X3.22Y-2.67
X3.27Y-1.94
X3.27Y-2.06
X3.31Y-1.47
X3.32Y-0.77
X3.32Y-2.67
X3.41Y-0.9
X3.41Y-1.
X3.42Y-0.77
X3.46Y-1.29
X3.52Y-0.77
X3.52Y-2.67
X3.56Y-1.07
X3.56Y-1.17
X3.62Y-0.77
X3.62Y-2.67
X3.72Y-0.77
X3.72Y-0.9
X3.72Y-1.
X3.72Y-2.67
X3.76Y-1.29
X3.82Y-0.77
X3.82Y-2.67
X3.86Y-1.14
X3.86Y-1.44
X3.92Y-0.77
X3.92Y-2.67
X4.02Y-0.77
X4.02Y-2.67
T3
X2.33Y-2.455
X2.33Y-2.63
X2.4Y-1.245
X2.4Y-1.42
X2.58Y-2.455
X2.58Y-2.63
X2.65Y-1.245
X2.65Y-1.42
X2.78Y-1.03
X2.78Y-1.13
X2.96Y-0.91
X2.96Y-1.11
X2.96Y-1.21
X2.96Y-1.31
X3.02Y-2.2
X3.02Y-2.3
X3.02Y-2.4
X3.02Y-2.5
X3.06Y-0.91
X3.06Y-1.11
X3.06Y-1.21
X3.06Y-1.31
X3.12Y-2.2
X3.12Y-2.3
X3.12Y-2.4
X3.12Y-2.5
X3.16Y-1.11
X3.16Y-1.21
X3.16Y-1.31
X3.26Y-1.11
X3.26Y-1.21
X3.26Y-1.31
X3.52Y-2.53
X3.62Y-2.53
X3.72Y-2.53
X3.82Y-2.53
X3.86Y-1.55
X3.86Y-1.65
X3.86Y-1.75
X3.86Y-1.85
T4
X3.5Y-1.5
X3.5Y-1.7
X3.5Y-1.9
T5
X2.07Y-2.67
X2.12Y-0.77
X4.12Y-1.37
X4.12Y-2.47
T0
M30
