G04 (created by PCBNEW-RS274X (2010-00-09 BZR 23xx)-stable) date 2010年12月20日 12時34分29秒*
G01*
G70*
G90*
%MOIN*%
G04 Gerber Fmt 3.4, Leading zero omitted, Abs format*
%FSLAX34Y34*%
G04 APERTURE LIST*
%ADD10C,0.006000*%
%ADD11R,0.055000X0.055000*%
%ADD12C,0.055000*%
%ADD13R,0.055000X0.035000*%
%ADD14R,0.035000X0.055000*%
%ADD15R,0.039400X0.023600*%
%ADD16C,0.017000*%
%ADD17C,0.010000*%
G04 APERTURE END LIST*
G54D10*
G54D11*
X89250Y-61500D03*
G54D12*
X88250Y-61500D03*
G54D11*
X86000Y-60250D03*
G54D12*
X86000Y-61250D03*
G54D11*
X86000Y-56750D03*
G54D12*
X86000Y-57750D03*
G54D11*
X91000Y-60500D03*
G54D12*
X91000Y-61500D03*
G54D13*
X87000Y-61125D03*
X87000Y-60375D03*
X90250Y-58375D03*
X90250Y-57625D03*
X88500Y-56875D03*
X88500Y-57625D03*
G54D14*
X90375Y-59000D03*
X91125Y-59000D03*
G54D13*
X87000Y-58375D03*
X87000Y-59125D03*
X87750Y-56875D03*
X87750Y-57625D03*
G54D14*
X89125Y-60250D03*
X88375Y-60250D03*
G54D13*
X91000Y-58375D03*
X91000Y-57625D03*
X89500Y-59125D03*
X89500Y-58375D03*
X89500Y-56875D03*
X89500Y-57625D03*
X87000Y-56875D03*
X87000Y-57625D03*
G54D15*
X88624Y-58244D03*
X88624Y-58756D03*
X87876Y-58500D03*
G54D16*
X88500Y-57625D02*
X88500Y-57750D01*
X87876Y-58374D02*
X87876Y-58500D01*
X88500Y-57750D02*
X87876Y-58374D01*
X91125Y-59000D02*
X91125Y-60375D01*
X91125Y-60375D02*
X91000Y-60500D01*
X87750Y-57625D02*
X87000Y-58375D01*
X89500Y-59125D02*
X90250Y-59125D01*
X90250Y-59125D02*
X90375Y-59000D01*
X88624Y-58756D02*
X88624Y-59250D01*
X88624Y-59250D02*
X88500Y-59250D01*
X87000Y-58375D02*
X87125Y-58375D01*
X89375Y-59250D02*
X89500Y-59125D01*
X87750Y-59250D02*
X88500Y-59250D01*
X88500Y-59250D02*
X89375Y-59250D01*
X87500Y-59000D02*
X87750Y-59250D01*
X87500Y-58750D02*
X87500Y-59000D01*
X87125Y-58375D02*
X87500Y-58750D01*
X90250Y-58375D02*
X91000Y-58375D01*
X89500Y-58375D02*
X90250Y-58375D01*
X88624Y-58244D02*
X89369Y-58244D01*
X89369Y-58244D02*
X89500Y-58375D01*
X87000Y-61125D02*
X87125Y-61125D01*
X87500Y-60750D02*
X89250Y-60750D01*
X87125Y-61125D02*
X87500Y-60750D01*
X89250Y-61500D02*
X89250Y-60750D01*
X89250Y-60750D02*
X89250Y-60375D01*
X89250Y-60375D02*
X89125Y-60250D01*
X91000Y-61500D02*
X89250Y-61500D01*
X88500Y-56875D02*
X89500Y-56875D01*
X87750Y-56875D02*
X88500Y-56875D01*
X87000Y-56875D02*
X87750Y-56875D01*
X86000Y-56750D02*
X86875Y-56750D01*
X86875Y-56750D02*
X87000Y-56875D01*
X86000Y-60250D02*
X86875Y-60250D01*
X86875Y-60250D02*
X87000Y-60375D01*
G54D17*
X85300Y-56050D02*
X91700Y-56050D01*
X85300Y-56130D02*
X91700Y-56130D01*
X85300Y-56210D02*
X91700Y-56210D01*
X85300Y-56290D02*
X91700Y-56290D01*
X85300Y-56370D02*
X85619Y-56370D01*
X86381Y-56370D02*
X91700Y-56370D01*
X85300Y-56450D02*
X85576Y-56450D01*
X86424Y-56450D02*
X91700Y-56450D01*
X85300Y-56530D02*
X85576Y-56530D01*
X86950Y-56530D02*
X91700Y-56530D01*
X85300Y-56610D02*
X85576Y-56610D01*
X88896Y-56610D02*
X89104Y-56610D01*
X89896Y-56610D02*
X91700Y-56610D01*
X85300Y-56690D02*
X85576Y-56690D01*
X89924Y-56690D02*
X91700Y-56690D01*
X85300Y-56770D02*
X85576Y-56770D01*
X89924Y-56770D02*
X91700Y-56770D01*
X85300Y-56850D02*
X85576Y-56850D01*
X89924Y-56850D02*
X91700Y-56850D01*
X85300Y-56930D02*
X85576Y-56930D01*
X89924Y-56930D02*
X91700Y-56930D01*
X85300Y-57010D02*
X85576Y-57010D01*
X86424Y-57010D02*
X86576Y-57010D01*
X89924Y-57010D02*
X91700Y-57010D01*
X85300Y-57090D02*
X85590Y-57090D01*
X86409Y-57090D02*
X86580Y-57090D01*
X89919Y-57090D02*
X91700Y-57090D01*
X85300Y-57170D02*
X85686Y-57170D01*
X86314Y-57170D02*
X86634Y-57170D01*
X87365Y-57170D02*
X87384Y-57170D01*
X88115Y-57170D02*
X88134Y-57170D01*
X88866Y-57170D02*
X89134Y-57170D01*
X89866Y-57170D02*
X91700Y-57170D01*
X85300Y-57250D02*
X91700Y-57250D01*
X85300Y-57330D02*
X86025Y-57330D01*
X86057Y-57330D02*
X86634Y-57330D01*
X86943Y-57330D02*
X87057Y-57330D01*
X87366Y-57330D02*
X87384Y-57330D01*
X88116Y-57330D02*
X88134Y-57330D01*
X88866Y-57330D02*
X89134Y-57330D01*
X89443Y-57330D02*
X89557Y-57330D01*
X89866Y-57330D02*
X89884Y-57330D01*
X90193Y-57330D02*
X90307Y-57330D01*
X90616Y-57330D02*
X90634Y-57330D01*
X90943Y-57330D02*
X91057Y-57330D01*
X91366Y-57330D02*
X91700Y-57330D01*
X85300Y-57410D02*
X85779Y-57410D01*
X86222Y-57410D02*
X86581Y-57410D01*
X86950Y-57410D02*
X87050Y-57410D01*
X88920Y-57410D02*
X89081Y-57410D01*
X89450Y-57410D02*
X89550Y-57410D01*
X90200Y-57410D02*
X90300Y-57410D01*
X90950Y-57410D02*
X91050Y-57410D01*
X91420Y-57410D02*
X91700Y-57410D01*
X85300Y-57490D02*
X85811Y-57490D01*
X86189Y-57490D02*
X86576Y-57490D01*
X86950Y-57490D02*
X87050Y-57490D01*
X88924Y-57490D02*
X89076Y-57490D01*
X89450Y-57490D02*
X89550Y-57490D01*
X90200Y-57490D02*
X90300Y-57490D01*
X90950Y-57490D02*
X91050Y-57490D01*
X91425Y-57490D02*
X91700Y-57490D01*
X85300Y-57570D02*
X85620Y-57570D01*
X85749Y-57570D02*
X85891Y-57570D01*
X86109Y-57570D02*
X86251Y-57570D01*
X86383Y-57570D02*
X86607Y-57570D01*
X86950Y-57570D02*
X87050Y-57570D01*
X88924Y-57570D02*
X89107Y-57570D01*
X89450Y-57570D02*
X89550Y-57570D01*
X90200Y-57570D02*
X90300Y-57570D01*
X90950Y-57570D02*
X91050Y-57570D01*
X91393Y-57570D02*
X91700Y-57570D01*
X85300Y-57650D02*
X85595Y-57650D01*
X85829Y-57650D02*
X85971Y-57650D01*
X86029Y-57650D02*
X86171Y-57650D01*
X86411Y-57650D02*
X87050Y-57650D01*
X88924Y-57650D02*
X91700Y-57650D01*
X85300Y-57730D02*
X85580Y-57730D01*
X85909Y-57730D02*
X86091Y-57730D01*
X86417Y-57730D02*
X86575Y-57730D01*
X86950Y-57730D02*
X87050Y-57730D01*
X88924Y-57730D02*
X89075Y-57730D01*
X89450Y-57730D02*
X89550Y-57730D01*
X90200Y-57730D02*
X90300Y-57730D01*
X90950Y-57730D02*
X91050Y-57730D01*
X91424Y-57730D02*
X91700Y-57730D01*
X85300Y-57810D02*
X85586Y-57810D01*
X85869Y-57810D02*
X86131Y-57810D01*
X86418Y-57810D02*
X86575Y-57810D01*
X86950Y-57810D02*
X87050Y-57810D01*
X88924Y-57810D02*
X89075Y-57810D01*
X89450Y-57810D02*
X89550Y-57810D01*
X90200Y-57810D02*
X90300Y-57810D01*
X90950Y-57810D02*
X91050Y-57810D01*
X91424Y-57810D02*
X91700Y-57810D01*
X85300Y-57890D02*
X85601Y-57890D01*
X85789Y-57890D02*
X85931Y-57890D01*
X86069Y-57890D02*
X86211Y-57890D01*
X86392Y-57890D02*
X86604Y-57890D01*
X86950Y-57890D02*
X87050Y-57890D01*
X88896Y-57890D02*
X89104Y-57890D01*
X89450Y-57890D02*
X89550Y-57890D01*
X90200Y-57890D02*
X90300Y-57890D01*
X90950Y-57890D02*
X91050Y-57890D01*
X91396Y-57890D02*
X91700Y-57890D01*
X85300Y-57970D02*
X85656Y-57970D01*
X85709Y-57970D02*
X85851Y-57970D01*
X86149Y-57970D02*
X86291Y-57970D01*
X86343Y-57970D02*
X87072Y-57970D01*
X88612Y-57970D02*
X91700Y-57970D01*
X85300Y-58050D02*
X85771Y-58050D01*
X86229Y-58050D02*
X86992Y-58050D01*
X89493Y-58050D02*
X91700Y-58050D01*
X85300Y-58130D02*
X85819Y-58130D01*
X86185Y-58130D02*
X86593Y-58130D01*
X91408Y-58130D02*
X91700Y-58130D01*
X85300Y-58210D02*
X86576Y-58210D01*
X91424Y-58210D02*
X91700Y-58210D01*
X85300Y-58290D02*
X86576Y-58290D01*
X91424Y-58290D02*
X91700Y-58290D01*
X85300Y-58370D02*
X86576Y-58370D01*
X91424Y-58370D02*
X91700Y-58370D01*
X85300Y-58450D02*
X86576Y-58450D01*
X91424Y-58450D02*
X91700Y-58450D01*
X85300Y-58530D02*
X86576Y-58530D01*
X91424Y-58530D02*
X91700Y-58530D01*
X85300Y-58610D02*
X86588Y-58610D01*
X91411Y-58610D02*
X91700Y-58610D01*
X85300Y-58690D02*
X86673Y-58690D01*
X91447Y-58690D02*
X91700Y-58690D01*
X85300Y-58770D02*
X87187Y-58770D01*
X90699Y-58770D02*
X90801Y-58770D01*
X91449Y-58770D02*
X91700Y-58770D01*
X85300Y-58850D02*
X86614Y-58850D01*
X86950Y-58850D02*
X87050Y-58850D01*
X90699Y-58850D02*
X90801Y-58850D01*
X91449Y-58850D02*
X91700Y-58850D01*
X85300Y-58930D02*
X86576Y-58930D01*
X86950Y-58930D02*
X87050Y-58930D01*
X90699Y-58930D02*
X90801Y-58930D01*
X91449Y-58930D02*
X91700Y-58930D01*
X85300Y-59010D02*
X86576Y-59010D01*
X86950Y-59010D02*
X87050Y-59010D01*
X90699Y-59010D02*
X90801Y-59010D01*
X91449Y-59010D02*
X91700Y-59010D01*
X85300Y-59090D02*
X87050Y-59090D01*
X90699Y-59090D02*
X90801Y-59090D01*
X91449Y-59090D02*
X91700Y-59090D01*
X85300Y-59170D02*
X87050Y-59170D01*
X90699Y-59170D02*
X90801Y-59170D01*
X91449Y-59170D02*
X91700Y-59170D01*
X85300Y-59250D02*
X86575Y-59250D01*
X86950Y-59250D02*
X87050Y-59250D01*
X90699Y-59250D02*
X90801Y-59250D01*
X91449Y-59250D02*
X91700Y-59250D01*
X85300Y-59330D02*
X86576Y-59330D01*
X86950Y-59330D02*
X87050Y-59330D01*
X87424Y-59330D02*
X87497Y-59330D01*
X90688Y-59330D02*
X90811Y-59330D01*
X91438Y-59330D02*
X91700Y-59330D01*
X85300Y-59410D02*
X86624Y-59410D01*
X86950Y-59410D02*
X87050Y-59410D01*
X87376Y-59410D02*
X87577Y-59410D01*
X89876Y-59410D02*
X90136Y-59410D01*
X90613Y-59410D02*
X90887Y-59410D01*
X91362Y-59410D02*
X91700Y-59410D01*
X85300Y-59490D02*
X90890Y-59490D01*
X91360Y-59490D02*
X91700Y-59490D01*
X85300Y-59570D02*
X90890Y-59570D01*
X91360Y-59570D02*
X91700Y-59570D01*
X85300Y-59650D02*
X90890Y-59650D01*
X91360Y-59650D02*
X91700Y-59650D01*
X85300Y-59730D02*
X90890Y-59730D01*
X91360Y-59730D02*
X91700Y-59730D01*
X85300Y-59810D02*
X90890Y-59810D01*
X91360Y-59810D02*
X91700Y-59810D01*
X85300Y-59890D02*
X85599Y-59890D01*
X86401Y-59890D02*
X88074Y-59890D01*
X88325Y-59890D02*
X88425Y-59890D01*
X88676Y-59890D02*
X88824Y-59890D01*
X89426Y-59890D02*
X90890Y-59890D01*
X91360Y-59890D02*
X91700Y-59890D01*
X85300Y-59970D02*
X85576Y-59970D01*
X86424Y-59970D02*
X88051Y-59970D01*
X88325Y-59970D02*
X88425Y-59970D01*
X88699Y-59970D02*
X88801Y-59970D01*
X89449Y-59970D02*
X90890Y-59970D01*
X91360Y-59970D02*
X91700Y-59970D01*
X85300Y-60050D02*
X85576Y-60050D01*
X86990Y-60050D02*
X88051Y-60050D01*
X88325Y-60050D02*
X88425Y-60050D01*
X88700Y-60050D02*
X88801Y-60050D01*
X89449Y-60050D02*
X90890Y-60050D01*
X91360Y-60050D02*
X91700Y-60050D01*
X85300Y-60130D02*
X85576Y-60130D01*
X87408Y-60130D02*
X88051Y-60130D01*
X88325Y-60130D02*
X88425Y-60130D01*
X88700Y-60130D02*
X88801Y-60130D01*
X89449Y-60130D02*
X90609Y-60130D01*
X91391Y-60130D02*
X91700Y-60130D01*
X85300Y-60210D02*
X85576Y-60210D01*
X87424Y-60210D02*
X88801Y-60210D01*
X89449Y-60210D02*
X90576Y-60210D01*
X91424Y-60210D02*
X91700Y-60210D01*
X85300Y-60290D02*
X85576Y-60290D01*
X87424Y-60290D02*
X88801Y-60290D01*
X89468Y-60290D02*
X90576Y-60290D01*
X91424Y-60290D02*
X91700Y-60290D01*
X85300Y-60370D02*
X85576Y-60370D01*
X87424Y-60370D02*
X88050Y-60370D01*
X88699Y-60370D02*
X88801Y-60370D01*
X89484Y-60370D02*
X90576Y-60370D01*
X91424Y-60370D02*
X91700Y-60370D01*
X85300Y-60450D02*
X85576Y-60450D01*
X87424Y-60450D02*
X88050Y-60450D01*
X88699Y-60450D02*
X88801Y-60450D01*
X89485Y-60450D02*
X90576Y-60450D01*
X91424Y-60450D02*
X91700Y-60450D01*
X85300Y-60530D02*
X85576Y-60530D01*
X86424Y-60530D02*
X86576Y-60530D01*
X89485Y-60530D02*
X90576Y-60530D01*
X91424Y-60530D02*
X91700Y-60530D01*
X85300Y-60610D02*
X85599Y-60610D01*
X86401Y-60610D02*
X86588Y-60610D01*
X89485Y-60610D02*
X90576Y-60610D01*
X91424Y-60610D02*
X91700Y-60610D01*
X85300Y-60690D02*
X86673Y-60690D01*
X89485Y-60690D02*
X90576Y-60690D01*
X91424Y-60690D02*
X91700Y-60690D01*
X85300Y-60770D02*
X87147Y-60770D01*
X89485Y-60770D02*
X90576Y-60770D01*
X91424Y-60770D02*
X91700Y-60770D01*
X85300Y-60850D02*
X85863Y-60850D01*
X86119Y-60850D02*
X86614Y-60850D01*
X89485Y-60850D02*
X90594Y-60850D01*
X91405Y-60850D02*
X91700Y-60850D01*
X85300Y-60930D02*
X85770Y-60930D01*
X86231Y-60930D02*
X86576Y-60930D01*
X89485Y-60930D02*
X91700Y-60930D01*
X85300Y-61010D02*
X85831Y-61010D01*
X86169Y-61010D02*
X86576Y-61010D01*
X87572Y-61010D02*
X89015Y-61010D01*
X89485Y-61010D02*
X91700Y-61010D01*
X85300Y-61090D02*
X85614Y-61090D01*
X85769Y-61090D02*
X85911Y-61090D01*
X86089Y-61090D02*
X86231Y-61090D01*
X86391Y-61090D02*
X86576Y-61090D01*
X87492Y-61090D02*
X88148Y-61090D01*
X88338Y-61090D02*
X88912Y-61090D01*
X89589Y-61090D02*
X90880Y-61090D01*
X91121Y-61090D02*
X91700Y-61090D01*
X85300Y-61170D02*
X85588Y-61170D01*
X85849Y-61170D02*
X85991Y-61170D01*
X86009Y-61170D02*
X86151Y-61170D01*
X86412Y-61170D02*
X86576Y-61170D01*
X87424Y-61170D02*
X88025Y-61170D01*
X88476Y-61170D02*
X88837Y-61170D01*
X89664Y-61170D02*
X90729Y-61170D01*
X91271Y-61170D02*
X91700Y-61170D01*
X85300Y-61250D02*
X85581Y-61250D01*
X85929Y-61250D02*
X86071Y-61250D01*
X86419Y-61250D02*
X86576Y-61250D01*
X87424Y-61250D02*
X88071Y-61250D01*
X88429Y-61250D02*
X88826Y-61250D01*
X89674Y-61250D02*
X90649Y-61250D01*
X91351Y-61250D02*
X91700Y-61250D01*
X85300Y-61330D02*
X85588Y-61330D01*
X85849Y-61330D02*
X85991Y-61330D01*
X86009Y-61330D02*
X86151Y-61330D01*
X86412Y-61330D02*
X86576Y-61330D01*
X87423Y-61330D02*
X87867Y-61330D01*
X88009Y-61330D02*
X88151Y-61330D01*
X88349Y-61330D02*
X88491Y-61330D01*
X88637Y-61330D02*
X88826Y-61330D01*
X91390Y-61330D02*
X91700Y-61330D01*
X85300Y-61410D02*
X85609Y-61410D01*
X85769Y-61410D02*
X85911Y-61410D01*
X86089Y-61410D02*
X86231Y-61410D01*
X86386Y-61410D02*
X86624Y-61410D01*
X87376Y-61410D02*
X87841Y-61410D01*
X88089Y-61410D02*
X88231Y-61410D01*
X88269Y-61410D02*
X88411Y-61410D01*
X88661Y-61410D02*
X88826Y-61410D01*
X91423Y-61410D02*
X91700Y-61410D01*
X85300Y-61490D02*
X85831Y-61490D01*
X86169Y-61490D02*
X87831Y-61490D01*
X88169Y-61490D02*
X88331Y-61490D01*
X88668Y-61490D02*
X88826Y-61490D01*
X91425Y-61490D02*
X91700Y-61490D01*
X85300Y-61570D02*
X85769Y-61570D01*
X86230Y-61570D02*
X87837Y-61570D01*
X88109Y-61570D02*
X88391Y-61570D01*
X88665Y-61570D02*
X88826Y-61570D01*
X91425Y-61570D02*
X91700Y-61570D01*
X85300Y-61650D02*
X85881Y-61650D01*
X86137Y-61650D02*
X87855Y-61650D01*
X88029Y-61650D02*
X88171Y-61650D01*
X88329Y-61650D02*
X88471Y-61650D01*
X88639Y-61650D02*
X88826Y-61650D01*
X91397Y-61650D02*
X91700Y-61650D01*
X85300Y-61730D02*
X87929Y-61730D01*
X87949Y-61730D02*
X88091Y-61730D01*
X88409Y-61730D02*
X88551Y-61730D01*
X88570Y-61730D02*
X88826Y-61730D01*
X91364Y-61730D02*
X91700Y-61730D01*
X85300Y-61810D02*
X88015Y-61810D01*
X88484Y-61810D02*
X88828Y-61810D01*
X89671Y-61810D02*
X90709Y-61810D01*
X91291Y-61810D02*
X91700Y-61810D01*
X85300Y-61890D02*
X88100Y-61890D01*
X88411Y-61890D02*
X88879Y-61890D01*
X89621Y-61890D02*
X90831Y-61890D01*
X91169Y-61890D02*
X91700Y-61890D01*
X85300Y-61970D02*
X91700Y-61970D01*
X85300Y-62050D02*
X91700Y-62050D01*
X85300Y-62130D02*
X91700Y-62130D01*
X91700Y-62200D02*
X91700Y-56050D01*
X85300Y-56050D01*
X85300Y-62200D01*
X85693Y-62200D01*
X85693Y-61486D01*
X85629Y-61458D01*
X85591Y-61365D01*
X85578Y-61200D01*
X85629Y-61042D01*
X85693Y-61014D01*
X85929Y-61250D01*
X85693Y-61486D01*
X85693Y-62200D01*
X85950Y-62200D01*
X85950Y-61672D01*
X85792Y-61621D01*
X85764Y-61557D01*
X86000Y-61321D01*
X86000Y-61179D01*
X85764Y-60943D01*
X85792Y-60879D01*
X85885Y-60841D01*
X86050Y-60828D01*
X86208Y-60879D01*
X86236Y-60943D01*
X86000Y-61179D01*
X86000Y-61321D01*
X86236Y-61557D01*
X86208Y-61621D01*
X86115Y-61659D01*
X85950Y-61672D01*
X85950Y-62200D01*
X86307Y-62200D01*
X86307Y-61486D01*
X86071Y-61250D01*
X86307Y-61014D01*
X86371Y-61042D01*
X86409Y-61135D01*
X86422Y-61300D01*
X86371Y-61458D01*
X86307Y-61486D01*
X86307Y-62200D01*
X87943Y-62200D01*
X87943Y-61736D01*
X87879Y-61708D01*
X87841Y-61615D01*
X87828Y-61450D01*
X87879Y-61292D01*
X87943Y-61264D01*
X88179Y-61500D01*
X87943Y-61736D01*
X87943Y-62200D01*
X88200Y-62200D01*
X88200Y-61922D01*
X88042Y-61871D01*
X88014Y-61807D01*
X88250Y-61571D01*
X88250Y-61429D01*
X88014Y-61193D01*
X88042Y-61129D01*
X88135Y-61091D01*
X88300Y-61078D01*
X88458Y-61129D01*
X88486Y-61193D01*
X88250Y-61429D01*
X88250Y-61571D01*
X88486Y-61807D01*
X88458Y-61871D01*
X88365Y-61909D01*
X88200Y-61922D01*
X88200Y-62200D01*
X88557Y-62200D01*
X88557Y-61736D01*
X88321Y-61500D01*
X88557Y-61264D01*
X88621Y-61292D01*
X88659Y-61385D01*
X88672Y-61550D01*
X88621Y-61708D01*
X88557Y-61736D01*
X88557Y-62200D01*
X90915Y-62200D01*
X90915Y-61925D01*
X90759Y-61860D01*
X90639Y-61740D01*
X90636Y-61735D01*
X89674Y-61735D01*
X89674Y-61804D01*
X89652Y-61859D01*
X89610Y-61901D01*
X89555Y-61924D01*
X88946Y-61924D01*
X88891Y-61902D01*
X88849Y-61860D01*
X88826Y-61805D01*
X88826Y-61196D01*
X88848Y-61141D01*
X88890Y-61099D01*
X88945Y-61076D01*
X89015Y-61076D01*
X89015Y-60985D01*
X87597Y-60985D01*
X87424Y-61158D01*
X87424Y-61329D01*
X87402Y-61384D01*
X87360Y-61426D01*
X87305Y-61449D01*
X86696Y-61449D01*
X86641Y-61427D01*
X86599Y-61385D01*
X86576Y-61330D01*
X86576Y-60921D01*
X86598Y-60866D01*
X86640Y-60824D01*
X86695Y-60801D01*
X87116Y-60801D01*
X87218Y-60699D01*
X86696Y-60699D01*
X86641Y-60677D01*
X86599Y-60635D01*
X86576Y-60580D01*
X86576Y-60485D01*
X86424Y-60485D01*
X86424Y-60554D01*
X86402Y-60609D01*
X86360Y-60651D01*
X86305Y-60674D01*
X85696Y-60674D01*
X85641Y-60652D01*
X85599Y-60610D01*
X85576Y-60555D01*
X85576Y-59946D01*
X85598Y-59891D01*
X85640Y-59849D01*
X85693Y-59826D01*
X85693Y-57986D01*
X85629Y-57958D01*
X85591Y-57865D01*
X85578Y-57700D01*
X85629Y-57542D01*
X85693Y-57514D01*
X85929Y-57750D01*
X85693Y-57986D01*
X85693Y-59826D01*
X85950Y-59826D01*
X85950Y-58172D01*
X85792Y-58121D01*
X85764Y-58057D01*
X86000Y-57821D01*
X86000Y-57679D01*
X85764Y-57443D01*
X85792Y-57379D01*
X85885Y-57341D01*
X86050Y-57328D01*
X86208Y-57379D01*
X86236Y-57443D01*
X86000Y-57679D01*
X86000Y-57821D01*
X86236Y-58057D01*
X86208Y-58121D01*
X86115Y-58159D01*
X85950Y-58172D01*
X85950Y-59826D01*
X86304Y-59826D01*
X86307Y-59827D01*
X86307Y-57986D01*
X86071Y-57750D01*
X86307Y-57514D01*
X86371Y-57542D01*
X86409Y-57635D01*
X86422Y-57800D01*
X86371Y-57958D01*
X86307Y-57986D01*
X86307Y-59827D01*
X86359Y-59848D01*
X86401Y-59890D01*
X86424Y-59945D01*
X86424Y-60015D01*
X86875Y-60015D01*
X86913Y-60022D01*
X86913Y-59450D01*
X86755Y-59449D01*
X86696Y-59449D01*
X86641Y-59427D01*
X86599Y-59385D01*
X86576Y-59330D01*
X86575Y-59212D01*
X86612Y-59175D01*
X86612Y-59075D01*
X86575Y-59038D01*
X86576Y-58920D01*
X86599Y-58865D01*
X86641Y-58823D01*
X86696Y-58801D01*
X86755Y-58801D01*
X86913Y-58800D01*
X86950Y-58837D01*
X86950Y-59075D01*
X86612Y-59075D01*
X86612Y-59175D01*
X86950Y-59175D01*
X86950Y-59413D01*
X86913Y-59450D01*
X86913Y-60022D01*
X86965Y-60033D01*
X86991Y-60051D01*
X87304Y-60051D01*
X87359Y-60073D01*
X87401Y-60115D01*
X87424Y-60170D01*
X87424Y-60530D01*
X87500Y-60515D01*
X88051Y-60515D01*
X88051Y-60495D01*
X88050Y-60337D01*
X88087Y-60300D01*
X88087Y-60200D01*
X88050Y-60163D01*
X88051Y-60005D01*
X88051Y-59946D01*
X88073Y-59891D01*
X88115Y-59849D01*
X88170Y-59826D01*
X88288Y-59825D01*
X88325Y-59862D01*
X88325Y-60200D01*
X88087Y-60200D01*
X88087Y-60300D01*
X88325Y-60300D01*
X88425Y-60300D01*
X88425Y-60200D01*
X88425Y-59862D01*
X88462Y-59825D01*
X88580Y-59826D01*
X88635Y-59849D01*
X88677Y-59891D01*
X88699Y-59946D01*
X88699Y-60005D01*
X88700Y-60163D01*
X88663Y-60200D01*
X88425Y-60200D01*
X88425Y-60300D01*
X88663Y-60300D01*
X88700Y-60337D01*
X88699Y-60495D01*
X88699Y-60515D01*
X88801Y-60515D01*
X88801Y-59946D01*
X88823Y-59891D01*
X88865Y-59849D01*
X88920Y-59826D01*
X89329Y-59826D01*
X89384Y-59848D01*
X89426Y-59890D01*
X89449Y-59945D01*
X89449Y-60257D01*
X89467Y-60285D01*
X89485Y-60375D01*
X89485Y-61076D01*
X89554Y-61076D01*
X89609Y-61098D01*
X89651Y-61140D01*
X89674Y-61195D01*
X89674Y-61265D01*
X90637Y-61265D01*
X90640Y-61259D01*
X90696Y-61203D01*
X90696Y-60924D01*
X90641Y-60902D01*
X90599Y-60860D01*
X90576Y-60805D01*
X90576Y-60196D01*
X90598Y-60141D01*
X90640Y-60099D01*
X90695Y-60076D01*
X90890Y-60076D01*
X90890Y-59411D01*
X90866Y-59402D01*
X90824Y-59360D01*
X90801Y-59305D01*
X90801Y-58699D01*
X90699Y-58699D01*
X90699Y-59304D01*
X90677Y-59359D01*
X90635Y-59401D01*
X90580Y-59424D01*
X90171Y-59424D01*
X90116Y-59402D01*
X90074Y-59360D01*
X89911Y-59360D01*
X89902Y-59384D01*
X89860Y-59426D01*
X89805Y-59449D01*
X89491Y-59449D01*
X89465Y-59467D01*
X89375Y-59485D01*
X87750Y-59485D01*
X87660Y-59467D01*
X87583Y-59416D01*
X87424Y-59256D01*
X87424Y-59330D01*
X87401Y-59385D01*
X87359Y-59427D01*
X87304Y-59449D01*
X87245Y-59449D01*
X87087Y-59450D01*
X87050Y-59413D01*
X87050Y-59175D01*
X87050Y-59075D01*
X87050Y-58837D01*
X87087Y-58800D01*
X87218Y-58800D01*
X87116Y-58699D01*
X86696Y-58699D01*
X86641Y-58677D01*
X86599Y-58635D01*
X86576Y-58580D01*
X86576Y-58171D01*
X86598Y-58116D01*
X86640Y-58074D01*
X86695Y-58051D01*
X86913Y-58051D01*
X86913Y-57950D01*
X86755Y-57949D01*
X86696Y-57949D01*
X86641Y-57927D01*
X86599Y-57885D01*
X86576Y-57830D01*
X86575Y-57712D01*
X86612Y-57675D01*
X86612Y-57575D01*
X86575Y-57538D01*
X86576Y-57420D01*
X86599Y-57365D01*
X86641Y-57323D01*
X86696Y-57301D01*
X86755Y-57301D01*
X86913Y-57300D01*
X86950Y-57337D01*
X86950Y-57575D01*
X86612Y-57575D01*
X86612Y-57675D01*
X86950Y-57675D01*
X86950Y-57913D01*
X86913Y-57950D01*
X86913Y-58051D01*
X86991Y-58051D01*
X87092Y-57949D01*
X87087Y-57950D01*
X87050Y-57913D01*
X87050Y-57675D01*
X87050Y-57575D01*
X87050Y-57337D01*
X87087Y-57300D01*
X87245Y-57301D01*
X87304Y-57301D01*
X87359Y-57323D01*
X87374Y-57338D01*
X87390Y-57324D01*
X87445Y-57301D01*
X88054Y-57301D01*
X88109Y-57323D01*
X88124Y-57338D01*
X88140Y-57324D01*
X88195Y-57301D01*
X88804Y-57301D01*
X88859Y-57323D01*
X88901Y-57365D01*
X88924Y-57420D01*
X88924Y-57829D01*
X88902Y-57884D01*
X88860Y-57926D01*
X88805Y-57949D01*
X88633Y-57949D01*
X88605Y-57977D01*
X88850Y-57977D01*
X88905Y-57999D01*
X88915Y-58009D01*
X89369Y-58009D01*
X89413Y-58017D01*
X89413Y-57950D01*
X89255Y-57949D01*
X89196Y-57949D01*
X89141Y-57927D01*
X89099Y-57885D01*
X89076Y-57830D01*
X89075Y-57712D01*
X89112Y-57675D01*
X89196Y-57675D01*
X89196Y-57575D01*
X89112Y-57575D01*
X89075Y-57538D01*
X89076Y-57420D01*
X89099Y-57365D01*
X89141Y-57323D01*
X89196Y-57301D01*
X89196Y-57199D01*
X89141Y-57177D01*
X89099Y-57135D01*
X89088Y-57110D01*
X88911Y-57110D01*
X88902Y-57134D01*
X88860Y-57176D01*
X88805Y-57199D01*
X88196Y-57199D01*
X88141Y-57177D01*
X88124Y-57160D01*
X88110Y-57176D01*
X88055Y-57199D01*
X87446Y-57199D01*
X87391Y-57177D01*
X87374Y-57160D01*
X87360Y-57176D01*
X87305Y-57199D01*
X86696Y-57199D01*
X86641Y-57177D01*
X86599Y-57135D01*
X86576Y-57080D01*
X86576Y-56985D01*
X86424Y-56985D01*
X86424Y-57054D01*
X86402Y-57109D01*
X86360Y-57151D01*
X86305Y-57174D01*
X85696Y-57174D01*
X85641Y-57152D01*
X85599Y-57110D01*
X85576Y-57055D01*
X85576Y-56446D01*
X85598Y-56391D01*
X85640Y-56349D01*
X85695Y-56326D01*
X86304Y-56326D01*
X86359Y-56348D01*
X86401Y-56390D01*
X86424Y-56445D01*
X86424Y-56515D01*
X86875Y-56515D01*
X86965Y-56533D01*
X86991Y-56551D01*
X87304Y-56551D01*
X87359Y-56573D01*
X87374Y-56588D01*
X87390Y-56574D01*
X87445Y-56551D01*
X88054Y-56551D01*
X88109Y-56573D01*
X88124Y-56588D01*
X88140Y-56574D01*
X88195Y-56551D01*
X88804Y-56551D01*
X88859Y-56573D01*
X88901Y-56615D01*
X88911Y-56640D01*
X89088Y-56640D01*
X89098Y-56616D01*
X89140Y-56574D01*
X89195Y-56551D01*
X89804Y-56551D01*
X89859Y-56573D01*
X89901Y-56615D01*
X89924Y-56670D01*
X89924Y-57079D01*
X89902Y-57134D01*
X89860Y-57176D01*
X89805Y-57199D01*
X89196Y-57199D01*
X89196Y-57301D01*
X89255Y-57301D01*
X89413Y-57300D01*
X89450Y-57337D01*
X89450Y-57575D01*
X89196Y-57575D01*
X89196Y-57675D01*
X89450Y-57675D01*
X89450Y-57913D01*
X89413Y-57950D01*
X89413Y-58017D01*
X89459Y-58027D01*
X89494Y-58051D01*
X89804Y-58051D01*
X89859Y-58073D01*
X89874Y-58088D01*
X89890Y-58074D01*
X89945Y-58051D01*
X90163Y-58051D01*
X90163Y-57950D01*
X90005Y-57949D01*
X89946Y-57949D01*
X89891Y-57927D01*
X89874Y-57910D01*
X89859Y-57927D01*
X89804Y-57949D01*
X89745Y-57949D01*
X89587Y-57950D01*
X89550Y-57913D01*
X89550Y-57675D01*
X89888Y-57675D01*
X89888Y-57575D01*
X89550Y-57575D01*
X89550Y-57337D01*
X89587Y-57300D01*
X89745Y-57301D01*
X89804Y-57301D01*
X89859Y-57323D01*
X89874Y-57338D01*
X89891Y-57323D01*
X89946Y-57301D01*
X90005Y-57301D01*
X90163Y-57300D01*
X90200Y-57337D01*
X90200Y-57575D01*
X89888Y-57575D01*
X89888Y-57675D01*
X90200Y-57675D01*
X90200Y-57913D01*
X90163Y-57950D01*
X90163Y-58051D01*
X90554Y-58051D01*
X90609Y-58073D01*
X90624Y-58088D01*
X90640Y-58074D01*
X90695Y-58051D01*
X90913Y-58051D01*
X90913Y-57950D01*
X90755Y-57949D01*
X90696Y-57949D01*
X90641Y-57927D01*
X90624Y-57910D01*
X90609Y-57927D01*
X90554Y-57949D01*
X90495Y-57949D01*
X90337Y-57950D01*
X90300Y-57913D01*
X90300Y-57675D01*
X90638Y-57675D01*
X90638Y-57575D01*
X90300Y-57575D01*
X90300Y-57337D01*
X90337Y-57300D01*
X90495Y-57301D01*
X90554Y-57301D01*
X90609Y-57323D01*
X90624Y-57338D01*
X90641Y-57323D01*
X90696Y-57301D01*
X90755Y-57301D01*
X90913Y-57300D01*
X90950Y-57337D01*
X90950Y-57575D01*
X90638Y-57575D01*
X90638Y-57675D01*
X90950Y-57675D01*
X90950Y-57913D01*
X90913Y-57950D01*
X90913Y-58051D01*
X91087Y-58051D01*
X91087Y-57950D01*
X91050Y-57913D01*
X91050Y-57675D01*
X91050Y-57575D01*
X91050Y-57337D01*
X91087Y-57300D01*
X91245Y-57301D01*
X91304Y-57301D01*
X91359Y-57323D01*
X91401Y-57365D01*
X91424Y-57420D01*
X91425Y-57538D01*
X91388Y-57575D01*
X91050Y-57575D01*
X91050Y-57675D01*
X91388Y-57675D01*
X91425Y-57712D01*
X91424Y-57830D01*
X91401Y-57885D01*
X91359Y-57927D01*
X91304Y-57949D01*
X91245Y-57949D01*
X91087Y-57950D01*
X91087Y-58051D01*
X91304Y-58051D01*
X91359Y-58073D01*
X91401Y-58115D01*
X91424Y-58170D01*
X91424Y-58579D01*
X91407Y-58621D01*
X91426Y-58640D01*
X91449Y-58695D01*
X91449Y-59304D01*
X91427Y-59359D01*
X91385Y-59401D01*
X91360Y-59411D01*
X91360Y-60099D01*
X91401Y-60140D01*
X91424Y-60195D01*
X91424Y-60804D01*
X91402Y-60859D01*
X91360Y-60901D01*
X91305Y-60924D01*
X90696Y-60924D01*
X90696Y-61203D01*
X90760Y-61139D01*
X90916Y-61075D01*
X91085Y-61075D01*
X91241Y-61140D01*
X91361Y-61260D01*
X91425Y-61416D01*
X91425Y-61585D01*
X91360Y-61741D01*
X91240Y-61861D01*
X91084Y-61925D01*
X90915Y-61925D01*
X90915Y-62200D01*
X91700Y-62200D01*
M02*
