  0
SECTION
  2
HEADER
  9
$ACADVER
  1
AC1014
  9
$HANDSEED
  5
FFFF
  9
$MEASUREMENT
 70
     1
  0
ENDSEC
  0
SECTION
  2
TABLES
  0
TABLE
  2
VPORT
  5
8
330
0
100
AcDbSymbolTable
 70
     4
  0
VPORT
  5
2E
330
8
100
AcDbSymbolTableRecord
100
AcDbViewportTableRecord
  2
*ACTIVE
 70
     0
 10
0.0
 20
0.0
 11
1.0
 21
1.0
 12
210.0
 22
148.5
 13
0.0
 23
0.0
 14
10.0
 24
10.0
 15
10.0
 25
10.0
 16
0.0
 26
0.0
 36
1.0
 17
0.0
 27
0.0
 37
0.0
 40
341.0
 41
1.24
 42
50.0
 43
0.0
 44
0.0
 50
0.0
 51
0.0
 71
     0
 72
   100
 73
     1
 74
     3
 75
     0
 76
     0
 77
     0
 78
     0
  0
ENDTAB
  0
TABLE
  2
LTYPE
  5
5
330
0
100
AcDbSymbolTable
 70
     1
  0
LTYPE
  5
14
330
5
100
AcDbSymbolTableRecord
100
AcDbLinetypeTableRecord
  2
BYBLOCK
 70
     0
  3

 72
    65
 73
     0
 40
0.0
  0
LTYPE
  5
15
330
5
100
AcDbSymbolTableRecord
100
AcDbLinetypeTableRecord
  2
BYLAYER
 70
     0
  3

 72
    65
 73
     0
 40
0.0
  0
LTYPE
  5
16
330
5
100
AcDbSymbolTableRecord
100
AcDbLinetypeTableRecord
  2
CONTINUOUS
 70
     0
  3
Solid line
 72
    65
 73
     0
 40
0.0
  0
ENDTAB
  0
TABLE
  2
LAYER
  5
2
100
AcDbSymbolTable
 70
4
  0
LAYER
  5
50
100
AcDbSymbolTableRecord
100
AcDbLayerTableRecord
  2
0
 70
0
  6
CONTINUOUS
  0
LAYER
  5
51
100
AcDbSymbolTableRecord
100
AcDbLayerTableRecord
  2
logo
 70
0
  6
CONTINUOUS
  0
LAYER
  5
52
100
AcDbSymbolTableRecord
100
AcDbLayerTableRecord
  2
dot
 70
0
  6
CONTINUOUS
  0
LAYER
  5
53
100
AcDbSymbolTableRecord
100
AcDbLayerTableRecord
  2
Origin
 70
0
  6
CONTINUOUS
  0
ENDTAB
  0
TABLE
  2
STYLE
  5
3
330
0
100
AcDbSymbolTable
 70
     1
  0
STYLE
  5
11
330
3
100
AcDbSymbolTableRecord
100
AcDbTextStyleTableRecord
  2
STANDARD
 70
     0
 40
0.0
 41
1.0
 50
0.0
 71
     0
 42
2.5
  3
txt
  4

  0
ENDTAB
  0
TABLE
  2
VIEW
  5
6
330
0
100
AcDbSymbolTable
 70
     0
  0
ENDTAB
  0
TABLE
  2
UCS
  5
7
330
0
100
AcDbSymbolTable
 70
     0
  0
ENDTAB
  0
TABLE
  2
APPID
  5
9
330
0
100
AcDbSymbolTable
 70
     2
  0
APPID
  5
12
330
9
100
AcDbSymbolTableRecord
100
AcDbRegAppTableRecord
  2
ACAD
 70
     0
  0
ENDTAB
  0
TABLE
  2
DIMSTYLE
  5
A
330
0
100
AcDbSymbolTable
 70
     1
  0
DIMSTYLE
105
27
330
A
100
AcDbSymbolTableRecord
100
AcDbDimStyleTableRecord
  2
ISO-25
 70
     0
  3

  4

  5

  6

  7

 40
1.0
 41
2.5
 42
0.625
 43
3.75
 44
1.25
 45
0.0
 46
0.0
 47
0.0
 48
0.0
140
2.5
141
2.5
142
0.0
143
0.03937007874016
144
1.0
145
0.0
146
1.0
147
0.625
 71
     0
 72
     0
 73
     0
 74
     0
 75
     0
 76
     0
 77
     1
 78
     8
170
     0
171
     3
172
     1
173
     0
174
     0
175
     0
176
     0
177
     0
178
     0
270
     2
271
     2
272
     2
273
     2
274
     3
340
11
275
     0
280
     0
281
     0
282
     0
283
     0
284
     8
285
     0
286
     0
287
     3
288
     0
  0
ENDTAB
  0
TABLE
  2
BLOCK_RECORD
  5
1
330
0
100
AcDbSymbolTable
 70
     1
  0
BLOCK_RECORD
  5
1F
330
1
100
AcDbSymbolTableRecord
100
AcDbBlockTableRecord
  2
*MODEL_SPACE
  0
BLOCK_RECORD
  5
1B
330
1
100
AcDbSymbolTableRecord
100
AcDbBlockTableRecord
  2
*PAPER_SPACE
  0
ENDTAB
  0
ENDSEC
  0
SECTION
  2
BLOCKS
  0
BLOCK
  5
20
330
1F
100
AcDbEntity
  8
0
100
AcDbBlockBegin
  2
*MODEL_SPACE
 70
     0
 10
0.0
 20
0.0
 30
0.0
  3
*MODEL_SPACE
  1

  0
ENDBLK
  5
21
330
1F
100
AcDbEntity
  8
0
100
AcDbBlockEnd
  0
BLOCK
  5
1C
330
1B
100
AcDbEntity
 67
     1
  8
0
100
AcDbBlockBegin
  2
*PAPER_SPACE
  1

  0
ENDBLK
  5
1D
330
1B
100
AcDbEntity
 67
     1
  8
0
100
AcDbBlockEnd
  0
ENDSEC
  0
SECTION
  2
ENTITIES
  0
LWPOLYLINE
  5
100
100
AcDbEntity
  8
logo
 62
7
100
AcDbPolyline
 90
124
 70
0
 10
-19.188689
 20
24.530112
 30
0.0
 10
-16.754902
 20
24.486910
 30
0.0
 10
-13.658664
 20
24.191685
 30
0.0
 10
-10.555225
 20
23.716448
 30
0.0
 10
-7.494990
 20
23.068399
 30
0.0
 10
-4.528362
 20
22.261937
 30
0.0
 10
-1.698546
 20
21.311464
 30
0.0
 10
0.944058
 20
20.238582
 30
0.0
 10
3.356243
 20
19.050491
 30
0.0
 10
5.487608
 20
17.761591
 30
0.0
 10
5.919642
 20
17.459170
 30
0.0
 10
7.194140
 20
16.926329
 30
0.0
 10
8.418235
 20
16.292678
 30
0.0
 10
9.584724
 20
15.572624
 30
0.0
 10
10.693609
 20
14.766160
 30
0.0
 10
12.716964
 20
12.922820
 30
0.0
 10
14.452298
 20
10.784253
 30
0.0
 10
15.193955
 20
9.624966
 30
0.0
 10
15.856404
 20
8.400872
 30
0.0
 10
16.425249
 20
7.126374
 30
0.0
 10
16.907685
 20
5.794271
 30
0.0
 10
17.282115
 20
4.426164
 30
0.0
 10
17.562937
 20
3.014856
 30
0.0
 10
17.620541
 20
2.510818
 30
0.0
 10
4.753153
 20
2.510818
 30
0.0
 10
4.501131
 20
2.986055
 30
0.0
 10
3.838682
 20
3.778115
 30
0.0
 10
3.046620
 20
4.440566
 30
0.0
 10
2.132149
 20
4.930205
 30
0.0
 10
1.124071
 20
5.247030
 30
0.0
 10
0.043990
 20
5.355037
 30
0.0
 10
-1.036095
 20
5.247030
 30
0.0
 10
-2.044170
 20
4.930205
 30
0.0
 10
-2.958641
 20
4.440566
 30
0.0
 10
-3.750702
 20
3.778115
 30
0.0
 10
-4.413153
 20
2.986055
 30
0.0
 10
-4.902791
 20
2.071584
 30
0.0
 10
-5.219615
 20
1.063506
 30
0.0
 10
-5.327623
 20
-0.016575
 30
0.0
 10
-5.219615
 20
-1.096659
 30
0.0
 10
-4.902791
 20
-2.104737
 30
0.0
 10
-4.413153
 20
-3.019208
 30
0.0
 10
-3.750702
 20
-3.811267
 30
0.0
 10
-2.958641
 20
-4.466519
 30
0.0
 10
-2.044170
 20
-4.963358
 30
0.0
 10
-1.036095
 20
-5.272981
 30
0.0
 10
0.043990
 20
-5.380990
 30
0.0
 10
1.124071
 20
-5.272981
 30
0.0
 10
2.132149
 20
-4.963358
 30
0.0
 10
3.046620
 20
-4.466519
 30
0.0
 10
3.838682
 20
-3.811267
 30
0.0
 10
4.501131
 20
-3.019208
 30
0.0
 10
4.990770
 20
-2.104737
 30
0.0
 10
5.012360
 20
-2.039930
 30
0.0
 10
17.656533
 20
-2.039930
 30
0.0
 10
17.375711
 20
-3.847270
 30
0.0
 10
16.878873
 20
-5.712214
 30
0.0
 10
16.202022
 20
-7.490751
 30
0.0
 10
15.352355
 20
-9.182882
 30
0.0
 10
14.344277
 20
-10.759804
 30
0.0
 10
13.192190
 20
-12.221515
 30
0.0
 10
11.903289
 20
-13.560817
 30
0.0
 10
11.932093
 20
-13.906444
 30
0.0
 10
12.090504
 20
-15.274550
 30
0.0
 10
12.364124
 20
-16.412235
 30
0.0
 10
12.788959
 20
-17.420313
 30
0.0
 10
13.393804
 20
-18.399591
 30
0.0
 10
14.272271
 20
-19.386065
 30
0.0
 10
15.301951
 20
-20.278934
 30
0.0
 10
17.022882
 20
-21.315813
 30
0.0
 10
19.031839
 20
-22.172676
 30
0.0
 10
21.393618
 20
-22.871136
 30
0.0
 10
24.173034
 20
-23.432776
 30
0.0
 10
24.713074
 20
-23.540788
 30
0.0
 10
24.605068
 20
-23.634390
 30
0.0
 10
22.905737
 20
-24.044820
 30
0.0
 10
20.774372
 20
-24.318445
 30
0.0
 10
15.978804
 20
-24.318445
 30
0.0
 10
12.875364
 20
-24.023221
 30
0.0
 10
9.771927
 20
-23.547982
 30
0.0
 10
6.711690
 20
-22.899934
 30
0.0
 10
3.745063
 20
-22.093470
 30
0.0
 10
0.915246
 20
-21.143000
 30
0.0
 10
-1.727358
 20
-20.070118
 30
0.0
 10
-4.139543
 20
-18.882027
 30
0.0
 10
-6.270907
 20
-17.593127
 30
0.0
 10
-6.789347
 20
-17.218700
 30
0.0
 10
-8.042244
 20
-16.671457
 30
0.0
 10
-9.251937
 20
-16.037808
 30
0.0
 10
-11.491309
 20
-14.504089
 30
0.0
 10
-13.478662
 20
-12.660749
 30
0.0
 10
-15.185192
 20
-10.536583
 30
0.0
 10
-16.567699
 20
-8.160402
 30
0.0
 10
-17.129342
 20
-6.893106
 30
0.0
 10
-17.597378
 20
-5.575404
 30
0.0
 10
-17.971807
 20
-4.221700
 30
0.0
 10
-18.238228
 20
-2.817591
 30
0.0
 10
-18.403840
 20
-1.384681
 30
0.0
 10
-18.461445
 20
0.084232
 30
0.0
 10
-18.360637
 20
2.064385
 30
0.0
 10
-18.058214
 20
3.986934
 30
0.0
 10
-17.568576
 20
5.830274
 30
0.0
 10
-16.898925
 20
7.594411
 30
0.0
 10
-16.063660
 20
9.272137
 30
0.0
 10
-15.077184
 20
10.841860
 30
0.0
 10
-13.939497
 20
12.296371
 30
0.0
 10
-12.672200
 20
13.628474
 30
0.0
 10
-12.708202
 20
14.067708
 30
0.0
 10
-12.866614
 20
15.435811
 30
0.0
 10
-13.147436
 20
16.573500
 30
0.0
 10
-13.572268
 20
17.581578
 30
0.0
 10
-14.177115
 20
18.560852
 30
0.0
 10
-15.055582
 20
19.547329
 30
0.0
 10
-16.078061
 20
20.447398
 30
0.0
 10
-17.798993
 20
21.484277
 30
0.0
 10
-19.807948
 20
22.333943
 30
0.0
 10
-22.169730
 20
23.032398
 30
0.0
 10
-24.949144
 20
23.594040
 30
0.0
 10
-25.489185
 20
23.702050
 30
0.0
 10
-25.381177
 20
23.795654
 30
0.0
 10
-23.681846
 20
24.206087
 30
0.0
 10
-21.550483
 20
24.479710
 30
0.0
 10
-19.188701
 20
24.530112
 30
0.0
 10
-19.188701
 20
24.530112
 30
0.0
  0
SPLINE
  5
101
100
AcDbEntity
  8
Origin
 62
1
100
AcDbSpline
 70
8
 71
3
 72
8
 73
4
 74
0
 40
0
 40
0
 40
0
 40
0
 40
1
 40
1
 40
1
 40
1
 10
0.282222
 20
0.000000
 30
0.0
 10
0.282222
 20
-0.100828
 30
0.0
 10
0.228431
 20
-0.193997
 30
0.0
 10
0.141111
 20
-0.244412
 30
0.0
  0
SPLINE
  5
102
100
AcDbEntity
  8
Origin
 62
1
100
AcDbSpline
 70
8
 71
3
 72
8
 73
4
 74
0
 40
0
 40
0
 40
0
 40
0
 40
1
 40
1
 40
1
 40
1
 10
0.141111
 20
-0.244412
 30
0.0
 10
0.053791
 20
-0.294826
 30
0.0
 10
-0.053791
 20
-0.294826
 30
0.0
 10
-0.141111
 20
-0.244412
 30
0.0
  0
SPLINE
  5
103
100
AcDbEntity
  8
Origin
 62
1
100
AcDbSpline
 70
8
 71
3
 72
8
 73
4
 74
0
 40
0
 40
0
 40
0
 40
0
 40
1
 40
1
 40
1
 40
1
 10
-0.141111
 20
-0.244412
 30
0.0
 10
-0.228431
 20
-0.193997
 30
0.0
 10
-0.282222
 20
-0.100828
 30
0.0
 10
-0.282222
 20
0.000000
 30
0.0
  0
SPLINE
  5
104
100
AcDbEntity
  8
Origin
 62
1
100
AcDbSpline
 70
8
 71
3
 72
8
 73
4
 74
0
 40
0
 40
0
 40
0
 40
0
 40
1
 40
1
 40
1
 40
1
 10
-0.282222
 20
0.000000
 30
0.0
 10
-0.282222
 20
0.100828
 30
0.0
 10
-0.228431
 20
0.193997
 30
0.0
 10
-0.141111
 20
0.244412
 30
0.0
  0
SPLINE
  5
105
100
AcDbEntity
  8
Origin
 62
1
100
AcDbSpline
 70
8
 71
3
 72
8
 73
4
 74
0
 40
0
 40
0
 40
0
 40
0
 40
1
 40
1
 40
1
 40
1
 10
-0.141111
 20
0.244412
 30
0.0
 10
-0.053791
 20
0.294826
 30
0.0
 10
0.053791
 20
0.294826
 30
0.0
 10
0.141111
 20
0.244412
 30
0.0
  0
SPLINE
  5
106
100
AcDbEntity
  8
Origin
 62
1
100
AcDbSpline
 70
8
 71
3
 72
8
 73
4
 74
0
 40
0
 40
0
 40
0
 40
0
 40
1
 40
1
 40
1
 40
1
 10
0.141111
 20
0.244412
 30
0.0
 10
0.228431
 20
0.193997
 30
0.0
 10
0.282222
 20
0.100828
 30
0.0
 10
0.282222
 20
0.000000
 30
0.0
  0
LWPOLYLINE
  5
107
100
AcDbEntity
  8
dot
 62
7
100
AcDbPolyline
 90
33
 70
0
 10
3.135963
 20
0.000003
 30
0.0
 10
3.072251
 20
-0.632006
 30
0.0
 10
2.889523
 20
-1.220656
 30
0.0
 10
2.600390
 20
-1.753345
 30
0.0
 10
2.217460
 20
-2.217460
 30
0.0
 10
1.753347
 20
-2.600387
 30
0.0
 10
1.220659
 20
-2.889521
 30
0.0
 10
0.632005
 20
-3.072251
 30
0.0
 10
0.000000
 20
-3.135960
 30
0.0
 10
-0.632006
 20
-3.072251
 30
0.0
 10
-1.220658
 20
-2.889521
 30
0.0
 10
-1.753347
 20
-2.600387
 30
0.0
 10
-2.217461
 20
-2.217460
 30
0.0
 10
-2.600389
 20
-1.753345
 30
0.0
 10
-2.889522
 20
-1.220656
 30
0.0
 10
-3.072252
 20
-0.632006
 30
0.0
 10
-3.135963
 20
0.000003
 30
0.0
 10
-3.072252
 20
0.632006
 30
0.0
 10
-2.889522
 20
1.220659
 30
0.0
 10
-2.600389
 20
1.753348
 30
0.0
 10
-2.217461
 20
2.217462
 30
0.0
 10
-1.753347
 20
2.600390
 30
0.0
 10
-1.220658
 20
2.889524
 30
0.0
 10
-0.632006
 20
3.072251
 30
0.0
 10
0.000000
 20
3.135963
 30
0.0
 10
0.632005
 20
3.072251
 30
0.0
 10
1.220659
 20
2.889524
 30
0.0
 10
1.753347
 20
2.600390
 30
0.0
 10
2.217460
 20
2.217462
 30
0.0
 10
2.600390
 20
1.753348
 30
0.0
 10
2.889523
 20
1.220659
 30
0.0
 10
3.072251
 20
0.632006
 30
0.0
 10
3.135963
 20
0.000003
 30
0.0
  0
LWPOLYLINE
  5
108
100
AcDbEntity
  8
Origin
 62
1
100
AcDbPolyline
 90
2
 70
0
 10
0.282222
 20
0.000000
 30
0.0
 10
0.282222
 20
0.000000
 30
0.0
  0
ENDSEC
  0
SECTION
  2
OBJECTS
  0
DICTIONARY
  5
C
330
0
100
AcDbDictionary
  3
ACAD_GROUP
350
D
  3
ACAD_MLINESTYLE
350
17
  0
DICTIONARY
  5
D
330
C
100
AcDbDictionary
  0
DICTIONARY
  5
1A
330
C
100
AcDbDictionary
  0
DICTIONARY
  5
17
330
C
100
AcDbDictionary
  3
STANDARD
350
18
  0
DICTIONARY
  5
19
330
C
100
AcDbDictionary
  0
ENDSEC
  0
EOF
