  0
SECTION
  2
HEADER
  9
$ACADVER
  1
AC1014
  9
$HANDSEED
  5
FFFF
  9
$MEASUREMENT
 70
     1
  0
ENDSEC
  0
SECTION
  2
TABLES
  0
TABLE
  2
VPORT
  5
8
330
0
100
AcDbSymbolTable
 70
     4
  0
VPORT
  5
2E
330
8
100
AcDbSymbolTableRecord
100
AcDbViewportTableRecord
  2
*ACTIVE
 70
     0
 10
0.0
 20
0.0
 11
1.0
 21
1.0
 12
210.0
 22
148.5
 13
0.0
 23
0.0
 14
10.0
 24
10.0
 15
10.0
 25
10.0
 16
0.0
 26
0.0
 36
1.0
 17
0.0
 27
0.0
 37
0.0
 40
341.0
 41
1.24
 42
50.0
 43
0.0
 44
0.0
 50
0.0
 51
0.0
 71
     0
 72
   100
 73
     1
 74
     3
 75
     0
 76
     0
 77
     0
 78
     0
  0
ENDTAB
  0
TABLE
  2
LTYPE
  5
5
330
0
100
AcDbSymbolTable
 70
     1
  0
LTYPE
  5
14
330
5
100
AcDbSymbolTableRecord
100
AcDbLinetypeTableRecord
  2
BYBLOCK
 70
     0
  3

 72
    65
 73
     0
 40
0.0
  0
LTYPE
  5
15
330
5
100
AcDbSymbolTableRecord
100
AcDbLinetypeTableRecord
  2
BYLAYER
 70
     0
  3

 72
    65
 73
     0
 40
0.0
  0
LTYPE
  5
16
330
5
100
AcDbSymbolTableRecord
100
AcDbLinetypeTableRecord
  2
CONTINUOUS
 70
     0
  3
Solid line
 72
    65
 73
     0
 40
0.0
  0
ENDTAB
  0
TABLE
  2
LAYER
  5
2
100
AcDbSymbolTable
 70
1
  0
LAYER
  5
50
100
AcDbSymbolTableRecord
100
AcDbLayerTableRecord
  2
0
 70
0
  6
CONTINUOUS
  0
ENDTAB
  0
TABLE
  2
STYLE
  5
3
330
0
100
AcDbSymbolTable
 70
     1
  0
STYLE
  5
11
330
3
100
AcDbSymbolTableRecord
100
AcDbTextStyleTableRecord
  2
STANDARD
 70
     0
 40
0.0
 41
1.0
 50
0.0
 71
     0
 42
2.5
  3
txt
  4

  0
ENDTAB
  0
TABLE
  2
VIEW
  5
6
330
0
100
AcDbSymbolTable
 70
     0
  0
ENDTAB
  0
TABLE
  2
UCS
  5
7
330
0
100
AcDbSymbolTable
 70
     0
  0
ENDTAB
  0
TABLE
  2
APPID
  5
9
330
0
100
AcDbSymbolTable
 70
     2
  0
APPID
  5
12
330
9
100
AcDbSymbolTableRecord
100
AcDbRegAppTableRecord
  2
ACAD
 70
     0
  0
ENDTAB
  0
TABLE
  2
DIMSTYLE
  5
A
330
0
100
AcDbSymbolTable
 70
     1
  0
DIMSTYLE
105
27
330
A
100
AcDbSymbolTableRecord
100
AcDbDimStyleTableRecord
  2
ISO-25
 70
     0
  3

  4

  5

  6

  7

 40
1.0
 41
2.5
 42
0.625
 43
3.75
 44
1.25
 45
0.0
 46
0.0
 47
0.0
 48
0.0
140
2.5
141
2.5
142
0.0
143
0.03937007874016
144
1.0
145
0.0
146
1.0
147
0.625
 71
     0
 72
     0
 73
     0
 74
     0
 75
     0
 76
     0
 77
     1
 78
     8
170
     0
171
     3
172
     1
173
     0
174
     0
175
     0
176
     0
177
     0
178
     0
270
     2
271
     2
272
     2
273
     2
274
     3
340
11
275
     0
280
     0
281
     0
282
     0
283
     0
284
     8
285
     0
286
     0
287
     3
288
     0
  0
ENDTAB
  0
TABLE
  2
BLOCK_RECORD
  5
1
330
0
100
AcDbSymbolTable
 70
     1
  0
BLOCK_RECORD
  5
1F
330
1
100
AcDbSymbolTableRecord
100
AcDbBlockTableRecord
  2
*MODEL_SPACE
  0
BLOCK_RECORD
  5
1B
330
1
100
AcDbSymbolTableRecord
100
AcDbBlockTableRecord
  2
*PAPER_SPACE
  0
ENDTAB
  0
ENDSEC
  0
SECTION
  2
BLOCKS
  0
BLOCK
  5
20
330
1F
100
AcDbEntity
  8
0
100
AcDbBlockBegin
  2
*MODEL_SPACE
 70
     0
 10
0.0
 20
0.0
 30
0.0
  3
*MODEL_SPACE
  1

  0
ENDBLK
  5
21
330
1F
100
AcDbEntity
  8
0
100
AcDbBlockEnd
  0
BLOCK
  5
1C
330
1B
100
AcDbEntity
 67
     1
  8
0
100
AcDbBlockBegin
  2
*PAPER_SPACE
  1

  0
ENDBLK
  5
1D
330
1B
100
AcDbEntity
 67
     1
  8
0
100
AcDbBlockEnd
  0
ENDSEC
  0
SECTION
  2
ENTITIES
  0
LWPOLYLINE
  5
100
100
AcDbEntity
  8
0
 62
7
100
AcDbPolyline
 90
28
 70
0
 10
42.749998
 20
79.999995
 30
0.0
 10
42.772999
 20
79.477094
 30
0.0
 10
42.840997
 20
78.958087
 30
0.0
 10
42.953996
 20
78.447096
 30
0.0
 10
43.111996
 20
77.947901
 30
0.0
 10
43.311995
 20
77.464313
 30
0.0
 10
43.553995
 20
77.000001
 30
0.0
 10
43.834995
 20
76.558493
 30
0.0
 10
44.153997
 20
76.143287
 30
0.0
 10
44.506998
 20
75.757405
 30
0.0
 10
51.749997
 20
67.999991
 30
0.0
 10
54.749996
 20
64.999997
 30
0.0
 10
74.249997
 20
64.999997
 30
0.0
 10
77.249996
 20
67.999991
 30
0.0
 10
77.249996
 20
91.999999
 30
0.0
 10
74.249997
 20
94.999993
 30
0.0
 10
54.749996
 20
94.999993
 30
0.0
 10
51.749997
 20
91.999999
 30
0.0
 10
44.506998
 20
84.242614
 30
0.0
 10
44.153997
 20
83.856703
 30
0.0
 10
43.834995
 20
83.441498
 30
0.0
 10
43.553995
 20
82.999989
 30
0.0
 10
43.311995
 20
82.535705
 30
0.0
 10
43.111996
 20
82.052089
 30
0.0
 10
42.953996
 20
81.552895
 30
0.0
 10
42.840997
 20
81.041903
 30
0.0
 10
42.772996
 20
80.522897
 30
0.0
 10
42.749995
 20
79.999995
 30
0.0
  0
LWPOLYLINE
  5
101
100
AcDbEntity
  8
0
 62
7
100
AcDbPolyline
 90
25
 70
0
 10
46.909996
 20
79.999995
 30
0.0
 10
46.972996
 20
80.476189
 30
0.0
 10
47.156997
 20
80.920011
 30
0.0
 10
47.448998
 20
81.301096
 30
0.0
 10
47.829998
 20
81.593507
 30
0.0
 10
48.273995
 20
81.777290
 30
0.0
 10
48.749997
 20
81.839999
 30
0.0
 10
49.226196
 20
81.777290
 30
0.0
 10
49.669996
 20
81.593507
 30
0.0
 10
50.051098
 20
81.301096
 30
0.0
 10
50.343497
 20
80.920011
 30
0.0
 10
50.527297
 20
80.476189
 30
0.0
 10
50.589996
 20
79.999995
 30
0.0
 10
50.527297
 20
79.523802
 30
0.0
 10
50.343497
 20
79.080007
 30
0.0
 10
50.051098
 20
78.698894
 30
0.0
 10
49.669996
 20
78.406512
 30
0.0
 10
49.226196
 20
78.222701
 30
0.0
 10
48.749997
 20
78.159991
 30
0.0
 10
48.273995
 20
78.222701
 30
0.0
 10
47.829998
 20
78.406512
 30
0.0
 10
47.448998
 20
78.698894
 30
0.0
 10
47.156997
 20
79.080007
 30
0.0
 10
46.972996
 20
79.523802
 30
0.0
 10
46.909996
 20
79.999995
 30
0.0
  0
LWPOLYLINE
  5
102
100
AcDbEntity
  8
0
 62
7
100
AcDbPolyline
 90
28
 70
0
 10
42.749998
 20
130.000000
 30
0.0
 10
42.772999
 20
129.477101
 30
0.0
 10
42.840997
 20
128.958100
 30
0.0
 10
42.953996
 20
128.447100
 30
0.0
 10
43.111996
 20
127.947900
 30
0.0
 10
43.311995
 20
127.464301
 30
0.0
 10
43.553995
 20
127.000000
 30
0.0
 10
43.834995
 20
126.558500
 30
0.0
 10
44.153997
 20
126.143300
 30
0.0
 10
44.506998
 20
125.757401
 30
0.0
 10
51.749997
 20
118.000004
 30
0.0
 10
54.749996
 20
115.000010
 30
0.0
 10
74.249997
 20
115.000010
 30
0.0
 10
77.249996
 20
118.000004
 30
0.0
 10
77.249996
 20
142.000001
 30
0.0
 10
74.249997
 20
145.000001
 30
0.0
 10
54.749996
 20
145.000001
 30
0.0
 10
51.749997
 20
142.000001
 30
0.0
 10
44.506998
 20
134.242601
 30
0.0
 10
44.153997
 20
133.856702
 30
0.0
 10
43.834995
 20
133.441499
 30
0.0
 10
43.553995
 20
132.999999
 30
0.0
 10
43.311995
 20
132.535701
 30
0.0
 10
43.111996
 20
132.052100
 30
0.0
 10
42.953996
 20
131.552899
 30
0.0
 10
42.840997
 20
131.041899
 30
0.0
 10
42.772996
 20
130.522901
 30
0.0
 10
42.749995
 20
130.000000
 30
0.0
  0
LWPOLYLINE
  5
103
100
AcDbEntity
  8
0
 62
7
100
AcDbPolyline
 90
25
 70
0
 10
46.909996
 20
130.000000
 30
0.0
 10
46.972996
 20
130.476199
 30
0.0
 10
47.156997
 20
130.920002
 30
0.0
 10
47.448998
 20
131.301101
 30
0.0
 10
47.829998
 20
131.593500
 30
0.0
 10
48.273995
 20
131.777300
 30
0.0
 10
48.749997
 20
131.840001
 30
0.0
 10
49.226196
 20
131.777300
 30
0.0
 10
49.669996
 20
131.593500
 30
0.0
 10
50.051098
 20
131.301101
 30
0.0
 10
50.343497
 20
130.920002
 30
0.0
 10
50.527297
 20
130.476199
 30
0.0
 10
50.589996
 20
130.000000
 30
0.0
 10
50.527297
 20
129.523800
 30
0.0
 10
50.343497
 20
129.080000
 30
0.0
 10
50.051098
 20
128.698902
 30
0.0
 10
49.669996
 20
128.406500
 30
0.0
 10
49.226196
 20
128.222700
 30
0.0
 10
48.749997
 20
128.160001
 30
0.0
 10
48.273995
 20
128.222700
 30
0.0
 10
47.829998
 20
128.406500
 30
0.0
 10
47.448998
 20
128.698902
 30
0.0
 10
47.156997
 20
129.080000
 30
0.0
 10
46.972996
 20
129.523800
 30
0.0
 10
46.909996
 20
130.000000
 30
0.0
  0
LWPOLYLINE
  5
104
100
AcDbEntity
  8
0
 62
7
100
AcDbPolyline
 90
49
 70
0
 10
137.499996
 20
92.999997
 30
0.0
 10
137.530497
 20
92.573108
 30
0.0
 10
137.621497
 20
92.154798
 30
0.0
 10
137.771097
 20
91.753789
 30
0.0
 10
137.976197
 20
91.378095
 30
0.0
 10
138.232796
 20
91.035392
 30
0.0
 10
138.535416
 20
90.732793
 30
0.0
 10
138.878077
 20
90.476197
 30
0.0
 10
139.253747
 20
90.271106
 30
0.0
 10
139.654796
 20
90.121500
 30
0.0
 10
140.073057
 20
90.030512
 30
0.0
 10
140.499996
 20
90.000003
 30
0.0
 10
156.499997
 20
90.000003
 30
0.0
 10
156.926936
 20
90.030512
 30
0.0
 10
157.345197
 20
90.121500
 30
0.0
 10
157.746246
 20
90.271106
 30
0.0
 10
158.121916
 20
90.476197
 30
0.0
 10
158.464577
 20
90.732793
 30
0.0
 10
158.767197
 20
91.035392
 30
0.0
 10
159.023796
 20
91.378095
 30
0.0
 10
159.228896
 20
91.753789
 30
0.0
 10
159.378496
 20
92.154798
 30
0.0
 10
159.469496
 20
92.573108
 30
0.0
 10
159.499997
 20
92.999997
 30
0.0
 10
159.499997
 20
117.000006
 30
0.0
 10
159.469496
 20
117.426895
 30
0.0
 10
159.378496
 20
117.845205
 30
0.0
 10
159.228896
 20
118.246215
 30
0.0
 10
159.023796
 20
118.621909
 30
0.0
 10
158.767197
 20
118.964611
 30
0.0
 10
158.464577
 20
119.267210
 30
0.0
 10
158.121916
 20
119.523806
 30
0.0
 10
157.746246
 20
119.728897
 30
0.0
 10
157.345197
 20
119.878500
 30
0.0
 10
156.926936
 20
119.969500
 30
0.0
 10
156.499997
 20
120.000000
 30
0.0
 10
140.499996
 20
120.000000
 30
0.0
 10
140.073057
 20
119.969500
 30
0.0
 10
139.654796
 20
119.878500
 30
0.0
 10
139.253747
 20
119.728897
 30
0.0
 10
138.878077
 20
119.523806
 30
0.0
 10
138.535416
 20
119.267210
 30
0.0
 10
138.232796
 20
118.964611
 30
0.0
 10
137.976197
 20
118.621909
 30
0.0
 10
137.771097
 20
118.246215
 30
0.0
 10
137.621497
 20
117.845205
 30
0.0
 10
137.530497
 20
117.426895
 30
0.0
 10
137.499996
 20
117.000006
 30
0.0
 10
137.499996
 20
92.999997
 30
0.0
  0
LWPOLYLINE
  5
105
100
AcDbEntity
  8
0
 62
7
100
AcDbPolyline
 90
25
 70
0
 10
146.659997
 20
100.000012
 30
0.0
 10
146.722696
 20
100.476233
 30
0.0
 10
146.906507
 20
100.920000
 30
0.0
 10
147.198917
 20
101.301084
 30
0.0
 10
147.579996
 20
101.593495
 30
0.0
 10
148.023769
 20
101.777306
 30
0.0
 10
148.499997
 20
101.839988
 30
0.0
 10
148.976224
 20
101.777306
 30
0.0
 10
149.419997
 20
101.593495
 30
0.0
 10
149.801077
 20
101.301084
 30
0.0
 10
150.093486
 20
100.920000
 30
0.0
 10
150.277297
 20
100.476233
 30
0.0
 10
150.339996
 20
100.000012
 30
0.0
 10
150.277297
 20
99.523762
 30
0.0
 10
150.093486
 20
99.079995
 30
0.0
 10
149.801077
 20
98.698911
 30
0.0
 10
149.419997
 20
98.406500
 30
0.0
 10
148.976224
 20
98.222689
 30
0.0
 10
148.499997
 20
98.160007
 30
0.0
 10
148.023769
 20
98.222689
 30
0.0
 10
147.579996
 20
98.406500
 30
0.0
 10
147.198917
 20
98.698911
 30
0.0
 10
146.906507
 20
99.079995
 30
0.0
 10
146.722696
 20
99.523762
 30
0.0
 10
146.659997
 20
100.000012
 30
0.0
  0
LWPOLYLINE
  5
106
100
AcDbEntity
  8
0
 62
7
100
AcDbPolyline
 90
25
 70
0
 10
146.659997
 20
109.999992
 30
0.0
 10
146.722696
 20
110.476242
 30
0.0
 10
146.906507
 20
110.920008
 30
0.0
 10
147.198917
 20
111.301093
 30
0.0
 10
147.579996
 20
111.593503
 30
0.0
 10
148.023769
 20
111.777286
 30
0.0
 10
148.499997
 20
111.839996
 30
0.0
 10
148.976224
 20
111.777286
 30
0.0
 10
149.419997
 20
111.593503
 30
0.0
 10
149.801077
 20
111.301093
 30
0.0
 10
150.093486
 20
110.920008
 30
0.0
 10
150.277297
 20
110.476242
 30
0.0
 10
150.339996
 20
109.999992
 30
0.0
 10
150.277297
 20
109.523770
 30
0.0
 10
150.093486
 20
109.080004
 30
0.0
 10
149.801077
 20
108.698919
 30
0.0
 10
149.419997
 20
108.406509
 30
0.0
 10
148.976224
 20
108.222697
 30
0.0
 10
148.499997
 20
108.159987
 30
0.0
 10
148.023769
 20
108.222697
 30
0.0
 10
147.579996
 20
108.406509
 30
0.0
 10
147.198917
 20
108.698919
 30
0.0
 10
146.906507
 20
109.080004
 30
0.0
 10
146.722696
 20
109.523770
 30
0.0
 10
146.659997
 20
109.999992
 30
0.0
  0
LWPOLYLINE
  5
107
100
AcDbEntity
  8
0
 62
7
100
AcDbPolyline
 90
28
 70
0
 10
219.749997
 20
67.999991
 30
0.0
 10
222.749996
 20
64.999997
 30
0.0
 10
242.249997
 20
64.999997
 30
0.0
 10
245.249996
 20
67.999991
 30
0.0
 10
252.492995
 20
75.757405
 30
0.0
 10
252.845996
 20
76.143287
 30
0.0
 10
253.164998
 20
76.558493
 30
0.0
 10
253.445998
 20
77.000001
 30
0.0
 10
253.687998
 20
77.464313
 30
0.0
 10
253.887997
 20
77.947901
 30
0.0
 10
254.045997
 20
78.447096
 30
0.0
 10
254.158996
 20
78.958087
 30
0.0
 10
254.226997
 20
79.477094
 30
0.0
 10
254.249998
 20
79.999995
 30
0.0
 10
254.226994
 20
80.522897
 30
0.0
 10
254.158996
 20
81.041903
 30
0.0
 10
254.045997
 20
81.552895
 30
0.0
 10
253.887997
 20
82.052089
 30
0.0
 10
253.687998
 20
82.535705
 30
0.0
 10
253.445998
 20
82.999989
 30
0.0
 10
253.164998
 20
83.441498
 30
0.0
 10
252.845996
 20
83.856703
 30
0.0
 10
252.492995
 20
84.242614
 30
0.0
 10
245.249996
 20
91.999999
 30
0.0
 10
242.249997
 20
94.999993
 30
0.0
 10
222.749996
 20
94.999993
 30
0.0
 10
219.749997
 20
91.999999
 30
0.0
 10
219.749997
 20
67.999991
 30
0.0
  0
LWPOLYLINE
  5
108
100
AcDbEntity
  8
0
 62
7
100
AcDbPolyline
 90
25
 70
0
 10
246.409997
 20
79.999995
 30
0.0
 10
246.472696
 20
80.476189
 30
0.0
 10
246.656496
 20
80.920011
 30
0.0
 10
246.948895
 20
81.301096
 30
0.0
 10
247.329997
 20
81.593507
 30
0.0
 10
247.773797
 20
81.777290
 30
0.0
 10
248.249996
 20
81.839999
 30
0.0
 10
248.725998
 20
81.777290
 30
0.0
 10
249.169995
 20
81.593507
 30
0.0
 10
249.550995
 20
81.301096
 30
0.0
 10
249.842996
 20
80.920011
 30
0.0
 10
250.026997
 20
80.476189
 30
0.0
 10
250.089997
 20
79.999995
 30
0.0
 10
250.026997
 20
79.523802
 30
0.0
 10
249.842996
 20
79.080007
 30
0.0
 10
249.550995
 20
78.698894
 30
0.0
 10
249.169995
 20
78.406512
 30
0.0
 10
248.725998
 20
78.222701
 30
0.0
 10
248.249996
 20
78.159991
 30
0.0
 10
247.773797
 20
78.222701
 30
0.0
 10
247.329997
 20
78.406512
 30
0.0
 10
246.948895
 20
78.698894
 30
0.0
 10
246.656496
 20
79.080007
 30
0.0
 10
246.472696
 20
79.523802
 30
0.0
 10
246.409997
 20
79.999995
 30
0.0
  0
LWPOLYLINE
  5
109
100
AcDbEntity
  8
0
 62
7
100
AcDbPolyline
 90
28
 70
0
 10
219.749997
 20
118.000004
 30
0.0
 10
222.749996
 20
115.000010
 30
0.0
 10
242.249997
 20
115.000010
 30
0.0
 10
245.249996
 20
118.000004
 30
0.0
 10
252.492995
 20
125.757401
 30
0.0
 10
252.845996
 20
126.143300
 30
0.0
 10
253.164998
 20
126.558500
 30
0.0
 10
253.445998
 20
127.000000
 30
0.0
 10
253.687998
 20
127.464301
 30
0.0
 10
253.887997
 20
127.947900
 30
0.0
 10
254.045997
 20
128.447100
 30
0.0
 10
254.158996
 20
128.958100
 30
0.0
 10
254.226997
 20
129.477101
 30
0.0
 10
254.249998
 20
130.000000
 30
0.0
 10
254.226994
 20
130.522901
 30
0.0
 10
254.158996
 20
131.041899
 30
0.0
 10
254.045997
 20
131.552899
 30
0.0
 10
253.887997
 20
132.052100
 30
0.0
 10
253.687998
 20
132.535701
 30
0.0
 10
253.445998
 20
132.999999
 30
0.0
 10
253.164998
 20
133.441499
 30
0.0
 10
252.845996
 20
133.856702
 30
0.0
 10
252.492995
 20
134.242601
 30
0.0
 10
245.249996
 20
142.000001
 30
0.0
 10
242.249997
 20
145.000001
 30
0.0
 10
222.749996
 20
145.000001
 30
0.0
 10
219.749997
 20
142.000001
 30
0.0
 10
219.749997
 20
118.000004
 30
0.0
  0
LWPOLYLINE
  5
10a
100
AcDbEntity
  8
0
 62
7
100
AcDbPolyline
 90
25
 70
0
 10
246.409997
 20
130.000000
 30
0.0
 10
246.472696
 20
130.476199
 30
0.0
 10
246.656496
 20
130.920002
 30
0.0
 10
246.948895
 20
131.301101
 30
0.0
 10
247.329997
 20
131.593500
 30
0.0
 10
247.773797
 20
131.777300
 30
0.0
 10
248.249996
 20
131.840001
 30
0.0
 10
248.725998
 20
131.777300
 30
0.0
 10
249.169995
 20
131.593500
 30
0.0
 10
249.550995
 20
131.301101
 30
0.0
 10
249.842996
 20
130.920002
 30
0.0
 10
250.026997
 20
130.476199
 30
0.0
 10
250.089997
 20
130.000000
 30
0.0
 10
250.026997
 20
129.523800
 30
0.0
 10
249.842996
 20
129.080000
 30
0.0
 10
249.550995
 20
128.698902
 30
0.0
 10
249.169995
 20
128.406500
 30
0.0
 10
248.725998
 20
128.222700
 30
0.0
 10
248.249996
 20
128.160001
 30
0.0
 10
247.773797
 20
128.222700
 30
0.0
 10
247.329997
 20
128.406500
 30
0.0
 10
246.948895
 20
128.698902
 30
0.0
 10
246.656496
 20
129.080000
 30
0.0
 10
246.472696
 20
129.523800
 30
0.0
 10
246.409997
 20
130.000000
 30
0.0
  0
LWPOLYLINE
  5
10b
100
AcDbEntity
  8
0
 62
7
100
AcDbPolyline
 90
69
 70
0
 10
40.999997
 20
47.999997
 30
0.0
 10
41.013995
 20
47.705893
 30
0.0
 10
41.057997
 20
47.414696
 30
0.0
 10
41.128998
 20
47.129088
 30
0.0
 10
41.227996
 20
46.851889
 30
0.0
 10
41.353997
 20
46.585782
 30
0.0
 10
41.505996
 20
46.333306
 30
0.0
 10
41.680996
 20
46.096803
 30
0.0
 10
41.878995
 20
45.878702
 30
0.0
 10
42.096998
 20
45.681005
 30
0.0
 10
42.332997
 20
45.505604
 30
0.0
 10
42.585996
 20
45.354192
 30
0.0
 10
42.851996
 20
45.228406
 30
0.0
 10
43.128997
 20
45.129204
 30
0.0
 10
43.414995
 20
45.057605
 30
0.0
 10
43.705997
 20
45.014396
 30
0.0
 10
43.999997
 20
45.000003
 30
0.0
 10
252.999996
 20
45.000003
 30
0.0
 10
253.293996
 20
45.014396
 30
0.0
 10
253.584998
 20
45.057605
 30
0.0
 10
253.870996
 20
45.129204
 30
0.0
 10
254.147997
 20
45.228406
 30
0.0
 10
254.413997
 20
45.354192
 30
0.0
 10
254.666996
 20
45.505604
 30
0.0
 10
254.902995
 20
45.681005
 30
0.0
 10
255.120998
 20
45.878702
 30
0.0
 10
255.318997
 20
46.096803
 30
0.0
 10
255.493997
 20
46.333306
 30
0.0
 10
255.645996
 20
46.585782
 30
0.0
 10
255.771997
 20
46.851889
 30
0.0
 10
255.870995
 20
47.129088
 30
0.0
 10
255.941997
 20
47.414696
 30
0.0
 10
255.985998
 20
47.705893
 30
0.0
 10
255.999996
 20
47.999997
 30
0.0
 10
255.999996
 20
161.999995
 30
0.0
 10
255.985998
 20
162.294096
 30
0.0
 10
255.941997
 20
162.585296
 30
0.0
 10
255.870995
 20
162.870896
 30
0.0
 10
255.771997
 20
163.148095
 30
0.0
 10
255.645996
 20
163.414194
 30
0.0
 10
255.493997
 20
163.666695
 30
0.0
 10
255.318997
 20
163.903194
 30
0.0
 10
255.120998
 20
164.121296
 30
0.0
 10
254.902995
 20
164.318995
 30
0.0
 10
254.666996
 20
164.494393
 30
0.0
 10
254.413997
 20
164.645794
 30
0.0
 10
254.147997
 20
164.771595
 30
0.0
 10
253.870996
 20
164.870793
 30
0.0
 10
253.584998
 20
164.942396
 30
0.0
 10
253.293996
 20
164.985596
 30
0.0
 10
252.999996
 20
164.999989
 30
0.0
 10
43.999997
 20
164.999995
 30
0.0
 10
43.705997
 20
164.985601
 30
0.0
 10
43.414995
 20
164.942396
 30
0.0
 10
43.128997
 20
164.870793
 30
0.0
 10
42.851996
 20
164.771595
 30
0.0
 10
42.585996
 20
164.645794
 30
0.0
 10
42.332997
 20
164.494393
 30
0.0
 10
42.096998
 20
164.318995
 30
0.0
 10
41.878995
 20
164.121296
 30
0.0
 10
41.680996
 20
163.903194
 30
0.0
 10
41.505996
 20
163.666695
 30
0.0
 10
41.353997
 20
163.414194
 30
0.0
 10
41.227996
 20
163.148095
 30
0.0
 10
41.128998
 20
162.870896
 30
0.0
 10
41.057997
 20
162.585296
 30
0.0
 10
41.013995
 20
162.294096
 30
0.0
 10
40.999997
 20
161.999995
 30
0.0
 10
40.999997
 20
47.999997
 30
0.0
  0
ENDSEC
  0
SECTION
  2
OBJECTS
  0
DICTIONARY
  5
C
330
0
100
AcDbDictionary
  3
ACAD_GROUP
350
D
  3
ACAD_MLINESTYLE
350
17
  0
DICTIONARY
  5
D
330
C
100
AcDbDictionary
  0
DICTIONARY
  5
1A
330
C
100
AcDbDictionary
  0
DICTIONARY
  5
17
330
C
100
AcDbDictionary
  3
STANDARD
350
18
  0
DICTIONARY
  5
19
330
C
100
AcDbDictionary
  0
ENDSEC
  0
EOF
