  0
SECTION
  2
BLOCKS
  0
ENDSEC
  0
SECTION
  2
ENTITIES
  0
LINE
  8
0
 10
125.39
 11
105.976
 20
123.938
 21
123.938
  0
LINE
  8
0
 10
105.976
 11
104.51
 20
123.938
 21
123.833
  0
LINE
  8
0
 10
104.51
 11
103.06
 20
123.833
 21
123.518
  0
LINE
  8
0
 10
103.06
 11
101.669
 20
123.518
 21
122.999
  0
LINE
  8
0
 10
101.669
 11
100.367
 20
122.999
 21
122.288
  0
LINE
  8
0
 10
100.367
 11
99.1788
 20
122.288
 21
121.398
  0
LINE
  8
0
 10
99.1788
 11
98.1294
 20
121.398
 21
120.349
  0
LINE
  8
0
 10
98.1294
 11
97.2401
 20
120.349
 21
119.161
  0
LINE
  8
0
 10
97.2401
 11
96.5289
 20
119.161
 21
117.859
  0
LINE
  8
0
 10
96.5289
 11
96.0103
 20
117.859
 21
116.468
  0
LINE
  8
0
 10
96.0103
 11
95.6948
 20
116.468
 21
115.018
  0
LINE
  8
0
 10
95.6948
 11
95.59
 20
115.018
 21
113.552
  0
LINE
  8
0
 10
95.59
 11
95.59
 20
113.552
 21
105.4
  0
LINE
  8
0
 10
95.59
 11
74.1107
 20
105.4
 21
105.4
  0
LINE
  8
0
 10
74.1107
 11
73.4987
 20
105.4
 21
105.356
  0
LINE
  8
0
 10
73.4987
 11
72.8851
 20
105.356
 21
105.223
  0
LINE
  8
0
 10
72.8851
 11
72.2967
 20
105.223
 21
105.003
  0
LINE
  8
0
 10
72.2967
 11
71.7456
 20
105.003
 21
104.702
  0
LINE
  8
0
 10
71.7456
 11
71.2429
 20
104.702
 21
104.326
  0
LINE
  8
0
 10
71.2429
 11
70.7989
 20
104.326
 21
103.882
  0
LINE
  8
0
 10
70.7989
 11
70.4226
 20
103.882
 21
103.379
  0
LINE
  8
0
 10
70.4226
 11
70.1217
 20
103.379
 21
102.828
  0
LINE
  8
0
 10
70.1217
 11
69.9022
 20
102.828
 21
102.24
  0
LINE
  8
0
 10
69.9022
 11
69.7688
 20
102.24
 21
101.626
  0
LINE
  8
0
 10
69.7688
 11
69.725
 20
101.626
 21
101.014
  0
LINE
  8
0
 10
69.725
 11
69.725
 20
101.014
 21
97.9857
  0
LINE
  8
0
 10
69.725
 11
69.7688
 20
97.9857
 21
97.3737
  0
LINE
  8
0
 10
69.7688
 11
69.9022
 20
97.3737
 21
96.7601
  0
LINE
  8
0
 10
69.9022
 11
70.1217
 20
96.7601
 21
96.1717
  0
LINE
  8
0
 10
70.1217
 11
70.4226
 20
96.1717
 21
95.6206
  0
LINE
  8
0
 10
70.4226
 11
70.7989
 20
95.6206
 21
95.1179
  0
LINE
  8
0
 10
70.7989
 11
71.2429
 20
95.1179
 21
94.6739
  0
LINE
  8
0
 10
71.2429
 11
71.7456
 20
94.6739
 21
94.2976
  0
LINE
  8
0
 10
71.7456
 11
72.2967
 20
94.2976
 21
93.9967
  0
LINE
  8
0
 10
72.2967
 11
72.8851
 20
93.9967
 21
93.7772
  0
LINE
  8
0
 10
72.8851
 11
73.4987
 20
93.7772
 21
93.6438
  0
LINE
  8
0
 10
73.4987
 11
74.1107
 20
93.6438
 21
93.6
  0
LINE
  8
0
 10
74.1107
 11
95.59
 20
93.6
 21
93.6
  0
LINE
  8
0
 10
95.59
 11
95.59
 20
93.6
 21
33.9857
  0
LINE
  8
0
 10
95.59
 11
95.6948
 20
33.9857
 21
32.5198
  0
LINE
  8
0
 10
95.6948
 11
96.0103
 20
32.5198
 21
31.0697
  0
LINE
  8
0
 10
96.0103
 11
96.5289
 20
31.0697
 21
29.6792
  0
LINE
  8
0
 10
96.5289
 11
97.2401
 20
29.6792
 21
28.3768
  0
LINE
  8
0
 10
97.2401
 11
98.1294
 20
28.3768
 21
27.1888
  0
LINE
  8
0
 10
98.1294
 11
99.1788
 20
27.1888
 21
26.1394
  0
LINE
  8
0
 10
99.1788
 11
100.367
 20
26.1394
 21
25.2501
  0
LINE
  8
0
 10
100.367
 11
101.669
 20
25.2501
 21
24.5389
  0
LINE
  8
0
 10
101.669
 11
103.06
 20
24.5389
 21
24.0203
  0
LINE
  8
0
 10
103.06
 11
104.51
 20
24.0203
 21
23.7048
  0
LINE
  8
0
 10
104.51
 11
105.976
 20
23.7048
 21
23.6
  0
LINE
  8
0
 10
105.976
 11
125.39
 20
23.6
 21
23.6
  0
LINE
  8
0
 10
125.39
 11
125.39
 20
23.6
 21
123.938
  0
LINE
  8
0
 10
104.807
 11
104.434
 20
113.013
 21
113.109
  0
LINE
  8
0
 10
104.434
 11
104.097
 20
113.109
 21
113.295
  0
LINE
  8
0
 10
104.097
 11
103.816
 20
113.295
 21
113.558
  0
LINE
  8
0
 10
103.816
 11
103.609
 20
113.558
 21
113.884
  0
LINE
  8
0
 10
103.609
 11
103.49
 20
113.884
 21
114.25
  0
LINE
  8
0
 10
103.49
 11
103.466
 20
114.25
 21
114.634
  0
LINE
  8
0
 10
103.466
 11
103.538
 20
114.634
 21
115.013
  0
LINE
  8
0
 10
103.538
 11
103.702
 20
115.013
 21
115.361
  0
LINE
  8
0
 10
103.702
 11
103.948
 20
115.361
 21
115.658
  0
LINE
  8
0
 10
103.948
 11
104.26
 20
115.658
 21
115.885
  0
LINE
  8
0
 10
104.26
 11
104.618
 20
115.885
 21
116.026
  0
LINE
  8
0
 10
104.618
 11
105
 20
116.026
 21
116.075
  0
LINE
  8
0
 10
105
 11
105.382
 20
116.075
 21
116.026
  0
LINE
  8
0
 10
105.382
 11
105.74
 20
116.026
 21
115.885
  0
LINE
  8
0
 10
105.74
 11
106.052
 20
115.885
 21
115.658
  0
LINE
  8
0
 10
106.052
 11
106.298
 20
115.658
 21
115.361
  0
LINE
  8
0
 10
106.298
 11
106.462
 20
115.361
 21
115.013
  0
LINE
  8
0
 10
106.462
 11
106.534
 20
115.013
 21
114.634
  0
LINE
  8
0
 10
106.534
 11
106.51
 20
114.634
 21
114.25
  0
LINE
  8
0
 10
106.51
 11
106.391
 20
114.25
 21
113.884
  0
LINE
  8
0
 10
106.391
 11
106.184
 20
113.884
 21
113.558
  0
LINE
  8
0
 10
106.184
 11
105.903
 20
113.558
 21
113.295
  0
LINE
  8
0
 10
105.903
 11
105.566
 20
113.295
 21
113.109
  0
LINE
  8
0
 10
105.566
 11
105.193
 20
113.109
 21
113.013
  0
LINE
  8
0
 10
105.193
 11
104.807
 20
113.013
 21
113.013
  0
LINE
  8
0
 10
104.807
 11
104.434
 20
81.2442
 21
81.34
  0
LINE
  8
0
 10
104.434
 11
104.097
 20
81.34
 21
81.5256
  0
LINE
  8
0
 10
104.097
 11
103.816
 20
81.5256
 21
81.7894
  0
LINE
  8
0
 10
103.816
 11
103.609
 20
81.7894
 21
82.1146
  0
LINE
  8
0
 10
103.609
 11
103.49
 20
82.1146
 21
82.4809
  0
LINE
  8
0
 10
103.49
 11
103.466
 20
82.4809
 21
82.8655
  0
LINE
  8
0
 10
103.466
 11
103.538
 20
82.8655
 21
83.2438
  0
LINE
  8
0
 10
103.538
 11
103.702
 20
83.2438
 21
83.5924
  0
LINE
  8
0
 10
103.702
 11
103.948
 20
83.5924
 21
83.8892
  0
LINE
  8
0
 10
103.948
 11
104.26
 20
83.8892
 21
84.1156
  0
LINE
  8
0
 10
104.26
 11
104.618
 20
84.1156
 21
84.2575
  0
LINE
  8
0
 10
104.618
 11
105
 20
84.2575
 21
84.3058
  0
LINE
  8
0
 10
105
 11
105.382
 20
84.3058
 21
84.2575
  0
LINE
  8
0
 10
105.382
 11
105.74
 20
84.2575
 21
84.1156
  0
LINE
  8
0
 10
105.74
 11
106.052
 20
84.1156
 21
83.8892
  0
LINE
  8
0
 10
106.052
 11
106.298
 20
83.8892
 21
83.5924
  0
LINE
  8
0
 10
106.298
 11
106.462
 20
83.5924
 21
83.2438
  0
LINE
  8
0
 10
106.462
 11
106.534
 20
83.2438
 21
82.8655
  0
LINE
  8
0
 10
106.534
 11
106.51
 20
82.8655
 21
82.4809
  0
LINE
  8
0
 10
106.51
 11
106.391
 20
82.4809
 21
82.1146
  0
LINE
  8
0
 10
106.391
 11
106.184
 20
82.1146
 21
81.7894
  0
LINE
  8
0
 10
106.184
 11
105.903
 20
81.7894
 21
81.5256
  0
LINE
  8
0
 10
105.903
 11
105.566
 20
81.5256
 21
81.34
  0
LINE
  8
0
 10
105.566
 11
105.193
 20
81.34
 21
81.2442
  0
LINE
  8
0
 10
105.193
 11
104.807
 20
81.2442
 21
81.2442
  0
LINE
  8
0
 10
104.807
 11
104.434
 20
31.4753
 21
31.5711
  0
LINE
  8
0
 10
104.434
 11
104.097
 20
31.5711
 21
31.7567
  0
LINE
  8
0
 10
104.097
 11
103.816
 20
31.7567
 21
32.0204
  0
LINE
  8
0
 10
103.816
 11
103.609
 20
32.0204
 21
32.3457
  0
LINE
  8
0
 10
103.609
 11
103.49
 20
32.3457
 21
32.712
  0
LINE
  8
0
 10
103.49
 11
103.466
 20
32.712
 21
33.0965
  0
LINE
  8
0
 10
103.466
 11
103.538
 20
33.0965
 21
33.4749
  0
LINE
  8
0
 10
103.538
 11
103.702
 20
33.4749
 21
33.8234
  0
LINE
  8
0
 10
103.702
 11
103.948
 20
33.8234
 21
34.1203
  0
LINE
  8
0
 10
103.948
 11
104.26
 20
34.1203
 21
34.3467
  0
LINE
  8
0
 10
104.26
 11
104.618
 20
34.3467
 21
34.4885
  0
LINE
  8
0
 10
104.618
 11
105
 20
34.4885
 21
34.5368
  0
LINE
  8
0
 10
105
 11
105.382
 20
34.5368
 21
34.4885
  0
LINE
  8
0
 10
105.382
 11
105.74
 20
34.4885
 21
34.3467
  0
LINE
  8
0
 10
105.74
 11
106.052
 20
34.3467
 21
34.1203
  0
LINE
  8
0
 10
106.052
 11
106.298
 20
34.1203
 21
33.8234
  0
LINE
  8
0
 10
106.298
 11
106.462
 20
33.8234
 21
33.4749
  0
LINE
  8
0
 10
106.462
 11
106.534
 20
33.4749
 21
33.0965
  0
LINE
  8
0
 10
106.534
 11
106.51
 20
33.0965
 21
32.712
  0
LINE
  8
0
 10
106.51
 11
106.391
 20
32.712
 21
32.3457
  0
LINE
  8
0
 10
106.391
 11
106.184
 20
32.3457
 21
32.0204
  0
LINE
  8
0
 10
106.184
 11
105.903
 20
32.0204
 21
31.7567
  0
LINE
  8
0
 10
105.903
 11
105.566
 20
31.7567
 21
31.5711
  0
LINE
  8
0
 10
105.566
 11
105.193
 20
31.5711
 21
31.4753
  0
LINE
  8
0
 10
105.193
 11
104.807
 20
31.4753
 21
31.4753
  0
LINE
  8
0
 10
-104.51
 11
-103.06
 20
23.7048
 21
24.0203
  0
LINE
  8
0
 10
-103.06
 11
-101.669
 20
24.0203
 21
24.5389
  0
LINE
  8
0
 10
-101.669
 11
-100.367
 20
24.5389
 21
25.2501
  0
LINE
  8
0
 10
-100.367
 11
-99.1788
 20
25.2501
 21
26.1394
  0
LINE
  8
0
 10
-99.1788
 11
-98.1294
 20
26.1394
 21
27.1888
  0
LINE
  8
0
 10
-98.1294
 11
-97.2401
 20
27.1888
 21
28.3768
  0
LINE
  8
0
 10
-97.2401
 11
-96.5289
 20
28.3768
 21
29.6792
  0
LINE
  8
0
 10
-96.5289
 11
-96.0103
 20
29.6792
 21
31.0697
  0
LINE
  8
0
 10
-96.0103
 11
-95.6948
 20
31.0697
 21
32.5198
  0
LINE
  8
0
 10
-95.6948
 11
-95.59
 20
32.5198
 21
33.9857
  0
LINE
  8
0
 10
-95.59
 11
-95.59
 20
33.9857
 21
93.6
  0
LINE
  8
0
 10
-95.59
 11
-74.1107
 20
93.6
 21
93.6
  0
LINE
  8
0
 10
-74.1107
 11
-73.4987
 20
93.6
 21
93.6438
  0
LINE
  8
0
 10
-73.4987
 11
-72.8851
 20
93.6438
 21
93.7772
  0
LINE
  8
0
 10
-72.8851
 11
-72.2967
 20
93.7772
 21
93.9967
  0
LINE
  8
0
 10
-72.2967
 11
-71.7456
 20
93.9967
 21
94.2976
  0
LINE
  8
0
 10
-71.7456
 11
-71.2429
 20
94.2976
 21
94.6739
  0
LINE
  8
0
 10
-71.2429
 11
-70.7989
 20
94.6739
 21
95.1179
  0
LINE
  8
0
 10
-70.7989
 11
-70.4226
 20
95.1179
 21
95.6206
  0
LINE
  8
0
 10
-70.4226
 11
-70.1217
 20
95.6206
 21
96.1717
  0
LINE
  8
0
 10
-70.1217
 11
-69.9022
 20
96.1717
 21
96.7601
  0
LINE
  8
0
 10
-69.9022
 11
-69.7688
 20
96.7601
 21
97.3737
  0
LINE
  8
0
 10
-69.7688
 11
-69.725
 20
97.3737
 21
97.9857
  0
LINE
  8
0
 10
-69.725
 11
-69.725
 20
97.9857
 21
101.014
  0
LINE
  8
0
 10
-69.725
 11
-69.7688
 20
101.014
 21
101.626
  0
LINE
  8
0
 10
-69.7688
 11
-69.9022
 20
101.626
 21
102.24
  0
LINE
  8
0
 10
-69.9022
 11
-70.1217
 20
102.24
 21
102.828
  0
LINE
  8
0
 10
-70.1217
 11
-70.4226
 20
102.828
 21
103.379
  0
LINE
  8
0
 10
-70.4226
 11
-70.7989
 20
103.379
 21
103.882
  0
LINE
  8
0
 10
-70.7989
 11
-71.2429
 20
103.882
 21
104.326
  0
LINE
  8
0
 10
-71.2429
 11
-71.7456
 20
104.326
 21
104.702
  0
LINE
  8
0
 10
-71.7456
 11
-72.2967
 20
104.702
 21
105.003
  0
LINE
  8
0
 10
-72.2967
 11
-72.8851
 20
105.003
 21
105.223
  0
LINE
  8
0
 10
-72.8851
 11
-73.4987
 20
105.223
 21
105.356
  0
LINE
  8
0
 10
-73.4987
 11
-74.1107
 20
105.356
 21
105.4
  0
LINE
  8
0
 10
-74.1107
 11
-95.59
 20
105.4
 21
105.4
  0
LINE
  8
0
 10
-95.59
 11
-95.59
 20
105.4
 21
113.552
  0
LINE
  8
0
 10
-95.59
 11
-95.6948
 20
113.552
 21
115.018
  0
LINE
  8
0
 10
-95.6948
 11
-96.0103
 20
115.018
 21
116.468
  0
LINE
  8
0
 10
-96.0103
 11
-96.5289
 20
116.468
 21
117.859
  0
LINE
  8
0
 10
-96.5289
 11
-97.2401
 20
117.859
 21
119.161
  0
LINE
  8
0
 10
-97.2401
 11
-98.1294
 20
119.161
 21
120.349
  0
LINE
  8
0
 10
-98.1294
 11
-99.1788
 20
120.349
 21
121.398
  0
LINE
  8
0
 10
-99.1788
 11
-100.367
 20
121.398
 21
122.288
  0
LINE
  8
0
 10
-100.367
 11
-101.669
 20
122.288
 21
122.999
  0
LINE
  8
0
 10
-101.669
 11
-103.06
 20
122.999
 21
123.518
  0
LINE
  8
0
 10
-103.06
 11
-104.51
 20
123.518
 21
123.833
  0
LINE
  8
0
 10
-104.51
 11
-105.976
 20
123.833
 21
123.938
  0
LINE
  8
0
 10
-105.976
 11
-125.39
 20
123.938
 21
123.938
  0
LINE
  8
0
 10
-125.39
 11
-125.39
 20
123.938
 21
23.6
  0
LINE
  8
0
 10
-125.39
 11
-105.976
 20
23.6
 21
23.6
  0
LINE
  8
0
 10
-105.976
 11
-104.51
 20
23.6
 21
23.7048
  0
LINE
  8
0
 10
-105.193
 11
-105.566
 20
113.013
 21
113.109
  0
LINE
  8
0
 10
-105.566
 11
-105.903
 20
113.109
 21
113.295
  0
LINE
  8
0
 10
-105.903
 11
-106.184
 20
113.295
 21
113.558
  0
LINE
  8
0
 10
-106.184
 11
-106.391
 20
113.558
 21
113.884
  0
LINE
  8
0
 10
-106.391
 11
-106.51
 20
113.884
 21
114.25
  0
LINE
  8
0
 10
-106.51
 11
-106.534
 20
114.25
 21
114.634
  0
LINE
  8
0
 10
-106.534
 11
-106.462
 20
114.634
 21
115.013
  0
LINE
  8
0
 10
-106.462
 11
-106.298
 20
115.013
 21
115.361
  0
LINE
  8
0
 10
-106.298
 11
-106.052
 20
115.361
 21
115.658
  0
LINE
  8
0
 10
-106.052
 11
-105.74
 20
115.658
 21
115.885
  0
LINE
  8
0
 10
-105.74
 11
-105.382
 20
115.885
 21
116.026
  0
LINE
  8
0
 10
-105.382
 11
-105
 20
116.026
 21
116.075
  0
LINE
  8
0
 10
-105
 11
-104.618
 20
116.075
 21
116.026
  0
LINE
  8
0
 10
-104.618
 11
-104.26
 20
116.026
 21
115.885
  0
LINE
  8
0
 10
-104.26
 11
-103.948
 20
115.885
 21
115.658
  0
LINE
  8
0
 10
-103.948
 11
-103.702
 20
115.658
 21
115.361
  0
LINE
  8
0
 10
-103.702
 11
-103.538
 20
115.361
 21
115.013
  0
LINE
  8
0
 10
-103.538
 11
-103.466
 20
115.013
 21
114.634
  0
LINE
  8
0
 10
-103.466
 11
-103.49
 20
114.634
 21
114.25
  0
LINE
  8
0
 10
-103.49
 11
-103.609
 20
114.25
 21
113.884
  0
LINE
  8
0
 10
-103.609
 11
-103.816
 20
113.884
 21
113.558
  0
LINE
  8
0
 10
-103.816
 11
-104.097
 20
113.558
 21
113.295
  0
LINE
  8
0
 10
-104.097
 11
-104.434
 20
113.295
 21
113.109
  0
LINE
  8
0
 10
-104.434
 11
-104.807
 20
113.109
 21
113.013
  0
LINE
  8
0
 10
-104.807
 11
-105.193
 20
113.013
 21
113.013
  0
LINE
  8
0
 10
-105.193
 11
-105.566
 20
81.2442
 21
81.34
  0
LINE
  8
0
 10
-105.566
 11
-105.903
 20
81.34
 21
81.5256
  0
LINE
  8
0
 10
-105.903
 11
-106.184
 20
81.5256
 21
81.7894
  0
LINE
  8
0
 10
-106.184
 11
-106.391
 20
81.7894
 21
82.1146
  0
LINE
  8
0
 10
-106.391
 11
-106.51
 20
82.1146
 21
82.4809
  0
LINE
  8
0
 10
-106.51
 11
-106.534
 20
82.4809
 21
82.8655
  0
LINE
  8
0
 10
-106.534
 11
-106.462
 20
82.8655
 21
83.2438
  0
LINE
  8
0
 10
-106.462
 11
-106.298
 20
83.2438
 21
83.5924
  0
LINE
  8
0
 10
-106.298
 11
-106.052
 20
83.5924
 21
83.8892
  0
LINE
  8
0
 10
-106.052
 11
-105.74
 20
83.8892
 21
84.1156
  0
LINE
  8
0
 10
-105.74
 11
-105.382
 20
84.1156
 21
84.2575
  0
LINE
  8
0
 10
-105.382
 11
-105
 20
84.2575
 21
84.3058
  0
LINE
  8
0
 10
-105
 11
-104.618
 20
84.3058
 21
84.2575
  0
LINE
  8
0
 10
-104.618
 11
-104.26
 20
84.2575
 21
84.1156
  0
LINE
  8
0
 10
-104.26
 11
-103.948
 20
84.1156
 21
83.8892
  0
LINE
  8
0
 10
-103.948
 11
-103.702
 20
83.8892
 21
83.5924
  0
LINE
  8
0
 10
-103.702
 11
-103.538
 20
83.5924
 21
83.2438
  0
LINE
  8
0
 10
-103.538
 11
-103.466
 20
83.2438
 21
82.8655
  0
LINE
  8
0
 10
-103.466
 11
-103.49
 20
82.8655
 21
82.4809
  0
LINE
  8
0
 10
-103.49
 11
-103.609
 20
82.4809
 21
82.1146
  0
LINE
  8
0
 10
-103.609
 11
-103.816
 20
82.1146
 21
81.7894
  0
LINE
  8
0
 10
-103.816
 11
-104.097
 20
81.7894
 21
81.5256
  0
LINE
  8
0
 10
-104.097
 11
-104.434
 20
81.5256
 21
81.34
  0
LINE
  8
0
 10
-104.434
 11
-104.807
 20
81.34
 21
81.2442
  0
LINE
  8
0
 10
-104.807
 11
-105.193
 20
81.2442
 21
81.2442
  0
LINE
  8
0
 10
-105.193
 11
-105.566
 20
31.4753
 21
31.5711
  0
LINE
  8
0
 10
-105.566
 11
-105.903
 20
31.5711
 21
31.7567
  0
LINE
  8
0
 10
-105.903
 11
-106.184
 20
31.7567
 21
32.0204
  0
LINE
  8
0
 10
-106.184
 11
-106.391
 20
32.0204
 21
32.3457
  0
LINE
  8
0
 10
-106.391
 11
-106.51
 20
32.3457
 21
32.712
  0
LINE
  8
0
 10
-106.51
 11
-106.534
 20
32.712
 21
33.0965
  0
LINE
  8
0
 10
-106.534
 11
-106.462
 20
33.0965
 21
33.4749
  0
LINE
  8
0
 10
-106.462
 11
-106.298
 20
33.4749
 21
33.8234
  0
LINE
  8
0
 10
-106.298
 11
-106.052
 20
33.8234
 21
34.1203
  0
LINE
  8
0
 10
-106.052
 11
-105.74
 20
34.1203
 21
34.3467
  0
LINE
  8
0
 10
-105.74
 11
-105.382
 20
34.3467
 21
34.4885
  0
LINE
  8
0
 10
-105.382
 11
-105
 20
34.4885
 21
34.5368
  0
LINE
  8
0
 10
-105
 11
-104.618
 20
34.5368
 21
34.4885
  0
LINE
  8
0
 10
-104.618
 11
-104.26
 20
34.4885
 21
34.3467
  0
LINE
  8
0
 10
-104.26
 11
-103.948
 20
34.3467
 21
34.1203
  0
LINE
  8
0
 10
-103.948
 11
-103.702
 20
34.1203
 21
33.8234
  0
LINE
  8
0
 10
-103.702
 11
-103.538
 20
33.8234
 21
33.4749
  0
LINE
  8
0
 10
-103.538
 11
-103.466
 20
33.4749
 21
33.0965
  0
LINE
  8
0
 10
-103.466
 11
-103.49
 20
33.0965
 21
32.712
  0
LINE
  8
0
 10
-103.49
 11
-103.609
 20
32.712
 21
32.3457
  0
LINE
  8
0
 10
-103.609
 11
-103.816
 20
32.3457
 21
32.0204
  0
LINE
  8
0
 10
-103.816
 11
-104.097
 20
32.0204
 21
31.7567
  0
LINE
  8
0
 10
-104.097
 11
-104.434
 20
31.7567
 21
31.5711
  0
LINE
  8
0
 10
-104.434
 11
-104.807
 20
31.5711
 21
31.4753
  0
LINE
  8
0
 10
-104.807
 11
-105.193
 20
31.4753
 21
31.4753
  0
LINE
  8
0
 10
16.9
 11
22.7647
 20
71.0055
 21
71.0055
  0
LINE
  8
0
 10
22.7647
 11
23.292
 20
71.0055
 21
71.053
  0
LINE
  8
0
 10
23.292
 11
23.813
 20
71.053
 21
71.1475
  0
LINE
  8
0
 10
23.813
 11
24.3233
 20
71.1475
 21
71.2884
  0
LINE
  8
0
 10
24.3233
 11
24.819
 20
71.2884
 21
71.4744
  0
LINE
  8
0
 10
24.819
 11
25.296
 20
71.4744
 21
71.7041
  0
LINE
  8
0
 10
25.296
 11
25.7505
 20
71.7041
 21
71.9757
  0
LINE
  8
0
 10
25.7505
 11
26.1788
 20
71.9757
 21
72.2869
  0
LINE
  8
0
 10
26.1788
 11
26.5775
 20
72.2869
 21
72.6352
  0
LINE
  8
0
 10
26.5775
 11
26.9434
 20
72.6352
 21
73.0179
  0
LINE
  8
0
 10
26.9434
 11
27.2735
 20
73.0179
 21
73.4318
  0
LINE
  8
0
 10
27.2735
 11
27.5652
 20
73.4318
 21
73.8737
  0
LINE
  8
0
 10
27.5652
 11
27.8161
 20
73.8737
 21
74.3399
  0
LINE
  8
0
 10
27.8161
 11
28.0242
 20
74.3399
 21
74.8268
  0
LINE
  8
0
 10
28.0242
 11
28.1878
 20
74.8268
 21
75.3303
  0
LINE
  8
0
 10
28.1878
 11
28.3056
 20
75.3303
 21
75.8464
  0
LINE
  8
0
 10
28.3056
 11
28.3766
 20
75.8464
 21
76.3711
  0
LINE
  8
0
 10
28.3766
 11
28.4004
 20
76.3711
 21
76.9
  0
LINE
  8
0
 10
28.4004
 11
28.3766
 20
76.9
 21
77.4289
  0
LINE
  8
0
 10
28.3766
 11
28.3056
 20
77.4289
 21
77.9535
  0
LINE
  8
0
 10
28.3056
 11
28.1878
 20
77.9535
 21
78.4697
  0
LINE
  8
0
 10
28.1878
 11
28.0242
 20
78.4697
 21
78.9732
  0
LINE
  8
0
 10
28.0242
 11
27.8161
 20
78.9732
 21
79.4601
  0
LINE
  8
0
 10
27.8161
 11
27.5652
 20
79.4601
 21
79.9263
  0
LINE
  8
0
 10
27.5652
 11
27.2735
 20
79.9263
 21
80.3682
  0
LINE
  8
0
 10
27.2735
 11
26.9434
 20
80.3682
 21
80.7821
  0
LINE
  8
0
 10
26.9434
 11
26.5775
 20
80.7821
 21
81.1648
  0
LINE
  8
0
 10
26.5775
 11
26.1795
 20
81.1648
 21
81.5125
  0
LINE
  8
0
 10
26.1795
 11
3.66501
 20
81.5125
 21
98.0231
  0
LINE
  8
0
 10
3.66501
 11
3.2505
 20
98.0231
 21
98.3243
  0
LINE
  8
0
 10
3.2505
 11
2.79602
 20
98.3243
 21
98.5959
  0
LINE
  8
0
 10
2.79602
 11
2.319
 20
98.5959
 21
98.8256
  0
LINE
  8
0
 10
2.319
 11
1.82332
 20
98.8256
 21
99.0116
  0
LINE
  8
0
 10
1.82332
 11
1.31296
 20
99.0116
 21
99.1525
  0
LINE
  8
0
 10
1.31296
 11
0.792023
 20
99.1525
 21
99.247
  0
LINE
  8
0
 10
0.792023
 11
0.264709
 20
99.247
 21
99.2944
  0
LINE
  8
0
 10
0.264709
 11
-0.264709
 20
99.2944
 21
99.2944
  0
LINE
  8
0
 10
-0.264709
 11
-0.792023
 20
99.2944
 21
99.247
  0
LINE
  8
0
 10
-0.792023
 11
-1.31296
 20
99.247
 21
99.1525
  0
LINE
  8
0
 10
-1.31296
 11
-1.82332
 20
99.1525
 21
99.0116
  0
LINE
  8
0
 10
-1.82332
 11
-2.319
 20
99.0116
 21
98.8256
  0
LINE
  8
0
 10
-2.319
 11
-2.79602
 20
98.8256
 21
98.5959
  0
LINE
  8
0
 10
-2.79602
 11
-3.2505
 20
98.5959
 21
98.3243
  0
LINE
  8
0
 10
-3.2505
 11
-3.66501
 20
98.3243
 21
98.0231
  0
LINE
  8
0
 10
-3.66501
 11
-26.1795
 20
98.0231
 21
81.5125
  0
LINE
  8
0
 10
-26.1795
 11
-26.5775
 20
81.5125
 21
81.1648
  0
LINE
  8
0
 10
-26.5775
 11
-26.9434
 20
81.1648
 21
80.7821
  0
LINE
  8
0
 10
-26.9434
 11
-27.2735
 20
80.7821
 21
80.3682
  0
LINE
  8
0
 10
-27.2735
 11
-27.5652
 20
80.3682
 21
79.9263
  0
LINE
  8
0
 10
-27.5652
 11
-27.8161
 20
79.9263
 21
79.4601
  0
LINE
  8
0
 10
-27.8161
 11
-28.0242
 20
79.4601
 21
78.9732
  0
LINE
  8
0
 10
-28.0242
 11
-28.1878
 20
78.9732
 21
78.4697
  0
LINE
  8
0
 10
-28.1878
 11
-28.3056
 20
78.4697
 21
77.9535
  0
LINE
  8
0
 10
-28.3056
 11
-28.3766
 20
77.9535
 21
77.4289
  0
LINE
  8
0
 10
-28.3766
 11
-28.4004
 20
77.4289
 21
76.9
  0
LINE
  8
0
 10
-28.4004
 11
-28.3766
 20
76.9
 21
76.3711
  0
LINE
  8
0
 10
-28.3766
 11
-28.3056
 20
76.3711
 21
75.8464
  0
LINE
  8
0
 10
-28.3056
 11
-28.1878
 20
75.8464
 21
75.3303
  0
LINE
  8
0
 10
-28.1878
 11
-28.0242
 20
75.3303
 21
74.8268
  0
LINE
  8
0
 10
-28.0242
 11
-27.8161
 20
74.8268
 21
74.3399
  0
LINE
  8
0
 10
-27.8161
 11
-27.5652
 20
74.3399
 21
73.8737
  0
LINE
  8
0
 10
-27.5652
 11
-27.2735
 20
73.8737
 21
73.4318
  0
LINE
  8
0
 10
-27.2735
 11
-26.9434
 20
73.4318
 21
73.0179
  0
LINE
  8
0
 10
-26.9434
 11
-26.5775
 20
73.0179
 21
72.6352
  0
LINE
  8
0
 10
-26.5775
 11
-26.1788
 20
72.6352
 21
72.2869
  0
LINE
  8
0
 10
-26.1788
 11
-25.7505
 20
72.2869
 21
71.9757
  0
LINE
  8
0
 10
-25.7505
 11
-25.296
 20
71.9757
 21
71.7041
  0
LINE
  8
0
 10
-25.296
 11
-24.819
 20
71.7041
 21
71.4744
  0
LINE
  8
0
 10
-24.819
 11
-24.3233
 20
71.4744
 21
71.2884
  0
LINE
  8
0
 10
-24.3233
 11
-23.813
 20
71.2884
 21
71.1475
  0
LINE
  8
0
 10
-23.813
 11
-23.292
 20
71.1475
 21
71.053
  0
LINE
  8
0
 10
-23.292
 11
-22.7647
 20
71.053
 21
71.0055
  0
LINE
  8
0
 10
-22.7647
 11
-16.9
 20
71.0055
 21
71.0055
  0
LINE
  8
0
 10
-16.9
 11
-16.9
 20
71.0055
 21
71
  0
LINE
  8
0
 10
-16.9
 11
16.9
 20
71
 21
71
  0
LINE
  8
0
 10
16.9
 11
16.9
 20
71
 21
71.0055
  0
LINE
  8
0
 10
-0.192581
 11
-0.565704
 20
91.8753
 21
91.9711
  0
LINE
  8
0
 10
-0.565704
 11
-0.903305
 20
91.9711
 21
92.1567
  0
LINE
  8
0
 10
-0.903305
 11
-1.18414
 20
92.1567
 21
92.4204
  0
LINE
  8
0
 10
-1.18414
 11
-1.39056
 20
92.4204
 21
92.7457
  0
LINE
  8
0
 10
-1.39056
 11
-1.50958
 20
92.7457
 21
93.112
  0
LINE
  8
0
 10
-1.50958
 11
-1.53377
 20
93.112
 21
93.4965
  0
LINE
  8
0
 10
-1.53377
 11
-1.46161
 20
93.4965
 21
93.8749
  0
LINE
  8
0
 10
-1.46161
 11
-1.29758
 20
93.8749
 21
94.2235
  0
LINE
  8
0
 10
-1.29758
 11
-1.05202
 20
94.2235
 21
94.5203
  0
LINE
  8
0
 10
-1.05202
 11
-0.740402
 20
94.5203
 21
94.7467
  0
LINE
  8
0
 10
-0.740402
 11
-0.382187
 20
94.7467
 21
94.8885
  0
LINE
  8
0
 10
-0.382187
 11
0
 20
94.8885
 21
94.9368
  0
LINE
  8
0
 10
0
 11
0.382187
 20
94.9368
 21
94.8885
  0
LINE
  8
0
 10
0.382187
 11
0.740402
 20
94.8885
 21
94.7467
  0
LINE
  8
0
 10
0.740402
 11
1.05202
 20
94.7467
 21
94.5203
  0
LINE
  8
0
 10
1.05202
 11
1.29758
 20
94.5203
 21
94.2235
  0
LINE
  8
0
 10
1.29758
 11
1.46161
 20
94.2235
 21
93.8749
  0
LINE
  8
0
 10
1.46161
 11
1.53377
 20
93.8749
 21
93.4965
  0
LINE
  8
0
 10
1.53377
 11
1.50958
 20
93.4965
 21
93.112
  0
LINE
  8
0
 10
1.50958
 11
1.39056
 20
93.112
 21
92.7457
  0
LINE
  8
0
 10
1.39056
 11
1.18414
 20
92.7457
 21
92.4204
  0
LINE
  8
0
 10
1.18414
 11
0.903305
 20
92.4204
 21
92.1567
  0
LINE
  8
0
 10
0.903305
 11
0.565704
 20
92.1567
 21
91.9711
  0
LINE
  8
0
 10
0.565704
 11
0.192581
 20
91.9711
 21
91.8753
  0
LINE
  8
0
 10
0.192581
 11
-0.192581
 20
91.8753
 21
91.8753
  0
LINE
  8
0
 10
-22.6926
 11
-23.0657
 20
75.3753
 21
75.4711
  0
LINE
  8
0
 10
-23.0657
 11
-23.4033
 20
75.4711
 21
75.6567
  0
LINE
  8
0
 10
-23.4033
 11
-23.6841
 20
75.6567
 21
75.9204
  0
LINE
  8
0
 10
-23.6841
 11
-23.8906
 20
75.9204
 21
76.2457
  0
LINE
  8
0
 10
-23.8906
 11
-24.0096
 20
76.2457
 21
76.612
  0
LINE
  8
0
 10
-24.0096
 11
-24.0338
 20
76.612
 21
76.9965
  0
LINE
  8
0
 10
-24.0338
 11
-23.9616
 20
76.9965
 21
77.3749
  0
LINE
  8
0
 10
-23.9616
 11
-23.7976
 20
77.3749
 21
77.7235
  0
LINE
  8
0
 10
-23.7976
 11
-23.552
 20
77.7235
 21
78.0203
  0
LINE
  8
0
 10
-23.552
 11
-23.2404
 20
78.0203
 21
78.2467
  0
LINE
  8
0
 10
-23.2404
 11
-22.8822
 20
78.2467
 21
78.3885
  0
LINE
  8
0
 10
-22.8822
 11
-22.5
 20
78.3885
 21
78.4368
  0
LINE
  8
0
 10
-22.5
 11
-22.1178
 20
78.4368
 21
78.3885
  0
LINE
  8
0
 10
-22.1178
 11
-21.7596
 20
78.3885
 21
78.2467
  0
LINE
  8
0
 10
-21.7596
 11
-21.448
 20
78.2467
 21
78.0203
  0
LINE
  8
0
 10
-21.448
 11
-21.2024
 20
78.0203
 21
77.7235
  0
LINE
  8
0
 10
-21.2024
 11
-21.0384
 20
77.7235
 21
77.3749
  0
LINE
  8
0
 10
-21.0384
 11
-20.9662
 20
77.3749
 21
76.9965
  0
LINE
  8
0
 10
-20.9662
 11
-20.9904
 20
76.9965
 21
76.612
  0
LINE
  8
0
 10
-20.9904
 11
-21.1094
 20
76.612
 21
76.2457
  0
LINE
  8
0
 10
-21.1094
 11
-21.3158
 20
76.2457
 21
75.9204
  0
LINE
  8
0
 10
-21.3158
 11
-21.5967
 20
75.9204
 21
75.6567
  0
LINE
  8
0
 10
-21.5967
 11
-21.9343
 20
75.6567
 21
75.4711
  0
LINE
  8
0
 10
-21.9343
 11
-22.3074
 20
75.4711
 21
75.3753
  0
LINE
  8
0
 10
-22.3074
 11
-22.6926
 20
75.3753
 21
75.3753
  0
LINE
  8
0
 10
22.3074
 11
21.9343
 20
75.3753
 21
75.4711
  0
LINE
  8
0
 10
21.9343
 11
21.5967
 20
75.4711
 21
75.6567
  0
LINE
  8
0
 10
21.5967
 11
21.3158
 20
75.6567
 21
75.9204
  0
LINE
  8
0
 10
21.3158
 11
21.1094
 20
75.9204
 21
76.2457
  0
LINE
  8
0
 10
21.1094
 11
20.9904
 20
76.2457
 21
76.612
  0
LINE
  8
0
 10
20.9904
 11
20.9662
 20
76.612
 21
76.9965
  0
LINE
  8
0
 10
20.9662
 11
21.0384
 20
76.9965
 21
77.3749
  0
LINE
  8
0
 10
21.0384
 11
21.2024
 20
77.3749
 21
77.7235
  0
LINE
  8
0
 10
21.2024
 11
21.448
 20
77.7235
 21
78.0203
  0
LINE
  8
0
 10
21.448
 11
21.7596
 20
78.0203
 21
78.2467
  0
LINE
  8
0
 10
21.7596
 11
22.1178
 20
78.2467
 21
78.3885
  0
LINE
  8
0
 10
22.1178
 11
22.5
 20
78.3885
 21
78.4368
  0
LINE
  8
0
 10
22.5
 11
22.8822
 20
78.4368
 21
78.3885
  0
LINE
  8
0
 10
22.8822
 11
23.2404
 20
78.3885
 21
78.2467
  0
LINE
  8
0
 10
23.2404
 11
23.552
 20
78.2467
 21
78.0203
  0
LINE
  8
0
 10
23.552
 11
23.7976
 20
78.0203
 21
77.7235
  0
LINE
  8
0
 10
23.7976
 11
23.9616
 20
77.7235
 21
77.3749
  0
LINE
  8
0
 10
23.9616
 11
24.0338
 20
77.3749
 21
76.9965
  0
LINE
  8
0
 10
24.0338
 11
24.0096
 20
76.9965
 21
76.612
  0
LINE
  8
0
 10
24.0096
 11
23.8906
 20
76.612
 21
76.2457
  0
LINE
  8
0
 10
23.8906
 11
23.6841
 20
76.2457
 21
75.9204
  0
LINE
  8
0
 10
23.6841
 11
23.4033
 20
75.9204
 21
75.6567
  0
LINE
  8
0
 10
23.4033
 11
23.0657
 20
75.6567
 21
75.4711
  0
LINE
  8
0
 10
23.0657
 11
22.6926
 20
75.4711
 21
75.3753
  0
LINE
  8
0
 10
22.6926
 11
22.3074
 20
75.3753
 21
75.3753
  0
LINE
  8
0
 10
125.4
 11
22.1
 20
12.9
 21
12.9
  0
LINE
  8
0
 10
22.1
 11
22.1
 20
12.9
 21
-52.4
  0
LINE
  8
0
 10
22.1
 11
125.4
 20
-52.4
 21
-52.4
  0
LINE
  8
0
 10
125.4
 11
125.4
 20
-52.4
 21
12.9
  0
LINE
  8
0
 10
27.0251
 11
26.6765
 20
-1.46161
 21
-1.29758
  0
LINE
  8
0
 10
26.6765
 11
26.3797
 20
-1.29758
 21
-1.05203
  0
LINE
  8
0
 10
26.3797
 11
26.1533
 20
-1.05203
 21
-0.740356
  0
LINE
  8
0
 10
26.1533
 11
26.0115
 20
-0.740356
 21
-0.382172
  0
LINE
  8
0
 10
26.0115
 11
25.9632
 20
-0.382172
 21
0
  0
LINE
  8
0
 10
25.9632
 11
26.0115
 20
0
 21
0.382172
  0
LINE
  8
0
 10
26.0115
 11
26.1533
 20
0.382172
 21
0.740356
  0
LINE
  8
0
 10
26.1533
 11
26.3797
 20
0.740356
 21
1.05203
  0
LINE
  8
0
 10
26.3797
 11
26.6765
 20
1.05203
 21
1.29758
  0
LINE
  8
0
 10
26.6765
 11
27.0251
 20
1.29758
 21
1.46161
  0
LINE
  8
0
 10
27.0251
 11
27.4034
 20
1.46161
 21
1.53377
  0
LINE
  8
0
 10
27.4034
 11
27.788
 20
1.53377
 21
1.50958
  0
LINE
  8
0
 10
27.788
 11
28.1543
 20
1.50958
 21
1.39056
  0
LINE
  8
0
 10
28.1543
 11
28.4796
 20
1.39056
 21
1.18413
  0
LINE
  8
0
 10
28.4796
 11
28.7433
 20
1.18413
 21
0.90329
  0
LINE
  8
0
 10
28.7433
 11
28.9289
 20
0.90329
 21
0.565735
  0
LINE
  8
0
 10
28.9289
 11
29.0247
 20
0.565735
 21
0.192566
  0
LINE
  8
0
 10
29.0247
 11
29.0247
 20
0.192566
 21
-0.192566
  0
LINE
  8
0
 10
29.0247
 11
28.9289
 20
-0.192566
 21
-0.565735
  0
LINE
  8
0
 10
28.9289
 11
28.7433
 20
-0.565735
 21
-0.903336
  0
LINE
  8
0
 10
28.7433
 11
28.4796
 20
-0.903336
 21
-1.18413
  0
LINE
  8
0
 10
28.4796
 11
28.1543
 20
-1.18413
 21
-1.39056
  0
LINE
  8
0
 10
28.1543
 11
27.788
 20
-1.39056
 21
-1.50958
  0
LINE
  8
0
 10
27.788
 11
27.4034
 20
-1.50958
 21
-1.53377
  0
LINE
  8
0
 10
27.4034
 11
27.0251
 20
-1.53377
 21
-1.46161
  0
LINE
  8
0
 10
109.525
 11
109.177
 20
-1.46161
 21
-1.29758
  0
LINE
  8
0
 10
109.177
 11
108.88
 20
-1.29758
 21
-1.05203
  0
LINE
  8
0
 10
108.88
 11
108.653
 20
-1.05203
 21
-0.740356
  0
LINE
  8
0
 10
108.653
 11
108.511
 20
-0.740356
 21
-0.382172
  0
LINE
  8
0
 10
108.511
 11
108.463
 20
-0.382172
 21
0
  0
LINE
  8
0
 10
108.463
 11
108.511
 20
0
 21
0.382172
  0
LINE
  8
0
 10
108.511
 11
108.653
 20
0.382172
 21
0.740356
  0
LINE
  8
0
 10
108.653
 11
108.88
 20
0.740356
 21
1.05203
  0
LINE
  8
0
 10
108.88
 11
109.177
 20
1.05203
 21
1.29758
  0
LINE
  8
0
 10
109.177
 11
109.525
 20
1.29758
 21
1.46161
  0
LINE
  8
0
 10
109.525
 11
109.903
 20
1.46161
 21
1.53377
  0
LINE
  8
0
 10
109.903
 11
110.288
 20
1.53377
 21
1.50958
  0
LINE
  8
0
 10
110.288
 11
110.654
 20
1.50958
 21
1.39056
  0
LINE
  8
0
 10
110.654
 11
110.98
 20
1.39056
 21
1.18413
  0
LINE
  8
0
 10
110.98
 11
111.243
 20
1.18413
 21
0.90329
  0
LINE
  8
0
 10
111.243
 11
111.429
 20
0.90329
 21
0.565735
  0
LINE
  8
0
 10
111.429
 11
111.525
 20
0.565735
 21
0.192566
  0
LINE
  8
0
 10
111.525
 11
111.525
 20
0.192566
 21
-0.192566
  0
LINE
  8
0
 10
111.525
 11
111.429
 20
-0.192566
 21
-0.565735
  0
LINE
  8
0
 10
111.429
 11
111.243
 20
-0.565735
 21
-0.903336
  0
LINE
  8
0
 10
111.243
 11
110.98
 20
-0.903336
 21
-1.18413
  0
LINE
  8
0
 10
110.98
 11
110.654
 20
-1.18413
 21
-1.39056
  0
LINE
  8
0
 10
110.654
 11
110.288
 20
-1.39056
 21
-1.50958
  0
LINE
  8
0
 10
110.288
 11
109.903
 20
-1.50958
 21
-1.53377
  0
LINE
  8
0
 10
109.903
 11
109.525
 20
-1.53377
 21
-1.46161
  0
LINE
  8
0
 10
109.525
 11
109.177
 20
-49.9616
 21
-49.7976
  0
LINE
  8
0
 10
109.177
 11
108.88
 20
-49.7976
 21
-49.552
  0
LINE
  8
0
 10
108.88
 11
108.653
 20
-49.552
 21
-49.2404
  0
LINE
  8
0
 10
108.653
 11
108.511
 20
-49.2404
 21
-48.8822
  0
LINE
  8
0
 10
108.511
 11
108.463
 20
-48.8822
 21
-48.5
  0
LINE
  8
0
 10
108.463
 11
108.511
 20
-48.5
 21
-48.1178
  0
LINE
  8
0
 10
108.511
 11
108.653
 20
-48.1178
 21
-47.7596
  0
LINE
  8
0
 10
108.653
 11
108.88
 20
-47.7596
 21
-47.448
  0
LINE
  8
0
 10
108.88
 11
109.177
 20
-47.448
 21
-47.2024
  0
LINE
  8
0
 10
109.177
 11
109.525
 20
-47.2024
 21
-47.0384
  0
LINE
  8
0
 10
109.525
 11
109.903
 20
-47.0384
 21
-46.9662
  0
LINE
  8
0
 10
109.903
 11
110.288
 20
-46.9662
 21
-46.9904
  0
LINE
  8
0
 10
110.288
 11
110.654
 20
-46.9904
 21
-47.1094
  0
LINE
  8
0
 10
110.654
 11
110.98
 20
-47.1094
 21
-47.3159
  0
LINE
  8
0
 10
110.98
 11
111.243
 20
-47.3159
 21
-47.5966
  0
LINE
  8
0
 10
111.243
 11
111.429
 20
-47.5966
 21
-47.9342
  0
LINE
  8
0
 10
111.429
 11
111.525
 20
-47.9342
 21
-48.3074
  0
LINE
  8
0
 10
111.525
 11
111.525
 20
-48.3074
 21
-48.6926
  0
LINE
  8
0
 10
111.525
 11
111.429
 20
-48.6926
 21
-49.0657
  0
LINE
  8
0
 10
111.429
 11
111.243
 20
-49.0657
 21
-49.4033
  0
LINE
  8
0
 10
111.243
 11
110.98
 20
-49.4033
 21
-49.6841
  0
LINE
  8
0
 10
110.98
 11
110.654
 20
-49.6841
 21
-49.8906
  0
LINE
  8
0
 10
110.654
 11
110.288
 20
-49.8906
 21
-50.0096
  0
LINE
  8
0
 10
110.288
 11
109.903
 20
-50.0096
 21
-50.0338
  0
LINE
  8
0
 10
109.903
 11
109.525
 20
-50.0338
 21
-49.9616
  0
LINE
  8
0
 10
16.9
 11
22.7647
 20
-77.7944
 21
-77.7944
  0
LINE
  8
0
 10
22.7647
 11
23.292
 20
-77.7944
 21
-77.747
  0
LINE
  8
0
 10
23.292
 11
23.813
 20
-77.747
 21
-77.6525
  0
LINE
  8
0
 10
23.813
 11
24.3233
 20
-77.6525
 21
-77.5116
  0
LINE
  8
0
 10
24.3233
 11
24.819
 20
-77.5116
 21
-77.3256
  0
LINE
  8
0
 10
24.819
 11
25.296
 20
-77.3256
 21
-77.0959
  0
LINE
  8
0
 10
25.296
 11
25.7505
 20
-77.0959
 21
-76.8243
  0
LINE
  8
0
 10
25.7505
 11
26.1788
 20
-76.8243
 21
-76.5131
  0
LINE
  8
0
 10
26.1788
 11
26.5775
 20
-76.5131
 21
-76.1648
  0
LINE
  8
0
 10
26.5775
 11
26.9434
 20
-76.1648
 21
-75.7821
  0
LINE
  8
0
 10
26.9434
 11
27.2735
 20
-75.7821
 21
-75.3682
  0
LINE
  8
0
 10
27.2735
 11
27.5652
 20
-75.3682
 21
-74.9263
  0
LINE
  8
0
 10
27.5652
 11
27.8161
 20
-74.9263
 21
-74.4601
  0
LINE
  8
0
 10
27.8161
 11
28.0242
 20
-74.4601
 21
-73.9732
  0
LINE
  8
0
 10
28.0242
 11
28.1878
 20
-73.9732
 21
-73.4697
  0
LINE
  8
0
 10
28.1878
 11
28.3056
 20
-73.4697
 21
-72.9535
  0
LINE
  8
0
 10
28.3056
 11
28.3766
 20
-72.9535
 21
-72.4289
  0
LINE
  8
0
 10
28.3766
 11
28.4004
 20
-72.4289
 21
-71.9
  0
LINE
  8
0
 10
28.4004
 11
28.3766
 20
-71.9
 21
-71.3711
  0
LINE
  8
0
 10
28.3766
 11
28.3056
 20
-71.3711
 21
-70.8464
  0
LINE
  8
0
 10
28.3056
 11
28.1878
 20
-70.8464
 21
-70.3303
  0
LINE
  8
0
 10
28.1878
 11
28.0242
 20
-70.3303
 21
-69.8268
  0
LINE
  8
0
 10
28.0242
 11
27.8161
 20
-69.8268
 21
-69.3399
  0
LINE
  8
0
 10
27.8161
 11
27.5652
 20
-69.3399
 21
-68.8737
  0
LINE
  8
0
 10
27.5652
 11
27.2806
 20
-68.8737
 21
-68.4426
  0
LINE
  8
0
 10
27.2806
 11
15.7704
 20
-68.4426
 21
-51.9279
  0
LINE
  8
0
 10
15.7704
 11
15.4434
 20
-51.9279
 21
-51.5179
  0
LINE
  8
0
 10
15.4434
 11
15.0775
 20
-51.5179
 21
-51.1352
  0
LINE
  8
0
 10
15.0775
 11
14.6788
 20
-51.1352
 21
-50.7869
  0
LINE
  8
0
 10
14.6788
 11
14.2505
 20
-50.7869
 21
-50.4757
  0
LINE
  8
0
 10
14.2505
 11
13.796
 20
-50.4757
 21
-50.2041
  0
LINE
  8
0
 10
13.796
 11
13.319
 20
-50.2041
 21
-49.9744
  0
LINE
  8
0
 10
13.319
 11
12.8233
 20
-49.9744
 21
-49.7884
  0
LINE
  8
0
 10
12.8233
 11
12.313
 20
-49.7884
 21
-49.6475
  0
LINE
  8
0
 10
12.313
 11
11.792
 20
-49.6475
 21
-49.553
  0
LINE
  8
0
 10
11.792
 11
11.2647
 20
-49.553
 21
-49.5055
  0
LINE
  8
0
 10
11.2647
 11
10.7353
 20
-49.5055
 21
-49.5055
  0
LINE
  8
0
 10
10.7353
 11
10.208
 20
-49.5055
 21
-49.553
  0
LINE
  8
0
 10
10.208
 11
9.68703
 20
-49.553
 21
-49.6475
  0
LINE
  8
0
 10
9.68703
 11
9.17667
 20
-49.6475
 21
-49.7884
  0
LINE
  8
0
 10
9.17667
 11
8.68098
 20
-49.7884
 21
-49.9744
  0
LINE
  8
0
 10
8.68098
 11
8.20396
 20
-49.9744
 21
-50.2041
  0
LINE
  8
0
 10
8.20396
 11
7.74948
 20
-50.2041
 21
-50.4757
  0
LINE
  8
0
 10
7.74948
 11
7.32115
 20
-50.4757
 21
-50.7869
  0
LINE
  8
0
 10
7.32115
 11
6.92244
 20
-50.7869
 21
-51.1352
  0
LINE
  8
0
 10
6.92244
 11
6.55656
 20
-51.1352
 21
-51.5179
  0
LINE
  8
0
 10
6.55656
 11
6.22704
 20
-51.5179
 21
-51.9311
  0
LINE
  8
0
 10
6.22704
 11
-3.15221
 20
-51.9311
 21
-66
  0
LINE
  8
0
 10
-3.15221
 11
-36.9
 20
-66
 21
-66
  0
LINE
  8
0
 10
-36.9
 11
-36.9
 20
-66
 21
-66.0055
  0
LINE
  8
0
 10
-36.9
 11
-69.2239
 20
-66.0055
 21
-66.0055
  0
LINE
  8
0
 10
-69.2239
 11
-69.7512
 20
-66.0055
 21
-66.053
  0
LINE
  8
0
 10
-69.7512
 11
-70.2722
 20
-66.053
 21
-66.1475
  0
LINE
  8
0
 10
-70.2722
 11
-70.7825
 20
-66.1475
 21
-66.2884
  0
LINE
  8
0
 10
-70.7825
 11
-71.2782
 20
-66.2884
 21
-66.4744
  0
LINE
  8
0
 10
-71.2782
 11
-71.7552
 20
-66.4744
 21
-66.7041
  0
LINE
  8
0
 10
-71.7552
 11
-72.2097
 20
-66.7041
 21
-66.9757
  0
LINE
  8
0
 10
-72.2097
 11
-72.638
 20
-66.9757
 21
-67.2869
  0
LINE
  8
0
 10
-72.638
 11
-73.0367
 20
-67.2869
 21
-67.6352
  0
LINE
  8
0
 10
-73.0367
 11
-73.4026
 20
-67.6352
 21
-68.0179
  0
LINE
  8
0
 10
-73.4026
 11
-73.7327
 20
-68.0179
 21
-68.4318
  0
LINE
  8
0
 10
-73.7327
 11
-74.0244
 20
-68.4318
 21
-68.8737
  0
LINE
  8
0
 10
-74.0244
 11
-74.2753
 20
-68.8737
 21
-69.3399
  0
LINE
  8
0
 10
-74.2753
 11
-74.4834
 20
-69.3399
 21
-69.8268
  0
LINE
  8
0
 10
-74.4834
 11
-74.647
 20
-69.8268
 21
-70.3303
  0
LINE
  8
0
 10
-74.647
 11
-74.7648
 20
-70.3303
 21
-70.8464
  0
LINE
  8
0
 10
-74.7648
 11
-74.8358
 20
-70.8464
 21
-71.3711
  0
LINE
  8
0
 10
-74.8358
 11
-74.8596
 20
-71.3711
 21
-71.9
  0
LINE
  8
0
 10
-74.8596
 11
-74.8358
 20
-71.9
 21
-72.4289
  0
LINE
  8
0
 10
-74.8358
 11
-74.7648
 20
-72.4289
 21
-72.9536
  0
LINE
  8
0
 10
-74.7648
 11
-74.647
 20
-72.9536
 21
-73.4697
  0
LINE
  8
0
 10
-74.647
 11
-74.4834
 20
-73.4697
 21
-73.9732
  0
LINE
  8
0
 10
-74.4834
 11
-74.2753
 20
-73.9732
 21
-74.4601
  0
LINE
  8
0
 10
-74.2753
 11
-74.0244
 20
-74.4601
 21
-74.9263
  0
LINE
  8
0
 10
-74.0244
 11
-73.7327
 20
-74.9263
 21
-75.3682
  0
LINE
  8
0
 10
-73.7327
 11
-73.4026
 20
-75.3682
 21
-75.7821
  0
LINE
  8
0
 10
-73.4026
 11
-73.0367
 20
-75.7821
 21
-76.1648
  0
LINE
  8
0
 10
-73.0367
 11
-72.638
 20
-76.1648
 21
-76.5131
  0
LINE
  8
0
 10
-72.638
 11
-72.2097
 20
-76.5131
 21
-76.8243
  0
LINE
  8
0
 10
-72.2097
 11
-71.7552
 20
-76.8243
 21
-77.0959
  0
LINE
  8
0
 10
-71.7552
 11
-71.2782
 20
-77.0959
 21
-77.3256
  0
LINE
  8
0
 10
-71.2782
 11
-70.7825
 20
-77.3256
 21
-77.5116
  0
LINE
  8
0
 10
-70.7825
 11
-70.2722
 20
-77.5116
 21
-77.6525
  0
LINE
  8
0
 10
-70.2722
 11
-69.7512
 20
-77.6525
 21
-77.747
  0
LINE
  8
0
 10
-69.7512
 11
-69.2239
 20
-77.747
 21
-77.7944
  0
LINE
  8
0
 10
-69.2239
 11
-36.9
 20
-77.7944
 21
-77.7944
  0
LINE
  8
0
 10
-36.9
 11
-36.9
 20
-77.7944
 21
-77.8
  0
LINE
  8
0
 10
-36.9
 11
16.9
 20
-77.8
 21
-77.8
  0
LINE
  8
0
 10
16.9
 11
16.9
 20
-77.8
 21
-77.7944
  0
LINE
  8
0
 10
10.8074
 11
10.4343
 20
-56.9247
 21
-56.8289
  0
LINE
  8
0
 10
10.4343
 11
10.0967
 20
-56.8289
 21
-56.6433
  0
LINE
  8
0
 10
10.0967
 11
9.81586
 20
-56.6433
 21
-56.3796
  0
LINE
  8
0
 10
9.81586
 11
9.60942
 20
-56.3796
 21
-56.0543
  0
LINE
  8
0
 10
9.60942
 11
9.4904
 20
-56.0543
 21
-55.688
  0
LINE
  8
0
 10
9.4904
 11
9.46622
 20
-55.688
 21
-55.3035
  0
LINE
  8
0
 10
9.46622
 11
9.53838
 20
-55.3035
 21
-54.9251
  0
LINE
  8
0
 10
9.53838
 11
9.70241
 20
-54.9251
 21
-54.5765
  0
LINE
  8
0
 10
9.70241
 11
9.94795
 20
-54.5765
 21
-54.2797
  0
LINE
  8
0
 10
9.94795
 11
10.2596
 20
-54.2797
 21
-54.0533
  0
LINE
  8
0
 10
10.2596
 11
10.6178
 20
-54.0533
 21
-53.9115
  0
LINE
  8
0
 10
10.6178
 11
11
 20
-53.9115
 21
-53.8632
  0
LINE
  8
0
 10
11
 11
11.3822
 20
-53.8632
 21
-53.9115
  0
LINE
  8
0
 10
11.3822
 11
11.7404
 20
-53.9115
 21
-54.0533
  0
LINE
  8
0
 10
11.7404
 11
12.052
 20
-54.0533
 21
-54.2797
  0
LINE
  8
0
 10
12.052
 11
12.2976
 20
-54.2797
 21
-54.5765
  0
LINE
  8
0
 10
12.2976
 11
12.4616
 20
-54.5765
 21
-54.9251
  0
LINE
  8
0
 10
12.4616
 11
12.5338
 20
-54.9251
 21
-55.3035
  0
LINE
  8
0
 10
12.5338
 11
12.5096
 20
-55.3035
 21
-55.688
  0
LINE
  8
0
 10
12.5096
 11
12.3906
 20
-55.688
 21
-56.0543
  0
LINE
  8
0
 10
12.3906
 11
12.1841
 20
-56.0543
 21
-56.3796
  0
LINE
  8
0
 10
12.1841
 11
11.9033
 20
-56.3796
 21
-56.6433
  0
LINE
  8
0
 10
11.9033
 11
11.5657
 20
-56.6433
 21
-56.8289
  0
LINE
  8
0
 10
11.5657
 11
11.1926
 20
-56.8289
 21
-56.9247
  0
LINE
  8
0
 10
11.1926
 11
10.8074
 20
-56.9247
 21
-56.9247
  0
LINE
  8
0
 10
-69.1518
 11
-69.5249
 20
-73.4247
 21
-73.3289
  0
LINE
  8
0
 10
-69.5249
 11
-69.8625
 20
-73.3289
 21
-73.1433
  0
LINE
  8
0
 10
-69.8625
 11
-70.1433
 20
-73.1433
 21
-72.8796
  0
LINE
  8
0
 10
-70.1433
 11
-70.3498
 20
-72.8796
 21
-72.5543
  0
LINE
  8
0
 10
-70.3498
 11
-70.4688
 20
-72.5543
 21
-72.188
  0
LINE
  8
0
 10
-70.4688
 11
-70.493
 20
-72.188
 21
-71.8035
  0
LINE
  8
0
 10
-70.493
 11
-70.4208
 20
-71.8035
 21
-71.4251
  0
LINE
  8
0
 10
-70.4208
 11
-70.2568
 20
-71.4251
 21
-71.0765
  0
LINE
  8
0
 10
-70.2568
 11
-70.0112
 20
-71.0765
 21
-70.7797
  0
LINE
  8
0
 10
-70.0112
 11
-69.6996
 20
-70.7797
 21
-70.5533
  0
LINE
  8
0
 10
-69.6996
 11
-69.3414
 20
-70.5533
 21
-70.4115
  0
LINE
  8
0
 10
-69.3414
 11
-68.9592
 20
-70.4115
 21
-70.3632
  0
LINE
  8
0
 10
-68.9592
 11
-68.577
 20
-70.3632
 21
-70.4115
  0
LINE
  8
0
 10
-68.577
 11
-68.2188
 20
-70.4115
 21
-70.5533
  0
LINE
  8
0
 10
-68.2188
 11
-67.9072
 20
-70.5533
 21
-70.7797
  0
LINE
  8
0
 10
-67.9072
 11
-67.6616
 20
-70.7797
 21
-71.0765
  0
LINE
  8
0
 10
-67.6616
 11
-67.4976
 20
-71.0765
 21
-71.4251
  0
LINE
  8
0
 10
-67.4976
 11
-67.4254
 20
-71.4251
 21
-71.8035
  0
LINE
  8
0
 10
-67.4254
 11
-67.4496
 20
-71.8035
 21
-72.188
  0
LINE
  8
0
 10
-67.4496
 11
-67.5686
 20
-72.188
 21
-72.5543
  0
LINE
  8
0
 10
-67.5686
 11
-67.7751
 20
-72.5543
 21
-72.8796
  0
LINE
  8
0
 10
-67.7751
 11
-68.0559
 20
-72.8796
 21
-73.1433
  0
LINE
  8
0
 10
-68.0559
 11
-68.3935
 20
-73.1433
 21
-73.3289
  0
LINE
  8
0
 10
-68.3935
 11
-68.7666
 20
-73.3289
 21
-73.4247
  0
LINE
  8
0
 10
-68.7666
 11
-69.1518
 20
-73.4247
 21
-73.4247
  0
LINE
  8
0
 10
22.3074
 11
21.9343
 20
-73.4247
 21
-73.3289
  0
LINE
  8
0
 10
21.9343
 11
21.5967
 20
-73.3289
 21
-73.1433
  0
LINE
  8
0
 10
21.5967
 11
21.3159
 20
-73.1433
 21
-72.8796
  0
LINE
  8
0
 10
21.3159
 11
21.1094
 20
-72.8796
 21
-72.5543
  0
LINE
  8
0
 10
21.1094
 11
20.9904
 20
-72.5543
 21
-72.188
  0
LINE
  8
0
 10
20.9904
 11
20.9662
 20
-72.188
 21
-71.8035
  0
LINE
  8
0
 10
20.9662
 11
21.0384
 20
-71.8035
 21
-71.4251
  0
LINE
  8
0
 10
21.0384
 11
21.2024
 20
-71.4251
 21
-71.0765
  0
LINE
  8
0
 10
21.2024
 11
21.448
 20
-71.0765
 21
-70.7797
  0
LINE
  8
0
 10
21.448
 11
21.7596
 20
-70.7797
 21
-70.5533
  0
LINE
  8
0
 10
21.7596
 11
22.1178
 20
-70.5533
 21
-70.4115
  0
LINE
  8
0
 10
22.1178
 11
22.5
 20
-70.4115
 21
-70.3632
  0
LINE
  8
0
 10
22.5
 11
22.8822
 20
-70.3632
 21
-70.4115
  0
LINE
  8
0
 10
22.8822
 11
23.2404
 20
-70.4115
 21
-70.5533
  0
LINE
  8
0
 10
23.2404
 11
23.552
 20
-70.5533
 21
-70.7797
  0
LINE
  8
0
 10
23.552
 11
23.7976
 20
-70.7797
 21
-71.0765
  0
LINE
  8
0
 10
23.7976
 11
23.9616
 20
-71.0765
 21
-71.4251
  0
LINE
  8
0
 10
23.9616
 11
24.0338
 20
-71.4251
 21
-71.8035
  0
LINE
  8
0
 10
24.0338
 11
24.0096
 20
-71.8035
 21
-72.188
  0
LINE
  8
0
 10
24.0096
 11
23.8906
 20
-72.188
 21
-72.5543
  0
LINE
  8
0
 10
23.8906
 11
23.6841
 20
-72.5543
 21
-72.8796
  0
LINE
  8
0
 10
23.6841
 11
23.4033
 20
-72.8796
 21
-73.1433
  0
LINE
  8
0
 10
23.4033
 11
23.0657
 20
-73.1433
 21
-73.3289
  0
LINE
  8
0
 10
23.0657
 11
22.6926
 20
-73.3289
 21
-73.4247
  0
LINE
  8
0
 10
22.6926
 11
22.3074
 20
-73.4247
 21
-73.4247
  0
LINE
  8
0
 10
92.15
 11
98.0147
 20
-105.394
 21
-105.394
  0
LINE
  8
0
 10
98.0147
 11
98.542
 20
-105.394
 21
-105.347
  0
LINE
  8
0
 10
98.542
 11
99.063
 20
-105.347
 21
-105.252
  0
LINE
  8
0
 10
99.063
 11
99.5733
 20
-105.252
 21
-105.112
  0
LINE
  8
0
 10
99.5733
 11
100.069
 20
-105.112
 21
-104.926
  0
LINE
  8
0
 10
100.069
 11
100.546
 20
-104.926
 21
-104.696
  0
LINE
  8
0
 10
100.546
 11
101.001
 20
-104.696
 21
-104.424
  0
LINE
  8
0
 10
101.001
 11
101.429
 20
-104.424
 21
-104.113
  0
LINE
  8
0
 10
101.429
 11
101.828
 20
-104.113
 21
-103.765
  0
LINE
  8
0
 10
101.828
 11
102.193
 20
-103.765
 21
-103.382
  0
LINE
  8
0
 10
102.193
 11
102.524
 20
-103.382
 21
-102.968
  0
LINE
  8
0
 10
102.524
 11
102.815
 20
-102.968
 21
-102.526
  0
LINE
  8
0
 10
102.815
 11
103.066
 20
-102.526
 21
-102.06
  0
LINE
  8
0
 10
103.066
 11
103.274
 20
-102.06
 21
-101.573
  0
LINE
  8
0
 10
103.274
 11
103.438
 20
-101.573
 21
-101.07
  0
LINE
  8
0
 10
103.438
 11
103.556
 20
-101.07
 21
-100.554
  0
LINE
  8
0
 10
103.556
 11
103.627
 20
-100.554
 21
-100.029
  0
LINE
  8
0
 10
103.627
 11
103.65
 20
-100.029
 21
-99.5
  0
LINE
  8
0
 10
103.65
 11
103.627
 20
-99.5
 21
-98.9711
  0
LINE
  8
0
 10
103.627
 11
103.556
 20
-98.9711
 21
-98.4464
  0
LINE
  8
0
 10
103.556
 11
103.438
 20
-98.4464
 21
-97.9303
  0
LINE
  8
0
 10
103.438
 11
103.274
 20
-97.9303
 21
-97.4267
  0
LINE
  8
0
 10
103.274
 11
103.066
 20
-97.4267
 21
-96.9399
  0
LINE
  8
0
 10
103.066
 11
102.815
 20
-96.9399
 21
-96.4737
  0
LINE
  8
0
 10
102.815
 11
102.524
 20
-96.4737
 21
-96.0318
  0
LINE
  8
0
 10
102.524
 11
102.193
 20
-96.0318
 21
-95.6179
  0
LINE
  8
0
 10
102.193
 11
101.828
 20
-95.6179
 21
-95.2352
  0
LINE
  8
0
 10
101.828
 11
101.429
 20
-95.2352
 21
-94.8869
  0
LINE
  8
0
 10
101.429
 11
101.001
 20
-94.8869
 21
-94.5757
  0
LINE
  8
0
 10
101.001
 11
100.559
 20
-94.5757
 21
-94.3119
  0
LINE
  8
0
 10
100.559
 11
80.6685
 20
-94.3119
 21
-82.8029
  0
LINE
  8
0
 10
80.6685
 11
80.194
 20
-82.8029
 21
-82.5744
  0
LINE
  8
0
 10
80.194
 11
79.6983
 20
-82.5744
 21
-82.3884
  0
LINE
  8
0
 10
79.6983
 11
79.188
 20
-82.3884
 21
-82.2475
  0
LINE
  8
0
 10
79.188
 11
78.667
 20
-82.2475
 21
-82.153
  0
LINE
  8
0
 10
78.667
 11
78.1397
 20
-82.153
 21
-82.1055
  0
LINE
  8
0
 10
78.1397
 11
77.6103
 20
-82.1055
 21
-82.1055
  0
LINE
  8
0
 10
77.6103
 11
77.0829
 20
-82.1055
 21
-82.153
  0
LINE
  8
0
 10
77.0829
 11
76.562
 20
-82.153
 21
-82.2475
  0
LINE
  8
0
 10
76.562
 11
76.0517
 20
-82.2475
 21
-82.3884
  0
LINE
  8
0
 10
76.0517
 11
75.556
 20
-82.3884
 21
-82.5744
  0
LINE
  8
0
 10
75.556
 11
75.0815
 20
-82.5744
 21
-82.8029
  0
LINE
  8
0
 10
75.0815
 11
55.1909
 20
-82.8029
 21
-94.3119
  0
LINE
  8
0
 10
55.1909
 11
54.7495
 20
-94.3119
 21
-94.5757
  0
LINE
  8
0
 10
54.7495
 11
54.3212
 20
-94.5757
 21
-94.8869
  0
LINE
  8
0
 10
54.3212
 11
53.9224
 20
-94.8869
 21
-95.2352
  0
LINE
  8
0
 10
53.9224
 11
53.5566
 20
-95.2352
 21
-95.6179
  0
LINE
  8
0
 10
53.5566
 11
53.2265
 20
-95.6179
 21
-96.0318
  0
LINE
  8
0
 10
53.2265
 11
52.9348
 20
-96.0318
 21
-96.4737
  0
LINE
  8
0
 10
52.9348
 11
52.6839
 20
-96.4737
 21
-96.9399
  0
LINE
  8
0
 10
52.6839
 11
52.4758
 20
-96.9399
 21
-97.4267
  0
LINE
  8
0
 10
52.4758
 11
52.3122
 20
-97.4267
 21
-97.9303
  0
LINE
  8
0
 10
52.3122
 11
52.1944
 20
-97.9303
 21
-98.4464
  0
LINE
  8
0
 10
52.1944
 11
52.1234
 20
-98.4464
 21
-98.9711
  0
LINE
  8
0
 10
52.1234
 11
52.0996
 20
-98.9711
 21
-99.5
  0
LINE
  8
0
 10
52.0996
 11
52.1234
 20
-99.5
 21
-100.029
  0
LINE
  8
0
 10
52.1234
 11
52.1944
 20
-100.029
 21
-100.554
  0
LINE
  8
0
 10
52.1944
 11
52.3122
 20
-100.554
 21
-101.07
  0
LINE
  8
0
 10
52.3122
 11
52.4758
 20
-101.07
 21
-101.573
  0
LINE
  8
0
 10
52.4758
 11
52.6839
 20
-101.573
 21
-102.06
  0
LINE
  8
0
 10
52.6839
 11
52.9348
 20
-102.06
 21
-102.526
  0
LINE
  8
0
 10
52.9348
 11
53.2265
 20
-102.526
 21
-102.968
  0
LINE
  8
0
 10
53.2265
 11
53.5566
 20
-102.968
 21
-103.382
  0
LINE
  8
0
 10
53.5566
 11
53.9224
 20
-103.382
 21
-103.765
  0
LINE
  8
0
 10
53.9224
 11
54.3212
 20
-103.765
 21
-104.113
  0
LINE
  8
0
 10
54.3212
 11
54.7495
 20
-104.113
 21
-104.424
  0
LINE
  8
0
 10
54.7495
 11
55.204
 20
-104.424
 21
-104.696
  0
LINE
  8
0
 10
55.204
 11
55.681
 20
-104.696
 21
-104.926
  0
LINE
  8
0
 10
55.681
 11
56.1767
 20
-104.926
 21
-105.112
  0
LINE
  8
0
 10
56.1767
 11
56.687
 20
-105.112
 21
-105.252
  0
LINE
  8
0
 10
56.687
 11
57.2079
 20
-105.252
 21
-105.347
  0
LINE
  8
0
 10
57.2079
 11
57.7353
 20
-105.347
 21
-105.394
  0
LINE
  8
0
 10
57.7353
 11
63.6
 20
-105.394
 21
-105.394
  0
LINE
  8
0
 10
63.6
 11
63.6
 20
-105.394
 21
-105.4
  0
LINE
  8
0
 10
63.6
 11
92.15
 20
-105.4
 21
-105.4
  0
LINE
  8
0
 10
92.15
 11
92.15
 20
-105.4
 21
-105.394
  0
LINE
  8
0
 10
77.6824
 11
77.3092
 20
-89.5247
 21
-89.4289
  0
LINE
  8
0
 10
77.3092
 11
76.9717
 20
-89.4289
 21
-89.2433
  0
LINE
  8
0
 10
76.9717
 11
76.6909
 20
-89.2433
 21
-88.9796
  0
LINE
  8
0
 10
76.6909
 11
76.4844
 20
-88.9796
 21
-88.6543
  0
LINE
  8
0
 10
76.4844
 11
76.3654
 20
-88.6543
 21
-88.288
  0
LINE
  8
0
 10
76.3654
 11
76.3412
 20
-88.288
 21
-87.9034
  0
LINE
  8
0
 10
76.3412
 11
76.4134
 20
-87.9034
 21
-87.5251
  0
LINE
  8
0
 10
76.4134
 11
76.5774
 20
-87.5251
 21
-87.1765
  0
LINE
  8
0
 10
76.5774
 11
76.823
 20
-87.1765
 21
-86.8797
  0
LINE
  8
0
 10
76.823
 11
77.1346
 20
-86.8797
 21
-86.6533
  0
LINE
  8
0
 10
77.1346
 11
77.4928
 20
-86.6533
 21
-86.5115
  0
LINE
  8
0
 10
77.4928
 11
77.875
 20
-86.5115
 21
-86.4632
  0
LINE
  8
0
 10
77.875
 11
78.2572
 20
-86.4632
 21
-86.5115
  0
LINE
  8
0
 10
78.2572
 11
78.6154
 20
-86.5115
 21
-86.6533
  0
LINE
  8
0
 10
78.6154
 11
78.927
 20
-86.6533
 21
-86.8797
  0
LINE
  8
0
 10
78.927
 11
79.1726
 20
-86.8797
 21
-87.1765
  0
LINE
  8
0
 10
79.1726
 11
79.3366
 20
-87.1765
 21
-87.5251
  0
LINE
  8
0
 10
79.3366
 11
79.4088
 20
-87.5251
 21
-87.9034
  0
LINE
  8
0
 10
79.4088
 11
79.3846
 20
-87.9034
 21
-88.288
  0
LINE
  8
0
 10
79.3846
 11
79.2656
 20
-88.288
 21
-88.6543
  0
LINE
  8
0
 10
79.2656
 11
79.0591
 20
-88.6543
 21
-88.9796
  0
LINE
  8
0
 10
79.0591
 11
78.7783
 20
-88.9796
 21
-89.2433
  0
LINE
  8
0
 10
78.7783
 11
78.4407
 20
-89.2433
 21
-89.4289
  0
LINE
  8
0
 10
78.4407
 11
78.0676
 20
-89.4289
 21
-89.5247
  0
LINE
  8
0
 10
78.0676
 11
77.6824
 20
-89.5247
 21
-89.5247
  0
LINE
  8
0
 10
57.8074
 11
57.4342
 20
-101.025
 21
-100.929
  0
LINE
  8
0
 10
57.4342
 11
57.0967
 20
-100.929
 21
-100.743
  0
LINE
  8
0
 10
57.0967
 11
56.8159
 20
-100.743
 21
-100.48
  0
LINE
  8
0
 10
56.8159
 11
56.6094
 20
-100.48
 21
-100.154
  0
LINE
  8
0
 10
56.6094
 11
56.4904
 20
-100.154
 21
-99.788
  0
LINE
  8
0
 10
56.4904
 11
56.4662
 20
-99.788
 21
-99.4034
  0
LINE
  8
0
 10
56.4662
 11
56.5384
 20
-99.4034
 21
-99.0251
  0
LINE
  8
0
 10
56.5384
 11
56.7024
 20
-99.0251
 21
-98.6765
  0
LINE
  8
0
 10
56.7024
 11
56.948
 20
-98.6765
 21
-98.3797
  0
LINE
  8
0
 10
56.948
 11
57.2596
 20
-98.3797
 21
-98.1533
  0
LINE
  8
0
 10
57.2596
 11
57.6178
 20
-98.1533
 21
-98.0115
  0
LINE
  8
0
 10
57.6178
 11
58
 20
-98.0115
 21
-97.9632
  0
LINE
  8
0
 10
58
 11
58.3822
 20
-97.9632
 21
-98.0115
  0
LINE
  8
0
 10
58.3822
 11
58.7404
 20
-98.0115
 21
-98.1533
  0
LINE
  8
0
 10
58.7404
 11
59.052
 20
-98.1533
 21
-98.3797
  0
LINE
  8
0
 10
59.052
 11
59.2976
 20
-98.3797
 21
-98.6765
  0
LINE
  8
0
 10
59.2976
 11
59.4616
 20
-98.6765
 21
-99.0251
  0
LINE
  8
0
 10
59.4616
 11
59.5338
 20
-99.0251
 21
-99.4034
  0
LINE
  8
0
 10
59.5338
 11
59.5096
 20
-99.4034
 21
-99.788
  0
LINE
  8
0
 10
59.5096
 11
59.3906
 20
-99.788
 21
-100.154
  0
LINE
  8
0
 10
59.3906
 11
59.1841
 20
-100.154
 21
-100.48
  0
LINE
  8
0
 10
59.1841
 11
58.9033
 20
-100.48
 21
-100.743
  0
LINE
  8
0
 10
58.9033
 11
58.5657
 20
-100.743
 21
-100.929
  0
LINE
  8
0
 10
58.5657
 11
58.1926
 20
-100.929
 21
-101.025
  0
LINE
  8
0
 10
58.1926
 11
57.8074
 20
-101.025
 21
-101.025
  0
LINE
  8
0
 10
97.5574
 11
97.1842
 20
-101.025
 21
-100.929
  0
LINE
  8
0
 10
97.1842
 11
96.8467
 20
-100.929
 21
-100.743
  0
LINE
  8
0
 10
96.8467
 11
96.5659
 20
-100.743
 21
-100.48
  0
LINE
  8
0
 10
96.5659
 11
96.3594
 20
-100.48
 21
-100.154
  0
LINE
  8
0
 10
96.3594
 11
96.2404
 20
-100.154
 21
-99.788
  0
LINE
  8
0
 10
96.2404
 11
96.2162
 20
-99.788
 21
-99.4034
  0
LINE
  8
0
 10
96.2162
 11
96.2884
 20
-99.4034
 21
-99.0251
  0
LINE
  8
0
 10
96.2884
 11
96.4524
 20
-99.0251
 21
-98.6765
  0
LINE
  8
0
 10
96.4524
 11
96.698
 20
-98.6765
 21
-98.3797
  0
LINE
  8
0
 10
96.698
 11
97.0096
 20
-98.3797
 21
-98.1533
  0
LINE
  8
0
 10
97.0096
 11
97.3678
 20
-98.1533
 21
-98.0115
  0
LINE
  8
0
 10
97.3678
 11
97.75
 20
-98.0115
 21
-97.9632
  0
LINE
  8
0
 10
97.75
 11
98.1322
 20
-97.9632
 21
-98.0115
  0
LINE
  8
0
 10
98.1322
 11
98.4904
 20
-98.0115
 21
-98.1533
  0
LINE
  8
0
 10
98.4904
 11
98.802
 20
-98.1533
 21
-98.3797
  0
LINE
  8
0
 10
98.802
 11
99.0476
 20
-98.3797
 21
-98.6765
  0
LINE
  8
0
 10
99.0476
 11
99.2116
 20
-98.6765
 21
-99.0251
  0
LINE
  8
0
 10
99.2116
 11
99.2838
 20
-99.0251
 21
-99.4034
  0
LINE
  8
0
 10
99.2838
 11
99.2596
 20
-99.4034
 21
-99.788
  0
LINE
  8
0
 10
99.2596
 11
99.1406
 20
-99.788
 21
-100.154
  0
LINE
  8
0
 10
99.1406
 11
98.9341
 20
-100.154
 21
-100.48
  0
LINE
  8
0
 10
98.9341
 11
98.6533
 20
-100.48
 21
-100.743
  0
LINE
  8
0
 10
98.6533
 11
98.3157
 20
-100.743
 21
-100.929
  0
LINE
  8
0
 10
98.3157
 11
97.9426
 20
-100.929
 21
-101.025
  0
LINE
  8
0
 10
97.9426
 11
97.5574
 20
-101.025
 21
-101.025
  0
LINE
  8
0
 10
-63.6
 11
-57.7353
 20
-105.394
 21
-105.394
  0
LINE
  8
0
 10
-57.7353
 11
-57.2079
 20
-105.394
 21
-105.347
  0
LINE
  8
0
 10
-57.2079
 11
-56.687
 20
-105.347
 21
-105.252
  0
LINE
  8
0
 10
-56.687
 11
-56.1767
 20
-105.252
 21
-105.112
  0
LINE
  8
0
 10
-56.1767
 11
-55.681
 20
-105.112
 21
-104.926
  0
LINE
  8
0
 10
-55.681
 11
-55.204
 20
-104.926
 21
-104.696
  0
LINE
  8
0
 10
-55.204
 11
-54.7495
 20
-104.696
 21
-104.424
  0
LINE
  8
0
 10
-54.7495
 11
-54.3212
 20
-104.424
 21
-104.113
  0
LINE
  8
0
 10
-54.3212
 11
-53.9224
 20
-104.113
 21
-103.765
  0
LINE
  8
0
 10
-53.9224
 11
-53.5566
 20
-103.765
 21
-103.382
  0
LINE
  8
0
 10
-53.5566
 11
-53.2265
 20
-103.382
 21
-102.968
  0
LINE
  8
0
 10
-53.2265
 11
-52.9348
 20
-102.968
 21
-102.526
  0
LINE
  8
0
 10
-52.9348
 11
-52.6839
 20
-102.526
 21
-102.06
  0
LINE
  8
0
 10
-52.6839
 11
-52.4758
 20
-102.06
 21
-101.573
  0
LINE
  8
0
 10
-52.4758
 11
-52.3122
 20
-101.573
 21
-101.07
  0
LINE
  8
0
 10
-52.3122
 11
-52.1944
 20
-101.07
 21
-100.554
  0
LINE
  8
0
 10
-52.1944
 11
-52.1234
 20
-100.554
 21
-100.029
  0
LINE
  8
0
 10
-52.1234
 11
-52.0996
 20
-100.029
 21
-99.5
  0
LINE
  8
0
 10
-52.0996
 11
-52.1234
 20
-99.5
 21
-98.9711
  0
LINE
  8
0
 10
-52.1234
 11
-52.1944
 20
-98.9711
 21
-98.4464
  0
LINE
  8
0
 10
-52.1944
 11
-52.3122
 20
-98.4464
 21
-97.9303
  0
LINE
  8
0
 10
-52.3122
 11
-52.4758
 20
-97.9303
 21
-97.4267
  0
LINE
  8
0
 10
-52.4758
 11
-52.6839
 20
-97.4267
 21
-96.9399
  0
LINE
  8
0
 10
-52.6839
 11
-52.9348
 20
-96.9399
 21
-96.4737
  0
LINE
  8
0
 10
-52.9348
 11
-53.2265
 20
-96.4737
 21
-96.0318
  0
LINE
  8
0
 10
-53.2265
 11
-53.5566
 20
-96.0318
 21
-95.6179
  0
LINE
  8
0
 10
-53.5566
 11
-53.9224
 20
-95.6179
 21
-95.2352
  0
LINE
  8
0
 10
-53.9224
 11
-54.3212
 20
-95.2352
 21
-94.8869
  0
LINE
  8
0
 10
-54.3212
 11
-54.7495
 20
-94.8869
 21
-94.5757
  0
LINE
  8
0
 10
-54.7495
 11
-55.1909
 20
-94.5757
 21
-94.3119
  0
LINE
  8
0
 10
-55.1909
 11
-75.0815
 20
-94.3119
 21
-82.8029
  0
LINE
  8
0
 10
-75.0815
 11
-75.556
 20
-82.8029
 21
-82.5744
  0
LINE
  8
0
 10
-75.556
 11
-76.0517
 20
-82.5744
 21
-82.3884
  0
LINE
  8
0
 10
-76.0517
 11
-76.562
 20
-82.3884
 21
-82.2475
  0
LINE
  8
0
 10
-76.562
 11
-77.0829
 20
-82.2475
 21
-82.153
  0
LINE
  8
0
 10
-77.0829
 11
-77.6103
 20
-82.153
 21
-82.1055
  0
LINE
  8
0
 10
-77.6103
 11
-78.1397
 20
-82.1055
 21
-82.1055
  0
LINE
  8
0
 10
-78.1397
 11
-78.667
 20
-82.1055
 21
-82.153
  0
LINE
  8
0
 10
-78.667
 11
-79.188
 20
-82.153
 21
-82.2475
  0
LINE
  8
0
 10
-79.188
 11
-79.6983
 20
-82.2475
 21
-82.3884
  0
LINE
  8
0
 10
-79.6983
 11
-80.194
 20
-82.3884
 21
-82.5744
  0
LINE
  8
0
 10
-80.194
 11
-80.6685
 20
-82.5744
 21
-82.8029
  0
LINE
  8
0
 10
-80.6685
 11
-100.559
 20
-82.8029
 21
-94.3119
  0
LINE
  8
0
 10
-100.559
 11
-101.001
 20
-94.3119
 21
-94.5757
  0
LINE
  8
0
 10
-101.001
 11
-101.429
 20
-94.5757
 21
-94.8869
  0
LINE
  8
0
 10
-101.429
 11
-101.828
 20
-94.8869
 21
-95.2352
  0
LINE
  8
0
 10
-101.828
 11
-102.193
 20
-95.2352
 21
-95.6179
  0
LINE
  8
0
 10
-102.193
 11
-102.524
 20
-95.6179
 21
-96.0318
  0
LINE
  8
0
 10
-102.524
 11
-102.815
 20
-96.0318
 21
-96.4737
  0
LINE
  8
0
 10
-102.815
 11
-103.066
 20
-96.4737
 21
-96.9399
  0
LINE
  8
0
 10
-103.066
 11
-103.274
 20
-96.9399
 21
-97.4267
  0
LINE
  8
0
 10
-103.274
 11
-103.438
 20
-97.4267
 21
-97.9303
  0
LINE
  8
0
 10
-103.438
 11
-103.556
 20
-97.9303
 21
-98.4464
  0
LINE
  8
0
 10
-103.556
 11
-103.627
 20
-98.4464
 21
-98.9711
  0
LINE
  8
0
 10
-103.627
 11
-103.65
 20
-98.9711
 21
-99.5
  0
LINE
  8
0
 10
-103.65
 11
-103.627
 20
-99.5
 21
-100.029
  0
LINE
  8
0
 10
-103.627
 11
-103.556
 20
-100.029
 21
-100.554
  0
LINE
  8
0
 10
-103.556
 11
-103.438
 20
-100.554
 21
-101.07
  0
LINE
  8
0
 10
-103.438
 11
-103.274
 20
-101.07
 21
-101.573
  0
LINE
  8
0
 10
-103.274
 11
-103.066
 20
-101.573
 21
-102.06
  0
LINE
  8
0
 10
-103.066
 11
-102.815
 20
-102.06
 21
-102.526
  0
LINE
  8
0
 10
-102.815
 11
-102.524
 20
-102.526
 21
-102.968
  0
LINE
  8
0
 10
-102.524
 11
-102.193
 20
-102.968
 21
-103.382
  0
LINE
  8
0
 10
-102.193
 11
-101.828
 20
-103.382
 21
-103.765
  0
LINE
  8
0
 10
-101.828
 11
-101.429
 20
-103.765
 21
-104.113
  0
LINE
  8
0
 10
-101.429
 11
-101.001
 20
-104.113
 21
-104.424
  0
LINE
  8
0
 10
-101.001
 11
-100.546
 20
-104.424
 21
-104.696
  0
LINE
  8
0
 10
-100.546
 11
-100.069
 20
-104.696
 21
-104.926
  0
LINE
  8
0
 10
-100.069
 11
-99.5733
 20
-104.926
 21
-105.112
  0
LINE
  8
0
 10
-99.5733
 11
-99.063
 20
-105.112
 21
-105.252
  0
LINE
  8
0
 10
-99.063
 11
-98.542
 20
-105.252
 21
-105.347
  0
LINE
  8
0
 10
-98.542
 11
-98.0147
 20
-105.347
 21
-105.394
  0
LINE
  8
0
 10
-98.0147
 11
-92.15
 20
-105.394
 21
-105.394
  0
LINE
  8
0
 10
-92.15
 11
-92.15
 20
-105.394
 21
-105.4
  0
LINE
  8
0
 10
-92.15
 11
-63.6
 20
-105.4
 21
-105.4
  0
LINE
  8
0
 10
-63.6
 11
-63.6
 20
-105.4
 21
-105.394
  0
LINE
  8
0
 10
-78.0676
 11
-78.4407
 20
-89.5247
 21
-89.4289
  0
LINE
  8
0
 10
-78.4407
 11
-78.7783
 20
-89.4289
 21
-89.2433
  0
LINE
  8
0
 10
-78.7783
 11
-79.0591
 20
-89.2433
 21
-88.9796
  0
LINE
  8
0
 10
-79.0591
 11
-79.2656
 20
-88.9796
 21
-88.6543
  0
LINE
  8
0
 10
-79.2656
 11
-79.3846
 20
-88.6543
 21
-88.288
  0
LINE
  8
0
 10
-79.3846
 11
-79.4088
 20
-88.288
 21
-87.9034
  0
LINE
  8
0
 10
-79.4088
 11
-79.3366
 20
-87.9034
 21
-87.5251
  0
LINE
  8
0
 10
-79.3366
 11
-79.1726
 20
-87.5251
 21
-87.1765
  0
LINE
  8
0
 10
-79.1726
 11
-78.927
 20
-87.1765
 21
-86.8797
  0
LINE
  8
0
 10
-78.927
 11
-78.6154
 20
-86.8797
 21
-86.6533
  0
LINE
  8
0
 10
-78.6154
 11
-78.2572
 20
-86.6533
 21
-86.5115
  0
LINE
  8
0
 10
-78.2572
 11
-77.875
 20
-86.5115
 21
-86.4632
  0
LINE
  8
0
 10
-77.875
 11
-77.4928
 20
-86.4632
 21
-86.5115
  0
LINE
  8
0
 10
-77.4928
 11
-77.1346
 20
-86.5115
 21
-86.6533
  0
LINE
  8
0
 10
-77.1346
 11
-76.823
 20
-86.6533
 21
-86.8797
  0
LINE
  8
0
 10
-76.823
 11
-76.5774
 20
-86.8797
 21
-87.1765
  0
LINE
  8
0
 10
-76.5774
 11
-76.4134
 20
-87.1765
 21
-87.5251
  0
LINE
  8
0
 10
-76.4134
 11
-76.3412
 20
-87.5251
 21
-87.9034
  0
LINE
  8
0
 10
-76.3412
 11
-76.3654
 20
-87.9034
 21
-88.288
  0
LINE
  8
0
 10
-76.3654
 11
-76.4844
 20
-88.288
 21
-88.6543
  0
LINE
  8
0
 10
-76.4844
 11
-76.6909
 20
-88.6543
 21
-88.9796
  0
LINE
  8
0
 10
-76.6909
 11
-76.9717
 20
-88.9796
 21
-89.2433
  0
LINE
  8
0
 10
-76.9717
 11
-77.3092
 20
-89.2433
 21
-89.4289
  0
LINE
  8
0
 10
-77.3092
 11
-77.6824
 20
-89.4289
 21
-89.5247
  0
LINE
  8
0
 10
-77.6824
 11
-78.0676
 20
-89.5247
 21
-89.5247
  0
LINE
  8
0
 10
-97.9426
 11
-98.3157
 20
-101.025
 21
-100.929
  0
LINE
  8
0
 10
-98.3157
 11
-98.6533
 20
-100.929
 21
-100.743
  0
LINE
  8
0
 10
-98.6533
 11
-98.9341
 20
-100.743
 21
-100.48
  0
LINE
  8
0
 10
-98.9341
 11
-99.1406
 20
-100.48
 21
-100.154
  0
LINE
  8
0
 10
-99.1406
 11
-99.2596
 20
-100.154
 21
-99.788
  0
LINE
  8
0
 10
-99.2596
 11
-99.2838
 20
-99.788
 21
-99.4034
  0
LINE
  8
0
 10
-99.2838
 11
-99.2116
 20
-99.4034
 21
-99.0251
  0
LINE
  8
0
 10
-99.2116
 11
-99.0476
 20
-99.0251
 21
-98.6765
  0
LINE
  8
0
 10
-99.0476
 11
-98.802
 20
-98.6765
 21
-98.3797
  0
LINE
  8
0
 10
-98.802
 11
-98.4904
 20
-98.3797
 21
-98.1533
  0
LINE
  8
0
 10
-98.4904
 11
-98.1322
 20
-98.1533
 21
-98.0115
  0
LINE
  8
0
 10
-98.1322
 11
-97.75
 20
-98.0115
 21
-97.9632
  0
LINE
  8
0
 10
-97.75
 11
-97.3678
 20
-97.9632
 21
-98.0115
  0
LINE
  8
0
 10
-97.3678
 11
-97.0096
 20
-98.0115
 21
-98.1533
  0
LINE
  8
0
 10
-97.0096
 11
-96.698
 20
-98.1533
 21
-98.3797
  0
LINE
  8
0
 10
-96.698
 11
-96.4524
 20
-98.3797
 21
-98.6765
  0
LINE
  8
0
 10
-96.4524
 11
-96.2884
 20
-98.6765
 21
-99.0251
  0
LINE
  8
0
 10
-96.2884
 11
-96.2162
 20
-99.0251
 21
-99.4034
  0
LINE
  8
0
 10
-96.2162
 11
-96.2404
 20
-99.4034
 21
-99.788
  0
LINE
  8
0
 10
-96.2404
 11
-96.3594
 20
-99.788
 21
-100.154
  0
LINE
  8
0
 10
-96.3594
 11
-96.5659
 20
-100.154
 21
-100.48
  0
LINE
  8
0
 10
-96.5659
 11
-96.8467
 20
-100.48
 21
-100.743
  0
LINE
  8
0
 10
-96.8467
 11
-97.1842
 20
-100.743
 21
-100.929
  0
LINE
  8
0
 10
-97.1842
 11
-97.5574
 20
-100.929
 21
-101.025
  0
LINE
  8
0
 10
-97.5574
 11
-97.9426
 20
-101.025
 21
-101.025
  0
LINE
  8
0
 10
-58.1926
 11
-58.5657
 20
-101.025
 21
-100.929
  0
LINE
  8
0
 10
-58.5657
 11
-58.9033
 20
-100.929
 21
-100.743
  0
LINE
  8
0
 10
-58.9033
 11
-59.1841
 20
-100.743
 21
-100.48
  0
LINE
  8
0
 10
-59.1841
 11
-59.3906
 20
-100.48
 21
-100.154
  0
LINE
  8
0
 10
-59.3906
 11
-59.5096
 20
-100.154
 21
-99.788
  0
LINE
  8
0
 10
-59.5096
 11
-59.5338
 20
-99.788
 21
-99.4034
  0
LINE
  8
0
 10
-59.5338
 11
-59.4616
 20
-99.4034
 21
-99.0251
  0
LINE
  8
0
 10
-59.4616
 11
-59.2976
 20
-99.0251
 21
-98.6765
  0
LINE
  8
0
 10
-59.2976
 11
-59.052
 20
-98.6765
 21
-98.3797
  0
LINE
  8
0
 10
-59.052
 11
-58.7404
 20
-98.3797
 21
-98.1533
  0
LINE
  8
0
 10
-58.7404
 11
-58.3822
 20
-98.1533
 21
-98.0115
  0
LINE
  8
0
 10
-58.3822
 11
-58
 20
-98.0115
 21
-97.9632
  0
LINE
  8
0
 10
-58
 11
-57.6178
 20
-97.9632
 21
-98.0115
  0
LINE
  8
0
 10
-57.6178
 11
-57.2596
 20
-98.0115
 21
-98.1533
  0
LINE
  8
0
 10
-57.2596
 11
-56.948
 20
-98.1533
 21
-98.3797
  0
LINE
  8
0
 10
-56.948
 11
-56.7024
 20
-98.3797
 21
-98.6765
  0
LINE
  8
0
 10
-56.7024
 11
-56.5384
 20
-98.6765
 21
-99.0251
  0
LINE
  8
0
 10
-56.5384
 11
-56.4662
 20
-99.0251
 21
-99.4034
  0
LINE
  8
0
 10
-56.4662
 11
-56.4904
 20
-99.4034
 21
-99.788
  0
LINE
  8
0
 10
-56.4904
 11
-56.6094
 20
-99.788
 21
-100.154
  0
LINE
  8
0
 10
-56.6094
 11
-56.8159
 20
-100.154
 21
-100.48
  0
LINE
  8
0
 10
-56.8159
 11
-57.0967
 20
-100.48
 21
-100.743
  0
LINE
  8
0
 10
-57.0967
 11
-57.4342
 20
-100.743
 21
-100.929
  0
LINE
  8
0
 10
-57.4342
 11
-57.8074
 20
-100.929
 21
-101.025
  0
LINE
  8
0
 10
-57.8074
 11
-58.1926
 20
-101.025
 21
-101.025
  0
ENDSEC
  0
SECTION
  2
OBJECTS
  0
DICTIONARY
  0
ENDSEC
  0
EOF
