G04 (created by PCBNEW (2013-mar-13)-testing) date vie 14 jun 2013 18:20:00 CEST*
%MOIN*%
G04 Gerber Fmt 3.4, Leading zero omitted, Abs format*
%FSLAX34Y34*%
G01*
G70*
G90*
G04 APERTURE LIST*
%ADD10C,0.005906*%
%ADD11C,0.011811*%
%ADD12C,0.062992*%
%ADD13C,0.059055*%
%ADD14R,0.060000X0.060000*%
%ADD15C,0.060000*%
%ADD16C,0.031496*%
G04 APERTURE END LIST*
G54D10*
G54D11*
X80710Y-56606D02*
X80739Y-56578D01*
X80767Y-56493D01*
X80767Y-56437D01*
X80739Y-56353D01*
X80682Y-56296D01*
X80626Y-56268D01*
X80514Y-56240D01*
X80429Y-56240D01*
X80317Y-56268D01*
X80260Y-56296D01*
X80204Y-56353D01*
X80176Y-56437D01*
X80176Y-56493D01*
X80204Y-56578D01*
X80232Y-56606D01*
X80204Y-57168D02*
X80176Y-57112D01*
X80176Y-57028D01*
X80204Y-56943D01*
X80260Y-56887D01*
X80317Y-56859D01*
X80429Y-56831D01*
X80514Y-56831D01*
X80626Y-56859D01*
X80682Y-56887D01*
X80739Y-56943D01*
X80767Y-57028D01*
X80767Y-57084D01*
X80739Y-57168D01*
X80710Y-57196D01*
X80514Y-57196D01*
X80514Y-57084D01*
X80739Y-57421D02*
X80767Y-57506D01*
X80767Y-57646D01*
X80739Y-57703D01*
X80710Y-57731D01*
X80654Y-57759D01*
X80598Y-57759D01*
X80542Y-57731D01*
X80514Y-57703D01*
X80485Y-57646D01*
X80457Y-57534D01*
X80429Y-57478D01*
X80401Y-57449D01*
X80345Y-57421D01*
X80289Y-57421D01*
X80232Y-57449D01*
X80204Y-57478D01*
X80176Y-57534D01*
X80176Y-57674D01*
X80204Y-57759D01*
X80374Y-60081D02*
X80187Y-60606D01*
X79999Y-60081D01*
X79549Y-59818D02*
X79474Y-59818D01*
X79399Y-59856D01*
X79362Y-59893D01*
X79324Y-59968D01*
X79287Y-60118D01*
X79287Y-60306D01*
X79324Y-60456D01*
X79362Y-60531D01*
X79399Y-60568D01*
X79474Y-60606D01*
X79549Y-60606D01*
X79624Y-60568D01*
X79662Y-60531D01*
X79699Y-60456D01*
X79737Y-60306D01*
X79737Y-60118D01*
X79699Y-59968D01*
X79662Y-59893D01*
X79624Y-59856D01*
X79549Y-59818D01*
X78950Y-60531D02*
X78912Y-60568D01*
X78950Y-60606D01*
X78987Y-60568D01*
X78950Y-60531D01*
X78950Y-60606D01*
X78162Y-60606D02*
X78612Y-60606D01*
X78387Y-60606D02*
X78387Y-59818D01*
X78462Y-59931D01*
X78537Y-60006D01*
X78612Y-60043D01*
X79793Y-54606D02*
X80168Y-54606D01*
X80168Y-53818D01*
X79531Y-54606D02*
X79531Y-53818D01*
X79343Y-53818D01*
X79231Y-53856D01*
X79156Y-53931D01*
X79118Y-54006D01*
X79081Y-54156D01*
X79081Y-54268D01*
X79118Y-54418D01*
X79156Y-54493D01*
X79231Y-54568D01*
X79343Y-54606D01*
X79531Y-54606D01*
X78293Y-54606D02*
X78556Y-54231D01*
X78743Y-54606D02*
X78743Y-53818D01*
X78443Y-53818D01*
X78368Y-53856D01*
X78331Y-53893D01*
X78293Y-53968D01*
X78293Y-54081D01*
X78331Y-54156D01*
X78368Y-54193D01*
X78443Y-54231D01*
X78743Y-54231D01*
G54D12*
X77146Y-56103D03*
G54D13*
X77853Y-55396D03*
G54D12*
X81353Y-56103D03*
G54D13*
X80646Y-55396D03*
G54D12*
X77853Y-59103D03*
G54D13*
X77146Y-58396D03*
G54D12*
X80646Y-59103D03*
G54D13*
X81353Y-58396D03*
G54D14*
X79250Y-59250D03*
G54D15*
X79250Y-58250D03*
X79250Y-57250D03*
X79250Y-56250D03*
X79250Y-55250D03*
G54D16*
X77853Y-59103D02*
X76853Y-59103D01*
X76500Y-56750D02*
X77146Y-56103D01*
X76500Y-58750D02*
X76500Y-56750D01*
X76853Y-59103D02*
X76500Y-58750D01*
X80646Y-59103D02*
X81646Y-59103D01*
X82000Y-56750D02*
X81353Y-56103D01*
X82000Y-58750D02*
X82000Y-56750D01*
X81646Y-59103D02*
X82000Y-58750D01*
X79250Y-59250D02*
X80500Y-59250D01*
X80500Y-59250D02*
X80646Y-59103D01*
X79250Y-59250D02*
X78000Y-59250D01*
X78000Y-59250D02*
X77853Y-59103D01*
X80646Y-55396D02*
X80603Y-55396D01*
X79750Y-56250D02*
X79250Y-56250D01*
X80603Y-55396D02*
X79750Y-56250D01*
X77853Y-55396D02*
X79103Y-55396D01*
X79103Y-55396D02*
X79250Y-55250D01*
X79250Y-57250D02*
X78292Y-57250D01*
X78292Y-57250D02*
X77146Y-58396D01*
X79250Y-58250D02*
X81207Y-58250D01*
X81207Y-58250D02*
X81353Y-58396D01*
M02*
