M48
;DRILL file {Pcbnew (2013-mar-13)-testing} date mar 04 jun 2013 23:39:34 CEST
;FORMAT={-:-/ absolute / inch / decimal}
FMAT,2
INCH,TZ
T1C0.032
T2C0.040
T3C0.060
%
G90
G05
M72
T1
X9.6Y-5.
X9.6Y-5.3
X9.7Y-4.45
X9.7Y-4.65
X9.7Y-5.
X9.7Y-5.3
X9.8Y-5.
X9.8Y-5.3
X9.85Y-4.85
X9.9Y-5.
X9.9Y-5.3
X10.Y-5.
X10.Y-5.3
X10.05Y-4.6
X10.05Y-4.7
X10.1Y-5.
X10.1Y-5.3
X10.2Y-5.
X10.2Y-5.3
X10.25Y-4.6
X10.25Y-4.7
X10.25Y-4.85
X10.35Y-5.05
X10.35Y-5.25
X10.4Y-4.65
X10.5Y-4.75
X10.5Y-5.05
X10.5Y-5.15
X10.5Y-5.35
X10.65Y-4.95
X10.65Y-5.25
X10.7Y-4.65
X10.75Y-4.75
X10.75Y-4.95
X10.75Y-5.25
X10.85Y-4.95
X10.85Y-5.25
X10.95Y-4.95
X10.95Y-5.25
X11.05Y-4.75
X11.1Y-4.9
X11.1Y-5.2
X11.1Y-5.35
X11.35Y-5.025
X11.35Y-5.175
X11.4Y-5.35
T2
X9.35Y-4.8
X9.35Y-4.9
X9.35Y-5.
X9.35Y-5.1
X9.35Y-5.2
X11.35Y-4.7
X11.35Y-4.8
T3
X10.9Y-4.5
X11.1Y-4.5
T0
M30
