G04 (created by PCBNEW (2013-mar-13)-testing) date mar 18 jun 2013 10:26:54 CEST*
%MOIN*%
G04 Gerber Fmt 3.4, Leading zero omitted, Abs format*
%FSLAX34Y34*%
G01*
G70*
G90*
G04 APERTURE LIST*
%ADD10C,0.003937*%
%ADD11C,0.019685*%
%ADD12C,0.015748*%
%ADD13O,0.059055X0.078740*%
%ADD14O,0.059055X0.098425*%
%ADD15R,0.098425X0.098425*%
%ADD16C,0.098425*%
%ADD17O,0.060000X0.100000*%
%ADD18C,0.118110*%
%ADD19R,0.055000X0.055000*%
%ADD20C,0.055000*%
%ADD21C,0.078700*%
%ADD22O,0.070500X0.141000*%
%ADD23C,0.060000*%
%ADD24R,0.100000X0.100000*%
%ADD25C,0.100000*%
%ADD26C,0.065000*%
%ADD27R,0.060000X0.060000*%
%ADD28R,0.065000X0.065000*%
%ADD29C,0.059055*%
%ADD30C,0.059055*%
%ADD31C,0.031496*%
%ADD32C,0.039370*%
G04 APERTURE END LIST*
G54D10*
G54D11*
X51031Y-30175D02*
X51068Y-30137D01*
X51106Y-30025D01*
X51106Y-29950D01*
X51068Y-29837D01*
X50993Y-29762D01*
X50918Y-29725D01*
X50768Y-29687D01*
X50656Y-29687D01*
X50506Y-29725D01*
X50431Y-29762D01*
X50356Y-29837D01*
X50318Y-29950D01*
X50318Y-30025D01*
X50356Y-30137D01*
X50393Y-30175D01*
X50356Y-30925D02*
X50318Y-30850D01*
X50318Y-30737D01*
X50356Y-30625D01*
X50431Y-30550D01*
X50506Y-30512D01*
X50656Y-30475D01*
X50768Y-30475D01*
X50918Y-30512D01*
X50993Y-30550D01*
X51068Y-30625D01*
X51106Y-30737D01*
X51106Y-30812D01*
X51068Y-30925D01*
X51031Y-30962D01*
X50768Y-30962D01*
X50768Y-30812D01*
X51068Y-31262D02*
X51106Y-31375D01*
X51106Y-31562D01*
X51068Y-31637D01*
X51031Y-31675D01*
X50956Y-31712D01*
X50881Y-31712D01*
X50806Y-31675D01*
X50768Y-31637D01*
X50731Y-31562D01*
X50693Y-31412D01*
X50656Y-31337D01*
X50618Y-31300D01*
X50543Y-31262D01*
X50468Y-31262D01*
X50393Y-31300D01*
X50356Y-31337D01*
X50318Y-31412D01*
X50318Y-31600D01*
X50356Y-31712D01*
X50393Y-32612D02*
X50356Y-32649D01*
X50318Y-32724D01*
X50318Y-32912D01*
X50356Y-32987D01*
X50393Y-33024D01*
X50468Y-33062D01*
X50543Y-33062D01*
X50656Y-33024D01*
X51106Y-32574D01*
X51106Y-33062D01*
X50318Y-33549D02*
X50318Y-33624D01*
X50356Y-33699D01*
X50393Y-33737D01*
X50468Y-33774D01*
X50618Y-33812D01*
X50806Y-33812D01*
X50956Y-33774D01*
X51031Y-33737D01*
X51068Y-33699D01*
X51106Y-33624D01*
X51106Y-33549D01*
X51068Y-33474D01*
X51031Y-33437D01*
X50956Y-33399D01*
X50806Y-33362D01*
X50618Y-33362D01*
X50468Y-33399D01*
X50393Y-33437D01*
X50356Y-33474D01*
X50318Y-33549D01*
X51106Y-34562D02*
X51106Y-34112D01*
X51106Y-34337D02*
X50318Y-34337D01*
X50431Y-34262D01*
X50506Y-34187D01*
X50543Y-34112D01*
X50318Y-34824D02*
X50318Y-35312D01*
X50618Y-35049D01*
X50618Y-35162D01*
X50656Y-35237D01*
X50693Y-35274D01*
X50768Y-35312D01*
X50956Y-35312D01*
X51031Y-35274D01*
X51068Y-35237D01*
X51106Y-35162D01*
X51106Y-34937D01*
X51068Y-34862D01*
X51031Y-34824D01*
G54D12*
X75289Y-40375D02*
X75945Y-40562D01*
X75289Y-40750D01*
X74961Y-41200D02*
X74961Y-41275D01*
X75007Y-41350D01*
X75054Y-41387D01*
X75148Y-41425D01*
X75335Y-41462D01*
X75570Y-41462D01*
X75757Y-41425D01*
X75851Y-41387D01*
X75898Y-41350D01*
X75945Y-41275D01*
X75945Y-41200D01*
X75898Y-41125D01*
X75851Y-41087D01*
X75757Y-41050D01*
X75570Y-41012D01*
X75335Y-41012D01*
X75148Y-41050D01*
X75054Y-41087D01*
X75007Y-41125D01*
X74961Y-41200D01*
X75851Y-41799D02*
X75898Y-41837D01*
X75945Y-41799D01*
X75898Y-41762D01*
X75851Y-41799D01*
X75945Y-41799D01*
X75945Y-42587D02*
X75945Y-42137D01*
X75945Y-42362D02*
X74961Y-42362D01*
X75101Y-42287D01*
X75195Y-42212D01*
X75242Y-42137D01*
X73507Y-39087D02*
X73461Y-39012D01*
X73461Y-38900D01*
X73507Y-38787D01*
X73601Y-38712D01*
X73695Y-38675D01*
X73882Y-38637D01*
X74023Y-38637D01*
X74210Y-38675D01*
X74304Y-38712D01*
X74398Y-38787D01*
X74445Y-38900D01*
X74445Y-38975D01*
X74398Y-39087D01*
X74351Y-39125D01*
X74023Y-39125D01*
X74023Y-38975D01*
X74445Y-39462D02*
X73461Y-39462D01*
X74445Y-39912D01*
X73461Y-39912D01*
X73929Y-40550D02*
X73976Y-40662D01*
X74023Y-40700D01*
X74117Y-40737D01*
X74257Y-40737D01*
X74351Y-40700D01*
X74398Y-40662D01*
X74445Y-40587D01*
X74445Y-40287D01*
X73461Y-40287D01*
X73461Y-40550D01*
X73507Y-40625D01*
X73554Y-40662D01*
X73648Y-40700D01*
X73742Y-40700D01*
X73835Y-40662D01*
X73882Y-40625D01*
X73929Y-40550D01*
X73929Y-40287D01*
X74445Y-41187D02*
X74398Y-41112D01*
X74351Y-41074D01*
X74257Y-41037D01*
X73976Y-41037D01*
X73882Y-41074D01*
X73835Y-41112D01*
X73789Y-41187D01*
X73789Y-41299D01*
X73835Y-41374D01*
X73882Y-41412D01*
X73976Y-41449D01*
X74257Y-41449D01*
X74351Y-41412D01*
X74398Y-41374D01*
X74445Y-41299D01*
X74445Y-41187D01*
X74445Y-42124D02*
X73929Y-42124D01*
X73835Y-42087D01*
X73789Y-42012D01*
X73789Y-41862D01*
X73835Y-41787D01*
X74398Y-42124D02*
X74445Y-42049D01*
X74445Y-41862D01*
X74398Y-41787D01*
X74304Y-41749D01*
X74210Y-41749D01*
X74117Y-41787D01*
X74070Y-41862D01*
X74070Y-42049D01*
X74023Y-42124D01*
X74445Y-42499D02*
X73789Y-42499D01*
X73976Y-42499D02*
X73882Y-42537D01*
X73835Y-42574D01*
X73789Y-42649D01*
X73789Y-42724D01*
X74445Y-43324D02*
X73461Y-43324D01*
X74398Y-43324D02*
X74445Y-43249D01*
X74445Y-43099D01*
X74398Y-43024D01*
X74351Y-42987D01*
X74257Y-42949D01*
X73976Y-42949D01*
X73882Y-42987D01*
X73835Y-43024D01*
X73789Y-43099D01*
X73789Y-43249D01*
X73835Y-43324D01*
G54D13*
X52212Y-40500D03*
X53000Y-40500D03*
X53787Y-40500D03*
G54D14*
X54574Y-40500D03*
X51425Y-40500D03*
G54D15*
X57500Y-38500D03*
G54D16*
X60500Y-38500D03*
G54D17*
X69000Y-28500D03*
X70000Y-28500D03*
X71000Y-28500D03*
X72000Y-28500D03*
X73000Y-28500D03*
X74000Y-28500D03*
X75000Y-28500D03*
X76000Y-28500D03*
X78000Y-47500D03*
X77000Y-47500D03*
X76000Y-47500D03*
X75000Y-47500D03*
X71000Y-47500D03*
X69000Y-47500D03*
X68000Y-47500D03*
X72000Y-47500D03*
X73000Y-47500D03*
X74000Y-47500D03*
X67000Y-47500D03*
X66000Y-47500D03*
X65000Y-47500D03*
X62000Y-47500D03*
X63000Y-47500D03*
X64000Y-47500D03*
X60000Y-47500D03*
X59000Y-47500D03*
X58000Y-47500D03*
X56000Y-47500D03*
X55000Y-47500D03*
X65000Y-28500D03*
X64000Y-28500D03*
X63000Y-28500D03*
X62000Y-28500D03*
X61000Y-28500D03*
X60000Y-28500D03*
X58400Y-28500D03*
X57400Y-28500D03*
X56400Y-28500D03*
X55400Y-28500D03*
X54400Y-28500D03*
X53400Y-28500D03*
X52400Y-28500D03*
X51400Y-28500D03*
X57000Y-47500D03*
G54D18*
X79000Y-28500D03*
X79000Y-45500D03*
G54D19*
X55500Y-37500D03*
G54D20*
X55500Y-38500D03*
G54D21*
X57600Y-45300D03*
X57600Y-43100D03*
G54D22*
X58850Y-40150D03*
X58200Y-41700D03*
X57500Y-40150D03*
X56800Y-41700D03*
X56150Y-40150D03*
G54D23*
X57500Y-35000D03*
X55500Y-35000D03*
X54500Y-35000D03*
X56500Y-35000D03*
G54D24*
X52500Y-38000D03*
G54D25*
X52500Y-36000D03*
G54D26*
X58939Y-36560D03*
X61060Y-34439D03*
X57500Y-30000D03*
X57500Y-33000D03*
X56500Y-30000D03*
X56500Y-33000D03*
X55500Y-30000D03*
X55500Y-33000D03*
X60060Y-33939D03*
X57939Y-36060D03*
G54D27*
X66000Y-39500D03*
G54D23*
X66000Y-38500D03*
X66000Y-37500D03*
X66000Y-36500D03*
X66000Y-35500D03*
G54D26*
X65000Y-35500D03*
X62000Y-35500D03*
X65000Y-36500D03*
X62000Y-36500D03*
X65000Y-37500D03*
X62000Y-37500D03*
X65000Y-38500D03*
X62000Y-38500D03*
G54D27*
X67750Y-46000D03*
G54D23*
X67750Y-45000D03*
X67750Y-44000D03*
G54D27*
X68750Y-46000D03*
G54D23*
X68750Y-45000D03*
X68750Y-44000D03*
G54D27*
X59000Y-30000D03*
G54D23*
X59000Y-31000D03*
G54D27*
X60500Y-30000D03*
G54D23*
X60500Y-31000D03*
X60500Y-32000D03*
G54D27*
X61500Y-30000D03*
G54D23*
X61500Y-31000D03*
X61500Y-32000D03*
G54D27*
X62500Y-30000D03*
G54D23*
X62500Y-31000D03*
X62500Y-32000D03*
G54D27*
X63500Y-30000D03*
G54D23*
X63500Y-31000D03*
X63500Y-32000D03*
G54D27*
X64500Y-30000D03*
G54D23*
X64500Y-31000D03*
X64500Y-32000D03*
G54D27*
X65500Y-30000D03*
G54D23*
X65500Y-31000D03*
X65500Y-32000D03*
G54D27*
X69750Y-46000D03*
G54D23*
X69750Y-45000D03*
X69750Y-44000D03*
G54D27*
X70750Y-46000D03*
G54D23*
X70750Y-45000D03*
X70750Y-44000D03*
G54D27*
X77750Y-30250D03*
G54D23*
X76750Y-30250D03*
X75750Y-30250D03*
X74750Y-30250D03*
G54D26*
X77750Y-32500D03*
X74750Y-32500D03*
X77750Y-31500D03*
X74750Y-31500D03*
G54D27*
X77750Y-33750D03*
G54D23*
X76750Y-33750D03*
X75750Y-33750D03*
X74750Y-33750D03*
G54D27*
X76750Y-45250D03*
G54D23*
X75750Y-45250D03*
X74750Y-45250D03*
X73750Y-45250D03*
G54D26*
X72500Y-43250D03*
X72500Y-46250D03*
G54D27*
X68250Y-30000D03*
G54D23*
X68250Y-31000D03*
X68250Y-32000D03*
G54D27*
X69250Y-30000D03*
G54D23*
X69250Y-31000D03*
X69250Y-32000D03*
G54D27*
X70250Y-30000D03*
G54D23*
X70250Y-31000D03*
X70250Y-32000D03*
G54D27*
X71250Y-30000D03*
G54D23*
X71250Y-31000D03*
X71250Y-32000D03*
G54D27*
X72250Y-30000D03*
G54D23*
X72250Y-31000D03*
X72250Y-32000D03*
G54D27*
X73250Y-30000D03*
G54D23*
X73250Y-31000D03*
X73250Y-32000D03*
G54D27*
X77750Y-36000D03*
G54D23*
X76750Y-36000D03*
G54D27*
X69750Y-34250D03*
G54D23*
X70750Y-34250D03*
G54D27*
X70000Y-42000D03*
G54D23*
X69000Y-42000D03*
G54D28*
X62000Y-42000D03*
G54D26*
X62000Y-43000D03*
G54D14*
X51500Y-43250D03*
X53500Y-43250D03*
X51500Y-46250D03*
X53500Y-46250D03*
X52000Y-30500D03*
X54000Y-30500D03*
X52000Y-33500D03*
X54000Y-33500D03*
G54D29*
X64000Y-41000D03*
X61000Y-46000D03*
X56000Y-46000D03*
X60250Y-44000D03*
G54D30*
X62000Y-42000D02*
X61500Y-41500D01*
X70000Y-42000D02*
X70750Y-42000D01*
X69750Y-44000D02*
X69750Y-43750D01*
X70250Y-36500D02*
X68000Y-34250D01*
X70250Y-40250D02*
X70250Y-36500D01*
X70750Y-40750D02*
X70250Y-40250D01*
X70750Y-42750D02*
X70750Y-42000D01*
X70750Y-42000D02*
X70750Y-40750D01*
X69750Y-43750D02*
X70750Y-42750D01*
X69750Y-34250D02*
X68000Y-34250D01*
X77750Y-33750D02*
X77750Y-36000D01*
X72250Y-31000D02*
X73250Y-31000D01*
X71250Y-31000D02*
X72250Y-31000D01*
X70250Y-31000D02*
X71250Y-31000D01*
X69250Y-31000D02*
X70250Y-31000D01*
X66625Y-32875D02*
X66625Y-31000D01*
X66750Y-31250D02*
X66750Y-31000D01*
X66750Y-31125D02*
X66750Y-31250D01*
X66625Y-31000D02*
X66750Y-31125D01*
X68250Y-31000D02*
X69250Y-31000D01*
X68250Y-31000D02*
X66750Y-31000D01*
X66750Y-31000D02*
X66500Y-31000D01*
X66500Y-31000D02*
X65500Y-31000D01*
G54D31*
X76750Y-45250D02*
X76750Y-44750D01*
X72250Y-44250D02*
X72000Y-44000D01*
X76250Y-44250D02*
X72250Y-44250D01*
X76750Y-44750D02*
X76250Y-44250D01*
X72500Y-43250D02*
X72500Y-43500D01*
X72000Y-44000D02*
X70750Y-44000D01*
X72500Y-43500D02*
X72000Y-44000D01*
G54D30*
X77750Y-32500D02*
X77750Y-33750D01*
X77750Y-31500D02*
X77750Y-32500D01*
X77750Y-30250D02*
X77750Y-31500D01*
X79000Y-28500D02*
X78250Y-28500D01*
X77750Y-29000D02*
X77750Y-30250D01*
X78250Y-28500D02*
X77750Y-29000D01*
X66625Y-32875D02*
X68000Y-34250D01*
X69750Y-44000D02*
X70750Y-44000D01*
X68750Y-44000D02*
X69750Y-44000D01*
X67750Y-44000D02*
X68750Y-44000D01*
X62000Y-35500D02*
X60000Y-35500D01*
X66500Y-33000D02*
X66625Y-32875D01*
X59500Y-33000D02*
X66500Y-33000D01*
X59000Y-33500D02*
X59500Y-33000D01*
X62000Y-36500D02*
X62000Y-35500D01*
X62000Y-37500D02*
X62000Y-36500D01*
X62000Y-38500D02*
X62000Y-37500D01*
X65500Y-31000D02*
X64500Y-31000D01*
X64500Y-31000D02*
X63500Y-31000D01*
X63500Y-31000D02*
X62500Y-31000D01*
X62500Y-31000D02*
X61500Y-31000D01*
X60500Y-31000D02*
X61500Y-31000D01*
X62000Y-38500D02*
X62000Y-39000D01*
X62000Y-39000D02*
X62000Y-41000D01*
X62000Y-41000D02*
X61500Y-41500D01*
X61500Y-41500D02*
X61000Y-42000D01*
X58500Y-44500D02*
X57000Y-44500D01*
X61000Y-42000D02*
X58500Y-44500D01*
X57600Y-45300D02*
X57600Y-45100D01*
X56000Y-42500D02*
X56800Y-41700D01*
X56000Y-43500D02*
X56000Y-42500D01*
X57600Y-45100D02*
X57000Y-44500D01*
X57000Y-44500D02*
X56000Y-43500D01*
X57000Y-47500D02*
X57000Y-45900D01*
X57000Y-45900D02*
X57600Y-45300D01*
X59000Y-34500D02*
X59000Y-33500D01*
X60000Y-35500D02*
X59000Y-34500D01*
X53250Y-39249D02*
X53250Y-39999D01*
X53250Y-39249D02*
X54000Y-38500D01*
X55500Y-37500D02*
X55000Y-37500D01*
X55000Y-37500D02*
X54000Y-38500D01*
G54D32*
X53000Y-40250D02*
X53250Y-40000D01*
X53000Y-40250D02*
X53000Y-40500D01*
G54D30*
X53250Y-39999D02*
X53250Y-40000D01*
G54D31*
X58939Y-36560D02*
X58939Y-37560D01*
X58939Y-37560D02*
X58850Y-37650D01*
G54D30*
X55500Y-37500D02*
X58700Y-37500D01*
X58700Y-37500D02*
X58850Y-37650D01*
X58850Y-40150D02*
X58850Y-37850D01*
X58850Y-37850D02*
X58850Y-37650D01*
G54D31*
X60060Y-33939D02*
X62189Y-33939D01*
X62000Y-44500D02*
X62000Y-47500D01*
X63000Y-43500D02*
X62000Y-44500D01*
X63000Y-34750D02*
X63000Y-43500D01*
X62189Y-33939D02*
X63000Y-34750D01*
X60060Y-33939D02*
X60560Y-33939D01*
X60560Y-33939D02*
X61060Y-34439D01*
X54400Y-29600D02*
X54400Y-28500D01*
X54000Y-30000D02*
X54400Y-29600D01*
X54000Y-30500D02*
X54000Y-30000D01*
G54D32*
X58400Y-28500D02*
X58400Y-29400D01*
X58400Y-29400D02*
X59000Y-30000D01*
G54D31*
X68250Y-30000D02*
X68250Y-29250D01*
X68250Y-29250D02*
X69000Y-28500D01*
X69250Y-30000D02*
X69250Y-29750D01*
X70000Y-29000D02*
X70000Y-28500D01*
X69250Y-29750D02*
X70000Y-29000D01*
X70250Y-30000D02*
X70250Y-29750D01*
X71000Y-29000D02*
X71000Y-28500D01*
X70250Y-29750D02*
X71000Y-29000D01*
X71250Y-30000D02*
X71250Y-29750D01*
X72000Y-29000D02*
X72000Y-28500D01*
X71250Y-29750D02*
X72000Y-29000D01*
X72250Y-30000D02*
X72250Y-29750D01*
X73000Y-29000D02*
X73000Y-28500D01*
X72250Y-29750D02*
X73000Y-29000D01*
X73250Y-30000D02*
X73250Y-29750D01*
X74000Y-29000D02*
X74000Y-28500D01*
X73250Y-29750D02*
X74000Y-29000D01*
X72500Y-46250D02*
X72000Y-46750D01*
X72000Y-46750D02*
X72000Y-47500D01*
X75750Y-45250D02*
X75750Y-46000D01*
X75500Y-46250D02*
X72500Y-46250D01*
X75750Y-46000D02*
X75500Y-46250D01*
G54D30*
X62000Y-43000D02*
X61000Y-44000D01*
X70750Y-34250D02*
X72500Y-34250D01*
X69000Y-42000D02*
X68750Y-41750D01*
X76000Y-36000D02*
X76750Y-36000D01*
X76000Y-35000D02*
X76000Y-36000D01*
X76000Y-36000D02*
X76000Y-36750D01*
X78250Y-45500D02*
X79000Y-45500D01*
X78000Y-45250D02*
X78250Y-45500D01*
X78000Y-44500D02*
X78000Y-45250D01*
X77500Y-44000D02*
X78000Y-44500D01*
X77500Y-38250D02*
X77500Y-44000D01*
X76000Y-36750D02*
X77500Y-38250D01*
X76750Y-33750D02*
X76750Y-34250D01*
X73250Y-35000D02*
X72500Y-34250D01*
X72500Y-34250D02*
X70250Y-32000D01*
X76000Y-35000D02*
X73250Y-35000D01*
X76750Y-34250D02*
X76000Y-35000D01*
X72250Y-32000D02*
X73250Y-32000D01*
X71250Y-32000D02*
X72250Y-32000D01*
X70250Y-32000D02*
X71250Y-32000D01*
X69250Y-32000D02*
X70250Y-32000D01*
X68250Y-32000D02*
X69250Y-32000D01*
G54D31*
X73750Y-45250D02*
X72250Y-45250D01*
X72000Y-45000D02*
X70750Y-45000D01*
X72250Y-45250D02*
X72000Y-45000D01*
X51500Y-43250D02*
X51500Y-42000D01*
G54D30*
X76750Y-30250D02*
X76750Y-33750D01*
X69750Y-45000D02*
X70750Y-45000D01*
X68750Y-45000D02*
X69750Y-45000D01*
X67750Y-45000D02*
X68750Y-45000D01*
X67750Y-42750D02*
X66750Y-43750D01*
X67000Y-34500D02*
X69250Y-36750D01*
X69250Y-36750D02*
X69250Y-41250D01*
X69250Y-41250D02*
X68750Y-41750D01*
X68750Y-41750D02*
X67750Y-42750D01*
X64500Y-39500D02*
X64000Y-39000D01*
X64000Y-39000D02*
X64000Y-35000D01*
X64000Y-35000D02*
X64500Y-34500D01*
X64500Y-34500D02*
X67000Y-34500D01*
X67250Y-45000D02*
X67750Y-45000D01*
X66750Y-44500D02*
X67250Y-45000D01*
X66750Y-43750D02*
X66750Y-44500D01*
G54D31*
X57939Y-36060D02*
X56560Y-36060D01*
X56560Y-36060D02*
X56500Y-36000D01*
G54D30*
X60500Y-32000D02*
X59000Y-32000D01*
X59000Y-32000D02*
X57000Y-32000D01*
X64500Y-32000D02*
X65500Y-32000D01*
X63500Y-32000D02*
X64500Y-32000D01*
X62500Y-32000D02*
X63500Y-32000D01*
X61500Y-32000D02*
X62500Y-32000D01*
X60500Y-32000D02*
X61500Y-32000D01*
X59000Y-31000D02*
X58000Y-31000D01*
X58000Y-31000D02*
X57000Y-32000D01*
X57000Y-32000D02*
X52500Y-32000D01*
X59750Y-45250D02*
X60250Y-45250D01*
X64500Y-40500D02*
X64500Y-39500D01*
X64000Y-41000D02*
X64500Y-40500D01*
X60250Y-45250D02*
X61000Y-46000D01*
X61000Y-44000D02*
X60250Y-44000D01*
X54400Y-43400D02*
X54400Y-41900D01*
X56000Y-45000D02*
X54400Y-43400D01*
X56000Y-46000D02*
X56000Y-45000D01*
X52000Y-33500D02*
X52500Y-33500D01*
X52000Y-30500D02*
X52000Y-31000D01*
X52500Y-31500D02*
X52500Y-32000D01*
X52500Y-32000D02*
X52500Y-33500D01*
X52500Y-33500D02*
X52500Y-36000D01*
X52000Y-31000D02*
X52500Y-31500D01*
X52400Y-28500D02*
X52400Y-30100D01*
X52400Y-30100D02*
X52000Y-30500D01*
X65000Y-40000D02*
X64500Y-39500D01*
X65000Y-40000D02*
X65500Y-40000D01*
X65500Y-40000D02*
X66000Y-39500D01*
X61000Y-44000D02*
X60500Y-44500D01*
X60500Y-44500D02*
X59750Y-45250D01*
X59750Y-45250D02*
X59500Y-45500D01*
X58500Y-46500D02*
X59500Y-45500D01*
X56500Y-35000D02*
X56500Y-36000D01*
X52500Y-36000D02*
X56500Y-36000D01*
X52500Y-36000D02*
X51500Y-36000D01*
X51500Y-36000D02*
X50500Y-37000D01*
X50500Y-37000D02*
X50500Y-41000D01*
X50500Y-41000D02*
X51500Y-42000D01*
X51500Y-42000D02*
X54300Y-42000D01*
X54300Y-42000D02*
X54400Y-41900D01*
X54400Y-41900D02*
X56150Y-40150D01*
X55500Y-38500D02*
X57500Y-38500D01*
X58500Y-46500D02*
X58500Y-47500D01*
X57500Y-40150D02*
X57500Y-39000D01*
X57500Y-39000D02*
X57500Y-38500D01*
X58000Y-47500D02*
X58500Y-47500D01*
X58500Y-47500D02*
X59000Y-47500D01*
X57500Y-40150D02*
X57000Y-40150D01*
X57000Y-40150D02*
X56150Y-40150D01*
G54D31*
X74750Y-32500D02*
X75750Y-32500D01*
X75750Y-31750D02*
X75750Y-32500D01*
X75750Y-32500D02*
X75750Y-33750D01*
X75750Y-31750D02*
X75750Y-30250D01*
X76000Y-28500D02*
X76000Y-29500D01*
X75750Y-29750D02*
X75750Y-30250D01*
X76000Y-29500D02*
X75750Y-29750D01*
X74750Y-31500D02*
X74000Y-32250D01*
X74000Y-33000D02*
X74750Y-33750D01*
X74000Y-32250D02*
X74000Y-33000D01*
X74750Y-30250D02*
X74750Y-31500D01*
X75000Y-28500D02*
X75000Y-30000D01*
X75000Y-30000D02*
X74750Y-30250D01*
X63000Y-47500D02*
X63000Y-44250D01*
X66500Y-38500D02*
X66000Y-38500D01*
X67000Y-39000D02*
X66500Y-38500D01*
X67000Y-40250D02*
X67000Y-39000D01*
X63000Y-44250D02*
X67000Y-40250D01*
G54D30*
X65000Y-38500D02*
X66000Y-38500D01*
G54D31*
X66000Y-37500D02*
X66500Y-37500D01*
X64000Y-44000D02*
X64000Y-47500D01*
X67500Y-40500D02*
X64000Y-44000D01*
X67500Y-38500D02*
X67500Y-40500D01*
X66500Y-37500D02*
X67500Y-38500D01*
G54D30*
X65000Y-37500D02*
X66000Y-37500D01*
G54D31*
X65000Y-47500D02*
X65000Y-43750D01*
X66500Y-36500D02*
X66000Y-36500D01*
X68000Y-38000D02*
X66500Y-36500D01*
X68000Y-40750D02*
X68000Y-38000D01*
X65000Y-43750D02*
X68000Y-40750D01*
G54D30*
X65000Y-36500D02*
X66000Y-36500D01*
G54D31*
X66000Y-35500D02*
X66500Y-35500D01*
X66000Y-43500D02*
X66000Y-47500D01*
X68500Y-41000D02*
X66000Y-43500D01*
X68500Y-37500D02*
X68500Y-41000D01*
X66500Y-35500D02*
X68500Y-37500D01*
G54D30*
X65000Y-35500D02*
X66000Y-35500D01*
G54D31*
X55400Y-28500D02*
X55400Y-29900D01*
X55400Y-29900D02*
X55500Y-30000D01*
X56400Y-28500D02*
X56400Y-29900D01*
X56400Y-29900D02*
X56500Y-30000D01*
X57400Y-28500D02*
X57400Y-29900D01*
X57400Y-29900D02*
X57500Y-30000D01*
G54D32*
X55500Y-33000D02*
X55500Y-33500D01*
X54500Y-34500D02*
X54500Y-35000D01*
X55500Y-33500D02*
X54500Y-34500D01*
X57500Y-33000D02*
X57500Y-35000D01*
G54D30*
X52212Y-40500D02*
X52212Y-38287D01*
X52212Y-38287D02*
X52500Y-38000D01*
X60500Y-38500D02*
X60500Y-41000D01*
X59800Y-41700D02*
X58200Y-41700D01*
X60500Y-41000D02*
X59800Y-41700D01*
X58200Y-41700D02*
X58200Y-42500D01*
X58200Y-42500D02*
X57600Y-43100D01*
G54D32*
X56500Y-33000D02*
X56500Y-33500D01*
X55500Y-34500D02*
X55500Y-35000D01*
X56500Y-33500D02*
X55500Y-34500D01*
G54D31*
X53500Y-46250D02*
X53750Y-46250D01*
X53750Y-46250D02*
X55000Y-47500D01*
X60000Y-28500D02*
X60000Y-29500D01*
X60000Y-29500D02*
X60500Y-30000D01*
X61000Y-28500D02*
X61000Y-29000D01*
X61500Y-29500D02*
X61500Y-30000D01*
X61000Y-29000D02*
X61500Y-29500D01*
X62000Y-28500D02*
X62000Y-29000D01*
X62500Y-29500D02*
X62500Y-30000D01*
X62000Y-29000D02*
X62500Y-29500D01*
X63000Y-28500D02*
X63000Y-29000D01*
X63500Y-29500D02*
X63500Y-30000D01*
X63000Y-29000D02*
X63500Y-29500D01*
X64000Y-28500D02*
X64000Y-29000D01*
X64500Y-29500D02*
X64500Y-30000D01*
X64000Y-29000D02*
X64500Y-29500D01*
X65000Y-28500D02*
X65000Y-29000D01*
X65500Y-29500D02*
X65500Y-30000D01*
X65000Y-29000D02*
X65500Y-29500D01*
X67750Y-46000D02*
X67250Y-46000D01*
X67000Y-46250D02*
X67000Y-47500D01*
X67250Y-46000D02*
X67000Y-46250D01*
X68750Y-46000D02*
X68750Y-46250D01*
X68000Y-47000D02*
X68000Y-47500D01*
X68750Y-46250D02*
X68000Y-47000D01*
X69750Y-46000D02*
X69750Y-46750D01*
X69750Y-46750D02*
X69000Y-47500D01*
X70750Y-46000D02*
X70750Y-47250D01*
X70750Y-47250D02*
X71000Y-47500D01*
M02*
