solid OpenSCAD_Model
  facet normal -1 0 0
    outer loop
      vertex -12 -2 -3
      vertex -12 -2 3
      vertex -12 2 -3
    endloop
  endfacet
  facet normal -1 0 0
    outer loop
      vertex -12 2 -3
      vertex -12 -2 3
      vertex -12 2 3
    endloop
  endfacet
  facet normal -0.997452 -0.0713387 0
    outer loop
      vertex -12 -2 -3
      vertex -11.9796 -2.28463 -3
      vertex -12 -2 3
    endloop
  endfacet
  facet normal -0.997452 -0.0713387 0
    outer loop
      vertex -12 -2 3
      vertex -11.9796 -2.28463 -3
      vertex -11.9796 -2.28463 3
    endloop
  endfacet
  facet normal 0 0 -1
    outer loop
      vertex -12 -2 -3
      vertex -12 2 -3
      vertex -11.9796 -2.28463 -3
    endloop
  endfacet
  facet normal 0 0 -1
    outer loop
      vertex -11.9796 -2.28463 -3
      vertex -12 2 -3
      vertex -11.9796 2.28463 -3
    endloop
  endfacet
  facet normal 0 0 -1
    outer loop
      vertex -11.9796 -2.28463 -3
      vertex -11.9796 2.28463 -3
      vertex -11.919 2.56346 -3
    endloop
  endfacet
  facet normal 0 0 -1
    outer loop
      vertex -11.9796 -2.28463 -3
      vertex -11.919 2.56346 -3
      vertex -11.8193 2.83083 -3
    endloop
  endfacet
  facet normal 0 0 -1
    outer loop
      vertex -11.9796 -2.28463 -3
      vertex -11.8193 2.83083 -3
      vertex -11.6825 3.08128 -3
    endloop
  endfacet
  facet normal 0 0 -1
    outer loop
      vertex -11.9796 -2.28463 -3
      vertex -11.6825 3.08128 -3
      vertex -11.5115 3.30972 -3
    endloop
  endfacet
  facet normal 0 0 -1
    outer loop
      vertex -11.9796 -2.28463 -3
      vertex -11.5115 3.30972 -3
      vertex -11.3097 3.5115 -3
    endloop
  endfacet
  facet normal 0 0 -1
    outer loop
      vertex -11.9796 -2.28463 -3
      vertex -11.3097 3.5115 -3
      vertex -11.0813 3.68251 -3
    endloop
  endfacet
  facet normal 0 0 -1
    outer loop
      vertex -11.9796 -2.28463 -3
      vertex -11.0813 3.68251 -3
      vertex -10.8308 3.81926 -3
    endloop
  endfacet
  facet normal 0 0 -1
    outer loop
      vertex -11.9796 -2.28463 -3
      vertex -10.8308 3.81926 -3
      vertex -10.5635 3.91899 -3
    endloop
  endfacet
  facet normal 0 0 -1
    outer loop
      vertex -11.9796 -2.28463 -3
      vertex -10.5635 3.91899 -3
      vertex -10.2846 3.97964 -3
    endloop
  endfacet
  facet normal 0 0 -1
    outer loop
      vertex -11.9796 -2.28463 -3
      vertex -10.2846 3.97964 -3
      vertex -10 4 -3
    endloop
  endfacet
  facet normal 0 0 -1
    outer loop
      vertex -6.66174 1.48629 -3
      vertex -10 4 -3
      vertex 10 4 -3
    endloop
  endfacet
  facet normal 0 0 -1
    outer loop
      vertex -6.17291 -0.813473 -3
      vertex 11.0813 3.68251 -3
      vertex 11.3097 3.5115 -3
    endloop
  endfacet
  facet normal 0 0 -1
    outer loop
      vertex 7.79094 1.98904 -3
      vertex 11.6825 3.08128 -3
      vertex 11.8193 2.83083 -3
    endloop
  endfacet
  facet normal 0 0 -1
    outer loop
      vertex 8.61803 1.90211 -3
      vertex 11.8193 2.83083 -3
      vertex 11.919 2.56346 -3
    endloop
  endfacet
  facet normal 0 0 -1
    outer loop
      vertex 9 1.73205 -3
      vertex 11.919 2.56346 -3
      vertex 11.9796 2.28463 -3
    endloop
  endfacet
  facet normal 0 0 -1
    outer loop
      vertex 9.61803 -1.17557 -3
      vertex 12 2 -3
      vertex 12 -2 -3
    endloop
  endfacet
  facet normal 0 0 -1
    outer loop
      vertex -11.9796 -2.28463 -3
      vertex 12 -2 -3
      vertex 11.9796 -2.28463 -3
    endloop
  endfacet
  facet normal 0 0 -1
    outer loop
      vertex -11.9796 -2.28463 -3
      vertex 11.9796 -2.28463 -3
      vertex 11.919 -2.56346 -3
    endloop
  endfacet
  facet normal 0 0 -1
    outer loop
      vertex -11.9796 -2.28463 -3
      vertex 11.919 -2.56346 -3
      vertex 11.8193 -2.83083 -3
    endloop
  endfacet
  facet normal 0 0 -1
    outer loop
      vertex -11.9796 -2.28463 -3
      vertex 11.8193 -2.83083 -3
      vertex 11.6825 -3.08128 -3
    endloop
  endfacet
  facet normal 0 0 -1
    outer loop
      vertex -11.9796 -2.28463 -3
      vertex 11.6825 -3.08128 -3
      vertex 11.5115 -3.30972 -3
    endloop
  endfacet
  facet normal 0 0 -1
    outer loop
      vertex -11.9796 -2.28463 -3
      vertex 11.5115 -3.30972 -3
      vertex 11.3097 -3.5115 -3
    endloop
  endfacet
  facet normal 0 0 -1
    outer loop
      vertex -11.9796 -2.28463 -3
      vertex 11.3097 -3.5115 -3
      vertex 11.0813 -3.68251 -3
    endloop
  endfacet
  facet normal 0 0 -1
    outer loop
      vertex -11.9796 -2.28463 -3
      vertex 11.0813 -3.68251 -3
      vertex 10.8308 -3.81926 -3
    endloop
  endfacet
  facet normal 0 0 -1
    outer loop
      vertex -11.9796 -2.28463 -3
      vertex 10.8308 -3.81926 -3
      vertex 10.5635 -3.91899 -3
    endloop
  endfacet
  facet normal 0 0 -1
    outer loop
      vertex -11.9796 -2.28463 -3
      vertex 10.5635 -3.91899 -3
      vertex 10.2846 -3.97964 -3
    endloop
  endfacet
  facet normal 0 0 -1
    outer loop
      vertex -11.9796 -2.28463 -3
      vertex 10.2846 -3.97964 -3
      vertex 10 -4 -3
    endloop
  endfacet
  facet normal 0 0 -1
    outer loop
      vertex -11.9796 -2.28463 -3
      vertex 10 -4 -3
      vertex -10 -4 -3
    endloop
  endfacet
  facet normal 0 0 -1
    outer loop
      vertex -11.9796 -2.28463 -3
      vertex -10 -4 -3
      vertex -10.2846 -3.97964 -3
    endloop
  endfacet
  facet normal 0 0 -1
    outer loop
      vertex -11.9796 -2.28463 -3
      vertex -10.2846 -3.97964 -3
      vertex -10.5635 -3.91899 -3
    endloop
  endfacet
  facet normal 0 0 -1
    outer loop
      vertex -11.9796 -2.28463 -3
      vertex -10.5635 -3.91899 -3
      vertex -10.8308 -3.81926 -3
    endloop
  endfacet
  facet normal 0 0 -1
    outer loop
      vertex -11.9796 -2.28463 -3
      vertex -10.8308 -3.81926 -3
      vertex -11.0813 -3.68251 -3
    endloop
  endfacet
  facet normal 0 0 -1
    outer loop
      vertex -11.9796 -2.28463 -3
      vertex -11.0813 -3.68251 -3
      vertex -11.3097 -3.5115 -3
    endloop
  endfacet
  facet normal 0 0 -1
    outer loop
      vertex -11.9796 -2.28463 -3
      vertex -11.3097 -3.5115 -3
      vertex -11.5115 -3.30972 -3
    endloop
  endfacet
  facet normal 0 0 -1
    outer loop
      vertex -11.9796 -2.28463 -3
      vertex -11.5115 -3.30972 -3
      vertex -11.6825 -3.08128 -3
    endloop
  endfacet
  facet normal 0 0 -1
    outer loop
      vertex -11.9796 -2.28463 -3
      vertex -11.6825 -3.08128 -3
      vertex -11.8193 -2.83083 -3
    endloop
  endfacet
  facet normal 0 0 -1
    outer loop
      vertex -11.9796 -2.28463 -3
      vertex -11.8193 -2.83083 -3
      vertex -11.919 -2.56346 -3
    endloop
  endfacet
  facet normal 0 0 -1
    outer loop
      vertex -11.9796 -2.28463 -3
      vertex -10 4 -3
      vertex -10 -2.10942e-15 -3
    endloop
  endfacet
  facet normal 0 0 -1
    outer loop
      vertex -11.9796 -2.28463 -3
      vertex -10 -2.10942e-15 -3
      vertex -9.95629 -0.415823 -3
    endloop
  endfacet
  facet normal 0 0 -1
    outer loop
      vertex -11.9796 -2.28463 -3
      vertex -9.95629 -0.415823 -3
      vertex -9.82709 -0.813473 -3
    endloop
  endfacet
  facet normal 0 0 -1
    outer loop
      vertex -11.9796 -2.28463 -3
      vertex -9.82709 -0.813473 -3
      vertex -9.61803 -1.17557 -3
    endloop
  endfacet
  facet normal 0 0 -1
    outer loop
      vertex -11.9796 -2.28463 -3
      vertex -9.61803 -1.17557 -3
      vertex -9.33826 -1.48629 -3
    endloop
  endfacet
  facet normal 0 0 -1
    outer loop
      vertex -8.61803 -1.90211 -3
      vertex -11.9796 -2.28463 -3
      vertex -9 -1.73205 -3
    endloop
  endfacet
  facet normal 0 0 -1
    outer loop
      vertex -7.38197 -1.90211 -3
      vertex 7.79094 -1.98904 -3
      vertex -7.79094 -1.98904 -3
    endloop
  endfacet
  facet normal 0 0 -1
    outer loop
      vertex 6.38197 1.17557 -3
      vertex -6.38197 -1.17557 -3
      vertex 6.66174 1.48629 -3
    endloop
  endfacet
  facet normal 0 0 -1
    outer loop
      vertex -11.9796 -2.28463 -3
      vertex -8.61803 -1.90211 -3
      vertex -8.20906 -1.98904 -3
    endloop
  endfacet
  facet normal 0 0 -1
    outer loop
      vertex -11.9796 -2.28463 -3
      vertex -8.20906 -1.98904 -3
      vertex 12 -2 -3
    endloop
  endfacet
  facet normal 0 0 -1
    outer loop
      vertex -8.20906 -1.98904 -3
      vertex -7.79094 -1.98904 -3
      vertex 12 -2 -3
    endloop
  endfacet
  facet normal 0 0 -1
    outer loop
      vertex 9 1.73205 -3
      vertex 12 2 -3
      vertex 9.33826 1.48629 -3
    endloop
  endfacet
  facet normal 0 0 -1
    outer loop
      vertex 9 1.73205 -3
      vertex 11.9796 2.28463 -3
      vertex 12 2 -3
    endloop
  endfacet
  facet normal 0 0 -1
    outer loop
      vertex 8.61803 -1.90211 -3
      vertex 12 -2 -3
      vertex 8.20906 -1.98904 -3
    endloop
  endfacet
  facet normal 0 0 -1
    outer loop
      vertex -6 -2.10942e-15 -3
      vertex 10 4 -3
      vertex -6.04371 -0.415823 -3
    endloop
  endfacet
  facet normal 0 0 -1
    outer loop
      vertex -6.04371 0.415823 -3
      vertex 10 4 -3
      vertex -6 -2.10942e-15 -3
    endloop
  endfacet
  facet normal 0 0 -1
    outer loop
      vertex -6.17291 0.813473 -3
      vertex 10 4 -3
      vertex -6.04371 0.415823 -3
    endloop
  endfacet
  facet normal 0 0 -1
    outer loop
      vertex 7.79094 -1.98904 -3
      vertex -7.38197 -1.90211 -3
      vertex 7.38197 -1.90211 -3
    endloop
  endfacet
  facet normal 0 0 -1
    outer loop
      vertex -7.38197 1.90211 -3
      vertex -10 4 -3
      vertex -7 1.73205 -3
    endloop
  endfacet
  facet normal 0 0 -1
    outer loop
      vertex -7.79094 1.98904 -3
      vertex -10 4 -3
      vertex -7.38197 1.90211 -3
    endloop
  endfacet
  facet normal 0 0 -1
    outer loop
      vertex -6.17291 0.813473 -3
      vertex -6.38197 1.17557 -3
      vertex 10 4 -3
    endloop
  endfacet
  facet normal 0 0 -1
    outer loop
      vertex -7 1.73205 -3
      vertex -10 4 -3
      vertex -6.66174 1.48629 -3
    endloop
  endfacet
  facet normal 0 0 -1
    outer loop
      vertex -6.38197 1.17557 -3
      vertex -6.66174 1.48629 -3
      vertex 10 4 -3
    endloop
  endfacet
  facet normal 0 0 -1
    outer loop
      vertex -8.20906 1.98904 -3
      vertex -10 4 -3
      vertex -7.79094 1.98904 -3
    endloop
  endfacet
  facet normal 0 0 -1
    outer loop
      vertex -8.61803 1.90211 -3
      vertex -10 4 -3
      vertex -8.20906 1.98904 -3
    endloop
  endfacet
  facet normal 0 0 -1
    outer loop
      vertex -9 1.73205 -3
      vertex -10 4 -3
      vertex -8.61803 1.90211 -3
    endloop
  endfacet
  facet normal 0 0 -1
    outer loop
      vertex -9.33826 1.48629 -3
      vertex -10 4 -3
      vertex -9 1.73205 -3
    endloop
  endfacet
  facet normal 0 0 -1
    outer loop
      vertex -9.61803 1.17557 -3
      vertex -10 4 -3
      vertex -9.33826 1.48629 -3
    endloop
  endfacet
  facet normal 0 0 -1
    outer loop
      vertex -9.82709 0.813473 -3
      vertex -10 4 -3
      vertex -9.61803 1.17557 -3
    endloop
  endfacet
  facet normal 0 0 -1
    outer loop
      vertex -9.95629 0.415823 -3
      vertex -10 4 -3
      vertex -9.82709 0.813473 -3
    endloop
  endfacet
  facet normal 0 0 -1
    outer loop
      vertex -10 -2.10942e-15 -3
      vertex -10 4 -3
      vertex -9.95629 0.415823 -3
    endloop
  endfacet
  facet normal 0 0 -1
    outer loop
      vertex -7.38197 -1.90211 -3
      vertex 6 -2.10942e-15 -3
      vertex 6.04371 -0.415823 -3
    endloop
  endfacet
  facet normal 0 0 -1
    outer loop
      vertex 6.17291 0.813473 -3
      vertex -7.38197 -1.90211 -3
      vertex -7 -1.73205 -3
    endloop
  endfacet
  facet normal 0 0 -1
    outer loop
      vertex -7.38197 -1.90211 -3
      vertex 6.04371 -0.415823 -3
      vertex 6.17291 -0.813473 -3
    endloop
  endfacet
  facet normal 0 0 -1
    outer loop
      vertex -7.38197 -1.90211 -3
      vertex 6.17291 -0.813473 -3
      vertex 6.38197 -1.17557 -3
    endloop
  endfacet
  facet normal 0 0 -1
    outer loop
      vertex -7.38197 -1.90211 -3
      vertex 6.38197 -1.17557 -3
      vertex 6.66174 -1.48629 -3
    endloop
  endfacet
  facet normal 0 0 -1
    outer loop
      vertex -7.38197 -1.90211 -3
      vertex 6.66174 -1.48629 -3
      vertex 7 -1.73205 -3
    endloop
  endfacet
  facet normal 0 0 -1
    outer loop
      vertex -7.38197 -1.90211 -3
      vertex 7 -1.73205 -3
      vertex 7.38197 -1.90211 -3
    endloop
  endfacet
  facet normal 0 0 -1
    outer loop
      vertex -7.79094 -1.98904 -3
      vertex 7.79094 -1.98904 -3
      vertex 12 -2 -3
    endloop
  endfacet
  facet normal 0 0 -1
    outer loop
      vertex 7.79094 -1.98904 -3
      vertex 8.20906 -1.98904 -3
      vertex 12 -2 -3
    endloop
  endfacet
  facet normal 0 0 -1
    outer loop
      vertex 9 -1.73205 -3
      vertex 12 -2 -3
      vertex 8.61803 -1.90211 -3
    endloop
  endfacet
  facet normal 0 0 -1
    outer loop
      vertex 9.33826 -1.48629 -3
      vertex 12 -2 -3
      vertex 9 -1.73205 -3
    endloop
  endfacet
  facet normal 0 0 -1
    outer loop
      vertex 9.61803 -1.17557 -3
      vertex 12 -2 -3
      vertex 9.33826 -1.48629 -3
    endloop
  endfacet
  facet normal 0 0 -1
    outer loop
      vertex 9.82709 -0.813473 -3
      vertex 12 2 -3
      vertex 9.61803 -1.17557 -3
    endloop
  endfacet
  facet normal 0 0 -1
    outer loop
      vertex 9.33826 1.48629 -3
      vertex 12 2 -3
      vertex 9.61803 1.17557 -3
    endloop
  endfacet
  facet normal 0 0 -1
    outer loop
      vertex 9.95629 -0.415823 -3
      vertex 12 2 -3
      vertex 9.82709 -0.813473 -3
    endloop
  endfacet
  facet normal 0 0 -1
    outer loop
      vertex 10 -2.10942e-15 -3
      vertex 12 2 -3
      vertex 9.95629 -0.415823 -3
    endloop
  endfacet
  facet normal 0 0 -1
    outer loop
      vertex 9.95629 0.415823 -3
      vertex 12 2 -3
      vertex 10 -2.10942e-15 -3
    endloop
  endfacet
  facet normal 0 0 -1
    outer loop
      vertex 9.82709 0.813473 -3
      vertex 12 2 -3
      vertex 9.95629 0.415823 -3
    endloop
  endfacet
  facet normal 0 0 -1
    outer loop
      vertex 9.61803 1.17557 -3
      vertex 12 2 -3
      vertex 9.82709 0.813473 -3
    endloop
  endfacet
  facet normal 0 0 -1
    outer loop
      vertex 6.17291 0.813473 -3
      vertex -7 -1.73205 -3
      vertex -6.66174 -1.48629 -3
    endloop
  endfacet
  facet normal 0 0 -1
    outer loop
      vertex 8.61803 1.90211 -3
      vertex 11.919 2.56346 -3
      vertex 9 1.73205 -3
    endloop
  endfacet
  facet normal 0 0 -1
    outer loop
      vertex 8.20906 1.98904 -3
      vertex 11.8193 2.83083 -3
      vertex 8.61803 1.90211 -3
    endloop
  endfacet
  facet normal 0 0 -1
    outer loop
      vertex 7.38197 1.90211 -3
      vertex 11.6825 3.08128 -3
      vertex 7.79094 1.98904 -3
    endloop
  endfacet
  facet normal 0 0 -1
    outer loop
      vertex 6.17291 0.813473 -3
      vertex -6.66174 -1.48629 -3
      vertex -6.38197 -1.17557 -3
    endloop
  endfacet
  facet normal 0 0 -1
    outer loop
      vertex 6.66174 1.48629 -3
      vertex -6.38197 -1.17557 -3
      vertex -6.17291 -0.813473 -3
    endloop
  endfacet
  facet normal 0 0 -1
    outer loop
      vertex 6.17291 0.813473 -3
      vertex -6.38197 -1.17557 -3
      vertex 6.38197 1.17557 -3
    endloop
  endfacet
  facet normal 0 0 -1
    outer loop
      vertex -7.38197 -1.90211 -3
      vertex 6.17291 0.813473 -3
      vertex 6.04371 0.415823 -3
    endloop
  endfacet
  facet normal 0 0 -1
    outer loop
      vertex -7.38197 -1.90211 -3
      vertex 6.04371 0.415823 -3
      vertex 6 -2.10942e-15 -3
    endloop
  endfacet
  facet normal 0 0 -1
    outer loop
      vertex -9 -1.73205 -3
      vertex -11.9796 -2.28463 -3
      vertex -9.33826 -1.48629 -3
    endloop
  endfacet
  facet normal 0 0 -1
    outer loop
      vertex -6.17291 -0.813473 -3
      vertex 11.3097 3.5115 -3
      vertex 11.5115 3.30972 -3
    endloop
  endfacet
  facet normal 0 0 -1
    outer loop
      vertex -6.17291 -0.813473 -3
      vertex 11.5115 3.30972 -3
      vertex 11.6825 3.08128 -3
    endloop
  endfacet
  facet normal 0 0 -1
    outer loop
      vertex -6.17291 -0.813473 -3
      vertex 11.6825 3.08128 -3
      vertex 7.38197 1.90211 -3
    endloop
  endfacet
  facet normal 0 0 -1
    outer loop
      vertex -6.04371 -0.415823 -3
      vertex 10 4 -3
      vertex 10.2846 3.97964 -3
    endloop
  endfacet
  facet normal 0 0 -1
    outer loop
      vertex 7 1.73205 -3
      vertex -6.17291 -0.813473 -3
      vertex 7.38197 1.90211 -3
    endloop
  endfacet
  facet normal 0 0 -1
    outer loop
      vertex -6.04371 -0.415823 -3
      vertex 10.2846 3.97964 -3
      vertex 10.5635 3.91899 -3
    endloop
  endfacet
  facet normal 0 0 -1
    outer loop
      vertex -6.04371 -0.415823 -3
      vertex 10.5635 3.91899 -3
      vertex 10.8308 3.81926 -3
    endloop
  endfacet
  facet normal 0 0 -1
    outer loop
      vertex -6.04371 -0.415823 -3
      vertex 10.8308 3.81926 -3
      vertex 11.0813 3.68251 -3
    endloop
  endfacet
  facet normal 0 0 -1
    outer loop
      vertex 7.79094 1.98904 -3
      vertex 11.8193 2.83083 -3
      vertex 8.20906 1.98904 -3
    endloop
  endfacet
  facet normal 0 0 -1
    outer loop
      vertex -6.04371 -0.415823 -3
      vertex 11.0813 3.68251 -3
      vertex -6.17291 -0.813473 -3
    endloop
  endfacet
  facet normal 0 0 -1
    outer loop
      vertex 6.66174 1.48629 -3
      vertex -6.17291 -0.813473 -3
      vertex 7 1.73205 -3
    endloop
  endfacet
  facet normal -0.997452 0.0713387 0
    outer loop
      vertex -12 2 -3
      vertex -12 2 3
      vertex -11.9796 2.28463 -3
    endloop
  endfacet
  facet normal -0.997452 0.0713387 0
    outer loop
      vertex -11.9796 2.28463 -3
      vertex -12 2 3
      vertex -11.9796 2.28463 3
    endloop
  endfacet
  facet normal 0 0 1
    outer loop
      vertex -12 2 3
      vertex -12 -2 3
      vertex -11.9796 -2.28463 3
    endloop
  endfacet
  facet normal 0 0 1
    outer loop
      vertex -11.8193 -2.83083 3
      vertex -12 2 3
      vertex -11.919 -2.56346 3
    endloop
  endfacet
  facet normal 0 0 1
    outer loop
      vertex -11.919 -2.56346 3
      vertex -12 2 3
      vertex -11.9796 -2.28463 3
    endloop
  endfacet
  facet normal 0 0 1
    outer loop
      vertex -11.6825 -3.08128 3
      vertex -12 2 3
      vertex -11.8193 -2.83083 3
    endloop
  endfacet
  facet normal 0 0 1
    outer loop
      vertex -11.5115 -3.30972 3
      vertex -12 2 3
      vertex -11.6825 -3.08128 3
    endloop
  endfacet
  facet normal 0 0 1
    outer loop
      vertex -11.3097 -3.5115 3
      vertex -12 2 3
      vertex -11.5115 -3.30972 3
    endloop
  endfacet
  facet normal 0 0 1
    outer loop
      vertex -11.0813 -3.68251 3
      vertex -12 2 3
      vertex -11.3097 -3.5115 3
    endloop
  endfacet
  facet normal 0 0 1
    outer loop
      vertex -10.8308 -3.81926 3
      vertex -12 2 3
      vertex -11.0813 -3.68251 3
    endloop
  endfacet
  facet normal 0 0 1
    outer loop
      vertex -10.5635 -3.91899 3
      vertex -12 2 3
      vertex -10.8308 -3.81926 3
    endloop
  endfacet
  facet normal 0 0 1
    outer loop
      vertex -10.2846 -3.97964 3
      vertex -12 2 3
      vertex -10.5635 -3.91899 3
    endloop
  endfacet
  facet normal 0 0 1
    outer loop
      vertex -10 -4 3
      vertex -12 2 3
      vertex -10.2846 -3.97964 3
    endloop
  endfacet
  facet normal 0 0 1
    outer loop
      vertex -9.95629 -0.415823 3
      vertex -12 2 3
      vertex -10 -4 3
    endloop
  endfacet
  facet normal 0 0 1
    outer loop
      vertex -8.61803 1.90211 3
      vertex -8.20906 1.98904 3
      vertex -4.06065 4 3
    endloop
  endfacet
  facet normal 0 0 1
    outer loop
      vertex -10 4 3
      vertex -12 2 3
      vertex -4.06065 4 3
    endloop
  endfacet
  facet normal 0 0 1
    outer loop
      vertex -10.2846 3.97964 3
      vertex -12 2 3
      vertex -10 4 3
    endloop
  endfacet
  facet normal 0 0 1
    outer loop
      vertex -10.5635 3.91899 3
      vertex -12 2 3
      vertex -10.2846 3.97964 3
    endloop
  endfacet
  facet normal 0 0 1
    outer loop
      vertex -10.8308 3.81926 3
      vertex -12 2 3
      vertex -10.5635 3.91899 3
    endloop
  endfacet
  facet normal 0 0 1
    outer loop
      vertex -11.0813 3.68251 3
      vertex -12 2 3
      vertex -10.8308 3.81926 3
    endloop
  endfacet
  facet normal 0 0 1
    outer loop
      vertex -11.3097 3.5115 3
      vertex -12 2 3
      vertex -11.0813 3.68251 3
    endloop
  endfacet
  facet normal 0 0 1
    outer loop
      vertex -11.5115 3.30972 3
      vertex -12 2 3
      vertex -11.3097 3.5115 3
    endloop
  endfacet
  facet normal 0 0 1
    outer loop
      vertex -11.6825 3.08128 3
      vertex -12 2 3
      vertex -11.5115 3.30972 3
    endloop
  endfacet
  facet normal 0 0 1
    outer loop
      vertex -11.8193 2.83083 3
      vertex -12 2 3
      vertex -11.6825 3.08128 3
    endloop
  endfacet
  facet normal 0 0 1
    outer loop
      vertex -11.919 2.56346 3
      vertex -12 2 3
      vertex -11.8193 2.83083 3
    endloop
  endfacet
  facet normal 0 0 1
    outer loop
      vertex -11.9796 2.28463 3
      vertex -12 2 3
      vertex -11.919 2.56346 3
    endloop
  endfacet
  facet normal 0 0 1
    outer loop
      vertex -9.82709 -0.813473 3
      vertex -9.95629 -0.415823 3
      vertex -10 -4 3
    endloop
  endfacet
  facet normal 0 0 1
    outer loop
      vertex -10 5.55112e-16 3
      vertex -12 2 3
      vertex -9.95629 -0.415823 3
    endloop
  endfacet
  facet normal 0 0 1
    outer loop
      vertex -9.95629 0.415823 3
      vertex -12 2 3
      vertex -10 5.55112e-16 3
    endloop
  endfacet
  facet normal 0 0 1
    outer loop
      vertex -7.38197 -1.90211 3
      vertex -7.79094 -1.98904 3
      vertex -4.06065 -4 3
    endloop
  endfacet
  facet normal 0 0 1
    outer loop
      vertex -7 -1.73205 3
      vertex -7.38197 -1.90211 3
      vertex -4.06065 -4 3
    endloop
  endfacet
  facet normal 0 0 1
    outer loop
      vertex -9.61803 1.17557 3
      vertex -12 2 3
      vertex -9.82709 0.813473 3
    endloop
  endfacet
  facet normal 0 0 1
    outer loop
      vertex -9.33826 1.48629 3
      vertex -12 2 3
      vertex -9.61803 1.17557 3
    endloop
  endfacet
  facet normal 0 0 1
    outer loop
      vertex -9 1.73205 3
      vertex -12 2 3
      vertex -9.33826 1.48629 3
    endloop
  endfacet
  facet normal 0 0 1
    outer loop
      vertex -4.06065 4 3
      vertex -12 2 3
      vertex -9 1.73205 3
    endloop
  endfacet
  facet normal 0 0 1
    outer loop
      vertex -8.20906 1.98904 3
      vertex -7.79094 1.98904 3
      vertex -4.06065 4 3
    endloop
  endfacet
  facet normal 0 0 1
    outer loop
      vertex -4.06065 4 3
      vertex -9 1.73205 3
      vertex -8.61803 1.90211 3
    endloop
  endfacet
  facet normal 0 0 1
    outer loop
      vertex -7.79094 1.98904 3
      vertex -7.38197 1.90211 3
      vertex -4.06065 4 3
    endloop
  endfacet
  facet normal 0 0 1
    outer loop
      vertex -6.17291 0.813473 3
      vertex -6.04371 0.415823 3
      vertex -4.06065 -4 3
    endloop
  endfacet
  facet normal 0 0 1
    outer loop
      vertex -6.66174 -1.48629 3
      vertex -7 -1.73205 3
      vertex -4.06065 -4 3
    endloop
  endfacet
  facet normal 0 0 1
    outer loop
      vertex -6.04371 -0.415823 3
      vertex -6.17291 -0.813473 3
      vertex -4.06065 -4 3
    endloop
  endfacet
  facet normal 0 0 1
    outer loop
      vertex -4.06065 4 3
      vertex -7.38197 1.90211 3
      vertex -7 1.73205 3
    endloop
  endfacet
  facet normal 0 0 1
    outer loop
      vertex -6 5.55112e-16 3
      vertex -6.04371 -0.415823 3
      vertex -4.06065 -4 3
    endloop
  endfacet
  facet normal 0 0 1
    outer loop
      vertex -4.06065 4 3
      vertex -7 1.73205 3
      vertex -6.66174 1.48629 3
    endloop
  endfacet
  facet normal 0 0 1
    outer loop
      vertex -6.04371 0.415823 3
      vertex -6 5.55112e-16 3
      vertex -4.06065 -4 3
    endloop
  endfacet
  facet normal 0 0 1
    outer loop
      vertex -4.06065 4 3
      vertex -6.66174 1.48629 3
      vertex -6.38197 1.17557 3
    endloop
  endfacet
  facet normal 0 0 1
    outer loop
      vertex -4.06065 4 3
      vertex -6.17291 0.813473 3
      vertex -4.06065 -4 3
    endloop
  endfacet
  facet normal 0 0 1
    outer loop
      vertex -4.06065 4 3
      vertex -6.38197 1.17557 3
      vertex -6.17291 0.813473 3
    endloop
  endfacet
  facet normal 0 0 1
    outer loop
      vertex -6.17291 -0.813473 3
      vertex -6.38197 -1.17557 3
      vertex -4.06065 -4 3
    endloop
  endfacet
  facet normal 0 0 1
    outer loop
      vertex -6.38197 -1.17557 3
      vertex -6.66174 -1.48629 3
      vertex -4.06065 -4 3
    endloop
  endfacet
  facet normal 0 0 1
    outer loop
      vertex -4.06065 -4 3
      vertex -7.79094 -1.98904 3
      vertex -10 -4 3
    endloop
  endfacet
  facet normal 0 0 1
    outer loop
      vertex -7.79094 -1.98904 3
      vertex -8.20906 -1.98904 3
      vertex -10 -4 3
    endloop
  endfacet
  facet normal 0 0 1
    outer loop
      vertex -8.20906 -1.98904 3
      vertex -8.61803 -1.90211 3
      vertex -10 -4 3
    endloop
  endfacet
  facet normal 0 0 1
    outer loop
      vertex -8.61803 -1.90211 3
      vertex -9 -1.73205 3
      vertex -10 -4 3
    endloop
  endfacet
  facet normal 0 0 1
    outer loop
      vertex -9 -1.73205 3
      vertex -9.33826 -1.48629 3
      vertex -10 -4 3
    endloop
  endfacet
  facet normal 0 0 1
    outer loop
      vertex -9.33826 -1.48629 3
      vertex -9.61803 -1.17557 3
      vertex -10 -4 3
    endloop
  endfacet
  facet normal 0 0 1
    outer loop
      vertex -9.61803 -1.17557 3
      vertex -9.82709 -0.813473 3
      vertex -10 -4 3
    endloop
  endfacet
  facet normal 0 0 1
    outer loop
      vertex -9.95629 0.415823 3
      vertex -9.82709 0.813473 3
      vertex -12 2 3
    endloop
  endfacet
  facet normal -0.977147 -0.212566 0
    outer loop
      vertex -11.9796 -2.28463 -3
      vertex -11.919 -2.56346 -3
      vertex -11.9796 -2.28463 3
    endloop
  endfacet
  facet normal -0.977147 -0.212566 0
    outer loop
      vertex -11.9796 -2.28463 3
      vertex -11.919 -2.56346 -3
      vertex -11.919 -2.56346 3
    endloop
  endfacet
  facet normal -0.93695 -0.349464 0
    outer loop
      vertex -11.919 -2.56346 -3
      vertex -11.8193 -2.83083 -3
      vertex -11.919 -2.56346 3
    endloop
  endfacet
  facet normal -0.93695 -0.349464 0
    outer loop
      vertex -11.919 -2.56346 3
      vertex -11.8193 -2.83083 -3
      vertex -11.8193 -2.83083 3
    endloop
  endfacet
  facet normal -0.877679 -0.479249 0
    outer loop
      vertex -11.8193 -2.83083 -3
      vertex -11.6825 -3.08128 -3
      vertex -11.8193 -2.83083 3
    endloop
  endfacet
  facet normal -0.877679 -0.479249 0
    outer loop
      vertex -11.8193 -2.83083 3
      vertex -11.6825 -3.08128 -3
      vertex -11.6825 -3.08128 3
    endloop
  endfacet
  facet normal -0.80054 -0.599279 0
    outer loop
      vertex -11.6825 -3.08128 -3
      vertex -11.5115 -3.30972 -3
      vertex -11.6825 -3.08128 3
    endloop
  endfacet
  facet normal -0.80054 -0.599279 0
    outer loop
      vertex -11.6825 -3.08128 3
      vertex -11.5115 -3.30972 -3
      vertex -11.5115 -3.30972 3
    endloop
  endfacet
  facet normal -0.707107 -0.707107 0
    outer loop
      vertex -11.5115 -3.30972 3
      vertex -11.5115 -3.30972 -3
      vertex -11.3097 -3.5115 -3
    endloop
  endfacet
  facet normal -0.707107 -0.707107 0
    outer loop
      vertex -11.3097 -3.5115 3
      vertex -11.5115 -3.30972 3
      vertex -11.3097 -3.5115 -3
    endloop
  endfacet
  facet normal -0.599279 -0.80054 0
    outer loop
      vertex -11.3097 -3.5115 3
      vertex -11.3097 -3.5115 -3
      vertex -11.0813 -3.68251 -3
    endloop
  endfacet
  facet normal -0.599279 -0.80054 0
    outer loop
      vertex -11.0813 -3.68251 3
      vertex -11.3097 -3.5115 3
      vertex -11.0813 -3.68251 -3
    endloop
  endfacet
  facet normal -0.479249 -0.877679 0
    outer loop
      vertex -11.0813 -3.68251 3
      vertex -11.0813 -3.68251 -3
      vertex -10.8308 -3.81926 -3
    endloop
  endfacet
  facet normal -0.479249 -0.877679 0
    outer loop
      vertex -10.8308 -3.81926 3
      vertex -11.0813 -3.68251 3
      vertex -10.8308 -3.81926 -3
    endloop
  endfacet
  facet normal -0.349464 -0.93695 0
    outer loop
      vertex -10.8308 -3.81926 3
      vertex -10.8308 -3.81926 -3
      vertex -10.5635 -3.91899 -3
    endloop
  endfacet
  facet normal -0.349464 -0.93695 0
    outer loop
      vertex -10.5635 -3.91899 3
      vertex -10.8308 -3.81926 3
      vertex -10.5635 -3.91899 -3
    endloop
  endfacet
  facet normal -0.212566 -0.977147 0
    outer loop
      vertex -10.5635 -3.91899 3
      vertex -10.5635 -3.91899 -3
      vertex -10.2846 -3.97964 -3
    endloop
  endfacet
  facet normal -0.212566 -0.977147 0
    outer loop
      vertex -10.2846 -3.97964 3
      vertex -10.5635 -3.91899 3
      vertex -10.2846 -3.97964 -3
    endloop
  endfacet
  facet normal -0.0713387 -0.997452 0
    outer loop
      vertex -10.2846 -3.97964 3
      vertex -10.2846 -3.97964 -3
      vertex -10 -4 -3
    endloop
  endfacet
  facet normal -0.0713387 -0.997452 0
    outer loop
      vertex -10 -4 3
      vertex -10.2846 -3.97964 3
      vertex -10 -4 -3
    endloop
  endfacet
  facet normal 0 -1 0
    outer loop
      vertex 0.641381 -4 -0.549522
      vertex -10 -4 -3
      vertex 10 -4 -3
    endloop
  endfacet
  facet normal 0 -1 0
    outer loop
      vertex 0.641381 -4 -0.549522
      vertex 0 -4 -0.6
      vertex -10 -4 -3
    endloop
  endfacet
  facet normal 0 -1 0
    outer loop
      vertex 10 -4 3
      vertex 4.06065 -4 3
      vertex 10 -4 -3
    endloop
  endfacet
  facet normal 0 -1 0
    outer loop
      vertex 4.06065 -4 3
      vertex 4.04952 -4 2.85862
      vertex 10 -4 -3
    endloop
  endfacet
  facet normal 0 -1 0
    outer loop
      vertex 4.04952 -4 2.85862
      vertex 3.89933 -4 2.23303
      vertex 10 -4 -3
    endloop
  endfacet
  facet normal 0 -1 0
    outer loop
      vertex 3.89933 -4 2.23303
      vertex 3.65313 -4 1.63864
      vertex 10 -4 -3
    endloop
  endfacet
  facet normal 0 -1 0
    outer loop
      vertex -4.04952 -4 2.85862
      vertex -4.06065 -4 3
      vertex -10 -4 3
    endloop
  endfacet
  facet normal 0 -1 0
    outer loop
      vertex 3.65313 -4 1.63864
      vertex 3.31697 -4 1.09008
      vertex 10 -4 -3
    endloop
  endfacet
  facet normal 0 -1 0
    outer loop
      vertex 3.31697 -4 1.09008
      vertex 2.89914 -4 0.600862
      vertex 10 -4 -3
    endloop
  endfacet
  facet normal 0 -1 0
    outer loop
      vertex 2.89914 -4 0.600862
      vertex 2.40992 -4 0.18303
      vertex 10 -4 -3
    endloop
  endfacet
  facet normal 0 -1 0
    outer loop
      vertex 2.40992 -4 0.18303
      vertex 1.86136 -4 -0.153127
      vertex 10 -4 -3
    endloop
  endfacet
  facet normal 0 -1 0
    outer loop
      vertex 1.26697 -4 -0.399332
      vertex 0.641381 -4 -0.549522
      vertex 10 -4 -3
    endloop
  endfacet
  facet normal 0 -1 0
    outer loop
      vertex -1.86136 -4 -0.153127
      vertex -2.40992 -4 0.18303
      vertex -10 -4 3
    endloop
  endfacet
  facet normal 0 -1 0
    outer loop
      vertex -0.641381 -4 -0.549522
      vertex -10 -4 -3
      vertex 0 -4 -0.6
    endloop
  endfacet
  facet normal 0 -1 0
    outer loop
      vertex -1.26697 -4 -0.399332
      vertex -10 -4 -3
      vertex -0.641381 -4 -0.549522
    endloop
  endfacet
  facet normal 0 -1 0
    outer loop
      vertex -10 -4 3
      vertex -10 -4 -3
      vertex -1.26697 -4 -0.399332
    endloop
  endfacet
  facet normal 0 -1 0
    outer loop
      vertex -2.40992 -4 0.18303
      vertex -2.89914 -4 0.600862
      vertex -10 -4 3
    endloop
  endfacet
  facet normal 0 -1 0
    outer loop
      vertex -10 -4 3
      vertex -1.26697 -4 -0.399332
      vertex -1.86136 -4 -0.153127
    endloop
  endfacet
  facet normal 0 -1 0
    outer loop
      vertex -2.89914 -4 0.600862
      vertex -3.31697 -4 1.09008
      vertex -10 -4 3
    endloop
  endfacet
  facet normal 0 -1 0
    outer loop
      vertex -3.31697 -4 1.09008
      vertex -3.65313 -4 1.63864
      vertex -10 -4 3
    endloop
  endfacet
  facet normal 0 -1 0
    outer loop
      vertex -3.65313 -4 1.63864
      vertex -3.89933 -4 2.23303
      vertex -10 -4 3
    endloop
  endfacet
  facet normal 0 -1 0
    outer loop
      vertex -3.89933 -4 2.23303
      vertex -4.04952 -4 2.85862
      vertex -10 -4 3
    endloop
  endfacet
  facet normal 0 -1 0
    outer loop
      vertex 1.86136 -4 -0.153127
      vertex 1.26697 -4 -0.399332
      vertex 10 -4 -3
    endloop
  endfacet
  facet normal 0.0713387 -0.997452 0
    outer loop
      vertex 10 -4 3
      vertex 10 -4 -3
      vertex 10.2846 -3.97964 -3
    endloop
  endfacet
  facet normal 0.0713387 -0.997452 0
    outer loop
      vertex 10.2846 -3.97964 3
      vertex 10 -4 3
      vertex 10.2846 -3.97964 -3
    endloop
  endfacet
  facet normal 0.212566 -0.977147 0
    outer loop
      vertex 10.2846 -3.97964 3
      vertex 10.2846 -3.97964 -3
      vertex 10.5635 -3.91899 -3
    endloop
  endfacet
  facet normal 0.212566 -0.977147 0
    outer loop
      vertex 10.5635 -3.91899 3
      vertex 10.2846 -3.97964 3
      vertex 10.5635 -3.91899 -3
    endloop
  endfacet
  facet normal 0.349464 -0.93695 0
    outer loop
      vertex 10.5635 -3.91899 3
      vertex 10.5635 -3.91899 -3
      vertex 10.8308 -3.81926 -3
    endloop
  endfacet
  facet normal 0.349464 -0.93695 0
    outer loop
      vertex 10.8308 -3.81926 3
      vertex 10.5635 -3.91899 3
      vertex 10.8308 -3.81926 -3
    endloop
  endfacet
  facet normal 0.479249 -0.877679 0
    outer loop
      vertex 10.8308 -3.81926 3
      vertex 10.8308 -3.81926 -3
      vertex 11.0813 -3.68251 -3
    endloop
  endfacet
  facet normal 0.479249 -0.877679 0
    outer loop
      vertex 11.0813 -3.68251 3
      vertex 10.8308 -3.81926 3
      vertex 11.0813 -3.68251 -3
    endloop
  endfacet
  facet normal 0.599279 -0.80054 0
    outer loop
      vertex 11.0813 -3.68251 3
      vertex 11.0813 -3.68251 -3
      vertex 11.3097 -3.5115 -3
    endloop
  endfacet
  facet normal 0.599279 -0.80054 0
    outer loop
      vertex 11.3097 -3.5115 3
      vertex 11.0813 -3.68251 3
      vertex 11.3097 -3.5115 -3
    endloop
  endfacet
  facet normal 0.707107 -0.707107 0
    outer loop
      vertex 11.3097 -3.5115 3
      vertex 11.3097 -3.5115 -3
      vertex 11.5115 -3.30972 -3
    endloop
  endfacet
  facet normal 0.707107 -0.707107 0
    outer loop
      vertex 11.5115 -3.30972 3
      vertex 11.3097 -3.5115 3
      vertex 11.5115 -3.30972 -3
    endloop
  endfacet
  facet normal 0.80054 -0.599279 0
    outer loop
      vertex 11.5115 -3.30972 3
      vertex 11.5115 -3.30972 -3
      vertex 11.6825 -3.08128 -3
    endloop
  endfacet
  facet normal 0.80054 -0.599279 0
    outer loop
      vertex 11.6825 -3.08128 3
      vertex 11.5115 -3.30972 3
      vertex 11.6825 -3.08128 -3
    endloop
  endfacet
  facet normal 0.877679 -0.479249 0
    outer loop
      vertex 11.6825 -3.08128 3
      vertex 11.6825 -3.08128 -3
      vertex 11.8193 -2.83083 -3
    endloop
  endfacet
  facet normal 0.877679 -0.479249 0
    outer loop
      vertex 11.8193 -2.83083 3
      vertex 11.6825 -3.08128 3
      vertex 11.8193 -2.83083 -3
    endloop
  endfacet
  facet normal 0.93695 -0.349464 0
    outer loop
      vertex 11.8193 -2.83083 3
      vertex 11.8193 -2.83083 -3
      vertex 11.919 -2.56346 -3
    endloop
  endfacet
  facet normal 0.93695 -0.349464 0
    outer loop
      vertex 11.919 -2.56346 3
      vertex 11.8193 -2.83083 3
      vertex 11.919 -2.56346 -3
    endloop
  endfacet
  facet normal 0.977147 -0.212566 0
    outer loop
      vertex 11.919 -2.56346 3
      vertex 11.919 -2.56346 -3
      vertex 11.9796 -2.28463 -3
    endloop
  endfacet
  facet normal 0.977147 -0.212566 0
    outer loop
      vertex 11.9796 -2.28463 3
      vertex 11.919 -2.56346 3
      vertex 11.9796 -2.28463 -3
    endloop
  endfacet
  facet normal 0.997452 -0.0713387 0
    outer loop
      vertex 11.9796 -2.28463 3
      vertex 11.9796 -2.28463 -3
      vertex 12 -2 -3
    endloop
  endfacet
  facet normal 0.997452 -0.0713387 0
    outer loop
      vertex 12 -2 3
      vertex 11.9796 -2.28463 3
      vertex 12 -2 -3
    endloop
  endfacet
  facet normal 1 0 0
    outer loop
      vertex 12 -2 3
      vertex 12 -2 -3
      vertex 12 2 -3
    endloop
  endfacet
  facet normal 1 0 0
    outer loop
      vertex 12 2 3
      vertex 12 -2 3
      vertex 12 2 -3
    endloop
  endfacet
  facet normal 0.997452 0.0713387 0
    outer loop
      vertex 12 2 -3
      vertex 11.9796 2.28463 -3
      vertex 11.9796 2.28463 3
    endloop
  endfacet
  facet normal 0.997452 0.0713387 0
    outer loop
      vertex 12 2 3
      vertex 12 2 -3
      vertex 11.9796 2.28463 3
    endloop
  endfacet
  facet normal 0.977147 0.212566 0
    outer loop
      vertex 11.9796 2.28463 -3
      vertex 11.919 2.56346 -3
      vertex 11.919 2.56346 3
    endloop
  endfacet
  facet normal 0.977147 0.212566 0
    outer loop
      vertex 11.9796 2.28463 3
      vertex 11.9796 2.28463 -3
      vertex 11.919 2.56346 3
    endloop
  endfacet
  facet normal 0.93695 0.349464 0
    outer loop
      vertex 11.919 2.56346 -3
      vertex 11.8193 2.83083 -3
      vertex 11.8193 2.83083 3
    endloop
  endfacet
  facet normal 0.93695 0.349464 0
    outer loop
      vertex 11.919 2.56346 3
      vertex 11.919 2.56346 -3
      vertex 11.8193 2.83083 3
    endloop
  endfacet
  facet normal 0.877679 0.479249 0
    outer loop
      vertex 11.8193 2.83083 -3
      vertex 11.6825 3.08128 -3
      vertex 11.6825 3.08128 3
    endloop
  endfacet
  facet normal 0.877679 0.479249 0
    outer loop
      vertex 11.8193 2.83083 3
      vertex 11.8193 2.83083 -3
      vertex 11.6825 3.08128 3
    endloop
  endfacet
  facet normal 0.80054 0.599279 0
    outer loop
      vertex 11.6825 3.08128 -3
      vertex 11.5115 3.30972 -3
      vertex 11.5115 3.30972 3
    endloop
  endfacet
  facet normal 0.80054 0.599279 0
    outer loop
      vertex 11.6825 3.08128 3
      vertex 11.6825 3.08128 -3
      vertex 11.5115 3.30972 3
    endloop
  endfacet
  facet normal 0.707107 0.707107 0
    outer loop
      vertex 11.3097 3.5115 -3
      vertex 11.3097 3.5115 3
      vertex 11.5115 3.30972 -3
    endloop
  endfacet
  facet normal 0.707107 0.707107 0
    outer loop
      vertex 11.5115 3.30972 -3
      vertex 11.3097 3.5115 3
      vertex 11.5115 3.30972 3
    endloop
  endfacet
  facet normal 0.599279 0.80054 0
    outer loop
      vertex 11.0813 3.68251 -3
      vertex 11.0813 3.68251 3
      vertex 11.3097 3.5115 -3
    endloop
  endfacet
  facet normal 0.599279 0.80054 0
    outer loop
      vertex 11.3097 3.5115 -3
      vertex 11.0813 3.68251 3
      vertex 11.3097 3.5115 3
    endloop
  endfacet
  facet normal 0.479249 0.877679 0
    outer loop
      vertex 10.8308 3.81926 -3
      vertex 10.8308 3.81926 3
      vertex 11.0813 3.68251 -3
    endloop
  endfacet
  facet normal 0.479249 0.877679 0
    outer loop
      vertex 11.0813 3.68251 -3
      vertex 10.8308 3.81926 3
      vertex 11.0813 3.68251 3
    endloop
  endfacet
  facet normal 0.349464 0.93695 0
    outer loop
      vertex 10.5635 3.91899 -3
      vertex 10.5635 3.91899 3
      vertex 10.8308 3.81926 -3
    endloop
  endfacet
  facet normal 0.349464 0.93695 0
    outer loop
      vertex 10.8308 3.81926 -3
      vertex 10.5635 3.91899 3
      vertex 10.8308 3.81926 3
    endloop
  endfacet
  facet normal 0.212566 0.977147 0
    outer loop
      vertex 10.2846 3.97964 -3
      vertex 10.2846 3.97964 3
      vertex 10.5635 3.91899 -3
    endloop
  endfacet
  facet normal 0.212566 0.977147 0
    outer loop
      vertex 10.5635 3.91899 -3
      vertex 10.2846 3.97964 3
      vertex 10.5635 3.91899 3
    endloop
  endfacet
  facet normal 0.0713387 0.997452 0
    outer loop
      vertex 10 4 -3
      vertex 10 4 3
      vertex 10.2846 3.97964 -3
    endloop
  endfacet
  facet normal 0.0713387 0.997452 0
    outer loop
      vertex 10.2846 3.97964 -3
      vertex 10 4 3
      vertex 10.2846 3.97964 3
    endloop
  endfacet
  facet normal 0 1 0
    outer loop
      vertex -4.04952 4 2.85862
      vertex -10 4 3
      vertex -4.06065 4 3
    endloop
  endfacet
  facet normal 0 1 0
    outer loop
      vertex -3.89933 4 2.23303
      vertex -10 4 3
      vertex -4.04952 4 2.85862
    endloop
  endfacet
  facet normal 0 1 0
    outer loop
      vertex -3.65313 4 1.63864
      vertex -10 4 3
      vertex -3.89933 4 2.23303
    endloop
  endfacet
  facet normal 0 1 0
    outer loop
      vertex -3.31697 4 1.09008
      vertex -10 4 3
      vertex -3.65313 4 1.63864
    endloop
  endfacet
  facet normal 0 1 0
    outer loop
      vertex -10 4 -3
      vertex -10 4 3
      vertex -2.89914 4 0.600862
    endloop
  endfacet
  facet normal 0 1 0
    outer loop
      vertex -10 4 -3
      vertex -2.89914 4 0.600862
      vertex -2.40992 4 0.18303
    endloop
  endfacet
  facet normal 0 1 0
    outer loop
      vertex -10 4 -3
      vertex -2.40992 4 0.18303
      vertex -1.86136 4 -0.153127
    endloop
  endfacet
  facet normal 0 1 0
    outer loop
      vertex -10 4 -3
      vertex -1.86136 4 -0.153127
      vertex -1.26697 4 -0.399332
    endloop
  endfacet
  facet normal 0 1 0
    outer loop
      vertex -10 4 -3
      vertex -1.26697 4 -0.399332
      vertex -0.641381 4 -0.549522
    endloop
  endfacet
  facet normal 0 1 0
    outer loop
      vertex -10 4 -3
      vertex -0.641381 4 -0.549522
      vertex 10 4 -3
    endloop
  endfacet
  facet normal 0 1 0
    outer loop
      vertex 0.641381 4 -0.549522
      vertex 10 4 -3
      vertex 0 4 -0.6
    endloop
  endfacet
  facet normal 0 1 0
    outer loop
      vertex 1.26697 4 -0.399332
      vertex 10 4 -3
      vertex 0.641381 4 -0.549522
    endloop
  endfacet
  facet normal 0 1 0
    outer loop
      vertex 0 4 -0.6
      vertex 10 4 -3
      vertex -0.641381 4 -0.549522
    endloop
  endfacet
  facet normal 0 1 0
    outer loop
      vertex 1.86136 4 -0.153127
      vertex 10 4 -3
      vertex 1.26697 4 -0.399332
    endloop
  endfacet
  facet normal 0 1 0
    outer loop
      vertex 2.40992 4 0.18303
      vertex 10 4 -3
      vertex 1.86136 4 -0.153127
    endloop
  endfacet
  facet normal 0 1 0
    outer loop
      vertex 2.89914 4 0.600862
      vertex 10 4 -3
      vertex 2.40992 4 0.18303
    endloop
  endfacet
  facet normal 0 1 0
    outer loop
      vertex 10 4 -3
      vertex 2.89914 4 0.600862
      vertex 3.31697 4 1.09008
    endloop
  endfacet
  facet normal 0 1 0
    outer loop
      vertex 3.31697 4 1.09008
      vertex 3.65313 4 1.63864
      vertex 10 4 -3
    endloop
  endfacet
  facet normal 0 1 0
    outer loop
      vertex 3.65313 4 1.63864
      vertex 3.89933 4 2.23303
      vertex 10 4 -3
    endloop
  endfacet
  facet normal 0 1 0
    outer loop
      vertex 3.89933 4 2.23303
      vertex 4.04952 4 2.85862
      vertex 10 4 -3
    endloop
  endfacet
  facet normal 0 1 0
    outer loop
      vertex 4.04952 4 2.85862
      vertex 4.06065 4 3
      vertex 10 4 -3
    endloop
  endfacet
  facet normal 0 1 0
    outer loop
      vertex 10 4 -3
      vertex 4.06065 4 3
      vertex 10 4 3
    endloop
  endfacet
  facet normal 0 1 0
    outer loop
      vertex -2.89914 4 0.600862
      vertex -10 4 3
      vertex -3.31697 4 1.09008
    endloop
  endfacet
  facet normal -0.0713387 0.997452 0
    outer loop
      vertex -10.2846 3.97964 -3
      vertex -10.2846 3.97964 3
      vertex -10 4 -3
    endloop
  endfacet
  facet normal -0.0713387 0.997452 0
    outer loop
      vertex -10 4 -3
      vertex -10.2846 3.97964 3
      vertex -10 4 3
    endloop
  endfacet
  facet normal -0.212566 0.977147 0
    outer loop
      vertex -10.5635 3.91899 -3
      vertex -10.5635 3.91899 3
      vertex -10.2846 3.97964 -3
    endloop
  endfacet
  facet normal -0.212566 0.977147 0
    outer loop
      vertex -10.2846 3.97964 -3
      vertex -10.5635 3.91899 3
      vertex -10.2846 3.97964 3
    endloop
  endfacet
  facet normal -0.349464 0.93695 0
    outer loop
      vertex -10.8308 3.81926 -3
      vertex -10.8308 3.81926 3
      vertex -10.5635 3.91899 -3
    endloop
  endfacet
  facet normal -0.349464 0.93695 0
    outer loop
      vertex -10.5635 3.91899 -3
      vertex -10.8308 3.81926 3
      vertex -10.5635 3.91899 3
    endloop
  endfacet
  facet normal -0.479249 0.877679 0
    outer loop
      vertex -11.0813 3.68251 -3
      vertex -11.0813 3.68251 3
      vertex -10.8308 3.81926 -3
    endloop
  endfacet
  facet normal -0.479249 0.877679 0
    outer loop
      vertex -10.8308 3.81926 -3
      vertex -11.0813 3.68251 3
      vertex -10.8308 3.81926 3
    endloop
  endfacet
  facet normal -0.599279 0.80054 0
    outer loop
      vertex -11.3097 3.5115 -3
      vertex -11.3097 3.5115 3
      vertex -11.0813 3.68251 -3
    endloop
  endfacet
  facet normal -0.599279 0.80054 0
    outer loop
      vertex -11.0813 3.68251 -3
      vertex -11.3097 3.5115 3
      vertex -11.0813 3.68251 3
    endloop
  endfacet
  facet normal -0.707107 0.707107 0
    outer loop
      vertex -11.5115 3.30972 -3
      vertex -11.5115 3.30972 3
      vertex -11.3097 3.5115 -3
    endloop
  endfacet
  facet normal -0.707107 0.707107 0
    outer loop
      vertex -11.3097 3.5115 -3
      vertex -11.5115 3.30972 3
      vertex -11.3097 3.5115 3
    endloop
  endfacet
  facet normal -0.80054 0.599279 0
    outer loop
      vertex -11.6825 3.08128 -3
      vertex -11.6825 3.08128 3
      vertex -11.5115 3.30972 -3
    endloop
  endfacet
  facet normal -0.80054 0.599279 0
    outer loop
      vertex -11.5115 3.30972 -3
      vertex -11.6825 3.08128 3
      vertex -11.5115 3.30972 3
    endloop
  endfacet
  facet normal -0.877679 0.479249 0
    outer loop
      vertex -11.8193 2.83083 -3
      vertex -11.8193 2.83083 3
      vertex -11.6825 3.08128 -3
    endloop
  endfacet
  facet normal -0.877679 0.479249 0
    outer loop
      vertex -11.6825 3.08128 -3
      vertex -11.8193 2.83083 3
      vertex -11.6825 3.08128 3
    endloop
  endfacet
  facet normal -0.93695 0.349464 0
    outer loop
      vertex -11.919 2.56346 -3
      vertex -11.919 2.56346 3
      vertex -11.8193 2.83083 -3
    endloop
  endfacet
  facet normal -0.93695 0.349464 0
    outer loop
      vertex -11.8193 2.83083 -3
      vertex -11.919 2.56346 3
      vertex -11.8193 2.83083 3
    endloop
  endfacet
  facet normal -0.977147 0.212566 0
    outer loop
      vertex -11.9796 2.28463 -3
      vertex -11.9796 2.28463 3
      vertex -11.919 2.56346 -3
    endloop
  endfacet
  facet normal -0.977147 0.212566 0
    outer loop
      vertex -11.919 2.56346 -3
      vertex -11.9796 2.28463 3
      vertex -11.919 2.56346 3
    endloop
  endfacet
  facet normal 0.994522 0.104529 -4.64202e-17
    outer loop
      vertex -10 5.55112e-16 3
      vertex -9.95629 -0.415823 3
      vertex -9.95629 -0.415823 -3
    endloop
  endfacet
  facet normal 0.994522 0.104529 -4.64202e-17
    outer loop
      vertex -10 -2.10942e-15 -3
      vertex -10 5.55112e-16 3
      vertex -9.95629 -0.415823 -3
    endloop
  endfacet
  facet normal 0.994522 -0.104529 4.64202e-17
    outer loop
      vertex -9.95629 0.415823 -3
      vertex -9.95629 0.415823 3
      vertex -10 5.55112e-16 3
    endloop
  endfacet
  facet normal 0.994522 -0.104529 4.64202e-17
    outer loop
      vertex -10 -2.10942e-15 -3
      vertex -9.95629 0.415823 -3
      vertex -10 5.55112e-16 3
    endloop
  endfacet
  facet normal 0.951057 -0.309016 1.37231e-16
    outer loop
      vertex -9.82709 0.813473 -3
      vertex -9.82709 0.813473 3
      vertex -9.95629 0.415823 3
    endloop
  endfacet
  facet normal 0.951057 -0.309016 1.37231e-16
    outer loop
      vertex -9.95629 0.415823 -3
      vertex -9.82709 0.813473 -3
      vertex -9.95629 0.415823 3
    endloop
  endfacet
  facet normal 0.866026 -0.499999 2.22044e-16
    outer loop
      vertex -9.61803 1.17557 -3
      vertex -9.61803 1.17557 3
      vertex -9.82709 0.813473 3
    endloop
  endfacet
  facet normal 0.866026 -0.499999 2.22044e-16
    outer loop
      vertex -9.82709 0.813473 -3
      vertex -9.61803 1.17557 -3
      vertex -9.82709 0.813473 3
    endloop
  endfacet
  facet normal 0.743144 -0.669131 2.97154e-16
    outer loop
      vertex -9.33826 1.48629 -3
      vertex -9.33826 1.48629 3
      vertex -9.61803 1.17557 3
    endloop
  endfacet
  facet normal 0.743144 -0.669131 2.97154e-16
    outer loop
      vertex -9.61803 1.17557 -3
      vertex -9.33826 1.48629 -3
      vertex -9.61803 1.17557 3
    endloop
  endfacet
  facet normal 0.587785 -0.809017 3.59276e-16
    outer loop
      vertex -9 1.73205 -3
      vertex -9 1.73205 3
      vertex -9.33826 1.48629 3
    endloop
  endfacet
  facet normal 0.587785 -0.809017 3.59276e-16
    outer loop
      vertex -9.33826 1.48629 -3
      vertex -9 1.73205 -3
      vertex -9.33826 1.48629 3
    endloop
  endfacet
  facet normal 0.406736 -0.913546 4.05696e-16
    outer loop
      vertex -8.61803 1.90211 -3
      vertex -8.61803 1.90211 3
      vertex -9 1.73205 3
    endloop
  endfacet
  facet normal 0.406736 -0.913546 4.05696e-16
    outer loop
      vertex -9 1.73205 -3
      vertex -8.61803 1.90211 -3
      vertex -9 1.73205 3
    endloop
  endfacet
  facet normal 0.207912 -0.978147 4.34385e-16
    outer loop
      vertex -8.20906 1.98904 -3
      vertex -8.20906 1.98904 3
      vertex -8.61803 1.90211 3
    endloop
  endfacet
  facet normal 0.207912 -0.978147 4.34385e-16
    outer loop
      vertex -8.61803 1.90211 -3
      vertex -8.20906 1.98904 -3
      vertex -8.61803 1.90211 3
    endloop
  endfacet
  facet normal 0 -1 4.44089e-16
    outer loop
      vertex -7.79094 1.98904 -3
      vertex -7.79094 1.98904 3
      vertex -8.20906 1.98904 3
    endloop
  endfacet
  facet normal 0 -1 4.44089e-16
    outer loop
      vertex -8.20906 1.98904 -3
      vertex -7.79094 1.98904 -3
      vertex -8.20906 1.98904 3
    endloop
  endfacet
  facet normal -0.207912 -0.978147 4.34385e-16
    outer loop
      vertex -7.38197 1.90211 -3
      vertex -7.38197 1.90211 3
      vertex -7.79094 1.98904 3
    endloop
  endfacet
  facet normal -0.207912 -0.978147 4.34385e-16
    outer loop
      vertex -7.79094 1.98904 -3
      vertex -7.38197 1.90211 -3
      vertex -7.79094 1.98904 3
    endloop
  endfacet
  facet normal -0.406736 -0.913546 4.05696e-16
    outer loop
      vertex -7 1.73205 -3
      vertex -7 1.73205 3
      vertex -7.38197 1.90211 3
    endloop
  endfacet
  facet normal -0.406736 -0.913546 4.05696e-16
    outer loop
      vertex -7.38197 1.90211 -3
      vertex -7 1.73205 -3
      vertex -7.38197 1.90211 3
    endloop
  endfacet
  facet normal -0.587785 -0.809017 3.59276e-16
    outer loop
      vertex -6.66174 1.48629 -3
      vertex -6.66174 1.48629 3
      vertex -7 1.73205 3
    endloop
  endfacet
  facet normal -0.587785 -0.809017 3.59276e-16
    outer loop
      vertex -7 1.73205 -3
      vertex -6.66174 1.48629 -3
      vertex -7 1.73205 3
    endloop
  endfacet
  facet normal -0.743144 -0.669131 2.97154e-16
    outer loop
      vertex -6.38197 1.17557 3
      vertex -6.66174 1.48629 3
      vertex -6.38197 1.17557 -3
    endloop
  endfacet
  facet normal -0.743144 -0.669131 2.97154e-16
    outer loop
      vertex -6.38197 1.17557 -3
      vertex -6.66174 1.48629 3
      vertex -6.66174 1.48629 -3
    endloop
  endfacet
  facet normal -0.866026 -0.499999 2.22044e-16
    outer loop
      vertex -6.17291 0.813473 3
      vertex -6.38197 1.17557 3
      vertex -6.17291 0.813473 -3
    endloop
  endfacet
  facet normal -0.866026 -0.499999 2.22044e-16
    outer loop
      vertex -6.17291 0.813473 -3
      vertex -6.38197 1.17557 3
      vertex -6.38197 1.17557 -3
    endloop
  endfacet
  facet normal -0.951057 -0.309016 1.37231e-16
    outer loop
      vertex -6.04371 0.415823 3
      vertex -6.17291 0.813473 3
      vertex -6.04371 0.415823 -3
    endloop
  endfacet
  facet normal -0.951057 -0.309016 1.37231e-16
    outer loop
      vertex -6.04371 0.415823 -3
      vertex -6.17291 0.813473 3
      vertex -6.17291 0.813473 -3
    endloop
  endfacet
  facet normal -0.994522 -0.104529 4.64202e-17
    outer loop
      vertex -6 5.55112e-16 3
      vertex -6.04371 0.415823 3
      vertex -6 -2.10942e-15 -3
    endloop
  endfacet
  facet normal -0.994522 -0.104529 4.64202e-17
    outer loop
      vertex -6 -2.10942e-15 -3
      vertex -6.04371 0.415823 3
      vertex -6.04371 0.415823 -3
    endloop
  endfacet
  facet normal -0.994522 0.104529 -4.64202e-17
    outer loop
      vertex -6 5.55112e-16 3
      vertex -6 -2.10942e-15 -3
      vertex -6.04371 -0.415823 3
    endloop
  endfacet
  facet normal -0.994522 0.104529 -4.64202e-17
    outer loop
      vertex -6.04371 -0.415823 3
      vertex -6 -2.10942e-15 -3
      vertex -6.04371 -0.415823 -3
    endloop
  endfacet
  facet normal -0.951057 0.309016 -1.37231e-16
    outer loop
      vertex -6.04371 -0.415823 3
      vertex -6.04371 -0.415823 -3
      vertex -6.17291 -0.813473 3
    endloop
  endfacet
  facet normal -0.951057 0.309016 -1.37231e-16
    outer loop
      vertex -6.17291 -0.813473 3
      vertex -6.04371 -0.415823 -3
      vertex -6.17291 -0.813473 -3
    endloop
  endfacet
  facet normal -0.866026 0.499999 -2.22044e-16
    outer loop
      vertex -6.17291 -0.813473 3
      vertex -6.17291 -0.813473 -3
      vertex -6.38197 -1.17557 3
    endloop
  endfacet
  facet normal -0.866026 0.499999 -2.22044e-16
    outer loop
      vertex -6.38197 -1.17557 3
      vertex -6.17291 -0.813473 -3
      vertex -6.38197 -1.17557 -3
    endloop
  endfacet
  facet normal -0.743144 0.669131 -2.97154e-16
    outer loop
      vertex -6.38197 -1.17557 3
      vertex -6.38197 -1.17557 -3
      vertex -6.66174 -1.48629 3
    endloop
  endfacet
  facet normal -0.743144 0.669131 -2.97154e-16
    outer loop
      vertex -6.66174 -1.48629 3
      vertex -6.38197 -1.17557 -3
      vertex -6.66174 -1.48629 -3
    endloop
  endfacet
  facet normal -0.587785 0.809017 -3.59276e-16
    outer loop
      vertex -6.66174 -1.48629 3
      vertex -6.66174 -1.48629 -3
      vertex -7 -1.73205 3
    endloop
  endfacet
  facet normal -0.587785 0.809017 -3.59276e-16
    outer loop
      vertex -7 -1.73205 3
      vertex -6.66174 -1.48629 -3
      vertex -7 -1.73205 -3
    endloop
  endfacet
  facet normal -0.406736 0.913546 -4.05696e-16
    outer loop
      vertex -7 -1.73205 3
      vertex -7 -1.73205 -3
      vertex -7.38197 -1.90211 3
    endloop
  endfacet
  facet normal -0.406736 0.913546 -4.05696e-16
    outer loop
      vertex -7.38197 -1.90211 3
      vertex -7 -1.73205 -3
      vertex -7.38197 -1.90211 -3
    endloop
  endfacet
  facet normal -0.207912 0.978147 -4.34385e-16
    outer loop
      vertex -7.38197 -1.90211 3
      vertex -7.38197 -1.90211 -3
      vertex -7.79094 -1.98904 3
    endloop
  endfacet
  facet normal -0.207912 0.978147 -4.34385e-16
    outer loop
      vertex -7.79094 -1.98904 3
      vertex -7.38197 -1.90211 -3
      vertex -7.79094 -1.98904 -3
    endloop
  endfacet
  facet normal 0 1 -4.44089e-16
    outer loop
      vertex -7.79094 -1.98904 3
      vertex -7.79094 -1.98904 -3
      vertex -8.20906 -1.98904 3
    endloop
  endfacet
  facet normal 0 1 -4.44089e-16
    outer loop
      vertex -8.20906 -1.98904 3
      vertex -7.79094 -1.98904 -3
      vertex -8.20906 -1.98904 -3
    endloop
  endfacet
  facet normal 0.207912 0.978147 -4.34385e-16
    outer loop
      vertex -8.20906 -1.98904 3
      vertex -8.20906 -1.98904 -3
      vertex -8.61803 -1.90211 3
    endloop
  endfacet
  facet normal 0.207912 0.978147 -4.34385e-16
    outer loop
      vertex -8.61803 -1.90211 3
      vertex -8.20906 -1.98904 -3
      vertex -8.61803 -1.90211 -3
    endloop
  endfacet
  facet normal 0.406736 0.913546 -4.05696e-16
    outer loop
      vertex -8.61803 -1.90211 3
      vertex -8.61803 -1.90211 -3
      vertex -9 -1.73205 3
    endloop
  endfacet
  facet normal 0.406736 0.913546 -4.05696e-16
    outer loop
      vertex -9 -1.73205 3
      vertex -8.61803 -1.90211 -3
      vertex -9 -1.73205 -3
    endloop
  endfacet
  facet normal 0.587785 0.809017 -3.59276e-16
    outer loop
      vertex -9 -1.73205 3
      vertex -9 -1.73205 -3
      vertex -9.33826 -1.48629 3
    endloop
  endfacet
  facet normal 0.587785 0.809017 -3.59276e-16
    outer loop
      vertex -9.33826 -1.48629 3
      vertex -9 -1.73205 -3
      vertex -9.33826 -1.48629 -3
    endloop
  endfacet
  facet normal 0.743144 0.669131 -2.97154e-16
    outer loop
      vertex -9.61803 -1.17557 3
      vertex -9.33826 -1.48629 3
      vertex -9.33826 -1.48629 -3
    endloop
  endfacet
  facet normal 0.743144 0.669131 -2.97154e-16
    outer loop
      vertex -9.61803 -1.17557 -3
      vertex -9.61803 -1.17557 3
      vertex -9.33826 -1.48629 -3
    endloop
  endfacet
  facet normal 0.866026 0.499999 -2.22044e-16
    outer loop
      vertex -9.82709 -0.813473 3
      vertex -9.61803 -1.17557 3
      vertex -9.61803 -1.17557 -3
    endloop
  endfacet
  facet normal 0.866026 0.499999 -2.22044e-16
    outer loop
      vertex -9.82709 -0.813473 -3
      vertex -9.82709 -0.813473 3
      vertex -9.61803 -1.17557 -3
    endloop
  endfacet
  facet normal 0.951057 0.309016 -1.37231e-16
    outer loop
      vertex -9.95629 -0.415823 3
      vertex -9.82709 -0.813473 3
      vertex -9.82709 -0.813473 -3
    endloop
  endfacet
  facet normal 0.951057 0.309016 -1.37231e-16
    outer loop
      vertex -9.95629 -0.415823 -3
      vertex -9.95629 -0.415823 3
      vertex -9.82709 -0.813473 -3
    endloop
  endfacet
  facet normal 0.994522 0.104529 -4.64202e-17
    outer loop
      vertex 6 5.55112e-16 3
      vertex 6.04371 -0.415823 3
      vertex 6.04371 -0.415823 -3
    endloop
  endfacet
  facet normal 0.994522 0.104529 -4.64202e-17
    outer loop
      vertex 6 -2.10942e-15 -3
      vertex 6 5.55112e-16 3
      vertex 6.04371 -0.415823 -3
    endloop
  endfacet
  facet normal 0.994522 -0.104529 4.64202e-17
    outer loop
      vertex 6.04371 0.415823 -3
      vertex 6.04371 0.415823 3
      vertex 6 5.55112e-16 3
    endloop
  endfacet
  facet normal 0.994522 -0.104529 4.64202e-17
    outer loop
      vertex 6 -2.10942e-15 -3
      vertex 6.04371 0.415823 -3
      vertex 6 5.55112e-16 3
    endloop
  endfacet
  facet normal 0.951057 -0.309016 1.37231e-16
    outer loop
      vertex 6.17291 0.813473 -3
      vertex 6.17291 0.813473 3
      vertex 6.04371 0.415823 3
    endloop
  endfacet
  facet normal 0.951057 -0.309016 1.37231e-16
    outer loop
      vertex 6.04371 0.415823 -3
      vertex 6.17291 0.813473 -3
      vertex 6.04371 0.415823 3
    endloop
  endfacet
  facet normal 0.866026 -0.499999 2.22044e-16
    outer loop
      vertex 6.38197 1.17557 -3
      vertex 6.38197 1.17557 3
      vertex 6.17291 0.813473 3
    endloop
  endfacet
  facet normal 0.866026 -0.499999 2.22044e-16
    outer loop
      vertex 6.17291 0.813473 -3
      vertex 6.38197 1.17557 -3
      vertex 6.17291 0.813473 3
    endloop
  endfacet
  facet normal 0.743144 -0.669131 2.97154e-16
    outer loop
      vertex 6.66174 1.48629 -3
      vertex 6.66174 1.48629 3
      vertex 6.38197 1.17557 3
    endloop
  endfacet
  facet normal 0.743144 -0.669131 2.97154e-16
    outer loop
      vertex 6.38197 1.17557 -3
      vertex 6.66174 1.48629 -3
      vertex 6.38197 1.17557 3
    endloop
  endfacet
  facet normal 0.587785 -0.809017 3.59276e-16
    outer loop
      vertex 7 1.73205 -3
      vertex 7 1.73205 3
      vertex 6.66174 1.48629 3
    endloop
  endfacet
  facet normal 0.587785 -0.809017 3.59276e-16
    outer loop
      vertex 6.66174 1.48629 -3
      vertex 7 1.73205 -3
      vertex 6.66174 1.48629 3
    endloop
  endfacet
  facet normal 0.406736 -0.913546 4.05696e-16
    outer loop
      vertex 7.38197 1.90211 -3
      vertex 7.38197 1.90211 3
      vertex 7 1.73205 3
    endloop
  endfacet
  facet normal 0.406736 -0.913546 4.05696e-16
    outer loop
      vertex 7 1.73205 -3
      vertex 7.38197 1.90211 -3
      vertex 7 1.73205 3
    endloop
  endfacet
  facet normal 0.207912 -0.978147 4.34385e-16
    outer loop
      vertex 7.79094 1.98904 -3
      vertex 7.79094 1.98904 3
      vertex 7.38197 1.90211 3
    endloop
  endfacet
  facet normal 0.207912 -0.978147 4.34385e-16
    outer loop
      vertex 7.38197 1.90211 -3
      vertex 7.79094 1.98904 -3
      vertex 7.38197 1.90211 3
    endloop
  endfacet
  facet normal 0 -1 4.44089e-16
    outer loop
      vertex 8.20906 1.98904 -3
      vertex 8.20906 1.98904 3
      vertex 7.79094 1.98904 3
    endloop
  endfacet
  facet normal 0 -1 4.44089e-16
    outer loop
      vertex 7.79094 1.98904 -3
      vertex 8.20906 1.98904 -3
      vertex 7.79094 1.98904 3
    endloop
  endfacet
  facet normal -0.207912 -0.978147 4.34385e-16
    outer loop
      vertex 8.61803 1.90211 -3
      vertex 8.61803 1.90211 3
      vertex 8.20906 1.98904 3
    endloop
  endfacet
  facet normal -0.207912 -0.978147 4.34385e-16
    outer loop
      vertex 8.20906 1.98904 -3
      vertex 8.61803 1.90211 -3
      vertex 8.20906 1.98904 3
    endloop
  endfacet
  facet normal -0.406736 -0.913546 4.05696e-16
    outer loop
      vertex 9 1.73205 -3
      vertex 9 1.73205 3
      vertex 8.61803 1.90211 3
    endloop
  endfacet
  facet normal -0.406736 -0.913546 4.05696e-16
    outer loop
      vertex 8.61803 1.90211 -3
      vertex 9 1.73205 -3
      vertex 8.61803 1.90211 3
    endloop
  endfacet
  facet normal -0.587785 -0.809017 3.59276e-16
    outer loop
      vertex 9.33826 1.48629 -3
      vertex 9.33826 1.48629 3
      vertex 9 1.73205 3
    endloop
  endfacet
  facet normal -0.587785 -0.809017 3.59276e-16
    outer loop
      vertex 9 1.73205 -3
      vertex 9.33826 1.48629 -3
      vertex 9 1.73205 3
    endloop
  endfacet
  facet normal -0.743144 -0.669131 2.97154e-16
    outer loop
      vertex 9.61803 1.17557 3
      vertex 9.33826 1.48629 3
      vertex 9.61803 1.17557 -3
    endloop
  endfacet
  facet normal -0.743144 -0.669131 2.97154e-16
    outer loop
      vertex 9.61803 1.17557 -3
      vertex 9.33826 1.48629 3
      vertex 9.33826 1.48629 -3
    endloop
  endfacet
  facet normal -0.866026 -0.499999 2.22044e-16
    outer loop
      vertex 9.82709 0.813473 3
      vertex 9.61803 1.17557 3
      vertex 9.82709 0.813473 -3
    endloop
  endfacet
  facet normal -0.866026 -0.499999 2.22044e-16
    outer loop
      vertex 9.82709 0.813473 -3
      vertex 9.61803 1.17557 3
      vertex 9.61803 1.17557 -3
    endloop
  endfacet
  facet normal -0.951057 -0.309016 1.37231e-16
    outer loop
      vertex 9.95629 0.415823 3
      vertex 9.82709 0.813473 3
      vertex 9.95629 0.415823 -3
    endloop
  endfacet
  facet normal -0.951057 -0.309016 1.37231e-16
    outer loop
      vertex 9.95629 0.415823 -3
      vertex 9.82709 0.813473 3
      vertex 9.82709 0.813473 -3
    endloop
  endfacet
  facet normal -0.994522 -0.104529 4.64202e-17
    outer loop
      vertex 10 5.55112e-16 3
      vertex 9.95629 0.415823 3
      vertex 10 -2.10942e-15 -3
    endloop
  endfacet
  facet normal -0.994522 -0.104529 4.64202e-17
    outer loop
      vertex 10 -2.10942e-15 -3
      vertex 9.95629 0.415823 3
      vertex 9.95629 0.415823 -3
    endloop
  endfacet
  facet normal -0.994522 0.104529 -4.64202e-17
    outer loop
      vertex 10 5.55112e-16 3
      vertex 10 -2.10942e-15 -3
      vertex 9.95629 -0.415823 3
    endloop
  endfacet
  facet normal -0.994522 0.104529 -4.64202e-17
    outer loop
      vertex 9.95629 -0.415823 3
      vertex 10 -2.10942e-15 -3
      vertex 9.95629 -0.415823 -3
    endloop
  endfacet
  facet normal -0.951057 0.309016 -1.37231e-16
    outer loop
      vertex 9.95629 -0.415823 3
      vertex 9.95629 -0.415823 -3
      vertex 9.82709 -0.813473 3
    endloop
  endfacet
  facet normal -0.951057 0.309016 -1.37231e-16
    outer loop
      vertex 9.82709 -0.813473 3
      vertex 9.95629 -0.415823 -3
      vertex 9.82709 -0.813473 -3
    endloop
  endfacet
  facet normal -0.866026 0.499999 -2.22044e-16
    outer loop
      vertex 9.82709 -0.813473 3
      vertex 9.82709 -0.813473 -3
      vertex 9.61803 -1.17557 3
    endloop
  endfacet
  facet normal -0.866026 0.499999 -2.22044e-16
    outer loop
      vertex 9.61803 -1.17557 3
      vertex 9.82709 -0.813473 -3
      vertex 9.61803 -1.17557 -3
    endloop
  endfacet
  facet normal -0.743144 0.669131 -2.97154e-16
    outer loop
      vertex 9.61803 -1.17557 3
      vertex 9.61803 -1.17557 -3
      vertex 9.33826 -1.48629 3
    endloop
  endfacet
  facet normal -0.743144 0.669131 -2.97154e-16
    outer loop
      vertex 9.33826 -1.48629 3
      vertex 9.61803 -1.17557 -3
      vertex 9.33826 -1.48629 -3
    endloop
  endfacet
  facet normal -0.587785 0.809017 -3.59276e-16
    outer loop
      vertex 9.33826 -1.48629 3
      vertex 9.33826 -1.48629 -3
      vertex 9 -1.73205 3
    endloop
  endfacet
  facet normal -0.587785 0.809017 -3.59276e-16
    outer loop
      vertex 9 -1.73205 3
      vertex 9.33826 -1.48629 -3
      vertex 9 -1.73205 -3
    endloop
  endfacet
  facet normal -0.406736 0.913546 -4.05696e-16
    outer loop
      vertex 9 -1.73205 3
      vertex 9 -1.73205 -3
      vertex 8.61803 -1.90211 3
    endloop
  endfacet
  facet normal -0.406736 0.913546 -4.05696e-16
    outer loop
      vertex 8.61803 -1.90211 3
      vertex 9 -1.73205 -3
      vertex 8.61803 -1.90211 -3
    endloop
  endfacet
  facet normal -0.207912 0.978147 -4.34385e-16
    outer loop
      vertex 8.61803 -1.90211 3
      vertex 8.61803 -1.90211 -3
      vertex 8.20906 -1.98904 3
    endloop
  endfacet
  facet normal -0.207912 0.978147 -4.34385e-16
    outer loop
      vertex 8.20906 -1.98904 3
      vertex 8.61803 -1.90211 -3
      vertex 8.20906 -1.98904 -3
    endloop
  endfacet
  facet normal 0 1 -4.44089e-16
    outer loop
      vertex 8.20906 -1.98904 3
      vertex 8.20906 -1.98904 -3
      vertex 7.79094 -1.98904 3
    endloop
  endfacet
  facet normal 0 1 -4.44089e-16
    outer loop
      vertex 7.79094 -1.98904 3
      vertex 8.20906 -1.98904 -3
      vertex 7.79094 -1.98904 -3
    endloop
  endfacet
  facet normal 0.207912 0.978147 -4.34385e-16
    outer loop
      vertex 7.79094 -1.98904 3
      vertex 7.79094 -1.98904 -3
      vertex 7.38197 -1.90211 3
    endloop
  endfacet
  facet normal 0.207912 0.978147 -4.34385e-16
    outer loop
      vertex 7.38197 -1.90211 3
      vertex 7.79094 -1.98904 -3
      vertex 7.38197 -1.90211 -3
    endloop
  endfacet
  facet normal 0.406736 0.913546 -4.05696e-16
    outer loop
      vertex 7.38197 -1.90211 3
      vertex 7.38197 -1.90211 -3
      vertex 7 -1.73205 3
    endloop
  endfacet
  facet normal 0.406736 0.913546 -4.05696e-16
    outer loop
      vertex 7 -1.73205 3
      vertex 7.38197 -1.90211 -3
      vertex 7 -1.73205 -3
    endloop
  endfacet
  facet normal 0.587785 0.809017 -3.59276e-16
    outer loop
      vertex 7 -1.73205 3
      vertex 7 -1.73205 -3
      vertex 6.66174 -1.48629 3
    endloop
  endfacet
  facet normal 0.587785 0.809017 -3.59276e-16
    outer loop
      vertex 6.66174 -1.48629 3
      vertex 7 -1.73205 -3
      vertex 6.66174 -1.48629 -3
    endloop
  endfacet
  facet normal 0.743144 0.669131 -2.97154e-16
    outer loop
      vertex 6.38197 -1.17557 3
      vertex 6.66174 -1.48629 3
      vertex 6.66174 -1.48629 -3
    endloop
  endfacet
  facet normal 0.743144 0.669131 -2.97154e-16
    outer loop
      vertex 6.38197 -1.17557 -3
      vertex 6.38197 -1.17557 3
      vertex 6.66174 -1.48629 -3
    endloop
  endfacet
  facet normal 0.866026 0.499999 -2.22044e-16
    outer loop
      vertex 6.17291 -0.813473 3
      vertex 6.38197 -1.17557 3
      vertex 6.38197 -1.17557 -3
    endloop
  endfacet
  facet normal 0.866026 0.499999 -2.22044e-16
    outer loop
      vertex 6.17291 -0.813473 -3
      vertex 6.17291 -0.813473 3
      vertex 6.38197 -1.17557 -3
    endloop
  endfacet
  facet normal 0.951057 0.309016 -1.37231e-16
    outer loop
      vertex 6.04371 -0.415823 3
      vertex 6.17291 -0.813473 3
      vertex 6.17291 -0.813473 -3
    endloop
  endfacet
  facet normal 0.951057 0.309016 -1.37231e-16
    outer loop
      vertex 6.04371 -0.415823 -3
      vertex 6.04371 -0.415823 3
      vertex 6.17291 -0.813473 -3
    endloop
  endfacet
  facet normal 0.996917 1.74215e-17 0.0784594
    outer loop
      vertex -4.06065 -4 3
      vertex -4.04952 -4 2.85862
      vertex -4.04952 4 2.85862
    endloop
  endfacet
  facet normal 0.996917 1.74215e-17 0.0784594
    outer loop
      vertex -4.06065 4 3
      vertex -4.06065 -4 3
      vertex -4.04952 4 2.85862
    endloop
  endfacet
  facet normal 0.97237 5.18351e-17 0.233444
    outer loop
      vertex -3.89933 -4 2.23303
      vertex -3.89933 4 2.23303
      vertex -4.04952 4 2.85862
    endloop
  endfacet
  facet normal 0.97237 5.18351e-17 0.233444
    outer loop
      vertex -4.04952 -4 2.85862
      vertex -3.89933 -4 2.23303
      vertex -4.04952 4 2.85862
    endloop
  endfacet
  facet normal 0.923879 8.49728e-17 0.382684
    outer loop
      vertex -3.65313 -4 1.63864
      vertex -3.65313 4 1.63864
      vertex -3.89933 4 2.23303
    endloop
  endfacet
  facet normal 0.923879 8.49728e-17 0.382684
    outer loop
      vertex -3.89933 -4 2.23303
      vertex -3.65313 -4 1.63864
      vertex -3.89933 4 2.23303
    endloop
  endfacet
  facet normal 0.85264 1.16018e-16 0.522498
    outer loop
      vertex -3.31697 -4 1.09008
      vertex -3.31697 4 1.09008
      vertex -3.65313 4 1.63864
    endloop
  endfacet
  facet normal 0.85264 1.16018e-16 0.522498
    outer loop
      vertex -3.65313 -4 1.63864
      vertex -3.31697 -4 1.09008
      vertex -3.65313 4 1.63864
    endloop
  endfacet
  facet normal 0.760406 1.44207e-16 0.649448
    outer loop
      vertex -2.89914 -4 0.600862
      vertex -2.89914 4 0.600862
      vertex -3.31697 4 1.09008
    endloop
  endfacet
  facet normal 0.760406 1.44207e-16 0.649448
    outer loop
      vertex -3.31697 -4 1.09008
      vertex -2.89914 -4 0.600862
      vertex -3.31697 4 1.09008
    endloop
  endfacet
  facet normal 0.649448 1.68844e-16 0.760406
    outer loop
      vertex -2.40992 -4 0.18303
      vertex -2.40992 4 0.18303
      vertex -2.89914 4 0.600862
    endloop
  endfacet
  facet normal 0.649448 1.68844e-16 0.760406
    outer loop
      vertex -2.89914 -4 0.600862
      vertex -2.40992 -4 0.18303
      vertex -2.89914 4 0.600862
    endloop
  endfacet
  facet normal 0.522498 1.89324e-16 0.85264
    outer loop
      vertex -1.86136 -4 -0.153127
      vertex -1.86136 4 -0.153127
      vertex -2.40992 4 0.18303
    endloop
  endfacet
  facet normal 0.522498 1.89324e-16 0.85264
    outer loop
      vertex -2.40992 -4 0.18303
      vertex -1.86136 -4 -0.153127
      vertex -2.40992 4 0.18303
    endloop
  endfacet
  facet normal 0.382684 2.05142e-16 0.923879
    outer loop
      vertex -1.26697 -4 -0.399332
      vertex -1.26697 4 -0.399332
      vertex -1.86136 4 -0.153127
    endloop
  endfacet
  facet normal 0.382684 2.05142e-16 0.923879
    outer loop
      vertex -1.86136 -4 -0.153127
      vertex -1.26697 -4 -0.399332
      vertex -1.86136 4 -0.153127
    endloop
  endfacet
  facet normal 0.233444 2.1591e-16 0.97237
    outer loop
      vertex -0.641381 -4 -0.549522
      vertex -0.641381 4 -0.549522
      vertex -1.26697 4 -0.399332
    endloop
  endfacet
  facet normal 0.233444 2.1591e-16 0.97237
    outer loop
      vertex -1.26697 -4 -0.399332
      vertex -0.641381 -4 -0.549522
      vertex -1.26697 4 -0.399332
    endloop
  endfacet
  facet normal 0.0784594 2.2136e-16 0.996917
    outer loop
      vertex 0 -4 -0.6
      vertex 0 4 -0.6
      vertex -0.641381 4 -0.549522
    endloop
  endfacet
  facet normal 0.0784594 2.2136e-16 0.996917
    outer loop
      vertex -0.641381 -4 -0.549522
      vertex 0 -4 -0.6
      vertex -0.641381 4 -0.549522
    endloop
  endfacet
  facet normal -0.0784594 2.2136e-16 0.996917
    outer loop
      vertex 0.641381 -4 -0.549522
      vertex 0.641381 4 -0.549522
      vertex 0 4 -0.6
    endloop
  endfacet
  facet normal -0.0784594 2.2136e-16 0.996917
    outer loop
      vertex 0 -4 -0.6
      vertex 0.641381 -4 -0.549522
      vertex 0 4 -0.6
    endloop
  endfacet
  facet normal -0.233444 2.1591e-16 0.97237
    outer loop
      vertex 1.26697 -4 -0.399332
      vertex 1.26697 4 -0.399332
      vertex 0.641381 4 -0.549522
    endloop
  endfacet
  facet normal -0.233444 2.1591e-16 0.97237
    outer loop
      vertex 0.641381 -4 -0.549522
      vertex 1.26697 -4 -0.399332
      vertex 0.641381 4 -0.549522
    endloop
  endfacet
  facet normal -0.382684 2.05142e-16 0.923879
    outer loop
      vertex 1.86136 -4 -0.153127
      vertex 1.86136 4 -0.153127
      vertex 1.26697 4 -0.399332
    endloop
  endfacet
  facet normal -0.382684 2.05142e-16 0.923879
    outer loop
      vertex 1.26697 -4 -0.399332
      vertex 1.86136 -4 -0.153127
      vertex 1.26697 4 -0.399332
    endloop
  endfacet
  facet normal -0.522498 1.89324e-16 0.85264
    outer loop
      vertex 2.40992 -4 0.18303
      vertex 2.40992 4 0.18303
      vertex 1.86136 4 -0.153127
    endloop
  endfacet
  facet normal -0.522498 1.89324e-16 0.85264
    outer loop
      vertex 1.86136 -4 -0.153127
      vertex 2.40992 -4 0.18303
      vertex 1.86136 4 -0.153127
    endloop
  endfacet
  facet normal -0.649448 1.68844e-16 0.760406
    outer loop
      vertex 2.89914 -4 0.600862
      vertex 2.89914 4 0.600862
      vertex 2.40992 4 0.18303
    endloop
  endfacet
  facet normal -0.649448 1.68844e-16 0.760406
    outer loop
      vertex 2.40992 -4 0.18303
      vertex 2.89914 -4 0.600862
      vertex 2.40992 4 0.18303
    endloop
  endfacet
  facet normal -0.760406 1.44207e-16 0.649448
    outer loop
      vertex 3.31697 4 1.09008
      vertex 2.89914 4 0.600862
      vertex 3.31697 -4 1.09008
    endloop
  endfacet
  facet normal -0.760406 1.44207e-16 0.649448
    outer loop
      vertex 3.31697 -4 1.09008
      vertex 2.89914 4 0.600862
      vertex 2.89914 -4 0.600862
    endloop
  endfacet
  facet normal -0.85264 1.16018e-16 0.522498
    outer loop
      vertex 3.65313 4 1.63864
      vertex 3.31697 4 1.09008
      vertex 3.65313 -4 1.63864
    endloop
  endfacet
  facet normal -0.85264 1.16018e-16 0.522498
    outer loop
      vertex 3.65313 -4 1.63864
      vertex 3.31697 4 1.09008
      vertex 3.31697 -4 1.09008
    endloop
  endfacet
  facet normal -0.923879 8.49728e-17 0.382684
    outer loop
      vertex 3.89933 4 2.23303
      vertex 3.65313 4 1.63864
      vertex 3.89933 -4 2.23303
    endloop
  endfacet
  facet normal -0.923879 8.49728e-17 0.382684
    outer loop
      vertex 3.89933 -4 2.23303
      vertex 3.65313 4 1.63864
      vertex 3.65313 -4 1.63864
    endloop
  endfacet
  facet normal -0.97237 5.18351e-17 0.233444
    outer loop
      vertex 4.04952 4 2.85862
      vertex 3.89933 4 2.23303
      vertex 4.04952 -4 2.85862
    endloop
  endfacet
  facet normal -0.97237 5.18351e-17 0.233444
    outer loop
      vertex 4.04952 -4 2.85862
      vertex 3.89933 4 2.23303
      vertex 3.89933 -4 2.23303
    endloop
  endfacet
  facet normal -0.996917 1.74215e-17 0.0784594
    outer loop
      vertex 4.06065 4 3
      vertex 4.04952 4 2.85862
      vertex 4.06065 -4 3
    endloop
  endfacet
  facet normal -0.996917 1.74215e-17 0.0784594
    outer loop
      vertex 4.06065 -4 3
      vertex 4.04952 4 2.85862
      vertex 4.04952 -4 2.85862
    endloop
  endfacet
  facet normal 0 0 1
    outer loop
      vertex 7.38197 -1.90211 3
      vertex 4.06065 -4 3
      vertex 10 -4 3
    endloop
  endfacet
  facet normal 0 0 1
    outer loop
      vertex 9 -1.73205 3
      vertex 10.5635 -3.91899 3
      vertex 10.8308 -3.81926 3
    endloop
  endfacet
  facet normal 0 0 1
    outer loop
      vertex 9.33826 -1.48629 3
      vertex 10.8308 -3.81926 3
      vertex 11.0813 -3.68251 3
    endloop
  endfacet
  facet normal 0 0 1
    outer loop
      vertex 9.61803 -1.17557 3
      vertex 11.5115 -3.30972 3
      vertex 11.6825 -3.08128 3
    endloop
  endfacet
  facet normal 0 0 1
    outer loop
      vertex 9.82709 -0.813473 3
      vertex 11.8193 -2.83083 3
      vertex 11.919 -2.56346 3
    endloop
  endfacet
  facet normal 0 0 1
    outer loop
      vertex 9.61803 -1.17557 3
      vertex 9.33826 -1.48629 3
      vertex 11.3097 -3.5115 3
    endloop
  endfacet
  facet normal 0 0 1
    outer loop
      vertex 7 1.73205 3
      vertex 7.38197 1.90211 3
      vertex 4.06065 4 3
    endloop
  endfacet
  facet normal 0 0 1
    outer loop
      vertex 9.82709 -0.813473 3
      vertex 9.61803 -1.17557 3
      vertex 11.6825 -3.08128 3
    endloop
  endfacet
  facet normal 0 0 1
    outer loop
      vertex 8.20906 1.98904 3
      vertex 8.61803 1.90211 3
      vertex 12 2 3
    endloop
  endfacet
  facet normal 0 0 1
    outer loop
      vertex 11.9796 2.28463 3
      vertex 4.06065 4 3
      vertex 12 2 3
    endloop
  endfacet
  facet normal 0 0 1
    outer loop
      vertex 11.919 2.56346 3
      vertex 4.06065 4 3
      vertex 11.9796 2.28463 3
    endloop
  endfacet
  facet normal 0 0 1
    outer loop
      vertex 11.8193 2.83083 3
      vertex 4.06065 4 3
      vertex 11.919 2.56346 3
    endloop
  endfacet
  facet normal 0 0 1
    outer loop
      vertex 11.6825 3.08128 3
      vertex 4.06065 4 3
      vertex 11.8193 2.83083 3
    endloop
  endfacet
  facet normal 0 0 1
    outer loop
      vertex 11.5115 3.30972 3
      vertex 4.06065 4 3
      vertex 11.6825 3.08128 3
    endloop
  endfacet
  facet normal 0 0 1
    outer loop
      vertex 11.3097 3.5115 3
      vertex 4.06065 4 3
      vertex 11.5115 3.30972 3
    endloop
  endfacet
  facet normal 0 0 1
    outer loop
      vertex 11.0813 3.68251 3
      vertex 4.06065 4 3
      vertex 11.3097 3.5115 3
    endloop
  endfacet
  facet normal 0 0 1
    outer loop
      vertex 10.8308 3.81926 3
      vertex 4.06065 4 3
      vertex 11.0813 3.68251 3
    endloop
  endfacet
  facet normal 0 0 1
    outer loop
      vertex 10.5635 3.91899 3
      vertex 4.06065 4 3
      vertex 10.8308 3.81926 3
    endloop
  endfacet
  facet normal 0 0 1
    outer loop
      vertex 10.2846 3.97964 3
      vertex 4.06065 4 3
      vertex 10.5635 3.91899 3
    endloop
  endfacet
  facet normal 0 0 1
    outer loop
      vertex 10 4 3
      vertex 4.06065 4 3
      vertex 10.2846 3.97964 3
    endloop
  endfacet
  facet normal 0 0 1
    outer loop
      vertex 4.06065 4 3
      vertex 4.06065 -4 3
      vertex 6.04371 -0.415823 3
    endloop
  endfacet
  facet normal 0 0 1
    outer loop
      vertex 7.79094 -1.98904 3
      vertex 7.38197 -1.90211 3
      vertex 10 -4 3
    endloop
  endfacet
  facet normal 0 0 1
    outer loop
      vertex 4.06065 4 3
      vertex 6.04371 -0.415823 3
      vertex 6 5.55112e-16 3
    endloop
  endfacet
  facet normal 0 0 1
    outer loop
      vertex 4.06065 4 3
      vertex 6 5.55112e-16 3
      vertex 6.04371 0.415823 3
    endloop
  endfacet
  facet normal 0 0 1
    outer loop
      vertex 4.06065 4 3
      vertex 6.04371 0.415823 3
      vertex 6.17291 0.813473 3
    endloop
  endfacet
  facet normal 0 0 1
    outer loop
      vertex 8.61803 -1.90211 3
      vertex 8.20906 -1.98904 3
      vertex 10 -4 3
    endloop
  endfacet
  facet normal 0 0 1
    outer loop
      vertex 6.66174 1.48629 3
      vertex 7 1.73205 3
      vertex 4.06065 4 3
    endloop
  endfacet
  facet normal 0 0 1
    outer loop
      vertex 9.33826 -1.48629 3
      vertex 9 -1.73205 3
      vertex 10.8308 -3.81926 3
    endloop
  endfacet
  facet normal 0 0 1
    outer loop
      vertex 9.82709 -0.813473 3
      vertex 11.6825 -3.08128 3
      vertex 11.8193 -2.83083 3
    endloop
  endfacet
  facet normal 0 0 1
    outer loop
      vertex 9.95629 -0.415823 3
      vertex 9.82709 -0.813473 3
      vertex 11.9796 -2.28463 3
    endloop
  endfacet
  facet normal 0 0 1
    outer loop
      vertex 9.95629 -0.415823 3
      vertex 11.9796 -2.28463 3
      vertex 12 -2 3
    endloop
  endfacet
  facet normal 0 0 1
    outer loop
      vertex 7.79094 1.98904 3
      vertex 4.06065 4 3
      vertex 7.38197 1.90211 3
    endloop
  endfacet
  facet normal 0 0 1
    outer loop
      vertex 12 2 3
      vertex 4.06065 4 3
      vertex 7.79094 1.98904 3
    endloop
  endfacet
  facet normal 0 0 1
    outer loop
      vertex 9.61803 1.17557 3
      vertex 9.82709 0.813473 3
      vertex 12 -2 3
    endloop
  endfacet
  facet normal 0 0 1
    outer loop
      vertex 12 2 3
      vertex 7.79094 1.98904 3
      vertex 8.20906 1.98904 3
    endloop
  endfacet
  facet normal 0 0 1
    outer loop
      vertex 10 5.55112e-16 3
      vertex 9.95629 -0.415823 3
      vertex 12 -2 3
    endloop
  endfacet
  facet normal 0 0 1
    outer loop
      vertex 9.95629 0.415823 3
      vertex 10 5.55112e-16 3
      vertex 12 -2 3
    endloop
  endfacet
  facet normal 0 0 1
    outer loop
      vertex 12 2 3
      vertex 8.61803 1.90211 3
      vertex 9 1.73205 3
    endloop
  endfacet
  facet normal 0 0 1
    outer loop
      vertex 9.82709 0.813473 3
      vertex 9.95629 0.415823 3
      vertex 12 -2 3
    endloop
  endfacet
  facet normal 0 0 1
    outer loop
      vertex 12 2 3
      vertex 9 1.73205 3
      vertex 9.33826 1.48629 3
    endloop
  endfacet
  facet normal 0 0 1
    outer loop
      vertex 12 2 3
      vertex 9.61803 1.17557 3
      vertex 12 -2 3
    endloop
  endfacet
  facet normal 0 0 1
    outer loop
      vertex 12 2 3
      vertex 9.33826 1.48629 3
      vertex 9.61803 1.17557 3
    endloop
  endfacet
  facet normal 0 0 1
    outer loop
      vertex 11.9796 -2.28463 3
      vertex 9.82709 -0.813473 3
      vertex 11.919 -2.56346 3
    endloop
  endfacet
  facet normal 0 0 1
    outer loop
      vertex 9 -1.73205 3
      vertex 8.61803 -1.90211 3
      vertex 10.2846 -3.97964 3
    endloop
  endfacet
  facet normal 0 0 1
    outer loop
      vertex 11.3097 -3.5115 3
      vertex 9.33826 -1.48629 3
      vertex 11.0813 -3.68251 3
    endloop
  endfacet
  facet normal 0 0 1
    outer loop
      vertex 9.61803 -1.17557 3
      vertex 11.3097 -3.5115 3
      vertex 11.5115 -3.30972 3
    endloop
  endfacet
  facet normal 0 0 1
    outer loop
      vertex 10.2846 -3.97964 3
      vertex 8.61803 -1.90211 3
      vertex 10 -4 3
    endloop
  endfacet
  facet normal 0 0 1
    outer loop
      vertex 9 -1.73205 3
      vertex 10.2846 -3.97964 3
      vertex 10.5635 -3.91899 3
    endloop
  endfacet
  facet normal 0 0 1
    outer loop
      vertex 7 -1.73205 3
      vertex 4.06065 -4 3
      vertex 7.38197 -1.90211 3
    endloop
  endfacet
  facet normal 0 0 1
    outer loop
      vertex 6.66174 -1.48629 3
      vertex 4.06065 -4 3
      vertex 7 -1.73205 3
    endloop
  endfacet
  facet normal 0 0 1
    outer loop
      vertex 6.38197 -1.17557 3
      vertex 4.06065 -4 3
      vertex 6.66174 -1.48629 3
    endloop
  endfacet
  facet normal 0 0 1
    outer loop
      vertex 6.17291 -0.813473 3
      vertex 4.06065 -4 3
      vertex 6.38197 -1.17557 3
    endloop
  endfacet
  facet normal 0 0 1
    outer loop
      vertex 6.04371 -0.415823 3
      vertex 4.06065 -4 3
      vertex 6.17291 -0.813473 3
    endloop
  endfacet
  facet normal 0 0 1
    outer loop
      vertex 8.20906 -1.98904 3
      vertex 7.79094 -1.98904 3
      vertex 10 -4 3
    endloop
  endfacet
  facet normal 0 0 1
    outer loop
      vertex 6.17291 0.813473 3
      vertex 6.38197 1.17557 3
      vertex 4.06065 4 3
    endloop
  endfacet
  facet normal 0 0 1
    outer loop
      vertex 6.38197 1.17557 3
      vertex 6.66174 1.48629 3
      vertex 4.06065 4 3
    endloop
  endfacet
endsolid OpenSCAD_Model
