  0
SECTION
  2
BLOCKS
  0
ENDSEC
  0
SECTION
  2
ENTITIES
  0
LINE
  8
0
 10
97.1096
 11
104.36
 20
12.6525
 21
20.4178
  0
LINE
  8
0
 10
104.36
 11
104.73
 20
20.4178
 21
20.8216
  0
LINE
  8
0
 10
104.73
 11
105.075
 20
20.8216
 21
21.2715
  0
LINE
  8
0
 10
105.075
 11
105.38
 20
21.2715
 21
21.7498
  0
LINE
  8
0
 10
105.38
 11
105.641
 20
21.7498
 21
22.2528
  0
LINE
  8
0
 10
105.641
 11
105.858
 20
22.2528
 21
22.7767
  0
LINE
  8
0
 10
105.858
 11
106.029
 20
22.7767
 21
23.3176
  0
LINE
  8
0
 10
106.029
 11
106.152
 20
23.3176
 21
23.8712
  0
LINE
  8
0
 10
106.152
 11
106.226
 20
23.8712
 21
24.4334
  0
LINE
  8
0
 10
106.226
 11
106.25
 20
24.4334
 21
25
  0
LINE
  8
0
 10
106.25
 11
106.226
 20
25
 21
25.5666
  0
LINE
  8
0
 10
106.226
 11
106.152
 20
25.5666
 21
26.1288
  0
LINE
  8
0
 10
106.152
 11
106.029
 20
26.1288
 21
26.6824
  0
LINE
  8
0
 10
106.029
 11
105.858
 20
26.6824
 21
27.2233
  0
LINE
  8
0
 10
105.858
 11
105.641
 20
27.2233
 21
27.7472
  0
LINE
  8
0
 10
105.641
 11
105.38
 20
27.7472
 21
28.2502
  0
LINE
  8
0
 10
105.38
 11
105.075
 20
28.2502
 21
28.7285
  0
LINE
  8
0
 10
105.075
 11
104.73
 20
28.7285
 21
29.1784
  0
LINE
  8
0
 10
104.73
 11
104.36
 20
29.1784
 21
29.5821
  0
LINE
  8
0
 10
104.36
 11
97.1096
 20
29.5821
 21
37.3475
  0
LINE
  8
0
 10
97.1096
 11
93.9571
 20
37.3475
 21
40.5
  0
LINE
  8
0
 10
93.9571
 11
74.0429
 20
40.5
 21
40.5
  0
LINE
  8
0
 10
74.0429
 11
70.75
 20
40.5
 21
37.2071
  0
LINE
  8
0
 10
70.75
 11
70.75
 20
37.2071
 21
12.7929
  0
LINE
  8
0
 10
70.75
 11
74.0429
 20
12.7929
 21
9.5
  0
LINE
  8
0
 10
74.0429
 11
93.9571
 20
9.5
 21
9.5
  0
LINE
  8
0
 10
93.9571
 11
97.1096
 20
9.5
 21
12.6525
  0
LINE
  8
0
 10
99.4043
 11
99.0821
 20
23.7098
 21
23.8433
  0
LINE
  8
0
 10
99.0821
 11
98.8055
 20
23.8433
 21
24.0555
  0
LINE
  8
0
 10
98.8055
 11
98.5933
 20
24.0555
 21
24.3322
  0
LINE
  8
0
 10
98.5933
 11
98.4598
 20
24.3322
 21
24.6543
  0
LINE
  8
0
 10
98.4598
 11
98.4143
 20
24.6543
 21
25
  0
LINE
  8
0
 10
98.4143
 11
98.4598
 20
25
 21
25.3457
  0
LINE
  8
0
 10
98.4598
 11
98.5933
 20
25.3457
 21
25.6678
  0
LINE
  8
0
 10
98.5933
 11
98.8055
 20
25.6678
 21
25.9445
  0
LINE
  8
0
 10
98.8055
 11
99.0821
 20
25.9445
 21
26.1567
  0
LINE
  8
0
 10
99.0821
 11
99.4043
 20
26.1567
 21
26.2902
  0
LINE
  8
0
 10
99.4043
 11
99.75
 20
26.2902
 21
26.3357
  0
LINE
  8
0
 10
99.75
 11
100.096
 20
26.3357
 21
26.2902
  0
LINE
  8
0
 10
100.096
 11
100.418
 20
26.2902
 21
26.1567
  0
LINE
  8
0
 10
100.418
 11
100.694
 20
26.1567
 21
25.9445
  0
LINE
  8
0
 10
100.694
 11
100.907
 20
25.9445
 21
25.6678
  0
LINE
  8
0
 10
100.907
 11
101.04
 20
25.6678
 21
25.3457
  0
LINE
  8
0
 10
101.04
 11
101.086
 20
25.3457
 21
25
  0
LINE
  8
0
 10
101.086
 11
101.04
 20
25
 21
24.6543
  0
LINE
  8
0
 10
101.04
 11
100.907
 20
24.6543
 21
24.3322
  0
LINE
  8
0
 10
100.907
 11
100.694
 20
24.3322
 21
24.0555
  0
LINE
  8
0
 10
100.694
 11
100.418
 20
24.0555
 21
23.8433
  0
LINE
  8
0
 10
100.418
 11
100.096
 20
23.8433
 21
23.7098
  0
LINE
  8
0
 10
100.096
 11
99.75
 20
23.7098
 21
23.6643
  0
LINE
  8
0
 10
99.75
 11
99.4043
 20
23.6643
 21
23.7098
  0
LINE
  8
0
 10
-70.75
 11
-70.75
 20
12.7929
 21
37.2071
  0
LINE
  8
0
 10
-70.75
 11
-74.0429
 20
37.2071
 21
40.5
  0
LINE
  8
0
 10
-74.0429
 11
-93.9571
 20
40.5
 21
40.5
  0
LINE
  8
0
 10
-93.9571
 11
-97.1096
 20
40.5
 21
37.3475
  0
LINE
  8
0
 10
-97.1096
 11
-104.36
 20
37.3475
 21
29.5821
  0
LINE
  8
0
 10
-104.36
 11
-104.73
 20
29.5821
 21
29.1784
  0
LINE
  8
0
 10
-104.73
 11
-105.075
 20
29.1784
 21
28.7285
  0
LINE
  8
0
 10
-105.075
 11
-105.38
 20
28.7285
 21
28.2502
  0
LINE
  8
0
 10
-105.38
 11
-105.641
 20
28.2502
 21
27.7472
  0
LINE
  8
0
 10
-105.641
 11
-105.858
 20
27.7472
 21
27.2233
  0
LINE
  8
0
 10
-105.858
 11
-106.029
 20
27.2233
 21
26.6824
  0
LINE
  8
0
 10
-106.029
 11
-106.152
 20
26.6824
 21
26.1288
  0
LINE
  8
0
 10
-106.152
 11
-106.226
 20
26.1288
 21
25.5666
  0
LINE
  8
0
 10
-106.226
 11
-106.25
 20
25.5666
 21
25
  0
LINE
  8
0
 10
-106.25
 11
-106.226
 20
25
 21
24.4334
  0
LINE
  8
0
 10
-106.226
 11
-106.152
 20
24.4334
 21
23.8712
  0
LINE
  8
0
 10
-106.152
 11
-106.029
 20
23.8712
 21
23.3176
  0
LINE
  8
0
 10
-106.029
 11
-105.858
 20
23.3176
 21
22.7767
  0
LINE
  8
0
 10
-105.858
 11
-105.641
 20
22.7767
 21
22.2528
  0
LINE
  8
0
 10
-105.641
 11
-105.38
 20
22.2528
 21
21.7498
  0
LINE
  8
0
 10
-105.38
 11
-105.075
 20
21.7498
 21
21.2715
  0
LINE
  8
0
 10
-105.075
 11
-104.73
 20
21.2715
 21
20.8216
  0
LINE
  8
0
 10
-104.73
 11
-104.36
 20
20.8216
 21
20.4178
  0
LINE
  8
0
 10
-104.36
 11
-97.1096
 20
20.4178
 21
12.6525
  0
LINE
  8
0
 10
-97.1096
 11
-93.9571
 20
12.6525
 21
9.5
  0
LINE
  8
0
 10
-93.9571
 11
-74.0429
 20
9.5
 21
9.5
  0
LINE
  8
0
 10
-74.0429
 11
-70.75
 20
9.5
 21
12.7929
  0
LINE
  8
0
 10
-100.096
 11
-100.418
 20
23.7098
 21
23.8433
  0
LINE
  8
0
 10
-100.418
 11
-100.694
 20
23.8433
 21
24.0555
  0
LINE
  8
0
 10
-100.694
 11
-100.907
 20
24.0555
 21
24.3322
  0
LINE
  8
0
 10
-100.907
 11
-101.04
 20
24.3322
 21
24.6543
  0
LINE
  8
0
 10
-101.04
 11
-101.086
 20
24.6543
 21
25
  0
LINE
  8
0
 10
-101.086
 11
-101.04
 20
25
 21
25.3457
  0
LINE
  8
0
 10
-101.04
 11
-100.907
 20
25.3457
 21
25.6678
  0
LINE
  8
0
 10
-100.907
 11
-100.694
 20
25.6678
 21
25.9445
  0
LINE
  8
0
 10
-100.694
 11
-100.418
 20
25.9445
 21
26.1567
  0
LINE
  8
0
 10
-100.418
 11
-100.096
 20
26.1567
 21
26.2902
  0
LINE
  8
0
 10
-100.096
 11
-99.75
 20
26.2902
 21
26.3357
  0
LINE
  8
0
 10
-99.75
 11
-99.4043
 20
26.3357
 21
26.2902
  0
LINE
  8
0
 10
-99.4043
 11
-99.0821
 20
26.2902
 21
26.1567
  0
LINE
  8
0
 10
-99.0821
 11
-98.8055
 20
26.1567
 21
25.9445
  0
LINE
  8
0
 10
-98.8055
 11
-98.5933
 20
25.9445
 21
25.6678
  0
LINE
  8
0
 10
-98.5933
 11
-98.4598
 20
25.6678
 21
25.3457
  0
LINE
  8
0
 10
-98.4598
 11
-98.4143
 20
25.3457
 21
25
  0
LINE
  8
0
 10
-98.4143
 11
-98.4598
 20
25
 21
24.6543
  0
LINE
  8
0
 10
-98.4598
 11
-98.5933
 20
24.6543
 21
24.3322
  0
LINE
  8
0
 10
-98.5933
 11
-98.8055
 20
24.3322
 21
24.0555
  0
LINE
  8
0
 10
-98.8055
 11
-99.0821
 20
24.0555
 21
23.8433
  0
LINE
  8
0
 10
-99.0821
 11
-99.4043
 20
23.8433
 21
23.7098
  0
LINE
  8
0
 10
-99.4043
 11
-99.75
 20
23.7098
 21
23.6643
  0
LINE
  8
0
 10
-99.75
 11
-100.096
 20
23.6643
 21
23.7098
  0
LINE
  8
0
 10
8.49828
 11
8.98642
 20
-15.4656
 21
-15.3595
  0
LINE
  8
0
 10
8.98642
 11
9.45447
 20
-15.3595
 21
-15.1849
  0
LINE
  8
0
 10
9.45447
 11
9.89293
 20
-15.1849
 21
-14.9455
  0
LINE
  8
0
 10
9.89293
 11
10.2928
 20
-14.9455
 21
-14.6461
  0
LINE
  8
0
 10
10.2928
 11
10.6461
 20
-14.6461
 21
-14.2928
  0
LINE
  8
0
 10
10.6461
 11
10.9455
 20
-14.2928
 21
-13.8929
  0
LINE
  8
0
 10
10.9455
 11
11.1849
 20
-13.8929
 21
-13.4545
  0
LINE
  8
0
 10
11.1849
 11
11.3595
 20
-13.4545
 21
-12.9864
  0
LINE
  8
0
 10
11.3595
 11
11.4656
 20
-12.9864
 21
-12.4983
  0
LINE
  8
0
 10
11.4656
 11
11.5
 20
-12.4983
 21
-12.0179
  0
LINE
  8
0
 10
11.5
 11
11.5
 20
-12.0179
 21
12.0179
  0
LINE
  8
0
 10
11.5
 11
11.4656
 20
12.0179
 21
12.4983
  0
LINE
  8
0
 10
11.4656
 11
11.3595
 20
12.4983
 21
12.9864
  0
LINE
  8
0
 10
11.3595
 11
11.1849
 20
12.9864
 21
13.4545
  0
LINE
  8
0
 10
11.1849
 11
10.9455
 20
13.4545
 21
13.8929
  0
LINE
  8
0
 10
10.9455
 11
10.6461
 20
13.8929
 21
14.2928
  0
LINE
  8
0
 10
10.6461
 11
10.2928
 20
14.2928
 21
14.6461
  0
LINE
  8
0
 10
10.2928
 11
9.89293
 20
14.6461
 21
14.9455
  0
LINE
  8
0
 10
9.89293
 11
9.45447
 20
14.9455
 21
15.1849
  0
LINE
  8
0
 10
9.45447
 11
8.98642
 20
15.1849
 21
15.3595
  0
LINE
  8
0
 10
8.98642
 11
8.49828
 20
15.3595
 21
15.4656
  0
LINE
  8
0
 10
8.49828
 11
8.01787
 20
15.4656
 21
15.5
  0
LINE
  8
0
 10
8.01787
 11
-8.01787
 20
15.5
 21
15.5
  0
LINE
  8
0
 10
-8.01787
 11
-8.49828
 20
15.5
 21
15.4656
  0
LINE
  8
0
 10
-8.49828
 11
-8.98642
 20
15.4656
 21
15.3595
  0
LINE
  8
0
 10
-8.98642
 11
-9.45447
 20
15.3595
 21
15.1849
  0
LINE
  8
0
 10
-9.45447
 11
-9.89293
 20
15.1849
 21
14.9455
  0
LINE
  8
0
 10
-9.89293
 11
-10.2928
 20
14.9455
 21
14.6461
  0
LINE
  8
0
 10
-10.2928
 11
-10.6461
 20
14.6461
 21
14.2928
  0
LINE
  8
0
 10
-10.6461
 11
-10.9455
 20
14.2928
 21
13.8929
  0
LINE
  8
0
 10
-10.9455
 11
-11.1849
 20
13.8929
 21
13.4545
  0
LINE
  8
0
 10
-11.1849
 11
-11.3595
 20
13.4545
 21
12.9864
  0
LINE
  8
0
 10
-11.3595
 11
-11.4656
 20
12.9864
 21
12.4983
  0
LINE
  8
0
 10
-11.4656
 11
-11.5
 20
12.4983
 21
12.0179
  0
LINE
  8
0
 10
-11.5
 11
-11.5
 20
12.0179
 21
-12.0179
  0
LINE
  8
0
 10
-11.5
 11
-11.4656
 20
-12.0179
 21
-12.4983
  0
LINE
  8
0
 10
-11.4656
 11
-11.3595
 20
-12.4983
 21
-12.9864
  0
LINE
  8
0
 10
-11.3595
 11
-11.1849
 20
-12.9864
 21
-13.4545
  0
LINE
  8
0
 10
-11.1849
 11
-10.9455
 20
-13.4545
 21
-13.8929
  0
LINE
  8
0
 10
-10.9455
 11
-10.6461
 20
-13.8929
 21
-14.2928
  0
LINE
  8
0
 10
-10.6461
 11
-10.2928
 20
-14.2928
 21
-14.6461
  0
LINE
  8
0
 10
-10.2928
 11
-9.89293
 20
-14.6461
 21
-14.9455
  0
LINE
  8
0
 10
-9.89293
 11
-9.45447
 20
-14.9455
 21
-15.1849
  0
LINE
  8
0
 10
-9.45447
 11
-8.98642
 20
-15.1849
 21
-15.3595
  0
LINE
  8
0
 10
-8.98642
 11
-8.49828
 20
-15.3595
 21
-15.4656
  0
LINE
  8
0
 10
-8.49828
 11
-8.01787
 20
-15.4656
 21
-15.5
  0
LINE
  8
0
 10
-8.01787
 11
8.01787
 20
-15.5
 21
-15.5
  0
LINE
  8
0
 10
8.01787
 11
8.49828
 20
-15.5
 21
-15.4656
  0
LINE
  8
0
 10
-0.345688
 11
-0.667831
 20
3.70982
 21
3.84326
  0
LINE
  8
0
 10
-0.667831
 11
-0.944458
 20
3.84326
 21
4.05553
  0
LINE
  8
0
 10
-0.944458
 11
-1.15672
 20
4.05553
 21
4.33215
  0
LINE
  8
0
 10
-1.15672
 11
-1.29016
 20
4.33215
 21
4.6543
  0
LINE
  8
0
 10
-1.29016
 11
-1.33568
 20
4.6543
 21
4.99998
  0
LINE
  8
0
 10
-1.33568
 11
-1.29016
 20
4.99998
 21
5.34567
  0
LINE
  8
0
 10
-1.29016
 11
-1.15672
 20
5.34567
 21
5.66785
  0
LINE
  8
0
 10
-1.15672
 11
-0.944458
 20
5.66785
 21
5.94446
  0
LINE
  8
0
 10
-0.944458
 11
-0.667831
 20
5.94446
 21
6.15672
  0
LINE
  8
0
 10
-0.667831
 11
-0.345688
 20
6.15672
 21
6.29016
  0
LINE
  8
0
 10
-0.345688
 11
0
 20
6.29016
 21
6.33568
  0
LINE
  8
0
 10
0
 11
0.345688
 20
6.33568
 21
6.29016
  0
LINE
  8
0
 10
0.345688
 11
0.667831
 20
6.29016
 21
6.15672
  0
LINE
  8
0
 10
0.667831
 11
0.944458
 20
6.15672
 21
5.94446
  0
LINE
  8
0
 10
0.944458
 11
1.15672
 20
5.94446
 21
5.66785
  0
LINE
  8
0
 10
1.15672
 11
1.29016
 20
5.66785
 21
5.34567
  0
LINE
  8
0
 10
1.29016
 11
1.33568
 20
5.34567
 21
4.99998
  0
LINE
  8
0
 10
1.33568
 11
1.29016
 20
4.99998
 21
4.6543
  0
LINE
  8
0
 10
1.29016
 11
1.15672
 20
4.6543
 21
4.33215
  0
LINE
  8
0
 10
1.15672
 11
0.944458
 20
4.33215
 21
4.05553
  0
LINE
  8
0
 10
0.944458
 11
0.667831
 20
4.05553
 21
3.84326
  0
LINE
  8
0
 10
0.667831
 11
0.345688
 20
3.84326
 21
3.70982
  0
LINE
  8
0
 10
0.345688
 11
0
 20
3.70982
 21
3.66431
  0
LINE
  8
0
 10
0
 11
-0.345688
 20
3.66431
 21
3.70982
  0
LINE
  8
0
 10
-0.345688
 11
-0.667831
 20
-6.29016
 21
-6.15672
  0
LINE
  8
0
 10
-0.667831
 11
-0.944458
 20
-6.15672
 21
-5.94446
  0
LINE
  8
0
 10
-0.944458
 11
-1.15672
 20
-5.94446
 21
-5.66783
  0
LINE
  8
0
 10
-1.15672
 11
-1.29016
 20
-5.66783
 21
-5.34569
  0
LINE
  8
0
 10
-1.29016
 11
-1.33568
 20
-5.34569
 21
-5
  0
LINE
  8
0
 10
-1.33568
 11
-1.29016
 20
-5
 21
-4.65431
  0
LINE
  8
0
 10
-1.29016
 11
-1.15672
 20
-4.65431
 21
-4.33214
  0
LINE
  8
0
 10
-1.15672
 11
-0.944458
 20
-4.33214
 21
-4.05553
  0
LINE
  8
0
 10
-0.944458
 11
-0.667831
 20
-4.05553
 21
-3.84326
  0
LINE
  8
0
 10
-0.667831
 11
-0.345688
 20
-3.84326
 21
-3.70982
  0
LINE
  8
0
 10
-0.345688
 11
0
 20
-3.70982
 21
-3.66431
  0
LINE
  8
0
 10
0
 11
0.345688
 20
-3.66431
 21
-3.70982
  0
LINE
  8
0
 10
0.345688
 11
0.667831
 20
-3.70982
 21
-3.84326
  0
LINE
  8
0
 10
0.667831
 11
0.944458
 20
-3.84326
 21
-4.05553
  0
LINE
  8
0
 10
0.944458
 11
1.15672
 20
-4.05553
 21
-4.33214
  0
LINE
  8
0
 10
1.15672
 11
1.29016
 20
-4.33214
 21
-4.65431
  0
LINE
  8
0
 10
1.29016
 11
1.33568
 20
-4.65431
 21
-5
  0
LINE
  8
0
 10
1.33568
 11
1.29016
 20
-5
 21
-5.34569
  0
LINE
  8
0
 10
1.29016
 11
1.15672
 20
-5.34569
 21
-5.66783
  0
LINE
  8
0
 10
1.15672
 11
0.944458
 20
-5.66783
 21
-5.94446
  0
LINE
  8
0
 10
0.944458
 11
0.667831
 20
-5.94446
 21
-6.15672
  0
LINE
  8
0
 10
0.667831
 11
0.345688
 20
-6.15672
 21
-6.29016
  0
LINE
  8
0
 10
0.345688
 11
0
 20
-6.29016
 21
-6.33568
  0
LINE
  8
0
 10
0
 11
-0.345688
 20
-6.33568
 21
-6.29016
  0
LINE
  8
0
 10
97.1096
 11
104.36
 20
-37.3475
 21
-29.5821
  0
LINE
  8
0
 10
104.36
 11
104.73
 20
-29.5821
 21
-29.1784
  0
LINE
  8
0
 10
104.73
 11
105.075
 20
-29.1784
 21
-28.7285
  0
LINE
  8
0
 10
105.075
 11
105.38
 20
-28.7285
 21
-28.2502
  0
LINE
  8
0
 10
105.38
 11
105.641
 20
-28.2502
 21
-27.7472
  0
LINE
  8
0
 10
105.641
 11
105.858
 20
-27.7472
 21
-27.2233
  0
LINE
  8
0
 10
105.858
 11
106.029
 20
-27.2233
 21
-26.6824
  0
LINE
  8
0
 10
106.029
 11
106.152
 20
-26.6824
 21
-26.1288
  0
LINE
  8
0
 10
106.152
 11
106.226
 20
-26.1288
 21
-25.5666
  0
LINE
  8
0
 10
106.226
 11
106.25
 20
-25.5666
 21
-25
  0
LINE
  8
0
 10
106.25
 11
106.226
 20
-25
 21
-24.4334
  0
LINE
  8
0
 10
106.226
 11
106.152
 20
-24.4334
 21
-23.8712
  0
LINE
  8
0
 10
106.152
 11
106.029
 20
-23.8712
 21
-23.3176
  0
LINE
  8
0
 10
106.029
 11
105.858
 20
-23.3176
 21
-22.7767
  0
LINE
  8
0
 10
105.858
 11
105.641
 20
-22.7767
 21
-22.2528
  0
LINE
  8
0
 10
105.641
 11
105.38
 20
-22.2528
 21
-21.7498
  0
LINE
  8
0
 10
105.38
 11
105.075
 20
-21.7498
 21
-21.2715
  0
LINE
  8
0
 10
105.075
 11
104.73
 20
-21.2715
 21
-20.8216
  0
LINE
  8
0
 10
104.73
 11
104.36
 20
-20.8216
 21
-20.4178
  0
LINE
  8
0
 10
104.36
 11
97.1096
 20
-20.4178
 21
-12.6525
  0
LINE
  8
0
 10
97.1096
 11
93.9571
 20
-12.6525
 21
-9.5
  0
LINE
  8
0
 10
93.9571
 11
74.0429
 20
-9.5
 21
-9.5
  0
LINE
  8
0
 10
74.0429
 11
70.75
 20
-9.5
 21
-12.7929
  0
LINE
  8
0
 10
70.75
 11
70.75
 20
-12.7929
 21
-37.2071
  0
LINE
  8
0
 10
70.75
 11
74.0429
 20
-37.2071
 21
-40.5
  0
LINE
  8
0
 10
74.0429
 11
93.9571
 20
-40.5
 21
-40.5
  0
LINE
  8
0
 10
93.9571
 11
97.1096
 20
-40.5
 21
-37.3475
  0
LINE
  8
0
 10
99.4043
 11
99.0821
 20
-26.2902
 21
-26.1567
  0
LINE
  8
0
 10
99.0821
 11
98.8055
 20
-26.1567
 21
-25.9445
  0
LINE
  8
0
 10
98.8055
 11
98.5933
 20
-25.9445
 21
-25.6678
  0
LINE
  8
0
 10
98.5933
 11
98.4598
 20
-25.6678
 21
-25.3457
  0
LINE
  8
0
 10
98.4598
 11
98.4143
 20
-25.3457
 21
-25
  0
LINE
  8
0
 10
98.4143
 11
98.4598
 20
-25
 21
-24.6543
  0
LINE
  8
0
 10
98.4598
 11
98.5933
 20
-24.6543
 21
-24.3321
  0
LINE
  8
0
 10
98.5933
 11
98.8055
 20
-24.3321
 21
-24.0555
  0
LINE
  8
0
 10
98.8055
 11
99.0821
 20
-24.0555
 21
-23.8433
  0
LINE
  8
0
 10
99.0821
 11
99.4043
 20
-23.8433
 21
-23.7098
  0
LINE
  8
0
 10
99.4043
 11
99.75
 20
-23.7098
 21
-23.6643
  0
LINE
  8
0
 10
99.75
 11
100.096
 20
-23.6643
 21
-23.7098
  0
LINE
  8
0
 10
100.096
 11
100.418
 20
-23.7098
 21
-23.8433
  0
LINE
  8
0
 10
100.418
 11
100.694
 20
-23.8433
 21
-24.0555
  0
LINE
  8
0
 10
100.694
 11
100.907
 20
-24.0555
 21
-24.3321
  0
LINE
  8
0
 10
100.907
 11
101.04
 20
-24.3321
 21
-24.6543
  0
LINE
  8
0
 10
101.04
 11
101.086
 20
-24.6543
 21
-25
  0
LINE
  8
0
 10
101.086
 11
101.04
 20
-25
 21
-25.3457
  0
LINE
  8
0
 10
101.04
 11
100.907
 20
-25.3457
 21
-25.6678
  0
LINE
  8
0
 10
100.907
 11
100.694
 20
-25.6678
 21
-25.9445
  0
LINE
  8
0
 10
100.694
 11
100.418
 20
-25.9445
 21
-26.1567
  0
LINE
  8
0
 10
100.418
 11
100.096
 20
-26.1567
 21
-26.2902
  0
LINE
  8
0
 10
100.096
 11
99.75
 20
-26.2902
 21
-26.3357
  0
LINE
  8
0
 10
99.75
 11
99.4043
 20
-26.3357
 21
-26.2902
  0
LINE
  8
0
 10
-70.75
 11
-70.75
 20
-37.2071
 21
-12.7929
  0
LINE
  8
0
 10
-70.75
 11
-74.0429
 20
-12.7929
 21
-9.5
  0
LINE
  8
0
 10
-74.0429
 11
-93.9571
 20
-9.5
 21
-9.5
  0
LINE
  8
0
 10
-93.9571
 11
-97.1096
 20
-9.5
 21
-12.6525
  0
LINE
  8
0
 10
-97.1096
 11
-104.36
 20
-12.6525
 21
-20.4178
  0
LINE
  8
0
 10
-104.36
 11
-104.73
 20
-20.4178
 21
-20.8216
  0
LINE
  8
0
 10
-104.73
 11
-105.075
 20
-20.8216
 21
-21.2715
  0
LINE
  8
0
 10
-105.075
 11
-105.38
 20
-21.2715
 21
-21.7498
  0
LINE
  8
0
 10
-105.38
 11
-105.641
 20
-21.7498
 21
-22.2528
  0
LINE
  8
0
 10
-105.641
 11
-105.858
 20
-22.2528
 21
-22.7767
  0
LINE
  8
0
 10
-105.858
 11
-106.029
 20
-22.7767
 21
-23.3176
  0
LINE
  8
0
 10
-106.029
 11
-106.152
 20
-23.3176
 21
-23.8712
  0
LINE
  8
0
 10
-106.152
 11
-106.226
 20
-23.8712
 21
-24.4334
  0
LINE
  8
0
 10
-106.226
 11
-106.25
 20
-24.4334
 21
-25
  0
LINE
  8
0
 10
-106.25
 11
-106.226
 20
-25
 21
-25.5666
  0
LINE
  8
0
 10
-106.226
 11
-106.152
 20
-25.5666
 21
-26.1288
  0
LINE
  8
0
 10
-106.152
 11
-106.029
 20
-26.1288
 21
-26.6824
  0
LINE
  8
0
 10
-106.029
 11
-105.858
 20
-26.6824
 21
-27.2233
  0
LINE
  8
0
 10
-105.858
 11
-105.641
 20
-27.2233
 21
-27.7472
  0
LINE
  8
0
 10
-105.641
 11
-105.38
 20
-27.7472
 21
-28.2502
  0
LINE
  8
0
 10
-105.38
 11
-105.075
 20
-28.2502
 21
-28.7285
  0
LINE
  8
0
 10
-105.075
 11
-104.73
 20
-28.7285
 21
-29.1784
  0
LINE
  8
0
 10
-104.73
 11
-104.36
 20
-29.1784
 21
-29.5821
  0
LINE
  8
0
 10
-104.36
 11
-97.1096
 20
-29.5821
 21
-37.3475
  0
LINE
  8
0
 10
-97.1096
 11
-93.9571
 20
-37.3475
 21
-40.5
  0
LINE
  8
0
 10
-93.9571
 11
-74.0429
 20
-40.5
 21
-40.5
  0
LINE
  8
0
 10
-74.0429
 11
-70.75
 20
-40.5
 21
-37.2071
  0
LINE
  8
0
 10
-100.096
 11
-100.418
 20
-26.2902
 21
-26.1567
  0
LINE
  8
0
 10
-100.418
 11
-100.694
 20
-26.1567
 21
-25.9445
  0
LINE
  8
0
 10
-100.694
 11
-100.907
 20
-25.9445
 21
-25.6678
  0
LINE
  8
0
 10
-100.907
 11
-101.04
 20
-25.6678
 21
-25.3457
  0
LINE
  8
0
 10
-101.04
 11
-101.086
 20
-25.3457
 21
-25
  0
LINE
  8
0
 10
-101.086
 11
-101.04
 20
-25
 21
-24.6543
  0
LINE
  8
0
 10
-101.04
 11
-100.907
 20
-24.6543
 21
-24.3321
  0
LINE
  8
0
 10
-100.907
 11
-100.694
 20
-24.3321
 21
-24.0555
  0
LINE
  8
0
 10
-100.694
 11
-100.418
 20
-24.0555
 21
-23.8433
  0
LINE
  8
0
 10
-100.418
 11
-100.096
 20
-23.8433
 21
-23.7098
  0
LINE
  8
0
 10
-100.096
 11
-99.75
 20
-23.7098
 21
-23.6643
  0
LINE
  8
0
 10
-99.75
 11
-99.4043
 20
-23.6643
 21
-23.7098
  0
LINE
  8
0
 10
-99.4043
 11
-99.0821
 20
-23.7098
 21
-23.8433
  0
LINE
  8
0
 10
-99.0821
 11
-98.8055
 20
-23.8433
 21
-24.0555
  0
LINE
  8
0
 10
-98.8055
 11
-98.5933
 20
-24.0555
 21
-24.3321
  0
LINE
  8
0
 10
-98.5933
 11
-98.4598
 20
-24.3321
 21
-24.6543
  0
LINE
  8
0
 10
-98.4598
 11
-98.4143
 20
-24.6543
 21
-25
  0
LINE
  8
0
 10
-98.4143
 11
-98.4598
 20
-25
 21
-25.3457
  0
LINE
  8
0
 10
-98.4598
 11
-98.5933
 20
-25.3457
 21
-25.6678
  0
LINE
  8
0
 10
-98.5933
 11
-98.8055
 20
-25.6678
 21
-25.9445
  0
LINE
  8
0
 10
-98.8055
 11
-99.0821
 20
-25.9445
 21
-26.1567
  0
LINE
  8
0
 10
-99.0821
 11
-99.4043
 20
-26.1567
 21
-26.2902
  0
LINE
  8
0
 10
-99.4043
 11
-99.75
 20
-26.2902
 21
-26.3357
  0
LINE
  8
0
 10
-99.75
 11
-100.096
 20
-26.3357
 21
-26.2902
  0
ENDSEC
  0
SECTION
  2
OBJECTS
  0
DICTIONARY
  0
ENDSEC
  0
EOF
