solid OpenSCAD_Model
  facet normal -1 0 0
    outer loop
      vertex 0 39 0
      vertex 0 39 5
      vertex 0 66 0
    endloop
  endfacet
  facet normal -1 0 0
    outer loop
      vertex 0 66 0
      vertex 0 39 5
      vertex 0 66 5
    endloop
  endfacet
  facet normal -0.997452 -0.0713388 0
    outer loop
      vertex 0 39 0
      vertex 0.040714 38.4307 0
      vertex 0 39 5
    endloop
  endfacet
  facet normal -0.997452 -0.0713388 0
    outer loop
      vertex 0 39 5
      vertex 0.040714 38.4307 0
      vertex 0.040714 38.4307 5
    endloop
  endfacet
  facet normal 0 0 -1
    outer loop
      vertex 0 39 0
      vertex 0 66 0
      vertex 0.040714 38.4307 0
    endloop
  endfacet
  facet normal 0 0 -1
    outer loop
      vertex 0.040714 38.4307 0
      vertex 0 66 0
      vertex 0.040714 66.5693 0
    endloop
  endfacet
  facet normal 0 0 -1
    outer loop
      vertex 0.040714 38.4307 0
      vertex 0.040714 66.5693 0
      vertex 0.162028 67.1269 0
    endloop
  endfacet
  facet normal 0 0 -1
    outer loop
      vertex 0.040714 38.4307 0
      vertex 0.162028 67.1269 0
      vertex 0.361472 67.6617 0
    endloop
  endfacet
  facet normal 0 0 -1
    outer loop
      vertex 0.040714 38.4307 0
      vertex 0.361472 67.6617 0
      vertex 0.634986 68.1626 0
    endloop
  endfacet
  facet normal 0 0 -1
    outer loop
      vertex 0.040714 38.4307 0
      vertex 0.634986 68.1626 0
      vertex 0.977002 68.6194 0
    endloop
  endfacet
  facet normal 0 0 -1
    outer loop
      vertex 0.040714 38.4307 0
      vertex 0.977002 68.6194 0
      vertex 1.38056 69.023 0
    endloop
  endfacet
  facet normal 0 0 -1
    outer loop
      vertex 0.040714 38.4307 0
      vertex 1.38056 69.023 0
      vertex 1.83744 69.365 0
    endloop
  endfacet
  facet normal 0 0 -1
    outer loop
      vertex 0.040714 38.4307 0
      vertex 1.83744 69.365 0
      vertex 2.33834 69.6385 0
    endloop
  endfacet
  facet normal 0 0 -1
    outer loop
      vertex 0.040714 38.4307 0
      vertex 2.33834 69.6385 0
      vertex 2.87307 69.838 0
    endloop
  endfacet
  facet normal 0 0 -1
    outer loop
      vertex 0.040714 38.4307 0
      vertex 2.87307 69.838 0
      vertex 3.43074 69.9593 0
    endloop
  endfacet
  facet normal 0 0 -1
    outer loop
      vertex 0.040714 38.4307 0
      vertex 3.43074 69.9593 0
      vertex 4 70 0
    endloop
  endfacet
  facet normal 0 0 -1
    outer loop
      vertex 18.3782 58.7822 0
      vertex 4 70 0
      vertex 45 70 0
    endloop
  endfacet
  facet normal 0 0 -1
    outer loop
      vertex 18.7047 46.3158 0
      vertex 45 70 0
      vertex 45 35 0
    endloop
  endfacet
  facet normal 0 0 -1
    outer loop
      vertex 0.040714 38.4307 0
      vertex 45 35 0
      vertex 4 35 0
    endloop
  endfacet
  facet normal 0 0 -1
    outer loop
      vertex 0.040714 38.4307 0
      vertex 4 35 0
      vertex 3.43074 35.0407 0
    endloop
  endfacet
  facet normal 0 0 -1
    outer loop
      vertex 0.040714 38.4307 0
      vertex 3.43074 35.0407 0
      vertex 2.87307 35.162 0
    endloop
  endfacet
  facet normal 0 0 -1
    outer loop
      vertex 0.040714 38.4307 0
      vertex 2.87307 35.162 0
      vertex 2.33834 35.3615 0
    endloop
  endfacet
  facet normal 0 0 -1
    outer loop
      vertex 0.040714 38.4307 0
      vertex 2.33834 35.3615 0
      vertex 1.83744 35.635 0
    endloop
  endfacet
  facet normal 0 0 -1
    outer loop
      vertex 0.040714 38.4307 0
      vertex 1.83744 35.635 0
      vertex 1.38056 35.977 0
    endloop
  endfacet
  facet normal 0 0 -1
    outer loop
      vertex 0.040714 38.4307 0
      vertex 1.38056 35.977 0
      vertex 0.977002 36.3806 0
    endloop
  endfacet
  facet normal 0 0 -1
    outer loop
      vertex 0.040714 38.4307 0
      vertex 0.977002 36.3806 0
      vertex 0.634986 36.8374 0
    endloop
  endfacet
  facet normal 0 0 -1
    outer loop
      vertex 0.040714 38.4307 0
      vertex 0.634986 36.8374 0
      vertex 0.361472 37.3383 0
    endloop
  endfacet
  facet normal 0 0 -1
    outer loop
      vertex 0.040714 38.4307 0
      vertex 0.361472 37.3383 0
      vertex 0.162028 37.8731 0
    endloop
  endfacet
  facet normal 0 0 -1
    outer loop
      vertex 0.040714 38.4307 0
      vertex 4 70 0
      vertex 5.02903 52.8388 0
    endloop
  endfacet
  facet normal 0 0 -1
    outer loop
      vertex 0.040714 38.4307 0
      vertex 5.02903 52.8388 0
      vertex 5.06271 51.5525 0
    endloop
  endfacet
  facet normal 0 0 -1
    outer loop
      vertex 0.040714 38.4307 0
      vertex 5.06271 51.5525 0
      vertex 5.2972 50.2873 0
    endloop
  endfacet
  facet normal 0 0 -1
    outer loop
      vertex 0.040714 38.4307 0
      vertex 5.2972 50.2873 0
      vertex 5.72672 49.0744 0
    endloop
  endfacet
  facet normal 0 0 -1
    outer loop
      vertex 0.040714 38.4307 0
      vertex 5.72672 49.0744 0
      vertex 6.34069 47.9436 0
    endloop
  endfacet
  facet normal 0 0 -1
    outer loop
      vertex 0.040714 38.4307 0
      vertex 6.34069 47.9436 0
      vertex 7.124 46.9228 0
    endloop
  endfacet
  facet normal 0 0 -1
    outer loop
      vertex 0.040714 38.4307 0
      vertex 7.124 46.9228 0
      vertex 8.05736 46.037 0
    endloop
  endfacet
  facet normal 0 0 -1
    outer loop
      vertex 0.040714 38.4307 0
      vertex 8.05736 46.037 0
      vertex 9.11779 45.3082 0
    endloop
  endfacet
  facet normal 0 0 -1
    outer loop
      vertex 21.1384 54.5319 0
      vertex 45 70 0
      vertex 21.3729 53.2668 0
    endloop
  endfacet
  facet normal 0 0 -1
    outer loop
      vertex 0.040714 38.4307 0
      vertex 10.2792 44.7543 0
      vertex 11.5129 44.3888 0
    endloop
  endfacet
  facet normal 0 0 -1
    outer loop
      vertex 0.040714 38.4307 0
      vertex 11.5129 44.3888 0
      vertex 45 35 0
    endloop
  endfacet
  facet normal 0 0 -1
    outer loop
      vertex 21.3729 53.2668 0
      vertex 45 70 0
      vertex 21.4066 51.9805 0
    endloop
  endfacet
  facet normal 0 0 -1
    outer loop
      vertex 19.5904 47.2492 0
      vertex 45 70 0
      vertex 18.7047 46.3158 0
    endloop
  endfacet
  facet normal 0 0 -1
    outer loop
      vertex 21.4066 51.9805 0
      vertex 45 70 0
      vertex 21.2386 50.7048 0
    endloop
  endfacet
  facet normal 0 0 -1
    outer loop
      vertex 12.7886 44.2209 0
      vertex 14.0749 44.2545 0
      vertex 45 35 0
    endloop
  endfacet
  facet normal 0 0 -1
    outer loop
      vertex 21.2386 50.7048 0
      vertex 45 70 0
      vertex 20.8731 49.471 0
    endloop
  endfacet
  facet normal 0 0 -1
    outer loop
      vertex 14.0749 44.2545 0
      vertex 15.3401 44.489 0
      vertex 45 35 0
    endloop
  endfacet
  facet normal 0 0 -1
    outer loop
      vertex 20.8731 49.471 0
      vertex 45 70 0
      vertex 20.3192 48.3096 0
    endloop
  endfacet
  facet normal 0 0 -1
    outer loop
      vertex 15.3401 44.489 0
      vertex 16.553 44.9186 0
      vertex 45 35 0
    endloop
  endfacet
  facet normal 0 0 -1
    outer loop
      vertex 20.3192 48.3096 0
      vertex 45 70 0
      vertex 19.5904 47.2492 0
    endloop
  endfacet
  facet normal 0 0 -1
    outer loop
      vertex 16.553 44.9186 0
      vertex 17.6838 45.5325 0
      vertex 45 35 0
    endloop
  endfacet
  facet normal 0 0 -1
    outer loop
      vertex 17.6838 45.5325 0
      vertex 18.7047 46.3158 0
      vertex 45 35 0
    endloop
  endfacet
  facet normal 0 0 -1
    outer loop
      vertex 12.7886 44.2209 0
      vertex 45 35 0
      vertex 11.5129 44.3888 0
    endloop
  endfacet
  facet normal 0 0 -1
    outer loop
      vertex 20.7089 55.7449 0
      vertex 45 70 0
      vertex 21.1384 54.5319 0
    endloop
  endfacet
  facet normal 0 0 -1
    outer loop
      vertex 20.0949 56.8757 0
      vertex 45 70 0
      vertex 20.7089 55.7449 0
    endloop
  endfacet
  facet normal 0 0 -1
    outer loop
      vertex 19.3116 57.8965 0
      vertex 45 70 0
      vertex 20.0949 56.8757 0
    endloop
  endfacet
  facet normal 0 0 -1
    outer loop
      vertex 18.3782 58.7822 0
      vertex 45 70 0
      vertex 19.3116 57.8965 0
    endloop
  endfacet
  facet normal 0 0 -1
    outer loop
      vertex 17.3178 59.511 0
      vertex 4 70 0
      vertex 18.3782 58.7822 0
    endloop
  endfacet
  facet normal 0 0 -1
    outer loop
      vertex 16.1564 60.065 0
      vertex 4 70 0
      vertex 17.3178 59.511 0
    endloop
  endfacet
  facet normal 0 0 -1
    outer loop
      vertex 14.9227 60.4304 0
      vertex 4 70 0
      vertex 16.1564 60.065 0
    endloop
  endfacet
  facet normal 0 0 -1
    outer loop
      vertex 13.6469 60.5984 0
      vertex 4 70 0
      vertex 14.9227 60.4304 0
    endloop
  endfacet
  facet normal 0 0 -1
    outer loop
      vertex 12.3607 60.5647 0
      vertex 4 70 0
      vertex 13.6469 60.5984 0
    endloop
  endfacet
  facet normal 0 0 -1
    outer loop
      vertex 11.0955 60.3302 0
      vertex 4 70 0
      vertex 12.3607 60.5647 0
    endloop
  endfacet
  facet normal 0 0 -1
    outer loop
      vertex 9.88255 59.9007 0
      vertex 4 70 0
      vertex 11.0955 60.3302 0
    endloop
  endfacet
  facet normal 0 0 -1
    outer loop
      vertex 8.75175 59.2867 0
      vertex 4 70 0
      vertex 9.88255 59.9007 0
    endloop
  endfacet
  facet normal 0 0 -1
    outer loop
      vertex 7.73092 58.5034 0
      vertex 4 70 0
      vertex 8.75175 59.2867 0
    endloop
  endfacet
  facet normal 0 0 -1
    outer loop
      vertex 6.84519 57.5701 0
      vertex 4 70 0
      vertex 7.73092 58.5034 0
    endloop
  endfacet
  facet normal 0 0 -1
    outer loop
      vertex 6.11638 56.5096 0
      vertex 4 70 0
      vertex 6.84519 57.5701 0
    endloop
  endfacet
  facet normal 0 0 -1
    outer loop
      vertex 5.56243 55.3482 0
      vertex 4 70 0
      vertex 6.11638 56.5096 0
    endloop
  endfacet
  facet normal 0 0 -1
    outer loop
      vertex 5.19698 54.1145 0
      vertex 4 70 0
      vertex 5.56243 55.3482 0
    endloop
  endfacet
  facet normal 0 0 -1
    outer loop
      vertex 5.02903 52.8388 0
      vertex 4 70 0
      vertex 5.19698 54.1145 0
    endloop
  endfacet
  facet normal 0 0 -1
    outer loop
      vertex 10.2792 44.7543 0
      vertex 0.040714 38.4307 0
      vertex 9.11779 45.3082 0
    endloop
  endfacet
  facet normal -0.997452 0.0713388 0
    outer loop
      vertex 0 66 0
      vertex 0 66 5
      vertex 0.040714 66.5693 0
    endloop
  endfacet
  facet normal -0.997452 0.0713388 0
    outer loop
      vertex 0.040714 66.5693 0
      vertex 0 66 5
      vertex 0.040714 66.5693 5
    endloop
  endfacet
  facet normal 0 0 1
    outer loop
      vertex 0 66 5
      vertex 0 39 5
      vertex 0.040714 38.4307 5
    endloop
  endfacet
  facet normal 0 0 1
    outer loop
      vertex 0.361472 37.3383 5
      vertex 0 66 5
      vertex 0.162028 37.8731 5
    endloop
  endfacet
  facet normal 0 0 1
    outer loop
      vertex 0.162028 37.8731 5
      vertex 0 66 5
      vertex 0.040714 38.4307 5
    endloop
  endfacet
  facet normal 0 0 1
    outer loop
      vertex 0.634986 36.8374 5
      vertex 0 66 5
      vertex 0.361472 37.3383 5
    endloop
  endfacet
  facet normal 0 0 1
    outer loop
      vertex 0.977002 36.3806 5
      vertex 0 66 5
      vertex 0.634986 36.8374 5
    endloop
  endfacet
  facet normal 0 0 1
    outer loop
      vertex 1.38056 35.977 5
      vertex 0 66 5
      vertex 0.977002 36.3806 5
    endloop
  endfacet
  facet normal 0 0 1
    outer loop
      vertex 1.83744 35.635 5
      vertex 0 66 5
      vertex 1.38056 35.977 5
    endloop
  endfacet
  facet normal 0 0 1
    outer loop
      vertex 2.33834 35.3615 5
      vertex 0 66 5
      vertex 1.83744 35.635 5
    endloop
  endfacet
  facet normal 0 0 1
    outer loop
      vertex 2.87307 35.162 5
      vertex 0 66 5
      vertex 2.33834 35.3615 5
    endloop
  endfacet
  facet normal 0 0 1
    outer loop
      vertex 3.43074 35.0407 5
      vertex 0 66 5
      vertex 2.87307 35.162 5
    endloop
  endfacet
  facet normal 0 0 1
    outer loop
      vertex 4 35 5
      vertex 0 66 5
      vertex 3.43074 35.0407 5
    endloop
  endfacet
  facet normal 0 0 1
    outer loop
      vertex 2.15568 50.6576 5
      vertex 0 66 5
      vertex 4 35 5
    endloop
  endfacet
  facet normal 0 0 1
    outer loop
      vertex 41 50 5
      vertex 26.5994 50 5
      vertex 41 35 5
    endloop
  endfacet
  facet normal 0 0 1
    outer loop
      vertex 17.2315 62.8657 5
      vertex 18.3025 62.3889 5
      vertex 41 55 5
    endloop
  endfacet
  facet normal 0 0 1
    outer loop
      vertex 4 70 5
      vertex 0 66 5
      vertex 41 70 5
    endloop
  endfacet
  facet normal 0 0 1
    outer loop
      vertex 3.43074 69.9593 5
      vertex 0 66 5
      vertex 4 70 5
    endloop
  endfacet
  facet normal 0 0 1
    outer loop
      vertex 2.87307 69.838 5
      vertex 0 66 5
      vertex 3.43074 69.9593 5
    endloop
  endfacet
  facet normal 0 0 1
    outer loop
      vertex 2.33834 69.6385 5
      vertex 0 66 5
      vertex 2.87307 69.838 5
    endloop
  endfacet
  facet normal 0 0 1
    outer loop
      vertex 1.83744 69.365 5
      vertex 0 66 5
      vertex 2.33834 69.6385 5
    endloop
  endfacet
  facet normal 0 0 1
    outer loop
      vertex 1.38056 69.023 5
      vertex 0 66 5
      vertex 1.83744 69.365 5
    endloop
  endfacet
  facet normal 0 0 1
    outer loop
      vertex 0.977002 68.6194 5
      vertex 0 66 5
      vertex 1.38056 69.023 5
    endloop
  endfacet
  facet normal 0 0 1
    outer loop
      vertex 0.634986 68.1626 5
      vertex 0 66 5
      vertex 0.977002 68.6194 5
    endloop
  endfacet
  facet normal 0 0 1
    outer loop
      vertex 0.361472 67.6617 5
      vertex 0 66 5
      vertex 0.634986 68.1626 5
    endloop
  endfacet
  facet normal 0 0 1
    outer loop
      vertex 0.162028 67.1269 5
      vertex 0 66 5
      vertex 0.361472 67.6617 5
    endloop
  endfacet
  facet normal 0 0 1
    outer loop
      vertex 0.040714 66.5693 5
      vertex 0 66 5
      vertex 0.162028 67.1269 5
    endloop
  endfacet
  facet normal 0 0 1
    outer loop
      vertex 2.03314 52.9958 5
      vertex 0 66 5
      vertex 2.03314 51.8235 5
    endloop
  endfacet
  facet normal 0 0 1
    outer loop
      vertex 18.3025 42.4304 5
      vertex 17.2315 41.9535 5
      vertex 4 35 5
    endloop
  endfacet
  facet normal 0 0 1
    outer loop
      vertex 2.15568 54.1617 5
      vertex 0 66 5
      vertex 2.03314 52.9958 5
    endloop
  endfacet
  facet normal 0 0 1
    outer loop
      vertex 2.39942 55.3084 5
      vertex 0 66 5
      vertex 2.15568 54.1617 5
    endloop
  endfacet
  facet normal 0 0 1
    outer loop
      vertex 2.76169 56.4233 5
      vertex 0 66 5
      vertex 2.39942 55.3084 5
    endloop
  endfacet
  facet normal 0 0 1
    outer loop
      vertex 3.23852 57.4943 5
      vertex 0 66 5
      vertex 2.76169 56.4233 5
    endloop
  endfacet
  facet normal 0 0 1
    outer loop
      vertex 3.82468 58.5096 5
      vertex 0 66 5
      vertex 3.23852 57.4943 5
    endloop
  endfacet
  facet normal 0 0 1
    outer loop
      vertex 4.51376 59.458 5
      vertex 0 66 5
      vertex 3.82468 58.5096 5
    endloop
  endfacet
  facet normal 0 0 1
    outer loop
      vertex 5.29819 60.3292 5
      vertex 0 66 5
      vertex 4.51376 59.458 5
    endloop
  endfacet
  facet normal 0 0 1
    outer loop
      vertex 6.1694 61.1137 5
      vertex 0 66 5
      vertex 5.29819 60.3292 5
    endloop
  endfacet
  facet normal 0 0 1
    outer loop
      vertex 8.1331 62.3889 5
      vertex 0 66 5
      vertex 7.11783 61.8027 5
    endloop
  endfacet
  facet normal 0 0 1
    outer loop
      vertex 24.4024 51.8235 5
      vertex 24.2799 50.6576 5
      vertex 26.5994 50 5
    endloop
  endfacet
  facet normal 0 0 1
    outer loop
      vertex 10.319 63.228 5
      vertex 11.4657 63.4717 5
      vertex 0 66 5
    endloop
  endfacet
  facet normal 0 0 1
    outer loop
      vertex 23.1971 47.3249 5
      vertex 22.6109 46.3097 5
      vertex 41 35 5
    endloop
  endfacet
  facet normal 0 0 1
    outer loop
      vertex 10.319 63.228 5
      vertex 0 66 5
      vertex 9.20407 62.8657 5
    endloop
  endfacet
  facet normal 0 0 1
    outer loop
      vertex 18.3025 62.3889 5
      vertex 19.3177 61.8027 5
      vertex 41 55 5
    endloop
  endfacet
  facet normal 0 0 1
    outer loop
      vertex 41 70 5
      vertex 0 66 5
      vertex 11.4657 63.4717 5
    endloop
  endfacet
  facet normal 0 0 1
    outer loop
      vertex 20.2662 61.1137 5
      vertex 21.1374 60.3292 5
      vertex 41 55 5
    endloop
  endfacet
  facet normal 0 0 1
    outer loop
      vertex 41 70 5
      vertex 11.4657 63.4717 5
      vertex 12.6316 63.5943 5
    endloop
  endfacet
  facet normal 0 0 1
    outer loop
      vertex 19.3177 61.8027 5
      vertex 20.2662 61.1137 5
      vertex 41 55 5
    endloop
  endfacet
  facet normal 0 0 1
    outer loop
      vertex 41 70 5
      vertex 12.6316 63.5943 5
      vertex 13.804 63.5943 5
    endloop
  endfacet
  facet normal 0 0 1
    outer loop
      vertex 21.1374 60.3292 5
      vertex 21.9218 59.458 5
      vertex 41 55 5
    endloop
  endfacet
  facet normal 0 0 1
    outer loop
      vertex 41 70 5
      vertex 13.804 63.5943 5
      vertex 14.9699 63.4717 5
    endloop
  endfacet
  facet normal 0 0 1
    outer loop
      vertex 41 70 5
      vertex 14.9699 63.4717 5
      vertex 16.1166 63.228 5
    endloop
  endfacet
  facet normal 0 0 1
    outer loop
      vertex 41 70 5
      vertex 17.2315 62.8657 5
      vertex 41 55 5
    endloop
  endfacet
  facet normal 0 0 1
    outer loop
      vertex 41 70 5
      vertex 16.1166 63.228 5
      vertex 17.2315 62.8657 5
    endloop
  endfacet
  facet normal 0 0 1
    outer loop
      vertex 6.1694 61.1137 5
      vertex 7.11783 61.8027 5
      vertex 0 66 5
    endloop
  endfacet
  facet normal 0 0 1
    outer loop
      vertex 26.5994 55 5
      vertex 24.0362 55.3084 5
      vertex 26.5994 50 5
    endloop
  endfacet
  facet normal 0 0 1
    outer loop
      vertex 24.0362 55.3084 5
      vertex 24.2799 54.1617 5
      vertex 26.5994 50 5
    endloop
  endfacet
  facet normal 0 0 1
    outer loop
      vertex 24.2799 54.1617 5
      vertex 24.4024 52.9958 5
      vertex 26.5994 50 5
    endloop
  endfacet
  facet normal 0 0 1
    outer loop
      vertex 24.4024 52.9958 5
      vertex 24.4024 51.8235 5
      vertex 26.5994 50 5
    endloop
  endfacet
  facet normal 0 0 1
    outer loop
      vertex 26.5994 50 5
      vertex 24.2799 50.6576 5
      vertex 41 35 5
    endloop
  endfacet
  facet normal 0 0 1
    outer loop
      vertex 23.6739 48.3959 5
      vertex 23.1971 47.3249 5
      vertex 41 35 5
    endloop
  endfacet
  facet normal 0 0 1
    outer loop
      vertex 24.2799 50.6576 5
      vertex 24.0362 49.5109 5
      vertex 41 35 5
    endloop
  endfacet
  facet normal 0 0 1
    outer loop
      vertex 8.1331 62.3889 5
      vertex 9.20407 62.8657 5
      vertex 0 66 5
    endloop
  endfacet
  facet normal 0 0 1
    outer loop
      vertex 24.0362 49.5109 5
      vertex 23.6739 48.3959 5
      vertex 41 35 5
    endloop
  endfacet
  facet normal 0 0 1
    outer loop
      vertex 23.6739 56.4233 5
      vertex 24.0362 55.3084 5
      vertex 26.5994 55 5
    endloop
  endfacet
  facet normal 0 0 1
    outer loop
      vertex 22.6109 46.3097 5
      vertex 21.9218 45.3612 5
      vertex 41 35 5
    endloop
  endfacet
  facet normal 0 0 1
    outer loop
      vertex 21.9218 45.3612 5
      vertex 21.1374 44.49 5
      vertex 41 35 5
    endloop
  endfacet
  facet normal 0 0 1
    outer loop
      vertex 21.1374 44.49 5
      vertex 20.2662 43.7056 5
      vertex 41 35 5
    endloop
  endfacet
  facet normal 0 0 1
    outer loop
      vertex 2.39942 49.5109 5
      vertex 2.15568 50.6576 5
      vertex 4 35 5
    endloop
  endfacet
  facet normal 0 0 1
    outer loop
      vertex 17.2315 41.9535 5
      vertex 16.1166 41.5913 5
      vertex 4 35 5
    endloop
  endfacet
  facet normal 0 0 1
    outer loop
      vertex 41 35 5
      vertex 20.2662 43.7056 5
      vertex 19.3177 43.0165 5
    endloop
  endfacet
  facet normal 0 0 1
    outer loop
      vertex 41 35 5
      vertex 18.3025 42.4304 5
      vertex 4 35 5
    endloop
  endfacet
  facet normal 0 0 1
    outer loop
      vertex 41 35 5
      vertex 19.3177 43.0165 5
      vertex 18.3025 42.4304 5
    endloop
  endfacet
  facet normal 0 0 1
    outer loop
      vertex 16.1166 41.5913 5
      vertex 14.9699 41.3475 5
      vertex 4 35 5
    endloop
  endfacet
  facet normal 0 0 1
    outer loop
      vertex 14.9699 41.3475 5
      vertex 13.804 41.225 5
      vertex 4 35 5
    endloop
  endfacet
  facet normal 0 0 1
    outer loop
      vertex 13.804 41.225 5
      vertex 12.6316 41.225 5
      vertex 4 35 5
    endloop
  endfacet
  facet normal 0 0 1
    outer loop
      vertex 12.6316 41.225 5
      vertex 11.4657 41.3475 5
      vertex 4 35 5
    endloop
  endfacet
  facet normal 0 0 1
    outer loop
      vertex 11.4657 41.3475 5
      vertex 10.319 41.5913 5
      vertex 4 35 5
    endloop
  endfacet
  facet normal 0 0 1
    outer loop
      vertex 10.319 41.5913 5
      vertex 9.20407 41.9535 5
      vertex 4 35 5
    endloop
  endfacet
  facet normal 0 0 1
    outer loop
      vertex 9.20407 41.9535 5
      vertex 8.1331 42.4304 5
      vertex 4 35 5
    endloop
  endfacet
  facet normal 0 0 1
    outer loop
      vertex 8.1331 42.4304 5
      vertex 7.11783 43.0165 5
      vertex 4 35 5
    endloop
  endfacet
  facet normal 0 0 1
    outer loop
      vertex 7.11783 43.0165 5
      vertex 6.1694 43.7056 5
      vertex 4 35 5
    endloop
  endfacet
  facet normal 0 0 1
    outer loop
      vertex 6.1694 43.7056 5
      vertex 5.29819 44.49 5
      vertex 4 35 5
    endloop
  endfacet
  facet normal 0 0 1
    outer loop
      vertex 5.29819 44.49 5
      vertex 4.51376 45.3612 5
      vertex 4 35 5
    endloop
  endfacet
  facet normal 0 0 1
    outer loop
      vertex 4.51376 45.3612 5
      vertex 3.82468 46.3097 5
      vertex 4 35 5
    endloop
  endfacet
  facet normal 0 0 1
    outer loop
      vertex 3.82468 46.3097 5
      vertex 3.23852 47.3249 5
      vertex 4 35 5
    endloop
  endfacet
  facet normal 0 0 1
    outer loop
      vertex 3.23852 47.3249 5
      vertex 2.76169 48.3959 5
      vertex 4 35 5
    endloop
  endfacet
  facet normal 0 0 1
    outer loop
      vertex 2.76169 48.3959 5
      vertex 2.39942 49.5109 5
      vertex 4 35 5
    endloop
  endfacet
  facet normal 0 0 1
    outer loop
      vertex 2.03314 51.8235 5
      vertex 0 66 5
      vertex 2.15568 50.6576 5
    endloop
  endfacet
  facet normal 0 0 1
    outer loop
      vertex 26.5994 55 5
      vertex 23.1971 57.4943 5
      vertex 23.6739 56.4233 5
    endloop
  endfacet
  facet normal 0 0 1
    outer loop
      vertex 26.5994 55 5
      vertex 22.6109 58.5096 5
      vertex 23.1971 57.4943 5
    endloop
  endfacet
  facet normal 0 0 1
    outer loop
      vertex 26.5994 55 5
      vertex 21.9218 59.458 5
      vertex 22.6109 58.5096 5
    endloop
  endfacet
  facet normal 0 0 1
    outer loop
      vertex 26.5994 55 5
      vertex 41 55 5
      vertex 21.9218 59.458 5
    endloop
  endfacet
  facet normal -0.977147 -0.212565 0
    outer loop
      vertex 0.040714 38.4307 0
      vertex 0.162028 37.8731 0
      vertex 0.040714 38.4307 5
    endloop
  endfacet
  facet normal -0.977147 -0.212565 0
    outer loop
      vertex 0.040714 38.4307 5
      vertex 0.162028 37.8731 0
      vertex 0.162028 37.8731 5
    endloop
  endfacet
  facet normal -0.93695 -0.349464 0
    outer loop
      vertex 0.162028 37.8731 0
      vertex 0.361472 37.3383 0
      vertex 0.162028 37.8731 5
    endloop
  endfacet
  facet normal -0.93695 -0.349464 0
    outer loop
      vertex 0.162028 37.8731 5
      vertex 0.361472 37.3383 0
      vertex 0.361472 37.3383 5
    endloop
  endfacet
  facet normal -0.877679 -0.479249 0
    outer loop
      vertex 0.361472 37.3383 0
      vertex 0.634986 36.8374 0
      vertex 0.361472 37.3383 5
    endloop
  endfacet
  facet normal -0.877679 -0.479249 0
    outer loop
      vertex 0.361472 37.3383 5
      vertex 0.634986 36.8374 0
      vertex 0.634986 36.8374 5
    endloop
  endfacet
  facet normal -0.800541 -0.599278 0
    outer loop
      vertex 0.634986 36.8374 0
      vertex 0.977002 36.3806 0
      vertex 0.634986 36.8374 5
    endloop
  endfacet
  facet normal -0.800541 -0.599278 0
    outer loop
      vertex 0.634986 36.8374 5
      vertex 0.977002 36.3806 0
      vertex 0.977002 36.3806 5
    endloop
  endfacet
  facet normal -0.707107 -0.707107 0
    outer loop
      vertex 0.977002 36.3806 5
      vertex 0.977002 36.3806 0
      vertex 1.38056 35.977 0
    endloop
  endfacet
  facet normal -0.707107 -0.707107 0
    outer loop
      vertex 1.38056 35.977 5
      vertex 0.977002 36.3806 5
      vertex 1.38056 35.977 0
    endloop
  endfacet
  facet normal -0.599278 -0.800541 0
    outer loop
      vertex 1.38056 35.977 5
      vertex 1.38056 35.977 0
      vertex 1.83744 35.635 0
    endloop
  endfacet
  facet normal -0.599278 -0.800541 0
    outer loop
      vertex 1.83744 35.635 5
      vertex 1.38056 35.977 5
      vertex 1.83744 35.635 0
    endloop
  endfacet
  facet normal -0.479249 -0.877679 0
    outer loop
      vertex 1.83744 35.635 5
      vertex 1.83744 35.635 0
      vertex 2.33834 35.3615 0
    endloop
  endfacet
  facet normal -0.479249 -0.877679 0
    outer loop
      vertex 2.33834 35.3615 5
      vertex 1.83744 35.635 5
      vertex 2.33834 35.3615 0
    endloop
  endfacet
  facet normal -0.349464 -0.93695 0
    outer loop
      vertex 2.33834 35.3615 5
      vertex 2.33834 35.3615 0
      vertex 2.87307 35.162 0
    endloop
  endfacet
  facet normal -0.349464 -0.93695 0
    outer loop
      vertex 2.87307 35.162 5
      vertex 2.33834 35.3615 5
      vertex 2.87307 35.162 0
    endloop
  endfacet
  facet normal -0.212565 -0.977147 0
    outer loop
      vertex 2.87307 35.162 5
      vertex 2.87307 35.162 0
      vertex 3.43074 35.0407 0
    endloop
  endfacet
  facet normal -0.212565 -0.977147 0
    outer loop
      vertex 3.43074 35.0407 5
      vertex 2.87307 35.162 5
      vertex 3.43074 35.0407 0
    endloop
  endfacet
  facet normal -0.0713388 -0.997452 0
    outer loop
      vertex 3.43074 35.0407 5
      vertex 3.43074 35.0407 0
      vertex 4 35 0
    endloop
  endfacet
  facet normal -0.0713388 -0.997452 0
    outer loop
      vertex 4 35 5
      vertex 3.43074 35.0407 5
      vertex 4 35 0
    endloop
  endfacet
  facet normal 0 -1 0
    outer loop
      vertex 4 35 5
      vertex 4 35 0
      vertex 45 35 0
    endloop
  endfacet
  facet normal 0 -1 0
    outer loop
      vertex 41 35 5
      vertex 4 35 5
      vertex 45 35 0
    endloop
  endfacet
  facet normal 0 -1 0
    outer loop
      vertex 45 35 25
      vertex 41 35 5
      vertex 45 35 0
    endloop
  endfacet
  facet normal 0 -1 0
    outer loop
      vertex 41 35 25
      vertex 41 35 5
      vertex 45 35 25
    endloop
  endfacet
  facet normal 1 0 0
    outer loop
      vertex 45 40 7.5
      vertex 45 35 0
      vertex 45 70 0
    endloop
  endfacet
  facet normal 1 0 0
    outer loop
      vertex 45 35 25
      vertex 45 35 0
      vertex 45 37.8349 8.75
    endloop
  endfacet
  facet normal 1 0 0
    outer loop
      vertex 45 42.1651 8.75
      vertex 45 40 7.5
      vertex 45 70 0
    endloop
  endfacet
  facet normal 1 0 0
    outer loop
      vertex 45 35 25
      vertex 45 37.8349 8.75
      vertex 45 37.8349 11.25
    endloop
  endfacet
  facet normal 1 0 0
    outer loop
      vertex 45 37.8349 18.75
      vertex 45 40 12.5
      vertex 45 70 0
    endloop
  endfacet
  facet normal 1 0 0
    outer loop
      vertex 45 35 25
      vertex 45 37.8349 11.25
      vertex 45 40 12.5
    endloop
  endfacet
  facet normal 1 0 0
    outer loop
      vertex 45 40 12.5
      vertex 45 42.1651 11.25
      vertex 45 70 0
    endloop
  endfacet
  facet normal 1 0 0
    outer loop
      vertex 45 37.8349 8.75
      vertex 45 35 0
      vertex 45 40 7.5
    endloop
  endfacet
  facet normal 1 0 0
    outer loop
      vertex 45 40 17.5
      vertex 45 37.8349 18.75
      vertex 45 70 0
    endloop
  endfacet
  facet normal 1 0 0
    outer loop
      vertex 45 35 25
      vertex 45 40 12.5
      vertex 45 37.8349 18.75
    endloop
  endfacet
  facet normal 1 0 0
    outer loop
      vertex 45 67.1651 18.75
      vertex 45 65 12.5
      vertex 45 70 25
    endloop
  endfacet
  facet normal 1 0 0
    outer loop
      vertex 45 35 25
      vertex 45 37.8349 18.75
      vertex 45 37.8349 21.25
    endloop
  endfacet
  facet normal 1 0 0
    outer loop
      vertex 45 42.1651 18.75
      vertex 45 40 17.5
      vertex 45 70 0
    endloop
  endfacet
  facet normal 1 0 0
    outer loop
      vertex 45 70 25
      vertex 45 35 25
      vertex 45 40 22.5
    endloop
  endfacet
  facet normal 1 0 0
    outer loop
      vertex 45 62.8349 8.75
      vertex 45 42.1651 21.25
      vertex 45 70 0
    endloop
  endfacet
  facet normal 1 0 0
    outer loop
      vertex 45 70 25
      vertex 45 40 22.5
      vertex 45 42.1651 21.25
    endloop
  endfacet
  facet normal 1 0 0
    outer loop
      vertex 45 42.1651 21.25
      vertex 45 42.1651 18.75
      vertex 45 70 0
    endloop
  endfacet
  facet normal 1 0 0
    outer loop
      vertex 45 62.8349 11.25
      vertex 45 65 12.5
      vertex 45 67.1651 18.75
    endloop
  endfacet
  facet normal 1 0 0
    outer loop
      vertex 45 65 7.5
      vertex 45 62.8349 8.75
      vertex 45 70 0
    endloop
  endfacet
  facet normal 1 0 0
    outer loop
      vertex 45 62.8349 11.25
      vertex 45 42.1651 21.25
      vertex 45 62.8349 8.75
    endloop
  endfacet
  facet normal 1 0 0
    outer loop
      vertex 45 65 22.5
      vertex 45 67.1651 21.25
      vertex 45 70 25
    endloop
  endfacet
  facet normal 1 0 0
    outer loop
      vertex 45 62.8349 18.75
      vertex 45 42.1651 21.25
      vertex 45 62.8349 11.25
    endloop
  endfacet
  facet normal 1 0 0
    outer loop
      vertex 45 70 25
      vertex 45 67.1651 11.25
      vertex 45 70 0
    endloop
  endfacet
  facet normal 1 0 0
    outer loop
      vertex 45 70 25
      vertex 45 65 12.5
      vertex 45 67.1651 11.25
    endloop
  endfacet
  facet normal 1 0 0
    outer loop
      vertex 45 67.1651 11.25
      vertex 45 67.1651 8.75
      vertex 45 70 0
    endloop
  endfacet
  facet normal 1 0 0
    outer loop
      vertex 45 65 17.5
      vertex 45 62.8349 18.75
      vertex 45 62.8349 11.25
    endloop
  endfacet
  facet normal 1 0 0
    outer loop
      vertex 45 62.8349 21.25
      vertex 45 42.1651 21.25
      vertex 45 62.8349 18.75
    endloop
  endfacet
  facet normal 1 0 0
    outer loop
      vertex 45 67.1651 21.25
      vertex 45 67.1651 18.75
      vertex 45 70 25
    endloop
  endfacet
  facet normal 1 0 0
    outer loop
      vertex 45 65 22.5
      vertex 45 42.1651 21.25
      vertex 45 62.8349 21.25
    endloop
  endfacet
  facet normal 1 0 0
    outer loop
      vertex 45 70 25
      vertex 45 42.1651 21.25
      vertex 45 65 22.5
    endloop
  endfacet
  facet normal 1 0 0
    outer loop
      vertex 45 67.1651 18.75
      vertex 45 65 17.5
      vertex 45 62.8349 11.25
    endloop
  endfacet
  facet normal 1 0 0
    outer loop
      vertex 45 67.1651 8.75
      vertex 45 65 7.5
      vertex 45 70 0
    endloop
  endfacet
  facet normal 1 0 0
    outer loop
      vertex 45 42.1651 11.25
      vertex 45 42.1651 8.75
      vertex 45 70 0
    endloop
  endfacet
  facet normal 1 0 0
    outer loop
      vertex 45 37.8349 21.25
      vertex 45 40 22.5
      vertex 45 35 25
    endloop
  endfacet
  facet normal 0 1 0
    outer loop
      vertex 4 70 0
      vertex 4 70 5
      vertex 45 70 0
    endloop
  endfacet
  facet normal 0 1 0
    outer loop
      vertex 45 70 0
      vertex 4 70 5
      vertex 41 70 5
    endloop
  endfacet
  facet normal 0 1 0
    outer loop
      vertex 45 70 0
      vertex 41 70 5
      vertex 41 70 25
    endloop
  endfacet
  facet normal 0 1 0
    outer loop
      vertex 45 70 0
      vertex 41 70 25
      vertex 45 70 25
    endloop
  endfacet
  facet normal -0.0713388 0.997452 0
    outer loop
      vertex 3.43074 69.9593 0
      vertex 3.43074 69.9593 5
      vertex 4 70 0
    endloop
  endfacet
  facet normal -0.0713388 0.997452 0
    outer loop
      vertex 4 70 0
      vertex 3.43074 69.9593 5
      vertex 4 70 5
    endloop
  endfacet
  facet normal -0.212565 0.977147 0
    outer loop
      vertex 2.87307 69.838 0
      vertex 2.87307 69.838 5
      vertex 3.43074 69.9593 0
    endloop
  endfacet
  facet normal -0.212565 0.977147 0
    outer loop
      vertex 3.43074 69.9593 0
      vertex 2.87307 69.838 5
      vertex 3.43074 69.9593 5
    endloop
  endfacet
  facet normal -0.349464 0.93695 0
    outer loop
      vertex 2.33834 69.6385 0
      vertex 2.33834 69.6385 5
      vertex 2.87307 69.838 0
    endloop
  endfacet
  facet normal -0.349464 0.93695 0
    outer loop
      vertex 2.87307 69.838 0
      vertex 2.33834 69.6385 5
      vertex 2.87307 69.838 5
    endloop
  endfacet
  facet normal -0.479249 0.877679 0
    outer loop
      vertex 1.83744 69.365 0
      vertex 1.83744 69.365 5
      vertex 2.33834 69.6385 0
    endloop
  endfacet
  facet normal -0.479249 0.877679 0
    outer loop
      vertex 2.33834 69.6385 0
      vertex 1.83744 69.365 5
      vertex 2.33834 69.6385 5
    endloop
  endfacet
  facet normal -0.599278 0.800541 0
    outer loop
      vertex 1.38056 69.023 0
      vertex 1.38056 69.023 5
      vertex 1.83744 69.365 0
    endloop
  endfacet
  facet normal -0.599278 0.800541 0
    outer loop
      vertex 1.83744 69.365 0
      vertex 1.38056 69.023 5
      vertex 1.83744 69.365 5
    endloop
  endfacet
  facet normal -0.707107 0.707107 0
    outer loop
      vertex 0.977002 68.6194 0
      vertex 0.977002 68.6194 5
      vertex 1.38056 69.023 0
    endloop
  endfacet
  facet normal -0.707107 0.707107 0
    outer loop
      vertex 1.38056 69.023 0
      vertex 0.977002 68.6194 5
      vertex 1.38056 69.023 5
    endloop
  endfacet
  facet normal -0.800541 0.599278 0
    outer loop
      vertex 0.634986 68.1626 0
      vertex 0.634986 68.1626 5
      vertex 0.977002 68.6194 0
    endloop
  endfacet
  facet normal -0.800541 0.599278 0
    outer loop
      vertex 0.977002 68.6194 0
      vertex 0.634986 68.1626 5
      vertex 0.977002 68.6194 5
    endloop
  endfacet
  facet normal -0.877679 0.479249 0
    outer loop
      vertex 0.361472 67.6617 0
      vertex 0.361472 67.6617 5
      vertex 0.634986 68.1626 0
    endloop
  endfacet
  facet normal -0.877679 0.479249 0
    outer loop
      vertex 0.634986 68.1626 0
      vertex 0.361472 67.6617 5
      vertex 0.634986 68.1626 5
    endloop
  endfacet
  facet normal -0.93695 0.349464 0
    outer loop
      vertex 0.162028 67.1269 0
      vertex 0.162028 67.1269 5
      vertex 0.361472 67.6617 0
    endloop
  endfacet
  facet normal -0.93695 0.349464 0
    outer loop
      vertex 0.361472 67.6617 0
      vertex 0.162028 67.1269 5
      vertex 0.361472 67.6617 5
    endloop
  endfacet
  facet normal -0.977147 0.212565 0
    outer loop
      vertex 0.040714 66.5693 0
      vertex 0.040714 66.5693 5
      vertex 0.162028 67.1269 0
    endloop
  endfacet
  facet normal -0.977147 0.212565 0
    outer loop
      vertex 0.162028 67.1269 0
      vertex 0.040714 66.5693 5
      vertex 0.162028 67.1269 5
    endloop
  endfacet
  facet normal 0.999657 0.0261768 0
    outer loop
      vertex 5.02903 52.8388 2.5
      vertex 5.06271 51.5525 2.5
      vertex 5.06271 51.5525 0
    endloop
  endfacet
  facet normal 0.999657 0.0261768 0
    outer loop
      vertex 5.02903 52.8388 0
      vertex 5.02903 52.8388 2.5
      vertex 5.06271 51.5525 0
    endloop
  endfacet
  facet normal 0.991445 -0.130526 0
    outer loop
      vertex 5.19698 54.1145 0
      vertex 5.19698 54.1145 2.5
      vertex 5.02903 52.8388 2.5
    endloop
  endfacet
  facet normal 0.991445 -0.130526 0
    outer loop
      vertex 5.02903 52.8388 0
      vertex 5.19698 54.1145 0
      vertex 5.02903 52.8388 2.5
    endloop
  endfacet
  facet normal 0.95882 -0.284015 0
    outer loop
      vertex 5.56243 55.3482 0
      vertex 5.56243 55.3482 2.5
      vertex 5.19698 54.1145 2.5
    endloop
  endfacet
  facet normal 0.95882 -0.284015 0
    outer loop
      vertex 5.19698 54.1145 0
      vertex 5.56243 55.3482 0
      vertex 5.19698 54.1145 2.5
    endloop
  endfacet
  facet normal 0.902586 -0.43051 0
    outer loop
      vertex 6.11638 56.5096 0
      vertex 6.11638 56.5096 2.5
      vertex 5.56243 55.3482 2.5
    endloop
  endfacet
  facet normal 0.902586 -0.43051 0
    outer loop
      vertex 5.56243 55.3482 0
      vertex 6.11638 56.5096 0
      vertex 5.56243 55.3482 2.5
    endloop
  endfacet
  facet normal 0.824126 -0.566407 0
    outer loop
      vertex 6.84519 57.5701 0
      vertex 6.84519 57.5701 2.5
      vertex 6.11638 56.5096 2.5
    endloop
  endfacet
  facet normal 0.824126 -0.566407 0
    outer loop
      vertex 6.11638 56.5096 0
      vertex 6.84519 57.5701 0
      vertex 6.11638 56.5096 2.5
    endloop
  endfacet
  facet normal 0.725374 -0.688355 0
    outer loop
      vertex 7.73092 58.5034 0
      vertex 7.73092 58.5034 2.5
      vertex 6.84519 57.5701 2.5
    endloop
  endfacet
  facet normal 0.725374 -0.688355 0
    outer loop
      vertex 6.84519 57.5701 0
      vertex 7.73092 58.5034 0
      vertex 6.84519 57.5701 2.5
    endloop
  endfacet
  facet normal 0.608761 -0.793353 0
    outer loop
      vertex 8.75175 59.2867 0
      vertex 8.75175 59.2867 2.5
      vertex 7.73092 58.5034 2.5
    endloop
  endfacet
  facet normal 0.608761 -0.793353 0
    outer loop
      vertex 7.73092 58.5034 0
      vertex 8.75175 59.2867 0
      vertex 7.73092 58.5034 2.5
    endloop
  endfacet
  facet normal 0.477159 -0.878817 0
    outer loop
      vertex 9.88255 59.9007 0
      vertex 9.88255 59.9007 2.5
      vertex 8.75175 59.2867 2.5
    endloop
  endfacet
  facet normal 0.477159 -0.878817 0
    outer loop
      vertex 8.75175 59.2867 0
      vertex 9.88255 59.9007 0
      vertex 8.75175 59.2867 2.5
    endloop
  endfacet
  facet normal 0.333807 -0.942641 0
    outer loop
      vertex 11.0955 60.3302 0
      vertex 11.0955 60.3302 2.5
      vertex 9.88255 59.9007 2.5
    endloop
  endfacet
  facet normal 0.333807 -0.942641 0
    outer loop
      vertex 9.88255 59.9007 0
      vertex 11.0955 60.3302 0
      vertex 9.88255 59.9007 2.5
    endloop
  endfacet
  facet normal 0.182235 -0.983255 0
    outer loop
      vertex 12.3607 60.5647 0
      vertex 12.3607 60.5647 2.5
      vertex 11.0955 60.3302 2.5
    endloop
  endfacet
  facet normal 0.182235 -0.983255 0
    outer loop
      vertex 11.0955 60.3302 0
      vertex 12.3607 60.5647 0
      vertex 11.0955 60.3302 2.5
    endloop
  endfacet
  facet normal 0.0261768 -0.999657 0
    outer loop
      vertex 13.6469 60.5984 0
      vertex 13.6469 60.5984 2.5
      vertex 12.3607 60.5647 2.5
    endloop
  endfacet
  facet normal 0.0261768 -0.999657 0
    outer loop
      vertex 12.3607 60.5647 0
      vertex 13.6469 60.5984 0
      vertex 12.3607 60.5647 2.5
    endloop
  endfacet
  facet normal -0.130526 -0.991445 0
    outer loop
      vertex 14.9227 60.4304 0
      vertex 14.9227 60.4304 2.5
      vertex 13.6469 60.5984 2.5
    endloop
  endfacet
  facet normal -0.130526 -0.991445 0
    outer loop
      vertex 13.6469 60.5984 0
      vertex 14.9227 60.4304 0
      vertex 13.6469 60.5984 2.5
    endloop
  endfacet
  facet normal -0.284015 -0.95882 0
    outer loop
      vertex 16.1564 60.065 0
      vertex 16.1564 60.065 2.5
      vertex 14.9227 60.4304 2.5
    endloop
  endfacet
  facet normal -0.284015 -0.95882 0
    outer loop
      vertex 14.9227 60.4304 0
      vertex 16.1564 60.065 0
      vertex 14.9227 60.4304 2.5
    endloop
  endfacet
  facet normal -0.43051 -0.902586 0
    outer loop
      vertex 17.3178 59.511 0
      vertex 17.3178 59.511 2.5
      vertex 16.1564 60.065 2.5
    endloop
  endfacet
  facet normal -0.43051 -0.902586 0
    outer loop
      vertex 16.1564 60.065 0
      vertex 17.3178 59.511 0
      vertex 16.1564 60.065 2.5
    endloop
  endfacet
  facet normal -0.566407 -0.824126 0
    outer loop
      vertex 18.3782 58.7822 0
      vertex 18.3782 58.7822 2.5
      vertex 17.3178 59.511 2.5
    endloop
  endfacet
  facet normal -0.566407 -0.824126 0
    outer loop
      vertex 17.3178 59.511 0
      vertex 18.3782 58.7822 0
      vertex 17.3178 59.511 2.5
    endloop
  endfacet
  facet normal -0.688355 -0.725374 0
    outer loop
      vertex 19.3116 57.8965 0
      vertex 19.3116 57.8965 2.5
      vertex 18.3782 58.7822 2.5
    endloop
  endfacet
  facet normal -0.688355 -0.725374 0
    outer loop
      vertex 18.3782 58.7822 0
      vertex 19.3116 57.8965 0
      vertex 18.3782 58.7822 2.5
    endloop
  endfacet
  facet normal -0.793353 -0.608761 0
    outer loop
      vertex 20.0949 56.8757 2.5
      vertex 19.3116 57.8965 2.5
      vertex 20.0949 56.8757 0
    endloop
  endfacet
  facet normal -0.793353 -0.608761 0
    outer loop
      vertex 20.0949 56.8757 0
      vertex 19.3116 57.8965 2.5
      vertex 19.3116 57.8965 0
    endloop
  endfacet
  facet normal -0.878817 -0.477159 0
    outer loop
      vertex 20.7089 55.7449 2.5
      vertex 20.0949 56.8757 2.5
      vertex 20.7089 55.7449 0
    endloop
  endfacet
  facet normal -0.878817 -0.477159 0
    outer loop
      vertex 20.7089 55.7449 0
      vertex 20.0949 56.8757 2.5
      vertex 20.0949 56.8757 0
    endloop
  endfacet
  facet normal -0.942641 -0.333807 0
    outer loop
      vertex 21.1384 54.5319 2.5
      vertex 20.7089 55.7449 2.5
      vertex 21.1384 54.5319 0
    endloop
  endfacet
  facet normal -0.942641 -0.333807 0
    outer loop
      vertex 21.1384 54.5319 0
      vertex 20.7089 55.7449 2.5
      vertex 20.7089 55.7449 0
    endloop
  endfacet
  facet normal -0.983255 -0.182235 0
    outer loop
      vertex 21.3729 53.2668 2.5
      vertex 21.1384 54.5319 2.5
      vertex 21.3729 53.2668 0
    endloop
  endfacet
  facet normal -0.983255 -0.182235 0
    outer loop
      vertex 21.3729 53.2668 0
      vertex 21.1384 54.5319 2.5
      vertex 21.1384 54.5319 0
    endloop
  endfacet
  facet normal -0.999657 -0.0261768 0
    outer loop
      vertex 21.4066 51.9805 2.5
      vertex 21.3729 53.2668 2.5
      vertex 21.4066 51.9805 0
    endloop
  endfacet
  facet normal -0.999657 -0.0261768 0
    outer loop
      vertex 21.4066 51.9805 0
      vertex 21.3729 53.2668 2.5
      vertex 21.3729 53.2668 0
    endloop
  endfacet
  facet normal -0.991445 0.130526 0
    outer loop
      vertex 21.4066 51.9805 2.5
      vertex 21.4066 51.9805 0
      vertex 21.2386 50.7048 2.5
    endloop
  endfacet
  facet normal -0.991445 0.130526 0
    outer loop
      vertex 21.2386 50.7048 2.5
      vertex 21.4066 51.9805 0
      vertex 21.2386 50.7048 0
    endloop
  endfacet
  facet normal -0.95882 0.284015 0
    outer loop
      vertex 21.2386 50.7048 2.5
      vertex 21.2386 50.7048 0
      vertex 20.8731 49.471 2.5
    endloop
  endfacet
  facet normal -0.95882 0.284015 0
    outer loop
      vertex 20.8731 49.471 2.5
      vertex 21.2386 50.7048 0
      vertex 20.8731 49.471 0
    endloop
  endfacet
  facet normal -0.902586 0.43051 0
    outer loop
      vertex 20.8731 49.471 2.5
      vertex 20.8731 49.471 0
      vertex 20.3192 48.3096 2.5
    endloop
  endfacet
  facet normal -0.902586 0.43051 0
    outer loop
      vertex 20.3192 48.3096 2.5
      vertex 20.8731 49.471 0
      vertex 20.3192 48.3096 0
    endloop
  endfacet
  facet normal -0.824126 0.566407 0
    outer loop
      vertex 20.3192 48.3096 2.5
      vertex 20.3192 48.3096 0
      vertex 19.5904 47.2492 2.5
    endloop
  endfacet
  facet normal -0.824126 0.566407 0
    outer loop
      vertex 19.5904 47.2492 2.5
      vertex 20.3192 48.3096 0
      vertex 19.5904 47.2492 0
    endloop
  endfacet
  facet normal -0.725374 0.688355 0
    outer loop
      vertex 19.5904 47.2492 2.5
      vertex 19.5904 47.2492 0
      vertex 18.7047 46.3158 2.5
    endloop
  endfacet
  facet normal -0.725374 0.688355 0
    outer loop
      vertex 18.7047 46.3158 2.5
      vertex 19.5904 47.2492 0
      vertex 18.7047 46.3158 0
    endloop
  endfacet
  facet normal -0.608761 0.793353 0
    outer loop
      vertex 18.7047 46.3158 2.5
      vertex 18.7047 46.3158 0
      vertex 17.6838 45.5325 2.5
    endloop
  endfacet
  facet normal -0.608761 0.793353 0
    outer loop
      vertex 17.6838 45.5325 2.5
      vertex 18.7047 46.3158 0
      vertex 17.6838 45.5325 0
    endloop
  endfacet
  facet normal -0.477159 0.878817 0
    outer loop
      vertex 17.6838 45.5325 2.5
      vertex 17.6838 45.5325 0
      vertex 16.553 44.9186 2.5
    endloop
  endfacet
  facet normal -0.477159 0.878817 0
    outer loop
      vertex 16.553 44.9186 2.5
      vertex 17.6838 45.5325 0
      vertex 16.553 44.9186 0
    endloop
  endfacet
  facet normal -0.333807 0.942641 0
    outer loop
      vertex 16.553 44.9186 2.5
      vertex 16.553 44.9186 0
      vertex 15.3401 44.489 2.5
    endloop
  endfacet
  facet normal -0.333807 0.942641 0
    outer loop
      vertex 15.3401 44.489 2.5
      vertex 16.553 44.9186 0
      vertex 15.3401 44.489 0
    endloop
  endfacet
  facet normal -0.182235 0.983255 0
    outer loop
      vertex 15.3401 44.489 2.5
      vertex 15.3401 44.489 0
      vertex 14.0749 44.2545 2.5
    endloop
  endfacet
  facet normal -0.182235 0.983255 0
    outer loop
      vertex 14.0749 44.2545 2.5
      vertex 15.3401 44.489 0
      vertex 14.0749 44.2545 0
    endloop
  endfacet
  facet normal -0.0261768 0.999657 0
    outer loop
      vertex 14.0749 44.2545 2.5
      vertex 14.0749 44.2545 0
      vertex 12.7886 44.2209 2.5
    endloop
  endfacet
  facet normal -0.0261768 0.999657 0
    outer loop
      vertex 12.7886 44.2209 2.5
      vertex 14.0749 44.2545 0
      vertex 12.7886 44.2209 0
    endloop
  endfacet
  facet normal 0.130526 0.991445 0
    outer loop
      vertex 12.7886 44.2209 2.5
      vertex 12.7886 44.2209 0
      vertex 11.5129 44.3888 2.5
    endloop
  endfacet
  facet normal 0.130526 0.991445 0
    outer loop
      vertex 11.5129 44.3888 2.5
      vertex 12.7886 44.2209 0
      vertex 11.5129 44.3888 0
    endloop
  endfacet
  facet normal 0.284015 0.95882 0
    outer loop
      vertex 11.5129 44.3888 2.5
      vertex 11.5129 44.3888 0
      vertex 10.2792 44.7543 2.5
    endloop
  endfacet
  facet normal 0.284015 0.95882 0
    outer loop
      vertex 10.2792 44.7543 2.5
      vertex 11.5129 44.3888 0
      vertex 10.2792 44.7543 0
    endloop
  endfacet
  facet normal 0.43051 0.902586 0
    outer loop
      vertex 10.2792 44.7543 2.5
      vertex 10.2792 44.7543 0
      vertex 9.11779 45.3082 2.5
    endloop
  endfacet
  facet normal 0.43051 0.902586 0
    outer loop
      vertex 9.11779 45.3082 2.5
      vertex 10.2792 44.7543 0
      vertex 9.11779 45.3082 0
    endloop
  endfacet
  facet normal 0.566407 0.824126 0
    outer loop
      vertex 9.11779 45.3082 2.5
      vertex 9.11779 45.3082 0
      vertex 8.05736 46.037 2.5
    endloop
  endfacet
  facet normal 0.566407 0.824126 0
    outer loop
      vertex 8.05736 46.037 2.5
      vertex 9.11779 45.3082 0
      vertex 8.05736 46.037 0
    endloop
  endfacet
  facet normal 0.688355 0.725374 0
    outer loop
      vertex 8.05736 46.037 2.5
      vertex 8.05736 46.037 0
      vertex 7.124 46.9228 2.5
    endloop
  endfacet
  facet normal 0.688355 0.725374 0
    outer loop
      vertex 7.124 46.9228 2.5
      vertex 8.05736 46.037 0
      vertex 7.124 46.9228 0
    endloop
  endfacet
  facet normal 0.793353 0.608761 0
    outer loop
      vertex 6.34069 47.9436 2.5
      vertex 7.124 46.9228 2.5
      vertex 7.124 46.9228 0
    endloop
  endfacet
  facet normal 0.793353 0.608761 0
    outer loop
      vertex 6.34069 47.9436 0
      vertex 6.34069 47.9436 2.5
      vertex 7.124 46.9228 0
    endloop
  endfacet
  facet normal 0.878817 0.477159 0
    outer loop
      vertex 5.72672 49.0744 2.5
      vertex 6.34069 47.9436 2.5
      vertex 6.34069 47.9436 0
    endloop
  endfacet
  facet normal 0.878817 0.477159 0
    outer loop
      vertex 5.72672 49.0744 0
      vertex 5.72672 49.0744 2.5
      vertex 6.34069 47.9436 0
    endloop
  endfacet
  facet normal 0.942641 0.333807 0
    outer loop
      vertex 5.2972 50.2873 2.5
      vertex 5.72672 49.0744 2.5
      vertex 5.72672 49.0744 0
    endloop
  endfacet
  facet normal 0.942641 0.333807 0
    outer loop
      vertex 5.2972 50.2873 0
      vertex 5.2972 50.2873 2.5
      vertex 5.72672 49.0744 0
    endloop
  endfacet
  facet normal 0.983255 0.182235 0
    outer loop
      vertex 5.06271 51.5525 2.5
      vertex 5.2972 50.2873 2.5
      vertex 5.2972 50.2873 0
    endloop
  endfacet
  facet normal 0.983255 0.182235 0
    outer loop
      vertex 5.06271 51.5525 0
      vertex 5.06271 51.5525 2.5
      vertex 5.2972 50.2873 0
    endloop
  endfacet
  facet normal -1 0 0
    outer loop
      vertex 41 65 22.5
      vertex 41 55 25
      vertex 41 70 25
    endloop
  endfacet
  facet normal -1 0 0
    outer loop
      vertex 41 55 5
      vertex 41 55 25
      vertex 41 62.8349 11.25
    endloop
  endfacet
  facet normal -1 0 0
    outer loop
      vertex 41 55 5
      vertex 41 62.8349 11.25
      vertex 41 62.8349 8.75
    endloop
  endfacet
  facet normal -1 0 0
    outer loop
      vertex 41 55 5
      vertex 41 62.8349 8.75
      vertex 41 65 7.5
    endloop
  endfacet
  facet normal -1 0 0
    outer loop
      vertex 41 55 5
      vertex 41 65 7.5
      vertex 41 70 5
    endloop
  endfacet
  facet normal -1 0 0
    outer loop
      vertex 41 67.1651 8.75
      vertex 41 70 5
      vertex 41 65 7.5
    endloop
  endfacet
  facet normal -1 0 0
    outer loop
      vertex 41 67.1651 11.25
      vertex 41 70 5
      vertex 41 67.1651 8.75
    endloop
  endfacet
  facet normal -1 0 0
    outer loop
      vertex 41 65 12.5
      vertex 41 55 25
      vertex 41 67.1651 11.25
    endloop
  endfacet
  facet normal -1 0 0
    outer loop
      vertex 41 70 5
      vertex 41 67.1651 11.25
      vertex 41 70 25
    endloop
  endfacet
  facet normal -1 0 0
    outer loop
      vertex 41 65 17.5
      vertex 41 67.1651 11.25
      vertex 41 62.8349 18.75
    endloop
  endfacet
  facet normal -1 0 0
    outer loop
      vertex 41 62.8349 18.75
      vertex 41 55 25
      vertex 41 62.8349 21.25
    endloop
  endfacet
  facet normal -1 0 0
    outer loop
      vertex 41 67.1651 11.25
      vertex 41 55 25
      vertex 41 62.8349 18.75
    endloop
  endfacet
  facet normal -1 0 0
    outer loop
      vertex 41 67.1651 21.25
      vertex 41 70 25
      vertex 41 67.1651 18.75
    endloop
  endfacet
  facet normal -1 0 0
    outer loop
      vertex 41 67.1651 11.25
      vertex 41 65 17.5
      vertex 41 67.1651 18.75
    endloop
  endfacet
  facet normal -1 0 0
    outer loop
      vertex 41 67.1651 11.25
      vertex 41 67.1651 18.75
      vertex 41 70 25
    endloop
  endfacet
  facet normal -1 0 0
    outer loop
      vertex 41 65 22.5
      vertex 41 70 25
      vertex 41 67.1651 21.25
    endloop
  endfacet
  facet normal -1 0 0
    outer loop
      vertex 41 62.8349 21.25
      vertex 41 55 25
      vertex 41 65 22.5
    endloop
  endfacet
  facet normal -1 0 0
    outer loop
      vertex 41 62.8349 11.25
      vertex 41 55 25
      vertex 41 65 12.5
    endloop
  endfacet
  facet normal 0 1 0
    outer loop
      vertex 41 55 5
      vertex 26.5994 55 5
      vertex 41 55 25
    endloop
  endfacet
  facet normal -0.811523 0 0.58432
    outer loop
      vertex 26.5994 50 5
      vertex 41 50 25
      vertex 26.5994 55 5
    endloop
  endfacet
  facet normal -0.811523 0 0.58432
    outer loop
      vertex 26.5994 55 5
      vertex 41 50 25
      vertex 41 55 25
    endloop
  endfacet
  facet normal 0 -1 0
    outer loop
      vertex 41 50 25
      vertex 26.5994 50 5
      vertex 41 50 5
    endloop
  endfacet
  facet normal -1 0 0
    outer loop
      vertex 41 40 7.5
      vertex 41 50 5
      vertex 41 35 5
    endloop
  endfacet
  facet normal -1 0 0
    outer loop
      vertex 41 40 12.5
      vertex 41 35 25
      vertex 41 37.8349 18.75
    endloop
  endfacet
  facet normal -1 0 0
    outer loop
      vertex 41 35 25
      vertex 41 37.8349 8.75
      vertex 41 35 5
    endloop
  endfacet
  facet normal -1 0 0
    outer loop
      vertex 41 40 12.5
      vertex 41 37.8349 18.75
      vertex 41 42.1651 11.25
    endloop
  endfacet
  facet normal -1 0 0
    outer loop
      vertex 41 37.8349 8.75
      vertex 41 40 7.5
      vertex 41 35 5
    endloop
  endfacet
  facet normal -1 0 0
    outer loop
      vertex 41 42.1651 11.25
      vertex 41 50 5
      vertex 41 42.1651 8.75
    endloop
  endfacet
  facet normal -1 0 0
    outer loop
      vertex 41 40 17.5
      vertex 41 50 5
      vertex 41 42.1651 11.25
    endloop
  endfacet
  facet normal -1 0 0
    outer loop
      vertex 41 42.1651 18.75
      vertex 41 50 5
      vertex 41 40 17.5
    endloop
  endfacet
  facet normal -1 0 0
    outer loop
      vertex 41 37.8349 18.75
      vertex 41 35 25
      vertex 41 37.8349 21.25
    endloop
  endfacet
  facet normal -1 0 0
    outer loop
      vertex 41 35 25
      vertex 41 40 12.5
      vertex 41 37.8349 11.25
    endloop
  endfacet
  facet normal -1 0 0
    outer loop
      vertex 41 35 25
      vertex 41 37.8349 11.25
      vertex 41 37.8349 8.75
    endloop
  endfacet
  facet normal -1 0 0
    outer loop
      vertex 41 40 17.5
      vertex 41 42.1651 11.25
      vertex 41 37.8349 18.75
    endloop
  endfacet
  facet normal -1 0 0
    outer loop
      vertex 41 50 25
      vertex 41 50 5
      vertex 41 42.1651 18.75
    endloop
  endfacet
  facet normal -1 0 0
    outer loop
      vertex 41 50 25
      vertex 41 42.1651 18.75
      vertex 41 42.1651 21.25
    endloop
  endfacet
  facet normal -1 0 0
    outer loop
      vertex 41 50 25
      vertex 41 42.1651 21.25
      vertex 41 40 22.5
    endloop
  endfacet
  facet normal -1 0 0
    outer loop
      vertex 41 50 25
      vertex 41 40 22.5
      vertex 41 35 25
    endloop
  endfacet
  facet normal -1 0 0
    outer loop
      vertex 41 37.8349 21.25
      vertex 41 35 25
      vertex 41 40 22.5
    endloop
  endfacet
  facet normal -1 0 0
    outer loop
      vertex 41 42.1651 8.75
      vertex 41 50 5
      vertex 41 40 7.5
    endloop
  endfacet
  facet normal 0.994522 0.104529 0
    outer loop
      vertex 2.03314 51.8235 5
      vertex 2.15568 50.6576 5
      vertex 2.15568 50.6576 2.5
    endloop
  endfacet
  facet normal 0.994522 0.104529 0
    outer loop
      vertex 2.03314 51.8235 2.5
      vertex 2.03314 51.8235 5
      vertex 2.15568 50.6576 2.5
    endloop
  endfacet
  facet normal 1 3.17843e-008 0
    outer loop
      vertex 2.03314 52.9958 5
      vertex 2.03314 51.8235 5
      vertex 2.03314 51.8235 2.5
    endloop
  endfacet
  facet normal 1 3.17843e-008 0
    outer loop
      vertex 2.03314 52.9958 2.5
      vertex 2.03314 52.9958 5
      vertex 2.03314 51.8235 2.5
    endloop
  endfacet
  facet normal 0.978148 0.207912 0
    outer loop
      vertex 2.15568 50.6576 5
      vertex 2.39942 49.5109 5
      vertex 2.39942 49.5109 2.5
    endloop
  endfacet
  facet normal 0.978148 0.207912 0
    outer loop
      vertex 2.15568 50.6576 2.5
      vertex 2.15568 50.6576 5
      vertex 2.39942 49.5109 2.5
    endloop
  endfacet
  facet normal 0.951056 0.309017 0
    outer loop
      vertex 2.39942 49.5109 5
      vertex 2.76169 48.3959 5
      vertex 2.76169 48.3959 2.5
    endloop
  endfacet
  facet normal 0.951056 0.309017 0
    outer loop
      vertex 2.39942 49.5109 2.5
      vertex 2.39942 49.5109 5
      vertex 2.76169 48.3959 2.5
    endloop
  endfacet
  facet normal 0.913545 0.406737 0
    outer loop
      vertex 2.76169 48.3959 5
      vertex 3.23852 47.3249 5
      vertex 3.23852 47.3249 2.5
    endloop
  endfacet
  facet normal 0.913545 0.406737 0
    outer loop
      vertex 2.76169 48.3959 2.5
      vertex 2.76169 48.3959 5
      vertex 3.23852 47.3249 2.5
    endloop
  endfacet
  facet normal 0.866025 0.5 0
    outer loop
      vertex 3.23852 47.3249 5
      vertex 3.82468 46.3097 5
      vertex 3.82468 46.3097 2.5
    endloop
  endfacet
  facet normal 0.866025 0.5 0
    outer loop
      vertex 3.23852 47.3249 2.5
      vertex 3.23852 47.3249 5
      vertex 3.82468 46.3097 2.5
    endloop
  endfacet
  facet normal 0.809017 0.587785 0
    outer loop
      vertex 3.82468 46.3097 5
      vertex 4.51376 45.3612 5
      vertex 4.51376 45.3612 2.5
    endloop
  endfacet
  facet normal 0.809017 0.587785 0
    outer loop
      vertex 3.82468 46.3097 2.5
      vertex 3.82468 46.3097 5
      vertex 4.51376 45.3612 2.5
    endloop
  endfacet
  facet normal 0.743145 0.66913 0
    outer loop
      vertex 4.51376 45.3612 5
      vertex 5.29819 44.49 5
      vertex 5.29819 44.49 2.5
    endloop
  endfacet
  facet normal 0.743145 0.66913 0
    outer loop
      vertex 4.51376 45.3612 2.5
      vertex 4.51376 45.3612 5
      vertex 5.29819 44.49 2.5
    endloop
  endfacet
  facet normal 0.66913 0.743145 0
    outer loop
      vertex 6.1694 43.7056 5
      vertex 6.1694 43.7056 2.5
      vertex 5.29819 44.49 5
    endloop
  endfacet
  facet normal 0.66913 0.743145 0
    outer loop
      vertex 5.29819 44.49 5
      vertex 6.1694 43.7056 2.5
      vertex 5.29819 44.49 2.5
    endloop
  endfacet
  facet normal 0.587785 0.809017 0
    outer loop
      vertex 7.11783 43.0165 5
      vertex 7.11783 43.0165 2.5
      vertex 6.1694 43.7056 5
    endloop
  endfacet
  facet normal 0.587785 0.809017 0
    outer loop
      vertex 6.1694 43.7056 5
      vertex 7.11783 43.0165 2.5
      vertex 6.1694 43.7056 2.5
    endloop
  endfacet
  facet normal 0.5 0.866025 0
    outer loop
      vertex 8.1331 42.4304 5
      vertex 8.1331 42.4304 2.5
      vertex 7.11783 43.0165 5
    endloop
  endfacet
  facet normal 0.5 0.866025 0
    outer loop
      vertex 7.11783 43.0165 5
      vertex 8.1331 42.4304 2.5
      vertex 7.11783 43.0165 2.5
    endloop
  endfacet
  facet normal 0.406736 0.913546 0
    outer loop
      vertex 9.20407 41.9535 5
      vertex 9.20407 41.9535 2.5
      vertex 8.1331 42.4304 5
    endloop
  endfacet
  facet normal 0.406736 0.913546 0
    outer loop
      vertex 8.1331 42.4304 5
      vertex 9.20407 41.9535 2.5
      vertex 8.1331 42.4304 2.5
    endloop
  endfacet
  facet normal 0.309017 0.951056 0
    outer loop
      vertex 10.319 41.5913 5
      vertex 10.319 41.5913 2.5
      vertex 9.20407 41.9535 5
    endloop
  endfacet
  facet normal 0.309017 0.951056 0
    outer loop
      vertex 9.20407 41.9535 5
      vertex 10.319 41.5913 2.5
      vertex 9.20407 41.9535 2.5
    endloop
  endfacet
  facet normal 0.207911 0.978148 0
    outer loop
      vertex 11.4657 41.3475 5
      vertex 11.4657 41.3475 2.5
      vertex 10.319 41.5913 5
    endloop
  endfacet
  facet normal 0.207911 0.978148 0
    outer loop
      vertex 10.319 41.5913 5
      vertex 11.4657 41.3475 2.5
      vertex 10.319 41.5913 2.5
    endloop
  endfacet
  facet normal 0.104529 0.994522 0
    outer loop
      vertex 12.6316 41.225 5
      vertex 12.6316 41.225 2.5
      vertex 11.4657 41.3475 5
    endloop
  endfacet
  facet normal 0.104529 0.994522 0
    outer loop
      vertex 11.4657 41.3475 5
      vertex 12.6316 41.225 2.5
      vertex 11.4657 41.3475 2.5
    endloop
  endfacet
  facet normal -3.17843e-008 1 0
    outer loop
      vertex 13.804 41.225 5
      vertex 13.804 41.225 2.5
      vertex 12.6316 41.225 5
    endloop
  endfacet
  facet normal -3.17843e-008 1 0
    outer loop
      vertex 12.6316 41.225 5
      vertex 13.804 41.225 2.5
      vertex 12.6316 41.225 2.5
    endloop
  endfacet
  facet normal -0.104529 0.994522 0
    outer loop
      vertex 14.9699 41.3475 5
      vertex 14.9699 41.3475 2.5
      vertex 13.804 41.225 5
    endloop
  endfacet
  facet normal -0.104529 0.994522 0
    outer loop
      vertex 13.804 41.225 5
      vertex 14.9699 41.3475 2.5
      vertex 13.804 41.225 2.5
    endloop
  endfacet
  facet normal -0.207912 0.978148 0
    outer loop
      vertex 16.1166 41.5913 5
      vertex 16.1166 41.5913 2.5
      vertex 14.9699 41.3475 5
    endloop
  endfacet
  facet normal -0.207912 0.978148 0
    outer loop
      vertex 14.9699 41.3475 5
      vertex 16.1166 41.5913 2.5
      vertex 14.9699 41.3475 2.5
    endloop
  endfacet
  facet normal -0.309017 0.951056 0
    outer loop
      vertex 17.2315 41.9535 5
      vertex 17.2315 41.9535 2.5
      vertex 16.1166 41.5913 5
    endloop
  endfacet
  facet normal -0.309017 0.951056 0
    outer loop
      vertex 16.1166 41.5913 5
      vertex 17.2315 41.9535 2.5
      vertex 16.1166 41.5913 2.5
    endloop
  endfacet
  facet normal -0.406737 0.913545 0
    outer loop
      vertex 18.3025 42.4304 5
      vertex 18.3025 42.4304 2.5
      vertex 17.2315 41.9535 5
    endloop
  endfacet
  facet normal -0.406737 0.913545 0
    outer loop
      vertex 17.2315 41.9535 5
      vertex 18.3025 42.4304 2.5
      vertex 17.2315 41.9535 2.5
    endloop
  endfacet
  facet normal -0.5 0.866025 0
    outer loop
      vertex 19.3177 43.0165 5
      vertex 19.3177 43.0165 2.5
      vertex 18.3025 42.4304 5
    endloop
  endfacet
  facet normal -0.5 0.866025 0
    outer loop
      vertex 18.3025 42.4304 5
      vertex 19.3177 43.0165 2.5
      vertex 18.3025 42.4304 2.5
    endloop
  endfacet
  facet normal -0.587785 0.809017 0
    outer loop
      vertex 20.2662 43.7056 5
      vertex 20.2662 43.7056 2.5
      vertex 19.3177 43.0165 5
    endloop
  endfacet
  facet normal -0.587785 0.809017 0
    outer loop
      vertex 19.3177 43.0165 5
      vertex 20.2662 43.7056 2.5
      vertex 19.3177 43.0165 2.5
    endloop
  endfacet
  facet normal -0.66913 0.743145 0
    outer loop
      vertex 21.1374 44.49 5
      vertex 21.1374 44.49 2.5
      vertex 20.2662 43.7056 5
    endloop
  endfacet
  facet normal -0.66913 0.743145 0
    outer loop
      vertex 20.2662 43.7056 5
      vertex 21.1374 44.49 2.5
      vertex 20.2662 43.7056 2.5
    endloop
  endfacet
  facet normal -0.743145 0.66913 0
    outer loop
      vertex 21.9218 45.3612 5
      vertex 21.9218 45.3612 2.5
      vertex 21.1374 44.49 5
    endloop
  endfacet
  facet normal -0.743145 0.66913 0
    outer loop
      vertex 21.1374 44.49 5
      vertex 21.9218 45.3612 2.5
      vertex 21.1374 44.49 2.5
    endloop
  endfacet
  facet normal -0.809017 0.587785 0
    outer loop
      vertex 22.6109 46.3097 5
      vertex 22.6109 46.3097 2.5
      vertex 21.9218 45.3612 5
    endloop
  endfacet
  facet normal -0.809017 0.587785 0
    outer loop
      vertex 21.9218 45.3612 5
      vertex 22.6109 46.3097 2.5
      vertex 21.9218 45.3612 2.5
    endloop
  endfacet
  facet normal -0.866025 0.5 0
    outer loop
      vertex 23.1971 47.3249 5
      vertex 23.1971 47.3249 2.5
      vertex 22.6109 46.3097 5
    endloop
  endfacet
  facet normal -0.866025 0.5 0
    outer loop
      vertex 22.6109 46.3097 5
      vertex 23.1971 47.3249 2.5
      vertex 22.6109 46.3097 2.5
    endloop
  endfacet
  facet normal -0.913546 0.406736 0
    outer loop
      vertex 23.6739 48.3959 5
      vertex 23.6739 48.3959 2.5
      vertex 23.1971 47.3249 5
    endloop
  endfacet
  facet normal -0.913546 0.406736 0
    outer loop
      vertex 23.1971 47.3249 5
      vertex 23.6739 48.3959 2.5
      vertex 23.1971 47.3249 2.5
    endloop
  endfacet
  facet normal -0.951056 0.309017 0
    outer loop
      vertex 24.0362 49.5109 5
      vertex 24.0362 49.5109 2.5
      vertex 23.6739 48.3959 5
    endloop
  endfacet
  facet normal -0.951056 0.309017 0
    outer loop
      vertex 23.6739 48.3959 5
      vertex 24.0362 49.5109 2.5
      vertex 23.6739 48.3959 2.5
    endloop
  endfacet
  facet normal -0.978148 0.207911 0
    outer loop
      vertex 24.2799 50.6576 5
      vertex 24.2799 50.6576 2.5
      vertex 24.0362 49.5109 5
    endloop
  endfacet
  facet normal -0.978148 0.207911 0
    outer loop
      vertex 24.0362 49.5109 5
      vertex 24.2799 50.6576 2.5
      vertex 24.0362 49.5109 2.5
    endloop
  endfacet
  facet normal -0.994522 0.104529 0
    outer loop
      vertex 24.4024 51.8235 5
      vertex 24.4024 51.8235 2.5
      vertex 24.2799 50.6576 5
    endloop
  endfacet
  facet normal -0.994522 0.104529 0
    outer loop
      vertex 24.2799 50.6576 5
      vertex 24.4024 51.8235 2.5
      vertex 24.2799 50.6576 2.5
    endloop
  endfacet
  facet normal -1 -3.17843e-008 0
    outer loop
      vertex 24.4024 51.8235 5
      vertex 24.4024 52.9958 5
      vertex 24.4024 51.8235 2.5
    endloop
  endfacet
  facet normal -1 -3.17843e-008 0
    outer loop
      vertex 24.4024 51.8235 2.5
      vertex 24.4024 52.9958 5
      vertex 24.4024 52.9958 2.5
    endloop
  endfacet
  facet normal -0.994522 -0.104529 0
    outer loop
      vertex 24.4024 52.9958 5
      vertex 24.2799 54.1617 5
      vertex 24.4024 52.9958 2.5
    endloop
  endfacet
  facet normal -0.994522 -0.104529 0
    outer loop
      vertex 24.4024 52.9958 2.5
      vertex 24.2799 54.1617 5
      vertex 24.2799 54.1617 2.5
    endloop
  endfacet
  facet normal -0.978148 -0.207912 0
    outer loop
      vertex 24.2799 54.1617 5
      vertex 24.0362 55.3084 5
      vertex 24.2799 54.1617 2.5
    endloop
  endfacet
  facet normal -0.978148 -0.207912 0
    outer loop
      vertex 24.2799 54.1617 2.5
      vertex 24.0362 55.3084 5
      vertex 24.0362 55.3084 2.5
    endloop
  endfacet
  facet normal -0.951056 -0.309017 0
    outer loop
      vertex 24.0362 55.3084 5
      vertex 23.6739 56.4233 5
      vertex 24.0362 55.3084 2.5
    endloop
  endfacet
  facet normal -0.951056 -0.309017 0
    outer loop
      vertex 24.0362 55.3084 2.5
      vertex 23.6739 56.4233 5
      vertex 23.6739 56.4233 2.5
    endloop
  endfacet
  facet normal -0.913545 -0.406737 0
    outer loop
      vertex 23.6739 56.4233 5
      vertex 23.1971 57.4943 5
      vertex 23.6739 56.4233 2.5
    endloop
  endfacet
  facet normal -0.913545 -0.406737 0
    outer loop
      vertex 23.6739 56.4233 2.5
      vertex 23.1971 57.4943 5
      vertex 23.1971 57.4943 2.5
    endloop
  endfacet
  facet normal -0.866025 -0.5 0
    outer loop
      vertex 23.1971 57.4943 5
      vertex 22.6109 58.5096 5
      vertex 23.1971 57.4943 2.5
    endloop
  endfacet
  facet normal -0.866025 -0.5 0
    outer loop
      vertex 23.1971 57.4943 2.5
      vertex 22.6109 58.5096 5
      vertex 22.6109 58.5096 2.5
    endloop
  endfacet
  facet normal -0.809017 -0.587785 0
    outer loop
      vertex 22.6109 58.5096 5
      vertex 21.9218 59.458 5
      vertex 22.6109 58.5096 2.5
    endloop
  endfacet
  facet normal -0.809017 -0.587785 0
    outer loop
      vertex 22.6109 58.5096 2.5
      vertex 21.9218 59.458 5
      vertex 21.9218 59.458 2.5
    endloop
  endfacet
  facet normal -0.743145 -0.66913 0
    outer loop
      vertex 21.9218 59.458 5
      vertex 21.1374 60.3292 5
      vertex 21.9218 59.458 2.5
    endloop
  endfacet
  facet normal -0.743145 -0.66913 0
    outer loop
      vertex 21.9218 59.458 2.5
      vertex 21.1374 60.3292 5
      vertex 21.1374 60.3292 2.5
    endloop
  endfacet
  facet normal -0.66913 -0.743145 0
    outer loop
      vertex 21.1374 60.3292 2.5
      vertex 21.1374 60.3292 5
      vertex 20.2662 61.1137 5
    endloop
  endfacet
  facet normal -0.66913 -0.743145 0
    outer loop
      vertex 20.2662 61.1137 2.5
      vertex 21.1374 60.3292 2.5
      vertex 20.2662 61.1137 5
    endloop
  endfacet
  facet normal -0.587785 -0.809017 0
    outer loop
      vertex 20.2662 61.1137 2.5
      vertex 20.2662 61.1137 5
      vertex 19.3177 61.8027 5
    endloop
  endfacet
  facet normal -0.587785 -0.809017 0
    outer loop
      vertex 19.3177 61.8027 2.5
      vertex 20.2662 61.1137 2.5
      vertex 19.3177 61.8027 5
    endloop
  endfacet
  facet normal -0.5 -0.866025 0
    outer loop
      vertex 19.3177 61.8027 2.5
      vertex 19.3177 61.8027 5
      vertex 18.3025 62.3889 5
    endloop
  endfacet
  facet normal -0.5 -0.866025 0
    outer loop
      vertex 18.3025 62.3889 2.5
      vertex 19.3177 61.8027 2.5
      vertex 18.3025 62.3889 5
    endloop
  endfacet
  facet normal -0.406736 -0.913546 0
    outer loop
      vertex 18.3025 62.3889 2.5
      vertex 18.3025 62.3889 5
      vertex 17.2315 62.8657 5
    endloop
  endfacet
  facet normal -0.406736 -0.913546 0
    outer loop
      vertex 17.2315 62.8657 2.5
      vertex 18.3025 62.3889 2.5
      vertex 17.2315 62.8657 5
    endloop
  endfacet
  facet normal -0.309017 -0.951056 0
    outer loop
      vertex 17.2315 62.8657 2.5
      vertex 17.2315 62.8657 5
      vertex 16.1166 63.228 5
    endloop
  endfacet
  facet normal -0.309017 -0.951056 0
    outer loop
      vertex 16.1166 63.228 2.5
      vertex 17.2315 62.8657 2.5
      vertex 16.1166 63.228 5
    endloop
  endfacet
  facet normal -0.207911 -0.978148 0
    outer loop
      vertex 16.1166 63.228 2.5
      vertex 16.1166 63.228 5
      vertex 14.9699 63.4717 5
    endloop
  endfacet
  facet normal -0.207911 -0.978148 0
    outer loop
      vertex 14.9699 63.4717 2.5
      vertex 16.1166 63.228 2.5
      vertex 14.9699 63.4717 5
    endloop
  endfacet
  facet normal -0.104529 -0.994522 0
    outer loop
      vertex 14.9699 63.4717 2.5
      vertex 14.9699 63.4717 5
      vertex 13.804 63.5943 5
    endloop
  endfacet
  facet normal -0.104529 -0.994522 0
    outer loop
      vertex 13.804 63.5943 2.5
      vertex 14.9699 63.4717 2.5
      vertex 13.804 63.5943 5
    endloop
  endfacet
  facet normal 3.17843e-008 -1 0
    outer loop
      vertex 13.804 63.5943 2.5
      vertex 13.804 63.5943 5
      vertex 12.6316 63.5943 5
    endloop
  endfacet
  facet normal 3.17843e-008 -1 0
    outer loop
      vertex 12.6316 63.5943 2.5
      vertex 13.804 63.5943 2.5
      vertex 12.6316 63.5943 5
    endloop
  endfacet
  facet normal 0.104529 -0.994522 0
    outer loop
      vertex 12.6316 63.5943 2.5
      vertex 12.6316 63.5943 5
      vertex 11.4657 63.4717 5
    endloop
  endfacet
  facet normal 0.104529 -0.994522 0
    outer loop
      vertex 11.4657 63.4717 2.5
      vertex 12.6316 63.5943 2.5
      vertex 11.4657 63.4717 5
    endloop
  endfacet
  facet normal 0.207912 -0.978148 0
    outer loop
      vertex 11.4657 63.4717 2.5
      vertex 11.4657 63.4717 5
      vertex 10.319 63.228 5
    endloop
  endfacet
  facet normal 0.207912 -0.978148 0
    outer loop
      vertex 10.319 63.228 2.5
      vertex 11.4657 63.4717 2.5
      vertex 10.319 63.228 5
    endloop
  endfacet
  facet normal 0.309017 -0.951056 0
    outer loop
      vertex 10.319 63.228 2.5
      vertex 10.319 63.228 5
      vertex 9.20407 62.8657 5
    endloop
  endfacet
  facet normal 0.309017 -0.951056 0
    outer loop
      vertex 9.20407 62.8657 2.5
      vertex 10.319 63.228 2.5
      vertex 9.20407 62.8657 5
    endloop
  endfacet
  facet normal 0.406737 -0.913545 0
    outer loop
      vertex 9.20407 62.8657 2.5
      vertex 9.20407 62.8657 5
      vertex 8.1331 62.3889 5
    endloop
  endfacet
  facet normal 0.406737 -0.913545 0
    outer loop
      vertex 8.1331 62.3889 2.5
      vertex 9.20407 62.8657 2.5
      vertex 8.1331 62.3889 5
    endloop
  endfacet
  facet normal 0.5 -0.866025 0
    outer loop
      vertex 8.1331 62.3889 2.5
      vertex 8.1331 62.3889 5
      vertex 7.11783 61.8027 5
    endloop
  endfacet
  facet normal 0.5 -0.866025 0
    outer loop
      vertex 7.11783 61.8027 2.5
      vertex 8.1331 62.3889 2.5
      vertex 7.11783 61.8027 5
    endloop
  endfacet
  facet normal 0.587785 -0.809017 0
    outer loop
      vertex 7.11783 61.8027 2.5
      vertex 7.11783 61.8027 5
      vertex 6.1694 61.1137 5
    endloop
  endfacet
  facet normal 0.587785 -0.809017 0
    outer loop
      vertex 6.1694 61.1137 2.5
      vertex 7.11783 61.8027 2.5
      vertex 6.1694 61.1137 5
    endloop
  endfacet
  facet normal 0.66913 -0.743145 0
    outer loop
      vertex 6.1694 61.1137 2.5
      vertex 6.1694 61.1137 5
      vertex 5.29819 60.3292 5
    endloop
  endfacet
  facet normal 0.66913 -0.743145 0
    outer loop
      vertex 5.29819 60.3292 2.5
      vertex 6.1694 61.1137 2.5
      vertex 5.29819 60.3292 5
    endloop
  endfacet
  facet normal 0.743145 -0.66913 0
    outer loop
      vertex 5.29819 60.3292 2.5
      vertex 5.29819 60.3292 5
      vertex 4.51376 59.458 5
    endloop
  endfacet
  facet normal 0.743145 -0.66913 0
    outer loop
      vertex 4.51376 59.458 2.5
      vertex 5.29819 60.3292 2.5
      vertex 4.51376 59.458 5
    endloop
  endfacet
  facet normal 0.809017 -0.587785 0
    outer loop
      vertex 4.51376 59.458 2.5
      vertex 4.51376 59.458 5
      vertex 3.82468 58.5096 5
    endloop
  endfacet
  facet normal 0.809017 -0.587785 0
    outer loop
      vertex 3.82468 58.5096 2.5
      vertex 4.51376 59.458 2.5
      vertex 3.82468 58.5096 5
    endloop
  endfacet
  facet normal 0.866025 -0.5 0
    outer loop
      vertex 3.82468 58.5096 2.5
      vertex 3.82468 58.5096 5
      vertex 3.23852 57.4943 5
    endloop
  endfacet
  facet normal 0.866025 -0.5 0
    outer loop
      vertex 3.23852 57.4943 2.5
      vertex 3.82468 58.5096 2.5
      vertex 3.23852 57.4943 5
    endloop
  endfacet
  facet normal 0.913546 -0.406736 0
    outer loop
      vertex 3.23852 57.4943 2.5
      vertex 3.23852 57.4943 5
      vertex 2.76169 56.4233 5
    endloop
  endfacet
  facet normal 0.913546 -0.406736 0
    outer loop
      vertex 2.76169 56.4233 2.5
      vertex 3.23852 57.4943 2.5
      vertex 2.76169 56.4233 5
    endloop
  endfacet
  facet normal 0.951056 -0.309017 0
    outer loop
      vertex 2.76169 56.4233 2.5
      vertex 2.76169 56.4233 5
      vertex 2.39942 55.3084 5
    endloop
  endfacet
  facet normal 0.951056 -0.309017 0
    outer loop
      vertex 2.39942 55.3084 2.5
      vertex 2.76169 56.4233 2.5
      vertex 2.39942 55.3084 5
    endloop
  endfacet
  facet normal 0.978148 -0.207911 0
    outer loop
      vertex 2.39942 55.3084 2.5
      vertex 2.39942 55.3084 5
      vertex 2.15568 54.1617 5
    endloop
  endfacet
  facet normal 0.978148 -0.207911 0
    outer loop
      vertex 2.15568 54.1617 2.5
      vertex 2.39942 55.3084 2.5
      vertex 2.15568 54.1617 5
    endloop
  endfacet
  facet normal 0.994522 -0.104529 0
    outer loop
      vertex 2.15568 54.1617 2.5
      vertex 2.15568 54.1617 5
      vertex 2.03314 52.9958 5
    endloop
  endfacet
  facet normal 0.994522 -0.104529 0
    outer loop
      vertex 2.03314 52.9958 2.5
      vertex 2.15568 54.1617 2.5
      vertex 2.03314 52.9958 5
    endloop
  endfacet
  facet normal 0 0 1
    outer loop
      vertex 41 50 25
      vertex 41 35 25
      vertex 45 35 25
    endloop
  endfacet
  facet normal 0 0 1
    outer loop
      vertex 41 55 25
      vertex 41 50 25
      vertex 45 70 25
    endloop
  endfacet
  facet normal 0 0 1
    outer loop
      vertex 45 70 25
      vertex 41 50 25
      vertex 45 35 25
    endloop
  endfacet
  facet normal 0 0 1
    outer loop
      vertex 41 70 25
      vertex 41 55 25
      vertex 45 70 25
    endloop
  endfacet
  facet normal -1.92296e-016 0.5 0.866025
    outer loop
      vertex 41 40 7.5
      vertex 41 37.8349 8.75
      vertex 45 37.8349 8.75
    endloop
  endfacet
  facet normal -1.92296e-016 0.5 0.866025
    outer loop
      vertex 45 40 7.5
      vertex 41 40 7.5
      vertex 45 37.8349 8.75
    endloop
  endfacet
  facet normal 0 1 0
    outer loop
      vertex 41 37.8349 8.75
      vertex 41 37.8349 11.25
      vertex 45 37.8349 8.75
    endloop
  endfacet
  facet normal 0 1 0
    outer loop
      vertex 45 37.8349 8.75
      vertex 41 37.8349 11.25
      vertex 45 37.8349 11.25
    endloop
  endfacet
  facet normal -1.92296e-016 -0.5 0.866025
    outer loop
      vertex 41 42.1651 8.75
      vertex 41 40 7.5
      vertex 45 40 7.5
    endloop
  endfacet
  facet normal -1.92296e-016 -0.5 0.866025
    outer loop
      vertex 45 42.1651 8.75
      vertex 41 42.1651 8.75
      vertex 45 40 7.5
    endloop
  endfacet
  facet normal 0 -1 0
    outer loop
      vertex 41 42.1651 11.25
      vertex 41 42.1651 8.75
      vertex 45 42.1651 8.75
    endloop
  endfacet
  facet normal 0 -1 0
    outer loop
      vertex 45 42.1651 11.25
      vertex 41 42.1651 11.25
      vertex 45 42.1651 8.75
    endloop
  endfacet
  facet normal 1.92296e-016 -0.5 -0.866025
    outer loop
      vertex 41 40 12.5
      vertex 41 42.1651 11.25
      vertex 45 40 12.5
    endloop
  endfacet
  facet normal 1.92296e-016 -0.5 -0.866025
    outer loop
      vertex 45 40 12.5
      vertex 41 42.1651 11.25
      vertex 45 42.1651 11.25
    endloop
  endfacet
  facet normal 1.92296e-016 0.5 -0.866025
    outer loop
      vertex 41 37.8349 11.25
      vertex 41 40 12.5
      vertex 45 37.8349 11.25
    endloop
  endfacet
  facet normal 1.92296e-016 0.5 -0.866025
    outer loop
      vertex 45 37.8349 11.25
      vertex 41 40 12.5
      vertex 45 40 12.5
    endloop
  endfacet
  facet normal -1.92296e-016 0.5 0.866025
    outer loop
      vertex 41 40 17.5
      vertex 41 37.8349 18.75
      vertex 45 37.8349 18.75
    endloop
  endfacet
  facet normal -1.92296e-016 0.5 0.866025
    outer loop
      vertex 45 40 17.5
      vertex 41 40 17.5
      vertex 45 37.8349 18.75
    endloop
  endfacet
  facet normal 0 1 0
    outer loop
      vertex 41 37.8349 18.75
      vertex 41 37.8349 21.25
      vertex 45 37.8349 18.75
    endloop
  endfacet
  facet normal 0 1 0
    outer loop
      vertex 45 37.8349 18.75
      vertex 41 37.8349 21.25
      vertex 45 37.8349 21.25
    endloop
  endfacet
  facet normal -1.92296e-016 -0.5 0.866025
    outer loop
      vertex 41 42.1651 18.75
      vertex 41 40 17.5
      vertex 45 40 17.5
    endloop
  endfacet
  facet normal -1.92296e-016 -0.5 0.866025
    outer loop
      vertex 45 42.1651 18.75
      vertex 41 42.1651 18.75
      vertex 45 40 17.5
    endloop
  endfacet
  facet normal 0 -1 0
    outer loop
      vertex 41 42.1651 21.25
      vertex 41 42.1651 18.75
      vertex 45 42.1651 18.75
    endloop
  endfacet
  facet normal 0 -1 0
    outer loop
      vertex 45 42.1651 21.25
      vertex 41 42.1651 21.25
      vertex 45 42.1651 18.75
    endloop
  endfacet
  facet normal 1.92296e-016 -0.5 -0.866025
    outer loop
      vertex 41 40 22.5
      vertex 41 42.1651 21.25
      vertex 45 40 22.5
    endloop
  endfacet
  facet normal 1.92296e-016 -0.5 -0.866025
    outer loop
      vertex 45 40 22.5
      vertex 41 42.1651 21.25
      vertex 45 42.1651 21.25
    endloop
  endfacet
  facet normal 1.92296e-016 0.5 -0.866025
    outer loop
      vertex 41 37.8349 21.25
      vertex 41 40 22.5
      vertex 45 37.8349 21.25
    endloop
  endfacet
  facet normal 1.92296e-016 0.5 -0.866025
    outer loop
      vertex 45 37.8349 21.25
      vertex 41 40 22.5
      vertex 45 40 22.5
    endloop
  endfacet
  facet normal 0 1 0
    outer loop
      vertex 45 62.8349 11.25
      vertex 45 62.8349 8.75
      vertex 41 62.8349 11.25
    endloop
  endfacet
  facet normal 0 1 0
    outer loop
      vertex 41 62.8349 11.25
      vertex 45 62.8349 8.75
      vertex 41 62.8349 8.75
    endloop
  endfacet
  facet normal -1.92296e-016 0.5 0.866025
    outer loop
      vertex 45 62.8349 8.75
      vertex 45 65 7.5
      vertex 41 65 7.5
    endloop
  endfacet
  facet normal -1.92296e-016 0.5 0.866025
    outer loop
      vertex 41 62.8349 8.75
      vertex 45 62.8349 8.75
      vertex 41 65 7.5
    endloop
  endfacet
  facet normal -1.92296e-016 -0.5 0.866025
    outer loop
      vertex 45 65 7.5
      vertex 45 67.1651 8.75
      vertex 41 67.1651 8.75
    endloop
  endfacet
  facet normal -1.92296e-016 -0.5 0.866025
    outer loop
      vertex 41 65 7.5
      vertex 45 65 7.5
      vertex 41 67.1651 8.75
    endloop
  endfacet
  facet normal 0 -1 0
    outer loop
      vertex 45 67.1651 8.75
      vertex 45 67.1651 11.25
      vertex 41 67.1651 11.25
    endloop
  endfacet
  facet normal 0 -1 0
    outer loop
      vertex 41 67.1651 8.75
      vertex 45 67.1651 8.75
      vertex 41 67.1651 11.25
    endloop
  endfacet
  facet normal 1.92296e-016 -0.5 -0.866025
    outer loop
      vertex 45 67.1651 11.25
      vertex 45 65 12.5
      vertex 41 67.1651 11.25
    endloop
  endfacet
  facet normal 1.92296e-016 -0.5 -0.866025
    outer loop
      vertex 41 67.1651 11.25
      vertex 45 65 12.5
      vertex 41 65 12.5
    endloop
  endfacet
  facet normal 1.92296e-016 0.5 -0.866025
    outer loop
      vertex 45 65 12.5
      vertex 45 62.8349 11.25
      vertex 41 65 12.5
    endloop
  endfacet
  facet normal 1.92296e-016 0.5 -0.866025
    outer loop
      vertex 41 65 12.5
      vertex 45 62.8349 11.25
      vertex 41 62.8349 11.25
    endloop
  endfacet
  facet normal 0 1 0
    outer loop
      vertex 45 62.8349 21.25
      vertex 45 62.8349 18.75
      vertex 41 62.8349 21.25
    endloop
  endfacet
  facet normal 0 1 0
    outer loop
      vertex 41 62.8349 21.25
      vertex 45 62.8349 18.75
      vertex 41 62.8349 18.75
    endloop
  endfacet
  facet normal -1.92296e-016 0.5 0.866025
    outer loop
      vertex 45 62.8349 18.75
      vertex 45 65 17.5
      vertex 41 65 17.5
    endloop
  endfacet
  facet normal -1.92296e-016 0.5 0.866025
    outer loop
      vertex 41 62.8349 18.75
      vertex 45 62.8349 18.75
      vertex 41 65 17.5
    endloop
  endfacet
  facet normal -1.92296e-016 -0.5 0.866025
    outer loop
      vertex 45 65 17.5
      vertex 45 67.1651 18.75
      vertex 41 67.1651 18.75
    endloop
  endfacet
  facet normal -1.92296e-016 -0.5 0.866025
    outer loop
      vertex 41 65 17.5
      vertex 45 65 17.5
      vertex 41 67.1651 18.75
    endloop
  endfacet
  facet normal 0 -1 0
    outer loop
      vertex 45 67.1651 18.75
      vertex 45 67.1651 21.25
      vertex 41 67.1651 21.25
    endloop
  endfacet
  facet normal 0 -1 0
    outer loop
      vertex 41 67.1651 18.75
      vertex 45 67.1651 18.75
      vertex 41 67.1651 21.25
    endloop
  endfacet
  facet normal 1.92296e-016 -0.5 -0.866025
    outer loop
      vertex 45 67.1651 21.25
      vertex 45 65 22.5
      vertex 41 67.1651 21.25
    endloop
  endfacet
  facet normal 1.92296e-016 -0.5 -0.866025
    outer loop
      vertex 41 67.1651 21.25
      vertex 45 65 22.5
      vertex 41 65 22.5
    endloop
  endfacet
  facet normal 1.92296e-016 0.5 -0.866025
    outer loop
      vertex 45 65 22.5
      vertex 45 62.8349 21.25
      vertex 41 65 22.5
    endloop
  endfacet
  facet normal 1.92296e-016 0.5 -0.866025
    outer loop
      vertex 41 65 22.5
      vertex 45 62.8349 21.25
      vertex 41 62.8349 21.25
    endloop
  endfacet
  facet normal 0 0 1
    outer loop
      vertex 2.03314 51.8235 2.5
      vertex 2.15568 50.6576 2.5
      vertex 2.39942 49.5109 2.5
    endloop
  endfacet
  facet normal 0 0 1
    outer loop
      vertex 3.23852 47.3249 2.5
      vertex 2.03314 51.8235 2.5
      vertex 2.76169 48.3959 2.5
    endloop
  endfacet
  facet normal 0 0 1
    outer loop
      vertex 2.76169 48.3959 2.5
      vertex 2.03314 51.8235 2.5
      vertex 2.39942 49.5109 2.5
    endloop
  endfacet
  facet normal 0 0 1
    outer loop
      vertex 3.82468 46.3097 2.5
      vertex 2.03314 51.8235 2.5
      vertex 3.23852 47.3249 2.5
    endloop
  endfacet
  facet normal 0 0 1
    outer loop
      vertex 4.51376 45.3612 2.5
      vertex 2.03314 51.8235 2.5
      vertex 3.82468 46.3097 2.5
    endloop
  endfacet
  facet normal 0 0 1
    outer loop
      vertex 5.29819 44.49 2.5
      vertex 2.03314 51.8235 2.5
      vertex 4.51376 45.3612 2.5
    endloop
  endfacet
  facet normal 0 0 1
    outer loop
      vertex 6.1694 43.7056 2.5
      vertex 2.03314 51.8235 2.5
      vertex 5.29819 44.49 2.5
    endloop
  endfacet
  facet normal 0 0 1
    outer loop
      vertex 7.11783 43.0165 2.5
      vertex 2.03314 51.8235 2.5
      vertex 6.1694 43.7056 2.5
    endloop
  endfacet
  facet normal 0 0 1
    outer loop
      vertex 8.1331 42.4304 2.5
      vertex 2.03314 51.8235 2.5
      vertex 7.11783 43.0165 2.5
    endloop
  endfacet
  facet normal 0 0 1
    outer loop
      vertex 9.20407 41.9535 2.5
      vertex 2.03314 51.8235 2.5
      vertex 8.1331 42.4304 2.5
    endloop
  endfacet
  facet normal 0 0 1
    outer loop
      vertex 10.319 41.5913 2.5
      vertex 2.03314 51.8235 2.5
      vertex 9.20407 41.9535 2.5
    endloop
  endfacet
  facet normal 0 0 1
    outer loop
      vertex 11.4657 41.3475 2.5
      vertex 2.03314 51.8235 2.5
      vertex 10.319 41.5913 2.5
    endloop
  endfacet
  facet normal 0 0 1
    outer loop
      vertex 12.6316 41.225 2.5
      vertex 2.03314 51.8235 2.5
      vertex 11.4657 41.3475 2.5
    endloop
  endfacet
  facet normal 0 0 1
    outer loop
      vertex 7.124 46.9228 2.5
      vertex 2.03314 51.8235 2.5
      vertex 12.6316 41.225 2.5
    endloop
  endfacet
  facet normal 0 0 1
    outer loop
      vertex 7.124 46.9228 2.5
      vertex 6.34069 47.9436 2.5
      vertex 2.03314 51.8235 2.5
    endloop
  endfacet
  facet normal 0 0 1
    outer loop
      vertex 10.2792 44.7543 2.5
      vertex 9.11779 45.3082 2.5
      vertex 13.804 41.225 2.5
    endloop
  endfacet
  facet normal 0 0 1
    outer loop
      vertex 14.0749 44.2545 2.5
      vertex 12.7886 44.2209 2.5
      vertex 17.2315 41.9535 2.5
    endloop
  endfacet
  facet normal 0 0 1
    outer loop
      vertex 15.3401 44.489 2.5
      vertex 14.0749 44.2545 2.5
      vertex 18.3025 42.4304 2.5
    endloop
  endfacet
  facet normal 0 0 1
    outer loop
      vertex 12.7886 44.2209 2.5
      vertex 11.5129 44.3888 2.5
      vertex 16.1166 41.5913 2.5
    endloop
  endfacet
  facet normal 0 0 1
    outer loop
      vertex 18.7047 46.3158 2.5
      vertex 17.6838 45.5325 2.5
      vertex 21.1374 44.49 2.5
    endloop
  endfacet
  facet normal 0 0 1
    outer loop
      vertex 17.6838 45.5325 2.5
      vertex 16.553 44.9186 2.5
      vertex 20.2662 43.7056 2.5
    endloop
  endfacet
  facet normal 0 0 1
    outer loop
      vertex 19.5904 47.2492 2.5
      vertex 21.9218 45.3612 2.5
      vertex 22.6109 46.3097 2.5
    endloop
  endfacet
  facet normal 0 0 1
    outer loop
      vertex 20.3192 48.3096 2.5
      vertex 19.5904 47.2492 2.5
      vertex 23.1971 47.3249 2.5
    endloop
  endfacet
  facet normal 0 0 1
    outer loop
      vertex 20.8731 49.471 2.5
      vertex 20.3192 48.3096 2.5
      vertex 23.6739 48.3959 2.5
    endloop
  endfacet
  facet normal 0 0 1
    outer loop
      vertex 19.3116 57.8965 2.5
      vertex 20.0949 56.8757 2.5
      vertex 22.6109 58.5096 2.5
    endloop
  endfacet
  facet normal 0 0 1
    outer loop
      vertex 17.3178 59.511 2.5
      vertex 18.3782 58.7822 2.5
      vertex 21.1374 60.3292 2.5
    endloop
  endfacet
  facet normal 0 0 1
    outer loop
      vertex 5.19698 54.1145 2.5
      vertex 5.56243 55.3482 2.5
      vertex 2.03314 51.8235 2.5
    endloop
  endfacet
  facet normal 0 0 1
    outer loop
      vertex 18.3782 58.7822 2.5
      vertex 19.3116 57.8965 2.5
      vertex 21.9218 59.458 2.5
    endloop
  endfacet
  facet normal 0 0 1
    outer loop
      vertex 5.56243 55.3482 2.5
      vertex 6.11638 56.5096 2.5
      vertex 2.03314 51.8235 2.5
    endloop
  endfacet
  facet normal 0 0 1
    outer loop
      vertex 11.0955 60.3302 2.5
      vertex 12.3607 60.5647 2.5
      vertex 14.9699 63.4717 2.5
    endloop
  endfacet
  facet normal 0 0 1
    outer loop
      vertex 8.75175 59.2867 2.5
      vertex 9.88255 59.9007 2.5
      vertex 12.6316 63.5943 2.5
    endloop
  endfacet
  facet normal 0 0 1
    outer loop
      vertex 6.84519 57.5701 2.5
      vertex 7.73092 58.5034 2.5
      vertex 11.4657 63.4717 2.5
    endloop
  endfacet
  facet normal 0 0 1
    outer loop
      vertex 10.319 63.228 2.5
      vertex 2.03314 51.8235 2.5
      vertex 11.4657 63.4717 2.5
    endloop
  endfacet
  facet normal 0 0 1
    outer loop
      vertex 9.20407 62.8657 2.5
      vertex 2.03314 51.8235 2.5
      vertex 10.319 63.228 2.5
    endloop
  endfacet
  facet normal 0 0 1
    outer loop
      vertex 8.1331 62.3889 2.5
      vertex 2.03314 51.8235 2.5
      vertex 9.20407 62.8657 2.5
    endloop
  endfacet
  facet normal 0 0 1
    outer loop
      vertex 7.11783 61.8027 2.5
      vertex 2.03314 51.8235 2.5
      vertex 8.1331 62.3889 2.5
    endloop
  endfacet
  facet normal 0 0 1
    outer loop
      vertex 6.1694 61.1137 2.5
      vertex 2.03314 51.8235 2.5
      vertex 7.11783 61.8027 2.5
    endloop
  endfacet
  facet normal 0 0 1
    outer loop
      vertex 5.29819 60.3292 2.5
      vertex 2.03314 51.8235 2.5
      vertex 6.1694 61.1137 2.5
    endloop
  endfacet
  facet normal 0 0 1
    outer loop
      vertex 4.51376 59.458 2.5
      vertex 2.03314 51.8235 2.5
      vertex 5.29819 60.3292 2.5
    endloop
  endfacet
  facet normal 0 0 1
    outer loop
      vertex 3.82468 58.5096 2.5
      vertex 2.03314 51.8235 2.5
      vertex 4.51376 59.458 2.5
    endloop
  endfacet
  facet normal 0 0 1
    outer loop
      vertex 3.23852 57.4943 2.5
      vertex 2.03314 51.8235 2.5
      vertex 3.82468 58.5096 2.5
    endloop
  endfacet
  facet normal 0 0 1
    outer loop
      vertex 2.76169 56.4233 2.5
      vertex 2.03314 51.8235 2.5
      vertex 3.23852 57.4943 2.5
    endloop
  endfacet
  facet normal 0 0 1
    outer loop
      vertex 2.39942 55.3084 2.5
      vertex 2.03314 51.8235 2.5
      vertex 2.76169 56.4233 2.5
    endloop
  endfacet
  facet normal 0 0 1
    outer loop
      vertex 2.15568 54.1617 2.5
      vertex 2.03314 51.8235 2.5
      vertex 2.39942 55.3084 2.5
    endloop
  endfacet
  facet normal 0 0 1
    outer loop
      vertex 2.03314 52.9958 2.5
      vertex 2.03314 51.8235 2.5
      vertex 2.15568 54.1617 2.5
    endloop
  endfacet
  facet normal 0 0 1
    outer loop
      vertex 20.0949 56.8757 2.5
      vertex 23.6739 56.4233 2.5
      vertex 23.1971 57.4943 2.5
    endloop
  endfacet
  facet normal 0 0 1
    outer loop
      vertex 16.1564 60.065 2.5
      vertex 17.3178 59.511 2.5
      vertex 20.2662 61.1137 2.5
    endloop
  endfacet
  facet normal 0 0 1
    outer loop
      vertex 5.2972 50.2873 2.5
      vertex 5.06271 51.5525 2.5
      vertex 2.03314 51.8235 2.5
    endloop
  endfacet
  facet normal 0 0 1
    outer loop
      vertex 12.3607 60.5647 2.5
      vertex 13.6469 60.5984 2.5
      vertex 16.1166 63.228 2.5
    endloop
  endfacet
  facet normal 0 0 1
    outer loop
      vertex 5.72672 49.0744 2.5
      vertex 5.2972 50.2873 2.5
      vertex 2.03314 51.8235 2.5
    endloop
  endfacet
  facet normal 0 0 1
    outer loop
      vertex 9.88255 59.9007 2.5
      vertex 11.0955 60.3302 2.5
      vertex 13.804 63.5943 2.5
    endloop
  endfacet
  facet normal 0 0 1
    outer loop
      vertex 6.84519 57.5701 2.5
      vertex 2.03314 51.8235 2.5
      vertex 6.11638 56.5096 2.5
    endloop
  endfacet
  facet normal 0 0 1
    outer loop
      vertex 7.73092 58.5034 2.5
      vertex 8.75175 59.2867 2.5
      vertex 12.6316 63.5943 2.5
    endloop
  endfacet
  facet normal 0 0 1
    outer loop
      vertex 11.4657 63.4717 2.5
      vertex 2.03314 51.8235 2.5
      vertex 6.84519 57.5701 2.5
    endloop
  endfacet
  facet normal 0 0 1
    outer loop
      vertex 11.4657 63.4717 2.5
      vertex 7.73092 58.5034 2.5
      vertex 12.6316 63.5943 2.5
    endloop
  endfacet
  facet normal 0 0 1
    outer loop
      vertex 12.6316 63.5943 2.5
      vertex 9.88255 59.9007 2.5
      vertex 13.804 63.5943 2.5
    endloop
  endfacet
  facet normal 0 0 1
    outer loop
      vertex 13.6469 60.5984 2.5
      vertex 14.9227 60.4304 2.5
      vertex 17.2315 62.8657 2.5
    endloop
  endfacet
  facet normal 0 0 1
    outer loop
      vertex 13.804 63.5943 2.5
      vertex 11.0955 60.3302 2.5
      vertex 14.9699 63.4717 2.5
    endloop
  endfacet
  facet normal 0 0 1
    outer loop
      vertex 14.9699 63.4717 2.5
      vertex 12.3607 60.5647 2.5
      vertex 16.1166 63.228 2.5
    endloop
  endfacet
  facet normal 0 0 1
    outer loop
      vertex 16.1166 63.228 2.5
      vertex 13.6469 60.5984 2.5
      vertex 17.2315 62.8657 2.5
    endloop
  endfacet
  facet normal 0 0 1
    outer loop
      vertex 17.2315 62.8657 2.5
      vertex 14.9227 60.4304 2.5
      vertex 18.3025 62.3889 2.5
    endloop
  endfacet
  facet normal 0 0 1
    outer loop
      vertex 18.3025 62.3889 2.5
      vertex 16.1564 60.065 2.5
      vertex 19.3177 61.8027 2.5
    endloop
  endfacet
  facet normal 0 0 1
    outer loop
      vertex 20.2662 61.1137 2.5
      vertex 17.3178 59.511 2.5
      vertex 21.1374 60.3292 2.5
    endloop
  endfacet
  facet normal 0 0 1
    outer loop
      vertex 14.9227 60.4304 2.5
      vertex 16.1564 60.065 2.5
      vertex 18.3025 62.3889 2.5
    endloop
  endfacet
  facet normal 0 0 1
    outer loop
      vertex 21.1374 60.3292 2.5
      vertex 18.3782 58.7822 2.5
      vertex 21.9218 59.458 2.5
    endloop
  endfacet
  facet normal 0 0 1
    outer loop
      vertex 21.9218 59.458 2.5
      vertex 19.3116 57.8965 2.5
      vertex 22.6109 58.5096 2.5
    endloop
  endfacet
  facet normal 0 0 1
    outer loop
      vertex 22.6109 58.5096 2.5
      vertex 20.0949 56.8757 2.5
      vertex 23.1971 57.4943 2.5
    endloop
  endfacet
  facet normal 0 0 1
    outer loop
      vertex 16.1564 60.065 2.5
      vertex 20.2662 61.1137 2.5
      vertex 19.3177 61.8027 2.5
    endloop
  endfacet
  facet normal 0 0 1
    outer loop
      vertex 23.6739 56.4233 2.5
      vertex 20.7089 55.7449 2.5
      vertex 24.0362 55.3084 2.5
    endloop
  endfacet
  facet normal 0 0 1
    outer loop
      vertex 24.0362 55.3084 2.5
      vertex 21.1384 54.5319 2.5
      vertex 24.2799 54.1617 2.5
    endloop
  endfacet
  facet normal 0 0 1
    outer loop
      vertex 20.0949 56.8757 2.5
      vertex 20.7089 55.7449 2.5
      vertex 23.6739 56.4233 2.5
    endloop
  endfacet
  facet normal 0 0 1
    outer loop
      vertex 24.2799 54.1617 2.5
      vertex 21.3729 53.2668 2.5
      vertex 24.4024 52.9958 2.5
    endloop
  endfacet
  facet normal 0 0 1
    outer loop
      vertex 5.02903 52.8388 2.5
      vertex 5.19698 54.1145 2.5
      vertex 2.03314 51.8235 2.5
    endloop
  endfacet
  facet normal 0 0 1
    outer loop
      vertex 24.4024 52.9958 2.5
      vertex 21.4066 51.9805 2.5
      vertex 24.4024 51.8235 2.5
    endloop
  endfacet
  facet normal 0 0 1
    outer loop
      vertex 24.2799 50.6576 2.5
      vertex 21.2386 50.7048 2.5
      vertex 24.0362 49.5109 2.5
    endloop
  endfacet
  facet normal 0 0 1
    outer loop
      vertex 24.0362 49.5109 2.5
      vertex 20.8731 49.471 2.5
      vertex 23.6739 48.3959 2.5
    endloop
  endfacet
  facet normal 0 0 1
    outer loop
      vertex 23.6739 48.3959 2.5
      vertex 20.3192 48.3096 2.5
      vertex 23.1971 47.3249 2.5
    endloop
  endfacet
  facet normal 0 0 1
    outer loop
      vertex 23.1971 47.3249 2.5
      vertex 19.5904 47.2492 2.5
      vertex 22.6109 46.3097 2.5
    endloop
  endfacet
  facet normal 0 0 1
    outer loop
      vertex 21.9218 45.3612 2.5
      vertex 18.7047 46.3158 2.5
      vertex 21.1374 44.49 2.5
    endloop
  endfacet
  facet normal 0 0 1
    outer loop
      vertex 21.1374 44.49 2.5
      vertex 17.6838 45.5325 2.5
      vertex 20.2662 43.7056 2.5
    endloop
  endfacet
  facet normal 0 0 1
    outer loop
      vertex 20.2662 43.7056 2.5
      vertex 16.553 44.9186 2.5
      vertex 19.3177 43.0165 2.5
    endloop
  endfacet
  facet normal 0 0 1
    outer loop
      vertex 19.3177 43.0165 2.5
      vertex 15.3401 44.489 2.5
      vertex 18.3025 42.4304 2.5
    endloop
  endfacet
  facet normal 0 0 1
    outer loop
      vertex 18.3025 42.4304 2.5
      vertex 14.0749 44.2545 2.5
      vertex 17.2315 41.9535 2.5
    endloop
  endfacet
  facet normal 0 0 1
    outer loop
      vertex 17.2315 41.9535 2.5
      vertex 12.7886 44.2209 2.5
      vertex 16.1166 41.5913 2.5
    endloop
  endfacet
  facet normal 0 0 1
    outer loop
      vertex 16.1166 41.5913 2.5
      vertex 11.5129 44.3888 2.5
      vertex 14.9699 41.3475 2.5
    endloop
  endfacet
  facet normal 0 0 1
    outer loop
      vertex 14.9699 41.3475 2.5
      vertex 10.2792 44.7543 2.5
      vertex 13.804 41.225 2.5
    endloop
  endfacet
  facet normal 0 0 1
    outer loop
      vertex 13.804 41.225 2.5
      vertex 9.11779 45.3082 2.5
      vertex 12.6316 41.225 2.5
    endloop
  endfacet
  facet normal 0 0 1
    outer loop
      vertex 9.11779 45.3082 2.5
      vertex 8.05736 46.037 2.5
      vertex 12.6316 41.225 2.5
    endloop
  endfacet
  facet normal 0 0 1
    outer loop
      vertex 8.05736 46.037 2.5
      vertex 7.124 46.9228 2.5
      vertex 12.6316 41.225 2.5
    endloop
  endfacet
  facet normal 0 0 1
    outer loop
      vertex 6.34069 47.9436 2.5
      vertex 5.72672 49.0744 2.5
      vertex 2.03314 51.8235 2.5
    endloop
  endfacet
  facet normal 0 0 1
    outer loop
      vertex 11.5129 44.3888 2.5
      vertex 10.2792 44.7543 2.5
      vertex 14.9699 41.3475 2.5
    endloop
  endfacet
  facet normal 0 0 1
    outer loop
      vertex 16.553 44.9186 2.5
      vertex 15.3401 44.489 2.5
      vertex 19.3177 43.0165 2.5
    endloop
  endfacet
  facet normal 0 0 1
    outer loop
      vertex 19.5904 47.2492 2.5
      vertex 18.7047 46.3158 2.5
      vertex 21.9218 45.3612 2.5
    endloop
  endfacet
  facet normal 0 0 1
    outer loop
      vertex 21.2386 50.7048 2.5
      vertex 20.8731 49.471 2.5
      vertex 24.0362 49.5109 2.5
    endloop
  endfacet
  facet normal 0 0 1
    outer loop
      vertex 20.7089 55.7449 2.5
      vertex 21.1384 54.5319 2.5
      vertex 24.0362 55.3084 2.5
    endloop
  endfacet
  facet normal 0 0 1
    outer loop
      vertex 21.1384 54.5319 2.5
      vertex 21.3729 53.2668 2.5
      vertex 24.2799 54.1617 2.5
    endloop
  endfacet
  facet normal 0 0 1
    outer loop
      vertex 21.3729 53.2668 2.5
      vertex 21.4066 51.9805 2.5
      vertex 24.4024 52.9958 2.5
    endloop
  endfacet
  facet normal 0 0 1
    outer loop
      vertex 21.4066 51.9805 2.5
      vertex 21.2386 50.7048 2.5
      vertex 24.2799 50.6576 2.5
    endloop
  endfacet
  facet normal 0 0 1
    outer loop
      vertex 21.4066 51.9805 2.5
      vertex 24.2799 50.6576 2.5
      vertex 24.4024 51.8235 2.5
    endloop
  endfacet
  facet normal 0 0 1
    outer loop
      vertex 5.06271 51.5525 2.5
      vertex 5.02903 52.8388 2.5
      vertex 2.03314 51.8235 2.5
    endloop
  endfacet
endsolid OpenSCAD_Model
