  0
SECTION
  2
BLOCKS
  0
ENDSEC
  0
SECTION
  2
ENTITIES
  0
LINE
  8
0
 10
104.843
 11
105.183
 20
-60.4837
 21
-60.4333
  0
LINE
  8
0
 10
105.183
 11
105.516
 20
-60.4333
 21
-60.3499
  0
LINE
  8
0
 10
105.516
 11
105.84
 20
-60.3499
 21
-60.2341
  0
LINE
  8
0
 10
105.84
 11
106.15
 20
-60.2341
 21
-60.0872
  0
LINE
  8
0
 10
106.15
 11
106.445
 20
-60.0872
 21
-59.9106
  0
LINE
  8
0
 10
106.445
 11
106.721
 20
-59.9106
 21
-59.706
  0
LINE
  8
0
 10
106.721
 11
106.975
 20
-59.706
 21
-59.4753
  0
LINE
  8
0
 10
106.975
 11
107.206
 20
-59.4753
 21
-59.2207
  0
LINE
  8
0
 10
107.206
 11
107.411
 20
-59.2207
 21
-58.9448
  0
LINE
  8
0
 10
107.411
 11
107.587
 20
-58.9448
 21
-58.6502
  0
LINE
  8
0
 10
107.587
 11
107.734
 20
-58.6502
 21
-58.3396
  0
LINE
  8
0
 10
107.734
 11
107.85
 20
-58.3396
 21
-58.0162
  0
LINE
  8
0
 10
107.85
 11
107.933
 20
-58.0162
 21
-57.6829
  0
LINE
  8
0
 10
107.933
 11
107.984
 20
-57.6829
 21
-57.3431
  0
LINE
  8
0
 10
107.984
 11
108
 20
-57.3431
 21
-57.0123
  0
LINE
  8
0
 10
108
 11
108
 20
-57.0123
 21
57.0123
  0
LINE
  8
0
 10
108
 11
107.984
 20
57.0123
 21
57.3431
  0
LINE
  8
0
 10
107.984
 11
107.933
 20
57.3431
 21
57.6829
  0
LINE
  8
0
 10
107.933
 11
107.85
 20
57.6829
 21
58.0162
  0
LINE
  8
0
 10
107.85
 11
107.734
 20
58.0162
 21
58.3396
  0
LINE
  8
0
 10
107.734
 11
107.587
 20
58.3396
 21
58.6502
  0
LINE
  8
0
 10
107.587
 11
107.411
 20
58.6502
 21
58.9448
  0
LINE
  8
0
 10
107.411
 11
107.206
 20
58.9448
 21
59.2207
  0
LINE
  8
0
 10
107.206
 11
106.975
 20
59.2207
 21
59.4753
  0
LINE
  8
0
 10
106.975
 11
106.721
 20
59.4753
 21
59.706
  0
LINE
  8
0
 10
106.721
 11
106.445
 20
59.706
 21
59.9106
  0
LINE
  8
0
 10
106.445
 11
106.15
 20
59.9106
 21
60.0872
  0
LINE
  8
0
 10
106.15
 11
105.84
 20
60.0872
 21
60.2341
  0
LINE
  8
0
 10
105.84
 11
105.516
 20
60.2341
 21
60.3499
  0
LINE
  8
0
 10
105.516
 11
105.183
 20
60.3499
 21
60.4333
  0
LINE
  8
0
 10
105.183
 11
104.843
 20
60.4333
 21
60.4837
  0
LINE
  8
0
 10
104.843
 11
104.512
 20
60.4837
 21
60.5
  0
LINE
  8
0
 10
104.512
 11
-104.512
 20
60.5
 21
60.5
  0
LINE
  8
0
 10
-104.512
 11
-104.843
 20
60.5
 21
60.4837
  0
LINE
  8
0
 10
-104.843
 11
-105.183
 20
60.4837
 21
60.4333
  0
LINE
  8
0
 10
-105.183
 11
-105.516
 20
60.4333
 21
60.3499
  0
LINE
  8
0
 10
-105.516
 11
-105.84
 20
60.3499
 21
60.2341
  0
LINE
  8
0
 10
-105.84
 11
-106.15
 20
60.2341
 21
60.0872
  0
LINE
  8
0
 10
-106.15
 11
-106.445
 20
60.0872
 21
59.9106
  0
LINE
  8
0
 10
-106.445
 11
-106.721
 20
59.9106
 21
59.706
  0
LINE
  8
0
 10
-106.721
 11
-106.975
 20
59.706
 21
59.4753
  0
LINE
  8
0
 10
-106.975
 11
-107.206
 20
59.4753
 21
59.2207
  0
LINE
  8
0
 10
-107.206
 11
-107.411
 20
59.2207
 21
58.9448
  0
LINE
  8
0
 10
-107.411
 11
-107.587
 20
58.9448
 21
58.6502
  0
LINE
  8
0
 10
-107.587
 11
-107.734
 20
58.6502
 21
58.3396
  0
LINE
  8
0
 10
-107.734
 11
-107.85
 20
58.3396
 21
58.0162
  0
LINE
  8
0
 10
-107.85
 11
-107.933
 20
58.0162
 21
57.6829
  0
LINE
  8
0
 10
-107.933
 11
-107.984
 20
57.6829
 21
57.3431
  0
LINE
  8
0
 10
-107.984
 11
-108
 20
57.3431
 21
57.0123
  0
LINE
  8
0
 10
-108
 11
-108
 20
57.0123
 21
-57.0123
  0
LINE
  8
0
 10
-108
 11
-107.984
 20
-57.0123
 21
-57.3431
  0
LINE
  8
0
 10
-107.984
 11
-107.933
 20
-57.3431
 21
-57.6829
  0
LINE
  8
0
 10
-107.933
 11
-107.85
 20
-57.6829
 21
-58.0162
  0
LINE
  8
0
 10
-107.85
 11
-107.734
 20
-58.0162
 21
-58.3396
  0
LINE
  8
0
 10
-107.734
 11
-107.587
 20
-58.3396
 21
-58.6502
  0
LINE
  8
0
 10
-107.587
 11
-107.411
 20
-58.6502
 21
-58.9448
  0
LINE
  8
0
 10
-107.411
 11
-107.206
 20
-58.9448
 21
-59.2207
  0
LINE
  8
0
 10
-107.206
 11
-106.975
 20
-59.2207
 21
-59.4753
  0
LINE
  8
0
 10
-106.975
 11
-106.721
 20
-59.4753
 21
-59.706
  0
LINE
  8
0
 10
-106.721
 11
-106.445
 20
-59.706
 21
-59.9106
  0
LINE
  8
0
 10
-106.445
 11
-106.15
 20
-59.9106
 21
-60.0872
  0
LINE
  8
0
 10
-106.15
 11
-105.84
 20
-60.0872
 21
-60.2341
  0
LINE
  8
0
 10
-105.84
 11
-105.516
 20
-60.2341
 21
-60.3499
  0
LINE
  8
0
 10
-105.516
 11
-105.183
 20
-60.3499
 21
-60.4333
  0
LINE
  8
0
 10
-105.183
 11
-104.843
 20
-60.4333
 21
-60.4837
  0
LINE
  8
0
 10
-104.843
 11
-104.512
 20
-60.4837
 21
-60.5
  0
LINE
  8
0
 10
-104.512
 11
104.512
 20
-60.5
 21
-60.5
  0
LINE
  8
0
 10
104.512
 11
104.843
 20
-60.5
 21
-60.4837
  0
ENDSEC
  0
SECTION
  2
OBJECTS
  0
DICTIONARY
  0
ENDSEC
  0
EOF
