  0
SECTION
  2
BLOCKS
  0
ENDSEC
  0
SECTION
  2
ENTITIES
  0
LINE
  8
0
 10
125.49
 11
105.972
 20
125.038
 21
125.038
  0
LINE
  8
0
 10
105.972
 11
104.496
 20
125.038
 21
124.932
  0
LINE
  8
0
 10
104.496
 11
103.031
 20
124.932
 21
124.614
  0
LINE
  8
0
 10
103.031
 11
101.628
 20
124.614
 21
124.09
  0
LINE
  8
0
 10
101.628
 11
100.313
 20
124.09
 21
123.372
  0
LINE
  8
0
 10
100.313
 11
99.1131
 20
123.372
 21
122.474
  0
LINE
  8
0
 10
99.1131
 11
98.0536
 20
122.474
 21
121.415
  0
LINE
  8
0
 10
98.0536
 11
97.1557
 20
121.415
 21
120.215
  0
LINE
  8
0
 10
97.1557
 11
96.4377
 20
120.215
 21
118.9
  0
LINE
  8
0
 10
96.4377
 11
95.9141
 20
118.9
 21
117.496
  0
LINE
  8
0
 10
95.9141
 11
95.5956
 20
117.496
 21
116.032
  0
LINE
  8
0
 10
95.5956
 11
95.49
 20
116.032
 21
114.556
  0
LINE
  8
0
 10
95.49
 11
95.49
 20
114.556
 21
105.5
  0
LINE
  8
0
 10
95.49
 11
74.1071
 20
105.5
 21
105.5
  0
LINE
  8
0
 10
74.1071
 11
73.4844
 20
105.5
 21
105.455
  0
LINE
  8
0
 10
73.4844
 11
72.8568
 20
105.455
 21
105.319
  0
LINE
  8
0
 10
72.8568
 11
72.2551
 20
105.319
 21
105.094
  0
LINE
  8
0
 10
72.2551
 11
71.6914
 20
105.094
 21
104.787
  0
LINE
  8
0
 10
71.6914
 11
71.1773
 20
104.787
 21
104.402
  0
LINE
  8
0
 10
71.1773
 11
70.7231
 20
104.402
 21
103.948
  0
LINE
  8
0
 10
70.7231
 11
70.3383
 20
103.948
 21
103.434
  0
LINE
  8
0
 10
70.3383
 11
70.0305
 20
103.434
 21
102.87
  0
LINE
  8
0
 10
70.0305
 11
69.806
 20
102.87
 21
102.268
  0
LINE
  8
0
 10
69.806
 11
69.6695
 20
102.268
 21
101.641
  0
LINE
  8
0
 10
69.6695
 11
69.625
 20
101.641
 21
101.018
  0
LINE
  8
0
 10
69.625
 11
69.625
 20
101.018
 21
97.9821
  0
LINE
  8
0
 10
69.625
 11
69.6695
 20
97.9821
 21
97.3594
  0
LINE
  8
0
 10
69.6695
 11
69.806
 20
97.3594
 21
96.7318
  0
LINE
  8
0
 10
69.806
 11
70.0305
 20
96.7318
 21
96.1301
  0
LINE
  8
0
 10
70.0305
 11
70.3383
 20
96.1301
 21
95.5664
  0
LINE
  8
0
 10
70.3383
 11
70.7231
 20
95.5664
 21
95.0523
  0
LINE
  8
0
 10
70.7231
 11
71.1773
 20
95.0523
 21
94.5981
  0
LINE
  8
0
 10
71.1773
 11
71.6914
 20
94.5981
 21
94.2133
  0
LINE
  8
0
 10
71.6914
 11
72.2551
 20
94.2133
 21
93.9055
  0
LINE
  8
0
 10
72.2551
 11
72.8568
 20
93.9055
 21
93.681
  0
LINE
  8
0
 10
72.8568
 11
73.4844
 20
93.681
 21
93.5445
  0
LINE
  8
0
 10
73.4844
 11
74.1071
 20
93.5445
 21
93.5
  0
LINE
  8
0
 10
74.1071
 11
95.49
 20
93.5
 21
93.5
  0
LINE
  8
0
 10
95.49
 11
95.49
 20
93.5
 21
34.9821
  0
LINE
  8
0
 10
95.49
 11
95.5956
 20
34.9821
 21
33.5055
  0
LINE
  8
0
 10
95.5956
 11
95.9141
 20
33.5055
 21
32.0414
  0
LINE
  8
0
 10
95.9141
 11
96.4377
 20
32.0414
 21
30.6376
  0
LINE
  8
0
 10
96.4377
 11
97.1557
 20
30.6376
 21
29.3226
  0
LINE
  8
0
 10
97.1557
 11
98.0536
 20
29.3226
 21
28.1231
  0
LINE
  8
0
 10
98.0536
 11
99.1131
 20
28.1231
 21
27.0636
  0
LINE
  8
0
 10
99.1131
 11
100.313
 20
27.0636
 21
26.1658
  0
LINE
  8
0
 10
100.313
 11
101.628
 20
26.1658
 21
25.4477
  0
LINE
  8
0
 10
101.628
 11
103.031
 20
25.4477
 21
24.9241
  0
LINE
  8
0
 10
103.031
 11
104.496
 20
24.9241
 21
24.6056
  0
LINE
  8
0
 10
104.496
 11
105.972
 20
24.6056
 21
24.5
  0
LINE
  8
0
 10
105.972
 11
125.49
 20
24.5
 21
24.5
  0
LINE
  8
0
 10
125.49
 11
125.49
 20
24.5
 21
125.038
  0
LINE
  8
0
 10
104.654
 11
104.332
 20
114.248
 21
114.381
  0
LINE
  8
0
 10
104.332
 11
104.056
 20
114.381
 21
114.593
  0
LINE
  8
0
 10
104.056
 11
103.843
 20
114.593
 21
114.87
  0
LINE
  8
0
 10
103.843
 11
103.71
 20
114.87
 21
115.192
  0
LINE
  8
0
 10
103.71
 11
103.664
 20
115.192
 21
115.538
  0
LINE
  8
0
 10
103.664
 11
103.71
 20
115.538
 21
115.884
  0
LINE
  8
0
 10
103.71
 11
103.843
 20
115.884
 21
116.206
  0
LINE
  8
0
 10
103.843
 11
104.056
 20
116.206
 21
116.482
  0
LINE
  8
0
 10
104.056
 11
104.332
 20
116.482
 21
116.695
  0
LINE
  8
0
 10
104.332
 11
104.654
 20
116.695
 21
116.828
  0
LINE
  8
0
 10
104.654
 11
105
 20
116.828
 21
116.874
  0
LINE
  8
0
 10
105
 11
105.346
 20
116.874
 21
116.828
  0
LINE
  8
0
 10
105.346
 11
105.668
 20
116.828
 21
116.695
  0
LINE
  8
0
 10
105.668
 11
105.944
 20
116.695
 21
116.482
  0
LINE
  8
0
 10
105.944
 11
106.157
 20
116.482
 21
116.206
  0
LINE
  8
0
 10
106.157
 11
106.29
 20
116.206
 21
115.884
  0
LINE
  8
0
 10
106.29
 11
106.336
 20
115.884
 21
115.538
  0
LINE
  8
0
 10
106.336
 11
106.29
 20
115.538
 21
115.192
  0
LINE
  8
0
 10
106.29
 11
106.157
 20
115.192
 21
114.87
  0
LINE
  8
0
 10
106.157
 11
105.944
 20
114.87
 21
114.593
  0
LINE
  8
0
 10
105.944
 11
105.668
 20
114.593
 21
114.381
  0
LINE
  8
0
 10
105.668
 11
105.346
 20
114.381
 21
114.248
  0
LINE
  8
0
 10
105.346
 11
105
 20
114.248
 21
114.202
  0
LINE
  8
0
 10
105
 11
104.654
 20
114.202
 21
114.248
  0
LINE
  8
0
 10
104.654
 11
104.332
 20
82.4788
 21
82.6122
  0
LINE
  8
0
 10
104.332
 11
104.056
 20
82.6122
 21
82.8244
  0
LINE
  8
0
 10
104.056
 11
103.843
 20
82.8244
 21
83.1011
  0
LINE
  8
0
 10
103.843
 11
103.71
 20
83.1011
 21
83.4232
  0
LINE
  8
0
 10
103.71
 11
103.664
 20
83.4232
 21
83.7689
  0
LINE
  8
0
 10
103.664
 11
103.71
 20
83.7689
 21
84.1146
  0
LINE
  8
0
 10
103.71
 11
103.843
 20
84.1146
 21
84.4368
  0
LINE
  8
0
 10
103.843
 11
104.056
 20
84.4368
 21
84.7134
  0
LINE
  8
0
 10
104.056
 11
104.332
 20
84.7134
 21
84.9257
  0
LINE
  8
0
 10
104.332
 11
104.654
 20
84.9257
 21
85.0591
  0
LINE
  8
0
 10
104.654
 11
105
 20
85.0591
 21
85.1046
  0
LINE
  8
0
 10
105
 11
105.346
 20
85.1046
 21
85.0591
  0
LINE
  8
0
 10
105.346
 11
105.668
 20
85.0591
 21
84.9257
  0
LINE
  8
0
 10
105.668
 11
105.944
 20
84.9257
 21
84.7134
  0
LINE
  8
0
 10
105.944
 11
106.157
 20
84.7134
 21
84.4368
  0
LINE
  8
0
 10
106.157
 11
106.29
 20
84.4368
 21
84.1146
  0
LINE
  8
0
 10
106.29
 11
106.336
 20
84.1146
 21
83.7689
  0
LINE
  8
0
 10
106.336
 11
106.29
 20
83.7689
 21
83.4232
  0
LINE
  8
0
 10
106.29
 11
106.157
 20
83.4232
 21
83.1011
  0
LINE
  8
0
 10
106.157
 11
105.944
 20
83.1011
 21
82.8244
  0
LINE
  8
0
 10
105.944
 11
105.668
 20
82.8244
 21
82.6122
  0
LINE
  8
0
 10
105.668
 11
105.346
 20
82.6122
 21
82.4788
  0
LINE
  8
0
 10
105.346
 11
105
 20
82.4788
 21
82.4333
  0
LINE
  8
0
 10
105
 11
104.654
 20
82.4333
 21
82.4788
  0
LINE
  8
0
 10
104.654
 11
104.332
 20
32.7098
 21
32.8433
  0
LINE
  8
0
 10
104.332
 11
104.056
 20
32.8433
 21
33.0555
  0
LINE
  8
0
 10
104.056
 11
103.843
 20
33.0555
 21
33.3322
  0
LINE
  8
0
 10
103.843
 11
103.71
 20
33.3322
 21
33.6543
  0
LINE
  8
0
 10
103.71
 11
103.664
 20
33.6543
 21
34
  0
LINE
  8
0
 10
103.664
 11
103.71
 20
34
 21
34.3457
  0
LINE
  8
0
 10
103.71
 11
103.843
 20
34.3457
 21
34.6678
  0
LINE
  8
0
 10
103.843
 11
104.056
 20
34.6678
 21
34.9445
  0
LINE
  8
0
 10
104.056
 11
104.332
 20
34.9445
 21
35.1567
  0
LINE
  8
0
 10
104.332
 11
104.654
 20
35.1567
 21
35.2902
  0
LINE
  8
0
 10
104.654
 11
105
 20
35.2902
 21
35.3357
  0
LINE
  8
0
 10
105
 11
105.346
 20
35.3357
 21
35.2902
  0
LINE
  8
0
 10
105.346
 11
105.668
 20
35.2902
 21
35.1567
  0
LINE
  8
0
 10
105.668
 11
105.944
 20
35.1567
 21
34.9445
  0
LINE
  8
0
 10
105.944
 11
106.157
 20
34.9445
 21
34.6678
  0
LINE
  8
0
 10
106.157
 11
106.29
 20
34.6678
 21
34.3457
  0
LINE
  8
0
 10
106.29
 11
106.336
 20
34.3457
 21
34
  0
LINE
  8
0
 10
106.336
 11
106.29
 20
34
 21
33.6543
  0
LINE
  8
0
 10
106.29
 11
106.157
 20
33.6543
 21
33.3322
  0
LINE
  8
0
 10
106.157
 11
105.944
 20
33.3322
 21
33.0555
  0
LINE
  8
0
 10
105.944
 11
105.668
 20
33.0555
 21
32.8433
  0
LINE
  8
0
 10
105.668
 11
105.346
 20
32.8433
 21
32.7098
  0
LINE
  8
0
 10
105.346
 11
105
 20
32.7098
 21
32.6643
  0
LINE
  8
0
 10
105
 11
104.654
 20
32.6643
 21
32.7098
  0
LINE
  8
0
 10
-104.496
 11
-103.031
 20
24.6056
 21
24.9241
  0
LINE
  8
0
 10
-103.031
 11
-101.628
 20
24.9241
 21
25.4477
  0
LINE
  8
0
 10
-101.628
 11
-100.313
 20
25.4477
 21
26.1658
  0
LINE
  8
0
 10
-100.313
 11
-99.1131
 20
26.1658
 21
27.0636
  0
LINE
  8
0
 10
-99.1131
 11
-98.0536
 20
27.0636
 21
28.1231
  0
LINE
  8
0
 10
-98.0536
 11
-97.1557
 20
28.1231
 21
29.3226
  0
LINE
  8
0
 10
-97.1557
 11
-96.4377
 20
29.3226
 21
30.6376
  0
LINE
  8
0
 10
-96.4377
 11
-95.9141
 20
30.6376
 21
32.0414
  0
LINE
  8
0
 10
-95.9141
 11
-95.5956
 20
32.0414
 21
33.5055
  0
LINE
  8
0
 10
-95.5956
 11
-95.49
 20
33.5055
 21
34.9821
  0
LINE
  8
0
 10
-95.49
 11
-95.49
 20
34.9821
 21
93.5
  0
LINE
  8
0
 10
-95.49
 11
-74.1071
 20
93.5
 21
93.5
  0
LINE
  8
0
 10
-74.1071
 11
-73.4844
 20
93.5
 21
93.5445
  0
LINE
  8
0
 10
-73.4844
 11
-72.8568
 20
93.5445
 21
93.681
  0
LINE
  8
0
 10
-72.8568
 11
-72.2551
 20
93.681
 21
93.9055
  0
LINE
  8
0
 10
-72.2551
 11
-71.6914
 20
93.9055
 21
94.2133
  0
LINE
  8
0
 10
-71.6914
 11
-71.1773
 20
94.2133
 21
94.5981
  0
LINE
  8
0
 10
-71.1773
 11
-70.7231
 20
94.5981
 21
95.0523
  0
LINE
  8
0
 10
-70.7231
 11
-70.3383
 20
95.0523
 21
95.5664
  0
LINE
  8
0
 10
-70.3383
 11
-70.0305
 20
95.5664
 21
96.1301
  0
LINE
  8
0
 10
-70.0305
 11
-69.806
 20
96.1301
 21
96.7318
  0
LINE
  8
0
 10
-69.806
 11
-69.6695
 20
96.7318
 21
97.3594
  0
LINE
  8
0
 10
-69.6695
 11
-69.625
 20
97.3594
 21
97.9821
  0
LINE
  8
0
 10
-69.625
 11
-69.625
 20
97.9821
 21
101.018
  0
LINE
  8
0
 10
-69.625
 11
-69.6695
 20
101.018
 21
101.641
  0
LINE
  8
0
 10
-69.6695
 11
-69.806
 20
101.641
 21
102.268
  0
LINE
  8
0
 10
-69.806
 11
-70.0305
 20
102.268
 21
102.87
  0
LINE
  8
0
 10
-70.0305
 11
-70.3383
 20
102.87
 21
103.434
  0
LINE
  8
0
 10
-70.3383
 11
-70.7231
 20
103.434
 21
103.948
  0
LINE
  8
0
 10
-70.7231
 11
-71.1773
 20
103.948
 21
104.402
  0
LINE
  8
0
 10
-71.1773
 11
-71.6914
 20
104.402
 21
104.787
  0
LINE
  8
0
 10
-71.6914
 11
-72.2551
 20
104.787
 21
105.094
  0
LINE
  8
0
 10
-72.2551
 11
-72.8568
 20
105.094
 21
105.319
  0
LINE
  8
0
 10
-72.8568
 11
-73.4844
 20
105.319
 21
105.455
  0
LINE
  8
0
 10
-73.4844
 11
-74.1071
 20
105.455
 21
105.5
  0
LINE
  8
0
 10
-74.1071
 11
-95.49
 20
105.5
 21
105.5
  0
LINE
  8
0
 10
-95.49
 11
-95.49
 20
105.5
 21
114.556
  0
LINE
  8
0
 10
-95.49
 11
-95.5956
 20
114.556
 21
116.032
  0
LINE
  8
0
 10
-95.5956
 11
-95.9141
 20
116.032
 21
117.496
  0
LINE
  8
0
 10
-95.9141
 11
-96.4377
 20
117.496
 21
118.9
  0
LINE
  8
0
 10
-96.4377
 11
-97.1557
 20
118.9
 21
120.215
  0
LINE
  8
0
 10
-97.1557
 11
-98.0536
 20
120.215
 21
121.415
  0
LINE
  8
0
 10
-98.0536
 11
-99.1131
 20
121.415
 21
122.474
  0
LINE
  8
0
 10
-99.1131
 11
-100.313
 20
122.474
 21
123.372
  0
LINE
  8
0
 10
-100.313
 11
-101.628
 20
123.372
 21
124.09
  0
LINE
  8
0
 10
-101.628
 11
-103.031
 20
124.09
 21
124.614
  0
LINE
  8
0
 10
-103.031
 11
-104.496
 20
124.614
 21
124.932
  0
LINE
  8
0
 10
-104.496
 11
-105.972
 20
124.932
 21
125.038
  0
LINE
  8
0
 10
-105.972
 11
-125.49
 20
125.038
 21
125.038
  0
LINE
  8
0
 10
-125.49
 11
-125.49
 20
125.038
 21
24.5
  0
LINE
  8
0
 10
-125.49
 11
-105.972
 20
24.5
 21
24.5
  0
LINE
  8
0
 10
-105.972
 11
-104.496
 20
24.5
 21
24.6056
  0
LINE
  8
0
 10
-105.346
 11
-105.668
 20
114.248
 21
114.381
  0
LINE
  8
0
 10
-105.668
 11
-105.944
 20
114.381
 21
114.593
  0
LINE
  8
0
 10
-105.944
 11
-106.157
 20
114.593
 21
114.87
  0
LINE
  8
0
 10
-106.157
 11
-106.29
 20
114.87
 21
115.192
  0
LINE
  8
0
 10
-106.29
 11
-106.336
 20
115.192
 21
115.538
  0
LINE
  8
0
 10
-106.336
 11
-106.29
 20
115.538
 21
115.884
  0
LINE
  8
0
 10
-106.29
 11
-106.157
 20
115.884
 21
116.206
  0
LINE
  8
0
 10
-106.157
 11
-105.944
 20
116.206
 21
116.482
  0
LINE
  8
0
 10
-105.944
 11
-105.668
 20
116.482
 21
116.695
  0
LINE
  8
0
 10
-105.668
 11
-105.346
 20
116.695
 21
116.828
  0
LINE
  8
0
 10
-105.346
 11
-105
 20
116.828
 21
116.874
  0
LINE
  8
0
 10
-105
 11
-104.654
 20
116.874
 21
116.828
  0
LINE
  8
0
 10
-104.654
 11
-104.332
 20
116.828
 21
116.695
  0
LINE
  8
0
 10
-104.332
 11
-104.056
 20
116.695
 21
116.482
  0
LINE
  8
0
 10
-104.056
 11
-103.843
 20
116.482
 21
116.206
  0
LINE
  8
0
 10
-103.843
 11
-103.71
 20
116.206
 21
115.884
  0
LINE
  8
0
 10
-103.71
 11
-103.664
 20
115.884
 21
115.538
  0
LINE
  8
0
 10
-103.664
 11
-103.71
 20
115.538
 21
115.192
  0
LINE
  8
0
 10
-103.71
 11
-103.843
 20
115.192
 21
114.87
  0
LINE
  8
0
 10
-103.843
 11
-104.056
 20
114.87
 21
114.593
  0
LINE
  8
0
 10
-104.056
 11
-104.332
 20
114.593
 21
114.381
  0
LINE
  8
0
 10
-104.332
 11
-104.654
 20
114.381
 21
114.248
  0
LINE
  8
0
 10
-104.654
 11
-105
 20
114.248
 21
114.202
  0
LINE
  8
0
 10
-105
 11
-105.346
 20
114.202
 21
114.248
  0
LINE
  8
0
 10
-105.346
 11
-105.668
 20
82.4788
 21
82.6122
  0
LINE
  8
0
 10
-105.668
 11
-105.944
 20
82.6122
 21
82.8244
  0
LINE
  8
0
 10
-105.944
 11
-106.157
 20
82.8244
 21
83.1011
  0
LINE
  8
0
 10
-106.157
 11
-106.29
 20
83.1011
 21
83.4232
  0
LINE
  8
0
 10
-106.29
 11
-106.336
 20
83.4232
 21
83.7689
  0
LINE
  8
0
 10
-106.336
 11
-106.29
 20
83.7689
 21
84.1146
  0
LINE
  8
0
 10
-106.29
 11
-106.157
 20
84.1146
 21
84.4368
  0
LINE
  8
0
 10
-106.157
 11
-105.944
 20
84.4368
 21
84.7134
  0
LINE
  8
0
 10
-105.944
 11
-105.668
 20
84.7134
 21
84.9257
  0
LINE
  8
0
 10
-105.668
 11
-105.346
 20
84.9257
 21
85.0591
  0
LINE
  8
0
 10
-105.346
 11
-105
 20
85.0591
 21
85.1046
  0
LINE
  8
0
 10
-105
 11
-104.654
 20
85.1046
 21
85.0591
  0
LINE
  8
0
 10
-104.654
 11
-104.332
 20
85.0591
 21
84.9257
  0
LINE
  8
0
 10
-104.332
 11
-104.056
 20
84.9257
 21
84.7134
  0
LINE
  8
0
 10
-104.056
 11
-103.843
 20
84.7134
 21
84.4368
  0
LINE
  8
0
 10
-103.843
 11
-103.71
 20
84.4368
 21
84.1146
  0
LINE
  8
0
 10
-103.71
 11
-103.664
 20
84.1146
 21
83.7689
  0
LINE
  8
0
 10
-103.664
 11
-103.71
 20
83.7689
 21
83.4232
  0
LINE
  8
0
 10
-103.71
 11
-103.843
 20
83.4232
 21
83.1011
  0
LINE
  8
0
 10
-103.843
 11
-104.056
 20
83.1011
 21
82.8244
  0
LINE
  8
0
 10
-104.056
 11
-104.332
 20
82.8244
 21
82.6122
  0
LINE
  8
0
 10
-104.332
 11
-104.654
 20
82.6122
 21
82.4788
  0
LINE
  8
0
 10
-104.654
 11
-105
 20
82.4788
 21
82.4333
  0
LINE
  8
0
 10
-105
 11
-105.346
 20
82.4333
 21
82.4788
  0
LINE
  8
0
 10
-105.346
 11
-105.668
 20
32.7098
 21
32.8433
  0
LINE
  8
0
 10
-105.668
 11
-105.944
 20
32.8433
 21
33.0555
  0
LINE
  8
0
 10
-105.944
 11
-106.157
 20
33.0555
 21
33.3322
  0
LINE
  8
0
 10
-106.157
 11
-106.29
 20
33.3322
 21
33.6543
  0
LINE
  8
0
 10
-106.29
 11
-106.336
 20
33.6543
 21
34
  0
LINE
  8
0
 10
-106.336
 11
-106.29
 20
34
 21
34.3457
  0
LINE
  8
0
 10
-106.29
 11
-106.157
 20
34.3457
 21
34.6678
  0
LINE
  8
0
 10
-106.157
 11
-105.944
 20
34.6678
 21
34.9445
  0
LINE
  8
0
 10
-105.944
 11
-105.668
 20
34.9445
 21
35.1567
  0
LINE
  8
0
 10
-105.668
 11
-105.346
 20
35.1567
 21
35.2902
  0
LINE
  8
0
 10
-105.346
 11
-105
 20
35.2902
 21
35.3357
  0
LINE
  8
0
 10
-105
 11
-104.654
 20
35.3357
 21
35.2902
  0
LINE
  8
0
 10
-104.654
 11
-104.332
 20
35.2902
 21
35.1567
  0
LINE
  8
0
 10
-104.332
 11
-104.056
 20
35.1567
 21
34.9445
  0
LINE
  8
0
 10
-104.056
 11
-103.843
 20
34.9445
 21
34.6678
  0
LINE
  8
0
 10
-103.843
 11
-103.71
 20
34.6678
 21
34.3457
  0
LINE
  8
0
 10
-103.71
 11
-103.664
 20
34.3457
 21
34
  0
LINE
  8
0
 10
-103.664
 11
-103.71
 20
34
 21
33.6543
  0
LINE
  8
0
 10
-103.71
 11
-103.843
 20
33.6543
 21
33.3322
  0
LINE
  8
0
 10
-103.843
 11
-104.056
 20
33.3322
 21
33.0555
  0
LINE
  8
0
 10
-104.056
 11
-104.332
 20
33.0555
 21
32.8433
  0
LINE
  8
0
 10
-104.332
 11
-104.654
 20
32.8433
 21
32.7098
  0
LINE
  8
0
 10
-104.654
 11
-105
 20
32.7098
 21
32.6643
  0
LINE
  8
0
 10
-105
 11
-105.346
 20
32.6643
 21
32.7098
  0
LINE
  8
0
 10
17
 11
22.7692
 20
70.9055
 21
70.9055
  0
LINE
  8
0
 10
22.7692
 11
23.3055
 20
70.9055
 21
70.9538
  0
LINE
  8
0
 10
23.3055
 11
23.8352
 20
70.9538
 21
71.0499
  0
LINE
  8
0
 10
23.8352
 11
24.3542
 20
71.0499
 21
71.1932
  0
LINE
  8
0
 10
24.3542
 11
24.8584
 20
71.1932
 21
71.3824
  0
LINE
  8
0
 10
24.8584
 11
25.3435
 20
71.3824
 21
71.616
  0
LINE
  8
0
 10
25.3435
 11
25.8056
 20
71.616
 21
71.8921
  0
LINE
  8
0
 10
25.8056
 11
26.2412
 20
71.8921
 21
72.2086
  0
LINE
  8
0
 10
26.2412
 11
26.6467
 20
72.2086
 21
72.5629
  0
LINE
  8
0
 10
26.6467
 11
27.0188
 20
72.5629
 21
72.952
  0
LINE
  8
0
 10
27.0188
 11
27.3545
 20
72.952
 21
73.373
  0
LINE
  8
0
 10
27.3545
 11
27.6511
 20
73.373
 21
73.8223
  0
LINE
  8
0
 10
27.6511
 11
27.9063
 20
73.8223
 21
74.2965
  0
LINE
  8
0
 10
27.9063
 11
28.1179
 20
74.2965
 21
74.7916
  0
LINE
  8
0
 10
28.1179
 11
28.2843
 20
74.7916
 21
75.3036
  0
LINE
  8
0
 10
28.2843
 11
28.4041
 20
75.3036
 21
75.8286
  0
LINE
  8
0
 10
28.4041
 11
28.4763
 20
75.8286
 21
76.3621
  0
LINE
  8
0
 10
28.4763
 11
28.5005
 20
76.3621
 21
76.9
  0
LINE
  8
0
 10
28.5005
 11
28.4763
 20
76.9
 21
77.4379
  0
LINE
  8
0
 10
28.4763
 11
28.4041
 20
77.4379
 21
77.9714
  0
LINE
  8
0
 10
28.4041
 11
28.2843
 20
77.9714
 21
78.4964
  0
LINE
  8
0
 10
28.2843
 11
28.1179
 20
78.4964
 21
79.0084
  0
LINE
  8
0
 10
28.1179
 11
27.9063
 20
79.0084
 21
79.5035
  0
LINE
  8
0
 10
27.9063
 11
27.6511
 20
79.5035
 21
79.9776
  0
LINE
  8
0
 10
27.6511
 11
27.3545
 20
79.9776
 21
80.427
  0
LINE
  8
0
 10
27.3545
 11
27.0188
 20
80.427
 21
80.848
  0
LINE
  8
0
 10
27.0188
 11
26.6467
 20
80.848
 21
81.2371
  0
LINE
  8
0
 10
26.6467
 11
26.2421
 20
81.2371
 21
81.5906
  0
LINE
  8
0
 10
26.2421
 11
3.72397
 20
81.5906
 21
98.1039
  0
LINE
  8
0
 10
3.72397
 11
3.30565
 20
98.1039
 21
98.4079
  0
LINE
  8
0
 10
3.30565
 11
2.84346
 20
98.4079
 21
98.684
  0
LINE
  8
0
 10
2.84346
 11
2.35834
 20
98.684
 21
98.9176
  0
LINE
  8
0
 10
2.35834
 11
1.85425
 20
98.9176
 21
99.1068
  0
LINE
  8
0
 10
1.85425
 11
1.33524
 20
99.1068
 21
99.2501
  0
LINE
  8
0
 10
1.33524
 11
0.805466
 20
99.2501
 21
99.3462
  0
LINE
  8
0
 10
0.805466
 11
0.269211
 20
99.3462
 21
99.3945
  0
LINE
  8
0
 10
0.269211
 11
-0.269211
 20
99.3945
 21
99.3945
  0
LINE
  8
0
 10
-0.269211
 11
-0.805466
 20
99.3945
 21
99.3462
  0
LINE
  8
0
 10
-0.805466
 11
-1.33524
 20
99.3462
 21
99.2501
  0
LINE
  8
0
 10
-1.33524
 11
-1.85425
 20
99.2501
 21
99.1068
  0
LINE
  8
0
 10
-1.85425
 11
-2.35834
 20
99.1068
 21
98.9176
  0
LINE
  8
0
 10
-2.35834
 11
-2.84346
 20
98.9176
 21
98.684
  0
LINE
  8
0
 10
-2.84346
 11
-3.30565
 20
98.684
 21
98.4079
  0
LINE
  8
0
 10
-3.30565
 11
-3.72397
 20
98.4079
 21
98.1039
  0
LINE
  8
0
 10
-3.72397
 11
-26.2421
 20
98.1039
 21
81.5906
  0
LINE
  8
0
 10
-26.2421
 11
-26.6467
 20
81.5906
 21
81.2371
  0
LINE
  8
0
 10
-26.6467
 11
-27.0188
 20
81.2371
 21
80.848
  0
LINE
  8
0
 10
-27.0188
 11
-27.3545
 20
80.848
 21
80.427
  0
LINE
  8
0
 10
-27.3545
 11
-27.6511
 20
80.427
 21
79.9776
  0
LINE
  8
0
 10
-27.6511
 11
-27.9063
 20
79.9776
 21
79.5035
  0
LINE
  8
0
 10
-27.9063
 11
-28.1179
 20
79.5035
 21
79.0084
  0
LINE
  8
0
 10
-28.1179
 11
-28.2843
 20
79.0084
 21
78.4964
  0
LINE
  8
0
 10
-28.2843
 11
-28.4041
 20
78.4964
 21
77.9714
  0
LINE
  8
0
 10
-28.4041
 11
-28.4763
 20
77.9714
 21
77.4379
  0
LINE
  8
0
 10
-28.4763
 11
-28.5005
 20
77.4379
 21
76.9
  0
LINE
  8
0
 10
-28.5005
 11
-28.4763
 20
76.9
 21
76.3621
  0
LINE
  8
0
 10
-28.4763
 11
-28.4041
 20
76.3621
 21
75.8286
  0
LINE
  8
0
 10
-28.4041
 11
-28.2843
 20
75.8286
 21
75.3036
  0
LINE
  8
0
 10
-28.2843
 11
-28.1179
 20
75.3036
 21
74.7916
  0
LINE
  8
0
 10
-28.1179
 11
-27.9063
 20
74.7916
 21
74.2965
  0
LINE
  8
0
 10
-27.9063
 11
-27.6511
 20
74.2965
 21
73.8223
  0
LINE
  8
0
 10
-27.6511
 11
-27.3545
 20
73.8223
 21
73.373
  0
LINE
  8
0
 10
-27.3545
 11
-27.0188
 20
73.373
 21
72.952
  0
LINE
  8
0
 10
-27.0188
 11
-26.6467
 20
72.952
 21
72.5629
  0
LINE
  8
0
 10
-26.6467
 11
-26.2412
 20
72.5629
 21
72.2086
  0
LINE
  8
0
 10
-26.2412
 11
-25.8056
 20
72.2086
 21
71.8921
  0
LINE
  8
0
 10
-25.8056
 11
-25.3435
 20
71.8921
 21
71.616
  0
LINE
  8
0
 10
-25.3435
 11
-24.8584
 20
71.616
 21
71.3824
  0
LINE
  8
0
 10
-24.8584
 11
-24.3542
 20
71.3824
 21
71.1932
  0
LINE
  8
0
 10
-24.3542
 11
-23.8352
 20
71.1932
 21
71.0499
  0
LINE
  8
0
 10
-23.8352
 11
-23.3055
 20
71.0499
 21
70.9538
  0
LINE
  8
0
 10
-23.3055
 11
-22.7692
 20
70.9538
 21
70.9055
  0
LINE
  8
0
 10
-22.7692
 11
-17
 20
70.9055
 21
70.9055
  0
LINE
  8
0
 10
-17
 11
-17
 20
70.9055
 21
70.9
  0
LINE
  8
0
 10
-17
 11
17
 20
70.9
 21
70.9
  0
LINE
  8
0
 10
17
 11
17
 20
70.9
 21
70.9055
  0
LINE
  8
0
 10
-0.345703
 11
-0.667862
 20
92.1098
 21
92.2433
  0
LINE
  8
0
 10
-0.667862
 11
-0.944427
 20
92.2433
 21
92.4555
  0
LINE
  8
0
 10
-0.944427
 11
-1.15672
 20
92.4555
 21
92.7322
  0
LINE
  8
0
 10
-1.15672
 11
-1.29016
 20
92.7322
 21
93.0543
  0
LINE
  8
0
 10
-1.29016
 11
-1.33568
 20
93.0543
 21
93.4
  0
LINE
  8
0
 10
-1.33568
 11
-1.29016
 20
93.4
 21
93.7457
  0
LINE
  8
0
 10
-1.29016
 11
-1.15672
 20
93.7457
 21
94.0678
  0
LINE
  8
0
 10
-1.15672
 11
-0.944427
 20
94.0678
 21
94.3445
  0
LINE
  8
0
 10
-0.944427
 11
-0.667862
 20
94.3445
 21
94.5567
  0
LINE
  8
0
 10
-0.667862
 11
-0.345703
 20
94.5567
 21
94.6902
  0
LINE
  8
0
 10
-0.345703
 11
0
 20
94.6902
 21
94.7357
  0
LINE
  8
0
 10
0
 11
0.345718
 20
94.7357
 21
94.6902
  0
LINE
  8
0
 10
0.345718
 11
0.667862
 20
94.6902
 21
94.5567
  0
LINE
  8
0
 10
0.667862
 11
0.944427
 20
94.5567
 21
94.3445
  0
LINE
  8
0
 10
0.944427
 11
1.15672
 20
94.3445
 21
94.0678
  0
LINE
  8
0
 10
1.15672
 11
1.29016
 20
94.0678
 21
93.7457
  0
LINE
  8
0
 10
1.29016
 11
1.33568
 20
93.7457
 21
93.4
  0
LINE
  8
0
 10
1.33568
 11
1.29016
 20
93.4
 21
93.0543
  0
LINE
  8
0
 10
1.29016
 11
1.15672
 20
93.0543
 21
92.7322
  0
LINE
  8
0
 10
1.15672
 11
0.944427
 20
92.7322
 21
92.4555
  0
LINE
  8
0
 10
0.944427
 11
0.667862
 20
92.4555
 21
92.2433
  0
LINE
  8
0
 10
0.667862
 11
0.345718
 20
92.2433
 21
92.1098
  0
LINE
  8
0
 10
0.345718
 11
0
 20
92.1098
 21
92.0643
  0
LINE
  8
0
 10
0
 11
-0.345703
 20
92.0643
 21
92.1098
  0
LINE
  8
0
 10
-22.8457
 11
-23.1679
 20
75.6098
 21
75.7433
  0
LINE
  8
0
 10
-23.1679
 11
-23.4444
 20
75.7433
 21
75.9555
  0
LINE
  8
0
 10
-23.4444
 11
-23.6567
 20
75.9555
 21
76.2322
  0
LINE
  8
0
 10
-23.6567
 11
-23.7902
 20
76.2322
 21
76.5543
  0
LINE
  8
0
 10
-23.7902
 11
-23.8357
 20
76.5543
 21
76.9
  0
LINE
  8
0
 10
-23.8357
 11
-23.7902
 20
76.9
 21
77.2457
  0
LINE
  8
0
 10
-23.7902
 11
-23.6567
 20
77.2457
 21
77.5678
  0
LINE
  8
0
 10
-23.6567
 11
-23.4444
 20
77.5678
 21
77.8445
  0
LINE
  8
0
 10
-23.4444
 11
-23.1679
 20
77.8445
 21
78.0567
  0
LINE
  8
0
 10
-23.1679
 11
-22.8457
 20
78.0567
 21
78.1902
  0
LINE
  8
0
 10
-22.8457
 11
-22.5
 20
78.1902
 21
78.2357
  0
LINE
  8
0
 10
-22.5
 11
-22.1543
 20
78.2357
 21
78.1902
  0
LINE
  8
0
 10
-22.1543
 11
-21.8321
 20
78.1902
 21
78.0567
  0
LINE
  8
0
 10
-21.8321
 11
-21.5556
 20
78.0567
 21
77.8445
  0
LINE
  8
0
 10
-21.5556
 11
-21.3433
 20
77.8445
 21
77.5678
  0
LINE
  8
0
 10
-21.3433
 11
-21.2098
 20
77.5678
 21
77.2457
  0
LINE
  8
0
 10
-21.2098
 11
-21.1643
 20
77.2457
 21
76.9
  0
LINE
  8
0
 10
-21.1643
 11
-21.2098
 20
76.9
 21
76.5543
  0
LINE
  8
0
 10
-21.2098
 11
-21.3433
 20
76.5543
 21
76.2322
  0
LINE
  8
0
 10
-21.3433
 11
-21.5556
 20
76.2322
 21
75.9555
  0
LINE
  8
0
 10
-21.5556
 11
-21.8321
 20
75.9555
 21
75.7433
  0
LINE
  8
0
 10
-21.8321
 11
-22.1543
 20
75.7433
 21
75.6098
  0
LINE
  8
0
 10
-22.1543
 11
-22.5
 20
75.6098
 21
75.5643
  0
LINE
  8
0
 10
-22.5
 11
-22.8457
 20
75.5643
 21
75.6098
  0
LINE
  8
0
 10
22.1543
 11
21.8321
 20
75.6098
 21
75.7433
  0
LINE
  8
0
 10
21.8321
 11
21.5556
 20
75.7433
 21
75.9555
  0
LINE
  8
0
 10
21.5556
 11
21.3433
 20
75.9555
 21
76.2322
  0
LINE
  8
0
 10
21.3433
 11
21.2098
 20
76.2322
 21
76.5543
  0
LINE
  8
0
 10
21.2098
 11
21.1643
 20
76.5543
 21
76.9
  0
LINE
  8
0
 10
21.1643
 11
21.2098
 20
76.9
 21
77.2457
  0
LINE
  8
0
 10
21.2098
 11
21.3433
 20
77.2457
 21
77.5678
  0
LINE
  8
0
 10
21.3433
 11
21.5556
 20
77.5678
 21
77.8445
  0
LINE
  8
0
 10
21.5556
 11
21.8321
 20
77.8445
 21
78.0567
  0
LINE
  8
0
 10
21.8321
 11
22.1543
 20
78.0567
 21
78.1902
  0
LINE
  8
0
 10
22.1543
 11
22.5
 20
78.1902
 21
78.2357
  0
LINE
  8
0
 10
22.5
 11
22.8457
 20
78.2357
 21
78.1902
  0
LINE
  8
0
 10
22.8457
 11
23.1679
 20
78.1902
 21
78.0567
  0
LINE
  8
0
 10
23.1679
 11
23.4444
 20
78.0567
 21
77.8445
  0
LINE
  8
0
 10
23.4444
 11
23.6567
 20
77.8445
 21
77.5678
  0
LINE
  8
0
 10
23.6567
 11
23.7902
 20
77.5678
 21
77.2457
  0
LINE
  8
0
 10
23.7902
 11
23.8357
 20
77.2457
 21
76.9
  0
LINE
  8
0
 10
23.8357
 11
23.7902
 20
76.9
 21
76.5543
  0
LINE
  8
0
 10
23.7902
 11
23.6567
 20
76.5543
 21
76.2322
  0
LINE
  8
0
 10
23.6567
 11
23.4444
 20
76.2322
 21
75.9555
  0
LINE
  8
0
 10
23.4444
 11
23.1679
 20
75.9555
 21
75.7433
  0
LINE
  8
0
 10
23.1679
 11
22.8457
 20
75.7433
 21
75.6098
  0
LINE
  8
0
 10
22.8457
 11
22.5
 20
75.6098
 21
75.5643
  0
LINE
  8
0
 10
22.5
 11
22.1543
 20
75.5643
 21
75.6098
  0
LINE
  8
0
 10
17
 11
22.7692
 20
-77.8945
 21
-77.8945
  0
LINE
  8
0
 10
22.7692
 11
23.3055
 20
-77.8945
 21
-77.8462
  0
LINE
  8
0
 10
23.3055
 11
23.8352
 20
-77.8462
 21
-77.7501
  0
LINE
  8
0
 10
23.8352
 11
24.3542
 20
-77.7501
 21
-77.6068
  0
LINE
  8
0
 10
24.3542
 11
24.8583
 20
-77.6068
 21
-77.4176
  0
LINE
  8
0
 10
24.8583
 11
25.3435
 20
-77.4176
 21
-77.184
  0
LINE
  8
0
 10
25.3435
 11
25.8056
 20
-77.184
 21
-76.9079
  0
LINE
  8
0
 10
25.8056
 11
26.2412
 20
-76.9079
 21
-76.5914
  0
LINE
  8
0
 10
26.2412
 11
26.6467
 20
-76.5914
 21
-76.2371
  0
LINE
  8
0
 10
26.6467
 11
27.0188
 20
-76.2371
 21
-75.848
  0
LINE
  8
0
 10
27.0188
 11
27.3545
 20
-75.848
 21
-75.427
  0
LINE
  8
0
 10
27.3545
 11
27.6511
 20
-75.427
 21
-74.9776
  0
LINE
  8
0
 10
27.6511
 11
27.9063
 20
-74.9776
 21
-74.5035
  0
LINE
  8
0
 10
27.9063
 11
28.1179
 20
-74.5035
 21
-74.0084
  0
LINE
  8
0
 10
28.1179
 11
28.2843
 20
-74.0084
 21
-73.4964
  0
LINE
  8
0
 10
28.2843
 11
28.4041
 20
-73.4964
 21
-72.9714
  0
LINE
  8
0
 10
28.4041
 11
28.4763
 20
-72.9714
 21
-72.4379
  0
LINE
  8
0
 10
28.4763
 11
28.5005
 20
-72.4379
 21
-71.9
  0
LINE
  8
0
 10
28.5005
 11
28.4763
 20
-71.9
 21
-71.3621
  0
LINE
  8
0
 10
28.4763
 11
28.4041
 20
-71.3621
 21
-70.8286
  0
LINE
  8
0
 10
28.4041
 11
28.2843
 20
-70.8286
 21
-70.3036
  0
LINE
  8
0
 10
28.2843
 11
28.1179
 20
-70.3036
 21
-69.7916
  0
LINE
  8
0
 10
28.1179
 11
27.9063
 20
-69.7916
 21
-69.2965
  0
LINE
  8
0
 10
27.9063
 11
27.6511
 20
-69.2965
 21
-68.8223
  0
LINE
  8
0
 10
27.6511
 11
27.3634
 20
-68.8223
 21
-68.3865
  0
LINE
  8
0
 10
27.3634
 11
15.8506
 20
-68.3865
 21
-51.868
  0
LINE
  8
0
 10
15.8506
 11
15.5188
 20
-51.868
 21
-51.452
  0
LINE
  8
0
 10
15.5188
 11
15.1467
 20
-51.452
 21
-51.0629
  0
LINE
  8
0
 10
15.1467
 11
14.7412
 20
-51.0629
 21
-50.7086
  0
LINE
  8
0
 10
14.7412
 11
14.3056
 20
-50.7086
 21
-50.3921
  0
LINE
  8
0
 10
14.3056
 11
13.8435
 20
-50.3921
 21
-50.116
  0
LINE
  8
0
 10
13.8435
 11
13.3584
 20
-50.116
 21
-49.8824
  0
LINE
  8
0
 10
13.3584
 11
12.8542
 20
-49.8824
 21
-49.6932
  0
LINE
  8
0
 10
12.8542
 11
12.3352
 20
-49.6932
 21
-49.5499
  0
LINE
  8
0
 10
12.3352
 11
11.8055
 20
-49.5499
 21
-49.4538
  0
LINE
  8
0
 10
11.8055
 11
11.2692
 20
-49.4538
 21
-49.4055
  0
LINE
  8
0
 10
11.2692
 11
10.7308
 20
-49.4055
 21
-49.4055
  0
LINE
  8
0
 10
10.7308
 11
10.1945
 20
-49.4055
 21
-49.4538
  0
LINE
  8
0
 10
10.1945
 11
9.66475
 20
-49.4538
 21
-49.5499
  0
LINE
  8
0
 10
9.66475
 11
9.14574
 20
-49.5499
 21
-49.6932
  0
LINE
  8
0
 10
9.14574
 11
8.64163
 20
-49.6932
 21
-49.8824
  0
LINE
  8
0
 10
8.64163
 11
8.15652
 20
-49.8824
 21
-50.116
  0
LINE
  8
0
 10
8.15652
 11
7.69434
 20
-50.116
 21
-50.3921
  0
LINE
  8
0
 10
7.69434
 11
7.25874
 20
-50.3921
 21
-50.7086
  0
LINE
  8
0
 10
7.25874
 11
6.85327
 20
-50.7086
 21
-51.0629
  0
LINE
  8
0
 10
6.85327
 11
6.48117
 20
-51.0629
 21
-51.452
  0
LINE
  8
0
 10
6.48117
 11
6.14619
 20
-51.452
 21
-51.8721
  0
LINE
  8
0
 10
6.14619
 11
-3.20572
 20
-51.8721
 21
-65.9
  0
LINE
  8
0
 10
-3.20572
 11
-37
 20
-65.9
 21
-65.9
  0
LINE
  8
0
 10
-37
 11
-37
 20
-65.9
 21
-65.9055
  0
LINE
  8
0
 10
-37
 11
-69.2284
 20
-65.9055
 21
-65.9055
  0
LINE
  8
0
 10
-69.2284
 11
-69.7647
 20
-65.9055
 21
-65.9538
  0
LINE
  8
0
 10
-69.7647
 11
-70.2944
 20
-65.9538
 21
-66.0499
  0
LINE
  8
0
 10
-70.2944
 11
-70.8134
 20
-66.0499
 21
-66.1932
  0
LINE
  8
0
 10
-70.8134
 11
-71.3176
 20
-66.1932
 21
-66.3824
  0
LINE
  8
0
 10
-71.3176
 11
-71.8026
 20
-66.3824
 21
-66.616
  0
LINE
  8
0
 10
-71.8026
 11
-72.2649
 20
-66.616
 21
-66.8921
  0
LINE
  8
0
 10
-72.2649
 11
-72.7005
 20
-66.8921
 21
-67.2086
  0
LINE
  8
0
 10
-72.7005
 11
-73.1059
 20
-67.2086
 21
-67.5629
  0
LINE
  8
0
 10
-73.1059
 11
-73.478
 20
-67.5629
 21
-67.952
  0
LINE
  8
0
 10
-73.478
 11
-73.8137
 20
-67.952
 21
-68.373
  0
LINE
  8
0
 10
-73.8137
 11
-74.1103
 20
-68.373
 21
-68.8223
  0
LINE
  8
0
 10
-74.1103
 11
-74.3655
 20
-68.8223
 21
-69.2965
  0
LINE
  8
0
 10
-74.3655
 11
-74.5771
 20
-69.2965
 21
-69.7916
  0
LINE
  8
0
 10
-74.5771
 11
-74.7435
 20
-69.7916
 21
-70.3036
  0
LINE
  8
0
 10
-74.7435
 11
-74.8633
 20
-70.3036
 21
-70.8286
  0
LINE
  8
0
 10
-74.8633
 11
-74.9355
 20
-70.8286
 21
-71.3621
  0
LINE
  8
0
 10
-74.9355
 11
-74.9597
 20
-71.3621
 21
-71.9
  0
LINE
  8
0
 10
-74.9597
 11
-74.9355
 20
-71.9
 21
-72.4379
  0
LINE
  8
0
 10
-74.9355
 11
-74.8633
 20
-72.4379
 21
-72.9714
  0
LINE
  8
0
 10
-74.8633
 11
-74.7435
 20
-72.9714
 21
-73.4963
  0
LINE
  8
0
 10
-74.7435
 11
-74.5771
 20
-73.4963
 21
-74.0084
  0
LINE
  8
0
 10
-74.5771
 11
-74.3655
 20
-74.0084
 21
-74.5035
  0
LINE
  8
0
 10
-74.3655
 11
-74.1103
 20
-74.5035
 21
-74.9776
  0
LINE
  8
0
 10
-74.1103
 11
-73.8137
 20
-74.9776
 21
-75.427
  0
LINE
  8
0
 10
-73.8137
 11
-73.478
 20
-75.427
 21
-75.848
  0
LINE
  8
0
 10
-73.478
 11
-73.1059
 20
-75.848
 21
-76.2371
  0
LINE
  8
0
 10
-73.1059
 11
-72.7005
 20
-76.2371
 21
-76.5914
  0
LINE
  8
0
 10
-72.7005
 11
-72.2649
 20
-76.5914
 21
-76.9079
  0
LINE
  8
0
 10
-72.2649
 11
-71.8026
 20
-76.9079
 21
-77.184
  0
LINE
  8
0
 10
-71.8026
 11
-71.3175
 20
-77.184
 21
-77.4176
  0
LINE
  8
0
 10
-71.3175
 11
-70.8134
 20
-77.4176
 21
-77.6068
  0
LINE
  8
0
 10
-70.8134
 11
-70.2944
 20
-77.6068
 21
-77.7501
  0
LINE
  8
0
 10
-70.2944
 11
-69.7647
 20
-77.7501
 21
-77.8462
  0
LINE
  8
0
 10
-69.7647
 11
-69.2284
 20
-77.8462
 21
-77.8945
  0
LINE
  8
0
 10
-69.2284
 11
-37
 20
-77.8945
 21
-77.8945
  0
LINE
  8
0
 10
-37
 11
-37
 20
-77.8945
 21
-77.9
  0
LINE
  8
0
 10
-37
 11
17
 20
-77.9
 21
-77.9
  0
LINE
  8
0
 10
17
 11
17
 20
-77.9
 21
-77.8945
  0
LINE
  8
0
 10
10.6543
 11
10.3321
 20
-56.6902
 21
-56.5567
  0
LINE
  8
0
 10
10.3321
 11
10.0556
 20
-56.5567
 21
-56.3445
  0
LINE
  8
0
 10
10.0556
 11
9.84326
 20
-56.3445
 21
-56.0678
  0
LINE
  8
0
 10
9.84326
 11
9.70982
 20
-56.0678
 21
-55.7457
  0
LINE
  8
0
 10
9.70982
 11
9.66431
 20
-55.7457
 21
-55.4
  0
LINE
  8
0
 10
9.66431
 11
9.70982
 20
-55.4
 21
-55.0543
  0
LINE
  8
0
 10
9.70982
 11
9.84326
 20
-55.0543
 21
-54.7322
  0
LINE
  8
0
 10
9.84326
 11
10.0556
 20
-54.7322
 21
-54.4555
  0
LINE
  8
0
 10
10.0556
 11
10.3321
 20
-54.4555
 21
-54.2433
  0
LINE
  8
0
 10
10.3321
 11
10.6543
 20
-54.2433
 21
-54.1098
  0
LINE
  8
0
 10
10.6543
 11
11
 20
-54.1098
 21
-54.0643
  0
LINE
  8
0
 10
11
 11
11.3457
 20
-54.0643
 21
-54.1098
  0
LINE
  8
0
 10
11.3457
 11
11.6679
 20
-54.1098
 21
-54.2433
  0
LINE
  8
0
 10
11.6679
 11
11.9444
 20
-54.2433
 21
-54.4555
  0
LINE
  8
0
 10
11.9444
 11
12.1567
 20
-54.4555
 21
-54.7322
  0
LINE
  8
0
 10
12.1567
 11
12.2902
 20
-54.7322
 21
-55.0543
  0
LINE
  8
0
 10
12.2902
 11
12.3357
 20
-55.0543
 21
-55.4
  0
LINE
  8
0
 10
12.3357
 11
12.2902
 20
-55.4
 21
-55.7457
  0
LINE
  8
0
 10
12.2902
 11
12.1567
 20
-55.7457
 21
-56.0678
  0
LINE
  8
0
 10
12.1567
 11
11.9444
 20
-56.0678
 21
-56.3445
  0
LINE
  8
0
 10
11.9444
 11
11.6679
 20
-56.3445
 21
-56.5567
  0
LINE
  8
0
 10
11.6679
 11
11.3457
 20
-56.5567
 21
-56.6902
  0
LINE
  8
0
 10
11.3457
 11
11
 20
-56.6902
 21
-56.7357
  0
LINE
  8
0
 10
11
 11
10.6543
 20
-56.7357
 21
-56.6902
  0
LINE
  8
0
 10
-69.3049
 11
-69.6271
 20
-73.1902
 21
-73.0567
  0
LINE
  8
0
 10
-69.6271
 11
-69.9037
 20
-73.0567
 21
-72.8445
  0
LINE
  8
0
 10
-69.9037
 11
-70.1159
 20
-72.8445
 21
-72.5679
  0
LINE
  8
0
 10
-70.1159
 11
-70.2494
 20
-72.5679
 21
-72.2457
  0
LINE
  8
0
 10
-70.2494
 11
-70.2949
 20
-72.2457
 21
-71.9
  0
LINE
  8
0
 10
-70.2949
 11
-70.2494
 20
-71.9
 21
-71.5543
  0
LINE
  8
0
 10
-70.2494
 11
-70.1159
 20
-71.5543
 21
-71.2321
  0
LINE
  8
0
 10
-70.1159
 11
-69.9037
 20
-71.2321
 21
-70.9555
  0
LINE
  8
0
 10
-69.9037
 11
-69.6271
 20
-70.9555
 21
-70.7433
  0
LINE
  8
0
 10
-69.6271
 11
-69.3049
 20
-70.7433
 21
-70.6098
  0
LINE
  8
0
 10
-69.3049
 11
-68.9592
 20
-70.6098
 21
-70.5643
  0
LINE
  8
0
 10
-68.9592
 11
-68.6135
 20
-70.5643
 21
-70.6098
  0
LINE
  8
0
 10
-68.6135
 11
-68.2913
 20
-70.6098
 21
-70.7433
  0
LINE
  8
0
 10
-68.2913
 11
-68.0147
 20
-70.7433
 21
-70.9555
  0
LINE
  8
0
 10
-68.0147
 11
-67.8025
 20
-70.9555
 21
-71.2321
  0
LINE
  8
0
 10
-67.8025
 11
-67.669
 20
-71.2321
 21
-71.5543
  0
LINE
  8
0
 10
-67.669
 11
-67.6235
 20
-71.5543
 21
-71.9
  0
LINE
  8
0
 10
-67.6235
 11
-67.669
 20
-71.9
 21
-72.2457
  0
LINE
  8
0
 10
-67.669
 11
-67.8025
 20
-72.2457
 21
-72.5679
  0
LINE
  8
0
 10
-67.8025
 11
-68.0147
 20
-72.5679
 21
-72.8445
  0
LINE
  8
0
 10
-68.0147
 11
-68.2913
 20
-72.8445
 21
-73.0567
  0
LINE
  8
0
 10
-68.2913
 11
-68.6135
 20
-73.0567
 21
-73.1902
  0
LINE
  8
0
 10
-68.6135
 11
-68.9592
 20
-73.1902
 21
-73.2357
  0
LINE
  8
0
 10
-68.9592
 11
-69.3049
 20
-73.2357
 21
-73.1902
  0
LINE
  8
0
 10
22.1543
 11
21.8321
 20
-73.1902
 21
-73.0567
  0
LINE
  8
0
 10
21.8321
 11
21.5556
 20
-73.0567
 21
-72.8445
  0
LINE
  8
0
 10
21.5556
 11
21.3433
 20
-72.8445
 21
-72.5678
  0
LINE
  8
0
 10
21.3433
 11
21.2098
 20
-72.5678
 21
-72.2457
  0
LINE
  8
0
 10
21.2098
 11
21.1643
 20
-72.2457
 21
-71.9
  0
LINE
  8
0
 10
21.1643
 11
21.2098
 20
-71.9
 21
-71.5543
  0
LINE
  8
0
 10
21.2098
 11
21.3433
 20
-71.5543
 21
-71.2322
  0
LINE
  8
0
 10
21.3433
 11
21.5556
 20
-71.2322
 21
-70.9555
  0
LINE
  8
0
 10
21.5556
 11
21.8321
 20
-70.9555
 21
-70.7433
  0
LINE
  8
0
 10
21.8321
 11
22.1543
 20
-70.7433
 21
-70.6098
  0
LINE
  8
0
 10
22.1543
 11
22.5
 20
-70.6098
 21
-70.5643
  0
LINE
  8
0
 10
22.5
 11
22.8457
 20
-70.5643
 21
-70.6098
  0
LINE
  8
0
 10
22.8457
 11
23.1679
 20
-70.6098
 21
-70.7433
  0
LINE
  8
0
 10
23.1679
 11
23.4444
 20
-70.7433
 21
-70.9555
  0
LINE
  8
0
 10
23.4444
 11
23.6567
 20
-70.9555
 21
-71.2322
  0
LINE
  8
0
 10
23.6567
 11
23.7902
 20
-71.2322
 21
-71.5543
  0
LINE
  8
0
 10
23.7902
 11
23.8357
 20
-71.5543
 21
-71.9
  0
LINE
  8
0
 10
23.8357
 11
23.7902
 20
-71.9
 21
-72.2457
  0
LINE
  8
0
 10
23.7902
 11
23.6567
 20
-72.2457
 21
-72.5678
  0
LINE
  8
0
 10
23.6567
 11
23.4444
 20
-72.5678
 21
-72.8445
  0
LINE
  8
0
 10
23.4444
 11
23.1679
 20
-72.8445
 21
-73.0567
  0
LINE
  8
0
 10
23.1679
 11
22.8457
 20
-73.0567
 21
-73.1902
  0
LINE
  8
0
 10
22.8457
 11
22.5
 20
-73.1902
 21
-73.2357
  0
LINE
  8
0
 10
22.5
 11
22.1543
 20
-73.2357
 21
-73.1902
  0
LINE
  8
0
 10
92.25
 11
98.0192
 20
-105.494
 21
-105.494
  0
LINE
  8
0
 10
98.0192
 11
98.5555
 20
-105.494
 21
-105.446
  0
LINE
  8
0
 10
98.5555
 11
99.0852
 20
-105.446
 21
-105.35
  0
LINE
  8
0
 10
99.0852
 11
99.6042
 20
-105.35
 21
-105.207
  0
LINE
  8
0
 10
99.6042
 11
100.108
 20
-105.207
 21
-105.018
  0
LINE
  8
0
 10
100.108
 11
100.593
 20
-105.018
 21
-104.784
  0
LINE
  8
0
 10
100.593
 11
101.056
 20
-104.784
 21
-104.508
  0
LINE
  8
0
 10
101.056
 11
101.491
 20
-104.508
 21
-104.191
  0
LINE
  8
0
 10
101.491
 11
101.897
 20
-104.191
 21
-103.837
  0
LINE
  8
0
 10
101.897
 11
102.269
 20
-103.837
 21
-103.448
  0
LINE
  8
0
 10
102.269
 11
102.605
 20
-103.448
 21
-103.027
  0
LINE
  8
0
 10
102.605
 11
102.901
 20
-103.027
 21
-102.578
  0
LINE
  8
0
 10
102.901
 11
103.156
 20
-102.578
 21
-102.104
  0
LINE
  8
0
 10
103.156
 11
103.368
 20
-102.104
 21
-101.608
  0
LINE
  8
0
 10
103.368
 11
103.534
 20
-101.608
 21
-101.096
  0
LINE
  8
0
 10
103.534
 11
103.654
 20
-101.096
 21
-100.571
  0
LINE
  8
0
 10
103.654
 11
103.726
 20
-100.571
 21
-100.038
  0
LINE
  8
0
 10
103.726
 11
103.751
 20
-100.038
 21
-99.5
  0
LINE
  8
0
 10
103.751
 11
103.726
 20
-99.5
 21
-98.9621
  0
LINE
  8
0
 10
103.726
 11
103.654
 20
-98.9621
 21
-98.4286
  0
LINE
  8
0
 10
103.654
 11
103.534
 20
-98.4286
 21
-97.9036
  0
LINE
  8
0
 10
103.534
 11
103.368
 20
-97.9036
 21
-97.3916
  0
LINE
  8
0
 10
103.368
 11
103.156
 20
-97.3916
 21
-96.8965
  0
LINE
  8
0
 10
103.156
 11
102.901
 20
-96.8965
 21
-96.4223
  0
LINE
  8
0
 10
102.901
 11
102.605
 20
-96.4223
 21
-95.973
  0
LINE
  8
0
 10
102.605
 11
102.269
 20
-95.973
 21
-95.552
  0
LINE
  8
0
 10
102.269
 11
101.897
 20
-95.552
 21
-95.1629
  0
LINE
  8
0
 10
101.897
 11
101.491
 20
-95.1629
 21
-94.8086
  0
LINE
  8
0
 10
101.491
 11
101.056
 20
-94.8086
 21
-94.4921
  0
LINE
  8
0
 10
101.056
 11
100.61
 20
-94.4921
 21
-94.2257
  0
LINE
  8
0
 10
100.61
 11
80.7153
 20
-94.2257
 21
-82.7145
  0
LINE
  8
0
 10
80.7153
 11
80.2334
 20
-82.7145
 21
-82.4824
  0
LINE
  8
0
 10
80.2334
 11
79.7292
 20
-82.4824
 21
-82.2932
  0
LINE
  8
0
 10
79.7292
 11
79.2102
 20
-82.2932
 21
-82.1499
  0
LINE
  8
0
 10
79.2102
 11
78.6805
 20
-82.1499
 21
-82.0538
  0
LINE
  8
0
 10
78.6805
 11
78.1442
 20
-82.0538
 21
-82.0055
  0
LINE
  8
0
 10
78.1442
 11
77.6058
 20
-82.0055
 21
-82.0055
  0
LINE
  8
0
 10
77.6058
 11
77.0695
 20
-82.0055
 21
-82.0538
  0
LINE
  8
0
 10
77.0695
 11
76.5397
 20
-82.0538
 21
-82.1499
  0
LINE
  8
0
 10
76.5397
 11
76.0207
 20
-82.1499
 21
-82.2932
  0
LINE
  8
0
 10
76.0207
 11
75.5166
 20
-82.2932
 21
-82.4824
  0
LINE
  8
0
 10
75.5166
 11
75.0347
 20
-82.4824
 21
-82.7145
  0
LINE
  8
0
 10
75.0347
 11
55.1403
 20
-82.7145
 21
-94.2257
  0
LINE
  8
0
 10
55.1403
 11
54.6943
 20
-94.2257
 21
-94.4921
  0
LINE
  8
0
 10
54.6943
 11
54.2587
 20
-94.4921
 21
-94.8086
  0
LINE
  8
0
 10
54.2587
 11
53.8533
 20
-94.8086
 21
-95.1629
  0
LINE
  8
0
 10
53.8533
 11
53.4812
 20
-95.1629
 21
-95.552
  0
LINE
  8
0
 10
53.4812
 11
53.1455
 20
-95.552
 21
-95.973
  0
LINE
  8
0
 10
53.1455
 11
52.8489
 20
-95.973
 21
-96.4223
  0
LINE
  8
0
 10
52.8489
 11
52.5937
 20
-96.4223
 21
-96.8965
  0
LINE
  8
0
 10
52.5937
 11
52.3821
 20
-96.8965
 21
-97.3916
  0
LINE
  8
0
 10
52.3821
 11
52.2157
 20
-97.3916
 21
-97.9036
  0
LINE
  8
0
 10
52.2157
 11
52.0959
 20
-97.9036
 21
-98.4286
  0
LINE
  8
0
 10
52.0959
 11
52.0237
 20
-98.4286
 21
-98.9621
  0
LINE
  8
0
 10
52.0237
 11
51.9995
 20
-98.9621
 21
-99.5
  0
LINE
  8
0
 10
51.9995
 11
52.0237
 20
-99.5
 21
-100.038
  0
LINE
  8
0
 10
52.0237
 11
52.0959
 20
-100.038
 21
-100.571
  0
LINE
  8
0
 10
52.0959
 11
52.2157
 20
-100.571
 21
-101.096
  0
LINE
  8
0
 10
52.2157
 11
52.3821
 20
-101.096
 21
-101.608
  0
LINE
  8
0
 10
52.3821
 11
52.5937
 20
-101.608
 21
-102.104
  0
LINE
  8
0
 10
52.5937
 11
52.8489
 20
-102.104
 21
-102.578
  0
LINE
  8
0
 10
52.8489
 11
53.1455
 20
-102.578
 21
-103.027
  0
LINE
  8
0
 10
53.1455
 11
53.4812
 20
-103.027
 21
-103.448
  0
LINE
  8
0
 10
53.4812
 11
53.8533
 20
-103.448
 21
-103.837
  0
LINE
  8
0
 10
53.8533
 11
54.2587
 20
-103.837
 21
-104.191
  0
LINE
  8
0
 10
54.2587
 11
54.6943
 20
-104.191
 21
-104.508
  0
LINE
  8
0
 10
54.6943
 11
55.1565
 20
-104.508
 21
-104.784
  0
LINE
  8
0
 10
55.1565
 11
55.6416
 20
-104.784
 21
-105.018
  0
LINE
  8
0
 10
55.6416
 11
56.1457
 20
-105.018
 21
-105.207
  0
LINE
  8
0
 10
56.1457
 11
56.6647
 20
-105.207
 21
-105.35
  0
LINE
  8
0
 10
56.6647
 11
57.1945
 20
-105.35
 21
-105.446
  0
LINE
  8
0
 10
57.1945
 11
57.7308
 20
-105.446
 21
-105.494
  0
LINE
  8
0
 10
57.7308
 11
63.5
 20
-105.494
 21
-105.494
  0
LINE
  8
0
 10
63.5
 11
63.5
 20
-105.494
 21
-105.5
  0
LINE
  8
0
 10
63.5
 11
92.25
 20
-105.5
 21
-105.5
  0
LINE
  8
0
 10
92.25
 11
92.25
 20
-105.5
 21
-105.494
  0
LINE
  8
0
 10
77.5293
 11
77.2072
 20
-89.2902
 21
-89.1567
  0
LINE
  8
0
 10
77.2072
 11
76.9305
 20
-89.1567
 21
-88.9445
  0
LINE
  8
0
 10
76.9305
 11
76.7183
 20
-88.9445
 21
-88.6678
  0
LINE
  8
0
 10
76.7183
 11
76.5848
 20
-88.6678
 21
-88.3457
  0
LINE
  8
0
 10
76.5848
 11
76.5393
 20
-88.3457
 21
-88
  0
LINE
  8
0
 10
76.5393
 11
76.5848
 20
-88
 21
-87.6543
  0
LINE
  8
0
 10
76.5848
 11
76.7183
 20
-87.6543
 21
-87.3321
  0
LINE
  8
0
 10
76.7183
 11
76.9305
 20
-87.3321
 21
-87.0555
  0
LINE
  8
0
 10
76.9305
 11
77.2072
 20
-87.0555
 21
-86.8433
  0
LINE
  8
0
 10
77.2072
 11
77.5293
 20
-86.8433
 21
-86.7098
  0
LINE
  8
0
 10
77.5293
 11
77.875
 20
-86.7098
 21
-86.6643
  0
LINE
  8
0
 10
77.875
 11
78.2207
 20
-86.6643
 21
-86.7098
  0
LINE
  8
0
 10
78.2207
 11
78.5428
 20
-86.7098
 21
-86.8433
  0
LINE
  8
0
 10
78.5428
 11
78.8195
 20
-86.8433
 21
-87.0555
  0
LINE
  8
0
 10
78.8195
 11
79.0317
 20
-87.0555
 21
-87.3321
  0
LINE
  8
0
 10
79.0317
 11
79.1652
 20
-87.3321
 21
-87.6543
  0
LINE
  8
0
 10
79.1652
 11
79.2107
 20
-87.6543
 21
-88
  0
LINE
  8
0
 10
79.2107
 11
79.1652
 20
-88
 21
-88.3457
  0
LINE
  8
0
 10
79.1652
 11
79.0317
 20
-88.3457
 21
-88.6678
  0
LINE
  8
0
 10
79.0317
 11
78.8195
 20
-88.6678
 21
-88.9445
  0
LINE
  8
0
 10
78.8195
 11
78.5428
 20
-88.9445
 21
-89.1567
  0
LINE
  8
0
 10
78.5428
 11
78.2207
 20
-89.1567
 21
-89.2902
  0
LINE
  8
0
 10
78.2207
 11
77.875
 20
-89.2902
 21
-89.3357
  0
LINE
  8
0
 10
77.875
 11
77.5293
 20
-89.3357
 21
-89.2902
  0
LINE
  8
0
 10
57.6543
 11
57.3322
 20
-100.79
 21
-100.657
  0
LINE
  8
0
 10
57.3322
 11
57.0555
 20
-100.657
 21
-100.444
  0
LINE
  8
0
 10
57.0555
 11
56.8433
 20
-100.444
 21
-100.168
  0
LINE
  8
0
 10
56.8433
 11
56.7098
 20
-100.168
 21
-99.8457
  0
LINE
  8
0
 10
56.7098
 11
56.6643
 20
-99.8457
 21
-99.5
  0
LINE
  8
0
 10
56.6643
 11
56.7098
 20
-99.5
 21
-99.1543
  0
LINE
  8
0
 10
56.7098
 11
56.8433
 20
-99.1543
 21
-98.8321
  0
LINE
  8
0
 10
56.8433
 11
57.0555
 20
-98.8321
 21
-98.5555
  0
LINE
  8
0
 10
57.0555
 11
57.3322
 20
-98.5555
 21
-98.3433
  0
LINE
  8
0
 10
57.3322
 11
57.6543
 20
-98.3433
 21
-98.2098
  0
LINE
  8
0
 10
57.6543
 11
58
 20
-98.2098
 21
-98.1643
  0
LINE
  8
0
 10
58
 11
58.3457
 20
-98.1643
 21
-98.2098
  0
LINE
  8
0
 10
58.3457
 11
58.6678
 20
-98.2098
 21
-98.3433
  0
LINE
  8
0
 10
58.6678
 11
58.9445
 20
-98.3433
 21
-98.5555
  0
LINE
  8
0
 10
58.9445
 11
59.1567
 20
-98.5555
 21
-98.8321
  0
LINE
  8
0
 10
59.1567
 11
59.2902
 20
-98.8321
 21
-99.1543
  0
LINE
  8
0
 10
59.2902
 11
59.3357
 20
-99.1543
 21
-99.5
  0
LINE
  8
0
 10
59.3357
 11
59.2902
 20
-99.5
 21
-99.8457
  0
LINE
  8
0
 10
59.2902
 11
59.1567
 20
-99.8457
 21
-100.168
  0
LINE
  8
0
 10
59.1567
 11
58.9445
 20
-100.168
 21
-100.444
  0
LINE
  8
0
 10
58.9445
 11
58.6678
 20
-100.444
 21
-100.657
  0
LINE
  8
0
 10
58.6678
 11
58.3457
 20
-100.657
 21
-100.79
  0
LINE
  8
0
 10
58.3457
 11
58
 20
-100.79
 21
-100.836
  0
LINE
  8
0
 10
58
 11
57.6543
 20
-100.836
 21
-100.79
  0
LINE
  8
0
 10
97.4043
 11
97.0822
 20
-100.79
 21
-100.657
  0
LINE
  8
0
 10
97.0822
 11
96.8055
 20
-100.657
 21
-100.444
  0
LINE
  8
0
 10
96.8055
 11
96.5933
 20
-100.444
 21
-100.168
  0
LINE
  8
0
 10
96.5933
 11
96.4598
 20
-100.168
 21
-99.8457
  0
LINE
  8
0
 10
96.4598
 11
96.4143
 20
-99.8457
 21
-99.5
  0
LINE
  8
0
 10
96.4143
 11
96.4598
 20
-99.5
 21
-99.1543
  0
LINE
  8
0
 10
96.4598
 11
96.5933
 20
-99.1543
 21
-98.8321
  0
LINE
  8
0
 10
96.5933
 11
96.8055
 20
-98.8321
 21
-98.5555
  0
LINE
  8
0
 10
96.8055
 11
97.0822
 20
-98.5555
 21
-98.3433
  0
LINE
  8
0
 10
97.0822
 11
97.4043
 20
-98.3433
 21
-98.2098
  0
LINE
  8
0
 10
97.4043
 11
97.75
 20
-98.2098
 21
-98.1643
  0
LINE
  8
0
 10
97.75
 11
98.0957
 20
-98.1643
 21
-98.2098
  0
LINE
  8
0
 10
98.0957
 11
98.4178
 20
-98.2098
 21
-98.3433
  0
LINE
  8
0
 10
98.4178
 11
98.6945
 20
-98.3433
 21
-98.5555
  0
LINE
  8
0
 10
98.6945
 11
98.9067
 20
-98.5555
 21
-98.8321
  0
LINE
  8
0
 10
98.9067
 11
99.0402
 20
-98.8321
 21
-99.1543
  0
LINE
  8
0
 10
99.0402
 11
99.0857
 20
-99.1543
 21
-99.5
  0
LINE
  8
0
 10
99.0857
 11
99.0402
 20
-99.5
 21
-99.8457
  0
LINE
  8
0
 10
99.0402
 11
98.9067
 20
-99.8457
 21
-100.168
  0
LINE
  8
0
 10
98.9067
 11
98.6945
 20
-100.168
 21
-100.444
  0
LINE
  8
0
 10
98.6945
 11
98.4178
 20
-100.444
 21
-100.657
  0
LINE
  8
0
 10
98.4178
 11
98.0957
 20
-100.657
 21
-100.79
  0
LINE
  8
0
 10
98.0957
 11
97.75
 20
-100.79
 21
-100.836
  0
LINE
  8
0
 10
97.75
 11
97.4043
 20
-100.836
 21
-100.79
  0
LINE
  8
0
 10
-63.5
 11
-57.7308
 20
-105.494
 21
-105.494
  0
LINE
  8
0
 10
-57.7308
 11
-57.1945
 20
-105.494
 21
-105.446
  0
LINE
  8
0
 10
-57.1945
 11
-56.6647
 20
-105.446
 21
-105.35
  0
LINE
  8
0
 10
-56.6647
 11
-56.1457
 20
-105.35
 21
-105.207
  0
LINE
  8
0
 10
-56.1457
 11
-55.6416
 20
-105.207
 21
-105.018
  0
LINE
  8
0
 10
-55.6416
 11
-55.1565
 20
-105.018
 21
-104.784
  0
LINE
  8
0
 10
-55.1565
 11
-54.6943
 20
-104.784
 21
-104.508
  0
LINE
  8
0
 10
-54.6943
 11
-54.2587
 20
-104.508
 21
-104.191
  0
LINE
  8
0
 10
-54.2587
 11
-53.8533
 20
-104.191
 21
-103.837
  0
LINE
  8
0
 10
-53.8533
 11
-53.4812
 20
-103.837
 21
-103.448
  0
LINE
  8
0
 10
-53.4812
 11
-53.1455
 20
-103.448
 21
-103.027
  0
LINE
  8
0
 10
-53.1455
 11
-52.8489
 20
-103.027
 21
-102.578
  0
LINE
  8
0
 10
-52.8489
 11
-52.5937
 20
-102.578
 21
-102.104
  0
LINE
  8
0
 10
-52.5937
 11
-52.3821
 20
-102.104
 21
-101.608
  0
LINE
  8
0
 10
-52.3821
 11
-52.2157
 20
-101.608
 21
-101.096
  0
LINE
  8
0
 10
-52.2157
 11
-52.0959
 20
-101.096
 21
-100.571
  0
LINE
  8
0
 10
-52.0959
 11
-52.0237
 20
-100.571
 21
-100.038
  0
LINE
  8
0
 10
-52.0237
 11
-51.9995
 20
-100.038
 21
-99.5
  0
LINE
  8
0
 10
-51.9995
 11
-52.0237
 20
-99.5
 21
-98.9621
  0
LINE
  8
0
 10
-52.0237
 11
-52.0959
 20
-98.9621
 21
-98.4286
  0
LINE
  8
0
 10
-52.0959
 11
-52.2157
 20
-98.4286
 21
-97.9036
  0
LINE
  8
0
 10
-52.2157
 11
-52.3821
 20
-97.9036
 21
-97.3916
  0
LINE
  8
0
 10
-52.3821
 11
-52.5937
 20
-97.3916
 21
-96.8965
  0
LINE
  8
0
 10
-52.5937
 11
-52.8489
 20
-96.8965
 21
-96.4223
  0
LINE
  8
0
 10
-52.8489
 11
-53.1455
 20
-96.4223
 21
-95.973
  0
LINE
  8
0
 10
-53.1455
 11
-53.4812
 20
-95.973
 21
-95.552
  0
LINE
  8
0
 10
-53.4812
 11
-53.8533
 20
-95.552
 21
-95.1629
  0
LINE
  8
0
 10
-53.8533
 11
-54.2587
 20
-95.1629
 21
-94.8086
  0
LINE
  8
0
 10
-54.2587
 11
-54.6943
 20
-94.8086
 21
-94.4921
  0
LINE
  8
0
 10
-54.6943
 11
-55.1403
 20
-94.4921
 21
-94.2257
  0
LINE
  8
0
 10
-55.1403
 11
-75.0347
 20
-94.2257
 21
-82.7145
  0
LINE
  8
0
 10
-75.0347
 11
-75.5166
 20
-82.7145
 21
-82.4824
  0
LINE
  8
0
 10
-75.5166
 11
-76.0207
 20
-82.4824
 21
-82.2932
  0
LINE
  8
0
 10
-76.0207
 11
-76.5397
 20
-82.2932
 21
-82.1499
  0
LINE
  8
0
 10
-76.5397
 11
-77.0695
 20
-82.1499
 21
-82.0538
  0
LINE
  8
0
 10
-77.0695
 11
-77.6058
 20
-82.0538
 21
-82.0055
  0
LINE
  8
0
 10
-77.6058
 11
-78.1442
 20
-82.0055
 21
-82.0055
  0
LINE
  8
0
 10
-78.1442
 11
-78.6805
 20
-82.0055
 21
-82.0538
  0
LINE
  8
0
 10
-78.6805
 11
-79.2102
 20
-82.0538
 21
-82.1499
  0
LINE
  8
0
 10
-79.2102
 11
-79.7292
 20
-82.1499
 21
-82.2932
  0
LINE
  8
0
 10
-79.7292
 11
-80.2334
 20
-82.2932
 21
-82.4824
  0
LINE
  8
0
 10
-80.2334
 11
-80.7153
 20
-82.4824
 21
-82.7145
  0
LINE
  8
0
 10
-80.7153
 11
-100.61
 20
-82.7145
 21
-94.2257
  0
LINE
  8
0
 10
-100.61
 11
-101.056
 20
-94.2257
 21
-94.4921
  0
LINE
  8
0
 10
-101.056
 11
-101.491
 20
-94.4921
 21
-94.8086
  0
LINE
  8
0
 10
-101.491
 11
-101.897
 20
-94.8086
 21
-95.1629
  0
LINE
  8
0
 10
-101.897
 11
-102.269
 20
-95.1629
 21
-95.552
  0
LINE
  8
0
 10
-102.269
 11
-102.605
 20
-95.552
 21
-95.973
  0
LINE
  8
0
 10
-102.605
 11
-102.901
 20
-95.973
 21
-96.4223
  0
LINE
  8
0
 10
-102.901
 11
-103.156
 20
-96.4223
 21
-96.8965
  0
LINE
  8
0
 10
-103.156
 11
-103.368
 20
-96.8965
 21
-97.3916
  0
LINE
  8
0
 10
-103.368
 11
-103.534
 20
-97.3916
 21
-97.9036
  0
LINE
  8
0
 10
-103.534
 11
-103.654
 20
-97.9036
 21
-98.4286
  0
LINE
  8
0
 10
-103.654
 11
-103.726
 20
-98.4286
 21
-98.9621
  0
LINE
  8
0
 10
-103.726
 11
-103.751
 20
-98.9621
 21
-99.5
  0
LINE
  8
0
 10
-103.751
 11
-103.726
 20
-99.5
 21
-100.038
  0
LINE
  8
0
 10
-103.726
 11
-103.654
 20
-100.038
 21
-100.571
  0
LINE
  8
0
 10
-103.654
 11
-103.534
 20
-100.571
 21
-101.096
  0
LINE
  8
0
 10
-103.534
 11
-103.368
 20
-101.096
 21
-101.608
  0
LINE
  8
0
 10
-103.368
 11
-103.156
 20
-101.608
 21
-102.104
  0
LINE
  8
0
 10
-103.156
 11
-102.901
 20
-102.104
 21
-102.578
  0
LINE
  8
0
 10
-102.901
 11
-102.605
 20
-102.578
 21
-103.027
  0
LINE
  8
0
 10
-102.605
 11
-102.269
 20
-103.027
 21
-103.448
  0
LINE
  8
0
 10
-102.269
 11
-101.897
 20
-103.448
 21
-103.837
  0
LINE
  8
0
 10
-101.897
 11
-101.491
 20
-103.837
 21
-104.191
  0
LINE
  8
0
 10
-101.491
 11
-101.056
 20
-104.191
 21
-104.508
  0
LINE
  8
0
 10
-101.056
 11
-100.593
 20
-104.508
 21
-104.784
  0
LINE
  8
0
 10
-100.593
 11
-100.108
 20
-104.784
 21
-105.018
  0
LINE
  8
0
 10
-100.108
 11
-99.6042
 20
-105.018
 21
-105.207
  0
LINE
  8
0
 10
-99.6042
 11
-99.0852
 20
-105.207
 21
-105.35
  0
LINE
  8
0
 10
-99.0852
 11
-98.5555
 20
-105.35
 21
-105.446
  0
LINE
  8
0
 10
-98.5555
 11
-98.0192
 20
-105.446
 21
-105.494
  0
LINE
  8
0
 10
-98.0192
 11
-92.25
 20
-105.494
 21
-105.494
  0
LINE
  8
0
 10
-92.25
 11
-92.25
 20
-105.494
 21
-105.5
  0
LINE
  8
0
 10
-92.25
 11
-63.5
 20
-105.5
 21
-105.5
  0
LINE
  8
0
 10
-63.5
 11
-63.5
 20
-105.5
 21
-105.494
  0
LINE
  8
0
 10
-78.2207
 11
-78.5428
 20
-89.2902
 21
-89.1567
  0
LINE
  8
0
 10
-78.5428
 11
-78.8195
 20
-89.1567
 21
-88.9445
  0
LINE
  8
0
 10
-78.8195
 11
-79.0317
 20
-88.9445
 21
-88.6678
  0
LINE
  8
0
 10
-79.0317
 11
-79.1652
 20
-88.6678
 21
-88.3457
  0
LINE
  8
0
 10
-79.1652
 11
-79.2107
 20
-88.3457
 21
-88
  0
LINE
  8
0
 10
-79.2107
 11
-79.1652
 20
-88
 21
-87.6543
  0
LINE
  8
0
 10
-79.1652
 11
-79.0317
 20
-87.6543
 21
-87.3321
  0
LINE
  8
0
 10
-79.0317
 11
-78.8195
 20
-87.3321
 21
-87.0555
  0
LINE
  8
0
 10
-78.8195
 11
-78.5428
 20
-87.0555
 21
-86.8433
  0
LINE
  8
0
 10
-78.5428
 11
-78.2207
 20
-86.8433
 21
-86.7098
  0
LINE
  8
0
 10
-78.2207
 11
-77.875
 20
-86.7098
 21
-86.6643
  0
LINE
  8
0
 10
-77.875
 11
-77.5293
 20
-86.6643
 21
-86.7098
  0
LINE
  8
0
 10
-77.5293
 11
-77.2072
 20
-86.7098
 21
-86.8433
  0
LINE
  8
0
 10
-77.2072
 11
-76.9305
 20
-86.8433
 21
-87.0555
  0
LINE
  8
0
 10
-76.9305
 11
-76.7183
 20
-87.0555
 21
-87.3321
  0
LINE
  8
0
 10
-76.7183
 11
-76.5848
 20
-87.3321
 21
-87.6543
  0
LINE
  8
0
 10
-76.5848
 11
-76.5393
 20
-87.6543
 21
-88
  0
LINE
  8
0
 10
-76.5393
 11
-76.5848
 20
-88
 21
-88.3457
  0
LINE
  8
0
 10
-76.5848
 11
-76.7183
 20
-88.3457
 21
-88.6678
  0
LINE
  8
0
 10
-76.7183
 11
-76.9305
 20
-88.6678
 21
-88.9445
  0
LINE
  8
0
 10
-76.9305
 11
-77.2072
 20
-88.9445
 21
-89.1567
  0
LINE
  8
0
 10
-77.2072
 11
-77.5293
 20
-89.1567
 21
-89.2902
  0
LINE
  8
0
 10
-77.5293
 11
-77.875
 20
-89.2902
 21
-89.3357
  0
LINE
  8
0
 10
-77.875
 11
-78.2207
 20
-89.3357
 21
-89.2902
  0
LINE
  8
0
 10
-98.0957
 11
-98.4178
 20
-100.79
 21
-100.657
  0
LINE
  8
0
 10
-98.4178
 11
-98.6945
 20
-100.657
 21
-100.444
  0
LINE
  8
0
 10
-98.6945
 11
-98.9067
 20
-100.444
 21
-100.168
  0
LINE
  8
0
 10
-98.9067
 11
-99.0402
 20
-100.168
 21
-99.8457
  0
LINE
  8
0
 10
-99.0402
 11
-99.0857
 20
-99.8457
 21
-99.5
  0
LINE
  8
0
 10
-99.0857
 11
-99.0402
 20
-99.5
 21
-99.1543
  0
LINE
  8
0
 10
-99.0402
 11
-98.9067
 20
-99.1543
 21
-98.8321
  0
LINE
  8
0
 10
-98.9067
 11
-98.6945
 20
-98.8321
 21
-98.5555
  0
LINE
  8
0
 10
-98.6945
 11
-98.4178
 20
-98.5555
 21
-98.3433
  0
LINE
  8
0
 10
-98.4178
 11
-98.0957
 20
-98.3433
 21
-98.2098
  0
LINE
  8
0
 10
-98.0957
 11
-97.75
 20
-98.2098
 21
-98.1643
  0
LINE
  8
0
 10
-97.75
 11
-97.4043
 20
-98.1643
 21
-98.2098
  0
LINE
  8
0
 10
-97.4043
 11
-97.0822
 20
-98.2098
 21
-98.3433
  0
LINE
  8
0
 10
-97.0822
 11
-96.8055
 20
-98.3433
 21
-98.5555
  0
LINE
  8
0
 10
-96.8055
 11
-96.5933
 20
-98.5555
 21
-98.8321
  0
LINE
  8
0
 10
-96.5933
 11
-96.4598
 20
-98.8321
 21
-99.1543
  0
LINE
  8
0
 10
-96.4598
 11
-96.4143
 20
-99.1543
 21
-99.5
  0
LINE
  8
0
 10
-96.4143
 11
-96.4598
 20
-99.5
 21
-99.8457
  0
LINE
  8
0
 10
-96.4598
 11
-96.5933
 20
-99.8457
 21
-100.168
  0
LINE
  8
0
 10
-96.5933
 11
-96.8055
 20
-100.168
 21
-100.444
  0
LINE
  8
0
 10
-96.8055
 11
-97.0822
 20
-100.444
 21
-100.657
  0
LINE
  8
0
 10
-97.0822
 11
-97.4043
 20
-100.657
 21
-100.79
  0
LINE
  8
0
 10
-97.4043
 11
-97.75
 20
-100.79
 21
-100.836
  0
LINE
  8
0
 10
-97.75
 11
-98.0957
 20
-100.836
 21
-100.79
  0
LINE
  8
0
 10
-58.3457
 11
-58.6678
 20
-100.79
 21
-100.657
  0
LINE
  8
0
 10
-58.6678
 11
-58.9445
 20
-100.657
 21
-100.444
  0
LINE
  8
0
 10
-58.9445
 11
-59.1567
 20
-100.444
 21
-100.168
  0
LINE
  8
0
 10
-59.1567
 11
-59.2902
 20
-100.168
 21
-99.8457
  0
LINE
  8
0
 10
-59.2902
 11
-59.3357
 20
-99.8457
 21
-99.5
  0
LINE
  8
0
 10
-59.3357
 11
-59.2902
 20
-99.5
 21
-99.1543
  0
LINE
  8
0
 10
-59.2902
 11
-59.1567
 20
-99.1543
 21
-98.8321
  0
LINE
  8
0
 10
-59.1567
 11
-58.9445
 20
-98.8321
 21
-98.5555
  0
LINE
  8
0
 10
-58.9445
 11
-58.6678
 20
-98.5555
 21
-98.3433
  0
LINE
  8
0
 10
-58.6678
 11
-58.3457
 20
-98.3433
 21
-98.2098
  0
LINE
  8
0
 10
-58.3457
 11
-58
 20
-98.2098
 21
-98.1643
  0
LINE
  8
0
 10
-58
 11
-57.6543
 20
-98.1643
 21
-98.2098
  0
LINE
  8
0
 10
-57.6543
 11
-57.3322
 20
-98.2098
 21
-98.3433
  0
LINE
  8
0
 10
-57.3322
 11
-57.0555
 20
-98.3433
 21
-98.5555
  0
LINE
  8
0
 10
-57.0555
 11
-56.8433
 20
-98.5555
 21
-98.8321
  0
LINE
  8
0
 10
-56.8433
 11
-56.7098
 20
-98.8321
 21
-99.1543
  0
LINE
  8
0
 10
-56.7098
 11
-56.6643
 20
-99.1543
 21
-99.5
  0
LINE
  8
0
 10
-56.6643
 11
-56.7098
 20
-99.5
 21
-99.8457
  0
LINE
  8
0
 10
-56.7098
 11
-56.8433
 20
-99.8457
 21
-100.168
  0
LINE
  8
0
 10
-56.8433
 11
-57.0555
 20
-100.168
 21
-100.444
  0
LINE
  8
0
 10
-57.0555
 11
-57.3322
 20
-100.444
 21
-100.657
  0
LINE
  8
0
 10
-57.3322
 11
-57.6543
 20
-100.657
 21
-100.79
  0
LINE
  8
0
 10
-57.6543
 11
-58
 20
-100.79
 21
-100.836
  0
LINE
  8
0
 10
-58
 11
-58.3457
 20
-100.836
 21
-100.79
  0
ENDSEC
  0
SECTION
  2
OBJECTS
  0
DICTIONARY
  0
ENDSEC
  0
EOF
