  0
SECTION
  2
HEADER
  9
$ACADVER
  1
AC1014
  9
$HANDSEED
  5
FFFF
  9
$MEASUREMENT
 70
     1
  0
ENDSEC
  0
SECTION
  2
TABLES
  0
TABLE
  2
VPORT
  5
8
330
0
100
AcDbSymbolTable
 70
     4
  0
VPORT
  5
2E
330
8
100
AcDbSymbolTableRecord
100
AcDbViewportTableRecord
  2
*ACTIVE
 70
     0
 10
0.0
 20
0.0
 11
1.0
 21
1.0
 12
210.0
 22
148.5
 13
0.0
 23
0.0
 14
10.0
 24
10.0
 15
10.0
 25
10.0
 16
0.0
 26
0.0
 36
1.0
 17
0.0
 27
0.0
 37
0.0
 40
341.0
 41
1.24
 42
50.0
 43
0.0
 44
0.0
 50
0.0
 51
0.0
 71
     0
 72
   100
 73
     1
 74
     3
 75
     0
 76
     0
 77
     0
 78
     0
  0
ENDTAB
  0
TABLE
  2
LTYPE
  5
5
330
0
100
AcDbSymbolTable
 70
     1
  0
LTYPE
  5
14
330
5
100
AcDbSymbolTableRecord
100
AcDbLinetypeTableRecord
  2
BYBLOCK
 70
     0
  3

 72
    65
 73
     0
 40
0.0
  0
LTYPE
  5
15
330
5
100
AcDbSymbolTableRecord
100
AcDbLinetypeTableRecord
  2
BYLAYER
 70
     0
  3

 72
    65
 73
     0
 40
0.0
  0
LTYPE
  5
16
330
5
100
AcDbSymbolTableRecord
100
AcDbLinetypeTableRecord
  2
CONTINUOUS
 70
     0
  3
Solid line
 72
    65
 73
     0
 40
0.0
  0
ENDTAB
  0
TABLE
  2
LAYER
  5
2
100
AcDbSymbolTable
 70
1
  0
LAYER
  5
50
100
AcDbSymbolTableRecord
100
AcDbLayerTableRecord
  2
0
 70
0
  6
CONTINUOUS
  0
ENDTAB
  0
TABLE
  2
STYLE
  5
3
330
0
100
AcDbSymbolTable
 70
     1
  0
STYLE
  5
11
330
3
100
AcDbSymbolTableRecord
100
AcDbTextStyleTableRecord
  2
STANDARD
 70
     0
 40
0.0
 41
1.0
 50
0.0
 71
     0
 42
2.5
  3
txt
  4

  0
ENDTAB
  0
TABLE
  2
VIEW
  5
6
330
0
100
AcDbSymbolTable
 70
     0
  0
ENDTAB
  0
TABLE
  2
UCS
  5
7
330
0
100
AcDbSymbolTable
 70
     0
  0
ENDTAB
  0
TABLE
  2
APPID
  5
9
330
0
100
AcDbSymbolTable
 70
     2
  0
APPID
  5
12
330
9
100
AcDbSymbolTableRecord
100
AcDbRegAppTableRecord
  2
ACAD
 70
     0
  0
ENDTAB
  0
TABLE
  2
DIMSTYLE
  5
A
330
0
100
AcDbSymbolTable
 70
     1
  0
DIMSTYLE
105
27
330
A
100
AcDbSymbolTableRecord
100
AcDbDimStyleTableRecord
  2
ISO-25
 70
     0
  3

  4

  5

  6

  7

 40
1.0
 41
2.5
 42
0.625
 43
3.75
 44
1.25
 45
0.0
 46
0.0
 47
0.0
 48
0.0
140
2.5
141
2.5
142
0.0
143
0.03937007874016
144
1.0
145
0.0
146
1.0
147
0.625
 71
     0
 72
     0
 73
     0
 74
     0
 75
     0
 76
     0
 77
     1
 78
     8
170
     0
171
     3
172
     1
173
     0
174
     0
175
     0
176
     0
177
     0
178
     0
270
     2
271
     2
272
     2
273
     2
274
     3
340
11
275
     0
280
     0
281
     0
282
     0
283
     0
284
     8
285
     0
286
     0
287
     3
288
     0
  0
ENDTAB
  0
TABLE
  2
BLOCK_RECORD
  5
1
330
0
100
AcDbSymbolTable
 70
     1
  0
BLOCK_RECORD
  5
1F
330
1
100
AcDbSymbolTableRecord
100
AcDbBlockTableRecord
  2
*MODEL_SPACE
  0
BLOCK_RECORD
  5
1B
330
1
100
AcDbSymbolTableRecord
100
AcDbBlockTableRecord
  2
*PAPER_SPACE
  0
ENDTAB
  0
ENDSEC
  0
SECTION
  2
BLOCKS
  0
BLOCK
  5
20
330
1F
100
AcDbEntity
  8
0
100
AcDbBlockBegin
  2
*MODEL_SPACE
 70
     0
 10
0.0
 20
0.0
 30
0.0
  3
*MODEL_SPACE
  1

  0
ENDBLK
  5
21
330
1F
100
AcDbEntity
  8
0
100
AcDbBlockEnd
  0
BLOCK
  5
1C
330
1B
100
AcDbEntity
 67
     1
  8
0
100
AcDbBlockBegin
  2
*PAPER_SPACE
  1

  0
ENDBLK
  5
1D
330
1B
100
AcDbEntity
 67
     1
  8
0
100
AcDbBlockEnd
  0
ENDSEC
  0
SECTION
  2
ENTITIES
  0
LWPOLYLINE
  5
100
100
AcDbEntity
  8
0
 62
7
100
AcDbPolyline
 90
59
 70
0
 10
158.000000
 20
171.450000
 30
0.0
 10
149.550000
 20
171.300000
 30
0.0
 10
138.800000
 20
170.275000
 30
0.0
 10
128.025000
 20
168.625000
 30
0.0
 10
117.400000
 20
166.375000
 30
0.0
 10
107.100000
 20
163.575000
 30
0.0
 10
97.275000
 20
160.275000
 30
0.0
 10
88.100000
 20
156.550000
 30
0.0
 10
79.725000
 20
152.425000
 30
0.0
 10
72.325000
 20
147.950000
 30
0.0
 10
70.825000
 20
146.900000
 30
0.0
 10
66.400000
 20
145.050000
 30
0.0
 10
62.150000
 20
142.850000
 30
0.0
 10
58.100000
 20
140.350000
 30
0.0
 10
54.250000
 20
137.550000
 30
0.0
 10
47.225000
 20
131.150000
 30
0.0
 10
41.200000
 20
123.725000
 30
0.0
 10
38.625000
 20
119.700000
 30
0.0
 10
36.325000
 20
115.450000
 30
0.0
 10
34.350000
 20
111.025000
 30
0.0
 10
32.675000
 20
106.400000
 30
0.0
 10
31.375000
 20
101.650000
 30
0.0
 10
30.625000
 20
97.875000
 30
0.0
 10
76.775000
 20
97.875000
 30
0.0
 10
78.050000
 20
99.400000
 30
0.0
 10
80.800000
 20
101.700000
 30
0.0
 10
83.975000
 20
103.400000
 30
0.0
 10
87.475000
 20
104.500000
 30
0.0
 10
91.225000
 20
104.875000
 30
0.0
 10
94.975000
 20
104.500000
 30
0.0
 10
98.475000
 20
103.400000
 30
0.0
 10
101.650000
 20
101.700000
 30
0.0
 10
104.400000
 20
99.400000
 30
0.0
 10
105.675000
 20
97.875000
 30
0.0
 10
154.425000
 20
97.875000
 30
0.0
 10
154.075000
 20
100.125000
 30
0.0
 10
152.375000
 20
106.525000
 30
0.0
 10
150.050000
 20
112.650000
 30
0.0
 10
147.150000
 20
118.475000
 30
0.0
 10
143.725000
 20
123.925000
 30
0.0
 10
139.775000
 20
128.975000
 30
0.0
 10
135.375000
 20
133.600000
 30
0.0
 10
135.500000
 20
135.125000
 30
0.0
 10
136.050000
 20
139.875000
 30
0.0
 10
137.025000
 20
143.825000
 30
0.0
 10
138.500000
 20
147.325000
 30
0.0
 10
140.600000
 20
150.725000
 30
0.0
 10
143.650000
 20
154.150000
 30
0.0
 10
147.200000
 20
157.275000
 30
0.0
 10
153.175000
 20
160.875000
 30
0.0
 10
160.150000
 20
163.825000
 30
0.0
 10
168.350000
 20
166.250000
 30
0.0
 10
178.000000
 20
168.200000
 30
0.0
 10
179.875000
 20
168.575000
 30
0.0
 10
179.500000
 20
168.900000
 30
0.0
 10
173.600000
 20
170.325000
 30
0.0
 10
166.200000
 20
171.275000
 30
0.0
 10
158.000000
 20
171.450000
 30
0.0
 10
158.000000
 20
171.450000
 30
0.0
  0
LWPOLYLINE
  5
101
100
AcDbEntity
  8
0
 62
7
100
AcDbPolyline
 90
59
 70
0
 10
30.375000
 20
77.250000
 30
0.0
 10
31.050000
 20
72.925000
 30
0.0
 10
32.775000
 20
66.450000
 30
0.0
 10
35.125000
 20
60.275000
 30
0.0
 10
38.075000
 20
54.400000
 30
0.0
 10
41.575000
 20
48.925000
 30
0.0
 10
45.575000
 20
43.850000
 30
0.0
 10
50.050000
 20
39.200000
 30
0.0
 10
49.950000
 20
38.000000
 30
0.0
 10
49.400000
 20
33.250000
 30
0.0
 10
48.450000
 20
29.300000
 30
0.0
 10
46.975000
 20
25.800000
 30
0.0
 10
44.875000
 20
22.400000
 30
0.0
 10
41.825000
 20
18.975000
 30
0.0
 10
38.250000
 20
15.875000
 30
0.0
 10
32.275000
 20
12.275000
 30
0.0
 10
25.300000
 20
9.300000
 30
0.0
 10
17.100000
 20
6.875000
 30
0.0
 10
7.450000
 20
4.925000
 30
0.0
 10
5.575000
 20
4.550000
 30
0.0
 10
5.950000
 20
4.225000
 30
0.0
 10
11.850000
 20
2.800000
 30
0.0
 10
19.250000
 20
1.850000
 30
0.0
 10
35.900000
 20
1.850000
 30
0.0
 10
46.675000
 20
2.875000
 30
0.0
 10
57.450000
 20
4.525000
 30
0.0
 10
68.075000
 20
6.775000
 30
0.0
 10
78.375000
 20
9.575000
 30
0.0
 10
88.200000
 20
12.875000
 30
0.0
 10
97.375000
 20
16.600000
 30
0.0
 10
105.750000
 20
20.725000
 30
0.0
 10
113.150000
 20
25.200000
 30
0.0
 10
114.950000
 20
26.500000
 30
0.0
 10
119.300000
 20
28.400000
 30
0.0
 10
123.500000
 20
30.600000
 30
0.0
 10
131.275000
 20
35.925000
 30
0.0
 10
138.175000
 20
42.325000
 30
0.0
 10
144.100000
 20
49.700000
 30
0.0
 10
148.900000
 20
57.950000
 30
0.0
 10
150.850000
 20
62.350000
 30
0.0
 10
152.475000
 20
66.925000
 30
0.0
 10
153.775000
 20
71.625000
 30
0.0
 10
154.700000
 20
76.500000
 30
0.0
 10
154.775000
 20
77.250000
 30
0.0
 10
107.475000
 20
77.250000
 30
0.0
 10
106.700000
 20
75.800000
 30
0.0
 10
104.400000
 20
73.050000
 30
0.0
 10
101.650000
 20
70.775000
 30
0.0
 10
98.475000
 20
69.050000
 30
0.0
 10
94.975000
 20
67.975000
 30
0.0
 10
91.225000
 20
67.600000
 30
0.0
 10
87.475000
 20
67.975000
 30
0.0
 10
83.975000
 20
69.050000
 30
0.0
 10
80.800000
 20
70.775000
 30
0.0
 10
78.050000
 20
73.050000
 30
0.0
 10
75.750000
 20
75.800000
 30
0.0
 10
74.975000
 20
77.250000
 30
0.0
 10
30.375000
 20
77.250000
 30
0.0
 10
30.375000
 20
77.250000
 30
0.0
  0
ENDSEC
  0
SECTION
  2
OBJECTS
  0
DICTIONARY
  5
C
330
0
100
AcDbDictionary
  3
ACAD_GROUP
350
D
  3
ACAD_MLINESTYLE
350
17
  0
DICTIONARY
  5
D
330
C
100
AcDbDictionary
  0
DICTIONARY
  5
1A
330
C
100
AcDbDictionary
  0
DICTIONARY
  5
17
330
C
100
AcDbDictionary
  3
STANDARD
350
18
  0
DICTIONARY
  5
19
330
C
100
AcDbDictionary
  0
ENDSEC
  0
EOF
