solid OpenSCAD_Model
  facet normal 0 -1 2.22045e-016
    outer loop
      vertex -12.1532 -7.75 -1.07295
      vertex -12.3 -7.75 -2
      vertex -12.1532 -7.75 -2.92705
    endloop
  endfacet
  facet normal 0 -1 2.22045e-016
    outer loop
      vertex -11.0634 -7.75 -4.42705
      vertex -12.1532 -7.75 -1.07295
      vertex -11.7271 -7.75 -3.76336
    endloop
  endfacet
  facet normal 0 -1 2.22045e-016
    outer loop
      vertex -11.7271 -7.75 -3.76336
      vertex -12.1532 -7.75 -1.07295
      vertex -12.1532 -7.75 -2.92705
    endloop
  endfacet
  facet normal 0 -1 2.22045e-016
    outer loop
      vertex -10.2271 -7.75 -4.85317
      vertex -12.1532 -7.75 -1.07295
      vertex -11.0634 -7.75 -4.42705
    endloop
  endfacet
  facet normal 0 -1 2.22045e-016
    outer loop
      vertex -9.3 -7.75 -5
      vertex -12.1532 -7.75 -1.07295
      vertex -10.2271 -7.75 -4.85317
    endloop
  endfacet
  facet normal 0 -1 2.22045e-016
    outer loop
      vertex -10.5135 -7.75 -2.88168
      vertex -12.1532 -7.75 -1.07295
      vertex -9.3 -7.75 -5
    endloop
  endfacet
  facet normal 0 -1 2.22045e-016
    outer loop
      vertex -9.76352 -7.75 -3.42658
      vertex -10.1817 -7.75 -3.21352
      vertex -8.37295 -7.75 -4.85317
    endloop
  endfacet
  facet normal 0 -1 2.22045e-016
    outer loop
      vertex -7.87342 -7.75 -2.46352
      vertex -8.08648 -7.75 -2.88168
      vertex -6.44683 -7.75 -2.92705
    endloop
  endfacet
  facet normal 0 -1 2.22045e-016
    outer loop
      vertex -8.37295 -7.75 0.85317
      vertex -12.1532 -7.75 -1.07295
      vertex -7.53664 -7.75 0.427051
    endloop
  endfacet
  facet normal 0 -1 2.22045e-016
    outer loop
      vertex -9.3 -7.75 1
      vertex -12.1532 -7.75 -1.07295
      vertex -8.37295 -7.75 0.85317
    endloop
  endfacet
  facet normal 0 -1 2.22045e-016
    outer loop
      vertex -10.2271 -7.75 0.85317
      vertex -12.1532 -7.75 -1.07295
      vertex -9.3 -7.75 1
    endloop
  endfacet
  facet normal 0 -1 2.22045e-016
    outer loop
      vertex -11.0634 -7.75 0.427051
      vertex -12.1532 -7.75 -1.07295
      vertex -10.2271 -7.75 0.85317
    endloop
  endfacet
  facet normal 0 -1 2.22045e-016
    outer loop
      vertex -11.7271 -7.75 -0.236644
      vertex -12.1532 -7.75 -1.07295
      vertex -11.0634 -7.75 0.427051
    endloop
  endfacet
  facet normal 0 -1 2.22045e-016
    outer loop
      vertex -10.8 -7.75 -2
      vertex -10.7266 -7.75 -1.53647
      vertex -12.1532 -7.75 -1.07295
    endloop
  endfacet
  facet normal 0 -1 2.22045e-016
    outer loop
      vertex -8.83648 -7.75 -3.42658
      vertex -9.3 -7.75 -3.5
      vertex -7.53664 -7.75 -4.42705
    endloop
  endfacet
  facet normal 0 -1 2.22045e-016
    outer loop
      vertex -8.08648 -7.75 -2.88168
      vertex -8.41832 -7.75 -3.21352
      vertex -6.87295 -7.75 -3.76336
    endloop
  endfacet
  facet normal 0 -1 2.22045e-016
    outer loop
      vertex -10.1817 -7.75 -0.786475
      vertex -9.76352 -7.75 -0.573415
      vertex -12.1532 -7.75 -1.07295
    endloop
  endfacet
  facet normal 0 -1 2.22045e-016
    outer loop
      vertex -7.87342 -7.75 -1.53647
      vertex -7.8 -7.75 -2
      vertex -6.3 -7.75 -2
    endloop
  endfacet
  facet normal 0 -1 2.22045e-016
    outer loop
      vertex -8.41832 -7.75 -0.786475
      vertex -8.08648 -7.75 -1.11832
      vertex -6.44683 -7.75 -1.07295
    endloop
  endfacet
  facet normal 0 -1 2.22045e-016
    outer loop
      vertex -7.53664 -7.75 0.427051
      vertex -12.1532 -7.75 -1.07295
      vertex -9.76352 -7.75 -0.573415
    endloop
  endfacet
  facet normal 0 -1 2.22045e-016
    outer loop
      vertex -7.53664 -7.75 0.427051
      vertex -9.3 -7.75 -0.5
      vertex -6.87295 -7.75 -0.236644
    endloop
  endfacet
  facet normal 0 -1 2.22045e-016
    outer loop
      vertex -7.53664 -7.75 0.427051
      vertex -9.76352 -7.75 -0.573415
      vertex -9.3 -7.75 -0.5
    endloop
  endfacet
  facet normal 0 -1 2.22045e-016
    outer loop
      vertex -6.87295 -7.75 -0.236644
      vertex -8.83648 -7.75 -0.573415
      vertex -6.44683 -7.75 -1.07295
    endloop
  endfacet
  facet normal 0 -1 2.22045e-016
    outer loop
      vertex -8.83648 -7.75 -0.573415
      vertex -8.41832 -7.75 -0.786475
      vertex -6.44683 -7.75 -1.07295
    endloop
  endfacet
  facet normal 0 -1 2.22045e-016
    outer loop
      vertex -6.44683 -7.75 -1.07295
      vertex -8.08648 -7.75 -1.11832
      vertex -6.3 -7.75 -2
    endloop
  endfacet
  facet normal 0 -1 2.22045e-016
    outer loop
      vertex -8.08648 -7.75 -1.11832
      vertex -7.87342 -7.75 -1.53647
      vertex -6.3 -7.75 -2
    endloop
  endfacet
  facet normal 0 -1 2.22045e-016
    outer loop
      vertex -6.3 -7.75 -2
      vertex -7.8 -7.75 -2
      vertex -6.44683 -7.75 -2.92705
    endloop
  endfacet
  facet normal 0 -1 2.22045e-016
    outer loop
      vertex -9.3 -7.75 -0.5
      vertex -8.83648 -7.75 -0.573415
      vertex -6.87295 -7.75 -0.236644
    endloop
  endfacet
  facet normal 0 -1 2.22045e-016
    outer loop
      vertex -7.8 -7.75 -2
      vertex -7.87342 -7.75 -2.46352
      vertex -6.44683 -7.75 -2.92705
    endloop
  endfacet
  facet normal 0 -1 2.22045e-016
    outer loop
      vertex -6.44683 -7.75 -2.92705
      vertex -8.08648 -7.75 -2.88168
      vertex -6.87295 -7.75 -3.76336
    endloop
  endfacet
  facet normal 0 -1 2.22045e-016
    outer loop
      vertex -6.87295 -7.75 -3.76336
      vertex -8.41832 -7.75 -3.21352
      vertex -7.53664 -7.75 -4.42705
    endloop
  endfacet
  facet normal 0 -1 2.22045e-016
    outer loop
      vertex -8.41832 -7.75 -3.21352
      vertex -8.83648 -7.75 -3.42658
      vertex -7.53664 -7.75 -4.42705
    endloop
  endfacet
  facet normal 0 -1 2.22045e-016
    outer loop
      vertex -7.53664 -7.75 -4.42705
      vertex -9.3 -7.75 -3.5
      vertex -8.37295 -7.75 -4.85317
    endloop
  endfacet
  facet normal 0 -1 2.22045e-016
    outer loop
      vertex -9.3 -7.75 -3.5
      vertex -9.76352 -7.75 -3.42658
      vertex -8.37295 -7.75 -4.85317
    endloop
  endfacet
  facet normal 0 -1 2.22045e-016
    outer loop
      vertex -8.37295 -7.75 -4.85317
      vertex -10.1817 -7.75 -3.21352
      vertex -9.3 -7.75 -5
    endloop
  endfacet
  facet normal 0 -1 2.22045e-016
    outer loop
      vertex -10.7266 -7.75 -2.46352
      vertex -10.8 -7.75 -2
      vertex -12.1532 -7.75 -1.07295
    endloop
  endfacet
  facet normal 0 -1 2.22045e-016
    outer loop
      vertex -10.1817 -7.75 -3.21352
      vertex -10.5135 -7.75 -2.88168
      vertex -9.3 -7.75 -5
    endloop
  endfacet
  facet normal 0 -1 2.22045e-016
    outer loop
      vertex -10.5135 -7.75 -1.11832
      vertex -10.1817 -7.75 -0.786475
      vertex -12.1532 -7.75 -1.07295
    endloop
  endfacet
  facet normal 0 -1 2.22045e-016
    outer loop
      vertex -10.5135 -7.75 -2.88168
      vertex -10.7266 -7.75 -2.46352
      vertex -12.1532 -7.75 -1.07295
    endloop
  endfacet
  facet normal 0 -1 2.22045e-016
    outer loop
      vertex -10.7266 -7.75 -1.53647
      vertex -10.5135 -7.75 -1.11832
      vertex -12.1532 -7.75 -1.07295
    endloop
  endfacet
  facet normal -0.987688 -3.47353e-017 -0.156434
    outer loop
      vertex -12.3 -7.75 -2
      vertex -12.3 -1.25 -2
      vertex -12.1532 -7.75 -2.92705
    endloop
  endfacet
  facet normal -0.987688 -3.47353e-017 -0.156434
    outer loop
      vertex -12.1532 -7.75 -2.92705
      vertex -12.3 -1.25 -2
      vertex -12.1532 -1.25 -2.92705
    endloop
  endfacet
  facet normal -0.987688 3.47353e-017 0.156434
    outer loop
      vertex -12.3 -7.75 -2
      vertex -12.1532 -7.75 -1.07295
      vertex -12.3 -1.25 -2
    endloop
  endfacet
  facet normal -0.987688 3.47353e-017 0.156434
    outer loop
      vertex -12.3 -1.25 -2
      vertex -12.1532 -7.75 -1.07295
      vertex -12.1532 -1.25 -1.07295
    endloop
  endfacet
  facet normal -0.891006 1.00806e-016 0.453991
    outer loop
      vertex -12.1532 -7.75 -1.07295
      vertex -11.7271 -7.75 -0.236644
      vertex -12.1532 -1.25 -1.07295
    endloop
  endfacet
  facet normal -0.891006 1.00806e-016 0.453991
    outer loop
      vertex -12.1532 -1.25 -1.07295
      vertex -11.7271 -7.75 -0.236644
      vertex -11.7271 -1.25 -0.236644
    endloop
  endfacet
  facet normal -0.707107 1.57009e-016 0.707107
    outer loop
      vertex -11.7271 -7.75 -0.236644
      vertex -11.0634 -7.75 0.427051
      vertex -11.7271 -1.25 -0.236644
    endloop
  endfacet
  facet normal -0.707107 1.57009e-016 0.707107
    outer loop
      vertex -11.7271 -1.25 -0.236644
      vertex -11.0634 -7.75 0.427051
      vertex -11.0634 -1.25 0.427051
    endloop
  endfacet
  facet normal -0.453991 1.97843e-016 0.891006
    outer loop
      vertex -11.0634 -1.25 0.427051
      vertex -11.0634 -7.75 0.427051
      vertex -10.2271 -7.75 0.85317
    endloop
  endfacet
  facet normal -0.453991 1.97843e-016 0.891006
    outer loop
      vertex -10.2271 -1.25 0.85317
      vertex -11.0634 -1.25 0.427051
      vertex -10.2271 -7.75 0.85317
    endloop
  endfacet
  facet normal -0.156434 2.19311e-016 0.987688
    outer loop
      vertex -10.2271 -1.25 0.85317
      vertex -10.2271 -7.75 0.85317
      vertex -9.3 -7.75 1
    endloop
  endfacet
  facet normal -0.156434 2.19311e-016 0.987688
    outer loop
      vertex -9.3 -1.25 1
      vertex -10.2271 -1.25 0.85317
      vertex -9.3 -7.75 1
    endloop
  endfacet
  facet normal 0.156434 2.19311e-016 0.987688
    outer loop
      vertex -9.3 -1.25 1
      vertex -9.3 -7.75 1
      vertex -8.37295 -7.75 0.85317
    endloop
  endfacet
  facet normal 0.156434 2.19311e-016 0.987688
    outer loop
      vertex -8.37295 -1.25 0.85317
      vertex -9.3 -1.25 1
      vertex -8.37295 -7.75 0.85317
    endloop
  endfacet
  facet normal 0.453991 1.97843e-016 0.891006
    outer loop
      vertex -8.37295 -1.25 0.85317
      vertex -8.37295 -7.75 0.85317
      vertex -7.53664 -7.75 0.427051
    endloop
  endfacet
  facet normal 0.453991 1.97843e-016 0.891006
    outer loop
      vertex -7.53664 -1.25 0.427051
      vertex -8.37295 -1.25 0.85317
      vertex -7.53664 -7.75 0.427051
    endloop
  endfacet
  facet normal 0.707107 1.57009e-016 0.707107
    outer loop
      vertex -7.53664 -1.25 0.427051
      vertex -7.53664 -7.75 0.427051
      vertex -6.87295 -7.75 -0.236644
    endloop
  endfacet
  facet normal 0.707107 1.57009e-016 0.707107
    outer loop
      vertex -6.87295 -1.25 -0.236644
      vertex -7.53664 -1.25 0.427051
      vertex -6.87295 -7.75 -0.236644
    endloop
  endfacet
  facet normal 0.891006 1.00806e-016 0.453991
    outer loop
      vertex -6.87295 -1.25 -0.236644
      vertex -6.87295 -7.75 -0.236644
      vertex -6.44683 -7.75 -1.07295
    endloop
  endfacet
  facet normal 0.891006 1.00806e-016 0.453991
    outer loop
      vertex -6.44683 -1.25 -1.07295
      vertex -6.87295 -1.25 -0.236644
      vertex -6.44683 -7.75 -1.07295
    endloop
  endfacet
  facet normal 0.987688 3.47353e-017 0.156434
    outer loop
      vertex -6.44683 -1.25 -1.07295
      vertex -6.44683 -7.75 -1.07295
      vertex -6.3 -7.75 -2
    endloop
  endfacet
  facet normal 0.987688 3.47353e-017 0.156434
    outer loop
      vertex -6.3 -5.15 -2
      vertex -6.44683 -1.25 -1.07295
      vertex -6.3 -7.75 -2
    endloop
  endfacet
  facet normal 0.987688 3.47353e-017 0.156434
    outer loop
      vertex -6.3 -1.25 -2
      vertex -6.44683 -1.25 -1.07295
      vertex -6.3 -5.15 -2
    endloop
  endfacet
  facet normal 0 -1 0
    outer loop
      vertex -9.3 -7.75 -5
      vertex -10.8 -7.75 -9.5
      vertex 10.8 -7.75 -9.5
    endloop
  endfacet
  facet normal 0 -1 0
    outer loop
      vertex -1.35447e-015 -7.75 -6.1
      vertex -6.87295 -7.75 -3.76336
      vertex -7.53664 -7.75 -4.42705
    endloop
  endfacet
  facet normal 0 -1 0
    outer loop
      vertex 10.8 -7.75 0.05
      vertex 5.28275 -7.75 -3.05
      vertex 10.8 -7.75 -9.5
    endloop
  endfacet
  facet normal 0 -1 0
    outer loop
      vertex -8.37295 -7.75 -4.85317
      vertex 10.8 -7.75 -9.5
      vertex -1.35447e-015 -7.75 -6.1
    endloop
  endfacet
  facet normal 0 -1 0
    outer loop
      vertex 5.28275 -7.75 -3.05
      vertex -1.35447e-015 -7.75 -6.1
      vertex 10.8 -7.75 -9.5
    endloop
  endfacet
  facet normal 0 -1 0
    outer loop
      vertex -1.35447e-015 -7.75 -6.1
      vertex -5.28275 -7.75 -3.05
      vertex -6.87295 -7.75 -3.76336
    endloop
  endfacet
  facet normal 0 -1 0
    outer loop
      vertex -6.44683 -7.75 -2.92705
      vertex -6.87295 -7.75 -3.76336
      vertex -5.28275 -7.75 -3.05
    endloop
  endfacet
  facet normal 0 -1 0
    outer loop
      vertex -7.15959 -7.75 0.05
      vertex -6.87295 -7.75 -0.236644
      vertex -5.28275 -7.75 0.05
    endloop
  endfacet
  facet normal 0 -1 0
    outer loop
      vertex -6.87295 -7.75 -0.236644
      vertex -6.44683 -7.75 -1.07295
      vertex -5.28275 -7.75 0.05
    endloop
  endfacet
  facet normal 0 -1 0
    outer loop
      vertex -8.37295 -7.75 -4.85317
      vertex -9.3 -7.75 -5
      vertex 10.8 -7.75 -9.5
    endloop
  endfacet
  facet normal 0 -1 0
    outer loop
      vertex -5.28275 -7.75 -3.05
      vertex -6.3 -7.75 -2
      vertex -6.44683 -7.75 -2.92705
    endloop
  endfacet
  facet normal 0 -1 0
    outer loop
      vertex -7.53664 -7.75 -4.42705
      vertex -8.37295 -7.75 -4.85317
      vertex -1.35447e-015 -7.75 -6.1
    endloop
  endfacet
  facet normal 0 -1 0
    outer loop
      vertex -10.2271 -7.75 -4.85317
      vertex -10.8 -7.75 -9.5
      vertex -9.3 -7.75 -5
    endloop
  endfacet
  facet normal 0 -1 0
    outer loop
      vertex -10.8 -7.75 -4.56124
      vertex -10.8 -7.75 -9.5
      vertex -10.2271 -7.75 -4.85317
    endloop
  endfacet
  facet normal 0 -1 0
    outer loop
      vertex 5.28275 -7.75 0.05
      vertex 5.28275 -7.75 -3.05
      vertex 10.8 -7.75 0.05
    endloop
  endfacet
  facet normal 0 -1 0
    outer loop
      vertex -5.28275 -7.75 -3.05
      vertex -6.44683 -7.75 -1.07295
      vertex -6.3 -7.75 -2
    endloop
  endfacet
  facet normal 0 -1 0
    outer loop
      vertex -5.28275 -7.75 -3.05
      vertex -5.28275 -7.75 0.05
      vertex -6.44683 -7.75 -1.07295
    endloop
  endfacet
  facet normal -0.453991 -1.97843e-016 -0.891006
    outer loop
      vertex -11.0634 -7.75 -4.42705
      vertex -11.0634 -1.25 -4.42705
      vertex -10.8 -7.75 -4.56124
    endloop
  endfacet
  facet normal -0.453991 -1.97843e-016 -0.891006
    outer loop
      vertex -11.0634 -7.75 -4.42705
      vertex -10.8 -7.75 -4.56124
      vertex -10.2271 -7.75 -4.85317
    endloop
  endfacet
  facet normal -0.453991 -1.97843e-016 -0.891006
    outer loop
      vertex -10.8 -7.75 -4.56124
      vertex -11.0634 -1.25 -4.42705
      vertex -10.8 -1.25 -4.56124
    endloop
  endfacet
  facet normal -0.707107 -1.57009e-016 -0.707107
    outer loop
      vertex -11.7271 -7.75 -3.76336
      vertex -11.7271 -1.25 -3.76336
      vertex -11.0634 -7.75 -4.42705
    endloop
  endfacet
  facet normal -0.707107 -1.57009e-016 -0.707107
    outer loop
      vertex -11.0634 -7.75 -4.42705
      vertex -11.7271 -1.25 -3.76336
      vertex -11.0634 -1.25 -4.42705
    endloop
  endfacet
  facet normal -0.891006 -1.00806e-016 -0.453991
    outer loop
      vertex -12.1532 -7.75 -2.92705
      vertex -12.1532 -1.25 -2.92705
      vertex -11.7271 -7.75 -3.76336
    endloop
  endfacet
  facet normal -0.891006 -1.00806e-016 -0.453991
    outer loop
      vertex -11.7271 -7.75 -3.76336
      vertex -12.1532 -1.25 -2.92705
      vertex -11.7271 -1.25 -3.76336
    endloop
  endfacet
  facet normal 0.987688 3.47354e-017 0.156434
    outer loop
      vertex -10.7266 -7.75 -2.46352
      vertex -10.7266 -1.25 -2.46353
      vertex -10.8 -1.25 -2
    endloop
  endfacet
  facet normal 0.987688 3.47354e-017 0.156434
    outer loop
      vertex -10.8 -7.75 -2
      vertex -10.7266 -7.75 -2.46352
      vertex -10.8 -1.25 -2
    endloop
  endfacet
  facet normal 0.891006 1.00806e-016 0.453991
    outer loop
      vertex -10.5135 -7.75 -2.88168
      vertex -10.5135 -1.25 -2.88168
      vertex -10.7266 -1.25 -2.46353
    endloop
  endfacet
  facet normal 0.891006 1.00806e-016 0.453991
    outer loop
      vertex -10.7266 -7.75 -2.46352
      vertex -10.5135 -7.75 -2.88168
      vertex -10.7266 -1.25 -2.46353
    endloop
  endfacet
  facet normal 0.707107 1.57009e-016 0.707107
    outer loop
      vertex -10.1817 -7.75 -3.21352
      vertex -10.1817 -1.25 -3.21353
      vertex -10.5135 -1.25 -2.88168
    endloop
  endfacet
  facet normal 0.707107 1.57009e-016 0.707107
    outer loop
      vertex -10.5135 -7.75 -2.88168
      vertex -10.1817 -7.75 -3.21352
      vertex -10.5135 -1.25 -2.88168
    endloop
  endfacet
  facet normal 0.453991 1.97843e-016 0.891006
    outer loop
      vertex -9.76352 -7.75 -3.42658
      vertex -9.76352 -1.25 -3.42659
      vertex -10.1817 -1.25 -3.21353
    endloop
  endfacet
  facet normal 0.453991 1.97843e-016 0.891006
    outer loop
      vertex -10.1817 -7.75 -3.21352
      vertex -9.76352 -7.75 -3.42658
      vertex -10.1817 -1.25 -3.21353
    endloop
  endfacet
  facet normal 0.156434 2.19311e-016 0.987688
    outer loop
      vertex -9.3 -7.75 -3.5
      vertex -9.3 -1.25 -3.5
      vertex -9.76352 -1.25 -3.42659
    endloop
  endfacet
  facet normal 0.156434 2.19311e-016 0.987688
    outer loop
      vertex -9.76352 -7.75 -3.42658
      vertex -9.3 -7.75 -3.5
      vertex -9.76352 -1.25 -3.42659
    endloop
  endfacet
  facet normal -0.156434 2.19311e-016 0.987688
    outer loop
      vertex -8.83648 -7.75 -3.42658
      vertex -8.83648 -1.25 -3.42659
      vertex -9.3 -1.25 -3.5
    endloop
  endfacet
  facet normal -0.156434 2.19311e-016 0.987688
    outer loop
      vertex -9.3 -7.75 -3.5
      vertex -8.83648 -7.75 -3.42658
      vertex -9.3 -1.25 -3.5
    endloop
  endfacet
  facet normal -0.453991 1.97843e-016 0.891006
    outer loop
      vertex -8.41832 -7.75 -3.21352
      vertex -8.41832 -1.25 -3.21353
      vertex -8.83648 -1.25 -3.42659
    endloop
  endfacet
  facet normal -0.453991 1.97843e-016 0.891006
    outer loop
      vertex -8.83648 -7.75 -3.42658
      vertex -8.41832 -7.75 -3.21352
      vertex -8.83648 -1.25 -3.42659
    endloop
  endfacet
  facet normal -0.707107 1.57009e-016 0.707107
    outer loop
      vertex -8.08648 -1.25 -2.88168
      vertex -8.41832 -1.25 -3.21353
      vertex -8.08648 -7.75 -2.88168
    endloop
  endfacet
  facet normal -0.707107 1.57009e-016 0.707107
    outer loop
      vertex -8.08648 -7.75 -2.88168
      vertex -8.41832 -1.25 -3.21353
      vertex -8.41832 -7.75 -3.21352
    endloop
  endfacet
  facet normal -0.891006 1.00806e-016 0.453991
    outer loop
      vertex -7.87342 -1.25 -2.46353
      vertex -8.08648 -1.25 -2.88168
      vertex -7.87342 -7.75 -2.46352
    endloop
  endfacet
  facet normal -0.891006 1.00806e-016 0.453991
    outer loop
      vertex -7.87342 -7.75 -2.46352
      vertex -8.08648 -1.25 -2.88168
      vertex -8.08648 -7.75 -2.88168
    endloop
  endfacet
  facet normal -0.987688 3.47354e-017 0.156434
    outer loop
      vertex -7.8 -1.25 -2
      vertex -7.87342 -1.25 -2.46353
      vertex -7.8 -7.75 -2
    endloop
  endfacet
  facet normal -0.987688 3.47354e-017 0.156434
    outer loop
      vertex -7.8 -7.75 -2
      vertex -7.87342 -1.25 -2.46353
      vertex -7.87342 -7.75 -2.46352
    endloop
  endfacet
  facet normal -0.987688 -3.47354e-017 -0.156434
    outer loop
      vertex -7.8 -1.25 -2
      vertex -7.8 -7.75 -2
      vertex -7.87342 -1.25 -1.53648
    endloop
  endfacet
  facet normal -0.987688 -3.47354e-017 -0.156434
    outer loop
      vertex -7.87342 -1.25 -1.53648
      vertex -7.8 -7.75 -2
      vertex -7.87342 -7.75 -1.53647
    endloop
  endfacet
  facet normal -0.891006 -1.00806e-016 -0.453991
    outer loop
      vertex -7.87342 -1.25 -1.53648
      vertex -7.87342 -7.75 -1.53647
      vertex -8.08648 -1.25 -1.11832
    endloop
  endfacet
  facet normal -0.891006 -1.00806e-016 -0.453991
    outer loop
      vertex -8.08648 -1.25 -1.11832
      vertex -7.87342 -7.75 -1.53647
      vertex -8.08648 -7.75 -1.11832
    endloop
  endfacet
  facet normal -0.707107 -1.57009e-016 -0.707107
    outer loop
      vertex -8.08648 -1.25 -1.11832
      vertex -8.08648 -7.75 -1.11832
      vertex -8.41832 -1.25 -0.786475
    endloop
  endfacet
  facet normal -0.707107 -1.57009e-016 -0.707107
    outer loop
      vertex -8.41832 -1.25 -0.786475
      vertex -8.08648 -7.75 -1.11832
      vertex -8.41832 -7.75 -0.786475
    endloop
  endfacet
  facet normal -0.453991 -1.97843e-016 -0.891006
    outer loop
      vertex -8.41832 -1.25 -0.786475
      vertex -8.41832 -7.75 -0.786475
      vertex -8.83648 -1.25 -0.573415
    endloop
  endfacet
  facet normal -0.453991 -1.97843e-016 -0.891006
    outer loop
      vertex -8.83648 -1.25 -0.573415
      vertex -8.41832 -7.75 -0.786475
      vertex -8.83648 -7.75 -0.573415
    endloop
  endfacet
  facet normal -0.156434 -2.19311e-016 -0.987688
    outer loop
      vertex -8.83648 -1.25 -0.573415
      vertex -8.83648 -7.75 -0.573415
      vertex -9.3 -1.25 -0.5
    endloop
  endfacet
  facet normal -0.156434 -2.19311e-016 -0.987688
    outer loop
      vertex -9.3 -1.25 -0.5
      vertex -8.83648 -7.75 -0.573415
      vertex -9.3 -7.75 -0.5
    endloop
  endfacet
  facet normal 0.156434 -2.19311e-016 -0.987688
    outer loop
      vertex -9.3 -1.25 -0.5
      vertex -9.3 -7.75 -0.5
      vertex -9.76352 -1.25 -0.573415
    endloop
  endfacet
  facet normal 0.156434 -2.19311e-016 -0.987688
    outer loop
      vertex -9.76352 -1.25 -0.573415
      vertex -9.3 -7.75 -0.5
      vertex -9.76352 -7.75 -0.573415
    endloop
  endfacet
  facet normal 0.453991 -1.97843e-016 -0.891006
    outer loop
      vertex -9.76352 -1.25 -0.573415
      vertex -9.76352 -7.75 -0.573415
      vertex -10.1817 -1.25 -0.786475
    endloop
  endfacet
  facet normal 0.453991 -1.97843e-016 -0.891006
    outer loop
      vertex -10.1817 -1.25 -0.786475
      vertex -9.76352 -7.75 -0.573415
      vertex -10.1817 -7.75 -0.786475
    endloop
  endfacet
  facet normal 0.707107 -1.57009e-016 -0.707107
    outer loop
      vertex -10.5135 -1.25 -1.11832
      vertex -10.1817 -1.25 -0.786475
      vertex -10.1817 -7.75 -0.786475
    endloop
  endfacet
  facet normal 0.707107 -1.57009e-016 -0.707107
    outer loop
      vertex -10.5135 -7.75 -1.11832
      vertex -10.5135 -1.25 -1.11832
      vertex -10.1817 -7.75 -0.786475
    endloop
  endfacet
  facet normal 0.891006 -1.00806e-016 -0.453991
    outer loop
      vertex -10.7266 -1.25 -1.53648
      vertex -10.5135 -1.25 -1.11832
      vertex -10.5135 -7.75 -1.11832
    endloop
  endfacet
  facet normal 0.891006 -1.00806e-016 -0.453991
    outer loop
      vertex -10.7266 -7.75 -1.53647
      vertex -10.7266 -1.25 -1.53648
      vertex -10.5135 -7.75 -1.11832
    endloop
  endfacet
  facet normal 0.987688 -3.47354e-017 -0.156434
    outer loop
      vertex -10.8 -1.25 -2
      vertex -10.7266 -1.25 -1.53648
      vertex -10.7266 -7.75 -1.53647
    endloop
  endfacet
  facet normal 0.987688 -3.47354e-017 -0.156434
    outer loop
      vertex -10.8 -7.75 -2
      vertex -10.8 -1.25 -2
      vertex -10.7266 -7.75 -1.53647
    endloop
  endfacet
  facet normal 0 1 -2.22045e-016
    outer loop
      vertex -12.3 -1.25 -2
      vertex -12.1532 -1.25 -1.07295
      vertex -12.1532 -1.25 -2.92705
    endloop
  endfacet
  facet normal 0 1 -2.22045e-016
    outer loop
      vertex -12.1532 -1.25 -2.92705
      vertex -12.1532 -1.25 -1.07295
      vertex -11.7271 -1.25 -0.236644
    endloop
  endfacet
  facet normal 0 1 -2.22045e-016
    outer loop
      vertex -12.1532 -1.25 -2.92705
      vertex -11.7271 -1.25 -0.236644
      vertex -11.0634 -1.25 0.427051
    endloop
  endfacet
  facet normal 0 1 -2.22045e-016
    outer loop
      vertex -12.1532 -1.25 -2.92705
      vertex -11.0634 -1.25 0.427051
      vertex -10.2271 -1.25 0.85317
    endloop
  endfacet
  facet normal 0 1 -2.22045e-016
    outer loop
      vertex -12.1532 -1.25 -2.92705
      vertex -10.2271 -1.25 0.85317
      vertex -9.3 -1.25 1
    endloop
  endfacet
  facet normal 0 1 -2.22045e-016
    outer loop
      vertex -10.1817 -1.25 -0.786475
      vertex -9.3 -1.25 1
      vertex -8.37295 -1.25 0.85317
    endloop
  endfacet
  facet normal 0 1 -2.22045e-016
    outer loop
      vertex -9.3 -1.25 -0.5
      vertex -8.37295 -1.25 0.85317
      vertex -7.53664 -1.25 0.427051
    endloop
  endfacet
  facet normal 0 1 -2.22045e-016
    outer loop
      vertex -8.41832 -1.25 -0.786475
      vertex -7.53664 -1.25 0.427051
      vertex -6.87295 -1.25 -0.236644
    endloop
  endfacet
  facet normal 0 1 -2.22045e-016
    outer loop
      vertex -8.08648 -1.25 -1.11832
      vertex -6.87295 -1.25 -0.236644
      vertex -6.44683 -1.25 -1.07295
    endloop
  endfacet
  facet normal 0 1 -2.22045e-016
    outer loop
      vertex -7.8 -1.25 -2
      vertex -6.44683 -1.25 -1.07295
      vertex -6.3 -1.25 -2
    endloop
  endfacet
  facet normal 0 1 -2.22045e-016
    outer loop
      vertex -8.08648 -1.25 -2.88168
      vertex -6.3 -1.25 -2
      vertex -6.44683 -1.25 -2.92705
    endloop
  endfacet
  facet normal 0 1 -2.22045e-016
    outer loop
      vertex -8.41832 -1.25 -3.21353
      vertex -6.44683 -1.25 -2.92705
      vertex -6.755 -1.25 -3.53186
    endloop
  endfacet
  facet normal 0 1 -2.22045e-016
    outer loop
      vertex -8.08648 -1.25 -1.11832
      vertex -6.44683 -1.25 -1.07295
      vertex -7.87342 -1.25 -1.53648
    endloop
  endfacet
  facet normal 0 1 -2.22045e-016
    outer loop
      vertex -10.8 -1.25 -2
      vertex -12.1532 -1.25 -2.92705
      vertex -10.7266 -1.25 -1.53648
    endloop
  endfacet
  facet normal 0 1 -2.22045e-016
    outer loop
      vertex -9.3 -1.25 -3.5
      vertex -6.87295 -1.25 -3.76336
      vertex -7.53664 -1.25 -4.42705
    endloop
  endfacet
  facet normal 0 1 -2.22045e-016
    outer loop
      vertex -12.1532 -1.25 -2.92705
      vertex -7.53664 -1.25 -4.42705
      vertex -8.37295 -1.25 -4.85317
    endloop
  endfacet
  facet normal 0 1 -2.22045e-016
    outer loop
      vertex -12.1532 -1.25 -2.92705
      vertex -8.37295 -1.25 -4.85317
      vertex -9.3 -1.25 -5
    endloop
  endfacet
  facet normal 0 1 -2.22045e-016
    outer loop
      vertex -12.1532 -1.25 -2.92705
      vertex -9.3 -1.25 -5
      vertex -10.2271 -1.25 -4.85317
    endloop
  endfacet
  facet normal 0 1 -2.22045e-016
    outer loop
      vertex -12.1532 -1.25 -2.92705
      vertex -10.2271 -1.25 -4.85317
      vertex -10.8 -1.25 -4.56124
    endloop
  endfacet
  facet normal 0 1 -2.22045e-016
    outer loop
      vertex -12.1532 -1.25 -2.92705
      vertex -10.8 -1.25 -4.56124
      vertex -11.0634 -1.25 -4.42705
    endloop
  endfacet
  facet normal 0 1 -2.22045e-016
    outer loop
      vertex -12.1532 -1.25 -2.92705
      vertex -11.0634 -1.25 -4.42705
      vertex -11.7271 -1.25 -3.76336
    endloop
  endfacet
  facet normal 0 1 -2.22045e-016
    outer loop
      vertex -10.7266 -1.25 -2.46353
      vertex -12.1532 -1.25 -2.92705
      vertex -10.8 -1.25 -2
    endloop
  endfacet
  facet normal 0 1 -2.22045e-016
    outer loop
      vertex -10.5135 -1.25 -2.88168
      vertex -12.1532 -1.25 -2.92705
      vertex -10.7266 -1.25 -2.46353
    endloop
  endfacet
  facet normal 0 1 -2.22045e-016
    outer loop
      vertex -10.1817 -1.25 -3.21353
      vertex -12.1532 -1.25 -2.92705
      vertex -10.5135 -1.25 -2.88168
    endloop
  endfacet
  facet normal 0 1 -2.22045e-016
    outer loop
      vertex -8.83648 -1.25 -3.42659
      vertex -6.87295 -1.25 -3.76336
      vertex -9.3 -1.25 -3.5
    endloop
  endfacet
  facet normal 0 1 -2.22045e-016
    outer loop
      vertex -12.1532 -1.25 -2.92705
      vertex -9.76352 -1.25 -3.42659
      vertex -7.53664 -1.25 -4.42705
    endloop
  endfacet
  facet normal 0 1 -2.22045e-016
    outer loop
      vertex -9.76352 -1.25 -3.42659
      vertex -9.3 -1.25 -3.5
      vertex -7.53664 -1.25 -4.42705
    endloop
  endfacet
  facet normal 0 1 -2.22045e-016
    outer loop
      vertex -10.1817 -1.25 -0.786475
      vertex -8.37295 -1.25 0.85317
      vertex -9.76352 -1.25 -0.573415
    endloop
  endfacet
  facet normal 0 1 -2.22045e-016
    outer loop
      vertex -8.41832 -1.25 -3.21353
      vertex -6.755 -1.25 -3.53186
      vertex -8.83648 -1.25 -3.42659
    endloop
  endfacet
  facet normal 0 1 -2.22045e-016
    outer loop
      vertex -7.87342 -1.25 -2.46353
      vertex -6.3 -1.25 -2
      vertex -8.08648 -1.25 -2.88168
    endloop
  endfacet
  facet normal 0 1 -2.22045e-016
    outer loop
      vertex -7.8 -1.25 -2
      vertex -6.3 -1.25 -2
      vertex -7.87342 -1.25 -2.46353
    endloop
  endfacet
  facet normal 0 1 -2.22045e-016
    outer loop
      vertex -7.87342 -1.25 -1.53648
      vertex -6.44683 -1.25 -1.07295
      vertex -7.8 -1.25 -2
    endloop
  endfacet
  facet normal 0 1 -2.22045e-016
    outer loop
      vertex -8.08648 -1.25 -2.88168
      vertex -6.44683 -1.25 -2.92705
      vertex -8.41832 -1.25 -3.21353
    endloop
  endfacet
  facet normal 0 1 -2.22045e-016
    outer loop
      vertex -8.41832 -1.25 -0.786475
      vertex -6.87295 -1.25 -0.236644
      vertex -8.08648 -1.25 -1.11832
    endloop
  endfacet
  facet normal 0 1 -2.22045e-016
    outer loop
      vertex -8.83648 -1.25 -0.573415
      vertex -7.53664 -1.25 0.427051
      vertex -8.41832 -1.25 -0.786475
    endloop
  endfacet
  facet normal 0 1 -2.22045e-016
    outer loop
      vertex -9.3 -1.25 -0.5
      vertex -7.53664 -1.25 0.427051
      vertex -8.83648 -1.25 -0.573415
    endloop
  endfacet
  facet normal 0 1 -2.22045e-016
    outer loop
      vertex -9.76352 -1.25 -0.573415
      vertex -8.37295 -1.25 0.85317
      vertex -9.3 -1.25 -0.5
    endloop
  endfacet
  facet normal 0 1 -2.22045e-016
    outer loop
      vertex -10.5135 -1.25 -1.11832
      vertex -9.3 -1.25 1
      vertex -10.1817 -1.25 -0.786475
    endloop
  endfacet
  facet normal 0 1 -2.22045e-016
    outer loop
      vertex -10.7266 -1.25 -1.53648
      vertex -12.1532 -1.25 -2.92705
      vertex -10.5135 -1.25 -1.11832
    endloop
  endfacet
  facet normal 0 1 -2.22045e-016
    outer loop
      vertex -12.1532 -1.25 -2.92705
      vertex -9.3 -1.25 1
      vertex -10.5135 -1.25 -1.11832
    endloop
  endfacet
  facet normal 0 1 -2.22045e-016
    outer loop
      vertex -9.76352 -1.25 -3.42659
      vertex -12.1532 -1.25 -2.92705
      vertex -10.1817 -1.25 -3.21353
    endloop
  endfacet
  facet normal 0 1 -2.22045e-016
    outer loop
      vertex -6.87295 -1.25 -3.76336
      vertex -8.83648 -1.25 -3.42659
      vertex -6.755 -1.25 -3.53186
    endloop
  endfacet
  facet normal 0.987688 -3.47353e-017 -0.156434
    outer loop
      vertex -6.3 -5.15 -2
      vertex -6.44683 -5.15 -2.92705
      vertex -6.44683 -1.25 -2.92705
    endloop
  endfacet
  facet normal 0.987688 -3.47353e-017 -0.156434
    outer loop
      vertex -6.3 -1.25 -2
      vertex -6.3 -5.15 -2
      vertex -6.44683 -1.25 -2.92705
    endloop
  endfacet
  facet normal 0 1 2.22045e-016
    outer loop
      vertex 1.73195e-015 -5.15 -7.8
      vertex -1.35447e-015 -5.15 -6.1
      vertex 6.755 -5.15 -3.9
    endloop
  endfacet
  facet normal 0 1 2.22045e-016
    outer loop
      vertex 6.755 -5.15 0.05
      vertex 5.28275 -5.15 -3.05
      vertex 5.28275 -5.15 0.05
    endloop
  endfacet
  facet normal 0 1 2.22045e-016
    outer loop
      vertex 6.755 -5.15 -3.9
      vertex 5.28275 -5.15 -3.05
      vertex 6.755 -5.15 0.05
    endloop
  endfacet
  facet normal 0 1 2.22045e-016
    outer loop
      vertex -1.35447e-015 -5.15 -6.1
      vertex 5.28275 -5.15 -3.05
      vertex 6.755 -5.15 -3.9
    endloop
  endfacet
  facet normal 0 1 2.22045e-016
    outer loop
      vertex -5.28275 -5.15 -3.05
      vertex -1.35447e-015 -5.15 -6.1
      vertex 1.73195e-015 -5.15 -7.8
    endloop
  endfacet
  facet normal 0 1 2.22045e-016
    outer loop
      vertex -5.28275 -5.15 -3.05
      vertex 1.73195e-015 -5.15 -7.8
      vertex -6.755 -5.15 -3.9
    endloop
  endfacet
  facet normal 0 1 2.22045e-016
    outer loop
      vertex -5.28275 -5.15 -3.05
      vertex -6.755 -5.15 -3.9
      vertex -5.28275 -5.15 0.05
    endloop
  endfacet
  facet normal 0 1 2.22045e-016
    outer loop
      vertex -6.755 -5.15 -3.9
      vertex -6.755 -5.15 -3.53186
      vertex -6.44683 -5.15 -2.92705
    endloop
  endfacet
  facet normal 0 1 2.22045e-016
    outer loop
      vertex -6.755 -5.15 -3.9
      vertex -6.44683 -5.15 -2.92705
      vertex -5.28275 -5.15 0.05
    endloop
  endfacet
  facet normal 0 1 2.22045e-016
    outer loop
      vertex -6.3 -5.15 -2
      vertex -6.44683 -5.15 -1.07295
      vertex -5.28275 -5.15 0.05
    endloop
  endfacet
  facet normal 0 1 2.22045e-016
    outer loop
      vertex -6.44683 -5.15 -1.07295
      vertex -6.755 -5.15 -0.468136
      vertex -5.28275 -5.15 0.05
    endloop
  endfacet
  facet normal 0 1 2.22045e-016
    outer loop
      vertex -6.755 -5.15 -0.468136
      vertex -6.755 -5.15 0.05
      vertex -5.28275 -5.15 0.05
    endloop
  endfacet
  facet normal 0 1 2.22045e-016
    outer loop
      vertex -6.3 -5.15 -2
      vertex -5.28275 -5.15 0.05
      vertex -6.44683 -5.15 -2.92705
    endloop
  endfacet
  facet normal -0.987688 -3.47353e-017 -0.156434
    outer loop
      vertex -6.3 -5.15 -2
      vertex -6.3 -7.75 -2
      vertex -6.44683 -5.15 -1.07295
    endloop
  endfacet
  facet normal -0.987688 -3.47353e-017 -0.156434
    outer loop
      vertex -6.44683 -5.15 -1.07295
      vertex -6.3 -7.75 -2
      vertex -6.44683 -7.75 -1.07295
    endloop
  endfacet
  facet normal -1 0 0
    outer loop
      vertex -10.8 -7.75 -9.5
      vertex -10.8 -7.75 -4.56124
      vertex -10.8 4.75 -9.5
    endloop
  endfacet
  facet normal -1 0 0
    outer loop
      vertex -10.8 4.75 -9.5
      vertex -10.8 -7.75 -4.56124
      vertex -10.8 -1.25 -4.56124
    endloop
  endfacet
  facet normal -1 0 0
    outer loop
      vertex -10.8 4.75 -9.5
      vertex -10.8 -1.25 -4.56124
      vertex -10.8 4.75 -4.56124
    endloop
  endfacet
  facet normal -0.891006 -1.00806e-016 -0.453991
    outer loop
      vertex -6.44683 4.75 -1.07295
      vertex -6.44683 2.15 -1.07295
      vertex -6.87295 4.75 -0.236644
    endloop
  endfacet
  facet normal -0.891006 -1.00806e-016 -0.453991
    outer loop
      vertex -6.87295 4.75 -0.236644
      vertex -6.44683 2.15 -1.07295
      vertex -6.755 2.15 -0.468136
    endloop
  endfacet
  facet normal -0.891006 -1.00806e-016 -0.453991
    outer loop
      vertex -6.87295 4.75 -0.236644
      vertex -6.755 2.15 -0.468136
      vertex -6.755 -5.15 -0.468136
    endloop
  endfacet
  facet normal -0.891006 -1.00806e-016 -0.453991
    outer loop
      vertex -6.755 -5.15 -0.468136
      vertex -6.44683 -5.15 -1.07295
      vertex -6.44683 -7.75 -1.07295
    endloop
  endfacet
  facet normal -0.891006 -1.00806e-016 -0.453991
    outer loop
      vertex -6.755 -5.15 -0.468136
      vertex -6.44683 -7.75 -1.07295
      vertex -6.87295 -7.75 -0.236644
    endloop
  endfacet
  facet normal -0.891006 -1.00806e-016 -0.453991
    outer loop
      vertex -6.755 -5.15 -0.468136
      vertex -6.87295 -7.75 -0.236644
      vertex -6.87295 4.75 -0.236644
    endloop
  endfacet
  facet normal -0.707107 -1.57009e-016 -0.707107
    outer loop
      vertex -6.87295 -7.75 -0.236644
      vertex -7.15959 -7.75 0.05
      vertex -6.87295 4.75 -0.236644
    endloop
  endfacet
  facet normal -0.707107 -1.57009e-016 -0.707107
    outer loop
      vertex -6.87295 4.75 -0.236644
      vertex -7.15959 -7.75 0.05
      vertex -7.15959 4.75 0.05
    endloop
  endfacet
  facet normal 0 0 1
    outer loop
      vertex -7.15959 -7.75 0.05
      vertex -5.28275 -7.75 0.05
      vertex -5.28275 -5.15 0.05
    endloop
  endfacet
  facet normal 0 0 1
    outer loop
      vertex -6.755 2.15 0.05
      vertex -7.15959 -7.75 0.05
      vertex -6.755 -5.15 0.05
    endloop
  endfacet
  facet normal 0 0 1
    outer loop
      vertex -6.755 -5.15 0.05
      vertex -7.15959 -7.75 0.05
      vertex -5.28275 -5.15 0.05
    endloop
  endfacet
  facet normal 0 0 1
    outer loop
      vertex -7.15959 4.75 0.05
      vertex -7.15959 -7.75 0.05
      vertex -6.755 2.15 0.05
    endloop
  endfacet
  facet normal 0 0 1
    outer loop
      vertex -5.28275 4.75 0.05
      vertex -6.755 2.15 0.05
      vertex -5.28275 2.15 0.05
    endloop
  endfacet
  facet normal 0 0 1
    outer loop
      vertex -7.15959 4.75 0.05
      vertex -6.755 2.15 0.05
      vertex -5.28275 4.75 0.05
    endloop
  endfacet
  facet normal 1 -4.93038e-032 -2.22045e-016
    outer loop
      vertex -5.28275 -5.15 -3.05
      vertex -5.28275 -5.15 0.05
      vertex -5.28275 -7.75 0.05
    endloop
  endfacet
  facet normal 1 -4.93038e-032 -2.22045e-016
    outer loop
      vertex -5.28275 -7.75 -3.05
      vertex -5.28275 -5.15 -3.05
      vertex -5.28275 -7.75 0.05
    endloop
  endfacet
  facet normal 0.5 1.92296e-016 0.866025
    outer loop
      vertex -1.35447e-015 -7.75 -6.1
      vertex -1.35447e-015 -5.15 -6.1
      vertex -5.28275 -5.15 -3.05
    endloop
  endfacet
  facet normal 0.5 1.92296e-016 0.866025
    outer loop
      vertex -5.28275 -7.75 -3.05
      vertex -1.35447e-015 -7.75 -6.1
      vertex -5.28275 -5.15 -3.05
    endloop
  endfacet
  facet normal -0.5 1.92296e-016 0.866025
    outer loop
      vertex 5.28275 -7.75 -3.05
      vertex 5.28275 -5.15 -3.05
      vertex -1.35447e-015 -5.15 -6.1
    endloop
  endfacet
  facet normal -0.5 1.92296e-016 0.866025
    outer loop
      vertex -1.35447e-015 -7.75 -6.1
      vertex 5.28275 -7.75 -3.05
      vertex -1.35447e-015 -5.15 -6.1
    endloop
  endfacet
  facet normal -1 4.93038e-032 2.22045e-016
    outer loop
      vertex 5.28275 -5.15 0.05
      vertex 5.28275 -5.15 -3.05
      vertex 5.28275 -7.75 0.05
    endloop
  endfacet
  facet normal -1 4.93038e-032 2.22045e-016
    outer loop
      vertex 5.28275 -7.75 0.05
      vertex 5.28275 -5.15 -3.05
      vertex 5.28275 -7.75 -3.05
    endloop
  endfacet
  facet normal 0 0 1
    outer loop
      vertex 6.755 2.15 0.05
      vertex 10.8 4.75 0.05
      vertex 5.28275 4.75 0.05
    endloop
  endfacet
  facet normal 0 0 1
    outer loop
      vertex 7.41832 -0.286475 0.05
      vertex 7.83648 -0.073415 0.05
      vertex 6.755 2.15 0.05
    endloop
  endfacet
  facet normal 0 0 1
    outer loop
      vertex 7.83648 -0.073415 0.05
      vertex 10.8 4.75 0.05
      vertex 6.755 2.15 0.05
    endloop
  endfacet
  facet normal 0 0 1
    outer loop
      vertex 5.28275 -5.15 0.05
      vertex 10.8 -7.75 0.05
      vertex 6.755 -5.15 0.05
    endloop
  endfacet
  facet normal 0 0 1
    outer loop
      vertex 5.28275 -7.75 0.05
      vertex 10.8 -7.75 0.05
      vertex 5.28275 -5.15 0.05
    endloop
  endfacet
  facet normal 0 0 1
    outer loop
      vertex 6.755 2.15 0.05
      vertex 6.8 -1.5 0.05
      vertex 6.87342 -1.03648 0.05
    endloop
  endfacet
  facet normal 0 0 1
    outer loop
      vertex 6.755 2.15 0.05
      vertex 6.87342 -1.03648 0.05
      vertex 7.08648 -0.618322 0.05
    endloop
  endfacet
  facet normal 0 0 1
    outer loop
      vertex 8.3 -3 0.05
      vertex 7.83648 -2.92658 0.05
      vertex 10.8 -7.75 0.05
    endloop
  endfacet
  facet normal 0 0 1
    outer loop
      vertex 8.3 0 0.05
      vertex 10.8 4.75 0.05
      vertex 7.83648 -0.073415 0.05
    endloop
  endfacet
  facet normal 0 0 1
    outer loop
      vertex 8.76352 -0.073415 0.05
      vertex 10.8 4.75 0.05
      vertex 8.3 0 0.05
    endloop
  endfacet
  facet normal 0 0 1
    outer loop
      vertex 9.18168 -0.286475 0.05
      vertex 10.8 4.75 0.05
      vertex 8.76352 -0.073415 0.05
    endloop
  endfacet
  facet normal 0 0 1
    outer loop
      vertex 9.51352 -0.618322 0.05
      vertex 10.8 4.75 0.05
      vertex 9.18168 -0.286475 0.05
    endloop
  endfacet
  facet normal 0 0 1
    outer loop
      vertex 9.72659 -1.03648 0.05
      vertex 10.8 4.75 0.05
      vertex 9.51352 -0.618322 0.05
    endloop
  endfacet
  facet normal 0 0 1
    outer loop
      vertex 10.8 -7.75 0.05
      vertex 10.8 4.75 0.05
      vertex 9.72659 -1.03648 0.05
    endloop
  endfacet
  facet normal 0 0 1
    outer loop
      vertex 9.72659 -1.96353 0.05
      vertex 9.51352 -2.38168 0.05
      vertex 10.8 -7.75 0.05
    endloop
  endfacet
  facet normal 0 0 1
    outer loop
      vertex 10.8 -7.75 0.05
      vertex 9.72659 -1.03648 0.05
      vertex 9.8 -1.5 0.05
    endloop
  endfacet
  facet normal 0 0 1
    outer loop
      vertex 9.51352 -2.38168 0.05
      vertex 9.18168 -2.71352 0.05
      vertex 10.8 -7.75 0.05
    endloop
  endfacet
  facet normal 0 0 1
    outer loop
      vertex 8.76352 -2.92658 0.05
      vertex 8.3 -3 0.05
      vertex 10.8 -7.75 0.05
    endloop
  endfacet
  facet normal 0 0 1
    outer loop
      vertex 7.83648 -2.92658 0.05
      vertex 7.41832 -2.71352 0.05
      vertex 10.8 -7.75 0.05
    endloop
  endfacet
  facet normal 0 0 1
    outer loop
      vertex 9.8 -1.5 0.05
      vertex 9.72659 -1.96353 0.05
      vertex 10.8 -7.75 0.05
    endloop
  endfacet
  facet normal 0 0 1
    outer loop
      vertex 6.755 -5.15 0.05
      vertex 10.8 -7.75 0.05
      vertex 7.41832 -2.71352 0.05
    endloop
  endfacet
  facet normal 0 0 1
    outer loop
      vertex 6.755 -5.15 0.05
      vertex 7.41832 -2.71352 0.05
      vertex 7.08648 -2.38168 0.05
    endloop
  endfacet
  facet normal 0 0 1
    outer loop
      vertex 6.755 -5.15 0.05
      vertex 6.87342 -1.96353 0.05
      vertex 6.8 -1.5 0.05
    endloop
  endfacet
  facet normal 0 0 1
    outer loop
      vertex 6.755 -5.15 0.05
      vertex 7.08648 -2.38168 0.05
      vertex 6.87342 -1.96353 0.05
    endloop
  endfacet
  facet normal 0 0 1
    outer loop
      vertex 9.18168 -2.71352 0.05
      vertex 8.76352 -2.92658 0.05
      vertex 10.8 -7.75 0.05
    endloop
  endfacet
  facet normal 0 0 1
    outer loop
      vertex 6.755 2.15 0.05
      vertex 7.08648 -0.618322 0.05
      vertex 7.41832 -0.286475 0.05
    endloop
  endfacet
  facet normal 0 0 1
    outer loop
      vertex 5.28275 2.15 0.05
      vertex 6.755 2.15 0.05
      vertex 5.28275 4.75 0.05
    endloop
  endfacet
  facet normal 0 0 1
    outer loop
      vertex 6.755 2.15 0.05
      vertex 6.755 -5.15 0.05
      vertex 6.8 -1.5 0.05
    endloop
  endfacet
  facet normal 1 0 0
    outer loop
      vertex 10.8 -7.75 0.05
      vertex 10.8 -7.75 -9.5
      vertex 10.8 4.75 -9.5
    endloop
  endfacet
  facet normal 1 0 0
    outer loop
      vertex 10.8 4.75 0.05
      vertex 10.8 -7.75 0.05
      vertex 10.8 4.75 -9.5
    endloop
  endfacet
  facet normal 0 0 -1
    outer loop
      vertex -10.8 -7.75 -9.5
      vertex -10.8 4.75 -9.5
      vertex 10.8 -7.75 -9.5
    endloop
  endfacet
  facet normal 0 0 -1
    outer loop
      vertex 7.41832 -0.286475 -9.5
      vertex -10.8 4.75 -9.5
      vertex 10.8 4.75 -9.5
    endloop
  endfacet
  facet normal 0 0 -1
    outer loop
      vertex 6.87342 -1.96353 -9.5
      vertex -10.8 4.75 -9.5
      vertex 6.8 -1.5 -9.5
    endloop
  endfacet
  facet normal 0 0 -1
    outer loop
      vertex 7.08648 -2.38168 -9.5
      vertex -10.8 4.75 -9.5
      vertex 6.87342 -1.96353 -9.5
    endloop
  endfacet
  facet normal 0 0 -1
    outer loop
      vertex 10.8 -7.75 -9.5
      vertex -10.8 4.75 -9.5
      vertex 7.08648 -2.38168 -9.5
    endloop
  endfacet
  facet normal 0 0 -1
    outer loop
      vertex 7.83648 -2.92658 -9.5
      vertex 10.8 -7.75 -9.5
      vertex 7.41832 -2.71352 -9.5
    endloop
  endfacet
  facet normal 0 0 -1
    outer loop
      vertex 9.72659 -1.03648 -9.5
      vertex 10.8 4.75 -9.5
      vertex 9.8 -1.5 -9.5
    endloop
  endfacet
  facet normal 0 0 -1
    outer loop
      vertex 10.8 -7.75 -9.5
      vertex 7.83648 -2.92658 -9.5
      vertex 8.3 -3 -9.5
    endloop
  endfacet
  facet normal 0 0 -1
    outer loop
      vertex 10.8 -7.75 -9.5
      vertex 8.3 -3 -9.5
      vertex 8.76352 -2.92658 -9.5
    endloop
  endfacet
  facet normal 0 0 -1
    outer loop
      vertex 10.8 -7.75 -9.5
      vertex 8.76352 -2.92658 -9.5
      vertex 9.18168 -2.71352 -9.5
    endloop
  endfacet
  facet normal 0 0 -1
    outer loop
      vertex 10.8 -7.75 -9.5
      vertex 9.18168 -2.71352 -9.5
      vertex 9.51352 -2.38168 -9.5
    endloop
  endfacet
  facet normal 0 0 -1
    outer loop
      vertex 10.8 -7.75 -9.5
      vertex 9.51352 -2.38168 -9.5
      vertex 9.72659 -1.96353 -9.5
    endloop
  endfacet
  facet normal 0 0 -1
    outer loop
      vertex 10.8 -7.75 -9.5
      vertex 9.72659 -1.96353 -9.5
      vertex 10.8 4.75 -9.5
    endloop
  endfacet
  facet normal 0 0 -1
    outer loop
      vertex 9.72659 -1.96353 -9.5
      vertex 9.8 -1.5 -9.5
      vertex 10.8 4.75 -9.5
    endloop
  endfacet
  facet normal 0 0 -1
    outer loop
      vertex 9.51352 -0.618322 -9.5
      vertex 10.8 4.75 -9.5
      vertex 9.72659 -1.03648 -9.5
    endloop
  endfacet
  facet normal 0 0 -1
    outer loop
      vertex 9.18168 -0.286475 -9.5
      vertex 10.8 4.75 -9.5
      vertex 9.51352 -0.618322 -9.5
    endloop
  endfacet
  facet normal 0 0 -1
    outer loop
      vertex 8.76352 -0.073415 -9.5
      vertex 10.8 4.75 -9.5
      vertex 9.18168 -0.286475 -9.5
    endloop
  endfacet
  facet normal 0 0 -1
    outer loop
      vertex 7.41832 -0.286475 -9.5
      vertex 10.8 4.75 -9.5
      vertex 7.83648 -0.073415 -9.5
    endloop
  endfacet
  facet normal 0 0 -1
    outer loop
      vertex 8.76352 -0.073415 -9.5
      vertex 8.3 0 -9.5
      vertex 10.8 4.75 -9.5
    endloop
  endfacet
  facet normal 0 0 -1
    outer loop
      vertex 8.3 0 -9.5
      vertex 7.83648 -0.073415 -9.5
      vertex 10.8 4.75 -9.5
    endloop
  endfacet
  facet normal 0 0 -1
    outer loop
      vertex 7.08648 -0.618322 -9.5
      vertex -10.8 4.75 -9.5
      vertex 7.41832 -0.286475 -9.5
    endloop
  endfacet
  facet normal 0 0 -1
    outer loop
      vertex 6.87342 -1.03648 -9.5
      vertex -10.8 4.75 -9.5
      vertex 7.08648 -0.618322 -9.5
    endloop
  endfacet
  facet normal 0 0 -1
    outer loop
      vertex 6.8 -1.5 -9.5
      vertex -10.8 4.75 -9.5
      vertex 6.87342 -1.03648 -9.5
    endloop
  endfacet
  facet normal 0 0 -1
    outer loop
      vertex 7.41832 -2.71352 -9.5
      vertex 10.8 -7.75 -9.5
      vertex 7.08648 -2.38168 -9.5
    endloop
  endfacet
  facet normal 0.453991 1.97843e-016 0.891006
    outer loop
      vertex -10.2271 -1.25 -4.85317
      vertex -10.2271 4.75 -4.85317
      vertex -10.8 4.75 -4.56124
    endloop
  endfacet
  facet normal 0.453991 1.97843e-016 0.891006
    outer loop
      vertex -10.8 -1.25 -4.56124
      vertex -10.2271 -1.25 -4.85317
      vertex -10.8 4.75 -4.56124
    endloop
  endfacet
  facet normal 0.156434 2.19311e-016 0.987688
    outer loop
      vertex -9.3 -1.25 -5
      vertex -9.3 4.75 -5
      vertex -10.2271 4.75 -4.85317
    endloop
  endfacet
  facet normal 0.156434 2.19311e-016 0.987688
    outer loop
      vertex -10.2271 -1.25 -4.85317
      vertex -9.3 -1.25 -5
      vertex -10.2271 4.75 -4.85317
    endloop
  endfacet
  facet normal -0.156434 2.19311e-016 0.987688
    outer loop
      vertex -8.37295 -1.25 -4.85317
      vertex -8.37295 4.75 -4.85317
      vertex -9.3 4.75 -5
    endloop
  endfacet
  facet normal -0.156434 2.19311e-016 0.987688
    outer loop
      vertex -9.3 -1.25 -5
      vertex -8.37295 -1.25 -4.85317
      vertex -9.3 4.75 -5
    endloop
  endfacet
  facet normal -0.453991 1.97843e-016 0.891006
    outer loop
      vertex -7.53664 -1.25 -4.42705
      vertex -7.53664 4.75 -4.42705
      vertex -8.37295 4.75 -4.85317
    endloop
  endfacet
  facet normal -0.453991 1.97843e-016 0.891006
    outer loop
      vertex -8.37295 -1.25 -4.85317
      vertex -7.53664 -1.25 -4.42705
      vertex -8.37295 4.75 -4.85317
    endloop
  endfacet
  facet normal -0.707107 1.57009e-016 0.707107
    outer loop
      vertex -6.87295 4.75 -3.76336
      vertex -7.53664 4.75 -4.42705
      vertex -6.87295 -1.25 -3.76336
    endloop
  endfacet
  facet normal -0.707107 1.57009e-016 0.707107
    outer loop
      vertex -6.87295 -1.25 -3.76336
      vertex -7.53664 4.75 -4.42705
      vertex -7.53664 -1.25 -4.42705
    endloop
  endfacet
  facet normal -0.891006 1.00806e-016 0.453991
    outer loop
      vertex -6.755 2.15 -3.53186
      vertex -6.44683 2.15 -2.92705
      vertex -6.44683 4.75 -2.92705
    endloop
  endfacet
  facet normal -0.891006 1.00806e-016 0.453991
    outer loop
      vertex -6.755 2.15 -3.53186
      vertex -6.44683 4.75 -2.92705
      vertex -6.87295 4.75 -3.76336
    endloop
  endfacet
  facet normal -0.891006 1.00806e-016 0.453991
    outer loop
      vertex -6.755 2.15 -3.53186
      vertex -6.87295 4.75 -3.76336
      vertex -6.755 -1.25 -3.53186
    endloop
  endfacet
  facet normal -0.891006 1.00806e-016 0.453991
    outer loop
      vertex -6.87295 4.75 -3.76336
      vertex -6.87295 -1.25 -3.76336
      vertex -6.755 -1.25 -3.53186
    endloop
  endfacet
  facet normal 1 -4.93038e-032 2.22045e-016
    outer loop
      vertex -6.755 -5.15 -3.9
      vertex -6.755 2.15 -3.9
      vertex -6.755 2.15 -3.53186
    endloop
  endfacet
  facet normal 1 -4.93038e-032 2.22045e-016
    outer loop
      vertex -6.755 -1.25 -3.53186
      vertex -6.755 -5.15 -3.9
      vertex -6.755 2.15 -3.53186
    endloop
  endfacet
  facet normal 1 -4.93038e-032 2.22045e-016
    outer loop
      vertex -6.755 -1.25 -3.53186
      vertex -6.755 -5.15 -3.53186
      vertex -6.755 -5.15 -3.9
    endloop
  endfacet
  facet normal 0.891006 -1.00806e-016 -0.453991
    outer loop
      vertex -6.44683 -5.15 -2.92705
      vertex -6.755 -5.15 -3.53186
      vertex -6.755 -1.25 -3.53186
    endloop
  endfacet
  facet normal 0.891006 -1.00806e-016 -0.453991
    outer loop
      vertex -6.44683 -1.25 -2.92705
      vertex -6.44683 -5.15 -2.92705
      vertex -6.755 -1.25 -3.53186
    endloop
  endfacet
  facet normal 1 -4.93038e-032 2.22045e-016
    outer loop
      vertex -6.755 -5.15 -0.468136
      vertex -6.755 2.15 -0.468136
      vertex -6.755 2.15 0.05
    endloop
  endfacet
  facet normal 1 -4.93038e-032 2.22045e-016
    outer loop
      vertex -6.755 -5.15 0.05
      vertex -6.755 -5.15 -0.468136
      vertex -6.755 2.15 0.05
    endloop
  endfacet
  facet normal 0.5 -1.92296e-016 0.866025
    outer loop
      vertex 1.73195e-015 -5.15 -7.8
      vertex 1.73195e-015 2.15 -7.8
      vertex -6.755 2.15 -3.9
    endloop
  endfacet
  facet normal 0.5 -1.92296e-016 0.866025
    outer loop
      vertex -6.755 -5.15 -3.9
      vertex 1.73195e-015 -5.15 -7.8
      vertex -6.755 2.15 -3.9
    endloop
  endfacet
  facet normal -0.5 -1.92296e-016 0.866025
    outer loop
      vertex 6.755 -5.15 -3.9
      vertex 6.755 2.15 -3.9
      vertex 1.73195e-015 2.15 -7.8
    endloop
  endfacet
  facet normal -0.5 -1.92296e-016 0.866025
    outer loop
      vertex 1.73195e-015 -5.15 -7.8
      vertex 6.755 -5.15 -3.9
      vertex 1.73195e-015 2.15 -7.8
    endloop
  endfacet
  facet normal -1 4.93038e-032 -2.22045e-016
    outer loop
      vertex 6.755 2.15 -3.9
      vertex 6.755 -5.15 -3.9
      vertex 6.755 2.15 0.05
    endloop
  endfacet
  facet normal -1 4.93038e-032 -2.22045e-016
    outer loop
      vertex 6.755 2.15 0.05
      vertex 6.755 -5.15 -3.9
      vertex 6.755 -5.15 0.05
    endloop
  endfacet
  facet normal 0 1 0
    outer loop
      vertex -5.28275 4.75 -3.05
      vertex -6.44683 4.75 -1.07295
      vertex -6.87295 4.75 -0.236644
    endloop
  endfacet
  facet normal 0 1 0
    outer loop
      vertex -10.8 4.75 -9.5
      vertex -10.2271 4.75 -4.85317
      vertex 10.8 4.75 -9.5
    endloop
  endfacet
  facet normal 0 1 0
    outer loop
      vertex -10.8 4.75 -9.5
      vertex -10.8 4.75 -4.56124
      vertex -10.2271 4.75 -4.85317
    endloop
  endfacet
  facet normal 0 1 0
    outer loop
      vertex -10.2271 4.75 -4.85317
      vertex -9.3 4.75 -5
      vertex 10.8 4.75 -9.5
    endloop
  endfacet
  facet normal 0 1 0
    outer loop
      vertex -5.28275 4.75 -3.05
      vertex -6.3 4.75 -2
      vertex -6.44683 4.75 -1.07295
    endloop
  endfacet
  facet normal 0 1 0
    outer loop
      vertex 10.8 4.75 -9.5
      vertex -8.37295 4.75 -4.85317
      vertex -7.53664 4.75 -4.42705
    endloop
  endfacet
  facet normal 0 1 0
    outer loop
      vertex 5.28275 4.75 -3.05
      vertex 10.8 4.75 -9.5
      vertex -1.35447e-015 4.75 -6.1
    endloop
  endfacet
  facet normal 0 1 0
    outer loop
      vertex -1.35447e-015 4.75 -6.1
      vertex -6.87295 4.75 -3.76336
      vertex -6.44683 4.75 -2.92705
    endloop
  endfacet
  facet normal 0 1 0
    outer loop
      vertex -1.35447e-015 4.75 -6.1
      vertex -6.44683 4.75 -2.92705
      vertex -5.28275 4.75 -3.05
    endloop
  endfacet
  facet normal 0 1 0
    outer loop
      vertex -6.44683 4.75 -2.92705
      vertex -6.3 4.75 -2
      vertex -5.28275 4.75 -3.05
    endloop
  endfacet
  facet normal 0 1 0
    outer loop
      vertex -7.53664 4.75 -4.42705
      vertex -6.87295 4.75 -3.76336
      vertex -1.35447e-015 4.75 -6.1
    endloop
  endfacet
  facet normal 0 1 0
    outer loop
      vertex -7.53664 4.75 -4.42705
      vertex -1.35447e-015 4.75 -6.1
      vertex 10.8 4.75 -9.5
    endloop
  endfacet
  facet normal 0 1 0
    outer loop
      vertex 10.8 4.75 -9.5
      vertex 5.28275 4.75 -3.05
      vertex 5.28275 4.75 0.05
    endloop
  endfacet
  facet normal 0 1 0
    outer loop
      vertex 10.8 4.75 -9.5
      vertex 5.28275 4.75 0.05
      vertex 10.8 4.75 0.05
    endloop
  endfacet
  facet normal 0 1 0
    outer loop
      vertex -8.37295 4.75 -4.85317
      vertex 10.8 4.75 -9.5
      vertex -9.3 4.75 -5
    endloop
  endfacet
  facet normal 0 1 0
    outer loop
      vertex -6.87295 4.75 -0.236644
      vertex -7.15959 4.75 0.05
      vertex -5.28275 4.75 0.05
    endloop
  endfacet
  facet normal 0 1 0
    outer loop
      vertex -5.28275 4.75 -3.05
      vertex -6.87295 4.75 -0.236644
      vertex -5.28275 4.75 0.05
    endloop
  endfacet
  facet normal 0 -1 -2.22045e-016
    outer loop
      vertex -6.755 2.15 -3.53186
      vertex -6.755 2.15 -3.9
      vertex -6.44683 2.15 -2.92705
    endloop
  endfacet
  facet normal 0 -1 -2.22045e-016
    outer loop
      vertex -6.755 2.15 -3.9
      vertex 1.73195e-015 2.15 -7.8
      vertex -6.44683 2.15 -2.92705
    endloop
  endfacet
  facet normal 0 -1 -2.22045e-016
    outer loop
      vertex -5.28275 2.15 -3.05
      vertex -6.44683 2.15 -1.07295
      vertex -6.3 2.15 -2
    endloop
  endfacet
  facet normal 0 -1 -2.22045e-016
    outer loop
      vertex 5.28275 2.15 -3.05
      vertex -1.35447e-015 2.15 -6.1
      vertex 6.755 2.15 -3.9
    endloop
  endfacet
  facet normal 0 -1 -2.22045e-016
    outer loop
      vertex -5.28275 2.15 -3.05
      vertex -6.755 2.15 -0.468136
      vertex -6.44683 2.15 -1.07295
    endloop
  endfacet
  facet normal 0 -1 -2.22045e-016
    outer loop
      vertex 6.755 2.15 -3.9
      vertex 6.755 2.15 0.05
      vertex 5.28275 2.15 -3.05
    endloop
  endfacet
  facet normal 0 -1 -2.22045e-016
    outer loop
      vertex -5.28275 2.15 -3.05
      vertex -5.28275 2.15 0.05
      vertex -6.755 2.15 -0.468136
    endloop
  endfacet
  facet normal 0 -1 -2.22045e-016
    outer loop
      vertex 1.73195e-015 2.15 -7.8
      vertex 6.755 2.15 -3.9
      vertex -1.35447e-015 2.15 -6.1
    endloop
  endfacet
  facet normal 0 -1 -2.22045e-016
    outer loop
      vertex -6.44683 2.15 -2.92705
      vertex -5.28275 2.15 -3.05
      vertex -6.3 2.15 -2
    endloop
  endfacet
  facet normal 0 -1 -2.22045e-016
    outer loop
      vertex -6.44683 2.15 -2.92705
      vertex 1.73195e-015 2.15 -7.8
      vertex -5.28275 2.15 -3.05
    endloop
  endfacet
  facet normal 0 -1 -2.22045e-016
    outer loop
      vertex -5.28275 2.15 0.05
      vertex -6.755 2.15 0.05
      vertex -6.755 2.15 -0.468136
    endloop
  endfacet
  facet normal 0 -1 -2.22045e-016
    outer loop
      vertex 5.28275 2.15 0.05
      vertex 5.28275 2.15 -3.05
      vertex 6.755 2.15 0.05
    endloop
  endfacet
  facet normal 0 -1 -2.22045e-016
    outer loop
      vertex -1.35447e-015 2.15 -6.1
      vertex -5.28275 2.15 -3.05
      vertex 1.73195e-015 2.15 -7.8
    endloop
  endfacet
  facet normal -0.987688 -3.47353e-017 -0.156434
    outer loop
      vertex -6.3 4.75 -2
      vertex -6.3 2.15 -2
      vertex -6.44683 4.75 -1.07295
    endloop
  endfacet
  facet normal -0.987688 -3.47353e-017 -0.156434
    outer loop
      vertex -6.44683 4.75 -1.07295
      vertex -6.3 2.15 -2
      vertex -6.44683 2.15 -1.07295
    endloop
  endfacet
  facet normal 1 -4.93038e-032 -2.22045e-016
    outer loop
      vertex -5.28275 4.75 -3.05
      vertex -5.28275 4.75 0.05
      vertex -5.28275 2.15 0.05
    endloop
  endfacet
  facet normal 1 -4.93038e-032 -2.22045e-016
    outer loop
      vertex -5.28275 2.15 -3.05
      vertex -5.28275 4.75 -3.05
      vertex -5.28275 2.15 0.05
    endloop
  endfacet
  facet normal -1 4.93038e-032 2.22045e-016
    outer loop
      vertex 5.28275 4.75 0.05
      vertex 5.28275 4.75 -3.05
      vertex 5.28275 2.15 0.05
    endloop
  endfacet
  facet normal -1 4.93038e-032 2.22045e-016
    outer loop
      vertex 5.28275 2.15 0.05
      vertex 5.28275 4.75 -3.05
      vertex 5.28275 2.15 -3.05
    endloop
  endfacet
  facet normal 0.987688 0.156434 0
    outer loop
      vertex 6.8 -1.5 0.05
      vertex 6.87342 -1.96353 0.05
      vertex 6.87342 -1.96353 -9.5
    endloop
  endfacet
  facet normal 0.987688 0.156434 0
    outer loop
      vertex 6.8 -1.5 -9.5
      vertex 6.8 -1.5 0.05
      vertex 6.87342 -1.96353 -9.5
    endloop
  endfacet
  facet normal 0.987688 -0.156434 0
    outer loop
      vertex 6.87342 -1.03648 -9.5
      vertex 6.87342 -1.03648 0.05
      vertex 6.8 -1.5 0.05
    endloop
  endfacet
  facet normal 0.987688 -0.156434 0
    outer loop
      vertex 6.8 -1.5 -9.5
      vertex 6.87342 -1.03648 -9.5
      vertex 6.8 -1.5 0.05
    endloop
  endfacet
  facet normal 0.891006 0.453991 0
    outer loop
      vertex 6.87342 -1.96353 0.05
      vertex 7.08648 -2.38168 0.05
      vertex 7.08648 -2.38168 -9.5
    endloop
  endfacet
  facet normal 0.891006 0.453991 0
    outer loop
      vertex 6.87342 -1.96353 -9.5
      vertex 6.87342 -1.96353 0.05
      vertex 7.08648 -2.38168 -9.5
    endloop
  endfacet
  facet normal 0.707107 0.707107 0
    outer loop
      vertex 7.41832 -2.71352 0.05
      vertex 7.41832 -2.71352 -9.5
      vertex 7.08648 -2.38168 0.05
    endloop
  endfacet
  facet normal 0.707107 0.707107 0
    outer loop
      vertex 7.08648 -2.38168 0.05
      vertex 7.41832 -2.71352 -9.5
      vertex 7.08648 -2.38168 -9.5
    endloop
  endfacet
  facet normal 0.453991 0.891006 0
    outer loop
      vertex 7.83648 -2.92658 0.05
      vertex 7.83648 -2.92658 -9.5
      vertex 7.41832 -2.71352 0.05
    endloop
  endfacet
  facet normal 0.453991 0.891006 0
    outer loop
      vertex 7.41832 -2.71352 0.05
      vertex 7.83648 -2.92658 -9.5
      vertex 7.41832 -2.71352 -9.5
    endloop
  endfacet
  facet normal 0.156434 0.987688 0
    outer loop
      vertex 8.3 -3 0.05
      vertex 8.3 -3 -9.5
      vertex 7.83648 -2.92658 0.05
    endloop
  endfacet
  facet normal 0.156434 0.987688 0
    outer loop
      vertex 7.83648 -2.92658 0.05
      vertex 8.3 -3 -9.5
      vertex 7.83648 -2.92658 -9.5
    endloop
  endfacet
  facet normal -0.156434 0.987688 0
    outer loop
      vertex 8.76352 -2.92658 0.05
      vertex 8.76352 -2.92658 -9.5
      vertex 8.3 -3 0.05
    endloop
  endfacet
  facet normal -0.156434 0.987688 0
    outer loop
      vertex 8.3 -3 0.05
      vertex 8.76352 -2.92658 -9.5
      vertex 8.3 -3 -9.5
    endloop
  endfacet
  facet normal -0.453991 0.891006 0
    outer loop
      vertex 9.18168 -2.71352 0.05
      vertex 9.18168 -2.71352 -9.5
      vertex 8.76352 -2.92658 0.05
    endloop
  endfacet
  facet normal -0.453991 0.891006 0
    outer loop
      vertex 8.76352 -2.92658 0.05
      vertex 9.18168 -2.71352 -9.5
      vertex 8.76352 -2.92658 -9.5
    endloop
  endfacet
  facet normal -0.707107 0.707107 0
    outer loop
      vertex 9.51352 -2.38168 0.05
      vertex 9.51352 -2.38168 -9.5
      vertex 9.18168 -2.71352 0.05
    endloop
  endfacet
  facet normal -0.707107 0.707107 0
    outer loop
      vertex 9.18168 -2.71352 0.05
      vertex 9.51352 -2.38168 -9.5
      vertex 9.18168 -2.71352 -9.5
    endloop
  endfacet
  facet normal -0.891006 0.453991 0
    outer loop
      vertex 9.72659 -1.96353 0.05
      vertex 9.72659 -1.96353 -9.5
      vertex 9.51352 -2.38168 0.05
    endloop
  endfacet
  facet normal -0.891006 0.453991 0
    outer loop
      vertex 9.51352 -2.38168 0.05
      vertex 9.72659 -1.96353 -9.5
      vertex 9.51352 -2.38168 -9.5
    endloop
  endfacet
  facet normal -0.987688 0.156434 0
    outer loop
      vertex 9.8 -1.5 0.05
      vertex 9.8 -1.5 -9.5
      vertex 9.72659 -1.96353 0.05
    endloop
  endfacet
  facet normal -0.987688 0.156434 0
    outer loop
      vertex 9.72659 -1.96353 0.05
      vertex 9.8 -1.5 -9.5
      vertex 9.72659 -1.96353 -9.5
    endloop
  endfacet
  facet normal -0.987688 -0.156434 0
    outer loop
      vertex 9.8 -1.5 0.05
      vertex 9.72659 -1.03648 0.05
      vertex 9.8 -1.5 -9.5
    endloop
  endfacet
  facet normal -0.987688 -0.156434 0
    outer loop
      vertex 9.8 -1.5 -9.5
      vertex 9.72659 -1.03648 0.05
      vertex 9.72659 -1.03648 -9.5
    endloop
  endfacet
  facet normal -0.891006 -0.453991 0
    outer loop
      vertex 9.72659 -1.03648 0.05
      vertex 9.51352 -0.618322 0.05
      vertex 9.72659 -1.03648 -9.5
    endloop
  endfacet
  facet normal -0.891006 -0.453991 0
    outer loop
      vertex 9.72659 -1.03648 -9.5
      vertex 9.51352 -0.618322 0.05
      vertex 9.51352 -0.618322 -9.5
    endloop
  endfacet
  facet normal -0.707107 -0.707107 0
    outer loop
      vertex 9.51352 -0.618322 -9.5
      vertex 9.51352 -0.618322 0.05
      vertex 9.18168 -0.286475 0.05
    endloop
  endfacet
  facet normal -0.707107 -0.707107 0
    outer loop
      vertex 9.18168 -0.286475 -9.5
      vertex 9.51352 -0.618322 -9.5
      vertex 9.18168 -0.286475 0.05
    endloop
  endfacet
  facet normal -0.453991 -0.891006 0
    outer loop
      vertex 9.18168 -0.286475 -9.5
      vertex 9.18168 -0.286475 0.05
      vertex 8.76352 -0.073415 0.05
    endloop
  endfacet
  facet normal -0.453991 -0.891006 0
    outer loop
      vertex 8.76352 -0.073415 -9.5
      vertex 9.18168 -0.286475 -9.5
      vertex 8.76352 -0.073415 0.05
    endloop
  endfacet
  facet normal -0.156434 -0.987688 0
    outer loop
      vertex 8.76352 -0.073415 -9.5
      vertex 8.76352 -0.073415 0.05
      vertex 8.3 0 0.05
    endloop
  endfacet
  facet normal -0.156434 -0.987688 0
    outer loop
      vertex 8.3 0 -9.5
      vertex 8.76352 -0.073415 -9.5
      vertex 8.3 0 0.05
    endloop
  endfacet
  facet normal 0.156434 -0.987688 0
    outer loop
      vertex 8.3 0 -9.5
      vertex 8.3 0 0.05
      vertex 7.83648 -0.073415 0.05
    endloop
  endfacet
  facet normal 0.156434 -0.987688 0
    outer loop
      vertex 7.83648 -0.073415 -9.5
      vertex 8.3 0 -9.5
      vertex 7.83648 -0.073415 0.05
    endloop
  endfacet
  facet normal 0.453991 -0.891006 0
    outer loop
      vertex 7.83648 -0.073415 -9.5
      vertex 7.83648 -0.073415 0.05
      vertex 7.41832 -0.286475 0.05
    endloop
  endfacet
  facet normal 0.453991 -0.891006 0
    outer loop
      vertex 7.41832 -0.286475 -9.5
      vertex 7.83648 -0.073415 -9.5
      vertex 7.41832 -0.286475 0.05
    endloop
  endfacet
  facet normal 0.707107 -0.707107 0
    outer loop
      vertex 7.41832 -0.286475 -9.5
      vertex 7.41832 -0.286475 0.05
      vertex 7.08648 -0.618322 0.05
    endloop
  endfacet
  facet normal 0.707107 -0.707107 0
    outer loop
      vertex 7.08648 -0.618322 -9.5
      vertex 7.41832 -0.286475 -9.5
      vertex 7.08648 -0.618322 0.05
    endloop
  endfacet
  facet normal 0.891006 -0.453991 0
    outer loop
      vertex 7.08648 -0.618322 -9.5
      vertex 7.08648 -0.618322 0.05
      vertex 6.87342 -1.03648 0.05
    endloop
  endfacet
  facet normal 0.891006 -0.453991 0
    outer loop
      vertex 6.87342 -1.03648 -9.5
      vertex 7.08648 -0.618322 -9.5
      vertex 6.87342 -1.03648 0.05
    endloop
  endfacet
  facet normal -0.987688 3.47353e-017 0.156434
    outer loop
      vertex -6.3 4.75 -2
      vertex -6.44683 4.75 -2.92705
      vertex -6.3 2.15 -2
    endloop
  endfacet
  facet normal -0.987688 3.47353e-017 0.156434
    outer loop
      vertex -6.3 2.15 -2
      vertex -6.44683 4.75 -2.92705
      vertex -6.44683 2.15 -2.92705
    endloop
  endfacet
  facet normal -0.5 1.92296e-016 0.866025
    outer loop
      vertex 5.28275 2.15 -3.05
      vertex 5.28275 4.75 -3.05
      vertex -1.35447e-015 4.75 -6.1
    endloop
  endfacet
  facet normal -0.5 1.92296e-016 0.866025
    outer loop
      vertex -1.35447e-015 2.15 -6.1
      vertex 5.28275 2.15 -3.05
      vertex -1.35447e-015 4.75 -6.1
    endloop
  endfacet
  facet normal 0.5 1.92296e-016 0.866025
    outer loop
      vertex -1.35447e-015 2.15 -6.1
      vertex -1.35447e-015 4.75 -6.1
      vertex -5.28275 4.75 -3.05
    endloop
  endfacet
  facet normal 0.5 1.92296e-016 0.866025
    outer loop
      vertex -5.28275 2.15 -3.05
      vertex -1.35447e-015 2.15 -6.1
      vertex -5.28275 4.75 -3.05
    endloop
  endfacet
endsolid OpenSCAD_Model
