solid OpenSCAD_Model
  facet normal -1 0 0
    outer loop
      vertex 28.35 35.5 34.5
      vertex 28.35 37.5 34.5
      vertex 28.35 35.5 11.25
    endloop
  endfacet
  facet normal -1 0 0
    outer loop
      vertex 28.35 35.5 11.25
      vertex 28.35 37.5 34.5
      vertex 28.35 37.5 11.25
    endloop
  endfacet
  facet normal 0 0 -1
    outer loop
      vertex 28.35 37.5 11.25
      vertex 30.35 37.5 11.25
      vertex 28.35 35.5 11.25
    endloop
  endfacet
  facet normal 0 0 -1
    outer loop
      vertex 28.35 35.5 11.25
      vertex 30.35 37.5 11.25
      vertex 30.35 35.5 11.25
    endloop
  endfacet
  facet normal 0 1 0
    outer loop
      vertex 28.35 37.5 34.5
      vertex 30.35 37.5 34.5
      vertex 28.35 37.5 11.25
    endloop
  endfacet
  facet normal 0 1 0
    outer loop
      vertex 28.35 37.5 11.25
      vertex 30.35 37.5 34.5
      vertex 30.35 37.5 11.25
    endloop
  endfacet
  facet normal 0 -1 0
    outer loop
      vertex 28.35 35.5 11.25
      vertex 30.35 35.5 11.25
      vertex 30.35 35.5 34.5
    endloop
  endfacet
  facet normal 0 -1 0
    outer loop
      vertex 28.35 35.5 34.5
      vertex 28.35 35.5 11.25
      vertex 30.35 35.5 34.5
    endloop
  endfacet
  facet normal 0 0 1
    outer loop
      vertex 28.35 35.5 34.5
      vertex 30.35 35.5 34.5
      vertex 30.35 37.5 34.5
    endloop
  endfacet
  facet normal 0 0 1
    outer loop
      vertex 28.35 37.5 34.5
      vertex 28.35 35.5 34.5
      vertex 30.35 37.5 34.5
    endloop
  endfacet
  facet normal 1 0 0
    outer loop
      vertex 30.35 35.5 11.25
      vertex 30.35 37.5 11.25
      vertex 30.35 37.5 34.5
    endloop
  endfacet
  facet normal 1 0 0
    outer loop
      vertex 30.35 35.5 34.5
      vertex 30.35 35.5 11.25
      vertex 30.35 37.5 34.5
    endloop
  endfacet
  facet normal -1 0 0
    outer loop
      vertex -30.35 35.5 34.5
      vertex -30.35 37.5 34.5
      vertex -30.35 35.5 11.25
    endloop
  endfacet
  facet normal -1 0 0
    outer loop
      vertex -30.35 35.5 11.25
      vertex -30.35 37.5 34.5
      vertex -30.35 37.5 11.25
    endloop
  endfacet
  facet normal 0 0 -1
    outer loop
      vertex -30.35 37.5 11.25
      vertex -28.35 37.5 11.25
      vertex -30.35 35.5 11.25
    endloop
  endfacet
  facet normal 0 0 -1
    outer loop
      vertex -30.35 35.5 11.25
      vertex -28.35 37.5 11.25
      vertex -28.35 35.5 11.25
    endloop
  endfacet
  facet normal 0 1 0
    outer loop
      vertex -30.35 37.5 34.5
      vertex -28.35 37.5 34.5
      vertex -30.35 37.5 11.25
    endloop
  endfacet
  facet normal 0 1 0
    outer loop
      vertex -30.35 37.5 11.25
      vertex -28.35 37.5 34.5
      vertex -28.35 37.5 11.25
    endloop
  endfacet
  facet normal 0 -1 0
    outer loop
      vertex -30.35 35.5 11.25
      vertex -28.35 35.5 11.25
      vertex -28.35 35.5 34.5
    endloop
  endfacet
  facet normal 0 -1 0
    outer loop
      vertex -30.35 35.5 34.5
      vertex -30.35 35.5 11.25
      vertex -28.35 35.5 34.5
    endloop
  endfacet
  facet normal 0 0 1
    outer loop
      vertex -30.35 35.5 34.5
      vertex -28.35 35.5 34.5
      vertex -28.35 37.5 34.5
    endloop
  endfacet
  facet normal 0 0 1
    outer loop
      vertex -30.35 37.5 34.5
      vertex -30.35 35.5 34.5
      vertex -28.35 37.5 34.5
    endloop
  endfacet
  facet normal 1 0 0
    outer loop
      vertex -28.35 35.5 11.25
      vertex -28.35 37.5 11.25
      vertex -28.35 37.5 34.5
    endloop
  endfacet
  facet normal 1 0 0
    outer loop
      vertex -28.35 35.5 34.5
      vertex -28.35 35.5 11.25
      vertex -28.35 37.5 34.5
    endloop
  endfacet
  facet normal -1 0 0
    outer loop
      vertex -28.35 35.5 45
      vertex -28.35 37.5 45
      vertex -28.35 35.5 2
    endloop
  endfacet
  facet normal -1 0 0
    outer loop
      vertex -28.35 35.5 2
      vertex -28.35 37.5 45
      vertex -28.35 37.5 2
    endloop
  endfacet
  facet normal 0 0 -1
    outer loop
      vertex -28.35 37.5 2
      vertex 28.35 37.5 2
      vertex -28.35 35.5 2
    endloop
  endfacet
  facet normal 0 0 -1
    outer loop
      vertex -28.35 35.5 2
      vertex 28.35 37.5 2
      vertex 28.35 35.5 2
    endloop
  endfacet
  facet normal 0 1 0
    outer loop
      vertex 9.64791 37.5 19.2453
      vertex 28.35 37.5 45
      vertex 28.35 37.5 2
    endloop
  endfacet
  facet normal 0 1 0
    outer loop
      vertex -28.35 37.5 45
      vertex -16.8765 37.5 39.6415
      vertex -28.35 37.5 2
    endloop
  endfacet
  facet normal 0 1 0
    outer loop
      vertex -16.8765 37.5 39.6415
      vertex -16.5322 37.5 39.5708
      vertex -28.35 37.5 2
    endloop
  endfacet
  facet normal 0 1 0
    outer loop
      vertex -14.3659 37.5 40.1509
      vertex 28.35 37.5 45
      vertex -11.3091 37.5 40.1509
    endloop
  endfacet
  facet normal 0 1 0
    outer loop
      vertex -16.5322 37.5 39.5708
      vertex -14.7606 37.5 39.2028
      vertex -28.35 37.5 2
    endloop
  endfacet
  facet normal 0 1 0
    outer loop
      vertex -9.33087 37.5 39.9575
      vertex 28.35 37.5 45
      vertex -7.35267 37.5 39.6462
    endloop
  endfacet
  facet normal 0 1 0
    outer loop
      vertex -14.7606 37.5 39.2028
      vertex -13.2551 37.5 38.7453
      vertex -28.35 37.5 2
    endloop
  endfacet
  facet normal 0 1 0
    outer loop
      vertex -13.2551 37.5 38.7453
      vertex -11.9746 37.5 38.184
      vertex -28.35 37.5 2
    endloop
  endfacet
  facet normal 0 1 0
    outer loop
      vertex -7.35267 37.5 39.6462
      vertex 28.35 37.5 45
      vertex -5.40201 37.5 39.2217
    endloop
  endfacet
  facet normal 0 1 0
    outer loop
      vertex -11.9746 37.5 38.184
      vertex -10.8776 37.5 37.5047
      vertex -28.35 37.5 2
    endloop
  endfacet
  facet normal 0 1 0
    outer loop
      vertex -5.40201 37.5 39.2217
      vertex 28.35 37.5 45
      vertex -3.51102 37.5 38.6934
    endloop
  endfacet
  facet normal 0 1 0
    outer loop
      vertex -10.8776 37.5 37.5047
      vertex -10.2213 37.5 36.9198
      vertex -28.35 37.5 2
    endloop
  endfacet
  facet normal 0 1 0
    outer loop
      vertex -10.2213 37.5 36.9198
      vertex -9.66133 37.5 36.2736
      vertex -28.35 37.5 2
    endloop
  endfacet
  facet normal 0 1 0
    outer loop
      vertex -3.51102 37.5 38.6934
      vertex 28.35 37.5 45
      vertex -1.70723 37.5 38.0708
    endloop
  endfacet
  facet normal 0 1 0
    outer loop
      vertex -9.66133 37.5 36.2736
      vertex -9.27579 37.5 35.6321
      vertex -28.35 37.5 2
    endloop
  endfacet
  facet normal 0 1 0
    outer loop
      vertex -9.27579 37.5 35.6321
      vertex -9.00499 37.5 34.9717
      vertex -28.35 37.5 2
    endloop
  endfacet
  facet normal 0 1 0
    outer loop
      vertex -1.70723 37.5 38.0708
      vertex 28.35 37.5 45
      vertex -0.0227768 37.5 37.3679
    endloop
  endfacet
  facet normal 0 1 0
    outer loop
      vertex -9.00499 37.5 34.9717
      vertex -8.83058 37.5 34.2264
      vertex -28.35 37.5 2
    endloop
  endfacet
  facet normal 0 1 0
    outer loop
      vertex -0.0227768 37.5 37.3679
      vertex 28.35 37.5 45
      vertex 1.5148 37.5 36.5896
    endloop
  endfacet
  facet normal 0 1 0
    outer loop
      vertex -8.83058 37.5 34.2264
      vertex -8.7296 37.5 33.3302
      vertex -9.53282 37.5 32.2264
    endloop
  endfacet
  facet normal 0 1 0
    outer loop
      vertex -8.83058 37.5 34.2264
      vertex -9.53282 37.5 32.2264
      vertex -10.2672 37.5 31.2689
    endloop
  endfacet
  facet normal 0 1 0
    outer loop
      vertex -8.83058 37.5 34.2264
      vertex -10.2672 37.5 31.2689
      vertex -10.9098 37.5 30.2358
    endloop
  endfacet
  facet normal 0 1 0
    outer loop
      vertex -8.83058 37.5 34.2264
      vertex -10.9098 37.5 30.2358
      vertex -28.35 37.5 2
    endloop
  endfacet
  facet normal 0 1 0
    outer loop
      vertex -11.4513 37.5 29.1274
      vertex -28.35 37.5 2
      vertex -10.9098 37.5 30.2358
    endloop
  endfacet
  facet normal 0 1 0
    outer loop
      vertex -11.8828 37.5 27.9623
      vertex -28.35 37.5 2
      vertex -11.4513 37.5 29.1274
    endloop
  endfacet
  facet normal 0 1 0
    outer loop
      vertex 1.5148 37.5 36.5896
      vertex 28.35 37.5 45
      vertex 2.87338 37.5 35.7453
    endloop
  endfacet
  facet normal 0 1 0
    outer loop
      vertex -1.84033 37.5 27.6745
      vertex -3.57068 37.5 26.717
      vertex -2.4829 37.5 27.4717
    endloop
  endfacet
  facet normal 0 1 0
    outer loop
      vertex 4.00247 37.5 35.1415
      vertex 28.35 37.5 45
      vertex 4.77355 37.5 34.7264
    endloop
  endfacet
  facet normal 0 1 0
    outer loop
      vertex -11.8828 37.5 27.9623
      vertex -12.1995 37.5 26.7406
      vertex -28.35 37.5 2
    endloop
  endfacet
  facet normal 0 1 0
    outer loop
      vertex -12.1995 37.5 26.7406
      vertex -12.3785 37.5 25.5566
      vertex -28.35 37.5 2
    endloop
  endfacet
  facet normal 0 1 0
    outer loop
      vertex -12.3555 37.5 22.5755
      vertex 0.762077 37.5 27.1462
      vertex -4.15359 37.5 22.5755
    endloop
  endfacet
  facet normal 0 1 0
    outer loop
      vertex -0.463396 37.5 27.6745
      vertex -4.30505 37.5 25.5991
      vertex -1.15186 37.5 27.7453
    endloop
  endfacet
  facet normal 0 1 0
    outer loop
      vertex 4.77355 37.5 34.7264
      vertex 28.35 37.5 45
      vertex 6.20098 37.5 33.7217
    endloop
  endfacet
  facet normal 0 1 0
    outer loop
      vertex -3.06581 37.5 27.1462
      vertex -2.4829 37.5 27.4717
      vertex -3.57068 37.5 26.717
    endloop
  endfacet
  facet normal 0 1 0
    outer loop
      vertex -1.15186 37.5 27.7453
      vertex -3.99294 37.5 26.1981
      vertex -1.84033 37.5 27.6745
    endloop
  endfacet
  facet normal 0 1 0
    outer loop
      vertex -3.57068 37.5 26.717
      vertex -1.84033 37.5 27.6745
      vertex -3.99294 37.5 26.1981
    endloop
  endfacet
  facet normal 0 1 0
    outer loop
      vertex -0.463396 37.5 27.6745
      vertex -4.31882 37.5 25.5566
      vertex -4.30505 37.5 25.5991
    endloop
  endfacet
  facet normal 0 1 0
    outer loop
      vertex -3.99294 37.5 26.1981
      vertex -1.15186 37.5 27.7453
      vertex -4.30505 37.5 25.5991
    endloop
  endfacet
  facet normal 0 1 0
    outer loop
      vertex 6.20098 37.5 33.7217
      vertex 28.35 37.5 45
      vertex 7.46776 37.5 32.5142
    endloop
  endfacet
  facet normal 0 1 0
    outer loop
      vertex -4.31882 37.5 25.5566
      vertex 0.179174 37.5 27.4717
      vertex 0.762077 37.5 27.1462
    endloop
  endfacet
  facet normal 0 1 0
    outer loop
      vertex 7.46776 37.5 32.5142
      vertex 28.35 37.5 45
      vertex 8.55554 37.5 31.1226
    endloop
  endfacet
  facet normal 0 1 0
    outer loop
      vertex -4.15359 37.5 22.5755
      vertex 1.26695 37.5 26.717
      vertex -3.99294 37.5 22.2642
    endloop
  endfacet
  facet normal 0 1 0
    outer loop
      vertex -3.99294 37.5 22.2642
      vertex 1.68921 37.5 26.1981
      vertex -3.57068 37.5 21.7453
    endloop
  endfacet
  facet normal 0 1 0
    outer loop
      vertex -0.463396 37.5 20.783
      vertex 1.26695 37.5 21.7453
      vertex 0.179174 37.5 20.9906
    endloop
  endfacet
  facet normal 0 1 0
    outer loop
      vertex -2.4829 37.5 20.9906
      vertex 2.20327 37.5 24.9387
      vertex 2.27212 37.5 24.2311
    endloop
  endfacet
  facet normal 0 1 0
    outer loop
      vertex -1.84033 37.5 20.783
      vertex 2.27212 37.5 24.2311
      vertex 2.20327 37.5 23.5236
    endloop
  endfacet
  facet normal 0 1 0
    outer loop
      vertex -1.15186 37.5 20.7123
      vertex 2.20327 37.5 23.5236
      vertex 2.00132 37.5 22.8632
    endloop
  endfacet
  facet normal 0 1 0
    outer loop
      vertex -0.463396 37.5 20.783
      vertex 1.68921 37.5 22.2642
      vertex 1.26695 37.5 21.7453
    endloop
  endfacet
  facet normal 0 1 0
    outer loop
      vertex 0.179174 37.5 20.9906
      vertex 1.26695 37.5 21.7453
      vertex 0.762077 37.5 21.3113
    endloop
  endfacet
  facet normal 0 1 0
    outer loop
      vertex -1.15186 37.5 20.7123
      vertex 1.68921 37.5 22.2642
      vertex -0.463396 37.5 20.783
    endloop
  endfacet
  facet normal 0 1 0
    outer loop
      vertex -1.15186 37.5 20.7123
      vertex 2.00132 37.5 22.8632
      vertex 1.68921 37.5 22.2642
    endloop
  endfacet
  facet normal 0 1 0
    outer loop
      vertex -7.94016 37.5 14.5472
      vertex -28.35 37.5 2
      vertex -9.22989 37.5 15.7547
    endloop
  endfacet
  facet normal 0 1 0
    outer loop
      vertex -1.84033 37.5 20.783
      vertex 2.20327 37.5 23.5236
      vertex -1.15186 37.5 20.7123
    endloop
  endfacet
  facet normal 0 1 0
    outer loop
      vertex -2.4829 37.5 20.9906
      vertex 2.27212 37.5 24.2311
      vertex -1.84033 37.5 20.783
    endloop
  endfacet
  facet normal 0 1 0
    outer loop
      vertex -3.06581 37.5 21.3113
      vertex 2.20327 37.5 24.9387
      vertex -2.4829 37.5 20.9906
    endloop
  endfacet
  facet normal 0 1 0
    outer loop
      vertex 1.68921 37.5 26.1981
      vertex 2.00132 37.5 25.5991
      vertex -3.57068 37.5 21.7453
    endloop
  endfacet
  facet normal 0 1 0
    outer loop
      vertex 1.26695 37.5 26.717
      vertex 1.68921 37.5 26.1981
      vertex -3.99294 37.5 22.2642
    endloop
  endfacet
  facet normal 0 1 0
    outer loop
      vertex -12.3555 37.5 22.5755
      vertex -4.31882 37.5 25.5566
      vertex 0.762077 37.5 27.1462
    endloop
  endfacet
  facet normal 0 1 0
    outer loop
      vertex 0.762077 37.5 27.1462
      vertex 1.26695 37.5 26.717
      vertex -4.15359 37.5 22.5755
    endloop
  endfacet
  facet normal 0 1 0
    outer loop
      vertex -12.3785 37.5 25.5566
      vertex -4.31882 37.5 25.5566
      vertex -12.3555 37.5 22.5755
    endloop
  endfacet
  facet normal 0 1 0
    outer loop
      vertex -12.3785 37.5 25.5566
      vertex -12.3555 37.5 22.5755
      vertex -28.35 37.5 2
    endloop
  endfacet
  facet normal 0 1 0
    outer loop
      vertex -10.336 37.5 17.1557
      vertex -28.35 37.5 2
      vertex -10.8088 37.5 17.9151
    endloop
  endfacet
  facet normal 0 1 0
    outer loop
      vertex -12.3555 37.5 22.5755
      vertex -12.3188 37.5 22.2453
      vertex -28.35 37.5 2
    endloop
  endfacet
  facet normal 0 1 0
    outer loop
      vertex -12.3188 37.5 22.2453
      vertex -12.1398 37.5 21.3208
      vertex -28.35 37.5 2
    endloop
  endfacet
  facet normal 0 1 0
    outer loop
      vertex -12.1398 37.5 21.3208
      vertex -11.9011 37.5 20.4245
      vertex -28.35 37.5 2
    endloop
  endfacet
  facet normal 0 1 0
    outer loop
      vertex -11.9011 37.5 20.4245
      vertex -11.5936 37.5 19.5519
      vertex -28.35 37.5 2
    endloop
  endfacet
  facet normal 0 1 0
    outer loop
      vertex -4.31882 37.5 25.5566
      vertex -0.463396 37.5 27.6745
      vertex 0.179174 37.5 27.4717
    endloop
  endfacet
  facet normal 0 1 0
    outer loop
      vertex -9.22989 37.5 15.7547
      vertex -28.35 37.5 2
      vertex -10.336 37.5 17.1557
    endloop
  endfacet
  facet normal 0 1 0
    outer loop
      vertex 5.6043 37.5 8.68396
      vertex 28.35 37.5 2
      vertex 3.65364 37.5 9.10849
    endloop
  endfacet
  facet normal 0 1 0
    outer loop
      vertex -28.35 37.5 2
      vertex -7.94016 37.5 14.5472
      vertex -7.23333 37.5 14.0189
    endloop
  endfacet
  facet normal 0 1 0
    outer loop
      vertex -28.35 37.5 2
      vertex -7.23333 37.5 14.0189
      vertex -6.48979 37.5 13.5472
    endloop
  endfacet
  facet normal 0 1 0
    outer loop
      vertex -28.35 37.5 2
      vertex -6.48979 37.5 13.5472
      vertex -5.70952 37.5 13.1321
    endloop
  endfacet
  facet normal 0 1 0
    outer loop
      vertex -28.35 37.5 2
      vertex -5.70952 37.5 13.1321
      vertex -4.89713 37.5 12.783
    endloop
  endfacet
  facet normal 0 1 0
    outer loop
      vertex -28.35 37.5 2
      vertex -4.89713 37.5 12.783
      vertex -4.62174 37.5 12.5849
    endloop
  endfacet
  facet normal 0 1 0
    outer loop
      vertex -28.35 37.5 2
      vertex -4.62174 37.5 12.5849
      vertex -3.26317 37.5 11.7406
    endloop
  endfacet
  facet normal 0 1 0
    outer loop
      vertex -28.35 37.5 2
      vertex -3.26317 37.5 11.7406
      vertex -1.72559 37.5 10.9623
    endloop
  endfacet
  facet normal 0 1 0
    outer loop
      vertex -28.35 37.5 2
      vertex -1.72559 37.5 10.9623
      vertex -0.041136 37.5 10.2594
    endloop
  endfacet
  facet normal 0 1 0
    outer loop
      vertex -28.35 37.5 2
      vertex -0.041136 37.5 10.2594
      vertex 1.76265 37.5 9.63679
    endloop
  endfacet
  facet normal 0 1 0
    outer loop
      vertex -28.35 37.5 2
      vertex 1.76265 37.5 9.63679
      vertex 28.35 37.5 2
    endloop
  endfacet
  facet normal 0 1 0
    outer loop
      vertex 1.76265 37.5 9.63679
      vertex 3.65364 37.5 9.10849
      vertex 28.35 37.5 2
    endloop
  endfacet
  facet normal 0 1 0
    outer loop
      vertex 7.5825 37.5 8.37264
      vertex 28.35 37.5 2
      vertex 5.6043 37.5 8.68396
    endloop
  endfacet
  facet normal 0 1 0
    outer loop
      vertex 9.55611 37.5 8.17925
      vertex 28.35 37.5 2
      vertex 7.5825 37.5 8.37264
    endloop
  endfacet
  facet normal 0 1 0
    outer loop
      vertex 11.1075 37.5 8.15094
      vertex 28.35 37.5 2
      vertex 9.55611 37.5 8.17925
    endloop
  endfacet
  facet normal 0 1 0
    outer loop
      vertex 8.47292 37.5 11.4151
      vertex 7.52742 37.5 12.7028
      vertex 9.12467 37.5 10.8255
    endloop
  endfacet
  facet normal 0 1 0
    outer loop
      vertex 11.1075 37.5 8.15094
      vertex 12.6129 37.5 8.18396
      vertex 28.35 37.5 2
    endloop
  endfacet
  facet normal 0 1 0
    outer loop
      vertex 12.6129 37.5 8.18396
      vertex 13.9715 37.5 8.36321
      vertex 28.35 37.5 2
    endloop
  endfacet
  facet normal 0 1 0
    outer loop
      vertex 7.7615 37.5 16.1651
      vertex 15.1235 37.5 8.6934
      vertex 14.7793 37.5 8.76415
    endloop
  endfacet
  facet normal 0 1 0
    outer loop
      vertex 13.9715 37.5 8.36321
      vertex 15.0547 37.5 8.63208
      vertex 28.35 37.5 2
    endloop
  endfacet
  facet normal 0 1 0
    outer loop
      vertex 13.0076 37.5 9.13208
      vertex 6.9537 37.5 15.2925
      vertex 14.7793 37.5 8.76415
    endloop
  endfacet
  facet normal 0 1 0
    outer loop
      vertex 15.0547 37.5 8.63208
      vertex 15.1235 37.5 8.6934
      vertex 28.35 37.5 2
    endloop
  endfacet
  facet normal 0 1 0
    outer loop
      vertex 7.7615 37.5 16.1651
      vertex 14.7793 37.5 8.76415
      vertex 6.9537 37.5 15.2925
    endloop
  endfacet
  facet normal 0 1 0
    outer loop
      vertex 7.25663 37.5 13.3632
      vertex 9.12467 37.5 10.8255
      vertex 7.52742 37.5 12.7028
    endloop
  endfacet
  facet normal 0 1 0
    outer loop
      vertex 7.52742 37.5 12.7028
      vertex 8.47292 37.5 11.4151
      vertex 7.91297 37.5 12.0613
    endloop
  endfacet
  facet normal 0 1 0
    outer loop
      vertex 7.07762 37.5 14.1085
      vertex 10.2216 37.5 10.1462
      vertex 7.25663 37.5 13.3632
    endloop
  endfacet
  facet normal 0 1 0
    outer loop
      vertex 9.12467 37.5 10.8255
      vertex 7.25663 37.5 13.3632
      vertex 10.2216 37.5 10.1462
    endloop
  endfacet
  facet normal 0 1 0
    outer loop
      vertex 6.97665 37.5 15.0047
      vertex 11.5022 37.5 9.58962
      vertex 7.07762 37.5 14.1085
    endloop
  endfacet
  facet normal 0 1 0
    outer loop
      vertex 6.9537 37.5 15.2925
      vertex 13.0076 37.5 9.13208
      vertex 6.97665 37.5 15.0047
    endloop
  endfacet
  facet normal 0 1 0
    outer loop
      vertex 11.5022 37.5 9.58962
      vertex 6.97665 37.5 15.0047
      vertex 13.0076 37.5 9.13208
    endloop
  endfacet
  facet normal 0 1 0
    outer loop
      vertex 10.2216 37.5 10.1462
      vertex 7.07762 37.5 14.1085
      vertex 11.5022 37.5 9.58962
    endloop
  endfacet
  facet normal 0 1 0
    outer loop
      vertex 8.48669 37.5 17.1179
      vertex 28.35 37.5 2
      vertex 7.7615 37.5 16.1651
    endloop
  endfacet
  facet normal 0 1 0
    outer loop
      vertex 15.1235 37.5 8.6934
      vertex 7.7615 37.5 16.1651
      vertex 28.35 37.5 2
    endloop
  endfacet
  facet normal 0 1 0
    outer loop
      vertex 9.11549 37.5 18.1462
      vertex 28.35 37.5 2
      vertex 8.48669 37.5 17.1179
    endloop
  endfacet
  facet normal 0 1 0
    outer loop
      vertex 9.64791 37.5 19.2453
      vertex 28.35 37.5 2
      vertex 9.11549 37.5 18.1462
    endloop
  endfacet
  facet normal 0 1 0
    outer loop
      vertex 10.0748 37.5 20.4009
      vertex 28.35 37.5 45
      vertex 9.64791 37.5 19.2453
    endloop
  endfacet
  facet normal 0 1 0
    outer loop
      vertex 8.55554 37.5 31.1226
      vertex 28.35 37.5 45
      vertex 9.43678 37.5 29.566
    endloop
  endfacet
  facet normal 0 1 0
    outer loop
      vertex 10.3869 37.5 21.6085
      vertex 28.35 37.5 45
      vertex 10.0748 37.5 20.4009
    endloop
  endfacet
  facet normal 0 1 0
    outer loop
      vertex 10.5796 37.5 22.8679
      vertex 28.35 37.5 45
      vertex 10.3869 37.5 21.6085
    endloop
  endfacet
  facet normal 0 1 0
    outer loop
      vertex 10.6439 37.5 24.1651
      vertex 28.35 37.5 45
      vertex 10.5796 37.5 22.8679
    endloop
  endfacet
  facet normal 0 1 0
    outer loop
      vertex 10.6072 37.5 25.1274
      vertex 28.35 37.5 45
      vertex 10.6439 37.5 24.1651
    endloop
  endfacet
  facet normal 0 1 0
    outer loop
      vertex 10.5016 37.5 26.066
      vertex 28.35 37.5 45
      vertex 10.6072 37.5 25.1274
    endloop
  endfacet
  facet normal 0 1 0
    outer loop
      vertex 10.3318 37.5 26.9858
      vertex 28.35 37.5 45
      vertex 10.5016 37.5 26.066
    endloop
  endfacet
  facet normal 0 1 0
    outer loop
      vertex 10.0931 37.5 27.8726
      vertex 28.35 37.5 45
      vertex 10.3318 37.5 26.9858
    endloop
  endfacet
  facet normal 0 1 0
    outer loop
      vertex 9.79478 37.5 28.7358
      vertex 28.35 37.5 45
      vertex 10.0931 37.5 27.8726
    endloop
  endfacet
  facet normal 0 1 0
    outer loop
      vertex 9.43678 37.5 29.566
      vertex 28.35 37.5 45
      vertex 9.79478 37.5 28.7358
    endloop
  endfacet
  facet normal 0 1 0
    outer loop
      vertex 2.20327 37.5 24.9387
      vertex -3.06581 37.5 21.3113
      vertex 2.00132 37.5 25.5991
    endloop
  endfacet
  facet normal 0 1 0
    outer loop
      vertex -3.57068 37.5 21.7453
      vertex 2.00132 37.5 25.5991
      vertex -3.06581 37.5 21.3113
    endloop
  endfacet
  facet normal 0 1 0
    outer loop
      vertex 3.20384 37.5 35.5
      vertex 28.35 37.5 45
      vertex 4.00247 37.5 35.1415
    endloop
  endfacet
  facet normal 0 1 0
    outer loop
      vertex 2.87338 37.5 35.7453
      vertex 28.35 37.5 45
      vertex 3.20384 37.5 35.5
    endloop
  endfacet
  facet normal 0 1 0
    outer loop
      vertex -11.3091 37.5 40.1509
      vertex 28.35 37.5 45
      vertex -9.33087 37.5 39.9575
    endloop
  endfacet
  facet normal 0 1 0
    outer loop
      vertex -28.35 37.5 45
      vertex 28.35 37.5 45
      vertex -14.3659 37.5 40.1509
    endloop
  endfacet
  facet normal 0 1 0
    outer loop
      vertex -28.35 37.5 45
      vertex -14.3659 37.5 40.1509
      vertex -15.7244 37.5 39.9717
    endloop
  endfacet
  facet normal 0 1 0
    outer loop
      vertex -28.35 37.5 45
      vertex -15.7244 37.5 39.9717
      vertex -16.8076 37.5 39.7028
    endloop
  endfacet
  facet normal 0 1 0
    outer loop
      vertex -28.35 37.5 45
      vertex -16.8076 37.5 39.7028
      vertex -16.8765 37.5 39.6415
    endloop
  endfacet
  facet normal 0 1 0
    outer loop
      vertex -9.53282 37.5 32.2264
      vertex -8.7296 37.5 33.3302
      vertex -8.71124 37.5 33.1038
    endloop
  endfacet
  facet normal 0 1 0
    outer loop
      vertex -10.8088 37.5 17.9151
      vertex -28.35 37.5 2
      vertex -11.231 37.5 18.717
    endloop
  endfacet
  facet normal 0 1 0
    outer loop
      vertex -11.231 37.5 18.717
      vertex -28.35 37.5 2
      vertex -11.5936 37.5 19.5519
    endloop
  endfacet
  facet normal 0 -1 0
    outer loop
      vertex 9.43678 35.5 29.566
      vertex 28.35 35.5 2
      vertex 28.35 35.5 45
    endloop
  endfacet
  facet normal 0 -1 0
    outer loop
      vertex -28.35 35.5 45
      vertex -28.35 35.5 2
      vertex -16.8765 35.5 39.6415
    endloop
  endfacet
  facet normal 0 -1 0
    outer loop
      vertex 2.00132 35.5 25.5991
      vertex 1.68921 35.5 26.1981
      vertex -3.57068 35.5 21.7453
    endloop
  endfacet
  facet normal 0 -1 0
    outer loop
      vertex -28.35 35.5 45
      vertex -16.8765 35.5 39.6415
      vertex -16.8076 35.5 39.7028
    endloop
  endfacet
  facet normal 0 -1 0
    outer loop
      vertex -28.35 35.5 45
      vertex -16.8076 35.5 39.7028
      vertex -15.7244 35.5 39.9717
    endloop
  endfacet
  facet normal 0 -1 0
    outer loop
      vertex -28.35 35.5 45
      vertex -14.3659 35.5 40.1509
      vertex 28.35 35.5 45
    endloop
  endfacet
  facet normal 0 -1 0
    outer loop
      vertex -28.35 35.5 45
      vertex -15.7244 35.5 39.9717
      vertex -14.3659 35.5 40.1509
    endloop
  endfacet
  facet normal 0 -1 0
    outer loop
      vertex -11.3091 35.5 40.1509
      vertex -9.33087 35.5 39.9575
      vertex 28.35 35.5 45
    endloop
  endfacet
  facet normal 0 -1 0
    outer loop
      vertex -9.33087 35.5 39.9575
      vertex -7.35267 35.5 39.6462
      vertex 28.35 35.5 45
    endloop
  endfacet
  facet normal 0 -1 0
    outer loop
      vertex -7.35267 35.5 39.6462
      vertex -5.40201 35.5 39.2217
      vertex 28.35 35.5 45
    endloop
  endfacet
  facet normal 0 -1 0
    outer loop
      vertex -5.40201 35.5 39.2217
      vertex -3.51102 35.5 38.6934
      vertex 28.35 35.5 45
    endloop
  endfacet
  facet normal 0 -1 0
    outer loop
      vertex -3.51102 35.5 38.6934
      vertex -1.70723 35.5 38.0708
      vertex 28.35 35.5 45
    endloop
  endfacet
  facet normal 0 -1 0
    outer loop
      vertex -1.70723 35.5 38.0708
      vertex -0.0227768 35.5 37.3679
      vertex 28.35 35.5 45
    endloop
  endfacet
  facet normal 0 -1 0
    outer loop
      vertex -0.0227768 35.5 37.3679
      vertex 1.5148 35.5 36.5896
      vertex 28.35 35.5 45
    endloop
  endfacet
  facet normal 0 -1 0
    outer loop
      vertex 1.5148 35.5 36.5896
      vertex 2.87338 35.5 35.7453
      vertex 28.35 35.5 45
    endloop
  endfacet
  facet normal 0 -1 0
    outer loop
      vertex 2.87338 35.5 35.7453
      vertex 3.20384 35.5 35.5
      vertex 28.35 35.5 45
    endloop
  endfacet
  facet normal 0 -1 0
    outer loop
      vertex -11.9011 35.5 20.4245
      vertex -12.1398 35.5 21.3208
      vertex -28.35 35.5 2
    endloop
  endfacet
  facet normal 0 -1 0
    outer loop
      vertex 3.20384 35.5 35.5
      vertex 4.00247 35.5 35.1415
      vertex 28.35 35.5 45
    endloop
  endfacet
  facet normal 0 -1 0
    outer loop
      vertex 4.00247 35.5 35.1415
      vertex 4.77355 35.5 34.7264
      vertex 28.35 35.5 45
    endloop
  endfacet
  facet normal 0 -1 0
    outer loop
      vertex 4.77355 35.5 34.7264
      vertex 6.20098 35.5 33.7217
      vertex 28.35 35.5 45
    endloop
  endfacet
  facet normal 0 -1 0
    outer loop
      vertex 6.20098 35.5 33.7217
      vertex 7.46776 35.5 32.5142
      vertex 28.35 35.5 45
    endloop
  endfacet
  facet normal 0 -1 0
    outer loop
      vertex 7.46776 35.5 32.5142
      vertex 8.55554 35.5 31.1226
      vertex 28.35 35.5 45
    endloop
  endfacet
  facet normal 0 -1 0
    outer loop
      vertex 1.76265 35.5 9.63679
      vertex -0.041136 35.5 10.2594
      vertex -28.35 35.5 2
    endloop
  endfacet
  facet normal 0 -1 0
    outer loop
      vertex 9.79478 35.5 28.7358
      vertex 28.35 35.5 2
      vertex 9.43678 35.5 29.566
    endloop
  endfacet
  facet normal 0 -1 0
    outer loop
      vertex 10.0931 35.5 27.8726
      vertex 28.35 35.5 2
      vertex 9.79478 35.5 28.7358
    endloop
  endfacet
  facet normal 0 -1 0
    outer loop
      vertex 10.3318 35.5 26.9858
      vertex 28.35 35.5 2
      vertex 10.0931 35.5 27.8726
    endloop
  endfacet
  facet normal 0 -1 0
    outer loop
      vertex 10.5016 35.5 26.066
      vertex 28.35 35.5 2
      vertex 10.3318 35.5 26.9858
    endloop
  endfacet
  facet normal 0 -1 0
    outer loop
      vertex 10.6072 35.5 25.1274
      vertex 28.35 35.5 2
      vertex 10.5016 35.5 26.066
    endloop
  endfacet
  facet normal 0 -1 0
    outer loop
      vertex 10.6439 35.5 24.1651
      vertex 28.35 35.5 2
      vertex 10.6072 35.5 25.1274
    endloop
  endfacet
  facet normal 0 -1 0
    outer loop
      vertex 10.5796 35.5 22.8679
      vertex 28.35 35.5 2
      vertex 10.6439 35.5 24.1651
    endloop
  endfacet
  facet normal 0 -1 0
    outer loop
      vertex -7.23333 35.5 14.0189
      vertex -7.94016 35.5 14.5472
      vertex -28.35 35.5 2
    endloop
  endfacet
  facet normal 0 -1 0
    outer loop
      vertex 10.3869 35.5 21.6085
      vertex 28.35 35.5 2
      vertex 10.5796 35.5 22.8679
    endloop
  endfacet
  facet normal 0 -1 0
    outer loop
      vertex 10.0748 35.5 20.4009
      vertex 28.35 35.5 2
      vertex 10.3869 35.5 21.6085
    endloop
  endfacet
  facet normal 0 -1 0
    outer loop
      vertex 9.64791 35.5 19.2453
      vertex 28.35 35.5 2
      vertex 10.0748 35.5 20.4009
    endloop
  endfacet
  facet normal 0 -1 0
    outer loop
      vertex 9.11549 35.5 18.1462
      vertex 28.35 35.5 2
      vertex 9.64791 35.5 19.2453
    endloop
  endfacet
  facet normal 0 -1 0
    outer loop
      vertex 8.48669 35.5 17.1179
      vertex 28.35 35.5 2
      vertex 9.11549 35.5 18.1462
    endloop
  endfacet
  facet normal 0 -1 0
    outer loop
      vertex -4.62174 35.5 12.5849
      vertex -4.89713 35.5 12.783
      vertex -28.35 35.5 2
    endloop
  endfacet
  facet normal 0 -1 0
    outer loop
      vertex 7.7615 35.5 16.1651
      vertex 28.35 35.5 2
      vertex 8.48669 35.5 17.1179
    endloop
  endfacet
  facet normal 0 -1 0
    outer loop
      vertex -6.48979 35.5 13.5472
      vertex -7.23333 35.5 14.0189
      vertex -28.35 35.5 2
    endloop
  endfacet
  facet normal 0 -1 0
    outer loop
      vertex 6.9537 35.5 15.2925
      vertex 28.35 35.5 2
      vertex 7.7615 35.5 16.1651
    endloop
  endfacet
  facet normal 0 -1 0
    outer loop
      vertex 6.97665 35.5 15.0047
      vertex 28.35 35.5 2
      vertex 6.9537 35.5 15.2925
    endloop
  endfacet
  facet normal 0 -1 0
    outer loop
      vertex 7.07762 35.5 14.1085
      vertex 28.35 35.5 2
      vertex 6.97665 35.5 15.0047
    endloop
  endfacet
  facet normal 0 -1 0
    outer loop
      vertex 7.25663 35.5 13.3632
      vertex 28.35 35.5 2
      vertex 7.07762 35.5 14.1085
    endloop
  endfacet
  facet normal 0 -1 0
    outer loop
      vertex 7.52742 35.5 12.7028
      vertex 28.35 35.5 2
      vertex 7.25663 35.5 13.3632
    endloop
  endfacet
  facet normal 0 -1 0
    outer loop
      vertex 15.1235 35.5 8.6934
      vertex 28.35 35.5 2
      vertex 7.52742 35.5 12.7028
    endloop
  endfacet
  facet normal 0 -1 0
    outer loop
      vertex 13.0076 35.5 9.13208
      vertex 7.91297 35.5 12.0613
      vertex 8.47292 35.5 11.4151
    endloop
  endfacet
  facet normal 0 -1 0
    outer loop
      vertex 10.2216 35.5 10.1462
      vertex 11.5022 35.5 9.58962
      vertex 9.12467 35.5 10.8255
    endloop
  endfacet
  facet normal 0 -1 0
    outer loop
      vertex 5.6043 35.5 8.68396
      vertex 3.65364 35.5 9.10849
      vertex -28.35 35.5 2
    endloop
  endfacet
  facet normal 0 -1 0
    outer loop
      vertex 9.12467 35.5 10.8255
      vertex 13.0076 35.5 9.13208
      vertex 8.47292 35.5 11.4151
    endloop
  endfacet
  facet normal 0 -1 0
    outer loop
      vertex -1.72559 35.5 10.9623
      vertex -3.26317 35.5 11.7406
      vertex -28.35 35.5 2
    endloop
  endfacet
  facet normal 0 -1 0
    outer loop
      vertex 7.91297 35.5 12.0613
      vertex 14.7793 35.5 8.76415
      vertex 7.52742 35.5 12.7028
    endloop
  endfacet
  facet normal 0 -1 0
    outer loop
      vertex 14.7793 35.5 8.76415
      vertex 15.1235 35.5 8.6934
      vertex 7.52742 35.5 12.7028
    endloop
  endfacet
  facet normal 0 -1 0
    outer loop
      vertex 15.0547 35.5 8.63208
      vertex 28.35 35.5 2
      vertex 15.1235 35.5 8.6934
    endloop
  endfacet
  facet normal 0 -1 0
    outer loop
      vertex 1.68921 35.5 22.2642
      vertex 2.00132 35.5 22.8632
      vertex -1.15186 35.5 20.7123
    endloop
  endfacet
  facet normal 0 -1 0
    outer loop
      vertex -28.35 35.5 2
      vertex 28.35 35.5 2
      vertex 13.9715 35.5 8.36321
    endloop
  endfacet
  facet normal 0 -1 0
    outer loop
      vertex -28.35 35.5 2
      vertex 13.9715 35.5 8.36321
      vertex 12.6129 35.5 8.18396
    endloop
  endfacet
  facet normal 0 -1 0
    outer loop
      vertex -28.35 35.5 2
      vertex 12.6129 35.5 8.18396
      vertex 11.1075 35.5 8.15094
    endloop
  endfacet
  facet normal 0 -1 0
    outer loop
      vertex -28.35 35.5 2
      vertex 11.1075 35.5 8.15094
      vertex 9.55611 35.5 8.17925
    endloop
  endfacet
  facet normal 0 -1 0
    outer loop
      vertex -28.35 35.5 2
      vertex 9.55611 35.5 8.17925
      vertex 7.5825 35.5 8.37264
    endloop
  endfacet
  facet normal 0 -1 0
    outer loop
      vertex 3.65364 35.5 9.10849
      vertex 1.76265 35.5 9.63679
      vertex -28.35 35.5 2
    endloop
  endfacet
  facet normal 0 -1 0
    outer loop
      vertex -28.35 35.5 2
      vertex 7.5825 35.5 8.37264
      vertex 5.6043 35.5 8.68396
    endloop
  endfacet
  facet normal 0 -1 0
    outer loop
      vertex -0.041136 35.5 10.2594
      vertex -1.72559 35.5 10.9623
      vertex -28.35 35.5 2
    endloop
  endfacet
  facet normal 0 -1 0
    outer loop
      vertex -3.26317 35.5 11.7406
      vertex -4.62174 35.5 12.5849
      vertex -28.35 35.5 2
    endloop
  endfacet
  facet normal 0 -1 0
    outer loop
      vertex -4.89713 35.5 12.783
      vertex -5.70952 35.5 13.1321
      vertex -28.35 35.5 2
    endloop
  endfacet
  facet normal 0 -1 0
    outer loop
      vertex -5.70952 35.5 13.1321
      vertex -6.48979 35.5 13.5472
      vertex -28.35 35.5 2
    endloop
  endfacet
  facet normal 0 -1 0
    outer loop
      vertex 0.762077 35.5 21.3113
      vertex 1.26695 35.5 21.7453
      vertex 0.179174 35.5 20.9906
    endloop
  endfacet
  facet normal 0 -1 0
    outer loop
      vertex 2.20327 35.5 24.9387
      vertex 2.00132 35.5 25.5991
      vertex -3.06581 35.5 21.3113
    endloop
  endfacet
  facet normal 0 -1 0
    outer loop
      vertex -3.99294 35.5 22.2642
      vertex -3.57068 35.5 21.7453
      vertex 1.68921 35.5 26.1981
    endloop
  endfacet
  facet normal 0 -1 0
    outer loop
      vertex -12.1398 35.5 21.3208
      vertex -12.3188 35.5 22.2453
      vertex -28.35 35.5 2
    endloop
  endfacet
  facet normal 0 -1 0
    outer loop
      vertex -12.3555 35.5 22.5755
      vertex -28.35 35.5 2
      vertex -12.3188 35.5 22.2453
    endloop
  endfacet
  facet normal 0 -1 0
    outer loop
      vertex -12.3785 35.5 25.5566
      vertex -12.1995 35.5 26.7406
      vertex -28.35 35.5 2
    endloop
  endfacet
  facet normal 0 -1 0
    outer loop
      vertex -10.8088 35.5 17.9151
      vertex -11.231 35.5 18.717
      vertex -28.35 35.5 2
    endloop
  endfacet
  facet normal 0 -1 0
    outer loop
      vertex 15.0547 35.5 8.63208
      vertex 13.9715 35.5 8.36321
      vertex 28.35 35.5 2
    endloop
  endfacet
  facet normal 0 -1 0
    outer loop
      vertex -10.336 35.5 17.1557
      vertex -10.8088 35.5 17.9151
      vertex -28.35 35.5 2
    endloop
  endfacet
  facet normal 0 -1 0
    outer loop
      vertex 11.5022 35.5 9.58962
      vertex 13.0076 35.5 9.13208
      vertex 9.12467 35.5 10.8255
    endloop
  endfacet
  facet normal 0 -1 0
    outer loop
      vertex -11.231 35.5 18.717
      vertex -11.5936 35.5 19.5519
      vertex -28.35 35.5 2
    endloop
  endfacet
  facet normal 0 -1 0
    outer loop
      vertex 1.68921 35.5 26.1981
      vertex 1.26695 35.5 26.717
      vertex -3.99294 35.5 22.2642
    endloop
  endfacet
  facet normal 0 -1 0
    outer loop
      vertex 1.26695 35.5 26.717
      vertex 0.762077 35.5 27.1462
      vertex -4.15359 35.5 22.5755
    endloop
  endfacet
  facet normal 0 -1 0
    outer loop
      vertex -3.06581 35.5 21.3113
      vertex -2.4829 35.5 20.9906
      vertex 2.20327 35.5 24.9387
    endloop
  endfacet
  facet normal 0 -1 0
    outer loop
      vertex 2.00132 35.5 22.8632
      vertex 2.20327 35.5 23.5236
      vertex -1.15186 35.5 20.7123
    endloop
  endfacet
  facet normal 0 -1 0
    outer loop
      vertex 1.26695 35.5 21.7453
      vertex -0.463396 35.5 20.783
      vertex 0.179174 35.5 20.9906
    endloop
  endfacet
  facet normal 0 -1 0
    outer loop
      vertex -9.22989 35.5 15.7547
      vertex -10.336 35.5 17.1557
      vertex -28.35 35.5 2
    endloop
  endfacet
  facet normal 0 -1 0
    outer loop
      vertex -9.53282 35.5 32.2264
      vertex -8.71124 35.5 33.1038
      vertex -8.7296 35.5 33.3302
    endloop
  endfacet
  facet normal 0 -1 0
    outer loop
      vertex 2.20327 35.5 23.5236
      vertex 2.27212 35.5 24.2311
      vertex -2.4829 35.5 20.9906
    endloop
  endfacet
  facet normal 0 -1 0
    outer loop
      vertex -0.463396 35.5 20.783
      vertex 1.68921 35.5 22.2642
      vertex -1.15186 35.5 20.7123
    endloop
  endfacet
  facet normal 0 -1 0
    outer loop
      vertex 2.20327 35.5 23.5236
      vertex -2.4829 35.5 20.9906
      vertex -1.84033 35.5 20.783
    endloop
  endfacet
  facet normal 0 -1 0
    outer loop
      vertex -3.57068 35.5 21.7453
      vertex -3.06581 35.5 21.3113
      vertex 2.00132 35.5 25.5991
    endloop
  endfacet
  facet normal 0 -1 0
    outer loop
      vertex 1.26695 35.5 21.7453
      vertex 1.68921 35.5 22.2642
      vertex -0.463396 35.5 20.783
    endloop
  endfacet
  facet normal 0 -1 0
    outer loop
      vertex -1.84033 35.5 20.783
      vertex -1.15186 35.5 20.7123
      vertex 2.20327 35.5 23.5236
    endloop
  endfacet
  facet normal 0 -1 0
    outer loop
      vertex 13.0076 35.5 9.13208
      vertex 14.7793 35.5 8.76415
      vertex 7.91297 35.5 12.0613
    endloop
  endfacet
  facet normal 0 -1 0
    outer loop
      vertex 1.26695 35.5 26.717
      vertex -4.15359 35.5 22.5755
      vertex -3.99294 35.5 22.2642
    endloop
  endfacet
  facet normal 0 -1 0
    outer loop
      vertex -1.84033 35.5 27.6745
      vertex -2.4829 35.5 27.4717
      vertex -4.30505 35.5 25.5991
    endloop
  endfacet
  facet normal 0 -1 0
    outer loop
      vertex 2.27212 35.5 24.2311
      vertex 2.20327 35.5 24.9387
      vertex -2.4829 35.5 20.9906
    endloop
  endfacet
  facet normal 0 -1 0
    outer loop
      vertex -12.3555 35.5 22.5755
      vertex -12.3785 35.5 25.5566
      vertex -28.35 35.5 2
    endloop
  endfacet
  facet normal 0 -1 0
    outer loop
      vertex -11.5936 35.5 19.5519
      vertex -11.9011 35.5 20.4245
      vertex -28.35 35.5 2
    endloop
  endfacet
  facet normal 0 -1 0
    outer loop
      vertex -2.4829 35.5 27.4717
      vertex -3.06581 35.5 27.1462
      vertex -3.99294 35.5 26.1981
    endloop
  endfacet
  facet normal 0 -1 0
    outer loop
      vertex -4.30505 35.5 25.5991
      vertex -4.31882 35.5 25.5566
      vertex -1.84033 35.5 27.6745
    endloop
  endfacet
  facet normal 0 -1 0
    outer loop
      vertex -4.31882 35.5 25.5566
      vertex -12.3785 35.5 25.5566
      vertex -12.3555 35.5 22.5755
    endloop
  endfacet
  facet normal 0 -1 0
    outer loop
      vertex -11.8828 35.5 27.9623
      vertex -28.35 35.5 2
      vertex -12.1995 35.5 26.7406
    endloop
  endfacet
  facet normal 0 -1 0
    outer loop
      vertex -10.9098 35.5 30.2358
      vertex -8.83058 35.5 34.2264
      vertex -28.35 35.5 2
    endloop
  endfacet
  facet normal 0 -1 0
    outer loop
      vertex -11.4513 35.5 29.1274
      vertex -28.35 35.5 2
      vertex -11.8828 35.5 27.9623
    endloop
  endfacet
  facet normal 0 -1 0
    outer loop
      vertex -10.9098 35.5 30.2358
      vertex -28.35 35.5 2
      vertex -11.4513 35.5 29.1274
    endloop
  endfacet
  facet normal 0 -1 0
    outer loop
      vertex -9.27579 35.5 35.6321
      vertex -9.66133 35.5 36.2736
      vertex -28.35 35.5 2
    endloop
  endfacet
  facet normal 0 -1 0
    outer loop
      vertex -8.7296 35.5 33.3302
      vertex -8.83058 35.5 34.2264
      vertex -10.2672 35.5 31.2689
    endloop
  endfacet
  facet normal 0 -1 0
    outer loop
      vertex -8.7296 35.5 33.3302
      vertex -10.2672 35.5 31.2689
      vertex -9.53282 35.5 32.2264
    endloop
  endfacet
  facet normal 0 -1 0
    outer loop
      vertex -10.2672 35.5 31.2689
      vertex -8.83058 35.5 34.2264
      vertex -10.9098 35.5 30.2358
    endloop
  endfacet
  facet normal 0 -1 0
    outer loop
      vertex -9.00499 35.5 34.9717
      vertex -28.35 35.5 2
      vertex -8.83058 35.5 34.2264
    endloop
  endfacet
  facet normal 0 -1 0
    outer loop
      vertex -9.27579 35.5 35.6321
      vertex -28.35 35.5 2
      vertex -9.00499 35.5 34.9717
    endloop
  endfacet
  facet normal 0 -1 0
    outer loop
      vertex -10.2213 35.5 36.9198
      vertex -10.8776 35.5 37.5047
      vertex -28.35 35.5 2
    endloop
  endfacet
  facet normal 0 -1 0
    outer loop
      vertex -10.2213 35.5 36.9198
      vertex -28.35 35.5 2
      vertex -9.66133 35.5 36.2736
    endloop
  endfacet
  facet normal 0 -1 0
    outer loop
      vertex -11.9746 35.5 38.184
      vertex -13.2551 35.5 38.7453
      vertex -28.35 35.5 2
    endloop
  endfacet
  facet normal 0 -1 0
    outer loop
      vertex -11.9746 35.5 38.184
      vertex -28.35 35.5 2
      vertex -10.8776 35.5 37.5047
    endloop
  endfacet
  facet normal 0 -1 0
    outer loop
      vertex -16.8765 35.5 39.6415
      vertex -28.35 35.5 2
      vertex -13.2551 35.5 38.7453
    endloop
  endfacet
  facet normal 0 -1 0
    outer loop
      vertex -16.8765 35.5 39.6415
      vertex -13.2551 35.5 38.7453
      vertex -14.7606 35.5 39.2028
    endloop
  endfacet
  facet normal 0 -1 0
    outer loop
      vertex -16.8765 35.5 39.6415
      vertex -14.7606 35.5 39.2028
      vertex -16.5322 35.5 39.5708
    endloop
  endfacet
  facet normal 0 -1 0
    outer loop
      vertex -14.3659 35.5 40.1509
      vertex -11.3091 35.5 40.1509
      vertex 28.35 35.5 45
    endloop
  endfacet
  facet normal 0 -1 0
    outer loop
      vertex 8.55554 35.5 31.1226
      vertex 9.43678 35.5 29.566
      vertex 28.35 35.5 45
    endloop
  endfacet
  facet normal 0 -1 0
    outer loop
      vertex -7.94016 35.5 14.5472
      vertex -9.22989 35.5 15.7547
      vertex -28.35 35.5 2
    endloop
  endfacet
  facet normal 0 -1 0
    outer loop
      vertex -3.57068 35.5 26.717
      vertex -3.99294 35.5 26.1981
      vertex -3.06581 35.5 27.1462
    endloop
  endfacet
  facet normal 0 -1 0
    outer loop
      vertex -3.99294 35.5 26.1981
      vertex -4.30505 35.5 25.5991
      vertex -2.4829 35.5 27.4717
    endloop
  endfacet
  facet normal 0 -1 0
    outer loop
      vertex -4.31882 35.5 25.5566
      vertex -1.15186 35.5 27.7453
      vertex -1.84033 35.5 27.6745
    endloop
  endfacet
  facet normal 0 -1 0
    outer loop
      vertex -4.31882 35.5 25.5566
      vertex -0.463396 35.5 27.6745
      vertex -1.15186 35.5 27.7453
    endloop
  endfacet
  facet normal 0 -1 0
    outer loop
      vertex -4.31882 35.5 25.5566
      vertex 0.179174 35.5 27.4717
      vertex -0.463396 35.5 27.6745
    endloop
  endfacet
  facet normal 0 -1 0
    outer loop
      vertex -4.31882 35.5 25.5566
      vertex 0.762077 35.5 27.1462
      vertex 0.179174 35.5 27.4717
    endloop
  endfacet
  facet normal 0 -1 0
    outer loop
      vertex -12.3555 35.5 22.5755
      vertex 0.762077 35.5 27.1462
      vertex -4.31882 35.5 25.5566
    endloop
  endfacet
  facet normal 0 -1 0
    outer loop
      vertex -12.3555 35.5 22.5755
      vertex -4.15359 35.5 22.5755
      vertex 0.762077 35.5 27.1462
    endloop
  endfacet
  facet normal 0 0 1
    outer loop
      vertex -28.35 35.5 45
      vertex 28.35 35.5 45
      vertex 28.35 37.5 45
    endloop
  endfacet
  facet normal 0 0 1
    outer loop
      vertex -28.35 37.5 45
      vertex -28.35 35.5 45
      vertex 28.35 37.5 45
    endloop
  endfacet
  facet normal 1 0 0
    outer loop
      vertex 28.35 35.5 2
      vertex 28.35 37.5 2
      vertex 28.35 37.5 45
    endloop
  endfacet
  facet normal 1 0 0
    outer loop
      vertex 28.35 35.5 45
      vertex 28.35 35.5 2
      vertex 28.35 37.5 45
    endloop
  endfacet
  facet normal 0.665112 2.4726e-016 -0.746743
    outer loop
      vertex -16.8076 37.5 39.7028
      vertex -16.8076 35.5 39.7028
      vertex -16.8765 37.5 39.6415
    endloop
  endfacet
  facet normal 0.665112 2.4726e-016 -0.746743
    outer loop
      vertex -16.8765 37.5 39.6415
      vertex -16.8076 35.5 39.7028
      vertex -16.8765 35.5 39.6415
    endloop
  endfacet
  facet normal 0.201334 -1.92842e-016 0.979523
    outer loop
      vertex -16.8765 37.5 39.6415
      vertex -16.8765 35.5 39.6415
      vertex -16.5322 35.5 39.5708
    endloop
  endfacet
  facet normal 0.201334 -1.92842e-016 0.979523
    outer loop
      vertex -16.5322 37.5 39.5708
      vertex -16.8765 37.5 39.6415
      vertex -16.5322 35.5 39.5708
    endloop
  endfacet
  facet normal 0.240908 2.45007e-016 -0.970548
    outer loop
      vertex -15.7244 37.5 39.9717
      vertex -15.7244 35.5 39.9717
      vertex -16.8076 37.5 39.7028
    endloop
  endfacet
  facet normal 0.240908 2.45007e-016 -0.970548
    outer loop
      vertex -16.8076 37.5 39.7028
      vertex -15.7244 35.5 39.9717
      vertex -16.8076 35.5 39.7028
    endloop
  endfacet
  facet normal 0.130802 2.36155e-016 -0.991408
    outer loop
      vertex -14.3659 37.5 40.1509
      vertex -14.3659 35.5 40.1509
      vertex -15.7244 37.5 39.9717
    endloop
  endfacet
  facet normal 0.130802 2.36155e-016 -0.991408
    outer loop
      vertex -15.7244 37.5 39.9717
      vertex -14.3659 35.5 40.1509
      vertex -15.7244 35.5 39.9717
    endloop
  endfacet
  facet normal -1.22461e-016 2.22045e-016 -1
    outer loop
      vertex -11.3091 37.5 40.1509
      vertex -11.3091 35.5 40.1509
      vertex -14.3659 37.5 40.1509
    endloop
  endfacet
  facet normal -1.22461e-016 2.22045e-016 -1
    outer loop
      vertex -14.3659 37.5 40.1509
      vertex -11.3091 35.5 40.1509
      vertex -14.3659 35.5 40.1509
    endloop
  endfacet
  facet normal -0.0972999 2.09076e-016 -0.995255
    outer loop
      vertex -9.33087 37.5 39.9575
      vertex -9.33087 35.5 39.9575
      vertex -11.3091 37.5 40.1509
    endloop
  endfacet
  facet normal -0.0972999 2.09076e-016 -0.995255
    outer loop
      vertex -11.3091 37.5 40.1509
      vertex -9.33087 35.5 39.9575
      vertex -11.3091 35.5 40.1509
    endloop
  endfacet
  facet normal -0.155462 2.00307e-016 -0.987842
    outer loop
      vertex -7.35267 37.5 39.6462
      vertex -7.35267 35.5 39.6462
      vertex -9.33087 37.5 39.9575
    endloop
  endfacet
  facet normal -0.155462 2.00307e-016 -0.987842
    outer loop
      vertex -9.33087 37.5 39.9575
      vertex -7.35267 35.5 39.6462
      vertex -9.33087 35.5 39.9575
    endloop
  endfacet
  facet normal -0.212655 1.90924e-016 -0.977127
    outer loop
      vertex -5.40201 37.5 39.2217
      vertex -5.40201 35.5 39.2217
      vertex -7.35267 37.5 39.6462
    endloop
  endfacet
  facet normal -0.212655 1.90924e-016 -0.977127
    outer loop
      vertex -7.35267 37.5 39.6462
      vertex -5.40201 35.5 39.2217
      vertex -7.35267 35.5 39.6462
    endloop
  endfacet
  facet normal -0.269074 1.80904e-016 -0.963119
    outer loop
      vertex -3.51102 37.5 38.6934
      vertex -3.51102 35.5 38.6934
      vertex -5.40201 37.5 39.2217
    endloop
  endfacet
  facet normal -0.269074 1.80904e-016 -0.963119
    outer loop
      vertex -5.40201 37.5 39.2217
      vertex -3.51102 35.5 38.6934
      vertex -5.40201 35.5 39.2217
    endloop
  endfacet
  facet normal -0.326293 1.69934e-016 -0.945269
    outer loop
      vertex -1.70723 37.5 38.0708
      vertex -1.70723 35.5 38.0708
      vertex -3.51102 37.5 38.6934
    endloop
  endfacet
  facet normal -0.326293 1.69934e-016 -0.945269
    outer loop
      vertex -3.51102 37.5 38.6934
      vertex -1.70723 35.5 38.0708
      vertex -3.51102 35.5 38.6934
    endloop
  endfacet
  facet normal -0.385071 1.57766e-016 -0.922887
    outer loop
      vertex -0.0227768 37.5 37.3679
      vertex -0.0227768 35.5 37.3679
      vertex -1.70723 37.5 38.0708
    endloop
  endfacet
  facet normal -0.385071 1.57766e-016 -0.922887
    outer loop
      vertex -1.70723 37.5 38.0708
      vertex -0.0227768 35.5 37.3679
      vertex -1.70723 35.5 38.0708
    endloop
  endfacet
  facet normal -0.451624 1.42804e-016 -0.892208
    outer loop
      vertex 1.5148 37.5 36.5896
      vertex 1.5148 35.5 36.5896
      vertex -0.0227768 37.5 37.3679
    endloop
  endfacet
  facet normal -0.451624 1.42804e-016 -0.892208
    outer loop
      vertex -0.0227768 37.5 37.3679
      vertex 1.5148 35.5 36.5896
      vertex -0.0227768 35.5 37.3679
    endloop
  endfacet
  facet normal -0.527852 1.23949e-016 -0.849336
    outer loop
      vertex 2.87338 37.5 35.7453
      vertex 2.87338 35.5 35.7453
      vertex 1.5148 37.5 36.5896
    endloop
  endfacet
  facet normal -0.527852 1.23949e-016 -0.849336
    outer loop
      vertex 1.5148 37.5 36.5896
      vertex 2.87338 35.5 35.7453
      vertex 1.5148 35.5 36.5896
    endloop
  endfacet
  facet normal -0.596003 1.05311e-016 -0.802982
    outer loop
      vertex 3.20384 37.5 35.5
      vertex 3.20384 35.5 35.5
      vertex 2.87338 37.5 35.7453
    endloop
  endfacet
  facet normal -0.596003 1.05311e-016 -0.802982
    outer loop
      vertex 2.87338 37.5 35.7453
      vertex 3.20384 35.5 35.5
      vertex 2.87338 35.5 35.7453
    endloop
  endfacet
  facet normal -0.409519 1.52422e-016 -0.912301
    outer loop
      vertex 4.00247 37.5 35.1415
      vertex 4.00247 35.5 35.1415
      vertex 3.20384 37.5 35.5
    endloop
  endfacet
  facet normal -0.409519 1.52422e-016 -0.912301
    outer loop
      vertex 3.20384 37.5 35.5
      vertex 4.00247 35.5 35.1415
      vertex 3.20384 35.5 35.5
    endloop
  endfacet
  facet normal -0.474007 1.37468e-016 -0.880521
    outer loop
      vertex 4.77355 37.5 34.7264
      vertex 4.77355 35.5 34.7264
      vertex 4.00247 37.5 35.1415
    endloop
  endfacet
  facet normal -0.474007 1.37468e-016 -0.880521
    outer loop
      vertex 4.00247 37.5 35.1415
      vertex 4.77355 35.5 34.7264
      vertex 4.00247 35.5 35.1415
    endloop
  endfacet
  facet normal -0.575583 1.11089e-016 -0.817743
    outer loop
      vertex 6.20098 37.5 33.7217
      vertex 6.20098 35.5 33.7217
      vertex 4.77355 37.5 34.7264
    endloop
  endfacet
  facet normal -0.575583 1.11089e-016 -0.817743
    outer loop
      vertex 4.77355 37.5 34.7264
      vertex 6.20098 35.5 33.7217
      vertex 4.77355 35.5 34.7264
    endloop
  endfacet
  facet normal -0.689981 7.62264e-017 -0.723827
    outer loop
      vertex 7.46776 37.5 32.5142
      vertex 7.46776 35.5 32.5142
      vertex 6.20098 37.5 33.7217
    endloop
  endfacet
  facet normal -0.689981 7.62264e-017 -0.723827
    outer loop
      vertex 6.20098 37.5 33.7217
      vertex 7.46776 35.5 32.5142
      vertex 6.20098 35.5 33.7217
    endloop
  endfacet
  facet normal -0.787842 4.02725e-017 -0.615877
    outer loop
      vertex 8.55554 37.5 31.1226
      vertex 8.55554 35.5 31.1226
      vertex 7.46776 37.5 32.5142
    endloop
  endfacet
  facet normal -0.787842 4.02725e-017 -0.615877
    outer loop
      vertex 7.46776 37.5 32.5142
      vertex 8.55554 35.5 31.1226
      vertex 7.46776 35.5 32.5142
    endloop
  endfacet
  facet normal -0.870223 2.82418e-018 -0.492659
    outer loop
      vertex 9.43678 37.5 29.566
      vertex 9.43678 35.5 29.566
      vertex 8.55554 37.5 31.1226
    endloop
  endfacet
  facet normal -0.870223 2.82418e-018 -0.492659
    outer loop
      vertex 8.55554 37.5 31.1226
      vertex 9.43678 35.5 29.566
      vertex 8.55554 35.5 31.1226
    endloop
  endfacet
  facet normal -0.918258 -2.45249e-017 -0.395982
    outer loop
      vertex 9.79478 37.5 28.7358
      vertex 9.79478 35.5 28.7358
      vertex 9.43678 37.5 29.566
    endloop
  endfacet
  facet normal -0.918258 -2.45249e-017 -0.395982
    outer loop
      vertex 9.43678 37.5 29.566
      vertex 9.79478 35.5 28.7358
      vertex 9.43678 35.5 29.566
    endloop
  endfacet
  facet normal -0.945144 -4.3211e-017 -0.326654
    outer loop
      vertex 10.0931 37.5 27.8726
      vertex 10.0931 35.5 27.8726
      vertex 9.79478 37.5 28.7358
    endloop
  endfacet
  facet normal -0.945144 -4.3211e-017 -0.326654
    outer loop
      vertex 9.79478 37.5 28.7358
      vertex 10.0931 35.5 27.8726
      vertex 9.79478 35.5 28.7358
    endloop
  endfacet
  facet normal -0.965638 -6.05457e-017 -0.259889
    outer loop
      vertex 10.3318 37.5 26.9858
      vertex 10.3318 35.5 26.9858
      vertex 10.0931 37.5 27.8726
    endloop
  endfacet
  facet normal -0.965638 -6.05457e-017 -0.259889
    outer loop
      vertex 10.0931 37.5 27.8726
      vertex 10.3318 35.5 26.9858
      vertex 10.0931 35.5 27.8726
    endloop
  endfacet
  facet normal -0.98338 -8.01112e-017 -0.181559
    outer loop
      vertex 10.5016 37.5 26.066
      vertex 10.5016 35.5 26.066
      vertex 10.3318 37.5 26.9858
    endloop
  endfacet
  facet normal -0.98338 -8.01112e-017 -0.181559
    outer loop
      vertex 10.3318 37.5 26.9858
      vertex 10.5016 35.5 26.066
      vertex 10.3318 35.5 26.9858
    endloop
  endfacet
  facet normal -0.993736 -9.68785e-017 -0.111757
    outer loop
      vertex 10.6072 37.5 25.1274
      vertex 10.6072 35.5 25.1274
      vertex 10.5016 37.5 26.066
    endloop
  endfacet
  facet normal -0.993736 -9.68785e-017 -0.111757
    outer loop
      vertex 10.5016 37.5 26.066
      vertex 10.6072 35.5 25.1274
      vertex 10.5016 35.5 26.066
    endloop
  endfacet
  facet normal -0.999273 -1.13905e-016 -0.0381305
    outer loop
      vertex 10.6439 37.5 24.1651
      vertex 10.6439 35.5 24.1651
      vertex 10.6072 37.5 25.1274
    endloop
  endfacet
  facet normal -0.999273 -1.13905e-016 -0.0381305
    outer loop
      vertex 10.6072 37.5 25.1274
      vertex 10.6439 35.5 24.1651
      vertex 10.6072 35.5 25.1274
    endloop
  endfacet
  facet normal -0.998775 -1.33296e-016 0.0494757
    outer loop
      vertex 10.5796 35.5 22.8679
      vertex 10.6439 35.5 24.1651
      vertex 10.5796 37.5 22.8679
    endloop
  endfacet
  facet normal -0.998775 -1.33296e-016 0.0494757
    outer loop
      vertex 10.5796 37.5 22.8679
      vertex 10.6439 35.5 24.1651
      vertex 10.6439 37.5 24.1651
    endloop
  endfacet
  facet normal -0.988488 -1.54646e-016 0.1513
    outer loop
      vertex 10.3869 35.5 21.6085
      vertex 10.5796 35.5 22.8679
      vertex 10.3869 37.5 21.6085
    endloop
  endfacet
  facet normal -0.988488 -1.54646e-016 0.1513
    outer loop
      vertex 10.3869 37.5 21.6085
      vertex 10.5796 35.5 22.8679
      vertex 10.5796 37.5 22.8679
    endloop
  endfacet
  facet normal -0.968184 -1.74129e-016 0.250239
    outer loop
      vertex 10.0748 35.5 20.4009
      vertex 10.3869 35.5 21.6085
      vertex 10.0748 37.5 20.4009
    endloop
  endfacet
  facet normal -0.968184 -1.74129e-016 0.250239
    outer loop
      vertex 10.0748 37.5 20.4009
      vertex 10.3869 35.5 21.6085
      vertex 10.3869 37.5 21.6085
    endloop
  endfacet
  facet normal -0.938058 -1.91809e-016 0.346478
    outer loop
      vertex 9.64791 35.5 19.2453
      vertex 10.0748 35.5 20.4009
      vertex 9.64791 37.5 19.2453
    endloop
  endfacet
  facet normal -0.938058 -1.91809e-016 0.346478
    outer loop
      vertex 9.64791 37.5 19.2453
      vertex 10.0748 35.5 20.4009
      vertex 10.0748 37.5 20.4009
    endloop
  endfacet
  facet normal -0.899962 -2.07014e-016 0.435968
    outer loop
      vertex 9.11549 35.5 18.1462
      vertex 9.64791 35.5 19.2453
      vertex 9.11549 37.5 18.1462
    endloop
  endfacet
  facet normal -0.899962 -2.07014e-016 0.435968
    outer loop
      vertex 9.11549 37.5 18.1462
      vertex 9.64791 35.5 19.2453
      vertex 9.64791 37.5 19.2453
    endloop
  endfacet
  facet normal -0.853136 -2.20314e-016 0.521688
    outer loop
      vertex 8.48669 35.5 17.1179
      vertex 9.11549 35.5 18.1462
      vertex 8.48669 37.5 17.1179
    endloop
  endfacet
  facet normal -0.853136 -2.20314e-016 0.521688
    outer loop
      vertex 8.48669 37.5 17.1179
      vertex 9.11549 35.5 18.1462
      vertex 9.11549 37.5 18.1462
    endloop
  endfacet
  facet normal -0.795745 -2.31925e-016 0.605631
    outer loop
      vertex 7.7615 35.5 16.1651
      vertex 8.48669 35.5 17.1179
      vertex 7.7615 37.5 16.1651
    endloop
  endfacet
  facet normal -0.795745 -2.31925e-016 0.605631
    outer loop
      vertex 7.7615 37.5 16.1651
      vertex 8.48669 35.5 17.1179
      vertex 8.48669 37.5 17.1179
    endloop
  endfacet
  facet normal -0.733844 -2.40706e-016 0.679318
    outer loop
      vertex 6.9537 35.5 15.2925
      vertex 7.7615 35.5 16.1651
      vertex 6.9537 37.5 15.2925
    endloop
  endfacet
  facet normal -0.733844 -2.40706e-016 0.679318
    outer loop
      vertex 6.9537 37.5 15.2925
      vertex 7.7615 35.5 16.1651
      vertex 7.7615 37.5 16.1651
    endloop
  endfacet
  facet normal -0.996835 -1.04419e-016 -0.0795045
    outer loop
      vertex 6.97665 37.5 15.0047
      vertex 6.97665 35.5 15.0047
      vertex 6.9537 37.5 15.2925
    endloop
  endfacet
  facet normal -0.996835 -1.04419e-016 -0.0795045
    outer loop
      vertex 6.9537 37.5 15.2925
      vertex 6.97665 35.5 15.0047
      vertex 6.9537 35.5 15.2925
    endloop
  endfacet
  facet normal -0.993713 -9.68308e-017 -0.111959
    outer loop
      vertex 7.07762 37.5 14.1085
      vertex 7.07762 35.5 14.1085
      vertex 6.97665 37.5 15.0047
    endloop
  endfacet
  facet normal -0.993713 -9.68308e-017 -0.111959
    outer loop
      vertex 6.97665 37.5 15.0047
      vertex 7.07762 35.5 14.1085
      vertex 6.97665 35.5 15.0047
    endloop
  endfacet
  facet normal -0.972348 -6.72185e-017 -0.233538
    outer loop
      vertex 7.25663 37.5 13.3632
      vertex 7.25663 35.5 13.3632
      vertex 7.07762 37.5 14.1085
    endloop
  endfacet
  facet normal -0.972348 -6.72185e-017 -0.233538
    outer loop
      vertex 7.07762 37.5 14.1085
      vertex 7.25663 35.5 13.3632
      vertex 7.07762 35.5 14.1085
    endloop
  endfacet
  facet normal -0.925231 -2.90596e-017 -0.379405
    outer loop
      vertex 7.52742 37.5 12.7028
      vertex 7.52742 35.5 12.7028
      vertex 7.25663 37.5 13.3632
    endloop
  endfacet
  facet normal -0.925231 -2.90596e-017 -0.379405
    outer loop
      vertex 7.25663 37.5 13.3632
      vertex 7.52742 35.5 12.7028
      vertex 7.25663 35.5 13.3632
    endloop
  endfacet
  facet normal -0.857118 9.41667e-018 -0.515121
    outer loop
      vertex 7.91297 37.5 12.0613
      vertex 7.91297 35.5 12.0613
      vertex 7.52742 37.5 12.7028
    endloop
  endfacet
  facet normal -0.857118 9.41667e-018 -0.515121
    outer loop
      vertex 7.52742 37.5 12.7028
      vertex 7.91297 35.5 12.0613
      vertex 7.52742 35.5 12.7028
    endloop
  endfacet
  facet normal -0.755752 5.28578e-017 -0.654858
    outer loop
      vertex 8.47292 37.5 11.4151
      vertex 8.47292 35.5 11.4151
      vertex 7.91297 37.5 12.0613
    endloop
  endfacet
  facet normal -0.755752 5.28578e-017 -0.654858
    outer loop
      vertex 7.91297 37.5 12.0613
      vertex 8.47292 35.5 11.4151
      vertex 7.91297 35.5 12.0613
    endloop
  endfacet
  facet normal -0.670878 8.25048e-017 -0.741567
    outer loop
      vertex 9.12467 37.5 10.8255
      vertex 9.12467 35.5 10.8255
      vertex 8.47292 37.5 11.4151
    endloop
  endfacet
  facet normal -0.670878 8.25048e-017 -0.741567
    outer loop
      vertex 8.47292 37.5 11.4151
      vertex 9.12467 35.5 10.8255
      vertex 8.47292 35.5 11.4151
    endloop
  endfacet
  facet normal -0.526453 1.24314e-016 -0.850204
    outer loop
      vertex 10.2216 37.5 10.1462
      vertex 10.2216 35.5 10.1462
      vertex 9.12467 37.5 10.8255
    endloop
  endfacet
  facet normal -0.526453 1.24314e-016 -0.850204
    outer loop
      vertex 9.12467 37.5 10.8255
      vertex 10.2216 35.5 10.1462
      vertex 9.12467 35.5 10.8255
    endloop
  endfacet
  facet normal -0.398631 1.54823e-016 -0.917111
    outer loop
      vertex 11.5022 37.5 9.58962
      vertex 11.5022 35.5 9.58962
      vertex 10.2216 37.5 10.1462
    endloop
  endfacet
  facet normal -0.398631 1.54823e-016 -0.917111
    outer loop
      vertex 10.2216 37.5 10.1462
      vertex 11.5022 35.5 9.58962
      vertex 10.2216 35.5 10.1462
    endloop
  endfacet
  facet normal -0.290793 1.76838e-016 -0.956786
    outer loop
      vertex 13.0076 37.5 9.13208
      vertex 13.0076 35.5 9.13208
      vertex 11.5022 37.5 9.58962
    endloop
  endfacet
  facet normal -0.290793 1.76838e-016 -0.956786
    outer loop
      vertex 11.5022 37.5 9.58962
      vertex 13.0076 35.5 9.13208
      vertex 11.5022 35.5 9.58962
    endloop
  endfacet
  facet normal -0.203334 1.92506e-016 -0.979109
    outer loop
      vertex 14.7793 37.5 8.76415
      vertex 14.7793 35.5 8.76415
      vertex 13.0076 37.5 9.13208
    endloop
  endfacet
  facet normal -0.203334 1.92506e-016 -0.979109
    outer loop
      vertex 13.0076 37.5 9.13208
      vertex 14.7793 35.5 8.76415
      vertex 13.0076 35.5 9.13208
    endloop
  endfacet
  facet normal -0.201334 1.92842e-016 -0.979523
    outer loop
      vertex 15.1235 37.5 8.6934
      vertex 15.1235 35.5 8.6934
      vertex 14.7793 37.5 8.76415
    endloop
  endfacet
  facet normal -0.201334 1.92842e-016 -0.979523
    outer loop
      vertex 14.7793 37.5 8.76415
      vertex 15.1235 35.5 8.6934
      vertex 14.7793 35.5 8.76415
    endloop
  endfacet
  facet normal -0.665112 -2.4726e-016 0.746743
    outer loop
      vertex 15.0547 37.5 8.63208
      vertex 15.0547 35.5 8.63208
      vertex 15.1235 35.5 8.6934
    endloop
  endfacet
  facet normal -0.665112 -2.4726e-016 0.746743
    outer loop
      vertex 15.1235 37.5 8.6934
      vertex 15.0547 37.5 8.63208
      vertex 15.1235 35.5 8.6934
    endloop
  endfacet
  facet normal -0.240908 -2.45007e-016 0.970548
    outer loop
      vertex 13.9715 37.5 8.36321
      vertex 13.9715 35.5 8.36321
      vertex 15.0547 35.5 8.63208
    endloop
  endfacet
  facet normal -0.240908 -2.45007e-016 0.970548
    outer loop
      vertex 15.0547 37.5 8.63208
      vertex 13.9715 37.5 8.36321
      vertex 15.0547 35.5 8.63208
    endloop
  endfacet
  facet normal -0.130802 -2.36155e-016 0.991408
    outer loop
      vertex 12.6129 37.5 8.18396
      vertex 12.6129 35.5 8.18396
      vertex 13.9715 35.5 8.36321
    endloop
  endfacet
  facet normal -0.130802 -2.36155e-016 0.991408
    outer loop
      vertex 13.9715 37.5 8.36321
      vertex 12.6129 37.5 8.18396
      vertex 13.9715 35.5 8.36321
    endloop
  endfacet
  facet normal -0.0219276 -2.24676e-016 0.99976
    outer loop
      vertex 11.1075 37.5 8.15094
      vertex 11.1075 35.5 8.15094
      vertex 12.6129 35.5 8.18396
    endloop
  endfacet
  facet normal -0.0219276 -2.24676e-016 0.99976
    outer loop
      vertex 12.6129 37.5 8.18396
      vertex 11.1075 37.5 8.15094
      vertex 12.6129 35.5 8.18396
    endloop
  endfacet
  facet normal 0.0182404 -2.19774e-016 0.999834
    outer loop
      vertex 9.55611 37.5 8.17925
      vertex 9.55611 35.5 8.17925
      vertex 11.1075 35.5 8.15094
    endloop
  endfacet
  facet normal 0.0182404 -2.19774e-016 0.999834
    outer loop
      vertex 11.1075 37.5 8.15094
      vertex 9.55611 37.5 8.17925
      vertex 11.1075 35.5 8.15094
    endloop
  endfacet
  facet normal 0.0975241 -2.09043e-016 0.995233
    outer loop
      vertex 7.5825 37.5 8.37264
      vertex 7.5825 35.5 8.37264
      vertex 9.55611 35.5 8.17925
    endloop
  endfacet
  facet normal 0.0975241 -2.09043e-016 0.995233
    outer loop
      vertex 9.55611 37.5 8.17925
      vertex 7.5825 37.5 8.37264
      vertex 9.55611 35.5 8.17925
    endloop
  endfacet
  facet normal 0.155462 -2.00307e-016 0.987842
    outer loop
      vertex 5.6043 37.5 8.68396
      vertex 5.6043 35.5 8.68396
      vertex 7.5825 35.5 8.37264
    endloop
  endfacet
  facet normal 0.155462 -2.00307e-016 0.987842
    outer loop
      vertex 7.5825 37.5 8.37264
      vertex 5.6043 37.5 8.68396
      vertex 7.5825 35.5 8.37264
    endloop
  endfacet
  facet normal 0.212655 -1.90924e-016 0.977127
    outer loop
      vertex 3.65364 37.5 9.10849
      vertex 3.65364 35.5 9.10849
      vertex 5.6043 35.5 8.68396
    endloop
  endfacet
  facet normal 0.212655 -1.90924e-016 0.977127
    outer loop
      vertex 5.6043 37.5 8.68396
      vertex 3.65364 37.5 9.10849
      vertex 5.6043 35.5 8.68396
    endloop
  endfacet
  facet normal 0.269074 -1.80904e-016 0.963119
    outer loop
      vertex 1.76265 37.5 9.63679
      vertex 1.76265 35.5 9.63679
      vertex 3.65364 35.5 9.10849
    endloop
  endfacet
  facet normal 0.269074 -1.80904e-016 0.963119
    outer loop
      vertex 3.65364 37.5 9.10849
      vertex 1.76265 37.5 9.63679
      vertex 3.65364 35.5 9.10849
    endloop
  endfacet
  facet normal 0.326293 -1.69934e-016 0.945269
    outer loop
      vertex -0.041136 37.5 10.2594
      vertex -0.041136 35.5 10.2594
      vertex 1.76265 35.5 9.63679
    endloop
  endfacet
  facet normal 0.326293 -1.69934e-016 0.945269
    outer loop
      vertex 1.76265 37.5 9.63679
      vertex -0.041136 37.5 10.2594
      vertex 1.76265 35.5 9.63679
    endloop
  endfacet
  facet normal 0.385071 -1.57766e-016 0.922887
    outer loop
      vertex -1.72559 37.5 10.9623
      vertex -1.72559 35.5 10.9623
      vertex -0.041136 35.5 10.2594
    endloop
  endfacet
  facet normal 0.385071 -1.57766e-016 0.922887
    outer loop
      vertex -0.041136 37.5 10.2594
      vertex -1.72559 37.5 10.9623
      vertex -0.041136 35.5 10.2594
    endloop
  endfacet
  facet normal 0.451624 -1.42804e-016 0.892208
    outer loop
      vertex -3.26317 37.5 11.7406
      vertex -3.26317 35.5 11.7406
      vertex -1.72559 35.5 10.9623
    endloop
  endfacet
  facet normal 0.451624 -1.42804e-016 0.892208
    outer loop
      vertex -1.72559 37.5 10.9623
      vertex -3.26317 37.5 11.7406
      vertex -1.72559 35.5 10.9623
    endloop
  endfacet
  facet normal 0.527852 -1.23949e-016 0.849336
    outer loop
      vertex -4.62174 37.5 12.5849
      vertex -4.62174 35.5 12.5849
      vertex -3.26317 35.5 11.7406
    endloop
  endfacet
  facet normal 0.527852 -1.23949e-016 0.849336
    outer loop
      vertex -3.26317 37.5 11.7406
      vertex -4.62174 37.5 12.5849
      vertex -3.26317 35.5 11.7406
    endloop
  endfacet
  facet normal 0.583983 -1.08733e-016 0.811766
    outer loop
      vertex -4.89713 37.5 12.783
      vertex -4.89713 35.5 12.783
      vertex -4.62174 35.5 12.5849
    endloop
  endfacet
  facet normal 0.583983 -1.08733e-016 0.811766
    outer loop
      vertex -4.62174 37.5 12.5849
      vertex -4.89713 37.5 12.783
      vertex -4.62174 35.5 12.5849
    endloop
  endfacet
  facet normal 0.394768 -1.55667e-016 0.918781
    outer loop
      vertex -5.70952 37.5 13.1321
      vertex -5.70952 35.5 13.1321
      vertex -4.89713 35.5 12.783
    endloop
  endfacet
  facet normal 0.394768 -1.55667e-016 0.918781
    outer loop
      vertex -4.89713 37.5 12.783
      vertex -5.70952 37.5 13.1321
      vertex -4.89713 35.5 12.783
    endloop
  endfacet
  facet normal 0.469666 -1.38515e-016 0.882844
    outer loop
      vertex -6.48979 37.5 13.5472
      vertex -6.48979 35.5 13.5472
      vertex -5.70952 35.5 13.1321
    endloop
  endfacet
  facet normal 0.469666 -1.38515e-016 0.882844
    outer loop
      vertex -5.70952 37.5 13.1321
      vertex -6.48979 37.5 13.5472
      vertex -5.70952 35.5 13.1321
    endloop
  endfacet
  facet normal 0.535689 -1.21897e-016 0.844415
    outer loop
      vertex -7.23333 37.5 14.0189
      vertex -7.23333 35.5 14.0189
      vertex -6.48979 35.5 13.5472
    endloop
  endfacet
  facet normal 0.535689 -1.21897e-016 0.844415
    outer loop
      vertex -6.48979 37.5 13.5472
      vertex -7.23333 37.5 14.0189
      vertex -6.48979 35.5 13.5472
    endloop
  endfacet
  facet normal 0.59868 -1.0454e-016 0.800988
    outer loop
      vertex -7.94016 37.5 14.5472
      vertex -7.94016 35.5 14.5472
      vertex -7.23333 35.5 14.0189
    endloop
  endfacet
  facet normal 0.59868 -1.0454e-016 0.800988
    outer loop
      vertex -7.23333 37.5 14.0189
      vertex -7.94016 37.5 14.5472
      vertex -7.23333 35.5 14.0189
    endloop
  endfacet
  facet normal 0.683467 -7.83908e-017 0.729982
    outer loop
      vertex -9.22989 37.5 15.7547
      vertex -9.22989 35.5 15.7547
      vertex -7.94016 35.5 14.5472
    endloop
  endfacet
  facet normal 0.683467 -7.83908e-017 0.729982
    outer loop
      vertex -7.94016 37.5 14.5472
      vertex -9.22989 37.5 15.7547
      vertex -7.94016 35.5 14.5472
    endloop
  endfacet
  facet normal 0.784847 -4.14858e-017 0.619689
    outer loop
      vertex -10.336 37.5 17.1557
      vertex -10.336 35.5 17.1557
      vertex -9.22989 35.5 15.7547
    endloop
  endfacet
  facet normal 0.784847 -4.14858e-017 0.619689
    outer loop
      vertex -9.22989 37.5 15.7547
      vertex -10.336 37.5 17.1557
      vertex -9.22989 35.5 15.7547
    endloop
  endfacet
  facet normal 0.848951 -1.33814e-017 0.528472
    outer loop
      vertex -10.8088 37.5 17.9151
      vertex -10.8088 35.5 17.9151
      vertex -10.336 35.5 17.1557
    endloop
  endfacet
  facet normal 0.848951 -1.33814e-017 0.528472
    outer loop
      vertex -10.336 37.5 17.1557
      vertex -10.8088 37.5 17.9151
      vertex -10.336 35.5 17.1557
    endloop
  endfacet
  facet normal 0.884821 4.89799e-018 0.465932
    outer loop
      vertex -11.231 37.5 18.717
      vertex -11.231 35.5 18.717
      vertex -10.8088 35.5 17.9151
    endloop
  endfacet
  facet normal 0.884821 4.89799e-018 0.465932
    outer loop
      vertex -10.8088 37.5 17.9151
      vertex -11.231 37.5 18.717
      vertex -10.8088 35.5 17.9151
    endloop
  endfacet
  facet normal 0.917234 2.38741e-017 0.398348
    outer loop
      vertex -11.5936 37.5 19.5519
      vertex -11.5936 35.5 19.5519
      vertex -11.231 35.5 18.717
    endloop
  endfacet
  facet normal 0.917234 2.38741e-017 0.398348
    outer loop
      vertex -11.231 37.5 18.717
      vertex -11.5936 37.5 19.5519
      vertex -11.231 35.5 18.717
    endloop
  endfacet
  facet normal 0.943151 4.16995e-017 0.332363
    outer loop
      vertex -11.9011 37.5 20.4245
      vertex -11.9011 35.5 20.4245
      vertex -11.5936 35.5 19.5519
    endloop
  endfacet
  facet normal 0.943151 4.16995e-017 0.332363
    outer loop
      vertex -11.5936 37.5 19.5519
      vertex -11.9011 37.5 20.4245
      vertex -11.5936 35.5 19.5519
    endloop
  endfacet
  facet normal 0.966322 6.11964e-017 0.257336
    outer loop
      vertex -12.1398 37.5 21.3208
      vertex -12.1398 35.5 21.3208
      vertex -11.9011 35.5 20.4245
    endloop
  endfacet
  facet normal 0.966322 6.11964e-017 0.257336
    outer loop
      vertex -11.9011 37.5 20.4245
      vertex -12.1398 37.5 21.3208
      vertex -11.9011 35.5 20.4245
    endloop
  endfacet
  facet normal 0.981768 7.80208e-017 0.190084
    outer loop
      vertex -12.3188 37.5 22.2453
      vertex -12.3188 35.5 22.2453
      vertex -12.1398 35.5 21.3208
    endloop
  endfacet
  facet normal 0.981768 7.80208e-017 0.190084
    outer loop
      vertex -12.1398 37.5 21.3208
      vertex -12.3188 37.5 22.2453
      vertex -12.1398 35.5 21.3208
    endloop
  endfacet
  facet normal 0.993874 9.71694e-017 0.110523
    outer loop
      vertex -12.3555 37.5 22.5755
      vertex -12.3555 35.5 22.5755
      vertex -12.3188 35.5 22.2453
    endloop
  endfacet
  facet normal 0.993874 9.71694e-017 0.110523
    outer loop
      vertex -12.3188 37.5 22.2453
      vertex -12.3555 37.5 22.5755
      vertex -12.3188 35.5 22.2453
    endloop
  endfacet
  facet normal -1.22461e-016 2.22045e-016 -1
    outer loop
      vertex -4.15359 37.5 22.5755
      vertex -4.15359 35.5 22.5755
      vertex -12.3555 37.5 22.5755
    endloop
  endfacet
  facet normal -1.22461e-016 2.22045e-016 -1
    outer loop
      vertex -12.3555 37.5 22.5755
      vertex -4.15359 35.5 22.5755
      vertex -12.3555 35.5 22.5755
    endloop
  endfacet
  facet normal -0.888666 -7.00701e-018 -0.458555
    outer loop
      vertex -3.99294 37.5 22.2642
      vertex -3.99294 35.5 22.2642
      vertex -4.15359 37.5 22.5755
    endloop
  endfacet
  facet normal -0.888666 -7.00701e-018 -0.458555
    outer loop
      vertex -4.15359 37.5 22.5755
      vertex -3.99294 35.5 22.2642
      vertex -4.15359 35.5 22.5755
    endloop
  endfacet
  facet normal -0.775616 4.51732e-017 -0.631205
    outer loop
      vertex -3.57068 37.5 21.7453
      vertex -3.57068 35.5 21.7453
      vertex -3.99294 37.5 22.2642
    endloop
  endfacet
  facet normal -0.775616 4.51732e-017 -0.631205
    outer loop
      vertex -3.99294 37.5 22.2642
      vertex -3.57068 35.5 21.7453
      vertex -3.99294 35.5 22.2642
    endloop
  endfacet
  facet normal -0.651839 8.85645e-017 -0.758357
    outer loop
      vertex -3.06581 37.5 21.3113
      vertex -3.06581 35.5 21.3113
      vertex -3.57068 37.5 21.7453
    endloop
  endfacet
  facet normal -0.651839 8.85645e-017 -0.758357
    outer loop
      vertex -3.57068 37.5 21.7453
      vertex -3.06581 35.5 21.3113
      vertex -3.57068 35.5 21.7453
    endloop
  endfacet
  facet normal -0.482101 1.35498e-016 -0.876116
    outer loop
      vertex -2.4829 37.5 20.9906
      vertex -2.4829 35.5 20.9906
      vertex -3.06581 37.5 21.3113
    endloop
  endfacet
  facet normal -0.482101 1.35498e-016 -0.876116
    outer loop
      vertex -3.06581 37.5 21.3113
      vertex -2.4829 35.5 20.9906
      vertex -3.06581 35.5 21.3113
    endloop
  endfacet
  facet normal -0.30736 1.73657e-016 -0.951593
    outer loop
      vertex -1.84033 37.5 20.783
      vertex -1.84033 35.5 20.783
      vertex -2.4829 37.5 20.9906
    endloop
  endfacet
  facet normal -0.30736 1.73657e-016 -0.951593
    outer loop
      vertex -2.4829 37.5 20.9906
      vertex -1.84033 35.5 20.783
      vertex -2.4829 35.5 20.9906
    endloop
  endfacet
  facet normal -0.102233 2.08362e-016 -0.994761
    outer loop
      vertex -1.15186 37.5 20.7123
      vertex -1.15186 35.5 20.7123
      vertex -1.84033 37.5 20.783
    endloop
  endfacet
  facet normal -0.102233 2.08362e-016 -0.994761
    outer loop
      vertex -1.84033 37.5 20.783
      vertex -1.15186 35.5 20.7123
      vertex -1.84033 35.5 20.783
    endloop
  endfacet
  facet normal 0.102233 2.33401e-016 -0.994761
    outer loop
      vertex -0.463396 37.5 20.783
      vertex -0.463396 35.5 20.783
      vertex -1.15186 37.5 20.7123
    endloop
  endfacet
  facet normal 0.102233 2.33401e-016 -0.994761
    outer loop
      vertex -1.15186 37.5 20.7123
      vertex -0.463396 35.5 20.783
      vertex -1.15186 35.5 20.7123
    endloop
  endfacet
  facet normal 0.30736 2.48936e-016 -0.951593
    outer loop
      vertex 0.179174 37.5 20.9906
      vertex 0.179174 35.5 20.9906
      vertex -0.463396 37.5 20.783
    endloop
  endfacet
  facet normal 0.30736 2.48936e-016 -0.951593
    outer loop
      vertex -0.463396 37.5 20.783
      vertex 0.179174 35.5 20.9906
      vertex -0.463396 35.5 20.783
    endloop
  endfacet
  facet normal 0.482101 2.53575e-016 -0.876116
    outer loop
      vertex 0.762077 37.5 21.3113
      vertex 0.762077 35.5 21.3113
      vertex 0.179174 37.5 20.9906
    endloop
  endfacet
  facet normal 0.482101 2.53575e-016 -0.876116
    outer loop
      vertex 0.179174 37.5 20.9906
      vertex 0.762077 35.5 21.3113
      vertex 0.179174 35.5 20.9906
    endloop
  endfacet
  facet normal 0.651839 2.48214e-016 -0.758357
    outer loop
      vertex 1.26695 37.5 21.7453
      vertex 1.26695 35.5 21.7453
      vertex 0.762077 37.5 21.3113
    endloop
  endfacet
  facet normal 0.651839 2.48214e-016 -0.758357
    outer loop
      vertex 0.762077 37.5 21.3113
      vertex 1.26695 35.5 21.7453
      vertex 0.762077 35.5 21.3113
    endloop
  endfacet
  facet normal 0.775616 2.35138e-016 -0.631205
    outer loop
      vertex 1.26695 37.5 21.7453
      vertex 1.68921 37.5 22.2642
      vertex 1.68921 35.5 22.2642
    endloop
  endfacet
  facet normal 0.775616 2.35138e-016 -0.631205
    outer loop
      vertex 1.26695 35.5 21.7453
      vertex 1.26695 37.5 21.7453
      vertex 1.68921 35.5 22.2642
    endloop
  endfacet
  facet normal 0.886855 2.112e-016 -0.462047
    outer loop
      vertex 1.68921 37.5 22.2642
      vertex 2.00132 37.5 22.8632
      vertex 2.00132 35.5 22.8632
    endloop
  endfacet
  facet normal 0.886855 2.112e-016 -0.462047
    outer loop
      vertex 1.68921 35.5 22.2642
      vertex 1.68921 37.5 22.2642
      vertex 2.00132 35.5 22.8632
    endloop
  endfacet
  facet normal 0.956283 1.82042e-016 -0.292442
    outer loop
      vertex 2.00132 37.5 22.8632
      vertex 2.20327 37.5 23.5236
      vertex 2.20327 35.5 23.5236
    endloop
  endfacet
  facet normal 0.956283 1.82042e-016 -0.292442
    outer loop
      vertex 2.00132 35.5 22.8632
      vertex 2.00132 37.5 22.8632
      vertex 2.20327 35.5 23.5236
    endloop
  endfacet
  facet normal 0.995299 1.43389e-016 -0.0968461
    outer loop
      vertex 2.20327 37.5 23.5236
      vertex 2.27212 37.5 24.2311
      vertex 2.27212 35.5 24.2311
    endloop
  endfacet
  facet normal 0.995299 1.43389e-016 -0.0968461
    outer loop
      vertex 2.20327 35.5 23.5236
      vertex 2.20327 37.5 23.5236
      vertex 2.27212 35.5 24.2311
    endloop
  endfacet
  facet normal 0.995299 1.00381e-016 0.0968461
    outer loop
      vertex 2.20327 37.5 24.9387
      vertex 2.20327 35.5 24.9387
      vertex 2.27212 35.5 24.2311
    endloop
  endfacet
  facet normal 0.995299 1.00381e-016 0.0968461
    outer loop
      vertex 2.27212 37.5 24.2311
      vertex 2.20327 37.5 24.9387
      vertex 2.27212 35.5 24.2311
    endloop
  endfacet
  facet normal 0.956283 5.21719e-017 0.292442
    outer loop
      vertex 2.00132 37.5 25.5991
      vertex 2.00132 35.5 25.5991
      vertex 2.20327 35.5 24.9387
    endloop
  endfacet
  facet normal 0.956283 5.21719e-017 0.292442
    outer loop
      vertex 2.20327 37.5 24.9387
      vertex 2.00132 37.5 25.5991
      vertex 2.20327 35.5 24.9387
    endloop
  endfacet
  facet normal 0.886855 6.00976e-018 0.462047
    outer loop
      vertex 1.68921 37.5 26.1981
      vertex 1.68921 35.5 26.1981
      vertex 2.00132 35.5 25.5991
    endloop
  endfacet
  facet normal 0.886855 6.00976e-018 0.462047
    outer loop
      vertex 2.00132 37.5 25.5991
      vertex 1.68921 37.5 26.1981
      vertex 2.00132 35.5 25.5991
    endloop
  endfacet
  facet normal 0.775616 -4.51732e-017 0.631205
    outer loop
      vertex 1.26695 37.5 26.717
      vertex 1.26695 35.5 26.717
      vertex 1.68921 35.5 26.1981
    endloop
  endfacet
  facet normal 0.775616 -4.51732e-017 0.631205
    outer loop
      vertex 1.68921 37.5 26.1981
      vertex 1.26695 37.5 26.717
      vertex 1.68921 35.5 26.1981
    endloop
  endfacet
  facet normal 0.647736 -8.98458e-017 0.761865
    outer loop
      vertex 0.762077 37.5 27.1462
      vertex 0.762077 35.5 27.1462
      vertex 1.26695 35.5 26.717
    endloop
  endfacet
  facet normal 0.647736 -8.98458e-017 0.761865
    outer loop
      vertex 1.26695 37.5 26.717
      vertex 0.762077 37.5 27.1462
      vertex 1.26695 35.5 26.717
    endloop
  endfacet
  facet normal 0.487515 -1.34169e-016 0.873115
    outer loop
      vertex 0.179174 37.5 27.4717
      vertex 0.179174 35.5 27.4717
      vertex 0.762077 35.5 27.1462
    endloop
  endfacet
  facet normal 0.487515 -1.34169e-016 0.873115
    outer loop
      vertex 0.762077 37.5 27.1462
      vertex 0.179174 37.5 27.4717
      vertex 0.762077 35.5 27.1462
    endloop
  endfacet
  facet normal 0.301014 -1.74884e-016 0.95362
    outer loop
      vertex -0.463396 37.5 27.6745
      vertex -0.463396 35.5 27.6745
      vertex 0.179174 35.5 27.4717
    endloop
  endfacet
  facet normal 0.301014 -1.74884e-016 0.95362
    outer loop
      vertex 0.179174 37.5 27.4717
      vertex -0.463396 37.5 27.6745
      vertex 0.179174 35.5 27.4717
    endloop
  endfacet
  facet normal 0.102233 -2.08362e-016 0.994761
    outer loop
      vertex -1.15186 37.5 27.7453
      vertex -1.15186 35.5 27.7453
      vertex -0.463396 35.5 27.6745
    endloop
  endfacet
  facet normal 0.102233 -2.08362e-016 0.994761
    outer loop
      vertex -0.463396 37.5 27.6745
      vertex -1.15186 37.5 27.7453
      vertex -0.463396 35.5 27.6745
    endloop
  endfacet
  facet normal -0.102233 -2.33401e-016 0.994761
    outer loop
      vertex -1.84033 37.5 27.6745
      vertex -1.84033 35.5 27.6745
      vertex -1.15186 35.5 27.7453
    endloop
  endfacet
  facet normal -0.102233 -2.33401e-016 0.994761
    outer loop
      vertex -1.15186 37.5 27.7453
      vertex -1.84033 37.5 27.6745
      vertex -1.15186 35.5 27.7453
    endloop
  endfacet
  facet normal -0.301014 -2.48608e-016 0.95362
    outer loop
      vertex -2.4829 37.5 27.4717
      vertex -2.4829 35.5 27.4717
      vertex -1.84033 35.5 27.6745
    endloop
  endfacet
  facet normal -0.301014 -2.48608e-016 0.95362
    outer loop
      vertex -1.84033 37.5 27.6745
      vertex -2.4829 37.5 27.4717
      vertex -1.84033 35.5 27.6745
    endloop
  endfacet
  facet normal -0.487515 -2.53572e-016 0.873115
    outer loop
      vertex -3.06581 37.5 27.1462
      vertex -3.06581 35.5 27.1462
      vertex -2.4829 35.5 27.4717
    endloop
  endfacet
  facet normal -0.487515 -2.53572e-016 0.873115
    outer loop
      vertex -2.4829 37.5 27.4717
      vertex -3.06581 37.5 27.1462
      vertex -2.4829 35.5 27.4717
    endloop
  endfacet
  facet normal -0.647736 -2.4849e-016 0.761865
    outer loop
      vertex -3.57068 37.5 26.717
      vertex -3.57068 35.5 26.717
      vertex -3.06581 35.5 27.1462
    endloop
  endfacet
  facet normal -0.647736 -2.4849e-016 0.761865
    outer loop
      vertex -3.06581 37.5 27.1462
      vertex -3.57068 37.5 26.717
      vertex -3.06581 35.5 27.1462
    endloop
  endfacet
  facet normal -0.775616 -2.35138e-016 0.631205
    outer loop
      vertex -3.99294 35.5 26.1981
      vertex -3.57068 35.5 26.717
      vertex -3.99294 37.5 26.1981
    endloop
  endfacet
  facet normal -0.775616 -2.35138e-016 0.631205
    outer loop
      vertex -3.99294 37.5 26.1981
      vertex -3.57068 35.5 26.717
      vertex -3.57068 37.5 26.717
    endloop
  endfacet
  facet normal -0.886855 -2.112e-016 0.462047
    outer loop
      vertex -4.30505 35.5 25.5991
      vertex -3.99294 35.5 26.1981
      vertex -4.30505 37.5 25.5991
    endloop
  endfacet
  facet normal -0.886855 -2.112e-016 0.462047
    outer loop
      vertex -4.30505 37.5 25.5991
      vertex -3.99294 35.5 26.1981
      vertex -3.99294 37.5 26.1981
    endloop
  endfacet
  facet normal -0.951217 -1.84992e-016 0.308522
    outer loop
      vertex -4.31882 35.5 25.5566
      vertex -4.30505 35.5 25.5991
      vertex -4.31882 37.5 25.5566
    endloop
  endfacet
  facet normal -0.951217 -1.84992e-016 0.308522
    outer loop
      vertex -4.31882 37.5 25.5566
      vertex -4.30505 35.5 25.5991
      vertex -4.30505 37.5 25.5991
    endloop
  endfacet
  facet normal 1.22461e-016 -2.22045e-016 1
    outer loop
      vertex -12.3785 37.5 25.5566
      vertex -12.3785 35.5 25.5566
      vertex -4.31882 35.5 25.5566
    endloop
  endfacet
  facet normal 1.22461e-016 -2.22045e-016 1
    outer loop
      vertex -4.31882 37.5 25.5566
      vertex -12.3785 37.5 25.5566
      vertex -4.31882 35.5 25.5566
    endloop
  endfacet
  facet normal 0.988763 1.54278e-016 -0.14949
    outer loop
      vertex -12.3785 37.5 25.5566
      vertex -12.1995 37.5 26.7406
      vertex -12.1995 35.5 26.7406
    endloop
  endfacet
  facet normal 0.988763 1.54278e-016 -0.14949
    outer loop
      vertex -12.3785 35.5 25.5566
      vertex -12.3785 37.5 25.5566
      vertex -12.1995 35.5 26.7406
    endloop
  endfacet
  facet normal 0.968005 1.7426e-016 -0.250932
    outer loop
      vertex -12.1995 37.5 26.7406
      vertex -11.8828 37.5 27.9623
      vertex -11.8828 35.5 27.9623
    endloop
  endfacet
  facet normal 0.968005 1.7426e-016 -0.250932
    outer loop
      vertex -12.1995 35.5 26.7406
      vertex -12.1995 37.5 26.7406
      vertex -11.8828 35.5 27.9623
    endloop
  endfacet
  facet normal 0.937769 1.91947e-016 -0.34726
    outer loop
      vertex -11.8828 37.5 27.9623
      vertex -11.4513 37.5 29.1274
      vertex -11.4513 35.5 29.1274
    endloop
  endfacet
  facet normal 0.937769 1.91947e-016 -0.34726
    outer loop
      vertex -11.8828 35.5 27.9623
      vertex -11.8828 37.5 27.9623
      vertex -11.4513 35.5 29.1274
    endloop
  endfacet
  facet normal 0.898491 2.07506e-016 -0.438992
    outer loop
      vertex -11.4513 37.5 29.1274
      vertex -10.9098 37.5 30.2358
      vertex -10.9098 35.5 30.2358
    endloop
  endfacet
  facet normal 0.898491 2.07506e-016 -0.438992
    outer loop
      vertex -11.4513 35.5 29.1274
      vertex -11.4513 37.5 29.1274
      vertex -10.9098 35.5 30.2358
    endloop
  endfacet
  facet normal 0.849129 2.21266e-016 -0.528185
    outer loop
      vertex -10.9098 37.5 30.2358
      vertex -10.2672 37.5 31.2689
      vertex -10.2672 35.5 31.2689
    endloop
  endfacet
  facet normal 0.849129 2.21266e-016 -0.528185
    outer loop
      vertex -10.9098 35.5 30.2358
      vertex -10.9098 37.5 30.2358
      vertex -10.2672 35.5 31.2689
    endloop
  endfacet
  facet normal 0.793508 2.32301e-016 -0.60856
    outer loop
      vertex -10.2672 37.5 31.2689
      vertex -9.53282 37.5 32.2264
      vertex -9.53282 35.5 32.2264
    endloop
  endfacet
  facet normal 0.793508 2.32301e-016 -0.60856
    outer loop
      vertex -10.2672 35.5 31.2689
      vertex -10.2672 37.5 31.2689
      vertex -9.53282 35.5 32.2264
    endloop
  endfacet
  facet normal 0.729932 2.4116e-016 -0.68352
    outer loop
      vertex -9.53282 37.5 32.2264
      vertex -8.71124 37.5 33.1038
      vertex -8.71124 35.5 33.1038
    endloop
  endfacet
  facet normal 0.729932 2.4116e-016 -0.68352
    outer loop
      vertex -9.53282 35.5 32.2264
      vertex -9.53282 37.5 32.2264
      vertex -8.71124 35.5 33.1038
    endloop
  endfacet
  facet normal 0.996729 1.04114e-016 0.080821
    outer loop
      vertex -8.7296 37.5 33.3302
      vertex -8.7296 35.5 33.3302
      vertex -8.71124 35.5 33.1038
    endloop
  endfacet
  facet normal 0.996729 1.04114e-016 0.080821
    outer loop
      vertex -8.71124 37.5 33.1038
      vertex -8.7296 37.5 33.3302
      vertex -8.71124 35.5 33.1038
    endloop
  endfacet
  facet normal 0.993713 9.68308e-017 0.111959
    outer loop
      vertex -8.83058 37.5 34.2264
      vertex -8.83058 35.5 34.2264
      vertex -8.7296 35.5 33.3302
    endloop
  endfacet
  facet normal 0.993713 9.68308e-017 0.111959
    outer loop
      vertex -8.7296 37.5 33.3302
      vertex -8.83058 37.5 34.2264
      vertex -8.7296 35.5 33.3302
    endloop
  endfacet
  facet normal 0.973693 6.86429e-017 0.227865
    outer loop
      vertex -9.00499 37.5 34.9717
      vertex -9.00499 35.5 34.9717
      vertex -8.83058 35.5 34.2264
    endloop
  endfacet
  facet normal 0.973693 6.86429e-017 0.227865
    outer loop
      vertex -8.83058 37.5 34.2264
      vertex -9.00499 37.5 34.9717
      vertex -8.83058 35.5 34.2264
    endloop
  endfacet
  facet normal 0.925231 2.90596e-017 0.379405
    outer loop
      vertex -9.27579 37.5 35.6321
      vertex -9.27579 35.5 35.6321
      vertex -9.00499 35.5 34.9717
    endloop
  endfacet
  facet normal 0.925231 2.90596e-017 0.379405
    outer loop
      vertex -9.00499 37.5 34.9717
      vertex -9.27579 37.5 35.6321
      vertex -9.00499 35.5 34.9717
    endloop
  endfacet
  facet normal 0.857118 -9.41667e-018 0.515121
    outer loop
      vertex -9.66133 37.5 36.2736
      vertex -9.66133 35.5 36.2736
      vertex -9.27579 35.5 35.6321
    endloop
  endfacet
  facet normal 0.857118 -9.41667e-018 0.515121
    outer loop
      vertex -9.27579 37.5 35.6321
      vertex -9.66133 37.5 36.2736
      vertex -9.27579 35.5 35.6321
    endloop
  endfacet
  facet normal 0.755752 -5.28578e-017 0.654858
    outer loop
      vertex -10.2213 37.5 36.9198
      vertex -10.2213 35.5 36.9198
      vertex -9.66133 35.5 36.2736
    endloop
  endfacet
  facet normal 0.755752 -5.28578e-017 0.654858
    outer loop
      vertex -9.66133 37.5 36.2736
      vertex -10.2213 37.5 36.9198
      vertex -9.66133 35.5 36.2736
    endloop
  endfacet
  facet normal 0.665312 -8.42964e-017 0.746566
    outer loop
      vertex -10.8776 37.5 37.5047
      vertex -10.8776 35.5 37.5047
      vertex -10.2213 35.5 36.9198
    endloop
  endfacet
  facet normal 0.665312 -8.42964e-017 0.746566
    outer loop
      vertex -10.2213 37.5 36.9198
      vertex -10.8776 37.5 37.5047
      vertex -10.2213 35.5 36.9198
    endloop
  endfacet
  facet normal 0.526453 -1.24314e-016 0.850204
    outer loop
      vertex -11.9746 37.5 38.184
      vertex -11.9746 35.5 38.184
      vertex -10.8776 35.5 37.5047
    endloop
  endfacet
  facet normal 0.526453 -1.24314e-016 0.850204
    outer loop
      vertex -10.8776 37.5 37.5047
      vertex -11.9746 37.5 38.184
      vertex -10.8776 35.5 37.5047
    endloop
  endfacet
  facet normal 0.401467 -1.54201e-016 0.915874
    outer loop
      vertex -13.2551 37.5 38.7453
      vertex -13.2551 35.5 38.7453
      vertex -11.9746 35.5 38.184
    endloop
  endfacet
  facet normal 0.401467 -1.54201e-016 0.915874
    outer loop
      vertex -11.9746 37.5 38.184
      vertex -13.2551 37.5 38.7453
      vertex -11.9746 35.5 38.184
    endloop
  endfacet
  facet normal 0.290793 -1.76838e-016 0.956786
    outer loop
      vertex -14.7606 37.5 39.2028
      vertex -14.7606 35.5 39.2028
      vertex -13.2551 35.5 38.7453
    endloop
  endfacet
  facet normal 0.290793 -1.76838e-016 0.956786
    outer loop
      vertex -13.2551 37.5 38.7453
      vertex -14.7606 37.5 39.2028
      vertex -13.2551 35.5 38.7453
    endloop
  endfacet
  facet normal 0.203334 -1.92506e-016 0.979109
    outer loop
      vertex -16.5322 37.5 39.5708
      vertex -16.5322 35.5 39.5708
      vertex -14.7606 35.5 39.2028
    endloop
  endfacet
  facet normal 0.203334 -1.92506e-016 0.979109
    outer loop
      vertex -14.7606 37.5 39.2028
      vertex -16.5322 37.5 39.5708
      vertex -14.7606 35.5 39.2028
    endloop
  endfacet
endsolid OpenSCAD_Model
