solid OpenSCAD_Model
  facet normal -1 0 0
    outer loop
      vertex 28.35 35.5 34.5
      vertex 28.35 37.5 34.5
      vertex 28.35 35.5 11.25
    endloop
  endfacet
  facet normal -1 0 0
    outer loop
      vertex 28.35 35.5 11.25
      vertex 28.35 37.5 34.5
      vertex 28.35 37.5 11.25
    endloop
  endfacet
  facet normal 0 0 -1
    outer loop
      vertex 28.35 37.5 11.25
      vertex 30.35 37.5 11.25
      vertex 28.35 35.5 11.25
    endloop
  endfacet
  facet normal 0 0 -1
    outer loop
      vertex 28.35 35.5 11.25
      vertex 30.35 37.5 11.25
      vertex 30.35 35.5 11.25
    endloop
  endfacet
  facet normal 0 1 0
    outer loop
      vertex 28.35 37.5 34.5
      vertex 30.35 37.5 34.5
      vertex 28.35 37.5 11.25
    endloop
  endfacet
  facet normal 0 1 0
    outer loop
      vertex 28.35 37.5 11.25
      vertex 30.35 37.5 34.5
      vertex 30.35 37.5 11.25
    endloop
  endfacet
  facet normal 0 -1 0
    outer loop
      vertex 28.35 35.5 11.25
      vertex 30.35 35.5 11.25
      vertex 30.35 35.5 34.5
    endloop
  endfacet
  facet normal 0 -1 0
    outer loop
      vertex 28.35 35.5 34.5
      vertex 28.35 35.5 11.25
      vertex 30.35 35.5 34.5
    endloop
  endfacet
  facet normal 0 0 1
    outer loop
      vertex 28.35 35.5 34.5
      vertex 30.35 35.5 34.5
      vertex 30.35 37.5 34.5
    endloop
  endfacet
  facet normal 0 0 1
    outer loop
      vertex 28.35 37.5 34.5
      vertex 28.35 35.5 34.5
      vertex 30.35 37.5 34.5
    endloop
  endfacet
  facet normal 1 0 0
    outer loop
      vertex 30.35 35.5 11.25
      vertex 30.35 37.5 11.25
      vertex 30.35 37.5 34.5
    endloop
  endfacet
  facet normal 1 0 0
    outer loop
      vertex 30.35 35.5 34.5
      vertex 30.35 35.5 11.25
      vertex 30.35 37.5 34.5
    endloop
  endfacet
  facet normal -1 0 0
    outer loop
      vertex -30.35 35.5 34.5
      vertex -30.35 37.5 34.5
      vertex -30.35 35.5 11.25
    endloop
  endfacet
  facet normal -1 0 0
    outer loop
      vertex -30.35 35.5 11.25
      vertex -30.35 37.5 34.5
      vertex -30.35 37.5 11.25
    endloop
  endfacet
  facet normal 0 0 -1
    outer loop
      vertex -30.35 37.5 11.25
      vertex -28.35 37.5 11.25
      vertex -30.35 35.5 11.25
    endloop
  endfacet
  facet normal 0 0 -1
    outer loop
      vertex -30.35 35.5 11.25
      vertex -28.35 37.5 11.25
      vertex -28.35 35.5 11.25
    endloop
  endfacet
  facet normal 0 1 0
    outer loop
      vertex -30.35 37.5 34.5
      vertex -28.35 37.5 34.5
      vertex -30.35 37.5 11.25
    endloop
  endfacet
  facet normal 0 1 0
    outer loop
      vertex -30.35 37.5 11.25
      vertex -28.35 37.5 34.5
      vertex -28.35 37.5 11.25
    endloop
  endfacet
  facet normal 0 -1 0
    outer loop
      vertex -30.35 35.5 11.25
      vertex -28.35 35.5 11.25
      vertex -28.35 35.5 34.5
    endloop
  endfacet
  facet normal 0 -1 0
    outer loop
      vertex -30.35 35.5 34.5
      vertex -30.35 35.5 11.25
      vertex -28.35 35.5 34.5
    endloop
  endfacet
  facet normal 0 0 1
    outer loop
      vertex -30.35 35.5 34.5
      vertex -28.35 35.5 34.5
      vertex -28.35 37.5 34.5
    endloop
  endfacet
  facet normal 0 0 1
    outer loop
      vertex -30.35 37.5 34.5
      vertex -30.35 35.5 34.5
      vertex -28.35 37.5 34.5
    endloop
  endfacet
  facet normal 1 0 0
    outer loop
      vertex -28.35 35.5 11.25
      vertex -28.35 37.5 11.25
      vertex -28.35 37.5 34.5
    endloop
  endfacet
  facet normal 1 0 0
    outer loop
      vertex -28.35 35.5 34.5
      vertex -28.35 35.5 11.25
      vertex -28.35 37.5 34.5
    endloop
  endfacet
  facet normal -1 0 0
    outer loop
      vertex -28.35 35.5 45
      vertex -28.35 37.5 45
      vertex -28.35 35.5 2
    endloop
  endfacet
  facet normal -1 0 0
    outer loop
      vertex -28.35 35.5 2
      vertex -28.35 37.5 45
      vertex -28.35 37.5 2
    endloop
  endfacet
  facet normal 0 0 -1
    outer loop
      vertex -28.35 37.5 2
      vertex 28.35 37.5 2
      vertex -28.35 35.5 2
    endloop
  endfacet
  facet normal 0 0 -1
    outer loop
      vertex -28.35 35.5 2
      vertex 28.35 37.5 2
      vertex 28.35 35.5 2
    endloop
  endfacet
  facet normal 0 1 0
    outer loop
      vertex -28.35 37.5 45
      vertex 28.35 37.5 45
      vertex -28.35 37.5 2
    endloop
  endfacet
  facet normal 0 1 0
    outer loop
      vertex -28.35 37.5 2
      vertex 28.35 37.5 45
      vertex 28.35 37.5 2
    endloop
  endfacet
  facet normal 0 -1 0
    outer loop
      vertex -28.35 35.5 2
      vertex 28.35 35.5 2
      vertex 28.35 35.5 45
    endloop
  endfacet
  facet normal 0 -1 0
    outer loop
      vertex -28.35 35.5 45
      vertex -28.35 35.5 2
      vertex 28.35 35.5 45
    endloop
  endfacet
  facet normal 0 0 1
    outer loop
      vertex -28.35 35.5 45
      vertex 28.35 35.5 45
      vertex 28.35 37.5 45
    endloop
  endfacet
  facet normal 0 0 1
    outer loop
      vertex -28.35 37.5 45
      vertex -28.35 35.5 45
      vertex 28.35 37.5 45
    endloop
  endfacet
  facet normal 1 0 0
    outer loop
      vertex 28.35 35.5 2
      vertex 28.35 37.5 2
      vertex 28.35 37.5 45
    endloop
  endfacet
  facet normal 1 0 0
    outer loop
      vertex 28.35 35.5 45
      vertex 28.35 35.5 2
      vertex 28.35 37.5 45
    endloop
  endfacet
endsolid OpenSCAD_Model
