<?xml version="1.0" encoding="UTF-8" standalone="no"?>
<!-- Created with Inkscape (http://www.inkscape.org/) -->

<svg
   xmlns:dc="http://purl.org/dc/elements/1.1/"
   xmlns:cc="http://creativecommons.org/ns#"
   xmlns:rdf="http://www.w3.org/1999/02/22-rdf-syntax-ns#"
   xmlns:svg="http://www.w3.org/2000/svg"
   xmlns="http://www.w3.org/2000/svg"
   xmlns:sodipodi="http://sodipodi.sourceforge.net/DTD/sodipodi-0.dtd"
   xmlns:inkscape="http://www.inkscape.org/namespaces/inkscape"
   width="178.17004"
   height="173.37346"
   id="svg3064"
   version="1.1"
   inkscape:version="0.48.4 r9939"
   sodipodi:docname="CycloneLogo.svg">
  <defs
     id="defs3" />
  <sodipodi:namedview
     inkscape:document-units="mm"
     id="base"
     pagecolor="#ffffff"
     bordercolor="#666666"
     borderopacity="1.0"
     inkscape:pageopacity="0.0"
     inkscape:pageshadow="2"
     inkscape:zoom="2.8284271"
     inkscape:cx="3.6162388"
     inkscape:cy="-7.7762638"
     inkscape:current-layer="layer1"
     showgrid="true"
     units="mm"
     inkscape:window-width="1920"
     inkscape:window-height="1025"
     inkscape:window-x="0"
     inkscape:window-y="27"
     inkscape:window-maximized="1"
     fit-margin-top="0"
     fit-margin-left="0"
     fit-margin-right="0"
     fit-margin-bottom="0">
    <inkscape:grid
       type="xygrid"
       id="grid3016"
       empspacing="5"
       visible="true"
       enabled="true"
       snapvisiblegridlinesonly="true" />
  </sodipodi:namedview>
  <metadata
     id="metadata4">
    <rdf:RDF>
      <cc:Work
         rdf:about="">
        <dc:format>image/svg+xml</dc:format>
        <dc:type
           rdf:resource="http://purl.org/dc/dcmitype/StillImage" />
        <dc:title />
      </cc:Work>
    </rdf:RDF>
  </metadata>
  <g
     inkscape:label="logo"
     inkscape:groupmode="layer"
     id="layer1"
     transform="translate(-19.272178,-351.38974)">
    <path
       inkscape:connector-curvature="0"
       d="m -48.719241,437.84548 8.623657,0.15308 10.970922,1.04607 10.996436,1.68391 10.8433545,2.29624 10.511673,2.85754 10.0269065,3.36782 9.363559,3.80155 8.54711,4.20977 7.55208,4.56697 1.53083,1.07157 4.51594,1.88802 4.337341,2.24522 4.13323,2.55137 3.92912,2.85755 7.16937,6.53152 6.14882,7.5776 2.627919,4.10771 2.347261,4.33734 2.01559,4.51594 1.709419,4.72005 1.32672,4.84762 0.99504,5.0007 0.20411,1.78596 -45.59311,0 -0.892989,-1.68391 -2.347261,-2.80651 -2.80652,-2.34727 -3.24025,-1.73494 -3.57193,-1.12261 -3.82706,-0.3827 -3.82707,0.3827 -3.57192,1.12261 -3.240251,1.73494 -2.8065165,2.34727 -2.347268,2.80651 -1.734936,3.24025 -1.12260701,3.57193 -0.382706,3.82706 0.382706,3.82707 1.12260701,3.57193 1.734936,3.24025 2.347268,2.80651 2.8065165,2.32176 3.240251,1.76045 3.57192,1.09709 3.82707,0.38271 3.82706,-0.38271 3.57193,-1.09709 3.24025,-1.76045 2.80652,-2.32176 2.347261,-2.80651 1.734939,-3.24025 0.0765,-0.22963 44.802191,0 -0.99504,6.40396 -1.76045,6.60807 -2.39829,6.3019 -3.01063,5.99574 -3.57193,5.58752 -4.0822,5.17929 -4.56697,4.74556 0.10206,1.22466 0.5613,4.84762 0.969519,4.03117 1.505321,3.57193 2.143149,3.46988 3.112681,3.49538 3.64847,3.16371 6.09779,3.67398 7.11835,3.03613 8.368509,2.47486 9.848323,1.99006 1.91353,0.38272 -0.3827,0.33166 -6.02125,1.45428 -7.552082,0.96954 -16.992171,0 -10.99644,-1.04607 -10.99643,-1.68392 -10.84336,-2.29623 -10.51167,-2.85755 -10.02691,-3.36781 -9.36356,-3.80155 -8.5471095,-4.20977 -7.552079,-4.56697 -1.836991,-1.32671 -4.439398,-1.93905 -4.2863145,-2.24521 -7.934783,-5.43444 -7.041801,-6.53152 -6.046763,-7.52657 -4.898646,-8.41954 -1.990072,-4.49042 -1.658397,-4.66902 -1.326717,-4.79659 -0.94401,-4.97519 -0.586816,-5.07724 -0.20411,-5.20481 0.357194,-7.01629 1.071578,-6.81218 1.734936,-6.53152 2.372781,-6.25088 2.959597,-5.9447 3.495388,-5.56201 4.031176,-5.15378 4.490423,-4.72005 -0.127568,-1.55634 -0.561303,-4.84761 -0.995036,-4.03118 -1.505313,-3.57193 -2.143158,-3.46987 -3.112679,-3.49539 -3.622956,-3.18922 -6.097791,-3.67398 -7.118345,-3.01063 -8.368518,-2.47484 -9.848315,-1.99007 -1.913533,-0.38271 0.382707,-0.33167 6.02125,-1.45429 7.552075,-0.96953 8.368519,-0.17859 0,0"
       style="fill:#000000;stroke:#000000;stroke-width:0.28802216"
       id="path34" />
  </g>
  <g
     inkscape:groupmode="layer"
     id="layer3"
     inkscape:label="dot">
    <path
       style="fill:#000000"
       d="m 11.111679,173.37345 -0.225752,2.2394 -0.64746,2.08577 -1.0244855,1.88748 -1.35684,1.6445 -1.644493,1.35683 -1.88748,1.02449 -2.085781,0.64747 -2.239386,0.22574 -2.239394,-0.22574 -2.085773,-0.64747 -1.88748,-1.02449 -1.6445,-1.35683 -1.356833,-1.6445 -1.0244865,-1.88748 -0.647467,-2.08577 -0.225747,-2.2394 0.225747,-2.23938 0.647467,-2.08578 1.0244865,-1.88748 1.356833,-1.6445 1.6445,-1.35683 1.88748,-1.02449 2.085773,-0.64746 2.239394,-0.22575 2.239386,0.22575 2.085781,0.64746 1.88748,1.02449 1.644493,1.35683 1.35684,1.6445 1.0244855,1.88748 0.64746,2.08578 z"
       id="path2991"
       inkscape:connector-curvature="0"
       sodipodi:nodetypes="ccccccccccccccccccccccccccccccccc" />
  </g>
  <g
     inkscape:groupmode="layer"
     id="layer4"
     inkscape:label="Origin">
    <path
       sodipodi:type="arc"
       style="fill:#000000;fill-rule:evenodd;stroke:#ff0000;stroke-width:1px;stroke-linecap:butt;stroke-linejoin:miter;stroke-opacity:1"
       id="path3024"
       sodipodi:cx="0"
       sodipodi:cy="173.37346"
       sodipodi:rx="1"
       sodipodi:ry="1"
       d="m 1,173.37346 a 1,1 0 1 1 -2,0 1,1 0 1 1 2,0 z" />
  </g>
</svg>
