  0
SECTION
  2
BLOCKS
  0
ENDSEC
  0
SECTION
  2
ENTITIES
  0
LINE
  8
0
 10
-8.19194
 11
-8.41968
 20
5.21859
 21
4.86112
  0
LINE
  8
0
 10
-8.41968
 11
-8.81132
 20
4.86112
 21
4.10878
  0
LINE
  8
0
 10
-8.81132
 11
-9.13589
 20
4.10878
 21
3.3252
  0
LINE
  8
0
 10
-9.13589
 11
-9.39093
 20
3.3252
 21
2.51629
  0
LINE
  8
0
 10
-9.39093
 11
-9.48267
 20
2.51629
 21
2.10248
  0
LINE
  8
0
 10
-9.48267
 11
-12.5
 20
2.10248
 21
1.66666
  0
LINE
  8
0
 10
-12.5
 11
-12.5
 20
1.66666
 21
-1.66666
  0
LINE
  8
0
 10
-12.5
 11
-9.48266
 20
-1.66666
 21
-2.10249
  0
LINE
  8
0
 10
-9.48266
 11
-9.39093
 20
-2.10249
 21
-2.51629
  0
LINE
  8
0
 10
-9.39093
 11
-9.13589
 20
-2.51629
 21
-3.3252
  0
LINE
  8
0
 10
-9.13589
 11
-8.81132
 20
-3.3252
 21
-4.10878
  0
LINE
  8
0
 10
-8.81132
 11
-8.41968
 20
-4.10878
 21
-4.86112
  0
LINE
  8
0
 10
-8.41968
 11
-8.19196
 20
-4.86112
 21
-5.21858
  0
LINE
  8
0
 10
-8.19196
 11
-10.0173
 20
-5.21858
 21
-7.66033
  0
LINE
  8
0
 10
-10.0173
 11
-7.66034
 20
-7.66033
 21
-10.0173
  0
LINE
  8
0
 10
-7.66034
 11
-5.21859
 20
-10.0173
 21
-8.19194
  0
LINE
  8
0
 10
-5.21859
 11
-4.86112
 20
-8.19194
 21
-8.41968
  0
LINE
  8
0
 10
-4.86112
 11
-4.10878
 20
-8.41968
 21
-8.81132
  0
LINE
  8
0
 10
-4.10878
 11
-1.46373
 20
-8.81132
 21
-3.13896
  0
LINE
  8
0
 10
-1.46373
 11
-1.66406
 20
-3.13896
 21
-3.04748
  0
LINE
  8
0
 10
-1.66406
 11
-2.08083
 20
-3.04748
 21
-2.77965
  0
LINE
  8
0
 10
-2.08083
 11
-2.45523
 20
-2.77965
 21
-2.45523
  0
LINE
  8
0
 10
-2.45523
 11
-2.77965
 20
-2.45523
 21
-2.08083
  0
LINE
  8
0
 10
-2.77965
 11
-3.04748
 20
-2.08083
 21
-1.66406
  0
LINE
  8
0
 10
-3.04748
 11
-3.25328
 20
-1.66406
 21
-1.21342
  0
LINE
  8
0
 10
-3.25328
 11
-3.39285
 20
-1.21342
 21
-0.738073
  0
LINE
  8
0
 10
-3.39285
 11
-3.46337
 20
-0.738073
 21
-0.247707
  0
LINE
  8
0
 10
-3.46337
 11
-3.46337
 20
-0.247707
 21
0.247707
  0
LINE
  8
0
 10
-3.46337
 11
-3.39285
 20
0.247707
 21
0.738073
  0
LINE
  8
0
 10
-3.39285
 11
-3.25328
 20
0.738073
 21
1.21342
  0
LINE
  8
0
 10
-3.25328
 11
-3.04748
 20
1.21342
 21
1.66406
  0
LINE
  8
0
 10
-3.04748
 11
-2.77965
 20
1.66406
 21
2.08083
  0
LINE
  8
0
 10
-2.77965
 11
-2.45523
 20
2.08083
 21
2.45523
  0
LINE
  8
0
 10
-2.45523
 11
-2.08083
 20
2.45523
 21
2.77965
  0
LINE
  8
0
 10
-2.08083
 11
-1.66406
 20
2.77965
 21
3.04748
  0
LINE
  8
0
 10
-1.66406
 11
-1.21342
 20
3.04748
 21
3.25328
  0
LINE
  8
0
 10
-1.21342
 11
-0.738073
 20
3.25328
 21
3.39285
  0
LINE
  8
0
 10
-0.738073
 11
-0.247707
 20
3.39285
 21
3.46337
  0
LINE
  8
0
 10
-0.247707
 11
0.247707
 20
3.46337
 21
3.46337
  0
LINE
  8
0
 10
0.247707
 11
0.738073
 20
3.46337
 21
3.39285
  0
LINE
  8
0
 10
0.738073
 11
1.21342
 20
3.39285
 21
3.25328
  0
LINE
  8
0
 10
1.21342
 11
1.66406
 20
3.25328
 21
3.04748
  0
LINE
  8
0
 10
1.66406
 11
2.08083
 20
3.04748
 21
2.77965
  0
LINE
  8
0
 10
2.08083
 11
2.45523
 20
2.77965
 21
2.45523
  0
LINE
  8
0
 10
2.45523
 11
2.77965
 20
2.45523
 21
2.08083
  0
LINE
  8
0
 10
2.77965
 11
3.04748
 20
2.08083
 21
1.66406
  0
LINE
  8
0
 10
3.04748
 11
3.25328
 20
1.66406
 21
1.21342
  0
LINE
  8
0
 10
3.25328
 11
3.39285
 20
1.21342
 21
0.738073
  0
LINE
  8
0
 10
3.39285
 11
3.46337
 20
0.738073
 21
0.247707
  0
LINE
  8
0
 10
3.46337
 11
3.46337
 20
0.247707
 21
-0.247707
  0
LINE
  8
0
 10
3.46337
 11
3.39285
 20
-0.247707
 21
-0.738073
  0
LINE
  8
0
 10
3.39285
 11
3.25328
 20
-0.738073
 21
-1.21342
  0
LINE
  8
0
 10
3.25328
 11
3.04748
 20
-1.21342
 21
-1.66406
  0
LINE
  8
0
 10
3.04748
 11
2.77965
 20
-1.66406
 21
-2.08083
  0
LINE
  8
0
 10
2.77965
 11
2.45523
 20
-2.08083
 21
-2.45523
  0
LINE
  8
0
 10
2.45523
 11
2.08083
 20
-2.45523
 21
-2.77965
  0
LINE
  8
0
 10
2.08083
 11
1.66406
 20
-2.77965
 21
-3.04748
  0
LINE
  8
0
 10
1.66406
 11
1.46373
 20
-3.04748
 21
-3.13896
  0
LINE
  8
0
 10
1.46373
 11
4.10878
 20
-3.13896
 21
-8.81132
  0
LINE
  8
0
 10
4.10878
 11
4.86112
 20
-8.81132
 21
-8.41968
  0
LINE
  8
0
 10
4.86112
 11
5.21858
 20
-8.41968
 21
-8.19196
  0
LINE
  8
0
 10
5.21858
 11
7.66033
 20
-8.19196
 21
-10.0173
  0
LINE
  8
0
 10
7.66033
 11
10.0173
 20
-10.0173
 21
-7.66034
  0
LINE
  8
0
 10
10.0173
 11
8.19194
 20
-7.66034
 21
-5.21859
  0
LINE
  8
0
 10
8.19194
 11
8.41968
 20
-5.21859
 21
-4.86112
  0
LINE
  8
0
 10
8.41968
 11
8.81132
 20
-4.86112
 21
-4.10878
  0
LINE
  8
0
 10
8.81132
 11
9.13589
 20
-4.10878
 21
-3.3252
  0
LINE
  8
0
 10
9.13589
 11
9.39093
 20
-3.3252
 21
-2.51629
  0
LINE
  8
0
 10
9.39093
 11
9.48267
 20
-2.51629
 21
-2.10248
  0
LINE
  8
0
 10
9.48267
 11
12.5
 20
-2.10248
 21
-1.66666
  0
LINE
  8
0
 10
12.5
 11
12.5
 20
-1.66666
 21
1.66666
  0
LINE
  8
0
 10
12.5
 11
9.48266
 20
1.66666
 21
2.10249
  0
LINE
  8
0
 10
9.48266
 11
9.39093
 20
2.10249
 21
2.51629
  0
LINE
  8
0
 10
9.39093
 11
9.13589
 20
2.51629
 21
3.3252
  0
LINE
  8
0
 10
9.13589
 11
8.81132
 20
3.3252
 21
4.10878
  0
LINE
  8
0
 10
8.81132
 11
8.41968
 20
4.10878
 21
4.86112
  0
LINE
  8
0
 10
8.41968
 11
8.19196
 20
4.86112
 21
5.21858
  0
LINE
  8
0
 10
8.19196
 11
10.0173
 20
5.21858
 21
7.66033
  0
LINE
  8
0
 10
10.0173
 11
7.66034
 20
7.66033
 21
10.0173
  0
LINE
  8
0
 10
7.66034
 11
5.21859
 20
10.0173
 21
8.19194
  0
LINE
  8
0
 10
5.21859
 11
4.86112
 20
8.19194
 21
8.41968
  0
LINE
  8
0
 10
4.86112
 11
4.10878
 20
8.41968
 21
8.81132
  0
LINE
  8
0
 10
4.10878
 11
3.3252
 20
8.81132
 21
9.13589
  0
LINE
  8
0
 10
3.3252
 11
2.51629
 20
9.13589
 21
9.39093
  0
LINE
  8
0
 10
2.51629
 11
2.10248
 20
9.39093
 21
9.48267
  0
LINE
  8
0
 10
2.10248
 11
1.66666
 20
9.48267
 21
12.5
  0
LINE
  8
0
 10
1.66666
 11
-1.66666
 20
12.5
 21
12.5
  0
LINE
  8
0
 10
-1.66666
 11
-2.10249
 20
12.5
 21
9.48266
  0
LINE
  8
0
 10
-2.10249
 11
-2.51629
 20
9.48266
 21
9.39093
  0
LINE
  8
0
 10
-2.51629
 11
-3.3252
 20
9.39093
 21
9.13589
  0
LINE
  8
0
 10
-3.3252
 11
-4.10878
 20
9.13589
 21
8.81132
  0
LINE
  8
0
 10
-4.10878
 11
-4.86112
 20
8.81132
 21
8.41968
  0
LINE
  8
0
 10
-4.86112
 11
-5.21858
 20
8.41968
 21
8.19196
  0
LINE
  8
0
 10
-5.21858
 11
-7.66033
 20
8.19196
 21
10.0173
  0
LINE
  8
0
 10
-7.66033
 11
-10.0173
 20
10.0173
 21
7.66034
  0
LINE
  8
0
 10
-10.0173
 11
-8.19194
 20
7.66034
 21
5.21859
  0
ENDSEC
  0
SECTION
  2
OBJECTS
  0
DICTIONARY
  0
ENDSEC
  0
EOF
