solid OpenSCAD_Model
  facet normal 1 0 0
    outer loop
      vertex 0 35 4
      vertex 0 39 0
      vertex 0 39 15
    endloop
  endfacet
  facet normal 1 0 0
    outer loop
      vertex 0 35 4
      vertex 0 28.7669 4
      vertex 0 28.7669 0
    endloop
  endfacet
  facet normal 1 0 0
    outer loop
      vertex 0 28.7669 0
      vertex 0 39 0
      vertex 0 35 4
    endloop
  endfacet
  facet normal 1 0 0
    outer loop
      vertex 0 35 15
      vertex 0 35 4
      vertex 0 39 15
    endloop
  endfacet
  facet normal 0 0 -1
    outer loop
      vertex -30 39 0
      vertex 0 39 0
      vertex -30 0 0
    endloop
  endfacet
  facet normal 0 0 -1
    outer loop
      vertex -30 0 0
      vertex 0 39 0
      vertex 0 28.7669 0
    endloop
  endfacet
  facet normal 0 0 -1
    outer loop
      vertex -30 0 0
      vertex 0 28.7669 0
      vertex -20.1428 0 0
    endloop
  endfacet
  facet normal 0.819152 -0.573576 0
    outer loop
      vertex -20.1428 0 0
      vertex 0 28.7669 0
      vertex 0 28.7669 4
    endloop
  endfacet
  facet normal 0.819152 -0.573576 0
    outer loop
      vertex -20.1428 0 4
      vertex -20.1428 0 0
      vertex 0 28.7669 4
    endloop
  endfacet
  facet normal 0 0 1
    outer loop
      vertex -22 8.88178e-16 4
      vertex -20.1428 0 4
      vertex 0 28.7669 4
    endloop
  endfacet
  facet normal 0 0 1
    outer loop
      vertex -22 35 4
      vertex -22 20.75 4
      vertex 0 35 4
    endloop
  endfacet
  facet normal 0 0 1
    outer loop
      vertex -26 0 4
      vertex -20.1428 0 4
      vertex -22 8.88178e-16 4
    endloop
  endfacet
  facet normal 0 0 1
    outer loop
      vertex -22 20.75 4
      vertex 0 28.7669 4
      vertex 0 35 4
    endloop
  endfacet
  facet normal 0 0 1
    outer loop
      vertex -22 20.75 4
      vertex -22 8.88178e-16 4
      vertex 0 28.7669 4
    endloop
  endfacet
  facet normal 0 -1 0
    outer loop
      vertex -13.75 35 8.23494
      vertex -22 35 4
      vertex 0 35 4
    endloop
  endfacet
  facet normal 0 -1 0
    outer loop
      vertex -13.75 35 12.5651
      vertex -12.5 35 10.4
      vertex -6.25 35 8.23494
    endloop
  endfacet
  facet normal 0 -1 0
    outer loop
      vertex -2.5 35 10.4
      vertex -3.75 35 8.23494
      vertex 0 35 4
    endloop
  endfacet
  facet normal 0 -1 0
    outer loop
      vertex 0 35 15
      vertex -22 35 15
      vertex -6.25 35 12.5651
    endloop
  endfacet
  facet normal 0 -1 0
    outer loop
      vertex -3.75 35 8.23494
      vertex -6.25 35 8.23494
      vertex 0 35 4
    endloop
  endfacet
  facet normal 0 -1 0
    outer loop
      vertex 0 35 15
      vertex -2.5 35 10.4
      vertex 0 35 4
    endloop
  endfacet
  facet normal 0 -1 0
    outer loop
      vertex 0 35 15
      vertex -3.75 35 12.5651
      vertex -2.5 35 10.4
    endloop
  endfacet
  facet normal 0 -1 0
    outer loop
      vertex -22 35 15
      vertex -22 35 4
      vertex -17.5 35 10.4
    endloop
  endfacet
  facet normal 0 -1 0
    outer loop
      vertex -12.5 35 10.4
      vertex -13.75 35 8.23494
      vertex 0 35 4
    endloop
  endfacet
  facet normal 0 -1 0
    outer loop
      vertex -13.75 35 12.5651
      vertex -6.25 35 8.23494
      vertex -7.5 35 10.4
    endloop
  endfacet
  facet normal 0 -1 0
    outer loop
      vertex -6.25 35 12.5651
      vertex -13.75 35 12.5651
      vertex -7.5 35 10.4
    endloop
  endfacet
  facet normal 0 -1 0
    outer loop
      vertex -6.25 35 12.5651
      vertex -22 35 15
      vertex -13.75 35 12.5651
    endloop
  endfacet
  facet normal 0 -1 0
    outer loop
      vertex -6.25 35 8.23494
      vertex -12.5 35 10.4
      vertex 0 35 4
    endloop
  endfacet
  facet normal 0 -1 0
    outer loop
      vertex -16.25 35 12.5651
      vertex -13.75 35 12.5651
      vertex -22 35 15
    endloop
  endfacet
  facet normal 0 -1 0
    outer loop
      vertex -16.25 35 8.23494
      vertex -22 35 4
      vertex -13.75 35 8.23494
    endloop
  endfacet
  facet normal 0 -1 0
    outer loop
      vertex -17.5 35 10.4
      vertex -22 35 4
      vertex -16.25 35 8.23494
    endloop
  endfacet
  facet normal 0 -1 0
    outer loop
      vertex -6.25 35 12.5651
      vertex -3.75 35 12.5651
      vertex 0 35 15
    endloop
  endfacet
  facet normal 0 -1 0
    outer loop
      vertex -17.5 35 10.4
      vertex -16.25 35 12.5651
      vertex -22 35 15
    endloop
  endfacet
  facet normal 0 0 1
    outer loop
      vertex 0 35 15
      vertex -22 39 15
      vertex -22 35 15
    endloop
  endfacet
  facet normal 0 0 1
    outer loop
      vertex 0 39 15
      vertex -22 39 15
      vertex 0 35 15
    endloop
  endfacet
  facet normal 0 0 1
    outer loop
      vertex -26 39 15
      vertex -22 39 15
      vertex 0 39 15
    endloop
  endfacet
  facet normal 0 1 0
    outer loop
      vertex -30 39 3.5
      vertex -26 39 3.5
      vertex -30 39 0
    endloop
  endfacet
  facet normal 0 1 0
    outer loop
      vertex -17.5 39 10.4
      vertex -26 39 3.5
      vertex -26 39 15
    endloop
  endfacet
  facet normal 0 1 0
    outer loop
      vertex -2.5 39 10.4
      vertex 0 39 15
      vertex 0 39 0
    endloop
  endfacet
  facet normal 0 1 0
    outer loop
      vertex -3.75 39 8.23494
      vertex 0 39 0
      vertex -6.25 39 8.23494
    endloop
  endfacet
  facet normal 0 1 0
    outer loop
      vertex -30 39 0
      vertex -7.5 39 10.4
      vertex -6.25 39 8.23494
    endloop
  endfacet
  facet normal 0 1 0
    outer loop
      vertex -30 39 0
      vertex -6.25 39 8.23494
      vertex 0 39 0
    endloop
  endfacet
  facet normal 0 1 0
    outer loop
      vertex -6.25 39 12.5651
      vertex 0 39 15
      vertex -3.75 39 12.5651
    endloop
  endfacet
  facet normal 0 1 0
    outer loop
      vertex -3.75 39 12.5651
      vertex 0 39 15
      vertex -2.5 39 10.4
    endloop
  endfacet
  facet normal 0 1 0
    outer loop
      vertex -3.75 39 8.23494
      vertex -2.5 39 10.4
      vertex 0 39 0
    endloop
  endfacet
  facet normal 0 1 0
    outer loop
      vertex 0 39 15
      vertex -6.25 39 12.5651
      vertex -26 39 15
    endloop
  endfacet
  facet normal 0 1 0
    outer loop
      vertex -16.25 39 8.23494
      vertex -26 39 3.5
      vertex -17.5 39 10.4
    endloop
  endfacet
  facet normal 0 1 0
    outer loop
      vertex -16.25 39 12.5651
      vertex -17.5 39 10.4
      vertex -26 39 15
    endloop
  endfacet
  facet normal 0 1 0
    outer loop
      vertex -30 39 0
      vertex -26 39 3.5
      vertex -13.75 39 8.23494
    endloop
  endfacet
  facet normal 0 1 0
    outer loop
      vertex -13.75 39 12.5651
      vertex -6.25 39 12.5651
      vertex -12.5 39 10.4
    endloop
  endfacet
  facet normal 0 1 0
    outer loop
      vertex -6.25 39 12.5651
      vertex -13.75 39 12.5651
      vertex -26 39 15
    endloop
  endfacet
  facet normal 0 1 0
    outer loop
      vertex -13.75 39 12.5651
      vertex -16.25 39 12.5651
      vertex -26 39 15
    endloop
  endfacet
  facet normal 0 1 0
    outer loop
      vertex -7.5 39 10.4
      vertex -30 39 0
      vertex -13.75 39 8.23494
    endloop
  endfacet
  facet normal 0 1 0
    outer loop
      vertex -12.5 39 10.4
      vertex -6.25 39 12.5651
      vertex -13.75 39 8.23494
    endloop
  endfacet
  facet normal 0 1 0
    outer loop
      vertex -7.5 39 10.4
      vertex -13.75 39 8.23494
      vertex -6.25 39 12.5651
    endloop
  endfacet
  facet normal 0 1 0
    outer loop
      vertex -13.75 39 8.23494
      vertex -26 39 3.5
      vertex -16.25 39 8.23494
    endloop
  endfacet
  facet normal -1 0 0
    outer loop
      vertex -30 0 2
      vertex -30 26 2
      vertex -30 0 0
    endloop
  endfacet
  facet normal -1 0 0
    outer loop
      vertex -30 39 3.5
      vertex -30 26 2
      vertex -30 26 3.5
    endloop
  endfacet
  facet normal -1 0 0
    outer loop
      vertex -30 39 0
      vertex -30 26 2
      vertex -30 39 3.5
    endloop
  endfacet
  facet normal -1 0 0
    outer loop
      vertex -30 0 0
      vertex -30 26 2
      vertex -30 39 0
    endloop
  endfacet
  facet normal 0 -1 0
    outer loop
      vertex -30 0 0
      vertex -20.1428 0 0
      vertex -20.1428 0 4
    endloop
  endfacet
  facet normal 0 -1 0
    outer loop
      vertex -26 0 2
      vertex -30 0 0
      vertex -20.1428 0 4
    endloop
  endfacet
  facet normal 0 -1 0
    outer loop
      vertex -26 0 4
      vertex -26 0 2
      vertex -20.1428 0 4
    endloop
  endfacet
  facet normal 0 -1 0
    outer loop
      vertex -26 0 2
      vertex -30 0 2
      vertex -30 0 0
    endloop
  endfacet
  facet normal 2.22045e-16 -1 -4.93038e-32
    outer loop
      vertex -30 -8.88178e-16 2
      vertex -26 0 2
      vertex -26 0 4
    endloop
  endfacet
  facet normal 2.22045e-16 -1 -4.93038e-32
    outer loop
      vertex -24.701 2.88444e-16 8.25
      vertex -30 -8.88178e-16 2
      vertex -26 0 4
    endloop
  endfacet
  facet normal 2.22045e-16 -1 -4.93038e-32
    outer loop
      vertex -22 8.88178e-16 4
      vertex -22 8.88178e-16 13.0366
      vertex -26 0 4
    endloop
  endfacet
  facet normal 2.22045e-16 -1 -4.93038e-32
    outer loop
      vertex -27.299 -2.88444e-16 8.25
      vertex -30 -8.88178e-16 13.0366
      vertex -30 -8.88178e-16 2
    endloop
  endfacet
  facet normal 2.22045e-16 -1 -4.93038e-32
    outer loop
      vertex -27.299 -2.88444e-16 9.75
      vertex -30 -8.88178e-16 13.0366
      vertex -27.299 -2.88444e-16 8.25
    endloop
  endfacet
  facet normal 2.22045e-16 -1 -4.93038e-32
    outer loop
      vertex -22 8.88178e-16 13.0366
      vertex -30 -8.88178e-16 13.0366
      vertex -27.299 -2.88444e-16 9.75
    endloop
  endfacet
  facet normal 2.22045e-16 -1 -4.93038e-32
    outer loop
      vertex -24.701 2.88444e-16 9.75
      vertex -24.701 2.88444e-16 8.25
      vertex -22 8.88178e-16 13.0366
    endloop
  endfacet
  facet normal 2.22045e-16 -1 -4.93038e-32
    outer loop
      vertex -22 8.88178e-16 13.0366
      vertex -27.299 -2.88444e-16 9.75
      vertex -26 -6.90253e-31 10.5
    endloop
  endfacet
  facet normal 2.22045e-16 -1 -4.93038e-32
    outer loop
      vertex -26 -6.90253e-31 10.5
      vertex -24.701 2.88444e-16 9.75
      vertex -22 8.88178e-16 13.0366
    endloop
  endfacet
  facet normal 2.22045e-16 -1 -4.93038e-32
    outer loop
      vertex -22 8.88178e-16 13.0366
      vertex -24.701 2.88444e-16 8.25
      vertex -26 0 4
    endloop
  endfacet
  facet normal 2.22045e-16 -1 -4.93038e-32
    outer loop
      vertex -26 -6.90253e-31 7.5
      vertex -30 -8.88178e-16 2
      vertex -24.701 2.88444e-16 8.25
    endloop
  endfacet
  facet normal 2.22045e-16 -1 -4.93038e-32
    outer loop
      vertex -26 -6.90253e-31 7.5
      vertex -27.299 -2.88444e-16 8.25
      vertex -30 -8.88178e-16 2
    endloop
  endfacet
  facet normal 1 2.22045e-16 -2.22045e-16
    outer loop
      vertex -22 20.75 4
      vertex -22 25.875 9.125
      vertex -22 7 28
    endloop
  endfacet
  facet normal 1 2.22045e-16 -2.22045e-16
    outer loop
      vertex -22 1.40992 20.317
      vertex -22 20.75 4
      vertex -22 8.88178e-16 28
    endloop
  endfacet
  facet normal 1 2.22045e-16 -2.22045e-16
    outer loop
      vertex -22 8.88178e-16 28
      vertex -22 20.75 4
      vertex -22 7 28
    endloop
  endfacet
  facet normal 1 2.22045e-16 -2.22045e-16
    outer loop
      vertex -22 8.88178e-16 20.9634
      vertex -22 0.26697 20.8993
      vertex -22 8.88178e-16 28
    endloop
  endfacet
  facet normal 1 2.22045e-16 -2.22045e-16
    outer loop
      vertex -22 0.26697 20.8993
      vertex -22 0.861361 20.6531
      vertex -22 8.88178e-16 28
    endloop
  endfacet
  facet normal 1 2.22045e-16 -2.22045e-16
    outer loop
      vertex -22 0.861361 20.6531
      vertex -22 1.40992 20.317
      vertex -22 8.88178e-16 28
    endloop
  endfacet
  facet normal 1 2.22045e-16 -2.22045e-16
    outer loop
      vertex -22 1.89914 19.8991
      vertex -22 20.75 4
      vertex -22 1.40992 20.317
    endloop
  endfacet
  facet normal 1 2.22045e-16 -2.22045e-16
    outer loop
      vertex -22 2.31697 19.4099
      vertex -22 2.65313 18.8614
      vertex -22 20.75 4
    endloop
  endfacet
  facet normal 1 2.22045e-16 -2.22045e-16
    outer loop
      vertex -22 2.65313 18.8614
      vertex -22 2.89933 18.267
      vertex -22 20.75 4
    endloop
  endfacet
  facet normal 1 2.22045e-16 -2.22045e-16
    outer loop
      vertex -22 3.04952 17.6414
      vertex -22 20.75 4
      vertex -22 2.89933 18.267
    endloop
  endfacet
  facet normal 1 2.22045e-16 -2.22045e-16
    outer loop
      vertex -22 3.1 17
      vertex -22 20.75 4
      vertex -22 3.04952 17.6414
    endloop
  endfacet
  facet normal 1 2.22045e-16 -2.22045e-16
    outer loop
      vertex -22 3.04952 16.3586
      vertex -22 20.75 4
      vertex -22 3.1 17
    endloop
  endfacet
  facet normal 1 2.22045e-16 -2.22045e-16
    outer loop
      vertex -22 2.89933 15.733
      vertex -22 20.75 4
      vertex -22 3.04952 16.3586
    endloop
  endfacet
  facet normal 1 2.22045e-16 -2.22045e-16
    outer loop
      vertex -22 2.65313 15.1386
      vertex -22 20.75 4
      vertex -22 2.89933 15.733
    endloop
  endfacet
  facet normal 1 2.22045e-16 -2.22045e-16
    outer loop
      vertex -22 2.31697 14.5901
      vertex -22 20.75 4
      vertex -22 2.65313 15.1386
    endloop
  endfacet
  facet normal 1 2.22045e-16 -2.22045e-16
    outer loop
      vertex -22 1.89914 14.1009
      vertex -22 20.75 4
      vertex -22 2.31697 14.5901
    endloop
  endfacet
  facet normal 1 2.22045e-16 -2.22045e-16
    outer loop
      vertex -22 1.40992 13.683
      vertex -22 20.75 4
      vertex -22 1.89914 14.1009
    endloop
  endfacet
  facet normal 1 2.22045e-16 -2.22045e-16
    outer loop
      vertex -22 0.861361 13.3469
      vertex -22 20.75 4
      vertex -22 1.40992 13.683
    endloop
  endfacet
  facet normal 1 2.22045e-16 -2.22045e-16
    outer loop
      vertex -22 0.26697 13.1007
      vertex -22 20.75 4
      vertex -22 0.861361 13.3469
    endloop
  endfacet
  facet normal 1 2.22045e-16 -2.22045e-16
    outer loop
      vertex -22 8.88178e-16 13.0366
      vertex -22 20.75 4
      vertex -22 0.26697 13.1007
    endloop
  endfacet
  facet normal 1 2.22045e-16 -2.22045e-16
    outer loop
      vertex -22 8.88178e-16 4
      vertex -22 20.75 4
      vertex -22 8.88178e-16 13.0366
    endloop
  endfacet
  facet normal 1 2.22045e-16 -2.22045e-16
    outer loop
      vertex -22 1.89914 19.8991
      vertex -22 2.31697 19.4099
      vertex -22 20.75 4
    endloop
  endfacet
  facet normal 1 -2.22045e-16 2.22045e-16
    outer loop
      vertex -22 22 13
      vertex -22 25.875 9.125
      vertex -22 35 4
    endloop
  endfacet
  facet normal 1 -2.22045e-16 2.22045e-16
    outer loop
      vertex -22 35 4
      vertex -22 25.875 9.125
      vertex -22 20.75 4
    endloop
  endfacet
  facet normal 1 -2.22045e-16 2.22045e-16
    outer loop
      vertex -22 22 13
      vertex -22 35 15
      vertex -22 39 29.5
    endloop
  endfacet
  facet normal 1 -2.22045e-16 2.22045e-16
    outer loop
      vertex -22 22 13
      vertex -22 35 4
      vertex -22 35 15
    endloop
  endfacet
  facet normal 1 -2.22045e-16 2.22045e-16
    outer loop
      vertex -22 35 15
      vertex -22 39 15
      vertex -22 39 29.5
    endloop
  endfacet
  facet normal 1 -2.22045e-16 2.22045e-16
    outer loop
      vertex -22 22 13
      vertex -22 39 29.5
      vertex -22 38.5 29.5
    endloop
  endfacet
  facet normal 0.866025 -1.11022e-16 -0.5
    outer loop
      vertex -7.5 35 10.4
      vertex -7.5 39 10.4
      vertex -6.25 39 12.5651
    endloop
  endfacet
  facet normal 0.866025 -1.11022e-16 -0.5
    outer loop
      vertex -6.25 35 12.5651
      vertex -7.5 35 10.4
      vertex -6.25 39 12.5651
    endloop
  endfacet
  facet normal 0.866025 1.11022e-16 0.5
    outer loop
      vertex -7.5 35 10.4
      vertex -6.25 35 8.23494
      vertex -6.25 39 8.23494
    endloop
  endfacet
  facet normal 0.866025 1.11022e-16 0.5
    outer loop
      vertex -7.5 39 10.4
      vertex -7.5 35 10.4
      vertex -6.25 39 8.23494
    endloop
  endfacet
  facet normal 0 2.22045e-16 1
    outer loop
      vertex -6.25 35 8.23494
      vertex -3.75 35 8.23494
      vertex -3.75 39 8.23494
    endloop
  endfacet
  facet normal 0 2.22045e-16 1
    outer loop
      vertex -6.25 39 8.23494
      vertex -6.25 35 8.23494
      vertex -3.75 39 8.23494
    endloop
  endfacet
  facet normal -0.866025 1.11022e-16 0.5
    outer loop
      vertex -2.5 35 10.4
      vertex -2.5 39 10.4
      vertex -3.75 35 8.23494
    endloop
  endfacet
  facet normal -0.866025 1.11022e-16 0.5
    outer loop
      vertex -3.75 35 8.23494
      vertex -2.5 39 10.4
      vertex -3.75 39 8.23494
    endloop
  endfacet
  facet normal -0.866025 -1.11022e-16 -0.5
    outer loop
      vertex -3.75 39 12.5651
      vertex -2.5 39 10.4
      vertex -3.75 35 12.5651
    endloop
  endfacet
  facet normal -0.866025 -1.11022e-16 -0.5
    outer loop
      vertex -3.75 35 12.5651
      vertex -2.5 39 10.4
      vertex -2.5 35 10.4
    endloop
  endfacet
  facet normal 0 -2.22045e-16 -1
    outer loop
      vertex -6.25 39 12.5651
      vertex -3.75 39 12.5651
      vertex -6.25 35 12.5651
    endloop
  endfacet
  facet normal 0 -2.22045e-16 -1
    outer loop
      vertex -6.25 35 12.5651
      vertex -3.75 39 12.5651
      vertex -3.75 35 12.5651
    endloop
  endfacet
  facet normal 0.866025 -1.11022e-16 -0.5
    outer loop
      vertex -17.5 35 10.4
      vertex -17.5 39 10.4
      vertex -16.25 39 12.5651
    endloop
  endfacet
  facet normal 0.866025 -1.11022e-16 -0.5
    outer loop
      vertex -16.25 35 12.5651
      vertex -17.5 35 10.4
      vertex -16.25 39 12.5651
    endloop
  endfacet
  facet normal 0.866025 1.11022e-16 0.5
    outer loop
      vertex -17.5 35 10.4
      vertex -16.25 35 8.23494
      vertex -16.25 39 8.23494
    endloop
  endfacet
  facet normal 0.866025 1.11022e-16 0.5
    outer loop
      vertex -17.5 39 10.4
      vertex -17.5 35 10.4
      vertex -16.25 39 8.23494
    endloop
  endfacet
  facet normal 0 2.22045e-16 1
    outer loop
      vertex -16.25 35 8.23494
      vertex -13.75 35 8.23494
      vertex -13.75 39 8.23494
    endloop
  endfacet
  facet normal 0 2.22045e-16 1
    outer loop
      vertex -16.25 39 8.23494
      vertex -16.25 35 8.23494
      vertex -13.75 39 8.23494
    endloop
  endfacet
  facet normal -0.866025 1.11022e-16 0.5
    outer loop
      vertex -12.5 35 10.4
      vertex -12.5 39 10.4
      vertex -13.75 35 8.23494
    endloop
  endfacet
  facet normal -0.866025 1.11022e-16 0.5
    outer loop
      vertex -13.75 35 8.23494
      vertex -12.5 39 10.4
      vertex -13.75 39 8.23494
    endloop
  endfacet
  facet normal -0.866025 -1.11022e-16 -0.5
    outer loop
      vertex -13.75 39 12.5651
      vertex -12.5 39 10.4
      vertex -13.75 35 12.5651
    endloop
  endfacet
  facet normal -0.866025 -1.11022e-16 -0.5
    outer loop
      vertex -13.75 35 12.5651
      vertex -12.5 39 10.4
      vertex -12.5 35 10.4
    endloop
  endfacet
  facet normal 0 -2.22045e-16 -1
    outer loop
      vertex -16.25 39 12.5651
      vertex -13.75 39 12.5651
      vertex -16.25 35 12.5651
    endloop
  endfacet
  facet normal 0 -2.22045e-16 -1
    outer loop
      vertex -16.25 35 12.5651
      vertex -13.75 39 12.5651
      vertex -13.75 35 12.5651
    endloop
  endfacet
  facet normal 2.22045e-16 1 4.93038e-32
    outer loop
      vertex -22 39 29.5
      vertex -22 39 15
      vertex -30 39 29.5
    endloop
  endfacet
  facet normal 2.22045e-16 1 4.93038e-32
    outer loop
      vertex -30 39 29.5
      vertex -22 39 15
      vertex -26 39 15
    endloop
  endfacet
  facet normal 2.22045e-16 1 4.93038e-32
    outer loop
      vertex -30 39 29.5
      vertex -26 39 15
      vertex -26 39 3.5
    endloop
  endfacet
  facet normal 2.22045e-16 1 4.93038e-32
    outer loop
      vertex -30 39 29.5
      vertex -26 39 3.5
      vertex -30 39 3.5
    endloop
  endfacet
  facet normal -2.22045e-16 1 4.93038e-32
    outer loop
      vertex -30 26 2
      vertex -30 26 9
      vertex -30 26 3.5
    endloop
  endfacet
  facet normal -2.22045e-16 -4.93038e-32 -1
    outer loop
      vertex -30 -8.88178e-16 2
      vertex -30 0 2
      vertex -26 0 2
    endloop
  endfacet
  facet normal -2.22045e-16 -4.93038e-32 -1
    outer loop
      vertex -30 26 2
      vertex -30 0 2
      vertex -30 -8.88178e-16 2
    endloop
  endfacet
  facet normal -1 -2.22045e-16 2.22045e-16
    outer loop
      vertex -30 0.861361 20.6531
      vertex -30 -8.88178e-16 28
      vertex -30 1.40992 20.317
    endloop
  endfacet
  facet normal -1 -2.22045e-16 2.22045e-16
    outer loop
      vertex -30 0.26697 20.8993
      vertex -30 -8.88178e-16 20.9634
      vertex -30 -8.88178e-16 28
    endloop
  endfacet
  facet normal -1 -2.22045e-16 2.22045e-16
    outer loop
      vertex -30 0.26697 20.8993
      vertex -30 -8.88178e-16 28
      vertex -30 0.861361 20.6531
    endloop
  endfacet
  facet normal -1 -2.22045e-16 2.22045e-16
    outer loop
      vertex -30 2 4
      vertex -30 -8.88178e-16 13.0366
      vertex -30 13 4
    endloop
  endfacet
  facet normal -1 -2.22045e-16 2.22045e-16
    outer loop
      vertex -30 -8.88178e-16 2
      vertex -30 13 4
      vertex -30 13 3.5
    endloop
  endfacet
  facet normal -1 -2.22045e-16 2.22045e-16
    outer loop
      vertex -30 -8.88178e-16 2
      vertex -30 13 3.5
      vertex -30 26 2
    endloop
  endfacet
  facet normal -1 -2.22045e-16 2.22045e-16
    outer loop
      vertex -30 20.25 3.5
      vertex -30 26 2
      vertex -30 13 3.5
    endloop
  endfacet
  facet normal -1 -2.22045e-16 2.22045e-16
    outer loop
      vertex -30 25.875 9.125
      vertex -30 26 2
      vertex -30 20.25 3.5
    endloop
  endfacet
  facet normal -1 -2.22045e-16 2.22045e-16
    outer loop
      vertex -30 26 2
      vertex -30 25.875 9.125
      vertex -30 26 9
    endloop
  endfacet
  facet normal -1 -2.22045e-16 2.22045e-16
    outer loop
      vertex -30 -8.88178e-16 2
      vertex -30 -8.88178e-16 13.0366
      vertex -30 0 2
    endloop
  endfacet
  facet normal -1 -2.22045e-16 2.22045e-16
    outer loop
      vertex -30 -8.88178e-16 2
      vertex -30 0 2
      vertex -30 13 4
    endloop
  endfacet
  facet normal -1 -2.22045e-16 2.22045e-16
    outer loop
      vertex -30 0 4
      vertex -30 -8.88178e-16 13.0366
      vertex -30 2 4
    endloop
  endfacet
  facet normal -1 -2.22045e-16 2.22045e-16
    outer loop
      vertex -30 0 2
      vertex -30 2 4
      vertex -30 13 4
    endloop
  endfacet
  facet normal -1 -2.22045e-16 2.22045e-16
    outer loop
      vertex -30 0 2
      vertex -30 -8.88178e-16 13.0366
      vertex -30 0 4
    endloop
  endfacet
  facet normal -1 -2.22045e-16 2.22045e-16
    outer loop
      vertex -30 13 4
      vertex -30 -8.88178e-16 13.0366
      vertex -30 0.26697 13.1007
    endloop
  endfacet
  facet normal -1 -2.22045e-16 2.22045e-16
    outer loop
      vertex -30 13 4
      vertex -30 0.26697 13.1007
      vertex -30 0.861361 13.3469
    endloop
  endfacet
  facet normal -1 -2.22045e-16 2.22045e-16
    outer loop
      vertex -30 13 4
      vertex -30 0.861361 13.3469
      vertex -30 1.40992 13.683
    endloop
  endfacet
  facet normal -1 -2.22045e-16 2.22045e-16
    outer loop
      vertex -30 13 4
      vertex -30 1.40992 13.683
      vertex -30 1.89914 14.1009
    endloop
  endfacet
  facet normal -1 -2.22045e-16 2.22045e-16
    outer loop
      vertex -30 13 4
      vertex -30 1.89914 14.1009
      vertex -30 2.31697 14.5901
    endloop
  endfacet
  facet normal -1 -2.22045e-16 2.22045e-16
    outer loop
      vertex -30 13 4
      vertex -30 2.31697 14.5901
      vertex -30 2.65313 15.1386
    endloop
  endfacet
  facet normal -1 -2.22045e-16 2.22045e-16
    outer loop
      vertex -30 13 4
      vertex -30 2.65313 15.1386
      vertex -30 2.89933 15.733
    endloop
  endfacet
  facet normal -1 -2.22045e-16 2.22045e-16
    outer loop
      vertex -30 13 4
      vertex -30 2.89933 15.733
      vertex -30 3.04952 16.3586
    endloop
  endfacet
  facet normal -1 -2.22045e-16 2.22045e-16
    outer loop
      vertex -30 13 4
      vertex -30 3.04952 16.3586
      vertex -30 3.1 17
    endloop
  endfacet
  facet normal -1 -2.22045e-16 2.22045e-16
    outer loop
      vertex -30 13 4
      vertex -30 3.1 17
      vertex -30 3.04952 17.6414
    endloop
  endfacet
  facet normal -1 -2.22045e-16 2.22045e-16
    outer loop
      vertex -30 13 4
      vertex -30 3.04952 17.6414
      vertex -30 2.89933 18.267
    endloop
  endfacet
  facet normal -1 -2.22045e-16 2.22045e-16
    outer loop
      vertex -30 13 4
      vertex -30 2.89933 18.267
      vertex -30 2.65313 18.8614
    endloop
  endfacet
  facet normal -1 -2.22045e-16 2.22045e-16
    outer loop
      vertex -30 13 4
      vertex -30 2.65313 18.8614
      vertex -30 2.31697 19.4099
    endloop
  endfacet
  facet normal -1 -2.22045e-16 2.22045e-16
    outer loop
      vertex -30 1.89914 19.8991
      vertex -30 1.40992 20.317
      vertex -30 -8.88178e-16 28
    endloop
  endfacet
  facet normal -1 -2.22045e-16 2.22045e-16
    outer loop
      vertex -30 2.31697 19.4099
      vertex -30 1.89914 19.8991
      vertex -30 -8.88178e-16 28
    endloop
  endfacet
  facet normal -1 -2.22045e-16 2.22045e-16
    outer loop
      vertex -30 13 4
      vertex -30 2.31697 19.4099
      vertex -30 -8.88178e-16 28
    endloop
  endfacet
  facet normal -1 -2.22045e-16 2.22045e-16
    outer loop
      vertex -30 13 4
      vertex -30 -8.88178e-16 28
      vertex -30 7 28
    endloop
  endfacet
  facet normal -1 -2.22045e-16 2.22045e-16
    outer loop
      vertex -30 13 4
      vertex -30 7 28
      vertex -30 22 13
    endloop
  endfacet
  facet normal 2.1591e-16 -0.233444 0.97237
    outer loop
      vertex -30 0.26697 13.1007
      vertex -30 -8.88178e-16 13.0366
      vertex -22 8.88178e-16 13.0366
    endloop
  endfacet
  facet normal 2.1591e-16 -0.233444 0.97237
    outer loop
      vertex -22 0.26697 13.1007
      vertex -30 0.26697 13.1007
      vertex -22 8.88178e-16 13.0366
    endloop
  endfacet
  facet normal 0.5 -1.11022e-16 0.866025
    outer loop
      vertex -27.299 -2.88444e-16 8.25
      vertex -26 -6.90253e-31 7.5
      vertex -26 7 7.5
    endloop
  endfacet
  facet normal 0.5 -1.11022e-16 0.866025
    outer loop
      vertex -27.299 7 8.25
      vertex -27.299 -2.88444e-16 8.25
      vertex -26 7 7.5
    endloop
  endfacet
  facet normal 1 -2.22045e-16 -2.22045e-16
    outer loop
      vertex -27.299 -2.88444e-16 8.25
      vertex -27.299 7 8.25
      vertex -27.299 7 9.75
    endloop
  endfacet
  facet normal 1 -2.22045e-16 -2.22045e-16
    outer loop
      vertex -27.299 -2.88444e-16 9.75
      vertex -27.299 -2.88444e-16 8.25
      vertex -27.299 7 9.75
    endloop
  endfacet
  facet normal -0.5 1.11022e-16 0.866025
    outer loop
      vertex -26 -6.90253e-31 7.5
      vertex -24.701 2.88444e-16 8.25
      vertex -24.701 7 8.25
    endloop
  endfacet
  facet normal -0.5 1.11022e-16 0.866025
    outer loop
      vertex -26 7 7.5
      vertex -26 -6.90253e-31 7.5
      vertex -24.701 7 8.25
    endloop
  endfacet
  facet normal -1 2.22045e-16 2.22045e-16
    outer loop
      vertex -24.701 2.88444e-16 9.75
      vertex -24.701 7 9.75
      vertex -24.701 2.88444e-16 8.25
    endloop
  endfacet
  facet normal -1 2.22045e-16 2.22045e-16
    outer loop
      vertex -24.701 2.88444e-16 8.25
      vertex -24.701 7 9.75
      vertex -24.701 7 8.25
    endloop
  endfacet
  facet normal -0.5 1.11022e-16 -0.866025
    outer loop
      vertex -26 7 10.5
      vertex -24.701 7 9.75
      vertex -26 -6.90253e-31 10.5
    endloop
  endfacet
  facet normal -0.5 1.11022e-16 -0.866025
    outer loop
      vertex -26 -6.90253e-31 10.5
      vertex -24.701 7 9.75
      vertex -24.701 2.88444e-16 9.75
    endloop
  endfacet
  facet normal 0.5 -1.11022e-16 -0.866025
    outer loop
      vertex -27.299 7 9.75
      vertex -26 7 10.5
      vertex -27.299 -2.88444e-16 9.75
    endloop
  endfacet
  facet normal 0.5 -1.11022e-16 -0.866025
    outer loop
      vertex -27.299 -2.88444e-16 9.75
      vertex -26 7 10.5
      vertex -26 -6.90253e-31 10.5
    endloop
  endfacet
  facet normal 2.05142e-16 -0.382684 0.923879
    outer loop
      vertex -30 0.861361 13.3469
      vertex -30 0.26697 13.1007
      vertex -22 0.26697 13.1007
    endloop
  endfacet
  facet normal 2.05142e-16 -0.382684 0.923879
    outer loop
      vertex -22 0.861361 13.3469
      vertex -30 0.861361 13.3469
      vertex -22 0.26697 13.1007
    endloop
  endfacet
  facet normal 1.89324e-16 -0.522498 0.85264
    outer loop
      vertex -30 1.40992 13.683
      vertex -30 0.861361 13.3469
      vertex -22 0.861361 13.3469
    endloop
  endfacet
  facet normal 1.89324e-16 -0.522498 0.85264
    outer loop
      vertex -22 1.40992 13.683
      vertex -30 1.40992 13.683
      vertex -22 0.861361 13.3469
    endloop
  endfacet
  facet normal 1.68844e-16 -0.649448 0.760406
    outer loop
      vertex -30 1.89914 14.1009
      vertex -30 1.40992 13.683
      vertex -22 1.40992 13.683
    endloop
  endfacet
  facet normal 1.68844e-16 -0.649448 0.760406
    outer loop
      vertex -22 1.89914 14.1009
      vertex -30 1.89914 14.1009
      vertex -22 1.40992 13.683
    endloop
  endfacet
  facet normal 1.44207e-16 -0.760406 0.649448
    outer loop
      vertex -30 1.89914 14.1009
      vertex -22 1.89914 14.1009
      vertex -22 2.31697 14.5901
    endloop
  endfacet
  facet normal 1.44207e-16 -0.760406 0.649448
    outer loop
      vertex -30 2.31697 14.5901
      vertex -30 1.89914 14.1009
      vertex -22 2.31697 14.5901
    endloop
  endfacet
  facet normal 1.16018e-16 -0.85264 0.522498
    outer loop
      vertex -30 2.31697 14.5901
      vertex -22 2.31697 14.5901
      vertex -22 2.65313 15.1386
    endloop
  endfacet
  facet normal 1.16018e-16 -0.85264 0.522498
    outer loop
      vertex -30 2.65313 15.1386
      vertex -30 2.31697 14.5901
      vertex -22 2.65313 15.1386
    endloop
  endfacet
  facet normal 8.49728e-17 -0.923879 0.382684
    outer loop
      vertex -30 2.65313 15.1386
      vertex -22 2.65313 15.1386
      vertex -22 2.89933 15.733
    endloop
  endfacet
  facet normal 8.49728e-17 -0.923879 0.382684
    outer loop
      vertex -30 2.89933 15.733
      vertex -30 2.65313 15.1386
      vertex -22 2.89933 15.733
    endloop
  endfacet
  facet normal 5.18351e-17 -0.97237 0.233444
    outer loop
      vertex -30 2.89933 15.733
      vertex -22 2.89933 15.733
      vertex -22 3.04952 16.3586
    endloop
  endfacet
  facet normal 5.18351e-17 -0.97237 0.233444
    outer loop
      vertex -30 3.04952 16.3586
      vertex -30 2.89933 15.733
      vertex -22 3.04952 16.3586
    endloop
  endfacet
  facet normal 1.74215e-17 -0.996917 0.0784594
    outer loop
      vertex -30 3.04952 16.3586
      vertex -22 3.04952 16.3586
      vertex -22 3.1 17
    endloop
  endfacet
  facet normal 1.74215e-17 -0.996917 0.0784594
    outer loop
      vertex -30 3.1 17
      vertex -30 3.04952 16.3586
      vertex -22 3.1 17
    endloop
  endfacet
  facet normal -1.74215e-17 -0.996917 -0.0784594
    outer loop
      vertex -30 3.1 17
      vertex -22 3.1 17
      vertex -22 3.04952 17.6414
    endloop
  endfacet
  facet normal -1.74215e-17 -0.996917 -0.0784594
    outer loop
      vertex -30 3.04952 17.6414
      vertex -30 3.1 17
      vertex -22 3.04952 17.6414
    endloop
  endfacet
  facet normal -5.18351e-17 -0.97237 -0.233444
    outer loop
      vertex -30 3.04952 17.6414
      vertex -22 3.04952 17.6414
      vertex -22 2.89933 18.267
    endloop
  endfacet
  facet normal -5.18351e-17 -0.97237 -0.233444
    outer loop
      vertex -30 2.89933 18.267
      vertex -30 3.04952 17.6414
      vertex -22 2.89933 18.267
    endloop
  endfacet
  facet normal -8.49728e-17 -0.923879 -0.382684
    outer loop
      vertex -30 2.89933 18.267
      vertex -22 2.89933 18.267
      vertex -22 2.65313 18.8614
    endloop
  endfacet
  facet normal -8.49728e-17 -0.923879 -0.382684
    outer loop
      vertex -30 2.65313 18.8614
      vertex -30 2.89933 18.267
      vertex -22 2.65313 18.8614
    endloop
  endfacet
  facet normal -1.16018e-16 -0.85264 -0.522498
    outer loop
      vertex -30 2.65313 18.8614
      vertex -22 2.65313 18.8614
      vertex -22 2.31697 19.4099
    endloop
  endfacet
  facet normal -1.16018e-16 -0.85264 -0.522498
    outer loop
      vertex -30 2.31697 19.4099
      vertex -30 2.65313 18.8614
      vertex -22 2.31697 19.4099
    endloop
  endfacet
  facet normal -1.44207e-16 -0.760406 -0.649448
    outer loop
      vertex -30 2.31697 19.4099
      vertex -22 2.31697 19.4099
      vertex -22 1.89914 19.8991
    endloop
  endfacet
  facet normal -1.44207e-16 -0.760406 -0.649448
    outer loop
      vertex -30 1.89914 19.8991
      vertex -30 2.31697 19.4099
      vertex -22 1.89914 19.8991
    endloop
  endfacet
  facet normal -1.68844e-16 -0.649448 -0.760406
    outer loop
      vertex -22 1.89914 19.8991
      vertex -22 1.40992 20.317
      vertex -30 1.89914 19.8991
    endloop
  endfacet
  facet normal -1.68844e-16 -0.649448 -0.760406
    outer loop
      vertex -30 1.89914 19.8991
      vertex -22 1.40992 20.317
      vertex -30 1.40992 20.317
    endloop
  endfacet
  facet normal -1.89324e-16 -0.522498 -0.85264
    outer loop
      vertex -22 1.40992 20.317
      vertex -22 0.861361 20.6531
      vertex -30 1.40992 20.317
    endloop
  endfacet
  facet normal -1.89324e-16 -0.522498 -0.85264
    outer loop
      vertex -30 1.40992 20.317
      vertex -22 0.861361 20.6531
      vertex -30 0.861361 20.6531
    endloop
  endfacet
  facet normal -2.05142e-16 -0.382684 -0.923879
    outer loop
      vertex -22 0.861361 20.6531
      vertex -22 0.26697 20.8993
      vertex -30 0.861361 20.6531
    endloop
  endfacet
  facet normal -2.05142e-16 -0.382684 -0.923879
    outer loop
      vertex -30 0.861361 20.6531
      vertex -22 0.26697 20.8993
      vertex -30 0.26697 20.8993
    endloop
  endfacet
  facet normal -2.1591e-16 -0.233444 -0.97237
    outer loop
      vertex -22 0.26697 20.8993
      vertex -22 8.88178e-16 20.9634
      vertex -30 0.26697 20.8993
    endloop
  endfacet
  facet normal -2.1591e-16 -0.233444 -0.97237
    outer loop
      vertex -30 0.26697 20.8993
      vertex -22 8.88178e-16 20.9634
      vertex -30 -8.88178e-16 20.9634
    endloop
  endfacet
  facet normal 2.22045e-16 -1 -4.93038e-32
    outer loop
      vertex -24.701 2.88444e-16 24.25
      vertex -22 8.88178e-16 20.9634
      vertex -22 8.88178e-16 28
    endloop
  endfacet
  facet normal 2.22045e-16 -1 -4.93038e-32
    outer loop
      vertex -24.701 2.88444e-16 25.75
      vertex -24.701 2.88444e-16 24.25
      vertex -22 8.88178e-16 28
    endloop
  endfacet
  facet normal 2.22045e-16 -1 -4.93038e-32
    outer loop
      vertex -30 -8.88178e-16 28
      vertex -30 -8.88178e-16 20.9634
      vertex -27.299 -2.88444e-16 24.25
    endloop
  endfacet
  facet normal 2.22045e-16 -1 -4.93038e-32
    outer loop
      vertex -30 -8.88178e-16 28
      vertex -27.299 -2.88444e-16 24.25
      vertex -27.299 -2.88444e-16 25.75
    endloop
  endfacet
  facet normal 2.22045e-16 -1 -4.93038e-32
    outer loop
      vertex -30 -8.88178e-16 28
      vertex -26 -6.90253e-31 26.5
      vertex -22 8.88178e-16 28
    endloop
  endfacet
  facet normal 2.22045e-16 -1 -4.93038e-32
    outer loop
      vertex -30 -8.88178e-16 28
      vertex -27.299 -2.88444e-16 25.75
      vertex -26 -6.90253e-31 26.5
    endloop
  endfacet
  facet normal 2.22045e-16 -1 -4.93038e-32
    outer loop
      vertex -30 -8.88178e-16 20.9634
      vertex -22 8.88178e-16 20.9634
      vertex -24.701 2.88444e-16 24.25
    endloop
  endfacet
  facet normal 2.22045e-16 -1 -4.93038e-32
    outer loop
      vertex -26 -6.90253e-31 26.5
      vertex -24.701 2.88444e-16 25.75
      vertex -22 8.88178e-16 28
    endloop
  endfacet
  facet normal 2.22045e-16 -1 -4.93038e-32
    outer loop
      vertex -30 -8.88178e-16 20.9634
      vertex -24.701 2.88444e-16 24.25
      vertex -26 -6.90253e-31 23.5
    endloop
  endfacet
  facet normal 2.22045e-16 -1 -4.93038e-32
    outer loop
      vertex -26 -6.90253e-31 23.5
      vertex -27.299 -2.88444e-16 24.25
      vertex -30 -8.88178e-16 20.9634
    endloop
  endfacet
  facet normal 2.22045e-16 4.93038e-32 1
    outer loop
      vertex -30 7 28
      vertex -30 -8.88178e-16 28
      vertex -22 8.88178e-16 28
    endloop
  endfacet
  facet normal 2.22045e-16 4.93038e-32 1
    outer loop
      vertex -22 7 28
      vertex -30 7 28
      vertex -22 8.88178e-16 28
    endloop
  endfacet
  facet normal 0 0.707107 0.707107
    outer loop
      vertex -30 7 28
      vertex -22 7 28
      vertex -30 22 13
    endloop
  endfacet
  facet normal 0 0.707107 0.707107
    outer loop
      vertex -22 22 13
      vertex -22 7 28
      vertex -22 25.875 9.125
    endloop
  endfacet
  facet normal 0 0.707107 0.707107
    outer loop
      vertex -30 22 13
      vertex -22 7 28
      vertex -22 22 13
    endloop
  endfacet
  facet normal -3.14018e-16 -0.707107 0.707107
    outer loop
      vertex -30 38.5 29.5
      vertex -30 13 4
      vertex -30 22 13
    endloop
  endfacet
  facet normal -3.14018e-16 -0.707107 0.707107
    outer loop
      vertex -22 22 13
      vertex -22 38.5 29.5
      vertex -30 22 13
    endloop
  endfacet
  facet normal -3.14018e-16 -0.707107 0.707107
    outer loop
      vertex -22 38.5 29.5
      vertex -30 38.5 29.5
      vertex -30 22 13
    endloop
  endfacet
  facet normal -2.22045e-16 4.93038e-32 1
    outer loop
      vertex -30 38.5 29.5
      vertex -22 38.5 29.5
      vertex -22 39 29.5
    endloop
  endfacet
  facet normal -2.22045e-16 4.93038e-32 1
    outer loop
      vertex -30 39 29.5
      vertex -30 38.5 29.5
      vertex -22 39 29.5
    endloop
  endfacet
  facet normal -1 2.22045e-16 -2.22045e-16
    outer loop
      vertex -30 38.5 29.5
      vertex -30 39 29.5
      vertex -30 13 4
    endloop
  endfacet
  facet normal -1 2.22045e-16 -2.22045e-16
    outer loop
      vertex -30 26 9
      vertex -30 39 29.5
      vertex -30 39 3.5
    endloop
  endfacet
  facet normal -1 2.22045e-16 -2.22045e-16
    outer loop
      vertex -30 25.875 9.125
      vertex -30 39 29.5
      vertex -30 26 9
    endloop
  endfacet
  facet normal -1 2.22045e-16 -2.22045e-16
    outer loop
      vertex -30 20.25 3.5
      vertex -30 13 4
      vertex -30 25.875 9.125
    endloop
  endfacet
  facet normal -1 2.22045e-16 -2.22045e-16
    outer loop
      vertex -30 13 4
      vertex -30 39 29.5
      vertex -30 25.875 9.125
    endloop
  endfacet
  facet normal -1 2.22045e-16 -2.22045e-16
    outer loop
      vertex -30 13 4
      vertex -30 20.25 3.5
      vertex -30 13 3.5
    endloop
  endfacet
  facet normal -1 2.22045e-16 -2.22045e-16
    outer loop
      vertex -30 26 9
      vertex -30 39 3.5
      vertex -30 26 3.5
    endloop
  endfacet
  facet normal -1 0 0
    outer loop
      vertex -30 0 2
      vertex -30 0 4
      vertex -30 2 4
    endloop
  endfacet
  facet normal -2.22045e-16 -1 4.93038e-32
    outer loop
      vertex -27.299 7 8.25
      vertex -26 7 7.5
      vertex -24.701 7 8.25
    endloop
  endfacet
  facet normal -2.22045e-16 -1 4.93038e-32
    outer loop
      vertex -26 7 10.5
      vertex -27.299 7 8.25
      vertex -24.701 7 9.75
    endloop
  endfacet
  facet normal -2.22045e-16 -1 4.93038e-32
    outer loop
      vertex -24.701 7 9.75
      vertex -27.299 7 8.25
      vertex -24.701 7 8.25
    endloop
  endfacet
  facet normal -2.22045e-16 -1 4.93038e-32
    outer loop
      vertex -27.299 7 9.75
      vertex -27.299 7 8.25
      vertex -26 7 10.5
    endloop
  endfacet
  facet normal 0.5 -1.11022e-16 0.866025
    outer loop
      vertex -27.299 -2.88444e-16 24.25
      vertex -26 -6.90253e-31 23.5
      vertex -26 7 23.5
    endloop
  endfacet
  facet normal 0.5 -1.11022e-16 0.866025
    outer loop
      vertex -27.299 7 24.25
      vertex -27.299 -2.88444e-16 24.25
      vertex -26 7 23.5
    endloop
  endfacet
  facet normal 1 -2.22045e-16 -2.22045e-16
    outer loop
      vertex -27.299 -2.88444e-16 24.25
      vertex -27.299 7 24.25
      vertex -27.299 7 25.75
    endloop
  endfacet
  facet normal 1 -2.22045e-16 -2.22045e-16
    outer loop
      vertex -27.299 -2.88444e-16 25.75
      vertex -27.299 -2.88444e-16 24.25
      vertex -27.299 7 25.75
    endloop
  endfacet
  facet normal -0.5 1.11022e-16 0.866025
    outer loop
      vertex -26 -6.90253e-31 23.5
      vertex -24.701 2.88444e-16 24.25
      vertex -24.701 7 24.25
    endloop
  endfacet
  facet normal -0.5 1.11022e-16 0.866025
    outer loop
      vertex -26 7 23.5
      vertex -26 -6.90253e-31 23.5
      vertex -24.701 7 24.25
    endloop
  endfacet
  facet normal -1 2.22045e-16 2.22045e-16
    outer loop
      vertex -24.701 2.88444e-16 25.75
      vertex -24.701 7 25.75
      vertex -24.701 2.88444e-16 24.25
    endloop
  endfacet
  facet normal -1 2.22045e-16 2.22045e-16
    outer loop
      vertex -24.701 2.88444e-16 24.25
      vertex -24.701 7 25.75
      vertex -24.701 7 24.25
    endloop
  endfacet
  facet normal -0.5 1.11022e-16 -0.866025
    outer loop
      vertex -26 7 26.5
      vertex -24.701 7 25.75
      vertex -26 -6.90253e-31 26.5
    endloop
  endfacet
  facet normal -0.5 1.11022e-16 -0.866025
    outer loop
      vertex -26 -6.90253e-31 26.5
      vertex -24.701 7 25.75
      vertex -24.701 2.88444e-16 25.75
    endloop
  endfacet
  facet normal 0.5 -1.11022e-16 -0.866025
    outer loop
      vertex -27.299 7 25.75
      vertex -26 7 26.5
      vertex -27.299 -2.88444e-16 25.75
    endloop
  endfacet
  facet normal 0.5 -1.11022e-16 -0.866025
    outer loop
      vertex -27.299 -2.88444e-16 25.75
      vertex -26 7 26.5
      vertex -26 -6.90253e-31 26.5
    endloop
  endfacet
  facet normal -2.22045e-16 -1 4.93038e-32
    outer loop
      vertex -27.299 7 24.25
      vertex -26 7 23.5
      vertex -24.701 7 24.25
    endloop
  endfacet
  facet normal -2.22045e-16 -1 4.93038e-32
    outer loop
      vertex -26 7 26.5
      vertex -27.299 7 24.25
      vertex -24.701 7 25.75
    endloop
  endfacet
  facet normal -2.22045e-16 -1 4.93038e-32
    outer loop
      vertex -24.701 7 25.75
      vertex -27.299 7 24.25
      vertex -24.701 7 24.25
    endloop
  endfacet
  facet normal -2.22045e-16 -1 4.93038e-32
    outer loop
      vertex -27.299 7 25.75
      vertex -27.299 7 24.25
      vertex -26 7 26.5
    endloop
  endfacet
endsolid OpenSCAD_Model
