M48
INCH,TZ
T10C0.032
T11C0.039
T12C0.040
T13C0.060
T14C0.091
T15C0.120
%
T10
X024750Y-24800
X024750Y-30800
X024750Y-32800
X024750Y-34800
X024800Y-12450
X024800Y-18450
X024800Y-20450
X024800Y-22450
X027750Y-24800
X027750Y-30800
X027750Y-32800
X027750Y-34800
X027800Y-12450
X027800Y-18450
X027800Y-20450
X027800Y-22450
X029750Y-28750
X029750Y-32000
X030220Y-27350
X030250Y-14250
X030250Y-15250
X030750Y-23750
X030750Y-26750
X031000Y-21250
X031000Y-22250
X031000Y-35750
X031250Y-15250
X031250Y-17000
X031250Y-20000
X032000Y-22250
X032000Y-23750
X032000Y-26750
X032550Y-19250
X032750Y-28750
X032750Y-32000
X032880Y-15490
X033200Y-16700
X033200Y-19700
X033500Y-22900
X034000Y-35750
X034200Y-14000
X034200Y-15600
X034200Y-20600
X034600Y-18100
X035200Y-15600
X035200Y-20600
X035600Y-18100
X035800Y-28200
X035800Y-34200
X036200Y-15600
X036200Y-20600
X036500Y-22900
X036800Y-28200
X036800Y-34200
X037200Y-15600
X037200Y-20600
X037800Y-28200
X037800Y-34200
X038200Y-15600
X038200Y-20600
X038800Y-28200
X038800Y-34200
X039200Y-15600
X039200Y-20600
X039650Y-35660
X039800Y-28200
X039800Y-34200
X040200Y-15600
X040200Y-20600
X040700Y-38500
X040800Y-28200
X040800Y-34200
X041200Y-15600
X041200Y-20600
X041800Y-28200
X041800Y-34200
X042300Y-16600
X042300Y-19600
X042600Y-14300
X042800Y-28200
X042800Y-34200
X043300Y-14300
X043300Y-15600
X043300Y-20600
X043700Y-18100
X043700Y-38500
X043800Y-23700
X043800Y-25800
X043800Y-28200
X043800Y-34200
X044300Y-15600
X044300Y-20600
X044700Y-18100
X044800Y-23700
X044800Y-25800
X044800Y-28200
X044800Y-34200
X045200Y-38200
X045300Y-15600
X045300Y-20600
X045800Y-28200
X045800Y-34200
X045900Y-21700
X045900Y-24700
X046200Y-36200
X046200Y-38200
X046300Y-15600
X046300Y-20600
X046800Y-28200
X046800Y-34200
X047300Y-15600
X047300Y-20600
X047800Y-28200
X047800Y-34200
X048200Y-36200
X048200Y-38200
X048300Y-15600
X048300Y-20600
X048800Y-28200
X048800Y-34200
X049200Y-38200
X049300Y-15600
X049300Y-20600
X049800Y-28200
X049800Y-34200
X050300Y-15600
X050300Y-20600
X050600Y-38200
X050800Y-28200
X050800Y-34200
X051300Y-16500
X051300Y-19500
X051600Y-38200
X051800Y-28200
X051800Y-34200
X052400Y-14350
X052400Y-15600
X052400Y-20600
X052600Y-18000
X052600Y-38200
X052800Y-28200
X052800Y-34200
X053000Y-26000
X053400Y-15600
X053400Y-20600
X053600Y-18000
X053600Y-38200
X053800Y-28200
X053800Y-34200
X054400Y-15600
X054400Y-20600
X054600Y-38200
X054800Y-28200
X054800Y-34200
X055400Y-15600
X055400Y-20600
X055600Y-38200
X056000Y-26000
X056400Y-15600
X056400Y-20600
X056600Y-38200
X056800Y-22300
X056800Y-25300
X057400Y-15600
X057400Y-20600
X057900Y-36700
X057900Y-37700
X058400Y-15600
X058400Y-18100
X058400Y-20600
X058500Y-27100
X058500Y-30100
X058930Y-33990
X058940Y-32460
X059000Y-36970
X059340Y-38320
X059400Y-15600
X059400Y-20600
X059600Y-28100
X059600Y-31100
X060340Y-38320
X060600Y-19900
X060600Y-24500
X060600Y-26500
X061400Y-20700
X061400Y-21670
X061400Y-22800
X062400Y-20700
X062400Y-22800
X062460Y-26580
X062460Y-28590
X063330Y-31270
X063460Y-26580
X063460Y-28590
X063700Y-21000
X063800Y-22800
X063950Y-34370
X064240Y-35660
X064240Y-38660
X064330Y-31270
X064700Y-21000
X064800Y-22800
X064950Y-34370
X065430Y-35630
X065430Y-38630
X065940Y-34380
X066940Y-34380
T11
X067300Y-30500
X067300Y-31300
X068100Y-30500
X068100Y-31300
T12
X029500Y-16500
X029500Y-20500
X029500Y-23250
X029500Y-27250
X030250Y-30250
X030250Y-33500
X031250Y-30250
X031250Y-33500
X032250Y-30250
X032250Y-33500
X034810Y-25260
X034810Y-26260
X035810Y-25260
X035810Y-26260
X036200Y-14100
X036810Y-25260
X036810Y-26260
X037200Y-14100
X037200Y-17000
X037200Y-18000
X037810Y-25260
X037810Y-26260
X038200Y-14100
X038200Y-17000
X038200Y-18000
X038810Y-25260
X038810Y-26260
X039200Y-14100
X039200Y-17000
X039200Y-18000
X039810Y-25260
X039810Y-26260
X041200Y-36100
X041200Y-37100
X042200Y-36100
X042200Y-37100
X043200Y-36100
X043200Y-37100
X045300Y-14000
X046200Y-16900
X046200Y-17900
X046300Y-14000
X047200Y-16900
X047200Y-17900
X047300Y-14000
X048200Y-16900
X048200Y-17900
X048300Y-14000
X054400Y-14100
X055000Y-16900
X055000Y-17900
X055400Y-14100
X056000Y-16900
X056000Y-17900
X056400Y-14100
X057000Y-16900
X057000Y-17900
X057000Y-29100
X057000Y-30100
X057000Y-31100
X057000Y-32100
X057400Y-14100
X061500Y-18500
X062500Y-18500
X063500Y-18500
T13
X021600Y-14500
X021600Y-16500
X021600Y-18600
X021600Y-20600
X021600Y-26100
X021600Y-28100
X021600Y-30200
X021600Y-32200
X024500Y-38000
X026500Y-38000
X028500Y-38000
X030400Y-11600
X030500Y-38000
X032400Y-11600
X032500Y-38000
X034500Y-11600
X034500Y-38000
X036500Y-11600
X036500Y-38000
X038500Y-11600
X038500Y-38000
X040500Y-11600
X043900Y-11600
X045900Y-11600
X047900Y-11600
X049900Y-11600
X052800Y-11600
X054800Y-11600
X056800Y-11600
X058800Y-11600
X061800Y-11700
X063800Y-11700
X067000Y-19500
X067000Y-21500
X067000Y-23500
X067000Y-25500
T14
X068900Y-28300
X068900Y-33500
T15
X021500Y-11500
X021500Y-38500
X068500Y-11500
X068500Y-38500
M30

