M48
;DRILL file {Pcbnew (2013-mar-13)-testing} date mar 18 jun 2013 10:26:56 CEST
;FORMAT={-:-/ absolute / inch / decimal}
FMAT,2
INCH,TZ
T1C0.024
T2C0.028
T3C0.032
T4C0.039
T5C0.039
T6C0.040
T7C0.047
T8C0.059
T9C0.060
%
G90
G05
M72
T1
X5.6Y-4.6
X6.025Y-4.4
X6.1Y-4.6
X6.4Y-4.1
T2
X5.2213Y-4.05
X5.3Y-4.05
X5.3787Y-4.05
T3
X5.14Y-2.85
X5.15Y-4.325
X5.15Y-4.625
X5.2Y-3.05
X5.2Y-3.35
X5.24Y-2.85
X5.34Y-2.85
X5.35Y-4.325
X5.35Y-4.625
X5.4Y-3.05
X5.4Y-3.35
X5.44Y-2.85
X5.45Y-3.5
X5.5Y-4.75
X5.54Y-2.85
X5.55Y-3.
X5.55Y-3.3
X5.55Y-3.5
X5.55Y-3.75
X5.55Y-3.85
X5.6Y-4.75
X5.64Y-2.85
X5.65Y-3.
X5.65Y-3.3
X5.65Y-3.5
X5.7Y-4.75
X5.74Y-2.85
X5.75Y-3.
X5.75Y-3.3
X5.75Y-3.5
X5.7939Y-3.6061
X5.8Y-4.75
X5.84Y-2.85
X5.8939Y-3.6561
X5.9Y-4.75
X6.Y-2.85
X6.Y-4.75
X6.0061Y-3.3939
X6.1Y-2.85
X6.1061Y-3.4439
X6.2Y-2.85
X6.2Y-3.55
X6.2Y-3.65
X6.2Y-3.75
X6.2Y-3.85
X6.2Y-4.2
X6.2Y-4.3
X6.2Y-4.75
X6.3Y-2.85
X6.3Y-4.75
X6.4Y-2.85
X6.4Y-4.75
X6.5Y-2.85
X6.5Y-3.55
X6.5Y-3.65
X6.5Y-3.75
X6.5Y-3.85
X6.5Y-4.75
X6.6Y-4.75
X6.7Y-4.75
X6.8Y-4.75
X6.9Y-2.85
X6.9Y-4.2
X6.9Y-4.75
X6.975Y-3.425
X7.Y-2.85
X7.Y-4.2
X7.075Y-3.425
X7.1Y-2.85
X7.1Y-4.75
X7.2Y-2.85
X7.2Y-4.75
X7.25Y-4.325
X7.25Y-4.625
X7.3Y-2.85
X7.3Y-4.75
X7.4Y-2.85
X7.4Y-4.75
X7.475Y-3.15
X7.475Y-3.25
X7.5Y-2.85
X7.5Y-4.75
X7.6Y-2.85
X7.6Y-4.75
X7.675Y-3.6
X7.7Y-4.75
X7.775Y-3.15
X7.775Y-3.25
X7.775Y-3.6
X7.8Y-4.75
X7.9Y-2.85
X7.9Y-4.55
T4
X5.1425Y-4.05
X5.4575Y-4.05
T5
X5.76Y-4.31
X5.76Y-4.53
T6
X5.9Y-3.
X5.9Y-3.1
X6.05Y-3.
X6.05Y-3.1
X6.05Y-3.2
X6.15Y-3.
X6.15Y-3.1
X6.15Y-3.2
X6.25Y-3.
X6.25Y-3.1
X6.25Y-3.2
X6.35Y-3.
X6.35Y-3.1
X6.35Y-3.2
X6.45Y-3.
X6.45Y-3.1
X6.45Y-3.2
X6.55Y-3.
X6.55Y-3.1
X6.55Y-3.2
X6.6Y-3.55
X6.6Y-3.65
X6.6Y-3.75
X6.6Y-3.85
X6.6Y-3.95
X6.775Y-4.4
X6.775Y-4.5
X6.775Y-4.6
X6.825Y-3.
X6.825Y-3.1
X6.825Y-3.2
X6.875Y-4.4
X6.875Y-4.5
X6.875Y-4.6
X6.925Y-3.
X6.925Y-3.1
X6.925Y-3.2
X6.975Y-4.4
X6.975Y-4.5
X6.975Y-4.6
X7.025Y-3.
X7.025Y-3.1
X7.025Y-3.2
X7.075Y-4.4
X7.075Y-4.5
X7.075Y-4.6
X7.125Y-3.
X7.125Y-3.1
X7.125Y-3.2
X7.225Y-3.
X7.225Y-3.1
X7.225Y-3.2
X7.325Y-3.
X7.325Y-3.1
X7.325Y-3.2
X7.375Y-4.525
X7.475Y-3.025
X7.475Y-3.375
X7.475Y-4.525
X7.575Y-3.025
X7.575Y-3.375
X7.575Y-4.525
X7.675Y-3.025
X7.675Y-3.375
X7.675Y-4.525
X7.775Y-3.025
X7.775Y-3.375
T7
X5.615Y-4.015
X5.68Y-4.17
X5.75Y-4.015
X5.82Y-4.17
X5.885Y-4.015
T8
X5.75Y-3.85
X6.05Y-3.85
T9
X5.25Y-3.6
X5.25Y-3.8
T0
M30
