  0
SECTION
  2
BLOCKS
  0
ENDSEC
  0
SECTION
  2
ENTITIES
  0
LINE
  8
0
 10
0
 11
0
 20
22.981
 21
31.392
  0
LINE
  8
0
 10
0
 11
0.267
 20
31.392
 21
31.456
  0
LINE
  8
0
 10
0.267
 11
0.861
 20
31.456
 21
31.702
  0
LINE
  8
0
 10
0.861
 11
1.41
 20
31.702
 21
32.038
  0
LINE
  8
0
 10
1.41
 11
1.899
 20
32.038
 21
32.456
  0
LINE
  8
0
 10
1.899
 11
2.317
 20
32.456
 21
32.945
  0
LINE
  8
0
 10
2.317
 11
2.653
 20
32.945
 21
33.494
  0
LINE
  8
0
 10
2.653
 11
2.899
 20
33.494
 21
34.088
  0
LINE
  8
0
 10
2.899
 11
3.05
 20
34.088
 21
34.714
  0
LINE
  8
0
 10
3.05
 11
3.1
 20
34.714
 21
35.355
  0
LINE
  8
0
 10
3.1
 11
3.05
 20
35.355
 21
35.997
  0
LINE
  8
0
 10
3.05
 11
2.899
 20
35.997
 21
36.622
  0
LINE
  8
0
 10
2.899
 11
2.653
 20
36.622
 21
37.217
  0
LINE
  8
0
 10
2.653
 11
2.317
 20
37.217
 21
37.765
  0
LINE
  8
0
 10
2.317
 11
1.899
 20
37.765
 21
38.254
  0
LINE
  8
0
 10
1.899
 11
1.41
 20
38.254
 21
38.672
  0
LINE
  8
0
 10
1.41
 11
0.861
 20
38.672
 21
39.008
  0
LINE
  8
0
 10
0.861
 11
0.267
 20
39.008
 21
39.255
  0
LINE
  8
0
 10
0.267
 11
0
 20
39.255
 21
39.319
  0
LINE
  8
0
 10
0
 11
0
 20
39.319
 21
135
  0
LINE
  8
0
 10
0
 11
90
 20
135
 21
135
  0
LINE
  8
0
 10
90
 11
90
 20
135
 21
0
  0
LINE
  8
0
 10
90
 11
39.319
 20
0
 21
0
  0
LINE
  8
0
 10
39.319
 11
39.255
 20
0
 21
0.267
  0
LINE
  8
0
 10
39.255
 11
39.008
 20
0.267
 21
0.861
  0
LINE
  8
0
 10
39.008
 11
38.672
 20
0.861
 21
1.41
  0
LINE
  8
0
 10
38.672
 11
38.254
 20
1.41
 21
1.899
  0
LINE
  8
0
 10
38.254
 11
37.765
 20
1.899
 21
2.317
  0
LINE
  8
0
 10
37.765
 11
37.217
 20
2.317
 21
2.653
  0
LINE
  8
0
 10
37.217
 11
36.622
 20
2.653
 21
2.899
  0
LINE
  8
0
 10
36.622
 11
35.997
 20
2.899
 21
3.05
  0
LINE
  8
0
 10
35.997
 11
35.355
 20
3.05
 21
3.1
  0
LINE
  8
0
 10
35.355
 11
34.714
 20
3.1
 21
3.05
  0
LINE
  8
0
 10
34.714
 11
34.088
 20
3.05
 21
2.899
  0
LINE
  8
0
 10
34.088
 11
33.494
 20
2.899
 21
2.653
  0
LINE
  8
0
 10
33.494
 11
32.945
 20
2.653
 21
2.317
  0
LINE
  8
0
 10
32.945
 11
32.456
 20
2.317
 21
1.899
  0
LINE
  8
0
 10
32.456
 11
32.038
 20
1.899
 21
1.41
  0
LINE
  8
0
 10
32.038
 11
31.702
 20
1.41
 21
0.861
  0
LINE
  8
0
 10
31.702
 11
31.456
 20
0.861
 21
0.267
  0
LINE
  8
0
 10
31.456
 11
31.392
 20
0.267
 21
0
  0
LINE
  8
0
 10
31.392
 11
22.981
 20
0
 21
0
  0
LINE
  8
0
 10
22.981
 11
0
 20
0
 21
22.981
  0
LINE
  8
0
 10
5
 11
5
 20
55.171
 21
128
  0
LINE
  8
0
 10
5
 11
5.02
 20
128
 21
128.285
  0
LINE
  8
0
 10
5.02
 11
5.081
 20
128.285
 21
128.563
  0
LINE
  8
0
 10
5.081
 11
5.181
 20
128.563
 21
128.831
  0
LINE
  8
0
 10
5.181
 11
5.317
 20
128.831
 21
129.081
  0
LINE
  8
0
 10
5.317
 11
5.489
 20
129.081
 21
129.31
  0
LINE
  8
0
 10
5.489
 11
5.69
 20
129.31
 21
129.511
  0
LINE
  8
0
 10
5.69
 11
5.919
 20
129.511
 21
129.683
  0
LINE
  8
0
 10
5.919
 11
6.169
 20
129.683
 21
129.819
  0
LINE
  8
0
 10
6.169
 11
6.437
 20
129.819
 21
129.919
  0
LINE
  8
0
 10
6.437
 11
6.715
 20
129.919
 21
129.98
  0
LINE
  8
0
 10
6.715
 11
7
 20
129.98
 21
130
  0
LINE
  8
0
 10
7
 11
36.763
 20
130
 21
130
  0
LINE
  8
0
 10
36.763
 11
5
 20
130
 21
55.171
  0
LINE
  8
0
 10
6.49
 11
6.49
 20
23.192
 21
23.477
  0
LINE
  8
0
 10
6.49
 11
6.531
 20
23.477
 21
23.76
  0
LINE
  8
0
 10
6.531
 11
6.611
 20
23.76
 21
24.033
  0
LINE
  8
0
 10
6.611
 11
6.73
 20
24.033
 21
24.293
  0
LINE
  8
0
 10
6.73
 11
6.884
 20
24.293
 21
24.533
  0
LINE
  8
0
 10
6.884
 11
7.071
 20
24.533
 21
24.749
  0
LINE
  8
0
 10
7.071
 11
14.849
 20
24.749
 21
32.527
  0
LINE
  8
0
 10
14.849
 11
15.065
 20
32.527
 21
32.714
  0
LINE
  8
0
 10
15.065
 11
15.305
 20
32.714
 21
32.868
  0
LINE
  8
0
 10
15.305
 11
15.565
 20
32.868
 21
32.987
  0
LINE
  8
0
 10
15.565
 11
15.838
 20
32.987
 21
33.067
  0
LINE
  8
0
 10
15.838
 11
16.121
 20
33.067
 21
33.108
  0
LINE
  8
0
 10
16.121
 11
16.406
 20
33.108
 21
33.108
  0
LINE
  8
0
 10
16.406
 11
16.689
 20
33.108
 21
33.067
  0
LINE
  8
0
 10
16.689
 11
16.962
 20
33.067
 21
32.987
  0
LINE
  8
0
 10
16.962
 11
17.222
 20
32.987
 21
32.868
  0
LINE
  8
0
 10
17.222
 11
17.462
 20
32.868
 21
32.714
  0
LINE
  8
0
 10
17.462
 11
17.678
 20
32.714
 21
32.527
  0
LINE
  8
0
 10
17.678
 11
32.527
 20
32.527
 21
17.678
  0
LINE
  8
0
 10
32.527
 11
32.714
 20
17.678
 21
17.462
  0
LINE
  8
0
 10
32.714
 11
32.868
 20
17.462
 21
17.222
  0
LINE
  8
0
 10
32.868
 11
32.987
 20
17.222
 21
16.962
  0
LINE
  8
0
 10
32.987
 11
33.067
 20
16.962
 21
16.689
  0
LINE
  8
0
 10
33.067
 11
33.108
 20
16.689
 21
16.406
  0
LINE
  8
0
 10
33.108
 11
33.108
 20
16.406
 21
16.121
  0
LINE
  8
0
 10
33.108
 11
33.067
 20
16.121
 21
15.838
  0
LINE
  8
0
 10
33.067
 11
32.987
 20
15.838
 21
15.565
  0
LINE
  8
0
 10
32.987
 11
32.868
 20
15.565
 21
15.305
  0
LINE
  8
0
 10
32.868
 11
32.714
 20
15.305
 21
15.065
  0
LINE
  8
0
 10
32.714
 11
32.527
 20
15.065
 21
14.849
  0
LINE
  8
0
 10
32.527
 11
24.749
 20
14.849
 21
7.071
  0
LINE
  8
0
 10
24.749
 11
24.533
 20
7.071
 21
6.884
  0
LINE
  8
0
 10
24.533
 11
24.293
 20
6.884
 21
6.73
  0
LINE
  8
0
 10
24.293
 11
24.033
 20
6.73
 21
6.611
  0
LINE
  8
0
 10
24.033
 11
23.76
 20
6.611
 21
6.531
  0
LINE
  8
0
 10
23.76
 11
23.477
 20
6.531
 21
6.49
  0
LINE
  8
0
 10
23.477
 11
23.192
 20
6.49
 21
6.49
  0
LINE
  8
0
 10
23.192
 11
22.909
 20
6.49
 21
6.531
  0
LINE
  8
0
 10
22.909
 11
22.636
 20
6.531
 21
6.611
  0
LINE
  8
0
 10
22.636
 11
22.376
 20
6.611
 21
6.73
  0
LINE
  8
0
 10
22.376
 11
22.136
 20
6.73
 21
6.884
  0
LINE
  8
0
 10
22.136
 11
21.92
 20
6.884
 21
7.071
  0
LINE
  8
0
 10
21.92
 11
7.071
 20
7.071
 21
21.92
  0
LINE
  8
0
 10
7.071
 11
6.884
 20
21.92
 21
22.136
  0
LINE
  8
0
 10
6.884
 11
6.73
 20
22.136
 21
22.376
  0
LINE
  8
0
 10
6.73
 11
6.611
 20
22.376
 21
22.636
  0
LINE
  8
0
 10
6.611
 11
6.531
 20
22.636
 21
22.909
  0
LINE
  8
0
 10
6.531
 11
6.49
 20
22.909
 21
23.192
  0
LINE
  8
0
 10
8.237
 11
42.195
 20
50
 21
130
  0
LINE
  8
0
 10
42.195
 11
78
 20
130
 21
130
  0
LINE
  8
0
 10
78
 11
78.285
 20
130
 21
129.98
  0
LINE
  8
0
 10
78.285
 11
78.563
 20
129.98
 21
129.919
  0
LINE
  8
0
 10
78.563
 11
78.831
 20
129.919
 21
129.819
  0
LINE
  8
0
 10
78.831
 11
79.081
 20
129.819
 21
129.683
  0
LINE
  8
0
 10
79.081
 11
79.31
 20
129.683
 21
129.511
  0
LINE
  8
0
 10
79.31
 11
79.511
 20
129.511
 21
129.31
  0
LINE
  8
0
 10
79.511
 11
79.683
 20
129.31
 21
129.081
  0
LINE
  8
0
 10
79.683
 11
79.819
 20
129.081
 21
128.831
  0
LINE
  8
0
 10
79.819
 11
79.919
 20
128.831
 21
128.563
  0
LINE
  8
0
 10
79.919
 11
79.98
 20
128.563
 21
128.285
  0
LINE
  8
0
 10
79.98
 11
80
 20
128.285
 21
128
  0
LINE
  8
0
 10
80
 11
80
 20
128
 21
52
  0
LINE
  8
0
 10
80
 11
79.98
 20
52
 21
51.715
  0
LINE
  8
0
 10
79.98
 11
79.919
 20
51.715
 21
51.437
  0
LINE
  8
0
 10
79.919
 11
79.819
 20
51.437
 21
51.169
  0
LINE
  8
0
 10
79.819
 11
79.683
 20
51.169
 21
50.919
  0
LINE
  8
0
 10
79.683
 11
79.511
 20
50.919
 21
50.69
  0
LINE
  8
0
 10
79.511
 11
79.31
 20
50.69
 21
50.489
  0
LINE
  8
0
 10
79.31
 11
79.081
 20
50.489
 21
50.317
  0
LINE
  8
0
 10
79.081
 11
78.831
 20
50.317
 21
50.181
  0
LINE
  8
0
 10
78.831
 11
78.563
 20
50.181
 21
50.081
  0
LINE
  8
0
 10
78.563
 11
78.285
 20
50.081
 21
50.02
  0
LINE
  8
0
 10
78.285
 11
78
 20
50.02
 21
50
  0
LINE
  8
0
 10
78
 11
8.237
 20
50
 21
50
  0
LINE
  8
0
 10
24.155
 11
24.293
 20
35.355
 21
37.107
  0
LINE
  8
0
 10
24.293
 11
24.704
 20
37.107
 21
38.816
  0
LINE
  8
0
 10
24.704
 11
25.376
 20
38.816
 21
40.44
  0
LINE
  8
0
 10
25.376
 11
26.294
 20
40.44
 21
41.939
  0
LINE
  8
0
 10
26.294
 11
27.436
 20
41.939
 21
43.275
  0
LINE
  8
0
 10
27.436
 11
28.772
 20
43.275
 21
44.416
  0
LINE
  8
0
 10
28.772
 11
30.271
 20
44.416
 21
45.335
  0
LINE
  8
0
 10
30.271
 11
31.894
 20
45.335
 21
46.007
  0
LINE
  8
0
 10
31.894
 11
33.603
 20
46.007
 21
46.417
  0
LINE
  8
0
 10
33.603
 11
35.355
 20
46.417
 21
46.555
  0
LINE
  8
0
 10
35.355
 11
37.107
 20
46.555
 21
46.417
  0
LINE
  8
0
 10
37.107
 11
38.816
 20
46.417
 21
46.007
  0
LINE
  8
0
 10
38.816
 11
40.44
 20
46.007
 21
45.335
  0
LINE
  8
0
 10
40.44
 11
41.939
 20
45.335
 21
44.416
  0
LINE
  8
0
 10
41.939
 11
43.275
 20
44.416
 21
43.275
  0
LINE
  8
0
 10
43.275
 11
44.416
 20
43.275
 21
41.939
  0
LINE
  8
0
 10
44.416
 11
45.335
 20
41.939
 21
40.44
  0
LINE
  8
0
 10
45.335
 11
46.007
 20
40.44
 21
38.816
  0
LINE
  8
0
 10
46.007
 11
46.417
 20
38.816
 21
37.107
  0
LINE
  8
0
 10
46.417
 11
46.555
 20
37.107
 21
35.355
  0
LINE
  8
0
 10
46.555
 11
46.417
 20
35.355
 21
33.603
  0
LINE
  8
0
 10
46.417
 11
46.007
 20
33.603
 21
31.894
  0
LINE
  8
0
 10
46.007
 11
45.335
 20
31.894
 21
30.271
  0
LINE
  8
0
 10
45.335
 11
44.416
 20
30.271
 21
28.772
  0
LINE
  8
0
 10
44.416
 11
43.275
 20
28.772
 21
27.436
  0
LINE
  8
0
 10
43.275
 11
41.939
 20
27.436
 21
26.294
  0
LINE
  8
0
 10
41.939
 11
40.44
 20
26.294
 21
25.376
  0
LINE
  8
0
 10
40.44
 11
38.816
 20
25.376
 21
24.704
  0
LINE
  8
0
 10
38.816
 11
37.107
 20
24.704
 21
24.293
  0
LINE
  8
0
 10
37.107
 11
35.355
 20
24.293
 21
24.155
  0
LINE
  8
0
 10
35.355
 11
33.603
 20
24.155
 21
24.293
  0
LINE
  8
0
 10
33.603
 11
31.894
 20
24.293
 21
24.704
  0
LINE
  8
0
 10
31.894
 11
30.271
 20
24.704
 21
25.376
  0
LINE
  8
0
 10
30.271
 11
28.772
 20
25.376
 21
26.294
  0
LINE
  8
0
 10
28.772
 11
27.436
 20
26.294
 21
27.436
  0
LINE
  8
0
 10
27.436
 11
26.294
 20
27.436
 21
28.772
  0
LINE
  8
0
 10
26.294
 11
25.376
 20
28.772
 21
30.271
  0
LINE
  8
0
 10
25.376
 11
24.704
 20
30.271
 21
31.894
  0
LINE
  8
0
 10
24.704
 11
24.293
 20
31.894
 21
33.603
  0
LINE
  8
0
 10
24.293
 11
24.155
 20
33.603
 21
35.355
  0
LINE
  8
0
 10
47.115
 11
47.14
 20
11.423
 21
11.736
  0
LINE
  8
0
 10
47.14
 11
47.213
 20
11.736
 21
12.041
  0
LINE
  8
0
 10
47.213
 11
47.333
 20
12.041
 21
12.331
  0
LINE
  8
0
 10
47.333
 11
47.497
 20
12.331
 21
12.599
  0
LINE
  8
0
 10
47.497
 11
47.701
 20
12.599
 21
12.837
  0
LINE
  8
0
 10
47.701
 11
47.939
 20
12.837
 21
13.041
  0
LINE
  8
0
 10
47.939
 11
48.207
 20
13.041
 21
13.205
  0
LINE
  8
0
 10
48.207
 11
48.497
 20
13.205
 21
13.325
  0
LINE
  8
0
 10
48.497
 11
48.802
 20
13.325
 21
13.399
  0
LINE
  8
0
 10
48.802
 11
49.115
 20
13.399
 21
13.423
  0
LINE
  8
0
 10
49.115
 11
52.115
 20
13.423
 21
13.423
  0
LINE
  8
0
 10
52.115
 11
52.428
 20
13.423
 21
13.399
  0
LINE
  8
0
 10
52.428
 11
52.733
 20
13.399
 21
13.325
  0
LINE
  8
0
 10
52.733
 11
53.023
 20
13.325
 21
13.205
  0
LINE
  8
0
 10
53.023
 11
53.291
 20
13.205
 21
13.041
  0
LINE
  8
0
 10
53.291
 11
53.529
 20
13.041
 21
12.837
  0
LINE
  8
0
 10
53.529
 11
53.733
 20
12.837
 21
12.599
  0
LINE
  8
0
 10
53.733
 11
53.897
 20
12.599
 21
12.331
  0
LINE
  8
0
 10
53.897
 11
54.017
 20
12.331
 21
12.041
  0
LINE
  8
0
 10
54.017
 11
54.09
 20
12.041
 21
11.736
  0
LINE
  8
0
 10
54.09
 11
54.115
 20
11.736
 21
11.423
  0
LINE
  8
0
 10
54.115
 11
54.09
 20
11.423
 21
11.11
  0
LINE
  8
0
 10
54.09
 11
54.017
 20
11.11
 21
10.805
  0
LINE
  8
0
 10
54.017
 11
53.897
 20
10.805
 21
10.515
  0
LINE
  8
0
 10
53.897
 11
53.733
 20
10.515
 21
10.248
  0
LINE
  8
0
 10
53.733
 11
53.529
 20
10.248
 21
10.009
  0
LINE
  8
0
 10
53.529
 11
53.291
 20
10.009
 21
9.805
  0
LINE
  8
0
 10
53.291
 11
53.023
 20
9.805
 21
9.641
  0
LINE
  8
0
 10
53.023
 11
52.733
 20
9.641
 21
9.521
  0
LINE
  8
0
 10
52.733
 11
52.428
 20
9.521
 21
9.448
  0
LINE
  8
0
 10
52.428
 11
52.115
 20
9.448
 21
9.423
  0
LINE
  8
0
 10
52.115
 11
49.115
 20
9.423
 21
9.423
  0
LINE
  8
0
 10
49.115
 11
48.802
 20
9.423
 21
9.448
  0
LINE
  8
0
 10
48.802
 11
48.497
 20
9.448
 21
9.521
  0
LINE
  8
0
 10
48.497
 11
48.207
 20
9.521
 21
9.641
  0
LINE
  8
0
 10
48.207
 11
47.939
 20
9.641
 21
9.805
  0
LINE
  8
0
 10
47.939
 11
47.701
 20
9.805
 21
10.009
  0
LINE
  8
0
 10
47.701
 11
47.497
 20
10.009
 21
10.248
  0
LINE
  8
0
 10
47.497
 11
47.333
 20
10.248
 21
10.515
  0
LINE
  8
0
 10
47.333
 11
47.213
 20
10.515
 21
10.805
  0
LINE
  8
0
 10
47.213
 11
47.14
 20
10.805
 21
11.11
  0
LINE
  8
0
 10
47.14
 11
47.115
 20
11.11
 21
11.423
  0
LINE
  8
0
 10
47.115
 11
47.14
 20
42.723
 21
43.036
  0
LINE
  8
0
 10
47.14
 11
47.213
 20
43.036
 21
43.341
  0
LINE
  8
0
 10
47.213
 11
47.333
 20
43.341
 21
43.631
  0
LINE
  8
0
 10
47.333
 11
47.497
 20
43.631
 21
43.899
  0
LINE
  8
0
 10
47.497
 11
47.701
 20
43.899
 21
44.137
  0
LINE
  8
0
 10
47.701
 11
47.939
 20
44.137
 21
44.341
  0
LINE
  8
0
 10
47.939
 11
48.207
 20
44.341
 21
44.505
  0
LINE
  8
0
 10
48.207
 11
48.497
 20
44.505
 21
44.625
  0
LINE
  8
0
 10
48.497
 11
48.802
 20
44.625
 21
44.699
  0
LINE
  8
0
 10
48.802
 11
49.115
 20
44.699
 21
44.723
  0
LINE
  8
0
 10
49.115
 11
52.115
 20
44.723
 21
44.723
  0
LINE
  8
0
 10
52.115
 11
52.428
 20
44.723
 21
44.699
  0
LINE
  8
0
 10
52.428
 11
52.733
 20
44.699
 21
44.625
  0
LINE
  8
0
 10
52.733
 11
53.023
 20
44.625
 21
44.505
  0
LINE
  8
0
 10
53.023
 11
53.291
 20
44.505
 21
44.341
  0
LINE
  8
0
 10
53.291
 11
53.529
 20
44.341
 21
44.137
  0
LINE
  8
0
 10
53.529
 11
53.733
 20
44.137
 21
43.899
  0
LINE
  8
0
 10
53.733
 11
53.897
 20
43.899
 21
43.631
  0
LINE
  8
0
 10
53.897
 11
54.017
 20
43.631
 21
43.341
  0
LINE
  8
0
 10
54.017
 11
54.09
 20
43.341
 21
43.036
  0
LINE
  8
0
 10
54.09
 11
54.115
 20
43.036
 21
42.723
  0
LINE
  8
0
 10
54.115
 11
54.09
 20
42.723
 21
42.41
  0
LINE
  8
0
 10
54.09
 11
54.017
 20
42.41
 21
42.105
  0
LINE
  8
0
 10
54.017
 11
53.897
 20
42.105
 21
41.815
  0
LINE
  8
0
 10
53.897
 11
53.733
 20
41.815
 21
41.548
  0
LINE
  8
0
 10
53.733
 11
53.529
 20
41.548
 21
41.309
  0
LINE
  8
0
 10
53.529
 11
53.291
 20
41.309
 21
41.105
  0
LINE
  8
0
 10
53.291
 11
53.023
 20
41.105
 21
40.941
  0
LINE
  8
0
 10
53.023
 11
52.733
 20
40.941
 21
40.821
  0
LINE
  8
0
 10
52.733
 11
52.428
 20
40.821
 21
40.748
  0
LINE
  8
0
 10
52.428
 11
52.115
 20
40.748
 21
40.723
  0
LINE
  8
0
 10
52.115
 11
49.115
 20
40.723
 21
40.723
  0
LINE
  8
0
 10
49.115
 11
48.802
 20
40.723
 21
40.748
  0
LINE
  8
0
 10
48.802
 11
48.497
 20
40.748
 21
40.821
  0
LINE
  8
0
 10
48.497
 11
48.207
 20
40.821
 21
40.941
  0
LINE
  8
0
 10
48.207
 11
47.939
 20
40.941
 21
41.105
  0
LINE
  8
0
 10
47.939
 11
47.701
 20
41.105
 21
41.309
  0
LINE
  8
0
 10
47.701
 11
47.497
 20
41.309
 21
41.548
  0
LINE
  8
0
 10
47.497
 11
47.333
 20
41.548
 21
41.815
  0
LINE
  8
0
 10
47.333
 11
47.213
 20
41.815
 21
42.105
  0
LINE
  8
0
 10
47.213
 11
47.14
 20
42.105
 21
42.41
  0
LINE
  8
0
 10
47.14
 11
47.115
 20
42.41
 21
42.723
  0
LINE
  8
0
 10
53.265
 11
53.407
 20
27.073
 21
28.872
  0
LINE
  8
0
 10
53.407
 11
53.828
 20
28.872
 21
30.627
  0
LINE
  8
0
 10
53.828
 11
54.518
 20
30.627
 21
32.294
  0
LINE
  8
0
 10
54.518
 11
55.461
 20
32.294
 21
33.833
  0
LINE
  8
0
 10
55.461
 11
56.633
 20
33.833
 21
35.205
  0
LINE
  8
0
 10
56.633
 11
58.005
 20
35.205
 21
36.377
  0
LINE
  8
0
 10
58.005
 11
59.544
 20
36.377
 21
37.32
  0
LINE
  8
0
 10
59.544
 11
61.211
 20
37.32
 21
38.01
  0
LINE
  8
0
 10
61.211
 11
62.966
 20
38.01
 21
38.432
  0
LINE
  8
0
 10
62.966
 11
64.765
 20
38.432
 21
38.573
  0
LINE
  8
0
 10
64.765
 11
67.765
 20
38.573
 21
38.573
  0
LINE
  8
0
 10
67.765
 11
69.564
 20
38.573
 21
38.432
  0
LINE
  8
0
 10
69.564
 11
71.319
 20
38.432
 21
38.01
  0
LINE
  8
0
 10
71.319
 11
72.986
 20
38.01
 21
37.32
  0
LINE
  8
0
 10
72.986
 11
74.524
 20
37.32
 21
36.377
  0
LINE
  8
0
 10
74.524
 11
75.897
 20
36.377
 21
35.205
  0
LINE
  8
0
 10
75.897
 11
77.069
 20
35.205
 21
33.833
  0
LINE
  8
0
 10
77.069
 11
78.012
 20
33.833
 21
32.294
  0
LINE
  8
0
 10
78.012
 11
78.702
 20
32.294
 21
30.627
  0
LINE
  8
0
 10
78.702
 11
79.123
 20
30.627
 21
28.872
  0
LINE
  8
0
 10
79.123
 11
79.265
 20
28.872
 21
27.073
  0
LINE
  8
0
 10
79.265
 11
79.123
 20
27.073
 21
25.274
  0
LINE
  8
0
 10
79.123
 11
78.702
 20
25.274
 21
23.519
  0
LINE
  8
0
 10
78.702
 11
78.012
 20
23.519
 21
21.852
  0
LINE
  8
0
 10
78.012
 11
77.069
 20
21.852
 21
20.314
  0
LINE
  8
0
 10
77.069
 11
75.897
 20
20.314
 21
18.941
  0
LINE
  8
0
 10
75.897
 11
74.524
 20
18.941
 21
17.769
  0
LINE
  8
0
 10
74.524
 11
72.986
 20
17.769
 21
16.827
  0
LINE
  8
0
 10
72.986
 11
71.319
 20
16.827
 21
16.136
  0
LINE
  8
0
 10
71.319
 11
69.564
 20
16.136
 21
15.715
  0
LINE
  8
0
 10
69.564
 11
67.765
 20
15.715
 21
15.573
  0
LINE
  8
0
 10
67.765
 11
64.765
 20
15.573
 21
15.573
  0
LINE
  8
0
 10
64.765
 11
62.966
 20
15.573
 21
15.715
  0
LINE
  8
0
 10
62.966
 11
61.211
 20
15.715
 21
16.136
  0
LINE
  8
0
 10
61.211
 11
59.544
 20
16.136
 21
16.827
  0
LINE
  8
0
 10
59.544
 11
58.005
 20
16.827
 21
17.769
  0
LINE
  8
0
 10
58.005
 11
56.633
 20
17.769
 21
18.941
  0
LINE
  8
0
 10
56.633
 11
55.461
 20
18.941
 21
20.314
  0
LINE
  8
0
 10
55.461
 11
54.518
 20
20.314
 21
21.852
  0
LINE
  8
0
 10
54.518
 11
53.828
 20
21.852
 21
23.519
  0
LINE
  8
0
 10
53.828
 11
53.407
 20
23.519
 21
25.274
  0
LINE
  8
0
 10
53.407
 11
53.265
 20
25.274
 21
27.073
  0
LINE
  8
0
 10
78.415
 11
78.44
 20
11.423
 21
11.736
  0
LINE
  8
0
 10
78.44
 11
78.513
 20
11.736
 21
12.041
  0
LINE
  8
0
 10
78.513
 11
78.633
 20
12.041
 21
12.331
  0
LINE
  8
0
 10
78.633
 11
78.797
 20
12.331
 21
12.599
  0
LINE
  8
0
 10
78.797
 11
79.001
 20
12.599
 21
12.837
  0
LINE
  8
0
 10
79.001
 11
79.239
 20
12.837
 21
13.041
  0
LINE
  8
0
 10
79.239
 11
79.507
 20
13.041
 21
13.205
  0
LINE
  8
0
 10
79.507
 11
79.797
 20
13.205
 21
13.325
  0
LINE
  8
0
 10
79.797
 11
80.102
 20
13.325
 21
13.399
  0
LINE
  8
0
 10
80.102
 11
80.415
 20
13.399
 21
13.423
  0
LINE
  8
0
 10
80.415
 11
83.415
 20
13.423
 21
13.423
  0
LINE
  8
0
 10
83.415
 11
83.728
 20
13.423
 21
13.399
  0
LINE
  8
0
 10
83.728
 11
84.033
 20
13.399
 21
13.325
  0
LINE
  8
0
 10
84.033
 11
84.323
 20
13.325
 21
13.205
  0
LINE
  8
0
 10
84.323
 11
84.591
 20
13.205
 21
13.041
  0
LINE
  8
0
 10
84.591
 11
84.829
 20
13.041
 21
12.837
  0
LINE
  8
0
 10
84.829
 11
85.033
 20
12.837
 21
12.599
  0
LINE
  8
0
 10
85.033
 11
85.197
 20
12.599
 21
12.331
  0
LINE
  8
0
 10
85.197
 11
85.317
 20
12.331
 21
12.041
  0
LINE
  8
0
 10
85.317
 11
85.39
 20
12.041
 21
11.736
  0
LINE
  8
0
 10
85.39
 11
85.415
 20
11.736
 21
11.423
  0
LINE
  8
0
 10
85.415
 11
85.39
 20
11.423
 21
11.11
  0
LINE
  8
0
 10
85.39
 11
85.317
 20
11.11
 21
10.805
  0
LINE
  8
0
 10
85.317
 11
85.197
 20
10.805
 21
10.515
  0
LINE
  8
0
 10
85.197
 11
85.033
 20
10.515
 21
10.248
  0
LINE
  8
0
 10
85.033
 11
84.829
 20
10.248
 21
10.009
  0
LINE
  8
0
 10
84.829
 11
84.591
 20
10.009
 21
9.805
  0
LINE
  8
0
 10
84.591
 11
84.323
 20
9.805
 21
9.641
  0
LINE
  8
0
 10
84.323
 11
84.033
 20
9.641
 21
9.521
  0
LINE
  8
0
 10
84.033
 11
83.728
 20
9.521
 21
9.448
  0
LINE
  8
0
 10
83.728
 11
83.415
 20
9.448
 21
9.423
  0
LINE
  8
0
 10
83.415
 11
80.415
 20
9.423
 21
9.423
  0
LINE
  8
0
 10
80.415
 11
80.102
 20
9.423
 21
9.448
  0
LINE
  8
0
 10
80.102
 11
79.797
 20
9.448
 21
9.521
  0
LINE
  8
0
 10
79.797
 11
79.507
 20
9.521
 21
9.641
  0
LINE
  8
0
 10
79.507
 11
79.239
 20
9.641
 21
9.805
  0
LINE
  8
0
 10
79.239
 11
79.001
 20
9.805
 21
10.009
  0
LINE
  8
0
 10
79.001
 11
78.797
 20
10.009
 21
10.248
  0
LINE
  8
0
 10
78.797
 11
78.633
 20
10.248
 21
10.515
  0
LINE
  8
0
 10
78.633
 11
78.513
 20
10.515
 21
10.805
  0
LINE
  8
0
 10
78.513
 11
78.44
 20
10.805
 21
11.11
  0
LINE
  8
0
 10
78.44
 11
78.415
 20
11.11
 21
11.423
  0
LINE
  8
0
 10
78.415
 11
78.44
 20
42.723
 21
43.036
  0
LINE
  8
0
 10
78.44
 11
78.513
 20
43.036
 21
43.341
  0
LINE
  8
0
 10
78.513
 11
78.633
 20
43.341
 21
43.631
  0
LINE
  8
0
 10
78.633
 11
78.797
 20
43.631
 21
43.899
  0
LINE
  8
0
 10
78.797
 11
79.001
 20
43.899
 21
44.137
  0
LINE
  8
0
 10
79.001
 11
79.239
 20
44.137
 21
44.341
  0
LINE
  8
0
 10
79.239
 11
79.507
 20
44.341
 21
44.505
  0
LINE
  8
0
 10
79.507
 11
79.797
 20
44.505
 21
44.625
  0
LINE
  8
0
 10
79.797
 11
80.102
 20
44.625
 21
44.699
  0
LINE
  8
0
 10
80.102
 11
80.415
 20
44.699
 21
44.723
  0
LINE
  8
0
 10
80.415
 11
83.415
 20
44.723
 21
44.723
  0
LINE
  8
0
 10
83.415
 11
83.728
 20
44.723
 21
44.699
  0
LINE
  8
0
 10
83.728
 11
84.033
 20
44.699
 21
44.625
  0
LINE
  8
0
 10
84.033
 11
84.323
 20
44.625
 21
44.505
  0
LINE
  8
0
 10
84.323
 11
84.591
 20
44.505
 21
44.341
  0
LINE
  8
0
 10
84.591
 11
84.829
 20
44.341
 21
44.137
  0
LINE
  8
0
 10
84.829
 11
85.033
 20
44.137
 21
43.899
  0
LINE
  8
0
 10
85.033
 11
85.197
 20
43.899
 21
43.631
  0
LINE
  8
0
 10
85.197
 11
85.317
 20
43.631
 21
43.341
  0
LINE
  8
0
 10
85.317
 11
85.39
 20
43.341
 21
43.036
  0
LINE
  8
0
 10
85.39
 11
85.415
 20
43.036
 21
42.723
  0
LINE
  8
0
 10
85.415
 11
85.39
 20
42.723
 21
42.41
  0
LINE
  8
0
 10
85.39
 11
85.317
 20
42.41
 21
42.105
  0
LINE
  8
0
 10
85.317
 11
85.197
 20
42.105
 21
41.815
  0
LINE
  8
0
 10
85.197
 11
85.033
 20
41.815
 21
41.548
  0
LINE
  8
0
 10
85.033
 11
84.829
 20
41.548
 21
41.309
  0
LINE
  8
0
 10
84.829
 11
84.591
 20
41.309
 21
41.105
  0
LINE
  8
0
 10
84.591
 11
84.323
 20
41.105
 21
40.941
  0
LINE
  8
0
 10
84.323
 11
84.033
 20
40.941
 21
40.821
  0
LINE
  8
0
 10
84.033
 11
83.728
 20
40.821
 21
40.748
  0
LINE
  8
0
 10
83.728
 11
83.415
 20
40.748
 21
40.723
  0
LINE
  8
0
 10
83.415
 11
80.415
 20
40.723
 21
40.723
  0
LINE
  8
0
 10
80.415
 11
80.102
 20
40.723
 21
40.748
  0
LINE
  8
0
 10
80.102
 11
79.797
 20
40.748
 21
40.821
  0
LINE
  8
0
 10
79.797
 11
79.507
 20
40.821
 21
40.941
  0
LINE
  8
0
 10
79.507
 11
79.239
 20
40.941
 21
41.105
  0
LINE
  8
0
 10
79.239
 11
79.001
 20
41.105
 21
41.309
  0
LINE
  8
0
 10
79.001
 11
78.797
 20
41.309
 21
41.548
  0
LINE
  8
0
 10
78.797
 11
78.633
 20
41.548
 21
41.815
  0
LINE
  8
0
 10
78.633
 11
78.513
 20
41.815
 21
42.105
  0
LINE
  8
0
 10
78.513
 11
78.44
 20
42.105
 21
42.41
  0
LINE
  8
0
 10
78.44
 11
78.415
 20
42.41
 21
42.723
  0
ENDSEC
  0
SECTION
  2
OBJECTS
  0
DICTIONARY
  0
ENDSEC
  0
EOF
