solid OpenSCAD_Model
  facet normal -1 0 0
    outer loop
      vertex -12 -2 0
      vertex -12 -2 8
      vertex -12 2 0
    endloop
  endfacet
  facet normal -1 0 0
    outer loop
      vertex -12 2 0
      vertex -12 -2 8
      vertex -12 2 8
    endloop
  endfacet
  facet normal -0.997452 -0.0713387 0
    outer loop
      vertex -12 -2 0
      vertex -11.9796 -2.28463 0
      vertex -12 -2 8
    endloop
  endfacet
  facet normal -0.997452 -0.0713387 0
    outer loop
      vertex -12 -2 8
      vertex -11.9796 -2.28463 0
      vertex -11.9796 -2.28463 8
    endloop
  endfacet
  facet normal 0 0 -1
    outer loop
      vertex -12 -2 0
      vertex -12 2 0
      vertex -11.9796 -2.28463 0
    endloop
  endfacet
  facet normal 0 0 -1
    outer loop
      vertex -11.9796 -2.28463 0
      vertex -12 2 0
      vertex -11.9796 2.28463 0
    endloop
  endfacet
  facet normal 0 0 -1
    outer loop
      vertex -11.9796 -2.28463 0
      vertex -11.9796 2.28463 0
      vertex -11.919 2.56346 0
    endloop
  endfacet
  facet normal 0 0 -1
    outer loop
      vertex -11.9796 -2.28463 0
      vertex -11.919 2.56346 0
      vertex -11.8193 2.83083 0
    endloop
  endfacet
  facet normal 0 0 -1
    outer loop
      vertex -11.9796 -2.28463 0
      vertex -11.8193 2.83083 0
      vertex -11.6825 3.08128 0
    endloop
  endfacet
  facet normal 0 0 -1
    outer loop
      vertex -11.9796 -2.28463 0
      vertex -11.6825 3.08128 0
      vertex -11.5115 3.30972 0
    endloop
  endfacet
  facet normal 0 0 -1
    outer loop
      vertex -11.9796 -2.28463 0
      vertex -11.5115 3.30972 0
      vertex -11.3097 3.5115 0
    endloop
  endfacet
  facet normal 0 0 -1
    outer loop
      vertex -11.9796 -2.28463 0
      vertex -11.3097 3.5115 0
      vertex -11.0813 3.68251 0
    endloop
  endfacet
  facet normal 0 0 -1
    outer loop
      vertex -11.9796 -2.28463 0
      vertex -11.0813 3.68251 0
      vertex -10.8308 3.81926 0
    endloop
  endfacet
  facet normal 0 0 -1
    outer loop
      vertex -11.9796 -2.28463 0
      vertex -10.8308 3.81926 0
      vertex -10.5635 3.91899 0
    endloop
  endfacet
  facet normal 0 0 -1
    outer loop
      vertex -11.9796 -2.28463 0
      vertex -10.5635 3.91899 0
      vertex -10.2846 3.97964 0
    endloop
  endfacet
  facet normal 0 0 -1
    outer loop
      vertex -11.9796 -2.28463 0
      vertex -10.2846 3.97964 0
      vertex -10 4 0
    endloop
  endfacet
  facet normal 0 0 -1
    outer loop
      vertex -6.66174 1.48629 0
      vertex -10 4 0
      vertex 10 4 0
    endloop
  endfacet
  facet normal 0 0 -1
    outer loop
      vertex -6.17291 -0.813473 0
      vertex 11.0813 3.68251 0
      vertex 11.3097 3.5115 0
    endloop
  endfacet
  facet normal 0 0 -1
    outer loop
      vertex 7.79094 1.98904 0
      vertex 11.6825 3.08128 0
      vertex 11.8193 2.83083 0
    endloop
  endfacet
  facet normal 0 0 -1
    outer loop
      vertex 8.61803 1.90211 0
      vertex 11.8193 2.83083 0
      vertex 11.919 2.56346 0
    endloop
  endfacet
  facet normal 0 0 -1
    outer loop
      vertex 9 1.73205 0
      vertex 11.919 2.56346 0
      vertex 11.9796 2.28463 0
    endloop
  endfacet
  facet normal 0 0 -1
    outer loop
      vertex 9.61803 -1.17557 0
      vertex 12 2 0
      vertex 12 -2 0
    endloop
  endfacet
  facet normal 0 0 -1
    outer loop
      vertex -11.9796 -2.28463 0
      vertex 12 -2 0
      vertex 11.9796 -2.28463 0
    endloop
  endfacet
  facet normal 0 0 -1
    outer loop
      vertex -11.9796 -2.28463 0
      vertex 11.9796 -2.28463 0
      vertex 11.919 -2.56346 0
    endloop
  endfacet
  facet normal 0 0 -1
    outer loop
      vertex -11.9796 -2.28463 0
      vertex 11.919 -2.56346 0
      vertex 11.8193 -2.83083 0
    endloop
  endfacet
  facet normal 0 0 -1
    outer loop
      vertex -11.9796 -2.28463 0
      vertex 11.8193 -2.83083 0
      vertex 11.6825 -3.08128 0
    endloop
  endfacet
  facet normal 0 0 -1
    outer loop
      vertex -11.9796 -2.28463 0
      vertex 11.6825 -3.08128 0
      vertex 11.5115 -3.30972 0
    endloop
  endfacet
  facet normal 0 0 -1
    outer loop
      vertex -11.9796 -2.28463 0
      vertex 11.5115 -3.30972 0
      vertex 11.3097 -3.5115 0
    endloop
  endfacet
  facet normal 0 0 -1
    outer loop
      vertex -11.9796 -2.28463 0
      vertex 11.3097 -3.5115 0
      vertex 11.0813 -3.68251 0
    endloop
  endfacet
  facet normal 0 0 -1
    outer loop
      vertex -11.9796 -2.28463 0
      vertex 11.0813 -3.68251 0
      vertex 10.8308 -3.81926 0
    endloop
  endfacet
  facet normal 0 0 -1
    outer loop
      vertex -11.9796 -2.28463 0
      vertex 10.8308 -3.81926 0
      vertex 10.5635 -3.91899 0
    endloop
  endfacet
  facet normal 0 0 -1
    outer loop
      vertex -11.9796 -2.28463 0
      vertex 10.5635 -3.91899 0
      vertex 10.2846 -3.97964 0
    endloop
  endfacet
  facet normal 0 0 -1
    outer loop
      vertex -11.9796 -2.28463 0
      vertex 10.2846 -3.97964 0
      vertex 10 -4 0
    endloop
  endfacet
  facet normal 0 0 -1
    outer loop
      vertex -11.9796 -2.28463 0
      vertex 10 -4 0
      vertex -10 -4 0
    endloop
  endfacet
  facet normal 0 0 -1
    outer loop
      vertex -11.9796 -2.28463 0
      vertex -10 -4 0
      vertex -10.2846 -3.97964 0
    endloop
  endfacet
  facet normal 0 0 -1
    outer loop
      vertex -11.9796 -2.28463 0
      vertex -10.2846 -3.97964 0
      vertex -10.5635 -3.91899 0
    endloop
  endfacet
  facet normal 0 0 -1
    outer loop
      vertex -11.9796 -2.28463 0
      vertex -10.5635 -3.91899 0
      vertex -10.8308 -3.81926 0
    endloop
  endfacet
  facet normal 0 0 -1
    outer loop
      vertex -11.9796 -2.28463 0
      vertex -10.8308 -3.81926 0
      vertex -11.0813 -3.68251 0
    endloop
  endfacet
  facet normal 0 0 -1
    outer loop
      vertex -11.9796 -2.28463 0
      vertex -11.0813 -3.68251 0
      vertex -11.3097 -3.5115 0
    endloop
  endfacet
  facet normal 0 0 -1
    outer loop
      vertex -11.9796 -2.28463 0
      vertex -11.3097 -3.5115 0
      vertex -11.5115 -3.30972 0
    endloop
  endfacet
  facet normal 0 0 -1
    outer loop
      vertex -11.9796 -2.28463 0
      vertex -11.5115 -3.30972 0
      vertex -11.6825 -3.08128 0
    endloop
  endfacet
  facet normal 0 0 -1
    outer loop
      vertex -11.9796 -2.28463 0
      vertex -11.6825 -3.08128 0
      vertex -11.8193 -2.83083 0
    endloop
  endfacet
  facet normal 0 0 -1
    outer loop
      vertex -11.9796 -2.28463 0
      vertex -11.8193 -2.83083 0
      vertex -11.919 -2.56346 0
    endloop
  endfacet
  facet normal 0 0 -1
    outer loop
      vertex -11.9796 -2.28463 0
      vertex -10 4 0
      vertex -10 -2.77556e-15 0
    endloop
  endfacet
  facet normal 0 0 -1
    outer loop
      vertex -11.9796 -2.28463 0
      vertex -10 -2.77556e-15 0
      vertex -9.95629 -0.415823 0
    endloop
  endfacet
  facet normal 0 0 -1
    outer loop
      vertex -11.9796 -2.28463 0
      vertex -9.95629 -0.415823 0
      vertex -9.82709 -0.813473 0
    endloop
  endfacet
  facet normal 0 0 -1
    outer loop
      vertex -11.9796 -2.28463 0
      vertex -9.82709 -0.813473 0
      vertex -9.61803 -1.17557 0
    endloop
  endfacet
  facet normal 0 0 -1
    outer loop
      vertex -11.9796 -2.28463 0
      vertex -9.61803 -1.17557 0
      vertex -9.33826 -1.48629 0
    endloop
  endfacet
  facet normal 0 0 -1
    outer loop
      vertex -8.61803 -1.90211 0
      vertex -11.9796 -2.28463 0
      vertex -9 -1.73205 0
    endloop
  endfacet
  facet normal 0 0 -1
    outer loop
      vertex -7.38197 -1.90211 0
      vertex 7.79094 -1.98904 0
      vertex -7.79094 -1.98904 0
    endloop
  endfacet
  facet normal 0 0 -1
    outer loop
      vertex 6.38197 1.17557 0
      vertex -6.38197 -1.17557 0
      vertex 6.66174 1.48629 0
    endloop
  endfacet
  facet normal 0 0 -1
    outer loop
      vertex -11.9796 -2.28463 0
      vertex -8.61803 -1.90211 0
      vertex -8.20906 -1.98904 0
    endloop
  endfacet
  facet normal 0 0 -1
    outer loop
      vertex -11.9796 -2.28463 0
      vertex -8.20906 -1.98904 0
      vertex 12 -2 0
    endloop
  endfacet
  facet normal 0 0 -1
    outer loop
      vertex -8.20906 -1.98904 0
      vertex -7.79094 -1.98904 0
      vertex 12 -2 0
    endloop
  endfacet
  facet normal 0 0 -1
    outer loop
      vertex 9 1.73205 0
      vertex 12 2 0
      vertex 9.33826 1.48629 0
    endloop
  endfacet
  facet normal 0 0 -1
    outer loop
      vertex 9 1.73205 0
      vertex 11.9796 2.28463 0
      vertex 12 2 0
    endloop
  endfacet
  facet normal 0 0 -1
    outer loop
      vertex 8.61803 -1.90211 0
      vertex 12 -2 0
      vertex 8.20906 -1.98904 0
    endloop
  endfacet
  facet normal 0 0 -1
    outer loop
      vertex -6 -2.77556e-15 0
      vertex 10 4 0
      vertex -6.04371 -0.415823 0
    endloop
  endfacet
  facet normal 0 0 -1
    outer loop
      vertex -6.04371 0.415823 0
      vertex 10 4 0
      vertex -6 -2.77556e-15 0
    endloop
  endfacet
  facet normal 0 0 -1
    outer loop
      vertex -6.17291 0.813473 0
      vertex 10 4 0
      vertex -6.04371 0.415823 0
    endloop
  endfacet
  facet normal 0 0 -1
    outer loop
      vertex 7.79094 -1.98904 0
      vertex -7.38197 -1.90211 0
      vertex 7.38197 -1.90211 0
    endloop
  endfacet
  facet normal 0 0 -1
    outer loop
      vertex -7.38197 1.90211 0
      vertex -10 4 0
      vertex -7 1.73205 0
    endloop
  endfacet
  facet normal 0 0 -1
    outer loop
      vertex -7.79094 1.98904 0
      vertex -10 4 0
      vertex -7.38197 1.90211 0
    endloop
  endfacet
  facet normal 0 0 -1
    outer loop
      vertex -6.17291 0.813473 0
      vertex -6.38197 1.17557 0
      vertex 10 4 0
    endloop
  endfacet
  facet normal 0 0 -1
    outer loop
      vertex -7 1.73205 0
      vertex -10 4 0
      vertex -6.66174 1.48629 0
    endloop
  endfacet
  facet normal 0 0 -1
    outer loop
      vertex -6.38197 1.17557 0
      vertex -6.66174 1.48629 0
      vertex 10 4 0
    endloop
  endfacet
  facet normal 0 0 -1
    outer loop
      vertex -8.20906 1.98904 0
      vertex -10 4 0
      vertex -7.79094 1.98904 0
    endloop
  endfacet
  facet normal 0 0 -1
    outer loop
      vertex -8.61803 1.90211 0
      vertex -10 4 0
      vertex -8.20906 1.98904 0
    endloop
  endfacet
  facet normal 0 0 -1
    outer loop
      vertex -9 1.73205 0
      vertex -10 4 0
      vertex -8.61803 1.90211 0
    endloop
  endfacet
  facet normal 0 0 -1
    outer loop
      vertex -9.33826 1.48629 0
      vertex -10 4 0
      vertex -9 1.73205 0
    endloop
  endfacet
  facet normal 0 0 -1
    outer loop
      vertex -9.61803 1.17557 0
      vertex -10 4 0
      vertex -9.33826 1.48629 0
    endloop
  endfacet
  facet normal 0 0 -1
    outer loop
      vertex -9.82709 0.813473 0
      vertex -10 4 0
      vertex -9.61803 1.17557 0
    endloop
  endfacet
  facet normal 0 0 -1
    outer loop
      vertex -9.95629 0.415823 0
      vertex -10 4 0
      vertex -9.82709 0.813473 0
    endloop
  endfacet
  facet normal 0 0 -1
    outer loop
      vertex -10 -2.77556e-15 0
      vertex -10 4 0
      vertex -9.95629 0.415823 0
    endloop
  endfacet
  facet normal 0 0 -1
    outer loop
      vertex -7.38197 -1.90211 0
      vertex 6 -2.77556e-15 0
      vertex 6.04371 -0.415823 0
    endloop
  endfacet
  facet normal 0 0 -1
    outer loop
      vertex 6.17291 0.813473 0
      vertex -7.38197 -1.90211 0
      vertex -7 -1.73205 0
    endloop
  endfacet
  facet normal 0 0 -1
    outer loop
      vertex -7.38197 -1.90211 0
      vertex 6.04371 -0.415823 0
      vertex 6.17291 -0.813473 0
    endloop
  endfacet
  facet normal 0 0 -1
    outer loop
      vertex -7.38197 -1.90211 0
      vertex 6.17291 -0.813473 0
      vertex 6.38197 -1.17557 0
    endloop
  endfacet
  facet normal 0 0 -1
    outer loop
      vertex -7.38197 -1.90211 0
      vertex 6.38197 -1.17557 0
      vertex 6.66174 -1.48629 0
    endloop
  endfacet
  facet normal 0 0 -1
    outer loop
      vertex -7.38197 -1.90211 0
      vertex 6.66174 -1.48629 0
      vertex 7 -1.73205 0
    endloop
  endfacet
  facet normal 0 0 -1
    outer loop
      vertex -7.38197 -1.90211 0
      vertex 7 -1.73205 0
      vertex 7.38197 -1.90211 0
    endloop
  endfacet
  facet normal 0 0 -1
    outer loop
      vertex -7.79094 -1.98904 0
      vertex 7.79094 -1.98904 0
      vertex 12 -2 0
    endloop
  endfacet
  facet normal 0 0 -1
    outer loop
      vertex 7.79094 -1.98904 0
      vertex 8.20906 -1.98904 0
      vertex 12 -2 0
    endloop
  endfacet
  facet normal 0 0 -1
    outer loop
      vertex 9 -1.73205 0
      vertex 12 -2 0
      vertex 8.61803 -1.90211 0
    endloop
  endfacet
  facet normal 0 0 -1
    outer loop
      vertex 9.33826 -1.48629 0
      vertex 12 -2 0
      vertex 9 -1.73205 0
    endloop
  endfacet
  facet normal 0 0 -1
    outer loop
      vertex 9.61803 -1.17557 0
      vertex 12 -2 0
      vertex 9.33826 -1.48629 0
    endloop
  endfacet
  facet normal 0 0 -1
    outer loop
      vertex 9.82709 -0.813473 0
      vertex 12 2 0
      vertex 9.61803 -1.17557 0
    endloop
  endfacet
  facet normal 0 0 -1
    outer loop
      vertex 9.33826 1.48629 0
      vertex 12 2 0
      vertex 9.61803 1.17557 0
    endloop
  endfacet
  facet normal 0 0 -1
    outer loop
      vertex 9.95629 -0.415823 0
      vertex 12 2 0
      vertex 9.82709 -0.813473 0
    endloop
  endfacet
  facet normal 0 0 -1
    outer loop
      vertex 10 -2.77556e-15 0
      vertex 12 2 0
      vertex 9.95629 -0.415823 0
    endloop
  endfacet
  facet normal 0 0 -1
    outer loop
      vertex 9.95629 0.415823 0
      vertex 12 2 0
      vertex 10 -2.77556e-15 0
    endloop
  endfacet
  facet normal 0 0 -1
    outer loop
      vertex 9.82709 0.813473 0
      vertex 12 2 0
      vertex 9.95629 0.415823 0
    endloop
  endfacet
  facet normal 0 0 -1
    outer loop
      vertex 9.61803 1.17557 0
      vertex 12 2 0
      vertex 9.82709 0.813473 0
    endloop
  endfacet
  facet normal 0 0 -1
    outer loop
      vertex 6.17291 0.813473 0
      vertex -7 -1.73205 0
      vertex -6.66174 -1.48629 0
    endloop
  endfacet
  facet normal 0 0 -1
    outer loop
      vertex 8.61803 1.90211 0
      vertex 11.919 2.56346 0
      vertex 9 1.73205 0
    endloop
  endfacet
  facet normal 0 0 -1
    outer loop
      vertex 8.20906 1.98904 0
      vertex 11.8193 2.83083 0
      vertex 8.61803 1.90211 0
    endloop
  endfacet
  facet normal 0 0 -1
    outer loop
      vertex 7.38197 1.90211 0
      vertex 11.6825 3.08128 0
      vertex 7.79094 1.98904 0
    endloop
  endfacet
  facet normal 0 0 -1
    outer loop
      vertex 6.17291 0.813473 0
      vertex -6.66174 -1.48629 0
      vertex -6.38197 -1.17557 0
    endloop
  endfacet
  facet normal 0 0 -1
    outer loop
      vertex 6.66174 1.48629 0
      vertex -6.38197 -1.17557 0
      vertex -6.17291 -0.813473 0
    endloop
  endfacet
  facet normal 0 0 -1
    outer loop
      vertex 6.17291 0.813473 0
      vertex -6.38197 -1.17557 0
      vertex 6.38197 1.17557 0
    endloop
  endfacet
  facet normal 0 0 -1
    outer loop
      vertex -7.38197 -1.90211 0
      vertex 6.17291 0.813473 0
      vertex 6.04371 0.415823 0
    endloop
  endfacet
  facet normal 0 0 -1
    outer loop
      vertex -7.38197 -1.90211 0
      vertex 6.04371 0.415823 0
      vertex 6 -2.77556e-15 0
    endloop
  endfacet
  facet normal 0 0 -1
    outer loop
      vertex -9 -1.73205 0
      vertex -11.9796 -2.28463 0
      vertex -9.33826 -1.48629 0
    endloop
  endfacet
  facet normal 0 0 -1
    outer loop
      vertex -6.17291 -0.813473 0
      vertex 11.3097 3.5115 0
      vertex 11.5115 3.30972 0
    endloop
  endfacet
  facet normal 0 0 -1
    outer loop
      vertex -6.17291 -0.813473 0
      vertex 11.5115 3.30972 0
      vertex 11.6825 3.08128 0
    endloop
  endfacet
  facet normal 0 0 -1
    outer loop
      vertex -6.17291 -0.813473 0
      vertex 11.6825 3.08128 0
      vertex 7.38197 1.90211 0
    endloop
  endfacet
  facet normal 0 0 -1
    outer loop
      vertex -6.04371 -0.415823 0
      vertex 10 4 0
      vertex 10.2846 3.97964 0
    endloop
  endfacet
  facet normal 0 0 -1
    outer loop
      vertex 7 1.73205 0
      vertex -6.17291 -0.813473 0
      vertex 7.38197 1.90211 0
    endloop
  endfacet
  facet normal 0 0 -1
    outer loop
      vertex -6.04371 -0.415823 0
      vertex 10.2846 3.97964 0
      vertex 10.5635 3.91899 0
    endloop
  endfacet
  facet normal 0 0 -1
    outer loop
      vertex -6.04371 -0.415823 0
      vertex 10.5635 3.91899 0
      vertex 10.8308 3.81926 0
    endloop
  endfacet
  facet normal 0 0 -1
    outer loop
      vertex -6.04371 -0.415823 0
      vertex 10.8308 3.81926 0
      vertex 11.0813 3.68251 0
    endloop
  endfacet
  facet normal 0 0 -1
    outer loop
      vertex 7.79094 1.98904 0
      vertex 11.8193 2.83083 0
      vertex 8.20906 1.98904 0
    endloop
  endfacet
  facet normal 0 0 -1
    outer loop
      vertex -6.04371 -0.415823 0
      vertex 11.0813 3.68251 0
      vertex -6.17291 -0.813473 0
    endloop
  endfacet
  facet normal 0 0 -1
    outer loop
      vertex 6.66174 1.48629 0
      vertex -6.17291 -0.813473 0
      vertex 7 1.73205 0
    endloop
  endfacet
  facet normal -0.997452 0.0713387 0
    outer loop
      vertex -12 2 0
      vertex -12 2 8
      vertex -11.9796 2.28463 0
    endloop
  endfacet
  facet normal -0.997452 0.0713387 0
    outer loop
      vertex -11.9796 2.28463 0
      vertex -12 2 8
      vertex -11.9796 2.28463 8
    endloop
  endfacet
  facet normal 0 0 1
    outer loop
      vertex -12 2 8
      vertex -12 -2 8
      vertex -11.9796 -2.28463 8
    endloop
  endfacet
  facet normal 0 0 1
    outer loop
      vertex -11.8193 -2.83083 8
      vertex -12 2 8
      vertex -11.919 -2.56346 8
    endloop
  endfacet
  facet normal 0 0 1
    outer loop
      vertex -11.919 -2.56346 8
      vertex -12 2 8
      vertex -11.9796 -2.28463 8
    endloop
  endfacet
  facet normal 0 0 1
    outer loop
      vertex -11.6825 -3.08128 8
      vertex -12 2 8
      vertex -11.8193 -2.83083 8
    endloop
  endfacet
  facet normal 0 0 1
    outer loop
      vertex -11.5115 -3.30972 8
      vertex -12 2 8
      vertex -11.6825 -3.08128 8
    endloop
  endfacet
  facet normal 0 0 1
    outer loop
      vertex -11.3097 -3.5115 8
      vertex -12 2 8
      vertex -11.5115 -3.30972 8
    endloop
  endfacet
  facet normal 0 0 1
    outer loop
      vertex -11.0813 -3.68251 8
      vertex -12 2 8
      vertex -11.3097 -3.5115 8
    endloop
  endfacet
  facet normal 0 0 1
    outer loop
      vertex -10.8308 -3.81926 8
      vertex -12 2 8
      vertex -11.0813 -3.68251 8
    endloop
  endfacet
  facet normal 0 0 1
    outer loop
      vertex -10.5635 -3.91899 8
      vertex -12 2 8
      vertex -10.8308 -3.81926 8
    endloop
  endfacet
  facet normal 0 0 1
    outer loop
      vertex -10.2846 -3.97964 8
      vertex -12 2 8
      vertex -10.5635 -3.91899 8
    endloop
  endfacet
  facet normal 0 0 1
    outer loop
      vertex -10 -4 8
      vertex -12 2 8
      vertex -10.2846 -3.97964 8
    endloop
  endfacet
  facet normal 0 0 1
    outer loop
      vertex -9.95629 -0.415823 8
      vertex -12 2 8
      vertex -10 -4 8
    endloop
  endfacet
  facet normal 0 0 1
    outer loop
      vertex -8.61803 1.90211 8
      vertex -8.20906 1.98904 8
      vertex -4.06065 4 8
    endloop
  endfacet
  facet normal 0 0 1
    outer loop
      vertex -10 4 8
      vertex -12 2 8
      vertex -4.06065 4 8
    endloop
  endfacet
  facet normal 0 0 1
    outer loop
      vertex -10.2846 3.97964 8
      vertex -12 2 8
      vertex -10 4 8
    endloop
  endfacet
  facet normal 0 0 1
    outer loop
      vertex -10.5635 3.91899 8
      vertex -12 2 8
      vertex -10.2846 3.97964 8
    endloop
  endfacet
  facet normal 0 0 1
    outer loop
      vertex -10.8308 3.81926 8
      vertex -12 2 8
      vertex -10.5635 3.91899 8
    endloop
  endfacet
  facet normal 0 0 1
    outer loop
      vertex -11.0813 3.68251 8
      vertex -12 2 8
      vertex -10.8308 3.81926 8
    endloop
  endfacet
  facet normal 0 0 1
    outer loop
      vertex -11.3097 3.5115 8
      vertex -12 2 8
      vertex -11.0813 3.68251 8
    endloop
  endfacet
  facet normal 0 0 1
    outer loop
      vertex -11.5115 3.30972 8
      vertex -12 2 8
      vertex -11.3097 3.5115 8
    endloop
  endfacet
  facet normal 0 0 1
    outer loop
      vertex -11.6825 3.08128 8
      vertex -12 2 8
      vertex -11.5115 3.30972 8
    endloop
  endfacet
  facet normal 0 0 1
    outer loop
      vertex -11.8193 2.83083 8
      vertex -12 2 8
      vertex -11.6825 3.08128 8
    endloop
  endfacet
  facet normal 0 0 1
    outer loop
      vertex -11.919 2.56346 8
      vertex -12 2 8
      vertex -11.8193 2.83083 8
    endloop
  endfacet
  facet normal 0 0 1
    outer loop
      vertex -11.9796 2.28463 8
      vertex -12 2 8
      vertex -11.919 2.56346 8
    endloop
  endfacet
  facet normal 0 0 1
    outer loop
      vertex -9.82709 -0.813473 8
      vertex -9.95629 -0.415823 8
      vertex -10 -4 8
    endloop
  endfacet
  facet normal 0 0 1
    outer loop
      vertex -10 7.77156e-16 8
      vertex -12 2 8
      vertex -9.95629 -0.415823 8
    endloop
  endfacet
  facet normal 0 0 1
    outer loop
      vertex -9.95629 0.415823 8
      vertex -12 2 8
      vertex -10 7.77156e-16 8
    endloop
  endfacet
  facet normal 0 0 1
    outer loop
      vertex -7.38197 -1.90211 8
      vertex -7.79094 -1.98904 8
      vertex -4.06065 -4 8
    endloop
  endfacet
  facet normal 0 0 1
    outer loop
      vertex -7 -1.73205 8
      vertex -7.38197 -1.90211 8
      vertex -4.06065 -4 8
    endloop
  endfacet
  facet normal 0 0 1
    outer loop
      vertex -9.61803 1.17557 8
      vertex -12 2 8
      vertex -9.82709 0.813473 8
    endloop
  endfacet
  facet normal 0 0 1
    outer loop
      vertex -9.33826 1.48629 8
      vertex -12 2 8
      vertex -9.61803 1.17557 8
    endloop
  endfacet
  facet normal 0 0 1
    outer loop
      vertex -9 1.73205 8
      vertex -12 2 8
      vertex -9.33826 1.48629 8
    endloop
  endfacet
  facet normal 0 0 1
    outer loop
      vertex -4.06065 4 8
      vertex -12 2 8
      vertex -9 1.73205 8
    endloop
  endfacet
  facet normal 0 0 1
    outer loop
      vertex -8.20906 1.98904 8
      vertex -7.79094 1.98904 8
      vertex -4.06065 4 8
    endloop
  endfacet
  facet normal 0 0 1
    outer loop
      vertex -4.06065 4 8
      vertex -9 1.73205 8
      vertex -8.61803 1.90211 8
    endloop
  endfacet
  facet normal 0 0 1
    outer loop
      vertex -7.79094 1.98904 8
      vertex -7.38197 1.90211 8
      vertex -4.06065 4 8
    endloop
  endfacet
  facet normal 0 0 1
    outer loop
      vertex -6.17291 0.813473 8
      vertex -6.04371 0.415823 8
      vertex -4.06065 -4 8
    endloop
  endfacet
  facet normal 0 0 1
    outer loop
      vertex -6.66174 -1.48629 8
      vertex -7 -1.73205 8
      vertex -4.06065 -4 8
    endloop
  endfacet
  facet normal 0 0 1
    outer loop
      vertex -6.04371 -0.415823 8
      vertex -6.17291 -0.813473 8
      vertex -4.06065 -4 8
    endloop
  endfacet
  facet normal 0 0 1
    outer loop
      vertex -4.06065 4 8
      vertex -7.38197 1.90211 8
      vertex -7 1.73205 8
    endloop
  endfacet
  facet normal 0 0 1
    outer loop
      vertex -6 7.77156e-16 8
      vertex -6.04371 -0.415823 8
      vertex -4.06065 -4 8
    endloop
  endfacet
  facet normal 0 0 1
    outer loop
      vertex -4.06065 4 8
      vertex -7 1.73205 8
      vertex -6.66174 1.48629 8
    endloop
  endfacet
  facet normal 0 0 1
    outer loop
      vertex -6.04371 0.415823 8
      vertex -6 7.77156e-16 8
      vertex -4.06065 -4 8
    endloop
  endfacet
  facet normal 0 0 1
    outer loop
      vertex -4.06065 4 8
      vertex -6.66174 1.48629 8
      vertex -6.38197 1.17557 8
    endloop
  endfacet
  facet normal 0 0 1
    outer loop
      vertex -4.06065 4 8
      vertex -6.17291 0.813473 8
      vertex -4.06065 -4 8
    endloop
  endfacet
  facet normal 0 0 1
    outer loop
      vertex -4.06065 4 8
      vertex -6.38197 1.17557 8
      vertex -6.17291 0.813473 8
    endloop
  endfacet
  facet normal 0 0 1
    outer loop
      vertex -6.17291 -0.813473 8
      vertex -6.38197 -1.17557 8
      vertex -4.06065 -4 8
    endloop
  endfacet
  facet normal 0 0 1
    outer loop
      vertex -6.38197 -1.17557 8
      vertex -6.66174 -1.48629 8
      vertex -4.06065 -4 8
    endloop
  endfacet
  facet normal 0 0 1
    outer loop
      vertex -4.06065 -4 8
      vertex -7.79094 -1.98904 8
      vertex -10 -4 8
    endloop
  endfacet
  facet normal 0 0 1
    outer loop
      vertex -7.79094 -1.98904 8
      vertex -8.20906 -1.98904 8
      vertex -10 -4 8
    endloop
  endfacet
  facet normal 0 0 1
    outer loop
      vertex -8.20906 -1.98904 8
      vertex -8.61803 -1.90211 8
      vertex -10 -4 8
    endloop
  endfacet
  facet normal 0 0 1
    outer loop
      vertex -8.61803 -1.90211 8
      vertex -9 -1.73205 8
      vertex -10 -4 8
    endloop
  endfacet
  facet normal 0 0 1
    outer loop
      vertex -9 -1.73205 8
      vertex -9.33826 -1.48629 8
      vertex -10 -4 8
    endloop
  endfacet
  facet normal 0 0 1
    outer loop
      vertex -9.33826 -1.48629 8
      vertex -9.61803 -1.17557 8
      vertex -10 -4 8
    endloop
  endfacet
  facet normal 0 0 1
    outer loop
      vertex -9.61803 -1.17557 8
      vertex -9.82709 -0.813473 8
      vertex -10 -4 8
    endloop
  endfacet
  facet normal 0 0 1
    outer loop
      vertex -9.95629 0.415823 8
      vertex -9.82709 0.813473 8
      vertex -12 2 8
    endloop
  endfacet
  facet normal -0.977147 -0.212566 0
    outer loop
      vertex -11.9796 -2.28463 0
      vertex -11.919 -2.56346 0
      vertex -11.9796 -2.28463 8
    endloop
  endfacet
  facet normal -0.977147 -0.212566 0
    outer loop
      vertex -11.9796 -2.28463 8
      vertex -11.919 -2.56346 0
      vertex -11.919 -2.56346 8
    endloop
  endfacet
  facet normal -0.93695 -0.349464 0
    outer loop
      vertex -11.919 -2.56346 0
      vertex -11.8193 -2.83083 0
      vertex -11.919 -2.56346 8
    endloop
  endfacet
  facet normal -0.93695 -0.349464 0
    outer loop
      vertex -11.919 -2.56346 8
      vertex -11.8193 -2.83083 0
      vertex -11.8193 -2.83083 8
    endloop
  endfacet
  facet normal -0.877679 -0.479249 0
    outer loop
      vertex -11.8193 -2.83083 0
      vertex -11.6825 -3.08128 0
      vertex -11.8193 -2.83083 8
    endloop
  endfacet
  facet normal -0.877679 -0.479249 0
    outer loop
      vertex -11.8193 -2.83083 8
      vertex -11.6825 -3.08128 0
      vertex -11.6825 -3.08128 8
    endloop
  endfacet
  facet normal -0.80054 -0.599279 0
    outer loop
      vertex -11.6825 -3.08128 0
      vertex -11.5115 -3.30972 0
      vertex -11.6825 -3.08128 8
    endloop
  endfacet
  facet normal -0.80054 -0.599279 0
    outer loop
      vertex -11.6825 -3.08128 8
      vertex -11.5115 -3.30972 0
      vertex -11.5115 -3.30972 8
    endloop
  endfacet
  facet normal -0.707107 -0.707107 0
    outer loop
      vertex -11.5115 -3.30972 8
      vertex -11.5115 -3.30972 0
      vertex -11.3097 -3.5115 0
    endloop
  endfacet
  facet normal -0.707107 -0.707107 0
    outer loop
      vertex -11.3097 -3.5115 8
      vertex -11.5115 -3.30972 8
      vertex -11.3097 -3.5115 0
    endloop
  endfacet
  facet normal -0.599279 -0.80054 0
    outer loop
      vertex -11.3097 -3.5115 8
      vertex -11.3097 -3.5115 0
      vertex -11.0813 -3.68251 0
    endloop
  endfacet
  facet normal -0.599279 -0.80054 0
    outer loop
      vertex -11.0813 -3.68251 8
      vertex -11.3097 -3.5115 8
      vertex -11.0813 -3.68251 0
    endloop
  endfacet
  facet normal -0.479249 -0.877679 0
    outer loop
      vertex -11.0813 -3.68251 8
      vertex -11.0813 -3.68251 0
      vertex -10.8308 -3.81926 0
    endloop
  endfacet
  facet normal -0.479249 -0.877679 0
    outer loop
      vertex -10.8308 -3.81926 8
      vertex -11.0813 -3.68251 8
      vertex -10.8308 -3.81926 0
    endloop
  endfacet
  facet normal -0.349464 -0.93695 0
    outer loop
      vertex -10.8308 -3.81926 8
      vertex -10.8308 -3.81926 0
      vertex -10.5635 -3.91899 0
    endloop
  endfacet
  facet normal -0.349464 -0.93695 0
    outer loop
      vertex -10.5635 -3.91899 8
      vertex -10.8308 -3.81926 8
      vertex -10.5635 -3.91899 0
    endloop
  endfacet
  facet normal -0.212566 -0.977147 0
    outer loop
      vertex -10.5635 -3.91899 8
      vertex -10.5635 -3.91899 0
      vertex -10.2846 -3.97964 0
    endloop
  endfacet
  facet normal -0.212566 -0.977147 0
    outer loop
      vertex -10.2846 -3.97964 8
      vertex -10.5635 -3.91899 8
      vertex -10.2846 -3.97964 0
    endloop
  endfacet
  facet normal -0.0713387 -0.997452 0
    outer loop
      vertex -10.2846 -3.97964 8
      vertex -10.2846 -3.97964 0
      vertex -10 -4 0
    endloop
  endfacet
  facet normal -0.0713387 -0.997452 0
    outer loop
      vertex -10 -4 8
      vertex -10.2846 -3.97964 8
      vertex -10 -4 0
    endloop
  endfacet
  facet normal 0 -1 0
    outer loop
      vertex -10 -4 8
      vertex -10 -4 0
      vertex 10 -4 0
    endloop
  endfacet
  facet normal 0 -1 0
    outer loop
      vertex -1.26697 -4 4.60067
      vertex -10 -4 8
      vertex 10 -4 0
    endloop
  endfacet
  facet normal 0 -1 0
    outer loop
      vertex 10 -4 8
      vertex 4.06065 -4 8
      vertex 10 -4 0
    endloop
  endfacet
  facet normal 0 -1 0
    outer loop
      vertex 4.06065 -4 8
      vertex 4.04952 -4 7.85862
      vertex 10 -4 0
    endloop
  endfacet
  facet normal 0 -1 0
    outer loop
      vertex 4.04952 -4 7.85862
      vertex 3.89933 -4 7.23303
      vertex 10 -4 0
    endloop
  endfacet
  facet normal 0 -1 0
    outer loop
      vertex 3.89933 -4 7.23303
      vertex 3.65313 -4 6.63864
      vertex 10 -4 0
    endloop
  endfacet
  facet normal 0 -1 0
    outer loop
      vertex -4.04952 -4 7.85862
      vertex -4.06065 -4 8
      vertex -10 -4 8
    endloop
  endfacet
  facet normal 0 -1 0
    outer loop
      vertex 3.65313 -4 6.63864
      vertex 3.31697 -4 6.09008
      vertex 10 -4 0
    endloop
  endfacet
  facet normal 0 -1 0
    outer loop
      vertex 3.31697 -4 6.09008
      vertex 2.89914 -4 5.60086
      vertex 10 -4 0
    endloop
  endfacet
  facet normal 0 -1 0
    outer loop
      vertex 2.89914 -4 5.60086
      vertex 2.40992 -4 5.18303
      vertex 10 -4 0
    endloop
  endfacet
  facet normal 0 -1 0
    outer loop
      vertex 2.40992 -4 5.18303
      vertex 1.86136 -4 4.84687
      vertex 10 -4 0
    endloop
  endfacet
  facet normal 0 -1 0
    outer loop
      vertex 1.86136 -4 4.84687
      vertex 1.26697 -4 4.60067
      vertex 10 -4 0
    endloop
  endfacet
  facet normal 0 -1 0
    outer loop
      vertex 1.26697 -4 4.60067
      vertex 0.641381 -4 4.45048
      vertex 10 -4 0
    endloop
  endfacet
  facet normal 0 -1 0
    outer loop
      vertex 0.641381 -4 4.45048
      vertex 0 -4 4.4
      vertex 10 -4 0
    endloop
  endfacet
  facet normal 0 -1 0
    outer loop
      vertex 0 -4 4.4
      vertex -0.641381 -4 4.45048
      vertex 10 -4 0
    endloop
  endfacet
  facet normal 0 -1 0
    outer loop
      vertex -0.641381 -4 4.45048
      vertex -1.26697 -4 4.60067
      vertex 10 -4 0
    endloop
  endfacet
  facet normal 0 -1 0
    outer loop
      vertex -1.86136 -4 4.84687
      vertex -10 -4 8
      vertex -1.26697 -4 4.60067
    endloop
  endfacet
  facet normal 0 -1 0
    outer loop
      vertex -2.40992 -4 5.18303
      vertex -2.89914 -4 5.60086
      vertex -10 -4 8
    endloop
  endfacet
  facet normal 0 -1 0
    outer loop
      vertex -3.31697 -4 6.09008
      vertex -3.65313 -4 6.63864
      vertex -10 -4 8
    endloop
  endfacet
  facet normal 0 -1 0
    outer loop
      vertex -3.65313 -4 6.63864
      vertex -3.89933 -4 7.23303
      vertex -10 -4 8
    endloop
  endfacet
  facet normal 0 -1 0
    outer loop
      vertex -3.89933 -4 7.23303
      vertex -4.04952 -4 7.85862
      vertex -10 -4 8
    endloop
  endfacet
  facet normal 0 -1 0
    outer loop
      vertex -1.86136 -4 4.84687
      vertex -2.40992 -4 5.18303
      vertex -10 -4 8
    endloop
  endfacet
  facet normal 0 -1 0
    outer loop
      vertex -2.89914 -4 5.60086
      vertex -3.31697 -4 6.09008
      vertex -10 -4 8
    endloop
  endfacet
  facet normal 0.0713387 -0.997452 0
    outer loop
      vertex 10 -4 8
      vertex 10 -4 0
      vertex 10.2846 -3.97964 0
    endloop
  endfacet
  facet normal 0.0713387 -0.997452 0
    outer loop
      vertex 10.2846 -3.97964 8
      vertex 10 -4 8
      vertex 10.2846 -3.97964 0
    endloop
  endfacet
  facet normal 0.212566 -0.977147 0
    outer loop
      vertex 10.2846 -3.97964 8
      vertex 10.2846 -3.97964 0
      vertex 10.5635 -3.91899 0
    endloop
  endfacet
  facet normal 0.212566 -0.977147 0
    outer loop
      vertex 10.5635 -3.91899 8
      vertex 10.2846 -3.97964 8
      vertex 10.5635 -3.91899 0
    endloop
  endfacet
  facet normal 0.349464 -0.93695 0
    outer loop
      vertex 10.5635 -3.91899 8
      vertex 10.5635 -3.91899 0
      vertex 10.8308 -3.81926 0
    endloop
  endfacet
  facet normal 0.349464 -0.93695 0
    outer loop
      vertex 10.8308 -3.81926 8
      vertex 10.5635 -3.91899 8
      vertex 10.8308 -3.81926 0
    endloop
  endfacet
  facet normal 0.479249 -0.877679 0
    outer loop
      vertex 10.8308 -3.81926 8
      vertex 10.8308 -3.81926 0
      vertex 11.0813 -3.68251 0
    endloop
  endfacet
  facet normal 0.479249 -0.877679 0
    outer loop
      vertex 11.0813 -3.68251 8
      vertex 10.8308 -3.81926 8
      vertex 11.0813 -3.68251 0
    endloop
  endfacet
  facet normal 0.599279 -0.80054 0
    outer loop
      vertex 11.0813 -3.68251 8
      vertex 11.0813 -3.68251 0
      vertex 11.3097 -3.5115 0
    endloop
  endfacet
  facet normal 0.599279 -0.80054 0
    outer loop
      vertex 11.3097 -3.5115 8
      vertex 11.0813 -3.68251 8
      vertex 11.3097 -3.5115 0
    endloop
  endfacet
  facet normal 0.707107 -0.707107 0
    outer loop
      vertex 11.3097 -3.5115 8
      vertex 11.3097 -3.5115 0
      vertex 11.5115 -3.30972 0
    endloop
  endfacet
  facet normal 0.707107 -0.707107 0
    outer loop
      vertex 11.5115 -3.30972 8
      vertex 11.3097 -3.5115 8
      vertex 11.5115 -3.30972 0
    endloop
  endfacet
  facet normal 0.80054 -0.599279 0
    outer loop
      vertex 11.5115 -3.30972 8
      vertex 11.5115 -3.30972 0
      vertex 11.6825 -3.08128 0
    endloop
  endfacet
  facet normal 0.80054 -0.599279 0
    outer loop
      vertex 11.6825 -3.08128 8
      vertex 11.5115 -3.30972 8
      vertex 11.6825 -3.08128 0
    endloop
  endfacet
  facet normal 0.877679 -0.479249 0
    outer loop
      vertex 11.6825 -3.08128 8
      vertex 11.6825 -3.08128 0
      vertex 11.8193 -2.83083 0
    endloop
  endfacet
  facet normal 0.877679 -0.479249 0
    outer loop
      vertex 11.8193 -2.83083 8
      vertex 11.6825 -3.08128 8
      vertex 11.8193 -2.83083 0
    endloop
  endfacet
  facet normal 0.93695 -0.349464 0
    outer loop
      vertex 11.8193 -2.83083 8
      vertex 11.8193 -2.83083 0
      vertex 11.919 -2.56346 0
    endloop
  endfacet
  facet normal 0.93695 -0.349464 0
    outer loop
      vertex 11.919 -2.56346 8
      vertex 11.8193 -2.83083 8
      vertex 11.919 -2.56346 0
    endloop
  endfacet
  facet normal 0.977147 -0.212566 0
    outer loop
      vertex 11.919 -2.56346 8
      vertex 11.919 -2.56346 0
      vertex 11.9796 -2.28463 0
    endloop
  endfacet
  facet normal 0.977147 -0.212566 0
    outer loop
      vertex 11.9796 -2.28463 8
      vertex 11.919 -2.56346 8
      vertex 11.9796 -2.28463 0
    endloop
  endfacet
  facet normal 0.997452 -0.0713387 0
    outer loop
      vertex 11.9796 -2.28463 8
      vertex 11.9796 -2.28463 0
      vertex 12 -2 0
    endloop
  endfacet
  facet normal 0.997452 -0.0713387 0
    outer loop
      vertex 12 -2 8
      vertex 11.9796 -2.28463 8
      vertex 12 -2 0
    endloop
  endfacet
  facet normal 1 0 0
    outer loop
      vertex 12 -2 8
      vertex 12 -2 0
      vertex 12 2 0
    endloop
  endfacet
  facet normal 1 0 0
    outer loop
      vertex 12 2 8
      vertex 12 -2 8
      vertex 12 2 0
    endloop
  endfacet
  facet normal 0.997452 0.0713387 0
    outer loop
      vertex 12 2 0
      vertex 11.9796 2.28463 0
      vertex 11.9796 2.28463 8
    endloop
  endfacet
  facet normal 0.997452 0.0713387 0
    outer loop
      vertex 12 2 8
      vertex 12 2 0
      vertex 11.9796 2.28463 8
    endloop
  endfacet
  facet normal 0.977147 0.212566 0
    outer loop
      vertex 11.9796 2.28463 0
      vertex 11.919 2.56346 0
      vertex 11.919 2.56346 8
    endloop
  endfacet
  facet normal 0.977147 0.212566 0
    outer loop
      vertex 11.9796 2.28463 8
      vertex 11.9796 2.28463 0
      vertex 11.919 2.56346 8
    endloop
  endfacet
  facet normal 0.93695 0.349464 0
    outer loop
      vertex 11.919 2.56346 0
      vertex 11.8193 2.83083 0
      vertex 11.8193 2.83083 8
    endloop
  endfacet
  facet normal 0.93695 0.349464 0
    outer loop
      vertex 11.919 2.56346 8
      vertex 11.919 2.56346 0
      vertex 11.8193 2.83083 8
    endloop
  endfacet
  facet normal 0.877679 0.479249 0
    outer loop
      vertex 11.8193 2.83083 0
      vertex 11.6825 3.08128 0
      vertex 11.6825 3.08128 8
    endloop
  endfacet
  facet normal 0.877679 0.479249 0
    outer loop
      vertex 11.8193 2.83083 8
      vertex 11.8193 2.83083 0
      vertex 11.6825 3.08128 8
    endloop
  endfacet
  facet normal 0.80054 0.599279 0
    outer loop
      vertex 11.6825 3.08128 0
      vertex 11.5115 3.30972 0
      vertex 11.5115 3.30972 8
    endloop
  endfacet
  facet normal 0.80054 0.599279 0
    outer loop
      vertex 11.6825 3.08128 8
      vertex 11.6825 3.08128 0
      vertex 11.5115 3.30972 8
    endloop
  endfacet
  facet normal 0.707107 0.707107 0
    outer loop
      vertex 11.3097 3.5115 0
      vertex 11.3097 3.5115 8
      vertex 11.5115 3.30972 0
    endloop
  endfacet
  facet normal 0.707107 0.707107 0
    outer loop
      vertex 11.5115 3.30972 0
      vertex 11.3097 3.5115 8
      vertex 11.5115 3.30972 8
    endloop
  endfacet
  facet normal 0.599279 0.80054 0
    outer loop
      vertex 11.0813 3.68251 0
      vertex 11.0813 3.68251 8
      vertex 11.3097 3.5115 0
    endloop
  endfacet
  facet normal 0.599279 0.80054 0
    outer loop
      vertex 11.3097 3.5115 0
      vertex 11.0813 3.68251 8
      vertex 11.3097 3.5115 8
    endloop
  endfacet
  facet normal 0.479249 0.877679 0
    outer loop
      vertex 10.8308 3.81926 0
      vertex 10.8308 3.81926 8
      vertex 11.0813 3.68251 0
    endloop
  endfacet
  facet normal 0.479249 0.877679 0
    outer loop
      vertex 11.0813 3.68251 0
      vertex 10.8308 3.81926 8
      vertex 11.0813 3.68251 8
    endloop
  endfacet
  facet normal 0.349464 0.93695 0
    outer loop
      vertex 10.5635 3.91899 0
      vertex 10.5635 3.91899 8
      vertex 10.8308 3.81926 0
    endloop
  endfacet
  facet normal 0.349464 0.93695 0
    outer loop
      vertex 10.8308 3.81926 0
      vertex 10.5635 3.91899 8
      vertex 10.8308 3.81926 8
    endloop
  endfacet
  facet normal 0.212566 0.977147 0
    outer loop
      vertex 10.2846 3.97964 0
      vertex 10.2846 3.97964 8
      vertex 10.5635 3.91899 0
    endloop
  endfacet
  facet normal 0.212566 0.977147 0
    outer loop
      vertex 10.5635 3.91899 0
      vertex 10.2846 3.97964 8
      vertex 10.5635 3.91899 8
    endloop
  endfacet
  facet normal 0.0713387 0.997452 0
    outer loop
      vertex 10 4 0
      vertex 10 4 8
      vertex 10.2846 3.97964 0
    endloop
  endfacet
  facet normal 0.0713387 0.997452 0
    outer loop
      vertex 10.2846 3.97964 0
      vertex 10 4 8
      vertex 10.2846 3.97964 8
    endloop
  endfacet
  facet normal 0 1 0
    outer loop
      vertex -10 4 0
      vertex -10 4 8
      vertex 10 4 0
    endloop
  endfacet
  facet normal 0 1 0
    outer loop
      vertex -4.04952 4 7.85862
      vertex -10 4 8
      vertex -4.06065 4 8
    endloop
  endfacet
  facet normal 0 1 0
    outer loop
      vertex -3.89933 4 7.23303
      vertex -10 4 8
      vertex -4.04952 4 7.85862
    endloop
  endfacet
  facet normal 0 1 0
    outer loop
      vertex -3.65313 4 6.63864
      vertex -10 4 8
      vertex -3.89933 4 7.23303
    endloop
  endfacet
  facet normal 0 1 0
    outer loop
      vertex -3.31697 4 6.09008
      vertex -10 4 8
      vertex -3.65313 4 6.63864
    endloop
  endfacet
  facet normal 0 1 0
    outer loop
      vertex -2.89914 4 5.60086
      vertex -10 4 8
      vertex -3.31697 4 6.09008
    endloop
  endfacet
  facet normal 0 1 0
    outer loop
      vertex -2.40992 4 5.18303
      vertex -10 4 8
      vertex -2.89914 4 5.60086
    endloop
  endfacet
  facet normal 0 1 0
    outer loop
      vertex -1.86136 4 4.84687
      vertex -10 4 8
      vertex -2.40992 4 5.18303
    endloop
  endfacet
  facet normal 0 1 0
    outer loop
      vertex -1.26697 4 4.60067
      vertex -10 4 8
      vertex -1.86136 4 4.84687
    endloop
  endfacet
  facet normal 0 1 0
    outer loop
      vertex 10 4 0
      vertex -10 4 8
      vertex -1.26697 4 4.60067
    endloop
  endfacet
  facet normal 0 1 0
    outer loop
      vertex 0 4 4.4
      vertex 10 4 0
      vertex -0.641381 4 4.45048
    endloop
  endfacet
  facet normal 0 1 0
    outer loop
      vertex 0.641381 4 4.45048
      vertex 10 4 0
      vertex 0 4 4.4
    endloop
  endfacet
  facet normal 0 1 0
    outer loop
      vertex 1.26697 4 4.60067
      vertex 10 4 0
      vertex 0.641381 4 4.45048
    endloop
  endfacet
  facet normal 0 1 0
    outer loop
      vertex 1.86136 4 4.84687
      vertex 10 4 0
      vertex 1.26697 4 4.60067
    endloop
  endfacet
  facet normal 0 1 0
    outer loop
      vertex 10 4 0
      vertex 1.86136 4 4.84687
      vertex 2.40992 4 5.18303
    endloop
  endfacet
  facet normal 0 1 0
    outer loop
      vertex 2.40992 4 5.18303
      vertex 2.89914 4 5.60086
      vertex 10 4 0
    endloop
  endfacet
  facet normal 0 1 0
    outer loop
      vertex 2.89914 4 5.60086
      vertex 3.31697 4 6.09008
      vertex 10 4 0
    endloop
  endfacet
  facet normal 0 1 0
    outer loop
      vertex 3.31697 4 6.09008
      vertex 3.65313 4 6.63864
      vertex 10 4 0
    endloop
  endfacet
  facet normal 0 1 0
    outer loop
      vertex 3.65313 4 6.63864
      vertex 3.89933 4 7.23303
      vertex 10 4 0
    endloop
  endfacet
  facet normal 0 1 0
    outer loop
      vertex 3.89933 4 7.23303
      vertex 4.04952 4 7.85862
      vertex 10 4 0
    endloop
  endfacet
  facet normal 0 1 0
    outer loop
      vertex 4.04952 4 7.85862
      vertex 4.06065 4 8
      vertex 10 4 0
    endloop
  endfacet
  facet normal 0 1 0
    outer loop
      vertex 10 4 0
      vertex 4.06065 4 8
      vertex 10 4 8
    endloop
  endfacet
  facet normal 0 1 0
    outer loop
      vertex -0.641381 4 4.45048
      vertex 10 4 0
      vertex -1.26697 4 4.60067
    endloop
  endfacet
  facet normal -0.0713387 0.997452 0
    outer loop
      vertex -10.2846 3.97964 0
      vertex -10.2846 3.97964 8
      vertex -10 4 0
    endloop
  endfacet
  facet normal -0.0713387 0.997452 0
    outer loop
      vertex -10 4 0
      vertex -10.2846 3.97964 8
      vertex -10 4 8
    endloop
  endfacet
  facet normal -0.212566 0.977147 0
    outer loop
      vertex -10.5635 3.91899 0
      vertex -10.5635 3.91899 8
      vertex -10.2846 3.97964 0
    endloop
  endfacet
  facet normal -0.212566 0.977147 0
    outer loop
      vertex -10.2846 3.97964 0
      vertex -10.5635 3.91899 8
      vertex -10.2846 3.97964 8
    endloop
  endfacet
  facet normal -0.349464 0.93695 0
    outer loop
      vertex -10.8308 3.81926 0
      vertex -10.8308 3.81926 8
      vertex -10.5635 3.91899 0
    endloop
  endfacet
  facet normal -0.349464 0.93695 0
    outer loop
      vertex -10.5635 3.91899 0
      vertex -10.8308 3.81926 8
      vertex -10.5635 3.91899 8
    endloop
  endfacet
  facet normal -0.479249 0.877679 0
    outer loop
      vertex -11.0813 3.68251 0
      vertex -11.0813 3.68251 8
      vertex -10.8308 3.81926 0
    endloop
  endfacet
  facet normal -0.479249 0.877679 0
    outer loop
      vertex -10.8308 3.81926 0
      vertex -11.0813 3.68251 8
      vertex -10.8308 3.81926 8
    endloop
  endfacet
  facet normal -0.599279 0.80054 0
    outer loop
      vertex -11.3097 3.5115 0
      vertex -11.3097 3.5115 8
      vertex -11.0813 3.68251 0
    endloop
  endfacet
  facet normal -0.599279 0.80054 0
    outer loop
      vertex -11.0813 3.68251 0
      vertex -11.3097 3.5115 8
      vertex -11.0813 3.68251 8
    endloop
  endfacet
  facet normal -0.707107 0.707107 0
    outer loop
      vertex -11.5115 3.30972 0
      vertex -11.5115 3.30972 8
      vertex -11.3097 3.5115 0
    endloop
  endfacet
  facet normal -0.707107 0.707107 0
    outer loop
      vertex -11.3097 3.5115 0
      vertex -11.5115 3.30972 8
      vertex -11.3097 3.5115 8
    endloop
  endfacet
  facet normal -0.80054 0.599279 0
    outer loop
      vertex -11.6825 3.08128 0
      vertex -11.6825 3.08128 8
      vertex -11.5115 3.30972 0
    endloop
  endfacet
  facet normal -0.80054 0.599279 0
    outer loop
      vertex -11.5115 3.30972 0
      vertex -11.6825 3.08128 8
      vertex -11.5115 3.30972 8
    endloop
  endfacet
  facet normal -0.877679 0.479249 0
    outer loop
      vertex -11.8193 2.83083 0
      vertex -11.8193 2.83083 8
      vertex -11.6825 3.08128 0
    endloop
  endfacet
  facet normal -0.877679 0.479249 0
    outer loop
      vertex -11.6825 3.08128 0
      vertex -11.8193 2.83083 8
      vertex -11.6825 3.08128 8
    endloop
  endfacet
  facet normal -0.93695 0.349464 0
    outer loop
      vertex -11.919 2.56346 0
      vertex -11.919 2.56346 8
      vertex -11.8193 2.83083 0
    endloop
  endfacet
  facet normal -0.93695 0.349464 0
    outer loop
      vertex -11.8193 2.83083 0
      vertex -11.919 2.56346 8
      vertex -11.8193 2.83083 8
    endloop
  endfacet
  facet normal -0.977147 0.212566 0
    outer loop
      vertex -11.9796 2.28463 0
      vertex -11.9796 2.28463 8
      vertex -11.919 2.56346 0
    endloop
  endfacet
  facet normal -0.977147 0.212566 0
    outer loop
      vertex -11.919 2.56346 0
      vertex -11.9796 2.28463 8
      vertex -11.919 2.56346 8
    endloop
  endfacet
  facet normal 0.994522 0.104529 -4.64202e-17
    outer loop
      vertex -10 7.77156e-16 8
      vertex -9.95629 -0.415823 8
      vertex -9.95629 -0.415823 0
    endloop
  endfacet
  facet normal 0.994522 0.104529 -4.64202e-17
    outer loop
      vertex -10 -2.77556e-15 0
      vertex -10 7.77156e-16 8
      vertex -9.95629 -0.415823 0
    endloop
  endfacet
  facet normal 0.994522 -0.104529 4.64202e-17
    outer loop
      vertex -9.95629 0.415823 0
      vertex -9.95629 0.415823 8
      vertex -10 7.77156e-16 8
    endloop
  endfacet
  facet normal 0.994522 -0.104529 4.64202e-17
    outer loop
      vertex -10 -2.77556e-15 0
      vertex -9.95629 0.415823 0
      vertex -10 7.77156e-16 8
    endloop
  endfacet
  facet normal 0.951057 -0.309016 1.37231e-16
    outer loop
      vertex -9.82709 0.813473 0
      vertex -9.82709 0.813473 8
      vertex -9.95629 0.415823 8
    endloop
  endfacet
  facet normal 0.951057 -0.309016 1.37231e-16
    outer loop
      vertex -9.95629 0.415823 0
      vertex -9.82709 0.813473 0
      vertex -9.95629 0.415823 8
    endloop
  endfacet
  facet normal 0.866026 -0.499999 2.22044e-16
    outer loop
      vertex -9.61803 1.17557 0
      vertex -9.61803 1.17557 8
      vertex -9.82709 0.813473 8
    endloop
  endfacet
  facet normal 0.866026 -0.499999 2.22044e-16
    outer loop
      vertex -9.82709 0.813473 0
      vertex -9.61803 1.17557 0
      vertex -9.82709 0.813473 8
    endloop
  endfacet
  facet normal 0.743144 -0.669131 2.97154e-16
    outer loop
      vertex -9.33826 1.48629 0
      vertex -9.33826 1.48629 8
      vertex -9.61803 1.17557 8
    endloop
  endfacet
  facet normal 0.743144 -0.669131 2.97154e-16
    outer loop
      vertex -9.61803 1.17557 0
      vertex -9.33826 1.48629 0
      vertex -9.61803 1.17557 8
    endloop
  endfacet
  facet normal 0.587785 -0.809017 3.59276e-16
    outer loop
      vertex -9 1.73205 0
      vertex -9 1.73205 8
      vertex -9.33826 1.48629 8
    endloop
  endfacet
  facet normal 0.587785 -0.809017 3.59276e-16
    outer loop
      vertex -9.33826 1.48629 0
      vertex -9 1.73205 0
      vertex -9.33826 1.48629 8
    endloop
  endfacet
  facet normal 0.406736 -0.913546 4.05696e-16
    outer loop
      vertex -8.61803 1.90211 0
      vertex -8.61803 1.90211 8
      vertex -9 1.73205 8
    endloop
  endfacet
  facet normal 0.406736 -0.913546 4.05696e-16
    outer loop
      vertex -9 1.73205 0
      vertex -8.61803 1.90211 0
      vertex -9 1.73205 8
    endloop
  endfacet
  facet normal 0.207912 -0.978147 4.34385e-16
    outer loop
      vertex -8.20906 1.98904 0
      vertex -8.20906 1.98904 8
      vertex -8.61803 1.90211 8
    endloop
  endfacet
  facet normal 0.207912 -0.978147 4.34385e-16
    outer loop
      vertex -8.61803 1.90211 0
      vertex -8.20906 1.98904 0
      vertex -8.61803 1.90211 8
    endloop
  endfacet
  facet normal 0 -1 4.44089e-16
    outer loop
      vertex -7.79094 1.98904 0
      vertex -7.79094 1.98904 8
      vertex -8.20906 1.98904 8
    endloop
  endfacet
  facet normal 0 -1 4.44089e-16
    outer loop
      vertex -8.20906 1.98904 0
      vertex -7.79094 1.98904 0
      vertex -8.20906 1.98904 8
    endloop
  endfacet
  facet normal -0.207912 -0.978147 4.34385e-16
    outer loop
      vertex -7.38197 1.90211 0
      vertex -7.38197 1.90211 8
      vertex -7.79094 1.98904 8
    endloop
  endfacet
  facet normal -0.207912 -0.978147 4.34385e-16
    outer loop
      vertex -7.79094 1.98904 0
      vertex -7.38197 1.90211 0
      vertex -7.79094 1.98904 8
    endloop
  endfacet
  facet normal -0.406736 -0.913546 4.05696e-16
    outer loop
      vertex -7 1.73205 0
      vertex -7 1.73205 8
      vertex -7.38197 1.90211 8
    endloop
  endfacet
  facet normal -0.406736 -0.913546 4.05696e-16
    outer loop
      vertex -7.38197 1.90211 0
      vertex -7 1.73205 0
      vertex -7.38197 1.90211 8
    endloop
  endfacet
  facet normal -0.587785 -0.809017 3.59276e-16
    outer loop
      vertex -6.66174 1.48629 0
      vertex -6.66174 1.48629 8
      vertex -7 1.73205 8
    endloop
  endfacet
  facet normal -0.587785 -0.809017 3.59276e-16
    outer loop
      vertex -7 1.73205 0
      vertex -6.66174 1.48629 0
      vertex -7 1.73205 8
    endloop
  endfacet
  facet normal -0.743144 -0.669131 2.97154e-16
    outer loop
      vertex -6.38197 1.17557 8
      vertex -6.66174 1.48629 8
      vertex -6.38197 1.17557 0
    endloop
  endfacet
  facet normal -0.743144 -0.669131 2.97154e-16
    outer loop
      vertex -6.38197 1.17557 0
      vertex -6.66174 1.48629 8
      vertex -6.66174 1.48629 0
    endloop
  endfacet
  facet normal -0.866026 -0.499999 2.22044e-16
    outer loop
      vertex -6.17291 0.813473 8
      vertex -6.38197 1.17557 8
      vertex -6.17291 0.813473 0
    endloop
  endfacet
  facet normal -0.866026 -0.499999 2.22044e-16
    outer loop
      vertex -6.17291 0.813473 0
      vertex -6.38197 1.17557 8
      vertex -6.38197 1.17557 0
    endloop
  endfacet
  facet normal -0.951057 -0.309016 1.37231e-16
    outer loop
      vertex -6.04371 0.415823 8
      vertex -6.17291 0.813473 8
      vertex -6.04371 0.415823 0
    endloop
  endfacet
  facet normal -0.951057 -0.309016 1.37231e-16
    outer loop
      vertex -6.04371 0.415823 0
      vertex -6.17291 0.813473 8
      vertex -6.17291 0.813473 0
    endloop
  endfacet
  facet normal -0.994522 -0.104529 4.64202e-17
    outer loop
      vertex -6 7.77156e-16 8
      vertex -6.04371 0.415823 8
      vertex -6 -2.77556e-15 0
    endloop
  endfacet
  facet normal -0.994522 -0.104529 4.64202e-17
    outer loop
      vertex -6 -2.77556e-15 0
      vertex -6.04371 0.415823 8
      vertex -6.04371 0.415823 0
    endloop
  endfacet
  facet normal -0.994522 0.104529 -4.64202e-17
    outer loop
      vertex -6 7.77156e-16 8
      vertex -6 -2.77556e-15 0
      vertex -6.04371 -0.415823 8
    endloop
  endfacet
  facet normal -0.994522 0.104529 -4.64202e-17
    outer loop
      vertex -6.04371 -0.415823 8
      vertex -6 -2.77556e-15 0
      vertex -6.04371 -0.415823 0
    endloop
  endfacet
  facet normal -0.951057 0.309016 -1.37231e-16
    outer loop
      vertex -6.04371 -0.415823 8
      vertex -6.04371 -0.415823 0
      vertex -6.17291 -0.813473 8
    endloop
  endfacet
  facet normal -0.951057 0.309016 -1.37231e-16
    outer loop
      vertex -6.17291 -0.813473 8
      vertex -6.04371 -0.415823 0
      vertex -6.17291 -0.813473 0
    endloop
  endfacet
  facet normal -0.866026 0.499999 -2.22044e-16
    outer loop
      vertex -6.17291 -0.813473 8
      vertex -6.17291 -0.813473 0
      vertex -6.38197 -1.17557 8
    endloop
  endfacet
  facet normal -0.866026 0.499999 -2.22044e-16
    outer loop
      vertex -6.38197 -1.17557 8
      vertex -6.17291 -0.813473 0
      vertex -6.38197 -1.17557 0
    endloop
  endfacet
  facet normal -0.743144 0.669131 -2.97154e-16
    outer loop
      vertex -6.38197 -1.17557 8
      vertex -6.38197 -1.17557 0
      vertex -6.66174 -1.48629 8
    endloop
  endfacet
  facet normal -0.743144 0.669131 -2.97154e-16
    outer loop
      vertex -6.66174 -1.48629 8
      vertex -6.38197 -1.17557 0
      vertex -6.66174 -1.48629 0
    endloop
  endfacet
  facet normal -0.587785 0.809017 -3.59276e-16
    outer loop
      vertex -6.66174 -1.48629 8
      vertex -6.66174 -1.48629 0
      vertex -7 -1.73205 8
    endloop
  endfacet
  facet normal -0.587785 0.809017 -3.59276e-16
    outer loop
      vertex -7 -1.73205 8
      vertex -6.66174 -1.48629 0
      vertex -7 -1.73205 0
    endloop
  endfacet
  facet normal -0.406736 0.913546 -4.05696e-16
    outer loop
      vertex -7 -1.73205 8
      vertex -7 -1.73205 0
      vertex -7.38197 -1.90211 8
    endloop
  endfacet
  facet normal -0.406736 0.913546 -4.05696e-16
    outer loop
      vertex -7.38197 -1.90211 8
      vertex -7 -1.73205 0
      vertex -7.38197 -1.90211 0
    endloop
  endfacet
  facet normal -0.207912 0.978147 -4.34385e-16
    outer loop
      vertex -7.38197 -1.90211 8
      vertex -7.38197 -1.90211 0
      vertex -7.79094 -1.98904 8
    endloop
  endfacet
  facet normal -0.207912 0.978147 -4.34385e-16
    outer loop
      vertex -7.79094 -1.98904 8
      vertex -7.38197 -1.90211 0
      vertex -7.79094 -1.98904 0
    endloop
  endfacet
  facet normal 0 1 -4.44089e-16
    outer loop
      vertex -7.79094 -1.98904 8
      vertex -7.79094 -1.98904 0
      vertex -8.20906 -1.98904 8
    endloop
  endfacet
  facet normal 0 1 -4.44089e-16
    outer loop
      vertex -8.20906 -1.98904 8
      vertex -7.79094 -1.98904 0
      vertex -8.20906 -1.98904 0
    endloop
  endfacet
  facet normal 0.207912 0.978147 -4.34385e-16
    outer loop
      vertex -8.20906 -1.98904 8
      vertex -8.20906 -1.98904 0
      vertex -8.61803 -1.90211 8
    endloop
  endfacet
  facet normal 0.207912 0.978147 -4.34385e-16
    outer loop
      vertex -8.61803 -1.90211 8
      vertex -8.20906 -1.98904 0
      vertex -8.61803 -1.90211 0
    endloop
  endfacet
  facet normal 0.406736 0.913546 -4.05696e-16
    outer loop
      vertex -8.61803 -1.90211 8
      vertex -8.61803 -1.90211 0
      vertex -9 -1.73205 8
    endloop
  endfacet
  facet normal 0.406736 0.913546 -4.05696e-16
    outer loop
      vertex -9 -1.73205 8
      vertex -8.61803 -1.90211 0
      vertex -9 -1.73205 0
    endloop
  endfacet
  facet normal 0.587785 0.809017 -3.59276e-16
    outer loop
      vertex -9 -1.73205 8
      vertex -9 -1.73205 0
      vertex -9.33826 -1.48629 8
    endloop
  endfacet
  facet normal 0.587785 0.809017 -3.59276e-16
    outer loop
      vertex -9.33826 -1.48629 8
      vertex -9 -1.73205 0
      vertex -9.33826 -1.48629 0
    endloop
  endfacet
  facet normal 0.743144 0.669131 -2.97154e-16
    outer loop
      vertex -9.61803 -1.17557 8
      vertex -9.33826 -1.48629 8
      vertex -9.33826 -1.48629 0
    endloop
  endfacet
  facet normal 0.743144 0.669131 -2.97154e-16
    outer loop
      vertex -9.61803 -1.17557 0
      vertex -9.61803 -1.17557 8
      vertex -9.33826 -1.48629 0
    endloop
  endfacet
  facet normal 0.866026 0.499999 -2.22044e-16
    outer loop
      vertex -9.82709 -0.813473 8
      vertex -9.61803 -1.17557 8
      vertex -9.61803 -1.17557 0
    endloop
  endfacet
  facet normal 0.866026 0.499999 -2.22044e-16
    outer loop
      vertex -9.82709 -0.813473 0
      vertex -9.82709 -0.813473 8
      vertex -9.61803 -1.17557 0
    endloop
  endfacet
  facet normal 0.951057 0.309016 -1.37231e-16
    outer loop
      vertex -9.95629 -0.415823 8
      vertex -9.82709 -0.813473 8
      vertex -9.82709 -0.813473 0
    endloop
  endfacet
  facet normal 0.951057 0.309016 -1.37231e-16
    outer loop
      vertex -9.95629 -0.415823 0
      vertex -9.95629 -0.415823 8
      vertex -9.82709 -0.813473 0
    endloop
  endfacet
  facet normal 0.994522 0.104529 -4.64202e-17
    outer loop
      vertex 6 7.77156e-16 8
      vertex 6.04371 -0.415823 8
      vertex 6.04371 -0.415823 0
    endloop
  endfacet
  facet normal 0.994522 0.104529 -4.64202e-17
    outer loop
      vertex 6 -2.77556e-15 0
      vertex 6 7.77156e-16 8
      vertex 6.04371 -0.415823 0
    endloop
  endfacet
  facet normal 0.994522 -0.104529 4.64202e-17
    outer loop
      vertex 6.04371 0.415823 0
      vertex 6.04371 0.415823 8
      vertex 6 7.77156e-16 8
    endloop
  endfacet
  facet normal 0.994522 -0.104529 4.64202e-17
    outer loop
      vertex 6 -2.77556e-15 0
      vertex 6.04371 0.415823 0
      vertex 6 7.77156e-16 8
    endloop
  endfacet
  facet normal 0.951057 -0.309016 1.37231e-16
    outer loop
      vertex 6.17291 0.813473 0
      vertex 6.17291 0.813473 8
      vertex 6.04371 0.415823 8
    endloop
  endfacet
  facet normal 0.951057 -0.309016 1.37231e-16
    outer loop
      vertex 6.04371 0.415823 0
      vertex 6.17291 0.813473 0
      vertex 6.04371 0.415823 8
    endloop
  endfacet
  facet normal 0.866026 -0.499999 2.22044e-16
    outer loop
      vertex 6.38197 1.17557 0
      vertex 6.38197 1.17557 8
      vertex 6.17291 0.813473 8
    endloop
  endfacet
  facet normal 0.866026 -0.499999 2.22044e-16
    outer loop
      vertex 6.17291 0.813473 0
      vertex 6.38197 1.17557 0
      vertex 6.17291 0.813473 8
    endloop
  endfacet
  facet normal 0.743144 -0.669131 2.97154e-16
    outer loop
      vertex 6.66174 1.48629 0
      vertex 6.66174 1.48629 8
      vertex 6.38197 1.17557 8
    endloop
  endfacet
  facet normal 0.743144 -0.669131 2.97154e-16
    outer loop
      vertex 6.38197 1.17557 0
      vertex 6.66174 1.48629 0
      vertex 6.38197 1.17557 8
    endloop
  endfacet
  facet normal 0.587785 -0.809017 3.59276e-16
    outer loop
      vertex 7 1.73205 0
      vertex 7 1.73205 8
      vertex 6.66174 1.48629 8
    endloop
  endfacet
  facet normal 0.587785 -0.809017 3.59276e-16
    outer loop
      vertex 6.66174 1.48629 0
      vertex 7 1.73205 0
      vertex 6.66174 1.48629 8
    endloop
  endfacet
  facet normal 0.406736 -0.913546 4.05696e-16
    outer loop
      vertex 7.38197 1.90211 0
      vertex 7.38197 1.90211 8
      vertex 7 1.73205 8
    endloop
  endfacet
  facet normal 0.406736 -0.913546 4.05696e-16
    outer loop
      vertex 7 1.73205 0
      vertex 7.38197 1.90211 0
      vertex 7 1.73205 8
    endloop
  endfacet
  facet normal 0.207912 -0.978147 4.34385e-16
    outer loop
      vertex 7.79094 1.98904 0
      vertex 7.79094 1.98904 8
      vertex 7.38197 1.90211 8
    endloop
  endfacet
  facet normal 0.207912 -0.978147 4.34385e-16
    outer loop
      vertex 7.38197 1.90211 0
      vertex 7.79094 1.98904 0
      vertex 7.38197 1.90211 8
    endloop
  endfacet
  facet normal 0 -1 4.44089e-16
    outer loop
      vertex 8.20906 1.98904 0
      vertex 8.20906 1.98904 8
      vertex 7.79094 1.98904 8
    endloop
  endfacet
  facet normal 0 -1 4.44089e-16
    outer loop
      vertex 7.79094 1.98904 0
      vertex 8.20906 1.98904 0
      vertex 7.79094 1.98904 8
    endloop
  endfacet
  facet normal -0.207912 -0.978147 4.34385e-16
    outer loop
      vertex 8.61803 1.90211 0
      vertex 8.61803 1.90211 8
      vertex 8.20906 1.98904 8
    endloop
  endfacet
  facet normal -0.207912 -0.978147 4.34385e-16
    outer loop
      vertex 8.20906 1.98904 0
      vertex 8.61803 1.90211 0
      vertex 8.20906 1.98904 8
    endloop
  endfacet
  facet normal -0.406736 -0.913546 4.05696e-16
    outer loop
      vertex 9 1.73205 0
      vertex 9 1.73205 8
      vertex 8.61803 1.90211 8
    endloop
  endfacet
  facet normal -0.406736 -0.913546 4.05696e-16
    outer loop
      vertex 8.61803 1.90211 0
      vertex 9 1.73205 0
      vertex 8.61803 1.90211 8
    endloop
  endfacet
  facet normal -0.587785 -0.809017 3.59276e-16
    outer loop
      vertex 9.33826 1.48629 0
      vertex 9.33826 1.48629 8
      vertex 9 1.73205 8
    endloop
  endfacet
  facet normal -0.587785 -0.809017 3.59276e-16
    outer loop
      vertex 9 1.73205 0
      vertex 9.33826 1.48629 0
      vertex 9 1.73205 8
    endloop
  endfacet
  facet normal -0.743144 -0.669131 2.97154e-16
    outer loop
      vertex 9.61803 1.17557 8
      vertex 9.33826 1.48629 8
      vertex 9.61803 1.17557 0
    endloop
  endfacet
  facet normal -0.743144 -0.669131 2.97154e-16
    outer loop
      vertex 9.61803 1.17557 0
      vertex 9.33826 1.48629 8
      vertex 9.33826 1.48629 0
    endloop
  endfacet
  facet normal -0.866026 -0.499999 2.22044e-16
    outer loop
      vertex 9.82709 0.813473 8
      vertex 9.61803 1.17557 8
      vertex 9.82709 0.813473 0
    endloop
  endfacet
  facet normal -0.866026 -0.499999 2.22044e-16
    outer loop
      vertex 9.82709 0.813473 0
      vertex 9.61803 1.17557 8
      vertex 9.61803 1.17557 0
    endloop
  endfacet
  facet normal -0.951057 -0.309016 1.37231e-16
    outer loop
      vertex 9.95629 0.415823 8
      vertex 9.82709 0.813473 8
      vertex 9.95629 0.415823 0
    endloop
  endfacet
  facet normal -0.951057 -0.309016 1.37231e-16
    outer loop
      vertex 9.95629 0.415823 0
      vertex 9.82709 0.813473 8
      vertex 9.82709 0.813473 0
    endloop
  endfacet
  facet normal -0.994522 -0.104529 4.64202e-17
    outer loop
      vertex 10 7.77156e-16 8
      vertex 9.95629 0.415823 8
      vertex 10 -2.77556e-15 0
    endloop
  endfacet
  facet normal -0.994522 -0.104529 4.64202e-17
    outer loop
      vertex 10 -2.77556e-15 0
      vertex 9.95629 0.415823 8
      vertex 9.95629 0.415823 0
    endloop
  endfacet
  facet normal -0.994522 0.104529 -4.64202e-17
    outer loop
      vertex 10 7.77156e-16 8
      vertex 10 -2.77556e-15 0
      vertex 9.95629 -0.415823 8
    endloop
  endfacet
  facet normal -0.994522 0.104529 -4.64202e-17
    outer loop
      vertex 9.95629 -0.415823 8
      vertex 10 -2.77556e-15 0
      vertex 9.95629 -0.415823 0
    endloop
  endfacet
  facet normal -0.951057 0.309016 -1.37231e-16
    outer loop
      vertex 9.95629 -0.415823 8
      vertex 9.95629 -0.415823 0
      vertex 9.82709 -0.813473 8
    endloop
  endfacet
  facet normal -0.951057 0.309016 -1.37231e-16
    outer loop
      vertex 9.82709 -0.813473 8
      vertex 9.95629 -0.415823 0
      vertex 9.82709 -0.813473 0
    endloop
  endfacet
  facet normal -0.866026 0.499999 -2.22044e-16
    outer loop
      vertex 9.82709 -0.813473 8
      vertex 9.82709 -0.813473 0
      vertex 9.61803 -1.17557 8
    endloop
  endfacet
  facet normal -0.866026 0.499999 -2.22044e-16
    outer loop
      vertex 9.61803 -1.17557 8
      vertex 9.82709 -0.813473 0
      vertex 9.61803 -1.17557 0
    endloop
  endfacet
  facet normal -0.743144 0.669131 -2.97154e-16
    outer loop
      vertex 9.61803 -1.17557 8
      vertex 9.61803 -1.17557 0
      vertex 9.33826 -1.48629 8
    endloop
  endfacet
  facet normal -0.743144 0.669131 -2.97154e-16
    outer loop
      vertex 9.33826 -1.48629 8
      vertex 9.61803 -1.17557 0
      vertex 9.33826 -1.48629 0
    endloop
  endfacet
  facet normal -0.587785 0.809017 -3.59276e-16
    outer loop
      vertex 9.33826 -1.48629 8
      vertex 9.33826 -1.48629 0
      vertex 9 -1.73205 8
    endloop
  endfacet
  facet normal -0.587785 0.809017 -3.59276e-16
    outer loop
      vertex 9 -1.73205 8
      vertex 9.33826 -1.48629 0
      vertex 9 -1.73205 0
    endloop
  endfacet
  facet normal -0.406736 0.913546 -4.05696e-16
    outer loop
      vertex 9 -1.73205 8
      vertex 9 -1.73205 0
      vertex 8.61803 -1.90211 8
    endloop
  endfacet
  facet normal -0.406736 0.913546 -4.05696e-16
    outer loop
      vertex 8.61803 -1.90211 8
      vertex 9 -1.73205 0
      vertex 8.61803 -1.90211 0
    endloop
  endfacet
  facet normal -0.207912 0.978147 -4.34385e-16
    outer loop
      vertex 8.61803 -1.90211 8
      vertex 8.61803 -1.90211 0
      vertex 8.20906 -1.98904 8
    endloop
  endfacet
  facet normal -0.207912 0.978147 -4.34385e-16
    outer loop
      vertex 8.20906 -1.98904 8
      vertex 8.61803 -1.90211 0
      vertex 8.20906 -1.98904 0
    endloop
  endfacet
  facet normal 0 1 -4.44089e-16
    outer loop
      vertex 8.20906 -1.98904 8
      vertex 8.20906 -1.98904 0
      vertex 7.79094 -1.98904 8
    endloop
  endfacet
  facet normal 0 1 -4.44089e-16
    outer loop
      vertex 7.79094 -1.98904 8
      vertex 8.20906 -1.98904 0
      vertex 7.79094 -1.98904 0
    endloop
  endfacet
  facet normal 0.207912 0.978147 -4.34385e-16
    outer loop
      vertex 7.79094 -1.98904 8
      vertex 7.79094 -1.98904 0
      vertex 7.38197 -1.90211 8
    endloop
  endfacet
  facet normal 0.207912 0.978147 -4.34385e-16
    outer loop
      vertex 7.38197 -1.90211 8
      vertex 7.79094 -1.98904 0
      vertex 7.38197 -1.90211 0
    endloop
  endfacet
  facet normal 0.406736 0.913546 -4.05696e-16
    outer loop
      vertex 7.38197 -1.90211 8
      vertex 7.38197 -1.90211 0
      vertex 7 -1.73205 8
    endloop
  endfacet
  facet normal 0.406736 0.913546 -4.05696e-16
    outer loop
      vertex 7 -1.73205 8
      vertex 7.38197 -1.90211 0
      vertex 7 -1.73205 0
    endloop
  endfacet
  facet normal 0.587785 0.809017 -3.59276e-16
    outer loop
      vertex 7 -1.73205 8
      vertex 7 -1.73205 0
      vertex 6.66174 -1.48629 8
    endloop
  endfacet
  facet normal 0.587785 0.809017 -3.59276e-16
    outer loop
      vertex 6.66174 -1.48629 8
      vertex 7 -1.73205 0
      vertex 6.66174 -1.48629 0
    endloop
  endfacet
  facet normal 0.743144 0.669131 -2.97154e-16
    outer loop
      vertex 6.38197 -1.17557 8
      vertex 6.66174 -1.48629 8
      vertex 6.66174 -1.48629 0
    endloop
  endfacet
  facet normal 0.743144 0.669131 -2.97154e-16
    outer loop
      vertex 6.38197 -1.17557 0
      vertex 6.38197 -1.17557 8
      vertex 6.66174 -1.48629 0
    endloop
  endfacet
  facet normal 0.866026 0.499999 -2.22044e-16
    outer loop
      vertex 6.17291 -0.813473 8
      vertex 6.38197 -1.17557 8
      vertex 6.38197 -1.17557 0
    endloop
  endfacet
  facet normal 0.866026 0.499999 -2.22044e-16
    outer loop
      vertex 6.17291 -0.813473 0
      vertex 6.17291 -0.813473 8
      vertex 6.38197 -1.17557 0
    endloop
  endfacet
  facet normal 0.951057 0.309016 -1.37231e-16
    outer loop
      vertex 6.04371 -0.415823 8
      vertex 6.17291 -0.813473 8
      vertex 6.17291 -0.813473 0
    endloop
  endfacet
  facet normal 0.951057 0.309016 -1.37231e-16
    outer loop
      vertex 6.04371 -0.415823 0
      vertex 6.04371 -0.415823 8
      vertex 6.17291 -0.813473 0
    endloop
  endfacet
  facet normal 0.996917 1.74215e-17 0.0784594
    outer loop
      vertex -4.06065 -4 8
      vertex -4.04952 -4 7.85862
      vertex -4.04952 4 7.85862
    endloop
  endfacet
  facet normal 0.996917 1.74215e-17 0.0784594
    outer loop
      vertex -4.06065 4 8
      vertex -4.06065 -4 8
      vertex -4.04952 4 7.85862
    endloop
  endfacet
  facet normal 0.97237 5.18351e-17 0.233444
    outer loop
      vertex -3.89933 -4 7.23303
      vertex -3.89933 4 7.23303
      vertex -4.04952 4 7.85862
    endloop
  endfacet
  facet normal 0.97237 5.18351e-17 0.233444
    outer loop
      vertex -4.04952 -4 7.85862
      vertex -3.89933 -4 7.23303
      vertex -4.04952 4 7.85862
    endloop
  endfacet
  facet normal 0.923879 8.49728e-17 0.382684
    outer loop
      vertex -3.65313 -4 6.63864
      vertex -3.65313 4 6.63864
      vertex -3.89933 4 7.23303
    endloop
  endfacet
  facet normal 0.923879 8.49728e-17 0.382684
    outer loop
      vertex -3.89933 -4 7.23303
      vertex -3.65313 -4 6.63864
      vertex -3.89933 4 7.23303
    endloop
  endfacet
  facet normal 0.85264 1.16018e-16 0.522498
    outer loop
      vertex -3.31697 -4 6.09008
      vertex -3.31697 4 6.09008
      vertex -3.65313 4 6.63864
    endloop
  endfacet
  facet normal 0.85264 1.16018e-16 0.522498
    outer loop
      vertex -3.65313 -4 6.63864
      vertex -3.31697 -4 6.09008
      vertex -3.65313 4 6.63864
    endloop
  endfacet
  facet normal 0.760406 1.44207e-16 0.649448
    outer loop
      vertex -2.89914 -4 5.60086
      vertex -2.89914 4 5.60086
      vertex -3.31697 4 6.09008
    endloop
  endfacet
  facet normal 0.760406 1.44207e-16 0.649448
    outer loop
      vertex -3.31697 -4 6.09008
      vertex -2.89914 -4 5.60086
      vertex -3.31697 4 6.09008
    endloop
  endfacet
  facet normal 0.649448 1.68844e-16 0.760406
    outer loop
      vertex -2.40992 -4 5.18303
      vertex -2.40992 4 5.18303
      vertex -2.89914 4 5.60086
    endloop
  endfacet
  facet normal 0.649448 1.68844e-16 0.760406
    outer loop
      vertex -2.89914 -4 5.60086
      vertex -2.40992 -4 5.18303
      vertex -2.89914 4 5.60086
    endloop
  endfacet
  facet normal 0.522498 1.89324e-16 0.85264
    outer loop
      vertex -1.86136 -4 4.84687
      vertex -1.86136 4 4.84687
      vertex -2.40992 4 5.18303
    endloop
  endfacet
  facet normal 0.522498 1.89324e-16 0.85264
    outer loop
      vertex -2.40992 -4 5.18303
      vertex -1.86136 -4 4.84687
      vertex -2.40992 4 5.18303
    endloop
  endfacet
  facet normal 0.382684 2.05142e-16 0.923879
    outer loop
      vertex -1.26697 -4 4.60067
      vertex -1.26697 4 4.60067
      vertex -1.86136 4 4.84687
    endloop
  endfacet
  facet normal 0.382684 2.05142e-16 0.923879
    outer loop
      vertex -1.86136 -4 4.84687
      vertex -1.26697 -4 4.60067
      vertex -1.86136 4 4.84687
    endloop
  endfacet
  facet normal 0.233444 2.1591e-16 0.97237
    outer loop
      vertex -0.641381 -4 4.45048
      vertex -0.641381 4 4.45048
      vertex -1.26697 4 4.60067
    endloop
  endfacet
  facet normal 0.233444 2.1591e-16 0.97237
    outer loop
      vertex -1.26697 -4 4.60067
      vertex -0.641381 -4 4.45048
      vertex -1.26697 4 4.60067
    endloop
  endfacet
  facet normal 0.0784594 2.2136e-16 0.996917
    outer loop
      vertex 0 -4 4.4
      vertex 0 4 4.4
      vertex -0.641381 4 4.45048
    endloop
  endfacet
  facet normal 0.0784594 2.2136e-16 0.996917
    outer loop
      vertex -0.641381 -4 4.45048
      vertex 0 -4 4.4
      vertex -0.641381 4 4.45048
    endloop
  endfacet
  facet normal -0.0784594 2.2136e-16 0.996917
    outer loop
      vertex 0.641381 -4 4.45048
      vertex 0.641381 4 4.45048
      vertex 0 4 4.4
    endloop
  endfacet
  facet normal -0.0784594 2.2136e-16 0.996917
    outer loop
      vertex 0 -4 4.4
      vertex 0.641381 -4 4.45048
      vertex 0 4 4.4
    endloop
  endfacet
  facet normal -0.233444 2.1591e-16 0.97237
    outer loop
      vertex 1.26697 -4 4.60067
      vertex 1.26697 4 4.60067
      vertex 0.641381 4 4.45048
    endloop
  endfacet
  facet normal -0.233444 2.1591e-16 0.97237
    outer loop
      vertex 0.641381 -4 4.45048
      vertex 1.26697 -4 4.60067
      vertex 0.641381 4 4.45048
    endloop
  endfacet
  facet normal -0.382684 2.05142e-16 0.923879
    outer loop
      vertex 1.86136 -4 4.84687
      vertex 1.86136 4 4.84687
      vertex 1.26697 4 4.60067
    endloop
  endfacet
  facet normal -0.382684 2.05142e-16 0.923879
    outer loop
      vertex 1.26697 -4 4.60067
      vertex 1.86136 -4 4.84687
      vertex 1.26697 4 4.60067
    endloop
  endfacet
  facet normal -0.522498 1.89324e-16 0.85264
    outer loop
      vertex 2.40992 -4 5.18303
      vertex 2.40992 4 5.18303
      vertex 1.86136 4 4.84687
    endloop
  endfacet
  facet normal -0.522498 1.89324e-16 0.85264
    outer loop
      vertex 1.86136 -4 4.84687
      vertex 2.40992 -4 5.18303
      vertex 1.86136 4 4.84687
    endloop
  endfacet
  facet normal -0.649448 1.68844e-16 0.760406
    outer loop
      vertex 2.89914 -4 5.60086
      vertex 2.89914 4 5.60086
      vertex 2.40992 4 5.18303
    endloop
  endfacet
  facet normal -0.649448 1.68844e-16 0.760406
    outer loop
      vertex 2.40992 -4 5.18303
      vertex 2.89914 -4 5.60086
      vertex 2.40992 4 5.18303
    endloop
  endfacet
  facet normal -0.760406 1.44207e-16 0.649448
    outer loop
      vertex 3.31697 4 6.09008
      vertex 2.89914 4 5.60086
      vertex 3.31697 -4 6.09008
    endloop
  endfacet
  facet normal -0.760406 1.44207e-16 0.649448
    outer loop
      vertex 3.31697 -4 6.09008
      vertex 2.89914 4 5.60086
      vertex 2.89914 -4 5.60086
    endloop
  endfacet
  facet normal -0.85264 1.16018e-16 0.522498
    outer loop
      vertex 3.65313 4 6.63864
      vertex 3.31697 4 6.09008
      vertex 3.65313 -4 6.63864
    endloop
  endfacet
  facet normal -0.85264 1.16018e-16 0.522498
    outer loop
      vertex 3.65313 -4 6.63864
      vertex 3.31697 4 6.09008
      vertex 3.31697 -4 6.09008
    endloop
  endfacet
  facet normal -0.923879 8.49728e-17 0.382684
    outer loop
      vertex 3.89933 4 7.23303
      vertex 3.65313 4 6.63864
      vertex 3.89933 -4 7.23303
    endloop
  endfacet
  facet normal -0.923879 8.49728e-17 0.382684
    outer loop
      vertex 3.89933 -4 7.23303
      vertex 3.65313 4 6.63864
      vertex 3.65313 -4 6.63864
    endloop
  endfacet
  facet normal -0.97237 5.18351e-17 0.233444
    outer loop
      vertex 4.04952 4 7.85862
      vertex 3.89933 4 7.23303
      vertex 4.04952 -4 7.85862
    endloop
  endfacet
  facet normal -0.97237 5.18351e-17 0.233444
    outer loop
      vertex 4.04952 -4 7.85862
      vertex 3.89933 4 7.23303
      vertex 3.89933 -4 7.23303
    endloop
  endfacet
  facet normal -0.996917 1.74215e-17 0.0784594
    outer loop
      vertex 4.06065 4 8
      vertex 4.04952 4 7.85862
      vertex 4.06065 -4 8
    endloop
  endfacet
  facet normal -0.996917 1.74215e-17 0.0784594
    outer loop
      vertex 4.06065 -4 8
      vertex 4.04952 4 7.85862
      vertex 4.04952 -4 7.85862
    endloop
  endfacet
  facet normal 0 0 1
    outer loop
      vertex 7.38197 -1.90211 8
      vertex 4.06065 -4 8
      vertex 10 -4 8
    endloop
  endfacet
  facet normal 0 0 1
    outer loop
      vertex 9 -1.73205 8
      vertex 10.5635 -3.91899 8
      vertex 10.8308 -3.81926 8
    endloop
  endfacet
  facet normal 0 0 1
    outer loop
      vertex 9.33826 -1.48629 8
      vertex 10.8308 -3.81926 8
      vertex 11.0813 -3.68251 8
    endloop
  endfacet
  facet normal 0 0 1
    outer loop
      vertex 9.61803 -1.17557 8
      vertex 11.5115 -3.30972 8
      vertex 11.6825 -3.08128 8
    endloop
  endfacet
  facet normal 0 0 1
    outer loop
      vertex 9.82709 -0.813473 8
      vertex 11.8193 -2.83083 8
      vertex 11.919 -2.56346 8
    endloop
  endfacet
  facet normal 0 0 1
    outer loop
      vertex 9.61803 -1.17557 8
      vertex 9.33826 -1.48629 8
      vertex 11.3097 -3.5115 8
    endloop
  endfacet
  facet normal 0 0 1
    outer loop
      vertex 7 1.73205 8
      vertex 7.38197 1.90211 8
      vertex 4.06065 4 8
    endloop
  endfacet
  facet normal 0 0 1
    outer loop
      vertex 9.82709 -0.813473 8
      vertex 9.61803 -1.17557 8
      vertex 11.6825 -3.08128 8
    endloop
  endfacet
  facet normal 0 0 1
    outer loop
      vertex 8.20906 1.98904 8
      vertex 8.61803 1.90211 8
      vertex 12 2 8
    endloop
  endfacet
  facet normal 0 0 1
    outer loop
      vertex 11.9796 2.28463 8
      vertex 4.06065 4 8
      vertex 12 2 8
    endloop
  endfacet
  facet normal 0 0 1
    outer loop
      vertex 11.919 2.56346 8
      vertex 4.06065 4 8
      vertex 11.9796 2.28463 8
    endloop
  endfacet
  facet normal 0 0 1
    outer loop
      vertex 11.8193 2.83083 8
      vertex 4.06065 4 8
      vertex 11.919 2.56346 8
    endloop
  endfacet
  facet normal 0 0 1
    outer loop
      vertex 11.6825 3.08128 8
      vertex 4.06065 4 8
      vertex 11.8193 2.83083 8
    endloop
  endfacet
  facet normal 0 0 1
    outer loop
      vertex 11.5115 3.30972 8
      vertex 4.06065 4 8
      vertex 11.6825 3.08128 8
    endloop
  endfacet
  facet normal 0 0 1
    outer loop
      vertex 11.3097 3.5115 8
      vertex 4.06065 4 8
      vertex 11.5115 3.30972 8
    endloop
  endfacet
  facet normal 0 0 1
    outer loop
      vertex 11.0813 3.68251 8
      vertex 4.06065 4 8
      vertex 11.3097 3.5115 8
    endloop
  endfacet
  facet normal 0 0 1
    outer loop
      vertex 10.8308 3.81926 8
      vertex 4.06065 4 8
      vertex 11.0813 3.68251 8
    endloop
  endfacet
  facet normal 0 0 1
    outer loop
      vertex 10.5635 3.91899 8
      vertex 4.06065 4 8
      vertex 10.8308 3.81926 8
    endloop
  endfacet
  facet normal 0 0 1
    outer loop
      vertex 10.2846 3.97964 8
      vertex 4.06065 4 8
      vertex 10.5635 3.91899 8
    endloop
  endfacet
  facet normal 0 0 1
    outer loop
      vertex 10 4 8
      vertex 4.06065 4 8
      vertex 10.2846 3.97964 8
    endloop
  endfacet
  facet normal 0 0 1
    outer loop
      vertex 4.06065 4 8
      vertex 4.06065 -4 8
      vertex 6.04371 -0.415823 8
    endloop
  endfacet
  facet normal 0 0 1
    outer loop
      vertex 7.79094 -1.98904 8
      vertex 7.38197 -1.90211 8
      vertex 10 -4 8
    endloop
  endfacet
  facet normal 0 0 1
    outer loop
      vertex 4.06065 4 8
      vertex 6.04371 -0.415823 8
      vertex 6 7.77156e-16 8
    endloop
  endfacet
  facet normal 0 0 1
    outer loop
      vertex 4.06065 4 8
      vertex 6 7.77156e-16 8
      vertex 6.04371 0.415823 8
    endloop
  endfacet
  facet normal 0 0 1
    outer loop
      vertex 4.06065 4 8
      vertex 6.04371 0.415823 8
      vertex 6.17291 0.813473 8
    endloop
  endfacet
  facet normal 0 0 1
    outer loop
      vertex 8.61803 -1.90211 8
      vertex 8.20906 -1.98904 8
      vertex 10 -4 8
    endloop
  endfacet
  facet normal 0 0 1
    outer loop
      vertex 6.66174 1.48629 8
      vertex 7 1.73205 8
      vertex 4.06065 4 8
    endloop
  endfacet
  facet normal 0 0 1
    outer loop
      vertex 9.33826 -1.48629 8
      vertex 9 -1.73205 8
      vertex 10.8308 -3.81926 8
    endloop
  endfacet
  facet normal 0 0 1
    outer loop
      vertex 9.82709 -0.813473 8
      vertex 11.6825 -3.08128 8
      vertex 11.8193 -2.83083 8
    endloop
  endfacet
  facet normal 0 0 1
    outer loop
      vertex 9.95629 -0.415823 8
      vertex 9.82709 -0.813473 8
      vertex 11.9796 -2.28463 8
    endloop
  endfacet
  facet normal 0 0 1
    outer loop
      vertex 9.95629 -0.415823 8
      vertex 11.9796 -2.28463 8
      vertex 12 -2 8
    endloop
  endfacet
  facet normal 0 0 1
    outer loop
      vertex 7.79094 1.98904 8
      vertex 4.06065 4 8
      vertex 7.38197 1.90211 8
    endloop
  endfacet
  facet normal 0 0 1
    outer loop
      vertex 12 2 8
      vertex 4.06065 4 8
      vertex 7.79094 1.98904 8
    endloop
  endfacet
  facet normal 0 0 1
    outer loop
      vertex 9.61803 1.17557 8
      vertex 9.82709 0.813473 8
      vertex 12 -2 8
    endloop
  endfacet
  facet normal 0 0 1
    outer loop
      vertex 12 2 8
      vertex 7.79094 1.98904 8
      vertex 8.20906 1.98904 8
    endloop
  endfacet
  facet normal 0 0 1
    outer loop
      vertex 10 7.77156e-16 8
      vertex 9.95629 -0.415823 8
      vertex 12 -2 8
    endloop
  endfacet
  facet normal 0 0 1
    outer loop
      vertex 9.95629 0.415823 8
      vertex 10 7.77156e-16 8
      vertex 12 -2 8
    endloop
  endfacet
  facet normal 0 0 1
    outer loop
      vertex 12 2 8
      vertex 8.61803 1.90211 8
      vertex 9 1.73205 8
    endloop
  endfacet
  facet normal 0 0 1
    outer loop
      vertex 9.82709 0.813473 8
      vertex 9.95629 0.415823 8
      vertex 12 -2 8
    endloop
  endfacet
  facet normal 0 0 1
    outer loop
      vertex 12 2 8
      vertex 9 1.73205 8
      vertex 9.33826 1.48629 8
    endloop
  endfacet
  facet normal 0 0 1
    outer loop
      vertex 12 2 8
      vertex 9.61803 1.17557 8
      vertex 12 -2 8
    endloop
  endfacet
  facet normal 0 0 1
    outer loop
      vertex 12 2 8
      vertex 9.33826 1.48629 8
      vertex 9.61803 1.17557 8
    endloop
  endfacet
  facet normal 0 0 1
    outer loop
      vertex 11.9796 -2.28463 8
      vertex 9.82709 -0.813473 8
      vertex 11.919 -2.56346 8
    endloop
  endfacet
  facet normal 0 0 1
    outer loop
      vertex 9 -1.73205 8
      vertex 8.61803 -1.90211 8
      vertex 10.2846 -3.97964 8
    endloop
  endfacet
  facet normal 0 0 1
    outer loop
      vertex 11.3097 -3.5115 8
      vertex 9.33826 -1.48629 8
      vertex 11.0813 -3.68251 8
    endloop
  endfacet
  facet normal 0 0 1
    outer loop
      vertex 9.61803 -1.17557 8
      vertex 11.3097 -3.5115 8
      vertex 11.5115 -3.30972 8
    endloop
  endfacet
  facet normal 0 0 1
    outer loop
      vertex 10.2846 -3.97964 8
      vertex 8.61803 -1.90211 8
      vertex 10 -4 8
    endloop
  endfacet
  facet normal 0 0 1
    outer loop
      vertex 9 -1.73205 8
      vertex 10.2846 -3.97964 8
      vertex 10.5635 -3.91899 8
    endloop
  endfacet
  facet normal 0 0 1
    outer loop
      vertex 7 -1.73205 8
      vertex 4.06065 -4 8
      vertex 7.38197 -1.90211 8
    endloop
  endfacet
  facet normal 0 0 1
    outer loop
      vertex 6.66174 -1.48629 8
      vertex 4.06065 -4 8
      vertex 7 -1.73205 8
    endloop
  endfacet
  facet normal 0 0 1
    outer loop
      vertex 6.38197 -1.17557 8
      vertex 4.06065 -4 8
      vertex 6.66174 -1.48629 8
    endloop
  endfacet
  facet normal 0 0 1
    outer loop
      vertex 6.17291 -0.813473 8
      vertex 4.06065 -4 8
      vertex 6.38197 -1.17557 8
    endloop
  endfacet
  facet normal 0 0 1
    outer loop
      vertex 6.04371 -0.415823 8
      vertex 4.06065 -4 8
      vertex 6.17291 -0.813473 8
    endloop
  endfacet
  facet normal 0 0 1
    outer loop
      vertex 8.20906 -1.98904 8
      vertex 7.79094 -1.98904 8
      vertex 10 -4 8
    endloop
  endfacet
  facet normal 0 0 1
    outer loop
      vertex 6.17291 0.813473 8
      vertex 6.38197 1.17557 8
      vertex 4.06065 4 8
    endloop
  endfacet
  facet normal 0 0 1
    outer loop
      vertex 6.38197 1.17557 8
      vertex 6.66174 1.48629 8
      vertex 4.06065 4 8
    endloop
  endfacet
endsolid OpenSCAD_Model
