  0
SECTION
  2
HEADER
  9
$ACADVER
  1
AC1009
  9
$INSBASE
 10
0.0
 20
0.0
 30
0.0
  9
$EXTMIN
 10
0.0
 20
0.0
 30
0.0
  9
$EXTMAX
 10
0.0
 20
0.0
 30
0.0
  0
ENDSEC
  0
SECTION
  2
TABLES
  0
TABLE
  2
VPORT
 70
0
  0
ENDTAB
  0
TABLE
  2
LTYPE
 70
1
  0
LTYPE
  2
CONTINUOUS
 70
0
  3
Solid line
 72
65
 73
0
 40
0.0
  0
ENDTAB
  0
TABLE
  2
LAYER
 70
1
  0
LAYER
  2
0
 70
64
 62
7
  6
continuous
  0
ENDTAB
  0
TABLE
  2
STYLE
 70
1
  0
STYLE
  2
STANDARD
 70
0
 40
0
 41
1.0
 50
0.0
 71
0
 42
1
 3
ARIAL.TTF
 4

  0
ENDTAB
  0
TABLE
  2
VIEW
 70
0
  0
ENDTAB
  0
ENDSEC
  0
SECTION
  2
BLOCKS
  0
BLOCK
  8
0
  2
SKETCH
 70
0
 10
0.0
 20
0.0
 30
0.0
  3
SKETCH
  0
POLYLINE
  8
0
 62
0
 70
1
 66
1
 10
0.0
 20
0.0
 30
0.0
  0
VERTEX
  8
0
 10
20.0
 20
24.4999884925
 30
0.0
  0
VERTEX
  8
0
 10
20.0
 20
233.999988493
 30
0.0
 42
-0.41421339385
  0
VERTEX
  8
0
 10
40.0
 20
253.999976985
 30
0.0
  0
VERTEX
  8
0
 10
260.0
 20
253.999976985
 30
0.0
 42
-0.41421339385
  0
VERTEX
  8
0
 10
280.0
 20
233.999988493
 30
0.0
  0
VERTEX
  8
0
 10
280.0
 20
24.4999884925
 30
0.0
 42
-0.414296212328
  0
VERTEX
  8
0
 10
259.994344966
 20
4.50000079949
 30
0.0
  0
VERTEX
  8
0
 10
39.9943449655
 20
4.50000079949
 30
0.0
 42
-0.414130580221
  0
SEQEND
  8
0
  0
CIRCLE
  8
0
 62
0
 10
255.5
 20
152.999976985
 30
0.0
 40
1.5
  0
CIRCLE
  8
0
 62
0
 10
173.0
 20
196.874976985
 30
0.0
 40
1.5
  0
CIRCLE
  8
0
 62
0
 10
45.5
 20
202.749976985
 30
0.0
 40
1.5
  0
CIRCLE
  8
0
 62
0
 10
45.5
 20
152.999976985
 30
0.0
 40
1.5
  0
CIRCLE
  8
0
 62
0
 10
81.5443449655
 20
48.0750007995
 30
0.0
 40
1.5
  0
CIRCLE
  8
0
 62
0
 10
274.0
 20
137.199976985
 30
0.0
 40
1.5
  0
CIRCLE
  8
0
 62
0
 10
208.494344966
 20
20.4750007995
 30
0.0
 40
1.5
  0
CIRCLE
  8
0
 62
0
 10
178.0
 20
119.999976985
 30
0.0
 40
1.5
  0
CIRCLE
  8
0
 62
0
 10
255.5
 20
202.749976985
 30
0.0
 40
1.5
  0
CIRCLE
  8
0
 62
0
 10
150.5
 20
213.374976985
 30
0.0
 40
1.5
  0
CIRCLE
  8
0
 62
0
 10
161.544344966
 20
64.5750007995
 30
0.0
 40
1.5
  0
CIRCLE
  8
0
 62
0
 10
72.6193449655
 20
31.9750007995
 30
0.0
 40
1.5
  0
CIRCLE
  8
0
 62
0
 10
228.369344966
 20
31.9750007995
 30
0.0
 40
1.5
  0
CIRCLE
  8
0
 62
0
 10
128.0
 20
196.874976985
 30
0.0
 40
1.5
  0
CIRCLE
  8
0
 62
0
 10
173.044344966
 20
48.0750007995
 30
0.0
 40
1.5
  0
CIRCLE
  8
0
 62
0
 10
248.244344966
 20
20.4750007995
 30
0.0
 40
1.5
  0
CIRCLE
  8
0
 62
0
 10
274.0
 20
58.1999769854
 30
0.0
 40
1.5
  0
CIRCLE
  8
0
 62
0
 10
260.5
 20
119.999976985
 30
0.0
 40
1.5
  0
CIRCLE
  8
0
 62
0
 10
52.7443449655
 20
20.4750007995
 30
0.0
 40
1.5
  0
CIRCLE
  8
0
 62
0
 10
260.5
 20
71.4999769854
 30
0.0
 40
1.5
  0
CIRCLE
  8
0
 62
0
 10
255.5
 20
234.499976985
 30
0.0
 40
1.5
  0
CIRCLE
  8
0
 62
0
 10
45.5
 20
234.499976985
 30
0.0
 40
1.5
  0
CIRCLE
  8
0
 62
0
 10
92.4943449655
 20
20.4750007995
 30
0.0
 40
1.5
  0
ENDBLK
  0
ENDSEC
  0
SECTION
  2
ENTITIES
  0
INSERT
  2
SKETCH
  8
0
 10
0.0
 20
0.0
 30
0.0
  0
ENDSEC
  0
EOF
