  0
SECTION
  2
HEADER
  9
$ACADVER
  1
AC1014
  9
$HANDSEED
  5
FFFF
  9
$MEASUREMENT
 70
     1
  0
ENDSEC
  0
SECTION
  2
TABLES
  0
TABLE
  2
VPORT
  5
8
330
0
100
AcDbSymbolTable
 70
     4
  0
VPORT
  5
2E
330
8
100
AcDbSymbolTableRecord
100
AcDbViewportTableRecord
  2
*ACTIVE
 70
     0
 10
0.0
 20
0.0
 11
1.0
 21
1.0
 12
210.0
 22
148.5
 13
0.0
 23
0.0
 14
10.0
 24
10.0
 15
10.0
 25
10.0
 16
0.0
 26
0.0
 36
1.0
 17
0.0
 27
0.0
 37
0.0
 40
341.0
 41
1.24
 42
50.0
 43
0.0
 44
0.0
 50
0.0
 51
0.0
 71
     0
 72
   100
 73
     1
 74
     3
 75
     0
 76
     0
 77
     0
 78
     0
  0
ENDTAB
  0
TABLE
  2
LTYPE
  5
5
330
0
100
AcDbSymbolTable
 70
     1
  0
LTYPE
  5
14
330
5
100
AcDbSymbolTableRecord
100
AcDbLinetypeTableRecord
  2
BYBLOCK
 70
     0
  3

 72
    65
 73
     0
 40
0.0
  0
LTYPE
  5
15
330
5
100
AcDbSymbolTableRecord
100
AcDbLinetypeTableRecord
  2
BYLAYER
 70
     0
  3

 72
    65
 73
     0
 40
0.0
  0
LTYPE
  5
16
330
5
100
AcDbSymbolTableRecord
100
AcDbLinetypeTableRecord
  2
CONTINUOUS
 70
     0
  3
Solid line
 72
    65
 73
     0
 40
0.0
  0
ENDTAB
  0
TABLE
  2
LAYER
  5
2
100
AcDbSymbolTable
 70
2
  0
LAYER
  5
50
100
AcDbSymbolTableRecord
100
AcDbLayerTableRecord
  2
0
 70
0
  6
CONTINUOUS
  0
LAYER
  5
51
100
AcDbSymbolTableRecord
100
AcDbLayerTableRecord
  2
Layer_1
 70
0
  6
CONTINUOUS
  0
ENDTAB
  0
TABLE
  2
STYLE
  5
3
330
0
100
AcDbSymbolTable
 70
     1
  0
STYLE
  5
11
330
3
100
AcDbSymbolTableRecord
100
AcDbTextStyleTableRecord
  2
STANDARD
 70
     0
 40
0.0
 41
1.0
 50
0.0
 71
     0
 42
2.5
  3
txt
  4

  0
ENDTAB
  0
TABLE
  2
VIEW
  5
6
330
0
100
AcDbSymbolTable
 70
     0
  0
ENDTAB
  0
TABLE
  2
UCS
  5
7
330
0
100
AcDbSymbolTable
 70
     0
  0
ENDTAB
  0
TABLE
  2
APPID
  5
9
330
0
100
AcDbSymbolTable
 70
     2
  0
APPID
  5
12
330
9
100
AcDbSymbolTableRecord
100
AcDbRegAppTableRecord
  2
ACAD
 70
     0
  0
ENDTAB
  0
TABLE
  2
DIMSTYLE
  5
A
330
0
100
AcDbSymbolTable
 70
     1
  0
DIMSTYLE
105
27
330
A
100
AcDbSymbolTableRecord
100
AcDbDimStyleTableRecord
  2
ISO-25
 70
     0
  3

  4

  5

  6

  7

 40
1.0
 41
2.5
 42
0.625
 43
3.75
 44
1.25
 45
0.0
 46
0.0
 47
0.0
 48
0.0
140
2.5
141
2.5
142
0.0
143
0.03937007874016
144
1.0
145
0.0
146
1.0
147
0.625
 71
     0
 72
     0
 73
     0
 74
     0
 75
     0
 76
     0
 77
     1
 78
     8
170
     0
171
     3
172
     1
173
     0
174
     0
175
     0
176
     0
177
     0
178
     0
270
     2
271
     2
272
     2
273
     2
274
     3
340
11
275
     0
280
     0
281
     0
282
     0
283
     0
284
     8
285
     0
286
     0
287
     3
288
     0
  0
ENDTAB
  0
TABLE
  2
BLOCK_RECORD
  5
1
330
0
100
AcDbSymbolTable
 70
     1
  0
BLOCK_RECORD
  5
1F
330
1
100
AcDbSymbolTableRecord
100
AcDbBlockTableRecord
  2
*MODEL_SPACE
  0
BLOCK_RECORD
  5
1B
330
1
100
AcDbSymbolTableRecord
100
AcDbBlockTableRecord
  2
*PAPER_SPACE
  0
ENDTAB
  0
ENDSEC
  0
SECTION
  2
BLOCKS
  0
BLOCK
  5
20
330
1F
100
AcDbEntity
  8
0
100
AcDbBlockBegin
  2
*MODEL_SPACE
 70
     0
 10
0.0
 20
0.0
 30
0.0
  3
*MODEL_SPACE
  1

  0
ENDBLK
  5
21
330
1F
100
AcDbEntity
  8
0
100
AcDbBlockEnd
  0
BLOCK
  5
1C
330
1B
100
AcDbEntity
 67
     1
  8
0
100
AcDbBlockBegin
  2
*PAPER_SPACE
  1

  0
ENDBLK
  5
1D
330
1B
100
AcDbEntity
 67
     1
  8
0
100
AcDbBlockEnd
  0
ENDSEC
  0
SECTION
  2
ENTITIES
  0
LWPOLYLINE
  5
100
100
AcDbEntity
  8
Layer_1
 62
7
100
AcDbPolyline
 90
124
 70
0
 10
33.392624
 20
560.662744
 30
0.0
 10
40.291550
 20
560.540280
 30
0.0
 10
49.068287
 20
559.703424
 30
0.0
 10
57.865435
 20
558.356296
 30
0.0
 10
66.540119
 20
556.519304
 30
0.0
 10
74.949458
 20
554.233272
 30
0.0
 10
82.970984
 20
551.539016
 30
0.0
 10
90.461832
 20
548.497776
 30
0.0
 10
97.299520
 20
545.129960
 30
0.0
 10
103.341184
 20
541.476384
 30
0.0
 10
104.565848
 20
540.619128
 30
0.0
 10
108.178600
 20
539.108712
 30
0.0
 10
111.648472
 20
537.312536
 30
0.0
 10
114.955056
 20
535.271440
 30
0.0
 10
118.098352
 20
532.985400
 30
0.0
 10
123.833848
 20
527.760184
 30
0.0
 10
128.752904
 20
521.698104
 30
0.0
 10
130.855240
 20
518.411936
 30
0.0
 10
132.733048
 20
514.942064
 30
0.0
 10
134.345520
 20
511.329312
 30
0.0
 10
135.713056
 20
507.553272
 30
0.0
 10
136.774432
 20
503.675176
 30
0.0
 10
137.570464
 20
499.674616
 30
0.0
 10
137.733752
 20
498.245848
 30
0.0
 10
101.259264
 20
498.245848
 30
0.0
 10
100.544872
 20
499.592976
 30
0.0
 10
98.667064
 20
501.838184
 30
0.0
 10
96.421848
 20
503.716000
 30
0.0
 10
93.829648
 20
505.103952
 30
0.0
 10
90.972104
 20
506.002040
 30
0.0
 10
87.910456
 20
506.308200
 30
0.0
 10
84.848800
 20
506.002040
 30
0.0
 10
81.991264
 20
505.103952
 30
0.0
 10
79.399062
 20
503.716000
 30
0.0
 10
77.153848
 20
501.838184
 30
0.0
 10
75.276034
 20
499.592976
 30
0.0
 10
73.888085
 20
497.000776
 30
0.0
 10
72.989999
 20
494.143232
 30
0.0
 10
72.683834
 20
491.081584
 30
0.0
 10
72.989999
 20
488.019928
 30
0.0
 10
73.888085
 20
485.162384
 30
0.0
 10
75.276034
 20
482.570184
 30
0.0
 10
77.153848
 20
480.324976
 30
0.0
 10
79.399062
 20
478.467568
 30
0.0
 10
81.991264
 20
477.059208
 30
0.0
 10
84.848800
 20
476.181536
 30
0.0
 10
87.910456
 20
475.875368
 30
0.0
 10
90.972104
 20
476.181536
 30
0.0
 10
93.829648
 20
477.059208
 30
0.0
 10
96.421848
 20
478.467568
 30
0.0
 10
98.667064
 20
480.324976
 30
0.0
 10
100.544872
 20
482.570184
 30
0.0
 10
101.932824
 20
485.162384
 30
0.0
 10
101.994024
 20
485.346088
 30
0.0
 10
137.835776
 20
485.346088
 30
0.0
 10
137.039744
 20
480.222920
 30
0.0
 10
135.631384
 20
474.936464
 30
0.0
 10
133.712752
 20
469.894944
 30
0.0
 10
131.304248
 20
465.098352
 30
0.0
 10
128.446704
 20
460.628336
 30
0.0
 10
125.180944
 20
456.484904
 30
0.0
 10
121.527368
 20
452.688456
 30
0.0
 10
121.609016
 20
451.708728
 30
0.0
 10
122.058056
 20
447.830632
 30
0.0
 10
122.833672
 20
444.605696
 30
0.0
 10
124.037928
 20
441.748152
 30
0.0
 10
125.752448
 20
438.972248
 30
0.0
 10
128.242592
 20
436.175944
 30
0.0
 10
131.161368
 20
433.644976
 30
0.0
 10
136.039600
 20
430.705792
 30
0.0
 10
141.734280
 20
428.276888
 30
0.0
 10
148.429088
 20
426.297000
 30
0.0
 10
156.307744
 20
424.704952
 30
0.0
 10
157.838568
 20
424.398776
 30
0.0
 10
157.532408
 20
424.133448
 30
0.0
 10
152.715408
 20
422.970024
 30
0.0
 10
146.673744
 20
422.194392
 30
0.0
 10
133.080008
 20
422.194392
 30
0.0
 10
124.282856
 20
423.031248
 30
0.0
 10
115.485712
 20
424.378384
 30
0.0
 10
106.811024
 20
426.215368
 30
0.0
 10
98.401688
 20
428.501408
 30
0.0
 10
90.380160
 20
431.195656
 30
0.0
 10
82.889312
 20
434.236896
 30
0.0
 10
76.051622
 20
437.604712
 30
0.0
 10
70.009959
 20
441.258288
 30
0.0
 10
68.540366
 20
442.319656
 30
0.0
 10
64.988848
 20
443.870896
 30
0.0
 10
61.559797
 20
445.667064
 30
0.0
 10
55.211970
 20
450.014616
 30
0.0
 10
49.578530
 20
455.239832
 30
0.0
 10
44.741119
 20
461.261088
 30
0.0
 10
40.822202
 20
467.996720
 30
0.0
 10
39.230145
 20
471.589056
 30
0.0
 10
37.903427
 20
475.324272
 30
0.0
 10
36.842054
 20
479.161544
 30
0.0
 10
36.086846
 20
483.141696
 30
0.0
 10
35.617393
 20
487.203488
 30
0.0
 10
35.454105
 20
491.367336
 30
0.0
 10
35.739860
 20
496.980368
 30
0.0
 10
36.597122
 20
502.430112
 30
0.0
 10
37.985071
 20
507.655328
 30
0.0
 10
39.883296
 20
512.656032
 30
0.0
 10
42.250974
 20
517.411792
 30
0.0
 10
45.047284
 20
521.861400
 30
0.0
 10
48.272225
 20
525.984424
 30
0.0
 10
51.864563
 20
529.760464
 30
0.0
 10
51.762509
 20
531.005536
 30
0.0
 10
51.313466
 20
534.883624
 30
0.0
 10
50.517438
 20
538.108568
 30
0.0
 10
49.313187
 20
540.966112
 30
0.0
 10
47.598661
 20
543.742008
 30
0.0
 10
45.108518
 20
546.538320
 30
0.0
 10
42.210153
 20
549.089696
 30
0.0
 10
37.331920
 20
552.028880
 30
0.0
 10
31.637244
 20
554.437384
 30
0.0
 10
24.942430
 20
556.417256
 30
0.0
 10
17.063778
 20
558.009312
 30
0.0
 10
15.532951
 20
558.315480
 30
0.0
 10
15.839117
 20
558.580816
 30
0.0
 10
20.656117
 20
559.744248
 30
0.0
 10
26.697777
 20
560.519872
 30
0.0
 10
33.392592
 20
560.662744
 30
0.0
 10
33.392592
 20
560.662744
 30
0.0
  0
LWPOLYLINE
  5
101
100
AcDbEntity
  8
Layer_1
 62
7
100
AcDbPolyline
 90
81
 70
0
 10
162.771606
 20
490.347540
 30
0.0
 10
163.115278
 20
489.174440
 30
0.0
 10
163.458951
 20
488.001339
 30
0.0
 10
163.802623
 20
486.828239
 30
0.0
 10
164.146295
 20
485.655139
 30
0.0
 10
164.278477
 20
485.655139
 30
0.0
 10
164.410658
 20
485.655139
 30
0.0
 10
164.542840
 20
485.655139
 30
0.0
 10
164.675022
 20
485.655139
 30
0.0
 10
164.912949
 20
486.843279
 30
0.0
 10
165.150876
 20
488.031419
 30
0.0
 10
165.388803
 20
489.219559
 30
0.0
 10
165.626730
 20
490.407699
 30
0.0
 10
167.160037
 20
494.618828
 30
0.0
 10
168.693344
 20
498.829956
 30
0.0
 10
170.226651
 20
503.041085
 30
0.0
 10
171.759958
 20
507.252214
 30
0.0
 10
174.985190
 20
507.252214
 30
0.0
 10
178.210423
 20
507.252214
 30
0.0
 10
181.435655
 20
507.252214
 30
0.0
 10
184.660887
 20
507.252214
 30
0.0
 10
181.356346
 20
500.469289
 30
0.0
 10
178.051805
 20
493.686363
 30
0.0
 10
174.747263
 20
486.903438
 30
0.0
 10
171.442722
 20
480.120513
 30
0.0
 10
170.557105
 20
478.390942
 30
0.0
 10
169.697898
 20
476.751610
 30
0.0
 10
168.865154
 20
475.202516
 30
0.0
 10
168.058872
 20
473.743661
 30
0.0
 10
167.252537
 20
472.382564
 30
0.0
 10
166.419793
 20
471.126745
 30
0.0
 10
165.560612
 20
469.976204
 30
0.0
 10
164.675022
 20
468.930942
 30
0.0
 10
163.743141
 20
467.998478
 30
0.0
 10
162.745143
 20
467.186332
 30
0.0
 10
161.681107
 20
466.494503
 30
0.0
 10
160.550954
 20
465.922993
 30
0.0
 10
159.381120
 20
465.449241
 30
0.0
 10
158.092349
 20
465.110847
 30
0.0
 10
156.684615
 20
464.907810
 30
0.0
 10
155.157943
 20
464.840131
 30
0.0
 10
154.054226
 20
464.855171
 30
0.0
 10
152.963728
 20
464.900290
 30
0.0
 10
151.886447
 20
464.975489
 30
0.0
 10
150.822385
 20
465.080767
 30
0.0
 10
149.850850
 20
465.189805
 30
0.0
 10
148.945406
 20
465.336443
 30
0.0
 10
148.106052
 20
465.520680
 30
0.0
 10
147.332790
 20
465.742516
 30
0.0
 10
147.861516
 20
467.276570
 30
0.0
 10
148.390243
 20
468.810624
 30
0.0
 10
148.918969
 20
470.344678
 30
0.0
 10
149.447696
 20
471.878732
 30
0.0
 10
150.135040
 20
471.750894
 30
0.0
 10
150.822385
 20
471.668176
 30
0.0
 10
151.509730
 20
471.630576
 30
0.0
 10
152.197074
 20
471.638096
 30
0.0
 10
152.917464
 20
471.675696
 30
0.0
 10
153.598200
 20
471.788494
 30
0.0
 10
154.239281
 20
471.976491
 30
0.0
 10
154.840707
 20
472.239686
 30
0.0
 10
155.455325
 20
472.551761
 30
0.0
 10
156.030316
 20
472.946554
 30
0.0
 10
156.565651
 20
473.424066
 30
0.0
 10
157.061359
 20
473.984297
 30
0.0
 10
157.517359
 20
474.634766
 30
0.0
 10
157.933731
 20
475.382993
 30
0.0
 10
158.310449
 20
476.228979
 30
0.0
 10
158.647539
 20
477.172723
 30
0.0
 10
154.047617
 20
484.692595
 30
0.0
 10
149.447696
 20
492.212468
 30
0.0
 10
144.847775
 20
499.732341
 30
0.0
 10
140.247853
 20
507.252214
 30
0.0
 10
144.028248
 20
507.252214
 30
0.0
 10
147.808643
 20
507.252214
 30
0.0
 10
151.589039
 20
507.252214
 30
0.0
 10
155.369434
 20
507.252214
 30
0.0
 10
157.219977
 20
503.026045
 30
0.0
 10
159.070520
 20
498.799877
 30
0.0
 10
160.921063
 20
494.573708
 30
0.0
 10
162.771606
 20
490.347540
 30
0.0
  0
LWPOLYLINE
  5
102
100
AcDbEntity
  8
Layer_1
 62
7
100
AcDbPolyline
 90
81
 70
0
 10
218.767057
 20
478.797015
 30
0.0
 10
217.379123
 20
478.233025
 30
0.0
 10
215.859034
 20
477.744218
 30
0.0
 10
214.206763
 20
477.330640
 30
0.0
 10
212.422338
 20
476.992246
 30
0.0
 10
210.571795
 20
476.729050
 30
0.0
 10
208.721225
 20
476.541053
 30
0.0
 10
206.870682
 20
476.428255
 30
0.0
 10
205.020165
 20
476.390656
 30
0.0
 10
202.429405
 20
476.458335
 30
0.0
 10
200.050109
 20
476.661371
 30
0.0
 10
197.882356
 20
476.999766
 30
0.0
 10
195.926068
 20
477.473518
 30
0.0
 10
194.207706
 20
478.101427
 30
0.0
 10
192.647963
 20
478.842134
 30
0.0
 10
191.246838
 20
479.695640
 30
0.0
 10
190.004330
 20
480.661944
 30
0.0
 10
188.920441
 20
481.763605
 30
0.0
 10
187.995169
 20
482.963025
 30
0.0
 10
187.228515
 20
484.260203
 30
0.0
 10
186.620480
 20
485.655139
 30
0.0
 10
186.204108
 20
487.170394
 30
0.0
 10
185.906699
 20
488.768351
 30
0.0
 10
185.728254
 20
490.449043
 30
0.0
 10
185.668772
 20
492.212468
 30
0.0
 10
185.979399
 20
495.908471
 30
0.0
 10
186.911280
 20
499.115696
 30
0.0
 10
188.464414
 20
501.834130
 30
0.0
 10
190.638802
 20
504.063788
 30
0.0
 10
193.414590
 20
505.800878
 30
0.0
 10
196.772004
 20
507.041642
 30
0.0
 10
200.711044
 20
507.786110
 30
0.0
 10
205.231656
 20
508.034281
 30
0.0
 10
207.498545
 20
508.004201
 30
0.0
 10
209.540751
 20
507.913963
 30
0.0
 10
211.358249
 20
507.763565
 30
0.0
 10
212.951064
 20
507.553024
 30
0.0
 10
214.438081
 20
507.297333
 30
0.0
 10
215.832598
 20
507.011563
 30
0.0
 10
217.134587
 20
506.695743
 30
0.0
 10
218.344075
 20
506.349844
 30
0.0
 10
217.603858
 20
504.860909
 30
0.0
 10
216.863641
 20
503.371974
 30
0.0
 10
216.123424
 20
501.883040
 30
0.0
 10
215.383206
 20
500.394105
 30
0.0
 10
214.438081
 20
500.646006
 30
0.0
 10
213.506201
 20
500.860307
 30
0.0
 10
212.587538
 20
501.037039
 30
0.0
 10
211.682120
 20
501.176157
 30
0.0
 10
210.789868
 20
501.307754
 30
0.0
 10
209.805115
 20
501.401753
 30
0.0
 10
208.727834
 20
501.458152
 30
0.0
 10
207.558053
 20
501.476952
 30
0.0
 10
205.476166
 20
501.337834
 30
0.0
 10
203.671886
 20
500.920481
 30
0.0
 10
202.145188
 20
500.224893
 30
0.0
 10
200.896098
 20
499.251084
 30
0.0
 10
199.924536
 20
497.999010
 30
0.0
 10
199.230583
 20
496.408542
 30
0.0
 10
198.814210
 20
494.479710
 30
0.0
 10
198.675420
 20
492.212483
 30
0.0
 10
198.814210
 20
490.261061
 30
0.0
 10
199.230583
 20
488.497651
 30
0.0
 10
199.924536
 20
486.922238
 30
0.0
 10
200.896098
 20
485.534836
 30
0.0
 10
202.224523
 20
484.403080
 30
0.0
 10
203.883377
 20
483.594694
 30
0.0
 10
205.872737
 20
483.109662
 30
0.0
 10
208.192525
 20
482.948000
 30
0.0
 10
209.461469
 20
482.970560
 30
0.0
 10
210.624641
 20
483.038238
 30
0.0
 10
211.682120
 20
483.151037
 30
0.0
 10
212.633828
 20
483.308954
 30
0.0
 10
213.565682
 20
483.530790
 30
0.0
 10
214.457909
 20
483.775171
 30
0.0
 10
215.310480
 20
484.042126
 30
0.0
 10
216.123424
 20
484.331657
 30
0.0
 10
216.784332
 20
482.948000
 30
0.0
 10
217.445240
 20
481.564343
 30
0.0
 10
218.106148
 20
480.180687
 30
0.0
 10
218.767057
 20
478.797030
 30
0.0
  0
LWPOLYLINE
  5
103
100
AcDbEntity
  8
Layer_1
 62
7
100
AcDbPolyline
 90
49
 70
0
 10
237.336913
 20
486.918478
 30
0.0
 10
237.383176
 20
485.940894
 30
0.0
 10
237.521967
 20
485.113693
 30
0.0
 10
237.753285
 20
484.436905
 30
0.0
 10
238.077156
 20
483.910529
 30
0.0
 10
238.506747
 20
483.515720
 30
0.0
 10
239.055301
 20
483.233725
 30
0.0
 10
239.722818
 20
483.064528
 30
0.0
 10
240.509299
 20
483.008129
 30
0.0
 10
240.985153
 20
483.015649
 30
0.0
 10
241.461007
 20
483.038208
 30
0.0
 10
241.936861
 20
483.075808
 30
0.0
 10
242.412714
 20
483.128447
 30
0.0
 10
242.954659
 20
483.199886
 30
0.0
 10
243.523040
 20
483.293884
 30
0.0
 10
244.117858
 20
483.410442
 30
0.0
 10
244.739138
 20
483.549560
 30
0.0
 10
245.029938
 20
482.105744
 30
0.0
 10
245.320711
 20
480.661929
 30
0.0
 10
245.611510
 20
479.218113
 30
0.0
 10
245.902310
 20
477.774297
 30
0.0
 10
245.155484
 20
477.537421
 30
0.0
 10
244.183949
 20
477.308065
 30
0.0
 10
242.987705
 20
477.086229
 30
0.0
 10
241.566752
 20
476.871913
 30
0.0
 10
240.026836
 20
476.687676
 30
0.0
 10
238.473701
 20
476.556078
 30
0.0
 10
236.907349
 20
476.477119
 30
0.0
 10
235.327778
 20
476.450800
 30
0.0
 10
232.849372
 20
476.544798
 30
0.0
 10
230.701420
 20
476.826793
 30
0.0
 10
228.883923
 20
477.296785
 30
0.0
 10
227.396879
 20
477.954774
 30
0.0
 10
226.240290
 20
478.838359
 30
0.0
 10
225.414155
 20
479.985125
 30
0.0
 10
224.918473
 20
481.395101
 30
0.0
 10
224.753246
 20
483.068288
 30
0.0
 10
224.753246
 20
492.122215
 30
0.0
 10
224.753246
 20
501.176142
 30
0.0
 10
224.753246
 20
510.230064
 30
0.0
 10
224.753246
 20
519.283989
 30
0.0
 10
227.899170
 20
519.283989
 30
0.0
 10
231.045093
 20
519.283989
 30
0.0
 10
234.191016
 20
519.283989
 30
0.0
 10
237.336939
 20
519.283989
 30
0.0
 10
237.336939
 20
511.192608
 30
0.0
 10
237.336939
 20
503.101229
 30
0.0
 10
237.336939
 20
495.009846
 30
0.0
 10
237.336939
 20
486.918463
 30
0.0
  0
LWPOLYLINE
  5
104
100
AcDbEntity
  8
Layer_1
 62
7
100
AcDbPolyline
 90
29
 70
0
 10
248.248508
 20
492.212468
 30
0.0
 10
248.592180
 20
495.957350
 30
0.0
 10
249.623197
 20
499.190895
 30
0.0
 10
251.341558
 20
501.913089
 30
0.0
 10
253.747264
 20
504.123947
 30
0.0
 10
256.767615
 20
505.834703
 30
0.0
 10
260.329910
 20
507.056667
 30
0.0
 10
264.434151
 20
507.789870
 30
0.0
 10
269.080336
 20
508.034281
 30
0.0
 10
274.030538
 20
507.786140
 30
0.0
 10
278.306588
 20
507.041657
 30
0.0
 10
281.908538
 20
505.800863
 30
0.0
 10
284.836388
 20
504.063788
 30
0.0
 10
287.103303
 20
501.834130
 30
0.0
 10
288.722502
 20
499.115696
 30
0.0
 10
289.694037
 20
495.908471
 30
0.0
 10
290.017909
 20
492.212468
 30
0.0
 10
289.674236
 20
488.441252
 30
0.0
 10
288.643219
 20
485.188907
 30
0.0
 10
286.924858
 20
482.455433
 30
0.0
 10
284.519152
 20
480.240831
 30
0.0
 10
281.492192
 20
478.556379
 30
0.0
 10
277.910070
 20
477.353200
 30
0.0
 10
273.772784
 20
476.631292
 30
0.0
 10
269.080336
 20
476.390656
 30
0.0
 10
259.966411
 20
477.379519
 30
0.0
 10
253.456465
 20
480.346109
 30
0.0
 10
249.550497
 20
485.290425
 30
0.0
 10
248.248508
 20
492.212468
 30
0.0
  0
LWPOLYLINE
  5
105
100
AcDbEntity
  8
Layer_1
 62
7
100
AcDbPolyline
 90
33
 70
0
 10
261.255182
 20
492.212468
 30
0.0
 10
261.367536
 20
490.084329
 30
0.0
 10
261.704600
 20
488.211881
 30
0.0
 10
262.266372
 20
486.595108
 30
0.0
 10
263.052852
 20
485.234026
 30
0.0
 10
264.103696
 20
484.154925
 30
0.0
 10
265.458558
 20
483.384138
 30
0.0
 10
267.117438
 20
482.921665
 30
0.0
 10
269.080336
 20
482.767508
 30
0.0
 10
270.957315
 20
482.899106
 30
0.0
 10
272.569931
 20
483.293899
 30
0.0
 10
273.918184
 20
483.951903
 30
0.0
 10
275.002073
 20
484.873087
 30
0.0
 10
275.881081
 20
486.143931
 30
0.0
 10
276.508918
 20
487.790783
 30
0.0
 10
276.885635
 20
489.813629
 30
0.0
 10
277.011208
 20
492.212483
 30
0.0
 10
276.898854
 20
494.389471
 30
0.0
 10
276.561764
 20
496.288239
 30
0.0
 10
276.000018
 20
497.908772
 30
0.0
 10
275.213538
 20
499.251084
 30
0.0
 10
274.156084
 20
500.303851
 30
0.0
 10
272.781395
 20
501.055839
 30
0.0
 10
271.089470
 20
501.507031
 30
0.0
 10
269.080309
 20
501.657443
 30
0.0
 10
267.328902
 20
501.522086
 30
0.0
 10
265.775768
 20
501.115998
 30
0.0
 10
264.420906
 20
500.439224
 30
0.0
 10
263.264317
 20
499.491735
 30
0.0
 10
262.385309
 20
498.247181
 30
0.0
 10
261.757446
 20
496.619129
 30
0.0
 10
261.380728
 20
494.607563
 30
0.0
 10
261.255156
 20
492.212498
 30
0.0
  0
LWPOLYLINE
  5
106
100
AcDbEntity
  8
Layer_1
 62
7
100
AcDbPolyline
 90
77
 70
0
 10
323.466475
 20
477.172723
 30
0.0
 10
323.466475
 20
481.744805
 30
0.0
 10
323.466475
 20
486.316888
 30
0.0
 10
323.466475
 20
490.888971
 30
0.0
 10
323.466475
 20
495.461053
 30
0.0
 10
323.380557
 20
496.991332
 30
0.0
 10
323.122802
 20
498.273471
 30
0.0
 10
322.693238
 20
499.307453
 30
0.0
 10
322.091812
 20
500.093295
 30
0.0
 10
321.285504
 20
500.672310
 30
0.0
 10
320.241269
 20
501.085903
 30
0.0
 10
318.959107
 20
501.334059
 30
0.0
 10
317.439044
 20
501.416777
 30
0.0
 10
316.110592
 20
501.356619
 30
0.0
 10
314.874694
 20
501.176142
 30
0.0
 10
313.731323
 20
500.875347
 30
0.0
 10
312.680479
 20
500.454249
 30
0.0
 10
311.748598
 20
499.942882
 30
0.0
 10
310.962117
 20
499.371357
 30
0.0
 10
310.321036
 20
498.739703
 30
0.0
 10
309.825355
 20
498.047890
 30
0.0
 10
309.825355
 20
492.829098
 30
0.0
 10
309.825355
 20
487.610306
 30
0.0
 10
309.825355
 20
482.391514
 30
0.0
 10
309.825355
 20
477.172723
 30
0.0
 10
306.679432
 20
477.172723
 30
0.0
 10
303.533508
 20
477.172723
 30
0.0
 10
300.387585
 20
477.172723
 30
0.0
 10
297.241662
 20
477.172723
 30
0.0
 10
297.241662
 20
484.692595
 30
0.0
 10
297.241662
 20
492.212468
 30
0.0
 10
297.241662
 20
499.732341
 30
0.0
 10
297.241662
 20
507.252214
 30
0.0
 10
299.753113
 20
507.252214
 30
0.0
 10
302.264565
 20
507.252214
 30
0.0
 10
304.776016
 20
507.252214
 30
0.0
 10
307.287467
 20
507.252214
 30
0.0
 10
307.657576
 20
506.379909
 30
0.0
 10
308.027685
 20
505.507603
 30
0.0
 10
308.397793
 20
504.635298
 30
0.0
 10
308.767902
 20
503.762993
 30
0.0
 10
308.847211
 20
503.762993
 30
0.0
 10
308.926520
 20
503.762993
 30
0.0
 10
309.005829
 20
503.762993
 30
0.0
 10
309.085138
 20
503.762993
 30
0.0
 10
310.122764
 20
504.601444
 30
0.0
 10
311.332226
 20
505.372216
 30
0.0
 10
312.713524
 20
506.075339
 30
0.0
 10
314.266658
 20
506.710783
 30
0.0
 10
316.031283
 20
507.263479
 30
0.0
 10
318.047027
 20
507.658257
 30
0.0
 10
320.313969
 20
507.895148
 30
0.0
 10
322.832029
 20
507.974107
 30
0.0
 10
324.371919
 20
507.940267
 30
0.0
 10
325.819308
 20
507.838749
 30
0.0
 10
327.174196
 20
507.669552
 30
0.0
 10
328.436531
 20
507.432691
 30
0.0
 10
329.652576
 20
507.116841
 30
0.0
 10
330.762902
 20
506.710768
 30
0.0
 10
331.767482
 20
506.214456
 30
0.0
 10
332.666344
 20
505.627921
 30
0.0
 10
333.459434
 20
504.969917
 30
0.0
 10
334.146778
 20
504.199115
 30
0.0
 10
334.728377
 20
503.315545
 30
0.0
 10
335.204231
 20
502.319177
 30
0.0
 10
335.574314
 20
501.232541
 30
0.0
 10
335.838677
 20
500.018066
 30
0.0
 10
335.997295
 20
498.675784
 30
0.0
 10
336.050167
 20
497.205664
 30
0.0
 10
336.050167
 20
492.197428
 30
0.0
 10
336.050167
 20
487.189193
 30
0.0
 10
336.050167
 20
482.180958
 30
0.0
 10
336.050167
 20
477.172723
 30
0.0
 10
332.904244
 20
477.172723
 30
0.0
 10
329.758321
 20
477.172723
 30
0.0
 10
326.612398
 20
477.172723
 30
0.0
 10
323.466475
 20
477.172723
 30
0.0
  0
LWPOLYLINE
  5
107
100
AcDbEntity
  8
Layer_1
 62
7
100
AcDbPolyline
 90
81
 70
0
 10
380.486333
 20
479.398605
 30
0.0
 10
379.045527
 20
478.766936
 30
0.0
 10
377.366820
 20
478.195425
 30
0.0
 10
375.450212
 20
477.684074
 30
0.0
 10
373.295651
 20
477.232882
 30
0.0
 10
370.995691
 20
476.864408
 30
0.0
 10
368.642857
 20
476.601212
 30
0.0
 10
366.237151
 20
476.443295
 30
0.0
 10
363.778599
 20
476.390656
 30
0.0
 10
361.121722
 20
476.458335
 30
0.0
 10
358.649925
 20
476.661371
 30
0.0
 10
356.363182
 20
476.999766
 30
0.0
 10
354.261494
 20
477.473518
 30
0.0
 10
352.391124
 20
478.075107
 30
0.0
 10
350.692590
 20
478.797015
 30
0.0
 10
349.165891
 20
479.639241
 30
0.0
 10
347.811030
 20
480.601785
 30
0.0
 10
346.621395
 20
481.677126
 30
0.0
 10
345.590378
 20
482.857746
 30
0.0
 10
344.717979
 20
484.143645
 30
0.0
 10
344.004198
 20
485.534821
 30
0.0
 10
343.495299
 20
487.057580
 30
0.0
 10
343.131799
 20
488.678113
 30
0.0
 10
342.913700
 20
490.396404
 30
0.0
 10
342.841000
 20
492.212468
 30
0.0
 10
343.191281
 20
496.006229
 30
0.0
 10
344.242125
 20
499.266079
 30
0.0
 10
345.993532
 20
501.992048
 30
0.0
 10
348.445502
 20
504.184106
 30
0.0
 10
351.571597
 20
505.894862
 30
0.0
 10
355.239638
 20
507.116826
 30
0.0
 10
359.449624
 20
507.850029
 30
0.0
 10
364.201554
 20
508.094440
 30
0.0
 10
365.880261
 20
508.056840
 30
0.0
 10
367.532505
 20
507.944042
 30
0.0
 10
369.158366
 20
507.756060
 30
0.0
 10
370.757764
 20
507.492880
 30
0.0
 10
372.297653
 20
507.169510
 30
0.0
 10
373.745042
 20
506.740862
 30
0.0
 10
375.099931
 20
506.206967
 30
0.0
 10
376.362266
 20
505.567792
 30
0.0
 10
377.565092
 20
504.845870
 30
0.0
 10
378.635763
 20
504.003629
 30
0.0
 10
379.574280
 20
503.041100
 30
0.0
 10
380.380588
 20
501.958253
 30
0.0
 10
381.074515
 20
500.770099
 30
0.0
 10
381.570196
 20
499.431546
 30
0.0
 10
381.867605
 20
497.942626
 30
0.0
 10
381.966741
 20
496.303309
 30
0.0
 10
381.945592
 20
495.630265
 30
0.0
 10
381.886110
 20
494.934677
 30
0.0
 10
381.786974
 20
494.216529
 30
0.0
 10
381.648183
 20
493.475837
 30
0.0
 10
381.522611
 20
492.708795
 30
0.0
 10
381.357384
 20
491.911688
 30
0.0
 10
381.152502
 20
491.084502
 30
0.0
 10
380.907966
 20
490.227252
 30
0.0
 10
374.483938
 20
490.227252
 30
0.0
 10
368.059910
 20
490.227252
 30
0.0
 10
361.635882
 20
490.227252
 30
0.0
 10
355.211854
 20
490.227252
 30
0.0
 10
355.462999
 20
488.471362
 30
0.0
 10
356.004944
 20
486.933533
 30
0.0
 10
356.837714
 20
485.613795
 30
0.0
 10
357.961285
 20
484.512149
 30
0.0
 10
359.421866
 20
483.643588
 30
0.0
 10
361.265800
 20
483.023199
 30
0.0
 10
363.493060
 20
482.650965
 30
0.0
 10
366.103648
 20
482.526887
 30
0.0
 10
367.755918
 20
482.564486
 30
0.0
 10
369.328880
 20
482.677285
 30
0.0
 10
370.822533
 20
482.865296
 30
0.0
 10
372.236876
 20
483.128492
 30
0.0
 10
373.578494
 20
483.433047
 30
0.0
 10
374.748301
 20
483.745122
 30
0.0
 10
375.746299
 20
484.064716
 30
0.0
 10
376.572434
 20
484.391831
 30
0.0
 10
377.550579
 20
483.143532
 30
0.0
 10
378.528723
 20
481.895233
 30
0.0
 10
379.506867
 20
480.646934
 30
0.0
 10
380.485011
 20
479.398635
 30
0.0
  0
LWPOLYLINE
  5
108
100
AcDbEntity
  8
Layer_1
 62
7
100
AcDbPolyline
 90
21
 70
0
 10
363.988741
 20
501.958253
 30
0.0
 10
362.105153
 20
501.841695
 30
0.0
 10
360.472710
 20
501.492021
 30
0.0
 10
359.091411
 20
500.909231
 30
0.0
 10
357.961285
 20
500.093340
 30
0.0
 10
357.062423
 20
499.096942
 30
0.0
 10
356.375079
 20
497.912562
 30
0.0
 10
355.899225
 20
496.540185
 30
0.0
 10
355.634861
 20
494.979827
 30
0.0
 10
359.283075
 20
494.979827
 30
0.0
 10
362.931288
 20
494.979827
 30
0.0
 10
366.579528
 20
494.979827
 30
0.0
 10
370.227742
 20
494.979827
 30
0.0
 10
370.267396
 20
496.589064
 30
0.0
 10
370.069124
 20
497.987761
 30
0.0
 10
369.632924
 20
499.175901
 30
0.0
 10
368.958771
 20
500.153499
 30
0.0
 10
368.053327
 20
500.943071
 30
0.0
 10
366.923148
 20
501.507046
 30
0.0
 10
365.568312
 20
501.845455
 30
0.0
 10
363.988741
 20
501.958253
 30
0.0
  0
LWPOLYLINE
  5
109
100
AcDbEntity
  8
Layer_1
 62
7
100
AcDbPolyline
 90
57
 70
0
 10
143.253583
 20
457.810576
 30
0.0
 10
143.253583
 20
456.560560
 30
0.0
 10
143.253583
 20
452.810560
 30
0.0
 10
143.253583
 20
446.560568
 30
0.0
 10
143.253583
 20
437.810576
 30
0.0
 10
143.931324
 20
437.810576
 30
0.0
 10
144.609065
 20
437.810576
 30
0.0
 10
145.286806
 20
437.810576
 30
0.0
 10
145.964547
 20
437.810576
 30
0.0
 10
145.964547
 20
440.310576
 30
0.0
 10
145.964547
 20
442.810576
 30
0.0
 10
145.964547
 20
445.310576
 30
0.0
 10
145.964547
 20
447.810576
 30
0.0
 10
148.675510
 20
447.810576
 30
0.0
 10
151.386474
 20
447.810576
 30
0.0
 10
154.097438
 20
447.810576
 30
0.0
 10
156.808401
 20
447.810576
 30
0.0
 10
156.808401
 20
448.310576
 30
0.0
 10
156.808401
 20
448.810576
 30
0.0
 10
156.808401
 20
449.310576
 30
0.0
 10
156.808401
 20
449.810576
 30
0.0
 10
154.097438
 20
449.810576
 30
0.0
 10
151.386474
 20
449.810576
 30
0.0
 10
148.675510
 20
449.810576
 30
0.0
 10
145.964547
 20
449.810576
 30
0.0
 10
145.964547
 20
451.310576
 30
0.0
 10
145.964547
 20
452.810576
 30
0.0
 10
145.964547
 20
454.310576
 30
0.0
 10
145.964547
 20
455.810576
 30
0.0
 10
148.675510
 20
455.810576
 30
0.0
 10
151.386474
 20
455.810576
 30
0.0
 10
154.097438
 20
455.810576
 30
0.0
 10
156.808401
 20
455.810576
 30
0.0
 10
156.808401
 20
454.310576
 30
0.0
 10
156.808401
 20
452.810576
 30
0.0
 10
156.808401
 20
451.310576
 30
0.0
 10
156.808401
 20
449.810576
 30
0.0
 10
157.486142
 20
449.810576
 30
0.0
 10
158.163883
 20
449.810576
 30
0.0
 10
158.841624
 20
449.810576
 30
0.0
 10
159.519365
 20
449.810576
 30
0.0
 10
159.519365
 20
451.310576
 30
0.0
 10
159.519365
 20
452.810576
 30
0.0
 10
159.519365
 20
454.310576
 30
0.0
 10
159.519365
 20
455.810576
 30
0.0
 10
158.841624
 20
455.810576
 30
0.0
 10
158.163883
 20
455.810576
 30
0.0
 10
157.486142
 20
455.810576
 30
0.0
 10
156.808401
 20
455.810576
 30
0.0
 10
156.808401
 20
456.310576
 30
0.0
 10
156.808401
 20
456.810576
 30
0.0
 10
156.808401
 20
457.310576
 30
0.0
 10
156.808401
 20
457.810576
 30
0.0
 10
153.419697
 20
457.810576
 30
0.0
 10
150.030992
 20
457.810576
 30
0.0
 10
146.642288
 20
457.810576
 30
0.0
 10
143.253583
 20
457.810576
 30
0.0
  0
LWPOLYLINE
  5
10a
100
AcDbEntity
  8
Layer_1
 62
7
100
AcDbPolyline
 90
33
 70
0
 10
167.652256
 20
439.810576
 30
0.0
 10
167.652256
 20
439.310576
 30
0.0
 10
167.652256
 20
438.810576
 30
0.0
 10
167.652256
 20
438.310576
 30
0.0
 10
167.652256
 20
437.810576
 30
0.0
 10
170.363219
 20
437.810576
 30
0.0
 10
173.074183
 20
437.810576
 30
0.0
 10
175.785146
 20
437.810576
 30
0.0
 10
178.496110
 20
437.810576
 30
0.0
 10
178.496110
 20
438.310576
 30
0.0
 10
178.496110
 20
438.810576
 30
0.0
 10
178.496110
 20
439.310576
 30
0.0
 10
178.496110
 20
439.810576
 30
0.0
 10
175.785146
 20
439.810576
 30
0.0
 10
173.074183
 20
439.810576
 30
0.0
 10
170.363219
 20
439.810576
 30
0.0
 10
167.652256
 20
439.810576
 30
0.0
 10
167.652256
 20
440.810576
 30
0.0
 10
167.652256
 20
443.810576
 30
0.0
 10
167.652256
 20
448.810576
 30
0.0
 10
167.652256
 20
455.810576
 30
0.0
 10
166.974515
 20
455.810576
 30
0.0
 10
166.296774
 20
455.810576
 30
0.0
 10
165.619033
 20
455.810576
 30
0.0
 10
164.941292
 20
455.810576
 30
0.0
 10
164.941292
 20
454.810568
 30
0.0
 10
164.941292
 20
451.810568
 30
0.0
 10
164.941292
 20
446.810568
 30
0.0
 10
164.941292
 20
439.810576
 30
0.0
 10
165.619033
 20
439.810576
 30
0.0
 10
166.296774
 20
439.810576
 30
0.0
 10
166.974515
 20
439.810576
 30
0.0
 10
167.652256
 20
439.810576
 30
0.0
  0
LWPOLYLINE
  5
10b
100
AcDbEntity
  8
Layer_1
 62
7
100
AcDbPolyline
 90
17
 70
0
 10
178.496110
 20
439.810576
 30
0.0
 10
179.173851
 20
439.810576
 30
0.0
 10
179.851592
 20
439.810576
 30
0.0
 10
180.529333
 20
439.810576
 30
0.0
 10
181.207074
 20
439.810576
 30
0.0
 10
181.207063
 20
440.060576
 30
0.0
 10
181.207063
 20
440.810576
 30
0.0
 10
181.207063
 20
442.060576
 30
0.0
 10
181.207074
 20
443.810576
 30
0.0
 10
180.529333
 20
443.810576
 30
0.0
 10
179.851592
 20
443.810576
 30
0.0
 10
179.173851
 20
443.810576
 30
0.0
 10
178.496110
 20
443.810576
 30
0.0
 10
178.496099
 20
443.560576
 30
0.0
 10
178.496088
 20
442.810576
 30
0.0
 10
178.496099
 20
441.560576
 30
0.0
 10
178.496110
 20
439.810576
 30
0.0
  0
LWPOLYLINE
  5
10c
100
AcDbEntity
  8
Layer_1
 62
7
100
AcDbPolyline
 90
17
 70
0
 10
178.496110
 20
455.810576
 30
0.0
 10
178.496099
 20
455.560568
 30
0.0
 10
178.496088
 20
454.810560
 30
0.0
 10
178.496099
 20
453.560568
 30
0.0
 10
178.496110
 20
451.810576
 30
0.0
 10
179.173851
 20
451.810576
 30
0.0
 10
179.851592
 20
451.810576
 30
0.0
 10
180.529333
 20
451.810576
 30
0.0
 10
181.207074
 20
451.810576
 30
0.0
 10
181.207063
 20
452.060568
 30
0.0
 10
181.207063
 20
452.810568
 30
0.0
 10
181.207063
 20
454.060568
 30
0.0
 10
181.207074
 20
455.810576
 30
0.0
 10
180.529333
 20
455.810576
 30
0.0
 10
179.851592
 20
455.810576
 30
0.0
 10
179.173851
 20
455.810576
 30
0.0
 10
178.496110
 20
455.810576
 30
0.0
  0
LWPOLYLINE
  5
10d
100
AcDbEntity
  8
Layer_1
 62
7
100
AcDbPolyline
 90
17
 70
0
 10
167.652256
 20
455.810576
 30
0.0
 10
170.363219
 20
455.810576
 30
0.0
 10
173.074183
 20
455.810576
 30
0.0
 10
175.785146
 20
455.810576
 30
0.0
 10
178.496110
 20
455.810576
 30
0.0
 10
178.496110
 20
456.310576
 30
0.0
 10
178.496110
 20
456.810576
 30
0.0
 10
178.496110
 20
457.310576
 30
0.0
 10
178.496110
 20
457.810576
 30
0.0
 10
175.785146
 20
457.810576
 30
0.0
 10
173.074183
 20
457.810576
 30
0.0
 10
170.363219
 20
457.810576
 30
0.0
 10
167.652256
 20
457.810576
 30
0.0
 10
167.652256
 20
457.310576
 30
0.0
 10
167.652256
 20
456.810576
 30
0.0
 10
167.652256
 20
456.310576
 30
0.0
 10
167.652256
 20
455.810576
 30
0.0
  0
LWPOLYLINE
  5
10e
100
AcDbEntity
  8
Layer_1
 62
7
100
AcDbPolyline
 90
81
 70
0
 10
186.629001
 20
457.810576
 30
0.0
 10
186.629001
 20
456.560560
 30
0.0
 10
186.629001
 20
452.810560
 30
0.0
 10
186.629001
 20
446.560568
 30
0.0
 10
186.629001
 20
437.810576
 30
0.0
 10
190.017705
 20
437.810576
 30
0.0
 10
193.406410
 20
437.810576
 30
0.0
 10
196.795114
 20
437.810576
 30
0.0
 10
200.183819
 20
437.810576
 30
0.0
 10
200.183819
 20
438.310576
 30
0.0
 10
200.183819
 20
438.810576
 30
0.0
 10
200.183819
 20
439.310576
 30
0.0
 10
200.183819
 20
439.810576
 30
0.0
 10
197.472855
 20
439.810576
 30
0.0
 10
194.761892
 20
439.810576
 30
0.0
 10
192.050928
 20
439.810576
 30
0.0
 10
189.339964
 20
439.810576
 30
0.0
 10
189.339964
 20
440.310576
 30
0.0
 10
189.339964
 20
441.810576
 30
0.0
 10
189.339964
 20
444.310576
 30
0.0
 10
189.339964
 20
447.810576
 30
0.0
 10
192.050928
 20
447.810576
 30
0.0
 10
194.761892
 20
447.810576
 30
0.0
 10
197.472855
 20
447.810576
 30
0.0
 10
200.183819
 20
447.810576
 30
0.0
 10
200.183808
 20
447.310568
 30
0.0
 10
200.183808
 20
445.810568
 30
0.0
 10
200.183808
 20
443.310576
 30
0.0
 10
200.183819
 20
439.810576
 30
0.0
 10
200.861560
 20
439.810576
 30
0.0
 10
201.539301
 20
439.810576
 30
0.0
 10
202.217041
 20
439.810576
 30
0.0
 10
202.894782
 20
439.810576
 30
0.0
 10
202.894772
 20
440.310576
 30
0.0
 10
202.894761
 20
441.810576
 30
0.0
 10
202.894772
 20
444.310576
 30
0.0
 10
202.894782
 20
447.810576
 30
0.0
 10
202.217041
 20
447.810576
 30
0.0
 10
201.539301
 20
447.810576
 30
0.0
 10
200.861560
 20
447.810576
 30
0.0
 10
200.183819
 20
447.810576
 30
0.0
 10
200.183819
 20
448.310576
 30
0.0
 10
200.183819
 20
448.810576
 30
0.0
 10
200.183819
 20
449.310576
 30
0.0
 10
200.183819
 20
449.810576
 30
0.0
 10
197.472855
 20
449.810576
 30
0.0
 10
194.761892
 20
449.810576
 30
0.0
 10
192.050928
 20
449.810576
 30
0.0
 10
189.339964
 20
449.810576
 30
0.0
 10
189.339964
 20
451.310576
 30
0.0
 10
189.339964
 20
452.810576
 30
0.0
 10
189.339964
 20
454.310576
 30
0.0
 10
189.339964
 20
455.810576
 30
0.0
 10
192.050928
 20
455.810576
 30
0.0
 10
194.761892
 20
455.810576
 30
0.0
 10
197.472855
 20
455.810576
 30
0.0
 10
200.183819
 20
455.810576
 30
0.0
 10
200.183819
 20
454.310576
 30
0.0
 10
200.183819
 20
452.810576
 30
0.0
 10
200.183819
 20
451.310576
 30
0.0
 10
200.183819
 20
449.810576
 30
0.0
 10
200.861560
 20
449.810576
 30
0.0
 10
201.539301
 20
449.810576
 30
0.0
 10
202.217041
 20
449.810576
 30
0.0
 10
202.894782
 20
449.810576
 30
0.0
 10
202.894782
 20
451.310576
 30
0.0
 10
202.894782
 20
452.810576
 30
0.0
 10
202.894782
 20
454.310576
 30
0.0
 10
202.894782
 20
455.810576
 30
0.0
 10
202.217041
 20
455.810576
 30
0.0
 10
201.539301
 20
455.810576
 30
0.0
 10
200.861560
 20
455.810576
 30
0.0
 10
200.183819
 20
455.810576
 30
0.0
 10
200.183819
 20
456.310576
 30
0.0
 10
200.183819
 20
456.810576
 30
0.0
 10
200.183819
 20
457.310576
 30
0.0
 10
200.183819
 20
457.810576
 30
0.0
 10
196.795114
 20
457.810576
 30
0.0
 10
193.406410
 20
457.810576
 30
0.0
 10
190.017705
 20
457.810576
 30
0.0
 10
186.629001
 20
457.810576
 30
0.0
  0
LWPOLYLINE
  5
10f
100
AcDbEntity
  8
Layer_1
 62
7
100
AcDbPolyline
 90
41
 70
0
 10
243.559236
 20
447.810576
 30
0.0
 10
243.559236
 20
448.310576
 30
0.0
 10
243.559236
 20
448.810576
 30
0.0
 10
243.559236
 20
449.310576
 30
0.0
 10
243.559236
 20
449.810576
 30
0.0
 10
240.848273
 20
449.810576
 30
0.0
 10
238.137309
 20
449.810576
 30
0.0
 10
235.426346
 20
449.810576
 30
0.0
 10
232.715382
 20
449.810576
 30
0.0
 10
232.715382
 20
451.310576
 30
0.0
 10
232.715382
 20
452.810576
 30
0.0
 10
232.715382
 20
454.310576
 30
0.0
 10
232.715382
 20
455.810576
 30
0.0
 10
236.104086
 20
455.810576
 30
0.0
 10
239.492791
 20
455.810576
 30
0.0
 10
242.881495
 20
455.810576
 30
0.0
 10
246.270200
 20
455.810576
 30
0.0
 10
246.270200
 20
456.310576
 30
0.0
 10
246.270200
 20
456.810576
 30
0.0
 10
246.270200
 20
457.310576
 30
0.0
 10
246.270200
 20
457.810576
 30
0.0
 10
242.203755
 20
457.810576
 30
0.0
 10
238.137309
 20
457.810576
 30
0.0
 10
234.070864
 20
457.810576
 30
0.0
 10
230.004418
 20
457.810576
 30
0.0
 10
230.004418
 20
456.560560
 30
0.0
 10
230.004418
 20
452.810560
 30
0.0
 10
230.004418
 20
446.560568
 30
0.0
 10
230.004418
 20
437.810576
 30
0.0
 10
230.682159
 20
437.810576
 30
0.0
 10
231.359900
 20
437.810576
 30
0.0
 10
232.037641
 20
437.810576
 30
0.0
 10
232.715382
 20
437.810576
 30
0.0
 10
232.715382
 20
440.310576
 30
0.0
 10
232.715382
 20
442.810576
 30
0.0
 10
232.715382
 20
445.310576
 30
0.0
 10
232.715382
 20
447.810576
 30
0.0
 10
235.426346
 20
447.810576
 30
0.0
 10
238.137309
 20
447.810576
 30
0.0
 10
240.848273
 20
447.810576
 30
0.0
 10
243.559236
 20
447.810576
 30
0.0
  0
LWPOLYLINE
  5
110
100
AcDbEntity
  8
Layer_1
 62
7
100
AcDbPolyline
 90
33
 70
0
 10
254.403091
 20
439.810576
 30
0.0
 10
254.403091
 20
439.310576
 30
0.0
 10
254.403091
 20
438.810576
 30
0.0
 10
254.403091
 20
438.310576
 30
0.0
 10
254.403091
 20
437.810576
 30
0.0
 10
256.436313
 20
437.810576
 30
0.0
 10
258.469536
 20
437.810576
 30
0.0
 10
260.502759
 20
437.810576
 30
0.0
 10
262.535982
 20
437.810576
 30
0.0
 10
262.535982
 20
438.310576
 30
0.0
 10
262.535982
 20
438.810576
 30
0.0
 10
262.535982
 20
439.310576
 30
0.0
 10
262.535982
 20
439.810576
 30
0.0
 10
260.502759
 20
439.810576
 30
0.0
 10
258.469536
 20
439.810576
 30
0.0
 10
256.436313
 20
439.810576
 30
0.0
 10
254.403091
 20
439.810576
 30
0.0
 10
254.403091
 20
441.310576
 30
0.0
 10
254.403091
 20
442.810576
 30
0.0
 10
254.403091
 20
444.310576
 30
0.0
 10
254.403091
 20
445.810576
 30
0.0
 10
253.725350
 20
445.810576
 30
0.0
 10
253.047609
 20
445.810576
 30
0.0
 10
252.369868
 20
445.810576
 30
0.0
 10
251.692127
 20
445.810576
 30
0.0
 10
251.692127
 20
444.310576
 30
0.0
 10
251.692127
 20
442.810576
 30
0.0
 10
251.692127
 20
441.310576
 30
0.0
 10
251.692127
 20
439.810576
 30
0.0
 10
252.369868
 20
439.810576
 30
0.0
 10
253.047609
 20
439.810576
 30
0.0
 10
253.725350
 20
439.810576
 30
0.0
 10
254.403091
 20
439.810576
 30
0.0
  0
LWPOLYLINE
  5
111
100
AcDbEntity
  8
Layer_1
 62
7
100
AcDbPolyline
 90
49
 70
0
 10
265.246945
 20
439.810576
 30
0.0
 10
265.246945
 20
439.310576
 30
0.0
 10
265.246945
 20
438.810576
 30
0.0
 10
265.246945
 20
438.310576
 30
0.0
 10
265.246945
 20
437.810576
 30
0.0
 10
265.924686
 20
437.810576
 30
0.0
 10
266.602427
 20
437.810576
 30
0.0
 10
267.280168
 20
437.810576
 30
0.0
 10
267.957909
 20
437.810576
 30
0.0
 10
267.957909
 20
441.310576
 30
0.0
 10
267.957909
 20
444.810576
 30
0.0
 10
267.957909
 20
448.310576
 30
0.0
 10
267.957909
 20
451.810576
 30
0.0
 10
267.280168
 20
451.810576
 30
0.0
 10
266.602427
 20
451.810576
 30
0.0
 10
265.924686
 20
451.810576
 30
0.0
 10
265.246945
 20
451.810576
 30
0.0
 10
265.246934
 20
451.560568
 30
0.0
 10
265.246923
 20
450.810568
 30
0.0
 10
265.246934
 20
449.560568
 30
0.0
 10
265.246945
 20
447.810576
 30
0.0
 10
262.535982
 20
447.810576
 30
0.0
 10
259.825018
 20
447.810576
 30
0.0
 10
257.114054
 20
447.810576
 30
0.0
 10
254.403091
 20
447.810576
 30
0.0
 10
254.403091
 20
447.310576
 30
0.0
 10
254.403091
 20
446.810576
 30
0.0
 10
254.403091
 20
446.310576
 30
0.0
 10
254.403091
 20
445.810576
 30
0.0
 10
257.114054
 20
445.810576
 30
0.0
 10
259.825018
 20
445.810576
 30
0.0
 10
262.535982
 20
445.810576
 30
0.0
 10
265.246945
 20
445.810576
 30
0.0
 10
265.246934
 20
445.560568
 30
0.0
 10
265.246923
 20
444.810568
 30
0.0
 10
265.246934
 20
443.560568
 30
0.0
 10
265.246945
 20
441.810576
 30
0.0
 10
264.569204
 20
441.810576
 30
0.0
 10
263.891463
 20
441.810576
 30
0.0
 10
263.213722
 20
441.810576
 30
0.0
 10
262.535982
 20
441.810576
 30
0.0
 10
262.535982
 20
441.310576
 30
0.0
 10
262.535982
 20
440.810576
 30
0.0
 10
262.535982
 20
440.310576
 30
0.0
 10
262.535982
 20
439.810576
 30
0.0
 10
263.213722
 20
439.810576
 30
0.0
 10
263.891463
 20
439.810576
 30
0.0
 10
264.569204
 20
439.810576
 30
0.0
 10
265.246945
 20
439.810576
 30
0.0
  0
LWPOLYLINE
  5
112
100
AcDbEntity
  8
Layer_1
 62
7
100
AcDbPolyline
 90
33
 70
0
 10
254.403091
 20
451.810576
 30
0.0
 10
253.725350
 20
451.810576
 30
0.0
 10
253.047609
 20
451.810576
 30
0.0
 10
252.369868
 20
451.810576
 30
0.0
 10
251.692127
 20
451.810576
 30
0.0
 10
251.692127
 20
451.310576
 30
0.0
 10
251.692127
 20
450.810576
 30
0.0
 10
251.692127
 20
450.310576
 30
0.0
 10
251.692127
 20
449.810576
 30
0.0
 10
252.369868
 20
449.810576
 30
0.0
 10
253.047609
 20
449.810576
 30
0.0
 10
253.725350
 20
449.810576
 30
0.0
 10
254.403091
 20
449.810576
 30
0.0
 10
254.403091
 20
450.310576
 30
0.0
 10
254.403091
 20
450.810576
 30
0.0
 10
254.403091
 20
451.310576
 30
0.0
 10
254.403091
 20
451.810576
 30
0.0
 10
257.114054
 20
451.810576
 30
0.0
 10
259.825018
 20
451.810576
 30
0.0
 10
262.535982
 20
451.810576
 30
0.0
 10
265.246945
 20
451.810576
 30
0.0
 10
265.246945
 20
452.310576
 30
0.0
 10
265.246945
 20
452.810576
 30
0.0
 10
265.246945
 20
453.310576
 30
0.0
 10
265.246945
 20
453.810576
 30
0.0
 10
262.535982
 20
453.810576
 30
0.0
 10
259.825018
 20
453.810576
 30
0.0
 10
257.114054
 20
453.810576
 30
0.0
 10
254.403091
 20
453.810576
 30
0.0
 10
254.403091
 20
453.310576
 30
0.0
 10
254.403091
 20
452.810576
 30
0.0
 10
254.403091
 20
452.310576
 30
0.0
 10
254.403091
 20
451.810576
 30
0.0
  0
LWPOLYLINE
  5
113
100
AcDbEntity
  8
Layer_1
 62
7
100
AcDbPolyline
 90
33
 70
0
 10
289.645618
 20
439.810576
 30
0.0
 10
289.645618
 20
440.310576
 30
0.0
 10
289.645618
 20
440.810576
 30
0.0
 10
289.645618
 20
441.310576
 30
0.0
 10
289.645618
 20
441.810576
 30
0.0
 10
288.967877
 20
441.810576
 30
0.0
 10
288.290136
 20
441.810576
 30
0.0
 10
287.612395
 20
441.810576
 30
0.0
 10
286.934654
 20
441.810576
 30
0.0
 10
286.934654
 20
441.310576
 30
0.0
 10
286.934654
 20
440.810576
 30
0.0
 10
286.934654
 20
440.310576
 30
0.0
 10
286.934654
 20
439.810576
 30
0.0
 10
284.223690
 20
439.810576
 30
0.0
 10
281.512727
 20
439.810576
 30
0.0
 10
278.801763
 20
439.810576
 30
0.0
 10
276.090800
 20
439.810576
 30
0.0
 10
276.090800
 20
439.310576
 30
0.0
 10
276.090800
 20
438.810576
 30
0.0
 10
276.090800
 20
438.310576
 30
0.0
 10
276.090800
 20
437.810576
 30
0.0
 10
278.801763
 20
437.810576
 30
0.0
 10
281.512727
 20
437.810576
 30
0.0
 10
284.223690
 20
437.810576
 30
0.0
 10
286.934654
 20
437.810576
 30
0.0
 10
286.934654
 20
438.310576
 30
0.0
 10
286.934654
 20
438.810576
 30
0.0
 10
286.934654
 20
439.310576
 30
0.0
 10
286.934654
 20
439.810576
 30
0.0
 10
287.612395
 20
439.810576
 30
0.0
 10
288.290136
 20
439.810576
 30
0.0
 10
288.967877
 20
439.810576
 30
0.0
 10
289.645618
 20
439.810576
 30
0.0
  0
LWPOLYLINE
  5
114
100
AcDbEntity
  8
Layer_1
 62
7
100
AcDbPolyline
 90
17
 70
0
 10
289.645618
 20
449.810576
 30
0.0
 10
289.645618
 20
450.310576
 30
0.0
 10
289.645618
 20
450.810576
 30
0.0
 10
289.645618
 20
451.310576
 30
0.0
 10
289.645618
 20
451.810576
 30
0.0
 10
288.967877
 20
451.810576
 30
0.0
 10
288.290136
 20
451.810576
 30
0.0
 10
287.612395
 20
451.810576
 30
0.0
 10
286.934654
 20
451.810576
 30
0.0
 10
286.934654
 20
451.310576
 30
0.0
 10
286.934654
 20
450.810576
 30
0.0
 10
286.934654
 20
450.310576
 30
0.0
 10
286.934654
 20
449.810576
 30
0.0
 10
287.612395
 20
449.810576
 30
0.0
 10
288.290136
 20
449.810576
 30
0.0
 10
288.967877
 20
449.810576
 30
0.0
 10
289.645618
 20
449.810576
 30
0.0
  0
LWPOLYLINE
  5
115
100
AcDbEntity
  8
Layer_1
 62
7
100
AcDbPolyline
 90
17
 70
0
 10
276.090800
 20
439.810576
 30
0.0
 10
276.090800
 20
440.560576
 30
0.0
 10
276.090800
 20
442.810576
 30
0.0
 10
276.090800
 20
446.560576
 30
0.0
 10
276.090800
 20
451.810576
 30
0.0
 10
275.413059
 20
451.810576
 30
0.0
 10
274.735318
 20
451.810576
 30
0.0
 10
274.057577
 20
451.810576
 30
0.0
 10
273.379836
 20
451.810576
 30
0.0
 10
273.379836
 20
451.060568
 30
0.0
 10
273.379836
 20
448.810568
 30
0.0
 10
273.379836
 20
445.060568
 30
0.0
 10
273.379836
 20
439.810576
 30
0.0
 10
274.057577
 20
439.810576
 30
0.0
 10
274.735318
 20
439.810576
 30
0.0
 10
275.413059
 20
439.810576
 30
0.0
 10
276.090800
 20
439.810576
 30
0.0
  0
LWPOLYLINE
  5
116
100
AcDbEntity
  8
Layer_1
 62
7
100
AcDbPolyline
 90
17
 70
0
 10
276.090800
 20
451.810576
 30
0.0
 10
278.801763
 20
451.810576
 30
0.0
 10
281.512727
 20
451.810576
 30
0.0
 10
284.223690
 20
451.810576
 30
0.0
 10
286.934654
 20
451.810576
 30
0.0
 10
286.934654
 20
452.310576
 30
0.0
 10
286.934654
 20
452.810576
 30
0.0
 10
286.934654
 20
453.310576
 30
0.0
 10
286.934654
 20
453.810576
 30
0.0
 10
284.223690
 20
453.810576
 30
0.0
 10
281.512727
 20
453.810576
 30
0.0
 10
278.801763
 20
453.810576
 30
0.0
 10
276.090800
 20
453.810576
 30
0.0
 10
276.090800
 20
453.310576
 30
0.0
 10
276.090800
 20
452.810576
 30
0.0
 10
276.090800
 20
452.310576
 30
0.0
 10
276.090800
 20
451.810576
 30
0.0
  0
LWPOLYLINE
  5
117
100
AcDbEntity
  8
Layer_1
 62
7
100
AcDbPolyline
 90
17
 70
0
 10
308.622363
 20
437.810576
 30
0.0
 10
308.622363
 20
438.310576
 30
0.0
 10
308.622363
 20
438.810576
 30
0.0
 10
308.622363
 20
439.310576
 30
0.0
 10
308.622363
 20
439.810576
 30
0.0
 10
307.266881
 20
439.810576
 30
0.0
 10
305.911399
 20
439.810576
 30
0.0
 10
304.555917
 20
439.810576
 30
0.0
 10
303.200436
 20
439.810576
 30
0.0
 10
303.200436
 20
439.310576
 30
0.0
 10
303.200436
 20
438.810576
 30
0.0
 10
303.200436
 20
438.310576
 30
0.0
 10
303.200436
 20
437.810576
 30
0.0
 10
304.555917
 20
437.810576
 30
0.0
 10
305.911399
 20
437.810576
 30
0.0
 10
307.266881
 20
437.810576
 30
0.0
 10
308.622363
 20
437.810576
 30
0.0
  0
LWPOLYLINE
  5
118
100
AcDbEntity
  8
Layer_1
 62
7
100
AcDbPolyline
 90
49
 70
0
 10
308.622363
 20
451.810576
 30
0.0
 10
308.622363
 20
452.310576
 30
0.0
 10
308.622363
 20
452.810576
 30
0.0
 10
308.622363
 20
453.310576
 30
0.0
 10
308.622363
 20
453.810576
 30
0.0
 10
307.266881
 20
453.810576
 30
0.0
 10
305.911399
 20
453.810576
 30
0.0
 10
304.555917
 20
453.810576
 30
0.0
 10
303.200436
 20
453.810576
 30
0.0
 10
303.200425
 20
454.060568
 30
0.0
 10
303.200425
 20
454.810560
 30
0.0
 10
303.200425
 20
456.060568
 30
0.0
 10
303.200436
 20
457.810576
 30
0.0
 10
302.522695
 20
457.810576
 30
0.0
 10
301.844954
 20
457.810576
 30
0.0
 10
301.167213
 20
457.810576
 30
0.0
 10
300.489472
 20
457.810576
 30
0.0
 10
300.489461
 20
457.560560
 30
0.0
 10
300.489461
 20
456.810560
 30
0.0
 10
300.489461
 20
455.560568
 30
0.0
 10
300.489472
 20
453.810576
 30
0.0
 10
299.133990
 20
453.810576
 30
0.0
 10
297.778508
 20
453.810576
 30
0.0
 10
296.423027
 20
453.810576
 30
0.0
 10
295.067545
 20
453.810576
 30
0.0
 10
295.067545
 20
453.310576
 30
0.0
 10
295.067545
 20
452.810576
 30
0.0
 10
295.067545
 20
452.310576
 30
0.0
 10
295.067545
 20
451.810576
 30
0.0
 10
296.423027
 20
451.810576
 30
0.0
 10
297.778508
 20
451.810576
 30
0.0
 10
299.133990
 20
451.810576
 30
0.0
 10
300.489472
 20
451.810576
 30
0.0
 10
300.489461
 20
451.060568
 30
0.0
 10
300.489461
 20
448.810568
 30
0.0
 10
300.489461
 20
445.060568
 30
0.0
 10
300.489472
 20
439.810576
 30
0.0
 10
301.167213
 20
439.810576
 30
0.0
 10
301.844954
 20
439.810576
 30
0.0
 10
302.522695
 20
439.810576
 30
0.0
 10
303.200436
 20
439.810576
 30
0.0
 10
303.200425
 20
440.560576
 30
0.0
 10
303.200425
 20
442.810576
 30
0.0
 10
303.200425
 20
446.560576
 30
0.0
 10
303.200436
 20
451.810576
 30
0.0
 10
304.555917
 20
451.810576
 30
0.0
 10
305.911399
 20
451.810576
 30
0.0
 10
307.266881
 20
451.810576
 30
0.0
 10
308.622363
 20
451.810576
 30
0.0
  0
LWPOLYLINE
  5
119
100
AcDbEntity
  8
Layer_1
 62
7
100
AcDbPolyline
 90
33
 70
0
 10
319.466217
 20
439.810576
 30
0.0
 10
319.466217
 20
439.310576
 30
0.0
 10
319.466217
 20
438.810576
 30
0.0
 10
319.466217
 20
438.310576
 30
0.0
 10
319.466217
 20
437.810576
 30
0.0
 10
322.177181
 20
437.810576
 30
0.0
 10
324.888144
 20
437.810576
 30
0.0
 10
327.599108
 20
437.810576
 30
0.0
 10
330.310072
 20
437.810576
 30
0.0
 10
330.310072
 20
438.310576
 30
0.0
 10
330.310072
 20
438.810576
 30
0.0
 10
330.310072
 20
439.310576
 30
0.0
 10
330.310072
 20
439.810576
 30
0.0
 10
327.599108
 20
439.810576
 30
0.0
 10
324.888144
 20
439.810576
 30
0.0
 10
322.177181
 20
439.810576
 30
0.0
 10
319.466217
 20
439.810576
 30
0.0
 10
319.466217
 20
440.560576
 30
0.0
 10
319.466217
 20
442.810576
 30
0.0
 10
319.466217
 20
446.560576
 30
0.0
 10
319.466217
 20
451.810576
 30
0.0
 10
318.788476
 20
451.810576
 30
0.0
 10
318.110735
 20
451.810576
 30
0.0
 10
317.432994
 20
451.810576
 30
0.0
 10
316.755254
 20
451.810576
 30
0.0
 10
316.755254
 20
451.060568
 30
0.0
 10
316.755254
 20
448.810568
 30
0.0
 10
316.755254
 20
445.060568
 30
0.0
 10
316.755254
 20
439.810576
 30
0.0
 10
317.432994
 20
439.810576
 30
0.0
 10
318.110735
 20
439.810576
 30
0.0
 10
318.788476
 20
439.810576
 30
0.0
 10
319.466217
 20
439.810576
 30
0.0
  0
LWPOLYLINE
  5
11a
100
AcDbEntity
  8
Layer_1
 62
7
100
AcDbPolyline
 90
17
 70
0
 10
330.310072
 20
439.810576
 30
0.0
 10
330.987812
 20
439.810576
 30
0.0
 10
331.665553
 20
439.810576
 30
0.0
 10
332.343294
 20
439.810576
 30
0.0
 10
333.021035
 20
439.810576
 30
0.0
 10
333.021024
 20
440.560576
 30
0.0
 10
333.021024
 20
442.810576
 30
0.0
 10
333.021024
 20
446.560576
 30
0.0
 10
333.021035
 20
451.810576
 30
0.0
 10
332.343294
 20
451.810576
 30
0.0
 10
331.665553
 20
451.810576
 30
0.0
 10
330.987812
 20
451.810576
 30
0.0
 10
330.310072
 20
451.810576
 30
0.0
 10
330.310061
 20
451.060568
 30
0.0
 10
330.310061
 20
448.810568
 30
0.0
 10
330.310061
 20
445.060568
 30
0.0
 10
330.310072
 20
439.810576
 30
0.0
  0
LWPOLYLINE
  5
11b
100
AcDbEntity
  8
Layer_1
 62
7
100
AcDbPolyline
 90
17
 70
0
 10
319.466217
 20
451.810576
 30
0.0
 10
322.177181
 20
451.810576
 30
0.0
 10
324.888144
 20
451.810576
 30
0.0
 10
327.599108
 20
451.810576
 30
0.0
 10
330.310072
 20
451.810576
 30
0.0
 10
330.310072
 20
452.310576
 30
0.0
 10
330.310072
 20
452.810576
 30
0.0
 10
330.310072
 20
453.310576
 30
0.0
 10
330.310072
 20
453.810576
 30
0.0
 10
327.599108
 20
453.810576
 30
0.0
 10
324.888144
 20
453.810576
 30
0.0
 10
322.177181
 20
453.810576
 30
0.0
 10
319.466217
 20
453.810576
 30
0.0
 10
319.466217
 20
453.310576
 30
0.0
 10
319.466217
 20
452.810576
 30
0.0
 10
319.466217
 20
452.310576
 30
0.0
 10
319.466217
 20
451.810576
 30
0.0
  0
LWPOLYLINE
  5
11c
100
AcDbEntity
  8
Layer_1
 62
7
100
AcDbPolyline
 90
33
 70
0
 10
338.442962
 20
453.810576
 30
0.0
 10
338.442962
 20
452.810568
 30
0.0
 10
338.442962
 20
449.810568
 30
0.0
 10
338.442962
 20
444.810568
 30
0.0
 10
338.442962
 20
437.810576
 30
0.0
 10
339.120703
 20
437.810576
 30
0.0
 10
339.798444
 20
437.810576
 30
0.0
 10
340.476185
 20
437.810576
 30
0.0
 10
341.153926
 20
437.810576
 30
0.0
 10
341.153926
 20
438.560576
 30
0.0
 10
341.153926
 20
440.810576
 30
0.0
 10
341.153926
 20
444.560576
 30
0.0
 10
341.153926
 20
449.810576
 30
0.0
 10
341.831667
 20
449.810576
 30
0.0
 10
342.509408
 20
449.810576
 30
0.0
 10
343.187149
 20
449.810576
 30
0.0
 10
343.864890
 20
449.810576
 30
0.0
 10
343.864890
 20
450.310576
 30
0.0
 10
343.864890
 20
450.810576
 30
0.0
 10
343.864890
 20
451.310576
 30
0.0
 10
343.864890
 20
451.810576
 30
0.0
 10
343.187149
 20
451.810576
 30
0.0
 10
342.509408
 20
451.810576
 30
0.0
 10
341.831667
 20
451.810576
 30
0.0
 10
341.153926
 20
451.810576
 30
0.0
 10
341.153926
 20
452.310576
 30
0.0
 10
341.153926
 20
452.810576
 30
0.0
 10
341.153926
 20
453.310576
 30
0.0
 10
341.153926
 20
453.810576
 30
0.0
 10
340.476185
 20
453.810576
 30
0.0
 10
339.798444
 20
453.810576
 30
0.0
 10
339.120703
 20
453.810576
 30
0.0
 10
338.442962
 20
453.810576
 30
0.0
  0
LWPOLYLINE
  5
11d
100
AcDbEntity
  8
Layer_1
 62
7
100
AcDbPolyline
 90
17
 70
0
 10
351.997780
 20
451.810576
 30
0.0
 10
351.997770
 20
451.560568
 30
0.0
 10
351.997770
 20
450.810568
 30
0.0
 10
351.997770
 20
449.560568
 30
0.0
 10
351.997780
 20
447.810576
 30
0.0
 10
352.675521
 20
447.810576
 30
0.0
 10
353.353262
 20
447.810576
 30
0.0
 10
354.031003
 20
447.810576
 30
0.0
 10
354.708744
 20
447.810576
 30
0.0
 10
354.708733
 20
448.060568
 30
0.0
 10
354.708733
 20
448.810568
 30
0.0
 10
354.708733
 20
450.060568
 30
0.0
 10
354.708744
 20
451.810576
 30
0.0
 10
354.031003
 20
451.810576
 30
0.0
 10
353.353262
 20
451.810576
 30
0.0
 10
352.675521
 20
451.810576
 30
0.0
 10
351.997780
 20
451.810576
 30
0.0
  0
LWPOLYLINE
  5
11e
100
AcDbEntity
  8
Layer_1
 62
7
100
AcDbPolyline
 90
17
 70
0
 10
343.864890
 20
451.810576
 30
0.0
 10
345.898112
 20
451.810576
 30
0.0
 10
347.931335
 20
451.810576
 30
0.0
 10
349.964558
 20
451.810576
 30
0.0
 10
351.997780
 20
451.810576
 30
0.0
 10
351.997780
 20
452.310576
 30
0.0
 10
351.997780
 20
452.810576
 30
0.0
 10
351.997780
 20
453.310576
 30
0.0
 10
351.997780
 20
453.810576
 30
0.0
 10
349.964558
 20
453.810576
 30
0.0
 10
347.931335
 20
453.810576
 30
0.0
 10
345.898112
 20
453.810576
 30
0.0
 10
343.864890
 20
453.810576
 30
0.0
 10
343.864890
 20
453.310576
 30
0.0
 10
343.864890
 20
452.810576
 30
0.0
 10
343.864890
 20
452.310576
 30
0.0
 10
343.864890
 20
451.810576
 30
0.0
  0
LWPOLYLINE
  5
11f
100
AcDbEntity
  8
Layer_1
 62
7
100
AcDbPolyline
 90
65
 70
0
 10
373.685489
 20
435.810576
 30
0.0
 10
370.974526
 20
435.810576
 30
0.0
 10
368.263562
 20
435.810576
 30
0.0
 10
365.552598
 20
435.810576
 30
0.0
 10
362.841635
 20
435.810576
 30
0.0
 10
362.841635
 20
435.310576
 30
0.0
 10
362.841635
 20
434.810576
 30
0.0
 10
362.841635
 20
434.310576
 30
0.0
 10
362.841635
 20
433.810576
 30
0.0
 10
365.552598
 20
433.810576
 30
0.0
 10
368.263562
 20
433.810576
 30
0.0
 10
370.974526
 20
433.810576
 30
0.0
 10
373.685489
 20
433.810576
 30
0.0
 10
373.685489
 20
434.310576
 30
0.0
 10
373.685489
 20
434.810576
 30
0.0
 10
373.685489
 20
435.310576
 30
0.0
 10
373.685489
 20
435.810576
 30
0.0
 10
374.363230
 20
435.810576
 30
0.0
 10
375.040971
 20
435.810576
 30
0.0
 10
375.718712
 20
435.810576
 30
0.0
 10
376.396453
 20
435.810576
 30
0.0
 10
376.396453
 20
440.310576
 30
0.0
 10
376.396453
 20
444.810576
 30
0.0
 10
376.396453
 20
449.310576
 30
0.0
 10
376.396453
 20
453.810576
 30
0.0
 10
375.718712
 20
453.810576
 30
0.0
 10
375.040971
 20
453.810576
 30
0.0
 10
374.363230
 20
453.810576
 30
0.0
 10
373.685489
 20
453.810576
 30
0.0
 10
373.685489
 20
451.310576
 30
0.0
 10
373.685489
 20
448.810576
 30
0.0
 10
373.685489
 20
446.310576
 30
0.0
 10
373.685489
 20
443.810576
 30
0.0
 10
373.007748
 20
443.810576
 30
0.0
 10
372.330007
 20
443.810576
 30
0.0
 10
371.652266
 20
443.810576
 30
0.0
 10
370.974526
 20
443.810576
 30
0.0
 10
370.974526
 20
443.310576
 30
0.0
 10
370.974526
 20
442.810576
 30
0.0
 10
370.974526
 20
442.310576
 30
0.0
 10
370.974526
 20
441.810576
 30
0.0
 10
369.619044
 20
441.810576
 30
0.0
 10
368.263562
 20
441.810576
 30
0.0
 10
366.908080
 20
441.810576
 30
0.0
 10
365.552598
 20
441.810576
 30
0.0
 10
365.552598
 20
441.310576
 30
0.0
 10
365.552598
 20
440.810576
 30
0.0
 10
365.552598
 20
440.310576
 30
0.0
 10
365.552598
 20
439.810576
 30
0.0
 10
366.908080
 20
439.810576
 30
0.0
 10
368.263562
 20
439.810576
 30
0.0
 10
369.619044
 20
439.810576
 30
0.0
 10
370.974526
 20
439.810576
 30
0.0
 10
370.974526
 20
440.310576
 30
0.0
 10
370.974526
 20
440.810576
 30
0.0
 10
370.974526
 20
441.310576
 30
0.0
 10
370.974526
 20
441.810576
 30
0.0
 10
371.652266
 20
441.810576
 30
0.0
 10
372.330007
 20
441.810576
 30
0.0
 10
373.007748
 20
441.810576
 30
0.0
 10
373.685489
 20
441.810576
 30
0.0
 10
373.685489
 20
440.310576
 30
0.0
 10
373.685489
 20
438.810576
 30
0.0
 10
373.685489
 20
437.310576
 30
0.0
 10
373.685489
 20
435.810576
 30
0.0
  0
LWPOLYLINE
  5
120
100
AcDbEntity
  8
Layer_1
 62
7
100
AcDbPolyline
 90
17
 70
0
 10
365.552598
 20
441.810576
 30
0.0
 10
365.552598
 20
442.310576
 30
0.0
 10
365.552598
 20
442.810576
 30
0.0
 10
365.552598
 20
443.310576
 30
0.0
 10
365.552598
 20
443.810576
 30
0.0
 10
364.874857
 20
443.810576
 30
0.0
 10
364.197117
 20
443.810576
 30
0.0
 10
363.519376
 20
443.810576
 30
0.0
 10
362.841635
 20
443.810576
 30
0.0
 10
362.841635
 20
443.310576
 30
0.0
 10
362.841635
 20
442.810576
 30
0.0
 10
362.841635
 20
442.310576
 30
0.0
 10
362.841635
 20
441.810576
 30
0.0
 10
363.519376
 20
441.810576
 30
0.0
 10
364.197117
 20
441.810576
 30
0.0
 10
364.874857
 20
441.810576
 30
0.0
 10
365.552598
 20
441.810576
 30
0.0
  0
LWPOLYLINE
  5
121
100
AcDbEntity
  8
Layer_1
 62
7
100
AcDbPolyline
 90
17
 70
0
 10
362.841635
 20
443.810576
 30
0.0
 10
362.841635
 20
446.310576
 30
0.0
 10
362.841635
 20
448.810576
 30
0.0
 10
362.841635
 20
451.310576
 30
0.0
 10
362.841635
 20
453.810576
 30
0.0
 10
362.163894
 20
453.810576
 30
0.0
 10
361.486153
 20
453.810576
 30
0.0
 10
360.808412
 20
453.810576
 30
0.0
 10
360.130671
 20
453.810576
 30
0.0
 10
360.130671
 20
451.310576
 30
0.0
 10
360.130671
 20
448.810576
 30
0.0
 10
360.130671
 20
446.310576
 30
0.0
 10
360.130671
 20
443.810576
 30
0.0
 10
360.808412
 20
443.810576
 30
0.0
 10
361.486153
 20
443.810576
 30
0.0
 10
362.163894
 20
443.810576
 30
0.0
 10
362.841635
 20
443.810576
 30
0.0
  0
LWPOLYLINE
  5
122
100
AcDbEntity
  8
Layer_1
 62
7
100
AcDbPolyline
 90
33
 70
0
 10
96.788863
 20
491.085657
 30
0.0
 10
96.608261
 20
489.294142
 30
0.0
 10
96.090293
 20
487.625524
 30
0.0
 10
95.270703
 20
486.115540
 30
0.0
 10
94.185231
 20
484.799940
 30
0.0
 10
92.869637
 20
483.714473
 30
0.0
 10
91.359653
 20
482.894884
 30
0.0
 10
89.691029
 20
482.376910
 30
0.0
 10
87.899519
 20
482.196313
 30
0.0
 10
86.108004
 20
482.376910
 30
0.0
 10
84.439386
 20
482.894884
 30
0.0
 10
82.929402
 20
483.714473
 30
0.0
 10
81.613802
 20
484.799940
 30
0.0
 10
80.528335
 20
486.115540
 30
0.0
 10
79.708746
 20
487.625524
 30
0.0
 10
79.190772
 20
489.294142
 30
0.0
 10
79.010175
 20
491.085657
 30
0.0
 10
79.190772
 20
492.877167
 30
0.0
 10
79.708746
 20
494.545791
 30
0.0
 10
80.528335
 20
496.055769
 30
0.0
 10
81.613802
 20
497.371369
 30
0.0
 10
82.929402
 20
498.456836
 30
0.0
 10
84.439386
 20
499.276425
 30
0.0
 10
86.108004
 20
499.794399
 30
0.0
 10
87.899519
 20
499.974996
 30
0.0
 10
89.691029
 20
499.794399
 30
0.0
 10
91.359653
 20
499.276425
 30
0.0
 10
92.869637
 20
498.456836
 30
0.0
 10
94.185231
 20
497.371369
 30
0.0
 10
95.270703
 20
496.055769
 30
0.0
 10
96.090293
 20
494.545791
 30
0.0
 10
96.608261
 20
492.877167
 30
0.0
 10
96.788863
 20
491.085657
 30
0.0
  0
ENDSEC
  0
SECTION
  2
OBJECTS
  0
DICTIONARY
  5
C
330
0
100
AcDbDictionary
  3
ACAD_GROUP
350
D
  3
ACAD_MLINESTYLE
350
17
  0
DICTIONARY
  5
D
330
C
100
AcDbDictionary
  0
DICTIONARY
  5
1A
330
C
100
AcDbDictionary
  0
DICTIONARY
  5
17
330
C
100
AcDbDictionary
  3
STANDARD
350
18
  0
DICTIONARY
  5
19
330
C
100
AcDbDictionary
  0
ENDSEC
  0
EOF
