<?xml version="1.0" encoding="UTF-8" standalone="no"?>
<!-- Created with Inkscape (http://www.inkscape.org/) -->

<svg
   xmlns:dc="http://purl.org/dc/elements/1.1/"
   xmlns:cc="http://creativecommons.org/ns#"
   xmlns:rdf="http://www.w3.org/1999/02/22-rdf-syntax-ns#"
   xmlns:svg="http://www.w3.org/2000/svg"
   xmlns="http://www.w3.org/2000/svg"
   xmlns:sodipodi="http://sodipodi.sourceforge.net/DTD/sodipodi-0.dtd"
   xmlns:inkscape="http://www.inkscape.org/namespaces/inkscape"
   width="1052.3622"
   height="744.09448"
   id="svg3064"
   version="1.1"
   inkscape:version="0.48.4 r9939"
   sodipodi:docname="logo.svg">
  <defs
     id="defs3" />
  <sodipodi:namedview
     inkscape:document-units="mm"
     id="base"
     pagecolor="#ffffff"
     bordercolor="#666666"
     borderopacity="1.0"
     inkscape:pageopacity="0.0"
     inkscape:pageshadow="2"
     inkscape:zoom="1.979899"
     inkscape:cx="302.67183"
     inkscape:cy="663.87704"
     inkscape:current-layer="layer1"
     showgrid="false"
     units="mm"
     inkscape:window-width="1600"
     inkscape:window-height="830"
     inkscape:window-x="0"
     inkscape:window-y="30"
     inkscape:window-maximized="1" />
  <metadata
     id="metadata4">
    <rdf:RDF>
      <cc:Work
         rdf:about="">
        <dc:format>image/svg+xml</dc:format>
        <dc:type
           rdf:resource="http://purl.org/dc/dcmitype/StillImage" />
        <dc:title />
      </cc:Work>
    </rdf:RDF>
  </metadata>
  <g
     inkscape:label="Layer 1"
     inkscape:groupmode="layer"
     id="layer1"
     transform="translate(0,-308.2677)">
    <path
       inkscape:connector-curvature="0"
       d="m 41.74078,351.53375 8.623657,0.15308 10.970922,1.04607 10.996435,1.68391 10.843355,2.29624 10.511673,2.85754 10.026908,3.36782 9.36356,3.80155 8.54711,4.20977 7.55208,4.56697 1.53083,1.07157 4.51594,1.88802 4.33734,2.24522 4.13323,2.55137 3.92912,2.85755 7.16937,6.53152 6.14882,7.5776 2.62792,4.10771 2.34726,4.33734 2.01559,4.51594 1.70942,4.72005 1.32672,4.84762 0.99504,5.0007 0.20411,1.78596 -45.59311,0 -0.89299,-1.68391 -2.34726,-2.80651 -2.80652,-2.34727 -3.24025,-1.73494 -3.57193,-1.12261 -3.82706,-0.3827 -3.82707,0.3827 -3.57192,1.12261 -3.240253,1.73494 -2.806517,2.34727 -2.347268,2.80651 -1.734936,3.24025 -1.122607,3.57193 -0.382706,3.82706 0.382706,3.82707 1.122607,3.57193 1.734936,3.24025 2.347268,2.80651 2.806517,2.32176 3.240253,1.76045 3.57192,1.09709 3.82707,0.38271 3.82706,-0.38271 3.57193,-1.09709 3.24025,-1.76045 2.80652,-2.32176 2.34726,-2.80651 1.73494,-3.24025 0.0765,-0.22963 44.80219,0 -0.99504,6.40396 -1.76045,6.60807 -2.39829,6.3019 -3.01063,5.99574 -3.57193,5.58752 -4.0822,5.17929 -4.56697,4.74556 0.10206,1.22466 0.5613,4.84762 0.96952,4.03117 1.50532,3.57193 2.14315,3.46988 3.11268,3.49538 3.64847,3.16371 6.09779,3.67398 7.11835,3.03613 8.36851,2.47486 9.84832,1.99006 1.91353,0.38272 -0.3827,0.33166 -6.02125,1.45428 -7.55208,0.96954 -16.99217,0 -10.99644,-1.04607 -10.99643,-1.68392 -10.84336,-2.29623 -10.51167,-2.85755 -10.02691,-3.36781 -9.36356,-3.80155 -8.547112,-4.20977 -7.552079,-4.56697 -1.836991,-1.32671 -4.439398,-1.93905 -4.286314,-2.24521 -7.934783,-5.43444 -7.041801,-6.53152 -6.046763,-7.52657 -4.898646,-8.41954 -1.990072,-4.49042 -1.658397,-4.66902 -1.326717,-4.79659 -0.94401,-4.97519 -0.586816,-5.07724 -0.20411,-5.20481 0.357194,-7.01629 1.071578,-6.81218 1.734936,-6.53152 2.372781,-6.25088 2.959597,-5.9447 3.495388,-5.56201 4.031176,-5.15378 4.490423,-4.72005 -0.127568,-1.55634 -0.561303,-4.84761 -0.995036,-4.03118 -1.505313,-3.57193 -2.143158,-3.46987 -3.112679,-3.49539 -3.622956,-3.18922 -6.097791,-3.67398 -7.118345,-3.01063 -8.368518,-2.47484 -9.848315,-1.99007 -1.913533,-0.38271 0.382707,-0.33167 6.02125,-1.45429 7.552075,-0.96953 8.368519,-0.17859 0,0"
       style="fill:#000000;stroke:#000000;stroke-width:0.28802216000000003"
       id="path34" />
    <flowRoot
       xml:space="preserve"
       id="flowRoot3845"
       style="font-size:40px;font-style:normal;font-variant:normal;font-weight:bold;font-stretch:condensed;line-height:125%;letter-spacing:0px;word-spacing:0px;fill:#000000;fill-opacity:1;stroke:none;font-family:PT Sans Narrow;-inkscape-font-specification:PT Sans Narrow Bold Condensed"
       transform="matrix(3.3045412,0,0,1.8799682,-432.33335,227.9071)"><flowRegion
         id="flowRegion3847"><rect
           id="rect3849"
           width="330"
           height="155"
           x="184.28572"
           y="81.951622"
           style="font-style:normal;font-variant:normal;font-weight:bold;font-stretch:condensed;letter-spacing:0px;font-family:PT Sans Narrow;-inkscape-font-specification:PT Sans Narrow Bold Condensed" /></flowRegion><flowPara
         id="flowPara3851"
         style="font-style:normal;font-variant:normal;font-weight:bold;font-stretch:condensed;letter-spacing:0px;font-family:PT Sans Narrow;-inkscape-font-specification:PT Sans Narrow Bold Condensed">yclone</flowPara></flowRoot>    <flowRoot
       xml:space="preserve"
       id="flowRoot3865"
       style="font-size:40px;font-style:normal;font-variant:normal;font-weight:bold;font-stretch:normal;line-height:125%;letter-spacing:0px;word-spacing:0px;fill:#666666;fill-opacity:1;stroke:none;font-family:unifont;-inkscape-font-specification:unifont Bold"
       transform="matrix(1.3554818,0,0,1,-80.889015,314.41055)"><flowRegion
         id="flowRegion3867"><rect
           id="rect3869"
           width="334.28571"
           height="115"
           x="189.28572"
           y="149.80876"
           style="font-size:40px;font-style:normal;font-variant:normal;font-weight:bold;font-stretch:normal;fill:#666666;font-family:unifont;-inkscape-font-specification:unifont Bold" /></flowRegion><flowPara
         id="flowPara3871">PCB Factory</flowPara></flowRoot>    <path
       sodipodi:type="arc"
       style="fill:#000000"
       id="path2991"
       sodipodi:cx="119.70308"
       sodipodi:cy="138.76057"
       sodipodi:rx="16.667517"
       sodipodi:ry="16.667517"
       d="m 136.3706,138.76057 a 16.667517,16.667517 0 1 1 -33.33504,0 16.667517,16.667517 0 1 1 33.33504,0 z"
       transform="matrix(0.66666668,0,0,0.66666668,30.072344,345.99806)" />
  </g>
</svg>
