  0
SECTION
  2
BLOCKS
  0
ENDSEC
  0
SECTION
  2
ENTITIES
  0
LINE
  8
0
 10
106.231
 20
362.204
 11
106.948
 21
362.388
  0
LINE
  8
0
 10
106.948
 20
362.388
 11
107.636
 21
362.66
  0
LINE
  8
0
 10
107.636
 20
362.66
 11
129.033
 21
374.172
  0
LINE
  8
0
 10
129.033
 20
374.172
 11
129.662
 21
374.518
  0
LINE
  8
0
 10
129.662
 20
374.518
 11
130.261
 21
374.953
  0
LINE
  8
0
 10
130.261
 20
374.953
 11
130.801
 21
375.461
  0
LINE
  8
0
 10
130.801
 20
375.461
 11
131.274
 21
376.032
  0
LINE
  8
0
 10
131.274
 20
376.032
 11
131.671
 21
376.657
  0
LINE
  8
0
 10
131.671
 20
376.657
 11
131.986
 21
377.328
  0
LINE
  8
0
 10
131.986
 20
377.328
 11
132.215
 21
378.033
  0
LINE
  8
0
 10
132.215
 20
378.033
 11
132.354
 21
378.76
  0
LINE
  8
0
 10
132.354
 20
378.76
 11
132.401
 21
379.5
  0
LINE
  8
0
 10
132.401
 20
379.5
 11
132.354
 21
380.24
  0
LINE
  8
0
 10
132.354
 20
380.24
 11
132.215
 21
380.967
  0
LINE
  8
0
 10
132.215
 20
380.967
 11
131.986
 21
381.672
  0
LINE
  8
0
 10
131.986
 20
381.672
 11
131.671
 21
382.343
  0
LINE
  8
0
 10
131.671
 20
382.343
 11
131.274
 21
382.968
  0
LINE
  8
0
 10
131.274
 20
382.968
 11
130.801
 21
383.539
  0
LINE
  8
0
 10
130.801
 20
383.539
 11
130.261
 21
384.047
  0
LINE
  8
0
 10
130.261
 20
384.047
 11
129.662
 21
384.482
  0
LINE
  8
0
 10
129.662
 20
384.482
 11
129.012
 21
384.839
  0
LINE
  8
0
 10
129.012
 20
384.839
 11
128.323
 21
385.112
  0
LINE
  8
0
 10
128.323
 20
385.112
 11
127.606
 21
385.296
  0
LINE
  8
0
 10
127.606
 20
385.296
 11
126.87
 21
385.389
  0
LINE
  8
0
 10
126.87
 20
385.389
 11
120.901
 21
385.389
  0
LINE
  8
0
 10
120.901
 20
385.389
 11
120.901
 21
385.4
  0
LINE
  8
0
 10
120.901
 20
385.4
 11
89.3506
 21
385.4
  0
LINE
  8
0
 10
89.3506
 20
385.4
 11
89.3505
 21
385.389
  0
LINE
  8
0
 10
89.3505
 20
385.389
 11
83.3795
 21
385.389
  0
LINE
  8
0
 10
83.3795
 20
385.389
 11
82.6443
 21
385.296
  0
LINE
  8
0
 10
82.6443
 20
385.296
 11
81.9265
 21
385.112
  0
LINE
  8
0
 10
81.9265
 20
385.112
 11
81.2375
 21
384.839
  0
LINE
  8
0
 10
81.2375
 20
384.839
 11
80.5882
 21
384.482
  0
LINE
  8
0
 10
80.5882
 20
384.482
 11
79.9887
 21
384.047
  0
LINE
  8
0
 10
79.9887
 20
384.047
 11
79.4485
 21
383.539
  0
LINE
  8
0
 10
79.4485
 20
383.539
 11
78.9762
 21
382.968
  0
LINE
  8
0
 10
78.9762
 20
382.968
 11
78.5791
 21
382.343
  0
LINE
  8
0
 10
78.5791
 20
382.343
 11
78.2636
 21
381.672
  0
LINE
  8
0
 10
78.2636
 20
381.672
 11
78.0346
 21
380.967
  0
LINE
  8
0
 10
78.0346
 20
380.967
 11
77.8957
 21
380.24
  0
LINE
  8
0
 10
77.8957
 20
380.24
 11
77.8492
 21
379.5
  0
LINE
  8
0
 10
77.8492
 20
379.5
 11
77.8957
 21
378.76
  0
LINE
  8
0
 10
77.8957
 20
378.76
 11
78.0346
 21
378.033
  0
LINE
  8
0
 10
78.0346
 20
378.033
 11
78.2636
 21
377.328
  0
LINE
  8
0
 10
78.2636
 20
377.328
 11
78.5791
 21
376.657
  0
LINE
  8
0
 10
78.5791
 20
376.657
 11
78.9762
 21
376.032
  0
LINE
  8
0
 10
78.9762
 20
376.032
 11
79.4485
 21
375.461
  0
LINE
  8
0
 10
79.4485
 20
375.461
 11
79.9887
 21
374.953
  0
LINE
  8
0
 10
79.9887
 20
374.953
 11
80.5882
 21
374.518
  0
LINE
  8
0
 10
80.5882
 20
374.518
 11
81.2171
 21
374.172
  0
LINE
  8
0
 10
81.2171
 20
374.172
 11
102.614
 21
362.66
  0
LINE
  8
0
 10
102.614
 20
362.66
 11
103.302
 21
362.388
  0
LINE
  8
0
 10
103.302
 20
362.388
 11
104.019
 21
362.204
  0
LINE
  8
0
 10
104.019
 20
362.204
 11
104.754
 21
362.111
  0
LINE
  8
0
 10
104.754
 20
362.111
 11
105.495
 21
362.111
  0
LINE
  8
0
 10
105.495
 20
362.111
 11
106.231
 21
362.204
  0
LINE
  8
0
 10
83.75
 20
378.011
 11
83.5633
 21
378.023
  0
LINE
  8
0
 10
83.5633
 20
378.023
 11
83.3796
 21
378.058
  0
LINE
  8
0
 10
83.3796
 20
378.058
 11
83.2018
 21
378.115
  0
LINE
  8
0
 10
83.2018
 20
378.115
 11
83.0325
 21
378.195
  0
LINE
  8
0
 10
83.0325
 20
378.195
 11
82.8746
 21
378.295
  0
LINE
  8
0
 10
82.8746
 20
378.295
 11
82.7306
 21
378.414
  0
LINE
  8
0
 10
82.7306
 20
378.414
 11
82.6026
 21
378.551
  0
LINE
  8
0
 10
82.6026
 20
378.551
 11
82.4926
 21
378.702
  0
LINE
  8
0
 10
82.4926
 20
378.702
 11
82.4025
 21
378.866
  0
LINE
  8
0
 10
82.4025
 20
378.866
 11
82.3337
 21
379.04
  0
LINE
  8
0
 10
82.3337
 20
379.04
 11
82.2872
 21
379.221
  0
LINE
  8
0
 10
82.2872
 20
379.221
 11
82.2637
 21
379.407
  0
LINE
  8
0
 10
82.2637
 20
379.407
 11
82.2637
 21
379.593
  0
LINE
  8
0
 10
82.2637
 20
379.593
 11
82.2872
 21
379.779
  0
LINE
  8
0
 10
82.2872
 20
379.779
 11
82.3337
 21
379.96
  0
LINE
  8
0
 10
82.3337
 20
379.96
 11
82.4025
 21
380.134
  0
LINE
  8
0
 10
82.4025
 20
380.134
 11
82.4926
 21
380.298
  0
LINE
  8
0
 10
82.4926
 20
380.298
 11
82.6026
 21
380.449
  0
LINE
  8
0
 10
82.6026
 20
380.449
 11
82.7306
 21
380.586
  0
LINE
  8
0
 10
82.7306
 20
380.586
 11
82.8747
 21
380.705
  0
LINE
  8
0
 10
82.8747
 20
380.705
 11
83.0326
 21
380.805
  0
LINE
  8
0
 10
83.0326
 20
380.805
 11
83.2018
 21
380.885
  0
LINE
  8
0
 10
83.2018
 20
380.885
 11
83.3796
 21
380.942
  0
LINE
  8
0
 10
83.3796
 20
380.942
 11
83.5633
 21
380.977
  0
LINE
  8
0
 10
83.5633
 20
380.977
 11
83.75
 21
380.989
  0
LINE
  8
0
 10
83.75
 20
380.989
 11
83.9367
 21
380.977
  0
LINE
  8
0
 10
83.9367
 20
380.977
 11
84.1204
 21
380.942
  0
LINE
  8
0
 10
84.1204
 20
380.942
 11
84.2982
 21
380.885
  0
LINE
  8
0
 10
84.2982
 20
380.885
 11
84.4675
 21
380.805
  0
LINE
  8
0
 10
84.4675
 20
380.805
 11
84.6253
 21
380.705
  0
LINE
  8
0
 10
84.6253
 20
380.705
 11
84.7694
 21
380.586
  0
LINE
  8
0
 10
84.7694
 20
380.586
 11
84.8974
 21
380.449
  0
LINE
  8
0
 10
84.8974
 20
380.449
 11
85.0074
 21
380.298
  0
LINE
  8
0
 10
85.0074
 20
380.298
 11
85.0974
 21
380.134
  0
LINE
  8
0
 10
85.0974
 20
380.134
 11
85.1663
 21
379.96
  0
LINE
  8
0
 10
85.1663
 20
379.96
 11
85.2128
 21
379.779
  0
LINE
  8
0
 10
85.2128
 20
379.779
 11
85.2363
 21
379.593
  0
LINE
  8
0
 10
85.2363
 20
379.593
 11
85.2363
 21
379.407
  0
LINE
  8
0
 10
85.2363
 20
379.407
 11
85.2128
 21
379.221
  0
LINE
  8
0
 10
85.2128
 20
379.221
 11
85.1663
 21
379.04
  0
LINE
  8
0
 10
85.1663
 20
379.04
 11
85.0974
 21
378.866
  0
LINE
  8
0
 10
85.0974
 20
378.866
 11
85.0074
 21
378.702
  0
LINE
  8
0
 10
85.0074
 20
378.702
 11
84.8974
 21
378.551
  0
LINE
  8
0
 10
84.8974
 20
378.551
 11
84.7694
 21
378.414
  0
LINE
  8
0
 10
84.7694
 20
378.414
 11
84.6254
 21
378.295
  0
LINE
  8
0
 10
84.6254
 20
378.295
 11
84.4674
 21
378.195
  0
LINE
  8
0
 10
84.4674
 20
378.195
 11
84.2982
 21
378.115
  0
LINE
  8
0
 10
84.2982
 20
378.115
 11
84.1204
 21
378.058
  0
LINE
  8
0
 10
84.1204
 20
378.058
 11
83.9367
 21
378.023
  0
LINE
  8
0
 10
83.9367
 20
378.023
 11
83.75
 21
378.011
  0
LINE
  8
0
 10
126.5
 20
378.011
 11
126.313
 21
378.023
  0
LINE
  8
0
 10
126.313
 20
378.023
 11
126.13
 21
378.058
  0
LINE
  8
0
 10
126.13
 20
378.058
 11
125.952
 21
378.115
  0
LINE
  8
0
 10
125.952
 20
378.115
 11
125.783
 21
378.195
  0
LINE
  8
0
 10
125.783
 20
378.195
 11
125.625
 21
378.295
  0
LINE
  8
0
 10
125.625
 20
378.295
 11
125.481
 21
378.414
  0
LINE
  8
0
 10
125.481
 20
378.414
 11
125.353
 21
378.551
  0
LINE
  8
0
 10
125.353
 20
378.551
 11
125.243
 21
378.702
  0
LINE
  8
0
 10
125.243
 20
378.702
 11
125.153
 21
378.866
  0
LINE
  8
0
 10
125.153
 20
378.866
 11
125.084
 21
379.04
  0
LINE
  8
0
 10
125.084
 20
379.04
 11
125.037
 21
379.221
  0
LINE
  8
0
 10
125.037
 20
379.221
 11
125.014
 21
379.407
  0
LINE
  8
0
 10
125.014
 20
379.407
 11
125.014
 21
379.593
  0
LINE
  8
0
 10
125.014
 20
379.593
 11
125.037
 21
379.779
  0
LINE
  8
0
 10
125.037
 20
379.779
 11
125.084
 21
379.96
  0
LINE
  8
0
 10
125.084
 20
379.96
 11
125.153
 21
380.134
  0
LINE
  8
0
 10
125.153
 20
380.134
 11
125.243
 21
380.298
  0
LINE
  8
0
 10
125.243
 20
380.298
 11
125.353
 21
380.449
  0
LINE
  8
0
 10
125.353
 20
380.449
 11
125.481
 21
380.586
  0
LINE
  8
0
 10
125.481
 20
380.586
 11
125.625
 21
380.705
  0
LINE
  8
0
 10
125.625
 20
380.705
 11
125.783
 21
380.805
  0
LINE
  8
0
 10
125.783
 20
380.805
 11
125.952
 21
380.885
  0
LINE
  8
0
 10
125.952
 20
380.885
 11
126.13
 21
380.942
  0
LINE
  8
0
 10
126.13
 20
380.942
 11
126.313
 21
380.977
  0
LINE
  8
0
 10
126.313
 20
380.977
 11
126.5
 21
380.989
  0
LINE
  8
0
 10
126.5
 20
380.989
 11
126.687
 21
380.977
  0
LINE
  8
0
 10
126.687
 20
380.977
 11
126.87
 21
380.942
  0
LINE
  8
0
 10
126.87
 20
380.942
 11
127.048
 21
380.885
  0
LINE
  8
0
 10
127.048
 20
380.885
 11
127.217
 21
380.805
  0
LINE
  8
0
 10
127.217
 20
380.805
 11
127.375
 21
380.705
  0
LINE
  8
0
 10
127.375
 20
380.705
 11
127.519
 21
380.586
  0
LINE
  8
0
 10
127.519
 20
380.586
 11
127.647
 21
380.449
  0
LINE
  8
0
 10
127.647
 20
380.449
 11
127.757
 21
380.298
  0
LINE
  8
0
 10
127.757
 20
380.298
 11
127.847
 21
380.134
  0
LINE
  8
0
 10
127.847
 20
380.134
 11
127.916
 21
379.96
  0
LINE
  8
0
 10
127.916
 20
379.96
 11
127.963
 21
379.779
  0
LINE
  8
0
 10
127.963
 20
379.779
 11
127.986
 21
379.593
  0
LINE
  8
0
 10
127.986
 20
379.593
 11
127.986
 21
379.407
  0
LINE
  8
0
 10
127.986
 20
379.407
 11
127.963
 21
379.221
  0
LINE
  8
0
 10
127.963
 20
379.221
 11
127.916
 21
379.04
  0
LINE
  8
0
 10
127.916
 20
379.04
 11
127.847
 21
378.866
  0
LINE
  8
0
 10
127.847
 20
378.866
 11
127.757
 21
378.702
  0
LINE
  8
0
 10
127.757
 20
378.702
 11
127.647
 21
378.551
  0
LINE
  8
0
 10
127.647
 20
378.551
 11
127.519
 21
378.414
  0
LINE
  8
0
 10
127.519
 20
378.414
 11
127.375
 21
378.295
  0
LINE
  8
0
 10
127.375
 20
378.295
 11
127.217
 21
378.195
  0
LINE
  8
0
 10
127.217
 20
378.195
 11
127.048
 21
378.115
  0
LINE
  8
0
 10
127.048
 20
378.115
 11
126.87
 21
378.058
  0
LINE
  8
0
 10
126.87
 20
378.058
 11
126.687
 21
378.023
  0
LINE
  8
0
 10
126.687
 20
378.023
 11
126.5
 21
378.011
  0
LINE
  8
0
 10
105.125
 20
366.511
 11
104.938
 21
366.523
  0
LINE
  8
0
 10
104.938
 20
366.523
 11
104.755
 21
366.558
  0
LINE
  8
0
 10
104.755
 20
366.558
 11
104.577
 21
366.615
  0
LINE
  8
0
 10
104.577
 20
366.615
 11
104.408
 21
366.695
  0
LINE
  8
0
 10
104.408
 20
366.695
 11
104.25
 21
366.795
  0
LINE
  8
0
 10
104.25
 20
366.795
 11
104.106
 21
366.914
  0
LINE
  8
0
 10
104.106
 20
366.914
 11
103.978
 21
367.051
  0
LINE
  8
0
 10
103.978
 20
367.051
 11
103.868
 21
367.202
  0
LINE
  8
0
 10
103.868
 20
367.202
 11
103.778
 21
367.366
  0
LINE
  8
0
 10
103.778
 20
367.366
 11
103.709
 21
367.54
  0
LINE
  8
0
 10
103.709
 20
367.54
 11
103.662
 21
367.721
  0
LINE
  8
0
 10
103.662
 20
367.721
 11
103.639
 21
367.907
  0
LINE
  8
0
 10
103.639
 20
367.907
 11
103.639
 21
368.093
  0
LINE
  8
0
 10
103.639
 20
368.093
 11
103.662
 21
368.279
  0
LINE
  8
0
 10
103.662
 20
368.279
 11
103.709
 21
368.46
  0
LINE
  8
0
 10
103.709
 20
368.46
 11
103.778
 21
368.634
  0
LINE
  8
0
 10
103.778
 20
368.634
 11
103.868
 21
368.798
  0
LINE
  8
0
 10
103.868
 20
368.798
 11
103.978
 21
368.949
  0
LINE
  8
0
 10
103.978
 20
368.949
 11
104.106
 21
369.086
  0
LINE
  8
0
 10
104.106
 20
369.086
 11
104.25
 21
369.205
  0
LINE
  8
0
 10
104.25
 20
369.205
 11
104.408
 21
369.305
  0
LINE
  8
0
 10
104.408
 20
369.305
 11
104.577
 21
369.385
  0
LINE
  8
0
 10
104.577
 20
369.385
 11
104.755
 21
369.442
  0
LINE
  8
0
 10
104.755
 20
369.442
 11
104.938
 21
369.477
  0
LINE
  8
0
 10
104.938
 20
369.477
 11
105.125
 21
369.489
  0
LINE
  8
0
 10
105.125
 20
369.489
 11
105.312
 21
369.477
  0
LINE
  8
0
 10
105.312
 20
369.477
 11
105.495
 21
369.442
  0
LINE
  8
0
 10
105.495
 20
369.442
 11
105.673
 21
369.385
  0
LINE
  8
0
 10
105.673
 20
369.385
 11
105.842
 21
369.305
  0
LINE
  8
0
 10
105.842
 20
369.305
 11
106
 21
369.205
  0
LINE
  8
0
 10
106
 20
369.205
 11
106.144
 21
369.086
  0
LINE
  8
0
 10
106.144
 20
369.086
 11
106.272
 21
368.949
  0
LINE
  8
0
 10
106.272
 20
368.949
 11
106.382
 21
368.798
  0
LINE
  8
0
 10
106.382
 20
368.798
 11
106.472
 21
368.634
  0
LINE
  8
0
 10
106.472
 20
368.634
 11
106.541
 21
368.46
  0
LINE
  8
0
 10
106.541
 20
368.46
 11
106.588
 21
368.279
  0
LINE
  8
0
 10
106.588
 20
368.279
 11
106.611
 21
368.093
  0
LINE
  8
0
 10
106.611
 20
368.093
 11
106.611
 21
367.907
  0
LINE
  8
0
 10
106.611
 20
367.907
 11
106.588
 21
367.721
  0
LINE
  8
0
 10
106.588
 20
367.721
 11
106.541
 21
367.54
  0
LINE
  8
0
 10
106.541
 20
367.54
 11
106.472
 21
367.366
  0
LINE
  8
0
 10
106.472
 20
367.366
 11
106.382
 21
367.202
  0
LINE
  8
0
 10
106.382
 20
367.202
 11
106.272
 21
367.051
  0
LINE
  8
0
 10
106.272
 20
367.051
 11
106.144
 21
366.914
  0
LINE
  8
0
 10
106.144
 20
366.914
 11
106
 21
366.795
  0
LINE
  8
0
 10
106
 20
366.795
 11
105.842
 21
366.695
  0
LINE
  8
0
 10
105.842
 20
366.695
 11
105.673
 21
366.615
  0
LINE
  8
0
 10
105.673
 20
366.615
 11
105.495
 21
366.558
  0
LINE
  8
0
 10
105.495
 20
366.558
 11
105.312
 21
366.523
  0
LINE
  8
0
 10
105.312
 20
366.523
 11
105.125
 21
366.511
  0
LINE
  8
0
 10
-104.019
 20
362.204
 11
-103.302
 21
362.388
  0
LINE
  8
0
 10
-103.302
 20
362.388
 11
-102.614
 21
362.66
  0
LINE
  8
0
 10
-102.614
 20
362.66
 11
-81.2171
 21
374.172
  0
LINE
  8
0
 10
-81.2171
 20
374.172
 11
-80.5882
 21
374.518
  0
LINE
  8
0
 10
-80.5882
 20
374.518
 11
-79.9887
 21
374.953
  0
LINE
  8
0
 10
-79.9887
 20
374.953
 11
-79.4485
 21
375.461
  0
LINE
  8
0
 10
-79.4485
 20
375.461
 11
-78.9762
 21
376.032
  0
LINE
  8
0
 10
-78.9762
 20
376.032
 11
-78.5791
 21
376.657
  0
LINE
  8
0
 10
-78.5791
 20
376.657
 11
-78.2636
 21
377.328
  0
LINE
  8
0
 10
-78.2636
 20
377.328
 11
-78.0346
 21
378.033
  0
LINE
  8
0
 10
-78.0346
 20
378.033
 11
-77.8957
 21
378.76
  0
LINE
  8
0
 10
-77.8957
 20
378.76
 11
-77.8492
 21
379.5
  0
LINE
  8
0
 10
-77.8492
 20
379.5
 11
-77.8957
 21
380.24
  0
LINE
  8
0
 10
-77.8957
 20
380.24
 11
-78.0346
 21
380.967
  0
LINE
  8
0
 10
-78.0346
 20
380.967
 11
-78.2636
 21
381.672
  0
LINE
  8
0
 10
-78.2636
 20
381.672
 11
-78.5791
 21
382.343
  0
LINE
  8
0
 10
-78.5791
 20
382.343
 11
-78.9762
 21
382.968
  0
LINE
  8
0
 10
-78.9762
 20
382.968
 11
-79.4485
 21
383.539
  0
LINE
  8
0
 10
-79.4485
 20
383.539
 11
-79.9887
 21
384.047
  0
LINE
  8
0
 10
-79.9887
 20
384.047
 11
-80.5882
 21
384.482
  0
LINE
  8
0
 10
-80.5882
 20
384.482
 11
-81.2375
 21
384.839
  0
LINE
  8
0
 10
-81.2375
 20
384.839
 11
-81.9265
 21
385.112
  0
LINE
  8
0
 10
-81.9265
 20
385.112
 11
-82.6443
 21
385.296
  0
LINE
  8
0
 10
-82.6443
 20
385.296
 11
-83.3795
 21
385.389
  0
LINE
  8
0
 10
-83.3795
 20
385.389
 11
-89.35
 21
385.389
  0
LINE
  8
0
 10
-89.35
 20
385.389
 11
-89.35
 21
385.4
  0
LINE
  8
0
 10
-89.35
 20
385.4
 11
-120.9
 21
385.4
  0
LINE
  8
0
 10
-120.9
 20
385.4
 11
-120.9
 21
385.389
  0
LINE
  8
0
 10
-120.9
 20
385.389
 11
-126.87
 21
385.389
  0
LINE
  8
0
 10
-126.87
 20
385.389
 11
-127.606
 21
385.296
  0
LINE
  8
0
 10
-127.606
 20
385.296
 11
-128.323
 21
385.112
  0
LINE
  8
0
 10
-128.323
 20
385.112
 11
-129.012
 21
384.839
  0
LINE
  8
0
 10
-129.012
 20
384.839
 11
-129.662
 21
384.482
  0
LINE
  8
0
 10
-129.662
 20
384.482
 11
-130.261
 21
384.047
  0
LINE
  8
0
 10
-130.261
 20
384.047
 11
-130.801
 21
383.539
  0
LINE
  8
0
 10
-130.801
 20
383.539
 11
-131.274
 21
382.968
  0
LINE
  8
0
 10
-131.274
 20
382.968
 11
-131.671
 21
382.343
  0
LINE
  8
0
 10
-131.671
 20
382.343
 11
-131.986
 21
381.672
  0
LINE
  8
0
 10
-131.986
 20
381.672
 11
-132.215
 21
380.967
  0
LINE
  8
0
 10
-132.215
 20
380.967
 11
-132.354
 21
380.24
  0
LINE
  8
0
 10
-132.354
 20
380.24
 11
-132.401
 21
379.5
  0
LINE
  8
0
 10
-132.401
 20
379.5
 11
-132.354
 21
378.76
  0
LINE
  8
0
 10
-132.354
 20
378.76
 11
-132.215
 21
378.033
  0
LINE
  8
0
 10
-132.215
 20
378.033
 11
-131.986
 21
377.328
  0
LINE
  8
0
 10
-131.986
 20
377.328
 11
-131.671
 21
376.657
  0
LINE
  8
0
 10
-131.671
 20
376.657
 11
-131.274
 21
376.032
  0
LINE
  8
0
 10
-131.274
 20
376.032
 11
-130.801
 21
375.461
  0
LINE
  8
0
 10
-130.801
 20
375.461
 11
-130.261
 21
374.953
  0
LINE
  8
0
 10
-130.261
 20
374.953
 11
-129.662
 21
374.518
  0
LINE
  8
0
 10
-129.662
 20
374.518
 11
-129.033
 21
374.172
  0
LINE
  8
0
 10
-129.033
 20
374.172
 11
-107.636
 21
362.66
  0
LINE
  8
0
 10
-107.636
 20
362.66
 11
-106.948
 21
362.388
  0
LINE
  8
0
 10
-106.948
 20
362.388
 11
-106.231
 21
362.204
  0
LINE
  8
0
 10
-106.231
 20
362.204
 11
-105.495
 21
362.111
  0
LINE
  8
0
 10
-105.495
 20
362.111
 11
-104.754
 21
362.111
  0
LINE
  8
0
 10
-104.754
 20
362.111
 11
-104.019
 21
362.204
  0
LINE
  8
0
 10
-126.687
 20
378.023
 11
-126.87
 21
378.058
  0
LINE
  8
0
 10
-126.87
 20
378.058
 11
-127.048
 21
378.115
  0
LINE
  8
0
 10
-127.048
 20
378.115
 11
-127.217
 21
378.195
  0
LINE
  8
0
 10
-127.217
 20
378.195
 11
-127.375
 21
378.295
  0
LINE
  8
0
 10
-127.375
 20
378.295
 11
-127.519
 21
378.414
  0
LINE
  8
0
 10
-127.519
 20
378.414
 11
-127.647
 21
378.551
  0
LINE
  8
0
 10
-127.647
 20
378.551
 11
-127.757
 21
378.702
  0
LINE
  8
0
 10
-127.757
 20
378.702
 11
-127.847
 21
378.866
  0
LINE
  8
0
 10
-127.847
 20
378.866
 11
-127.916
 21
379.04
  0
LINE
  8
0
 10
-127.916
 20
379.04
 11
-127.963
 21
379.221
  0
LINE
  8
0
 10
-127.963
 20
379.221
 11
-127.986
 21
379.407
  0
LINE
  8
0
 10
-127.986
 20
379.407
 11
-127.986
 21
379.593
  0
LINE
  8
0
 10
-127.986
 20
379.593
 11
-127.963
 21
379.779
  0
LINE
  8
0
 10
-127.963
 20
379.779
 11
-127.916
 21
379.96
  0
LINE
  8
0
 10
-127.916
 20
379.96
 11
-127.847
 21
380.134
  0
LINE
  8
0
 10
-127.847
 20
380.134
 11
-127.757
 21
380.298
  0
LINE
  8
0
 10
-127.757
 20
380.298
 11
-127.647
 21
380.449
  0
LINE
  8
0
 10
-127.647
 20
380.449
 11
-127.519
 21
380.586
  0
LINE
  8
0
 10
-127.519
 20
380.586
 11
-127.375
 21
380.705
  0
LINE
  8
0
 10
-127.375
 20
380.705
 11
-127.217
 21
380.805
  0
LINE
  8
0
 10
-127.217
 20
380.805
 11
-127.048
 21
380.885
  0
LINE
  8
0
 10
-127.048
 20
380.885
 11
-126.87
 21
380.942
  0
LINE
  8
0
 10
-126.87
 20
380.942
 11
-126.687
 21
380.977
  0
LINE
  8
0
 10
-126.687
 20
380.977
 11
-126.5
 21
380.989
  0
LINE
  8
0
 10
-126.5
 20
380.989
 11
-126.313
 21
380.977
  0
LINE
  8
0
 10
-126.313
 20
380.977
 11
-126.13
 21
380.942
  0
LINE
  8
0
 10
-126.13
 20
380.942
 11
-125.952
 21
380.885
  0
LINE
  8
0
 10
-125.952
 20
380.885
 11
-125.783
 21
380.805
  0
LINE
  8
0
 10
-125.783
 20
380.805
 11
-125.625
 21
380.705
  0
LINE
  8
0
 10
-125.625
 20
380.705
 11
-125.481
 21
380.586
  0
LINE
  8
0
 10
-125.481
 20
380.586
 11
-125.353
 21
380.449
  0
LINE
  8
0
 10
-125.353
 20
380.449
 11
-125.243
 21
380.298
  0
LINE
  8
0
 10
-125.243
 20
380.298
 11
-125.153
 21
380.134
  0
LINE
  8
0
 10
-125.153
 20
380.134
 11
-125.084
 21
379.96
  0
LINE
  8
0
 10
-125.084
 20
379.96
 11
-125.037
 21
379.779
  0
LINE
  8
0
 10
-125.037
 20
379.779
 11
-125.014
 21
379.593
  0
LINE
  8
0
 10
-125.014
 20
379.593
 11
-125.014
 21
379.407
  0
LINE
  8
0
 10
-125.014
 20
379.407
 11
-125.037
 21
379.221
  0
LINE
  8
0
 10
-125.037
 20
379.221
 11
-125.084
 21
379.04
  0
LINE
  8
0
 10
-125.084
 20
379.04
 11
-125.153
 21
378.866
  0
LINE
  8
0
 10
-125.153
 20
378.866
 11
-125.243
 21
378.702
  0
LINE
  8
0
 10
-125.243
 20
378.702
 11
-125.353
 21
378.551
  0
LINE
  8
0
 10
-125.353
 20
378.551
 11
-125.481
 21
378.414
  0
LINE
  8
0
 10
-125.481
 20
378.414
 11
-125.625
 21
378.295
  0
LINE
  8
0
 10
-125.625
 20
378.295
 11
-125.783
 21
378.195
  0
LINE
  8
0
 10
-125.783
 20
378.195
 11
-125.952
 21
378.115
  0
LINE
  8
0
 10
-125.952
 20
378.115
 11
-126.13
 21
378.058
  0
LINE
  8
0
 10
-126.13
 20
378.058
 11
-126.313
 21
378.023
  0
LINE
  8
0
 10
-126.313
 20
378.023
 11
-126.5
 21
378.011
  0
LINE
  8
0
 10
-126.5
 20
378.011
 11
-126.687
 21
378.023
  0
LINE
  8
0
 10
-83.9367
 20
378.023
 11
-84.1204
 21
378.058
  0
LINE
  8
0
 10
-84.1204
 20
378.058
 11
-84.2982
 21
378.115
  0
LINE
  8
0
 10
-84.2982
 20
378.115
 11
-84.4674
 21
378.195
  0
LINE
  8
0
 10
-84.4674
 20
378.195
 11
-84.6254
 21
378.295
  0
LINE
  8
0
 10
-84.6254
 20
378.295
 11
-84.7694
 21
378.414
  0
LINE
  8
0
 10
-84.7694
 20
378.414
 11
-84.8974
 21
378.551
  0
LINE
  8
0
 10
-84.8974
 20
378.551
 11
-85.0074
 21
378.702
  0
LINE
  8
0
 10
-85.0074
 20
378.702
 11
-85.0974
 21
378.866
  0
LINE
  8
0
 10
-85.0974
 20
378.866
 11
-85.1663
 21
379.04
  0
LINE
  8
0
 10
-85.1663
 20
379.04
 11
-85.2128
 21
379.221
  0
LINE
  8
0
 10
-85.2128
 20
379.221
 11
-85.2363
 21
379.407
  0
LINE
  8
0
 10
-85.2363
 20
379.407
 11
-85.2363
 21
379.593
  0
LINE
  8
0
 10
-85.2363
 20
379.593
 11
-85.2128
 21
379.779
  0
LINE
  8
0
 10
-85.2128
 20
379.779
 11
-85.1663
 21
379.96
  0
LINE
  8
0
 10
-85.1663
 20
379.96
 11
-85.0974
 21
380.134
  0
LINE
  8
0
 10
-85.0974
 20
380.134
 11
-85.0074
 21
380.298
  0
LINE
  8
0
 10
-85.0074
 20
380.298
 11
-84.8974
 21
380.449
  0
LINE
  8
0
 10
-84.8974
 20
380.449
 11
-84.7694
 21
380.586
  0
LINE
  8
0
 10
-84.7694
 20
380.586
 11
-84.6253
 21
380.705
  0
LINE
  8
0
 10
-84.6253
 20
380.705
 11
-84.4675
 21
380.805
  0
LINE
  8
0
 10
-84.4675
 20
380.805
 11
-84.2982
 21
380.885
  0
LINE
  8
0
 10
-84.2982
 20
380.885
 11
-84.1204
 21
380.942
  0
LINE
  8
0
 10
-84.1204
 20
380.942
 11
-83.9367
 21
380.977
  0
LINE
  8
0
 10
-83.9367
 20
380.977
 11
-83.75
 21
380.989
  0
LINE
  8
0
 10
-83.75
 20
380.989
 11
-83.5633
 21
380.977
  0
LINE
  8
0
 10
-83.5633
 20
380.977
 11
-83.3796
 21
380.942
  0
LINE
  8
0
 10
-83.3796
 20
380.942
 11
-83.2018
 21
380.885
  0
LINE
  8
0
 10
-83.2018
 20
380.885
 11
-83.0326
 21
380.805
  0
LINE
  8
0
 10
-83.0326
 20
380.805
 11
-82.8747
 21
380.705
  0
LINE
  8
0
 10
-82.8747
 20
380.705
 11
-82.7306
 21
380.586
  0
LINE
  8
0
 10
-82.7306
 20
380.586
 11
-82.6026
 21
380.449
  0
LINE
  8
0
 10
-82.6026
 20
380.449
 11
-82.4926
 21
380.298
  0
LINE
  8
0
 10
-82.4926
 20
380.298
 11
-82.4025
 21
380.134
  0
LINE
  8
0
 10
-82.4025
 20
380.134
 11
-82.3337
 21
379.96
  0
LINE
  8
0
 10
-82.3337
 20
379.96
 11
-82.2872
 21
379.779
  0
LINE
  8
0
 10
-82.2872
 20
379.779
 11
-82.2637
 21
379.593
  0
LINE
  8
0
 10
-82.2637
 20
379.593
 11
-82.2637
 21
379.407
  0
LINE
  8
0
 10
-82.2637
 20
379.407
 11
-82.2872
 21
379.221
  0
LINE
  8
0
 10
-82.2872
 20
379.221
 11
-82.3337
 21
379.04
  0
LINE
  8
0
 10
-82.3337
 20
379.04
 11
-82.4025
 21
378.866
  0
LINE
  8
0
 10
-82.4025
 20
378.866
 11
-82.4926
 21
378.702
  0
LINE
  8
0
 10
-82.4926
 20
378.702
 11
-82.6026
 21
378.551
  0
LINE
  8
0
 10
-82.6026
 20
378.551
 11
-82.7306
 21
378.414
  0
LINE
  8
0
 10
-82.7306
 20
378.414
 11
-82.8746
 21
378.295
  0
LINE
  8
0
 10
-82.8746
 20
378.295
 11
-83.0325
 21
378.195
  0
LINE
  8
0
 10
-83.0325
 20
378.195
 11
-83.2018
 21
378.115
  0
LINE
  8
0
 10
-83.2018
 20
378.115
 11
-83.3796
 21
378.058
  0
LINE
  8
0
 10
-83.3796
 20
378.058
 11
-83.5633
 21
378.023
  0
LINE
  8
0
 10
-83.5633
 20
378.023
 11
-83.75
 21
378.011
  0
LINE
  8
0
 10
-83.75
 20
378.011
 11
-83.9367
 21
378.023
  0
LINE
  8
0
 10
-105.312
 20
366.523
 11
-105.495
 21
366.558
  0
LINE
  8
0
 10
-105.495
 20
366.558
 11
-105.673
 21
366.615
  0
LINE
  8
0
 10
-105.673
 20
366.615
 11
-105.842
 21
366.695
  0
LINE
  8
0
 10
-105.842
 20
366.695
 11
-106
 21
366.795
  0
LINE
  8
0
 10
-106
 20
366.795
 11
-106.144
 21
366.914
  0
LINE
  8
0
 10
-106.144
 20
366.914
 11
-106.272
 21
367.051
  0
LINE
  8
0
 10
-106.272
 20
367.051
 11
-106.382
 21
367.202
  0
LINE
  8
0
 10
-106.382
 20
367.202
 11
-106.472
 21
367.366
  0
LINE
  8
0
 10
-106.472
 20
367.366
 11
-106.541
 21
367.54
  0
LINE
  8
0
 10
-106.541
 20
367.54
 11
-106.588
 21
367.721
  0
LINE
  8
0
 10
-106.588
 20
367.721
 11
-106.611
 21
367.907
  0
LINE
  8
0
 10
-106.611
 20
367.907
 11
-106.611
 21
368.093
  0
LINE
  8
0
 10
-106.611
 20
368.093
 11
-106.588
 21
368.279
  0
LINE
  8
0
 10
-106.588
 20
368.279
 11
-106.541
 21
368.46
  0
LINE
  8
0
 10
-106.541
 20
368.46
 11
-106.472
 21
368.634
  0
LINE
  8
0
 10
-106.472
 20
368.634
 11
-106.382
 21
368.798
  0
LINE
  8
0
 10
-106.382
 20
368.798
 11
-106.272
 21
368.949
  0
LINE
  8
0
 10
-106.272
 20
368.949
 11
-106.144
 21
369.086
  0
LINE
  8
0
 10
-106.144
 20
369.086
 11
-106
 21
369.205
  0
LINE
  8
0
 10
-106
 20
369.205
 11
-105.842
 21
369.305
  0
LINE
  8
0
 10
-105.842
 20
369.305
 11
-105.673
 21
369.385
  0
LINE
  8
0
 10
-105.673
 20
369.385
 11
-105.495
 21
369.442
  0
LINE
  8
0
 10
-105.495
 20
369.442
 11
-105.312
 21
369.477
  0
LINE
  8
0
 10
-105.312
 20
369.477
 11
-105.125
 21
369.489
  0
LINE
  8
0
 10
-105.125
 20
369.489
 11
-104.938
 21
369.477
  0
LINE
  8
0
 10
-104.938
 20
369.477
 11
-104.755
 21
369.442
  0
LINE
  8
0
 10
-104.755
 20
369.442
 11
-104.577
 21
369.385
  0
LINE
  8
0
 10
-104.577
 20
369.385
 11
-104.408
 21
369.305
  0
LINE
  8
0
 10
-104.408
 20
369.305
 11
-104.25
 21
369.205
  0
LINE
  8
0
 10
-104.25
 20
369.205
 11
-104.106
 21
369.086
  0
LINE
  8
0
 10
-104.106
 20
369.086
 11
-103.978
 21
368.949
  0
LINE
  8
0
 10
-103.978
 20
368.949
 11
-103.868
 21
368.798
  0
LINE
  8
0
 10
-103.868
 20
368.798
 11
-103.778
 21
368.634
  0
LINE
  8
0
 10
-103.778
 20
368.634
 11
-103.709
 21
368.46
  0
LINE
  8
0
 10
-103.709
 20
368.46
 11
-103.662
 21
368.279
  0
LINE
  8
0
 10
-103.662
 20
368.279
 11
-103.639
 21
368.093
  0
LINE
  8
0
 10
-103.639
 20
368.093
 11
-103.639
 21
367.907
  0
LINE
  8
0
 10
-103.639
 20
367.907
 11
-103.662
 21
367.721
  0
LINE
  8
0
 10
-103.662
 20
367.721
 11
-103.709
 21
367.54
  0
LINE
  8
0
 10
-103.709
 20
367.54
 11
-103.778
 21
367.366
  0
LINE
  8
0
 10
-103.778
 20
367.366
 11
-103.868
 21
367.202
  0
LINE
  8
0
 10
-103.868
 20
367.202
 11
-103.978
 21
367.051
  0
LINE
  8
0
 10
-103.978
 20
367.051
 11
-104.106
 21
366.914
  0
LINE
  8
0
 10
-104.106
 20
366.914
 11
-104.25
 21
366.795
  0
LINE
  8
0
 10
-104.25
 20
366.795
 11
-104.408
 21
366.695
  0
LINE
  8
0
 10
-104.408
 20
366.695
 11
-104.577
 21
366.615
  0
LINE
  8
0
 10
-104.577
 20
366.615
 11
-104.755
 21
366.558
  0
LINE
  8
0
 10
-104.755
 20
366.558
 11
-104.938
 21
366.523
  0
LINE
  8
0
 10
-104.938
 20
366.523
 11
-105.125
 21
366.511
  0
LINE
  8
0
 10
-105.125
 20
366.511
 11
-105.312
 21
366.523
  0
LINE
  8
0
 10
16.9
 20
351.611
 11
22.8705
 21
351.611
  0
LINE
  8
0
 10
22.8705
 20
351.611
 11
23.6057
 21
351.704
  0
LINE
  8
0
 10
23.6057
 20
351.704
 11
24.3234
 21
351.888
  0
LINE
  8
0
 10
24.3234
 20
351.888
 11
25.0124
 21
352.161
  0
LINE
  8
0
 10
25.0124
 20
352.161
 11
25.6618
 21
352.518
  0
LINE
  8
0
 10
25.6618
 20
352.518
 11
26.2613
 21
352.953
  0
LINE
  8
0
 10
26.2613
 20
352.953
 11
26.8015
 21
353.461
  0
LINE
  8
0
 10
26.8015
 20
353.461
 11
27.2738
 21
354.032
  0
LINE
  8
0
 10
27.2738
 20
354.032
 11
27.6709
 21
354.657
  0
LINE
  8
0
 10
27.6709
 20
354.657
 11
27.9864
 21
355.328
  0
LINE
  8
0
 10
27.9864
 20
355.328
 11
28.2154
 21
356.033
  0
LINE
  8
0
 10
28.2154
 20
356.033
 11
28.3542
 21
356.76
  0
LINE
  8
0
 10
28.3542
 20
356.76
 11
28.4008
 21
357.5
  0
LINE
  8
0
 10
28.4008
 20
357.5
 11
28.3542
 21
358.24
  0
LINE
  8
0
 10
28.3542
 20
358.24
 11
28.2154
 21
358.967
  0
LINE
  8
0
 10
28.2154
 20
358.967
 11
27.9864
 21
359.672
  0
LINE
  8
0
 10
27.9864
 20
359.672
 11
27.6709
 21
360.343
  0
LINE
  8
0
 10
27.6709
 20
360.343
 11
27.2738
 21
360.968
  0
LINE
  8
0
 10
27.2738
 20
360.968
 11
26.8015
 21
361.539
  0
LINE
  8
0
 10
26.8015
 20
361.539
 11
26.2619
 21
362.046
  0
LINE
  8
0
 10
26.2619
 20
362.046
 11
3.74165
 21
378.561
  0
LINE
  8
0
 10
3.74165
 20
378.561
 11
3.16179
 21
378.982
  0
LINE
  8
0
 10
3.16179
 20
378.982
 11
2.51244
 21
379.339
  0
LINE
  8
0
 10
2.51244
 20
379.339
 11
1.82344
 21
379.612
  0
LINE
  8
0
 10
1.82344
 20
379.612
 11
1.1057
 21
379.796
  0
LINE
  8
0
 10
1.1057
 20
379.796
 11
0.370499
 21
379.889
  0
LINE
  8
0
 10
0.370499
 20
379.889
 11
-0.370499
 21
379.889
  0
LINE
  8
0
 10
-0.370499
 20
379.889
 11
-1.1057
 21
379.796
  0
LINE
  8
0
 10
-1.1057
 20
379.796
 11
-1.82344
 21
379.612
  0
LINE
  8
0
 10
-1.82344
 20
379.612
 11
-2.51244
 21
379.339
  0
LINE
  8
0
 10
-2.51244
 20
379.339
 11
-3.16179
 21
378.982
  0
LINE
  8
0
 10
-3.16179
 20
378.982
 11
-3.74165
 21
378.561
  0
LINE
  8
0
 10
-3.74165
 20
378.561
 11
-26.2619
 21
362.046
  0
LINE
  8
0
 10
-26.2619
 20
362.046
 11
-26.8015
 21
361.539
  0
LINE
  8
0
 10
-26.8015
 20
361.539
 11
-27.2738
 21
360.968
  0
LINE
  8
0
 10
-27.2738
 20
360.968
 11
-27.6709
 21
360.343
  0
LINE
  8
0
 10
-27.6709
 20
360.343
 11
-27.9864
 21
359.672
  0
LINE
  8
0
 10
-27.9864
 20
359.672
 11
-28.2154
 21
358.967
  0
LINE
  8
0
 10
-28.2154
 20
358.967
 11
-28.3542
 21
358.24
  0
LINE
  8
0
 10
-28.3542
 20
358.24
 11
-28.4008
 21
357.5
  0
LINE
  8
0
 10
-28.4008
 20
357.5
 11
-28.3542
 21
356.76
  0
LINE
  8
0
 10
-28.3542
 20
356.76
 11
-28.2154
 21
356.033
  0
LINE
  8
0
 10
-28.2154
 20
356.033
 11
-27.9864
 21
355.328
  0
LINE
  8
0
 10
-27.9864
 20
355.328
 11
-27.6709
 21
354.657
  0
LINE
  8
0
 10
-27.6709
 20
354.657
 11
-27.2738
 21
354.032
  0
LINE
  8
0
 10
-27.2738
 20
354.032
 11
-26.8015
 21
353.461
  0
LINE
  8
0
 10
-26.8015
 20
353.461
 11
-26.2613
 21
352.953
  0
LINE
  8
0
 10
-26.2613
 20
352.953
 11
-25.6618
 21
352.518
  0
LINE
  8
0
 10
-25.6618
 20
352.518
 11
-25.0124
 21
352.161
  0
LINE
  8
0
 10
-25.0124
 20
352.161
 11
-24.3234
 21
351.888
  0
LINE
  8
0
 10
-24.3234
 20
351.888
 11
-23.6057
 21
351.704
  0
LINE
  8
0
 10
-23.6057
 20
351.704
 11
-22.8705
 21
351.611
  0
LINE
  8
0
 10
-22.8705
 20
351.611
 11
-16.9
 21
351.611
  0
LINE
  8
0
 10
-16.9
 20
351.611
 11
-16.9
 21
351.6
  0
LINE
  8
0
 10
-16.9
 20
351.6
 11
16.9
 21
351.6
  0
LINE
  8
0
 10
16.9
 20
351.6
 11
16.9
 21
351.611
  0
LINE
  8
0
 10
1.52588e-05
 20
372.511
 11
-0.186661
 21
372.523
  0
LINE
  8
0
 10
-0.186661
 20
372.523
 11
-0.370377
 21
372.558
  0
LINE
  8
0
 10
-0.370377
 20
372.558
 11
-0.548203
 21
372.615
  0
LINE
  8
0
 10
-0.548203
 20
372.615
 11
-0.717422
 21
372.695
  0
LINE
  8
0
 10
-0.717422
 20
372.695
 11
-0.87532
 21
372.795
  0
LINE
  8
0
 10
-0.87532
 20
372.795
 11
-1.01939
 21
372.914
  0
LINE
  8
0
 10
-1.01939
 20
372.914
 11
-1.14742
 21
373.051
  0
LINE
  8
0
 10
-1.14742
 20
373.051
 11
-1.25739
 21
373.202
  0
LINE
  8
0
 10
-1.25739
 20
373.202
 11
-1.34746
 21
373.366
  0
LINE
  8
0
 10
-1.34746
 20
373.366
 11
-1.41631
 21
373.54
  0
LINE
  8
0
 10
-1.41631
 20
373.54
 11
-1.46283
 21
373.721
  0
LINE
  8
0
 10
-1.46283
 20
373.721
 11
-1.48627
 21
373.907
  0
LINE
  8
0
 10
-1.48627
 20
373.907
 11
-1.48627
 21
374.093
  0
LINE
  8
0
 10
-1.48627
 20
374.093
 11
-1.46283
 21
374.279
  0
LINE
  8
0
 10
-1.46283
 20
374.279
 11
-1.41631
 21
374.46
  0
LINE
  8
0
 10
-1.41631
 20
374.46
 11
-1.34746
 21
374.634
  0
LINE
  8
0
 10
-1.34746
 20
374.634
 11
-1.25739
 21
374.798
  0
LINE
  8
0
 10
-1.25739
 20
374.798
 11
-1.14742
 21
374.949
  0
LINE
  8
0
 10
-1.14742
 20
374.949
 11
-1.01939
 21
375.086
  0
LINE
  8
0
 10
-1.01939
 20
375.086
 11
-0.875351
 21
375.205
  0
LINE
  8
0
 10
-0.875351
 20
375.205
 11
-0.717438
 21
375.305
  0
LINE
  8
0
 10
-0.717438
 20
375.305
 11
-0.548141
 21
375.385
  0
LINE
  8
0
 10
-0.548141
 20
375.385
 11
-0.370377
 21
375.442
  0
LINE
  8
0
 10
-0.370377
 20
375.442
 11
-0.186661
 21
375.477
  0
LINE
  8
0
 10
-0.186661
 20
375.477
 11
-1.52588e-05
 21
375.489
  0
LINE
  8
0
 10
-1.52588e-05
 20
375.489
 11
0.186661
 21
375.477
  0
LINE
  8
0
 10
0.186661
 20
375.477
 11
0.370377
 21
375.442
  0
LINE
  8
0
 10
0.370377
 20
375.442
 11
0.548218
 21
375.385
  0
LINE
  8
0
 10
0.548218
 20
375.385
 11
0.717377
 21
375.305
  0
LINE
  8
0
 10
0.717377
 20
375.305
 11
0.875351
 21
375.205
  0
LINE
  8
0
 10
0.875351
 20
375.205
 11
1.01939
 21
375.086
  0
LINE
  8
0
 10
1.01939
 20
375.086
 11
1.14745
 21
374.949
  0
LINE
  8
0
 10
1.14745
 20
374.949
 11
1.25742
 21
374.798
  0
LINE
  8
0
 10
1.25742
 20
374.798
 11
1.34743
 21
374.634
  0
LINE
  8
0
 10
1.34743
 20
374.634
 11
1.41631
 21
374.46
  0
LINE
  8
0
 10
1.41631
 20
374.46
 11
1.46283
 21
374.279
  0
LINE
  8
0
 10
1.46283
 20
374.279
 11
1.48627
 21
374.093
  0
LINE
  8
0
 10
1.48627
 20
374.093
 11
1.48627
 21
373.907
  0
LINE
  8
0
 10
1.48627
 20
373.907
 11
1.46283
 21
373.721
  0
LINE
  8
0
 10
1.46283
 20
373.721
 11
1.41631
 21
373.54
  0
LINE
  8
0
 10
1.41631
 20
373.54
 11
1.34743
 21
373.366
  0
LINE
  8
0
 10
1.34743
 20
373.366
 11
1.25742
 21
373.202
  0
LINE
  8
0
 10
1.25742
 20
373.202
 11
1.14745
 21
373.051
  0
LINE
  8
0
 10
1.14745
 20
373.051
 11
1.01939
 21
372.914
  0
LINE
  8
0
 10
1.01939
 20
372.914
 11
0.87532
 21
372.795
  0
LINE
  8
0
 10
0.87532
 20
372.795
 11
0.717468
 21
372.695
  0
LINE
  8
0
 10
0.717468
 20
372.695
 11
0.548172
 21
372.615
  0
LINE
  8
0
 10
0.548172
 20
372.615
 11
0.370377
 21
372.558
  0
LINE
  8
0
 10
0.370377
 20
372.558
 11
0.186676
 21
372.523
  0
LINE
  8
0
 10
0.186676
 20
372.523
 11
1.52588e-05
 21
372.511
  0
LINE
  8
0
 10
-22.5
 20
356.011
 11
-22.6867
 21
356.023
  0
LINE
  8
0
 10
-22.6867
 20
356.023
 11
-22.8704
 21
356.058
  0
LINE
  8
0
 10
-22.8704
 20
356.058
 11
-23.0482
 21
356.115
  0
LINE
  8
0
 10
-23.0482
 20
356.115
 11
-23.2174
 21
356.195
  0
LINE
  8
0
 10
-23.2174
 20
356.195
 11
-23.3753
 21
356.295
  0
LINE
  8
0
 10
-23.3753
 20
356.295
 11
-23.5194
 21
356.414
  0
LINE
  8
0
 10
-23.5194
 20
356.414
 11
-23.6474
 21
356.551
  0
LINE
  8
0
 10
-23.6474
 20
356.551
 11
-23.7574
 21
356.702
  0
LINE
  8
0
 10
-23.7574
 20
356.702
 11
-23.8475
 21
356.866
  0
LINE
  8
0
 10
-23.8475
 20
356.866
 11
-23.9163
 21
357.04
  0
LINE
  8
0
 10
-23.9163
 20
357.04
 11
-23.9628
 21
357.221
  0
LINE
  8
0
 10
-23.9628
 20
357.221
 11
-23.9863
 21
357.407
  0
LINE
  8
0
 10
-23.9863
 20
357.407
 11
-23.9863
 21
357.593
  0
LINE
  8
0
 10
-23.9863
 20
357.593
 11
-23.9628
 21
357.779
  0
LINE
  8
0
 10
-23.9628
 20
357.779
 11
-23.9163
 21
357.96
  0
LINE
  8
0
 10
-23.9163
 20
357.96
 11
-23.8475
 21
358.134
  0
LINE
  8
0
 10
-23.8475
 20
358.134
 11
-23.7574
 21
358.298
  0
LINE
  8
0
 10
-23.7574
 20
358.298
 11
-23.6474
 21
358.449
  0
LINE
  8
0
 10
-23.6474
 20
358.449
 11
-23.5194
 21
358.586
  0
LINE
  8
0
 10
-23.5194
 20
358.586
 11
-23.3754
 21
358.705
  0
LINE
  8
0
 10
-23.3754
 20
358.705
 11
-23.2174
 21
358.805
  0
LINE
  8
0
 10
-23.2174
 20
358.805
 11
-23.0481
 21
358.885
  0
LINE
  8
0
 10
-23.0481
 20
358.885
 11
-22.8704
 21
358.942
  0
LINE
  8
0
 10
-22.8704
 20
358.942
 11
-22.6867
 21
358.977
  0
LINE
  8
0
 10
-22.6867
 20
358.977
 11
-22.5
 21
358.989
  0
LINE
  8
0
 10
-22.5
 20
358.989
 11
-22.3133
 21
358.977
  0
LINE
  8
0
 10
-22.3133
 20
358.977
 11
-22.1296
 21
358.942
  0
LINE
  8
0
 10
-22.1296
 20
358.942
 11
-21.9518
 21
358.885
  0
LINE
  8
0
 10
-21.9518
 20
358.885
 11
-21.7826
 21
358.805
  0
LINE
  8
0
 10
-21.7826
 20
358.805
 11
-21.6246
 21
358.705
  0
LINE
  8
0
 10
-21.6246
 20
358.705
 11
-21.4806
 21
358.586
  0
LINE
  8
0
 10
-21.4806
 20
358.586
 11
-21.3525
 21
358.449
  0
LINE
  8
0
 10
-21.3525
 20
358.449
 11
-21.2426
 21
358.298
  0
LINE
  8
0
 10
-21.2426
 20
358.298
 11
-21.1526
 21
358.134
  0
LINE
  8
0
 10
-21.1526
 20
358.134
 11
-21.0837
 21
357.96
  0
LINE
  8
0
 10
-21.0837
 20
357.96
 11
-21.0372
 21
357.779
  0
LINE
  8
0
 10
-21.0372
 20
357.779
 11
-21.0137
 21
357.593
  0
LINE
  8
0
 10
-21.0137
 20
357.593
 11
-21.0137
 21
357.407
  0
LINE
  8
0
 10
-21.0137
 20
357.407
 11
-21.0372
 21
357.221
  0
LINE
  8
0
 10
-21.0372
 20
357.221
 11
-21.0837
 21
357.04
  0
LINE
  8
0
 10
-21.0837
 20
357.04
 11
-21.1526
 21
356.866
  0
LINE
  8
0
 10
-21.1526
 20
356.866
 11
-21.2426
 21
356.702
  0
LINE
  8
0
 10
-21.2426
 20
356.702
 11
-21.3525
 21
356.551
  0
LINE
  8
0
 10
-21.3525
 20
356.551
 11
-21.4806
 21
356.414
  0
LINE
  8
0
 10
-21.4806
 20
356.414
 11
-21.6247
 21
356.295
  0
LINE
  8
0
 10
-21.6247
 20
356.295
 11
-21.7825
 21
356.195
  0
LINE
  8
0
 10
-21.7825
 20
356.195
 11
-21.9518
 21
356.115
  0
LINE
  8
0
 10
-21.9518
 20
356.115
 11
-22.1296
 21
356.058
  0
LINE
  8
0
 10
-22.1296
 20
356.058
 11
-22.3133
 21
356.023
  0
LINE
  8
0
 10
-22.3133
 20
356.023
 11
-22.5
 21
356.011
  0
LINE
  8
0
 10
22.5
 20
356.011
 11
22.3133
 21
356.023
  0
LINE
  8
0
 10
22.3133
 20
356.023
 11
22.1296
 21
356.058
  0
LINE
  8
0
 10
22.1296
 20
356.058
 11
21.9518
 21
356.115
  0
LINE
  8
0
 10
21.9518
 20
356.115
 11
21.7826
 21
356.195
  0
LINE
  8
0
 10
21.7826
 20
356.195
 11
21.6247
 21
356.295
  0
LINE
  8
0
 10
21.6247
 20
356.295
 11
21.4806
 21
356.414
  0
LINE
  8
0
 10
21.4806
 20
356.414
 11
21.3526
 21
356.551
  0
LINE
  8
0
 10
21.3526
 20
356.551
 11
21.2426
 21
356.702
  0
LINE
  8
0
 10
21.2426
 20
356.702
 11
21.1525
 21
356.866
  0
LINE
  8
0
 10
21.1525
 20
356.866
 11
21.0837
 21
357.04
  0
LINE
  8
0
 10
21.0837
 20
357.04
 11
21.0372
 21
357.221
  0
LINE
  8
0
 10
21.0372
 20
357.221
 11
21.0137
 21
357.407
  0
LINE
  8
0
 10
21.0137
 20
357.407
 11
21.0137
 21
357.593
  0
LINE
  8
0
 10
21.0137
 20
357.593
 11
21.0372
 21
357.779
  0
LINE
  8
0
 10
21.0372
 20
357.779
 11
21.0837
 21
357.96
  0
LINE
  8
0
 10
21.0837
 20
357.96
 11
21.1525
 21
358.134
  0
LINE
  8
0
 10
21.1525
 20
358.134
 11
21.2426
 21
358.298
  0
LINE
  8
0
 10
21.2426
 20
358.298
 11
21.3526
 21
358.449
  0
LINE
  8
0
 10
21.3526
 20
358.449
 11
21.4806
 21
358.586
  0
LINE
  8
0
 10
21.4806
 20
358.586
 11
21.6246
 21
358.705
  0
LINE
  8
0
 10
21.6246
 20
358.705
 11
21.7825
 21
358.805
  0
LINE
  8
0
 10
21.7825
 20
358.805
 11
21.9518
 21
358.885
  0
LINE
  8
0
 10
21.9518
 20
358.885
 11
22.1296
 21
358.942
  0
LINE
  8
0
 10
22.1296
 20
358.942
 11
22.3133
 21
358.977
  0
LINE
  8
0
 10
22.3133
 20
358.977
 11
22.5
 21
358.989
  0
LINE
  8
0
 10
22.5
 20
358.989
 11
22.6867
 21
358.977
  0
LINE
  8
0
 10
22.6867
 20
358.977
 11
22.8704
 21
358.942
  0
LINE
  8
0
 10
22.8704
 20
358.942
 11
23.0482
 21
358.885
  0
LINE
  8
0
 10
23.0482
 20
358.885
 11
23.2174
 21
358.805
  0
LINE
  8
0
 10
23.2174
 20
358.805
 11
23.3754
 21
358.705
  0
LINE
  8
0
 10
23.3754
 20
358.705
 11
23.5194
 21
358.586
  0
LINE
  8
0
 10
23.5194
 20
358.586
 11
23.6474
 21
358.449
  0
LINE
  8
0
 10
23.6474
 20
358.449
 11
23.7574
 21
358.298
  0
LINE
  8
0
 10
23.7574
 20
358.298
 11
23.8474
 21
358.134
  0
LINE
  8
0
 10
23.8474
 20
358.134
 11
23.9163
 21
357.96
  0
LINE
  8
0
 10
23.9163
 20
357.96
 11
23.9628
 21
357.779
  0
LINE
  8
0
 10
23.9628
 20
357.779
 11
23.9863
 21
357.593
  0
LINE
  8
0
 10
23.9863
 20
357.593
 11
23.9863
 21
357.407
  0
LINE
  8
0
 10
23.9863
 20
357.407
 11
23.9628
 21
357.221
  0
LINE
  8
0
 10
23.9628
 20
357.221
 11
23.9163
 21
357.04
  0
LINE
  8
0
 10
23.9163
 20
357.04
 11
23.8474
 21
356.866
  0
LINE
  8
0
 10
23.8474
 20
356.866
 11
23.7574
 21
356.702
  0
LINE
  8
0
 10
23.7574
 20
356.702
 11
23.6474
 21
356.551
  0
LINE
  8
0
 10
23.6474
 20
356.551
 11
23.5194
 21
356.414
  0
LINE
  8
0
 10
23.5194
 20
356.414
 11
23.3753
 21
356.295
  0
LINE
  8
0
 10
23.3753
 20
356.295
 11
23.2175
 21
356.195
  0
LINE
  8
0
 10
23.2175
 20
356.195
 11
23.0482
 21
356.115
  0
LINE
  8
0
 10
23.0482
 20
356.115
 11
22.8704
 21
356.058
  0
LINE
  8
0
 10
22.8704
 20
356.058
 11
22.6867
 21
356.023
  0
LINE
  8
0
 10
22.6867
 20
356.023
 11
22.5
 21
356.011
  0
LINE
  8
0
 10
-149.51
 20
33.7048
 11
-148.06
 21
34.0203
  0
LINE
  8
0
 10
-148.06
 20
34.0203
 11
-146.669
 21
34.5389
  0
LINE
  8
0
 10
-146.669
 20
34.5389
 11
-145.367
 21
35.2501
  0
LINE
  8
0
 10
-145.367
 20
35.2501
 11
-144.179
 21
36.1394
  0
LINE
  8
0
 10
-144.179
 20
36.1394
 11
-143.129
 21
37.1888
  0
LINE
  8
0
 10
-143.129
 20
37.1888
 11
-142.24
 21
38.3768
  0
LINE
  8
0
 10
-142.24
 20
38.3768
 11
-141.529
 21
39.6792
  0
LINE
  8
0
 10
-141.529
 20
39.6792
 11
-141.01
 21
41.0697
  0
LINE
  8
0
 10
-141.01
 20
41.0697
 11
-140.695
 21
42.5198
  0
LINE
  8
0
 10
-140.695
 20
42.5198
 11
-140.59
 21
43.9857
  0
LINE
  8
0
 10
-140.59
 20
43.9857
 11
-140.59
 21
123.573
  0
LINE
  8
0
 10
-140.59
 20
123.573
 11
-140.695
 21
125.039
  0
LINE
  8
0
 10
-140.695
 20
125.039
 11
-141.01
 21
126.49
  0
LINE
  8
0
 10
-141.01
 20
126.49
 11
-141.529
 21
127.88
  0
LINE
  8
0
 10
-141.529
 20
127.88
 11
-142.24
 21
129.182
  0
LINE
  8
0
 10
-142.24
 20
129.182
 11
-143.129
 21
130.37
  0
LINE
  8
0
 10
-143.129
 20
130.37
 11
-144.179
 21
131.42
  0
LINE
  8
0
 10
-144.179
 20
131.42
 11
-145.367
 21
132.309
  0
LINE
  8
0
 10
-145.367
 20
132.309
 11
-146.669
 21
133.02
  0
LINE
  8
0
 10
-146.669
 20
133.02
 11
-148.06
 21
133.539
  0
LINE
  8
0
 10
-148.06
 20
133.539
 11
-149.51
 21
133.854
  0
LINE
  8
0
 10
-149.51
 20
133.854
 11
-150.976
 21
133.959
  0
LINE
  8
0
 10
-150.976
 20
133.959
 11
-170.39
 21
133.959
  0
LINE
  8
0
 10
-170.39
 20
133.959
 11
-170.39
 21
33.6
  0
LINE
  8
0
 10
-170.39
 20
33.6
 11
-150.976
 21
33.6
  0
LINE
  8
0
 10
-150.976
 20
33.6
 11
-149.51
 21
33.7048
  0
LINE
  8
0
 10
-150.187
 20
123.082
 11
-150.37
 21
123.117
  0
LINE
  8
0
 10
-150.37
 20
123.117
 11
-150.548
 21
123.175
  0
LINE
  8
0
 10
-150.548
 20
123.175
 11
-150.717
 21
123.254
  0
LINE
  8
0
 10
-150.717
 20
123.254
 11
-150.875
 21
123.354
  0
LINE
  8
0
 10
-150.875
 20
123.354
 11
-151.019
 21
123.474
  0
LINE
  8
0
 10
-151.019
 20
123.474
 11
-151.147
 21
123.61
  0
LINE
  8
0
 10
-151.147
 20
123.61
 11
-151.257
 21
123.761
  0
LINE
  8
0
 10
-151.257
 20
123.761
 11
-151.347
 21
123.925
  0
LINE
  8
0
 10
-151.347
 20
123.925
 11
-151.416
 21
124.099
  0
LINE
  8
0
 10
-151.416
 20
124.099
 11
-151.463
 21
124.28
  0
LINE
  8
0
 10
-151.463
 20
124.28
 11
-151.486
 21
124.466
  0
LINE
  8
0
 10
-151.486
 20
124.466
 11
-151.486
 21
124.653
  0
LINE
  8
0
 10
-151.486
 20
124.653
 11
-151.463
 21
124.838
  0
LINE
  8
0
 10
-151.463
 20
124.838
 11
-151.416
 21
125.019
  0
LINE
  8
0
 10
-151.416
 20
125.019
 11
-151.347
 21
125.193
  0
LINE
  8
0
 10
-151.347
 20
125.193
 11
-151.257
 21
125.357
  0
LINE
  8
0
 10
-151.257
 20
125.357
 11
-151.147
 21
125.508
  0
LINE
  8
0
 10
-151.147
 20
125.508
 11
-151.019
 21
125.645
  0
LINE
  8
0
 10
-151.019
 20
125.645
 11
-150.875
 21
125.764
  0
LINE
  8
0
 10
-150.875
 20
125.764
 11
-150.717
 21
125.864
  0
LINE
  8
0
 10
-150.717
 20
125.864
 11
-150.548
 21
125.944
  0
LINE
  8
0
 10
-150.548
 20
125.944
 11
-150.37
 21
126.002
  0
LINE
  8
0
 10
-150.37
 20
126.002
 11
-150.187
 21
126.037
  0
LINE
  8
0
 10
-150.187
 20
126.037
 11
-150
 21
126.048
  0
LINE
  8
0
 10
-150
 20
126.048
 11
-149.813
 21
126.037
  0
LINE
  8
0
 10
-149.813
 20
126.037
 11
-149.63
 21
126.002
  0
LINE
  8
0
 10
-149.63
 20
126.002
 11
-149.452
 21
125.944
  0
LINE
  8
0
 10
-149.452
 20
125.944
 11
-149.283
 21
125.864
  0
LINE
  8
0
 10
-149.283
 20
125.864
 11
-149.125
 21
125.764
  0
LINE
  8
0
 10
-149.125
 20
125.764
 11
-148.981
 21
125.645
  0
LINE
  8
0
 10
-148.981
 20
125.645
 11
-148.853
 21
125.508
  0
LINE
  8
0
 10
-148.853
 20
125.508
 11
-148.743
 21
125.357
  0
LINE
  8
0
 10
-148.743
 20
125.357
 11
-148.653
 21
125.193
  0
LINE
  8
0
 10
-148.653
 20
125.193
 11
-148.584
 21
125.019
  0
LINE
  8
0
 10
-148.584
 20
125.019
 11
-148.537
 21
124.838
  0
LINE
  8
0
 10
-148.537
 20
124.838
 11
-148.514
 21
124.653
  0
LINE
  8
0
 10
-148.514
 20
124.653
 11
-148.514
 21
124.466
  0
LINE
  8
0
 10
-148.514
 20
124.466
 11
-148.537
 21
124.28
  0
LINE
  8
0
 10
-148.537
 20
124.28
 11
-148.584
 21
124.099
  0
LINE
  8
0
 10
-148.584
 20
124.099
 11
-148.653
 21
123.925
  0
LINE
  8
0
 10
-148.653
 20
123.925
 11
-148.743
 21
123.761
  0
LINE
  8
0
 10
-148.743
 20
123.761
 11
-148.853
 21
123.61
  0
LINE
  8
0
 10
-148.853
 20
123.61
 11
-148.981
 21
123.474
  0
LINE
  8
0
 10
-148.981
 20
123.474
 11
-149.125
 21
123.354
  0
LINE
  8
0
 10
-149.125
 20
123.354
 11
-149.283
 21
123.254
  0
LINE
  8
0
 10
-149.283
 20
123.254
 11
-149.452
 21
123.175
  0
LINE
  8
0
 10
-149.452
 20
123.175
 11
-149.63
 21
123.117
  0
LINE
  8
0
 10
-149.63
 20
123.117
 11
-149.813
 21
123.082
  0
LINE
  8
0
 10
-149.813
 20
123.082
 11
-150
 21
123.07
  0
LINE
  8
0
 10
-150
 20
123.07
 11
-150.187
 21
123.082
  0
LINE
  8
0
 10
-150.187
 20
91.3021
 11
-150.37
 21
91.3372
  0
LINE
  8
0
 10
-150.37
 20
91.3372
 11
-150.548
 21
91.3949
  0
LINE
  8
0
 10
-150.548
 20
91.3949
 11
-150.717
 21
91.4746
  0
LINE
  8
0
 10
-150.717
 20
91.4746
 11
-150.875
 21
91.5748
  0
LINE
  8
0
 10
-150.875
 20
91.5748
 11
-151.019
 21
91.694
  0
LINE
  8
0
 10
-151.019
 20
91.694
 11
-151.147
 21
91.8303
  0
LINE
  8
0
 10
-151.147
 20
91.8303
 11
-151.257
 21
91.9817
  0
LINE
  8
0
 10
-151.257
 20
91.9817
 11
-151.347
 21
92.1454
  0
LINE
  8
0
 10
-151.347
 20
92.1454
 11
-151.416
 21
92.3194
  0
LINE
  8
0
 10
-151.416
 20
92.3194
 11
-151.463
 21
92.5006
  0
LINE
  8
0
 10
-151.463
 20
92.5006
 11
-151.486
 21
92.6862
  0
LINE
  8
0
 10
-151.486
 20
92.6862
 11
-151.486
 21
92.873
  0
LINE
  8
0
 10
-151.486
 20
92.873
 11
-151.463
 21
93.0586
  0
LINE
  8
0
 10
-151.463
 20
93.0586
 11
-151.416
 21
93.2398
  0
LINE
  8
0
 10
-151.416
 20
93.2398
 11
-151.347
 21
93.4138
  0
LINE
  8
0
 10
-151.347
 20
93.4138
 11
-151.257
 21
93.5775
  0
LINE
  8
0
 10
-151.257
 20
93.5775
 11
-151.147
 21
93.7289
  0
LINE
  8
0
 10
-151.147
 20
93.7289
 11
-151.019
 21
93.8652
  0
LINE
  8
0
 10
-151.019
 20
93.8652
 11
-150.875
 21
93.9844
  0
LINE
  8
0
 10
-150.875
 20
93.9844
 11
-150.717
 21
94.0846
  0
LINE
  8
0
 10
-150.717
 20
94.0846
 11
-150.548
 21
94.1642
  0
LINE
  8
0
 10
-150.548
 20
94.1642
 11
-150.37
 21
94.222
  0
LINE
  8
0
 10
-150.37
 20
94.222
 11
-150.187
 21
94.257
  0
LINE
  8
0
 10
-150.187
 20
94.257
 11
-150
 21
94.2688
  0
LINE
  8
0
 10
-150
 20
94.2688
 11
-149.813
 21
94.257
  0
LINE
  8
0
 10
-149.813
 20
94.257
 11
-149.63
 21
94.222
  0
LINE
  8
0
 10
-149.63
 20
94.222
 11
-149.452
 21
94.1642
  0
LINE
  8
0
 10
-149.452
 20
94.1642
 11
-149.283
 21
94.0846
  0
LINE
  8
0
 10
-149.283
 20
94.0846
 11
-149.125
 21
93.9844
  0
LINE
  8
0
 10
-149.125
 20
93.9844
 11
-148.981
 21
93.8652
  0
LINE
  8
0
 10
-148.981
 20
93.8652
 11
-148.853
 21
93.7289
  0
LINE
  8
0
 10
-148.853
 20
93.7289
 11
-148.743
 21
93.5775
  0
LINE
  8
0
 10
-148.743
 20
93.5775
 11
-148.653
 21
93.4137
  0
LINE
  8
0
 10
-148.653
 20
93.4137
 11
-148.584
 21
93.2398
  0
LINE
  8
0
 10
-148.584
 20
93.2398
 11
-148.537
 21
93.0586
  0
LINE
  8
0
 10
-148.537
 20
93.0586
 11
-148.514
 21
92.873
  0
LINE
  8
0
 10
-148.514
 20
92.873
 11
-148.514
 21
92.6862
  0
LINE
  8
0
 10
-148.514
 20
92.6862
 11
-148.537
 21
92.5006
  0
LINE
  8
0
 10
-148.537
 20
92.5006
 11
-148.584
 21
92.3194
  0
LINE
  8
0
 10
-148.584
 20
92.3194
 11
-148.653
 21
92.1455
  0
LINE
  8
0
 10
-148.653
 20
92.1455
 11
-148.743
 21
91.9817
  0
LINE
  8
0
 10
-148.743
 20
91.9817
 11
-148.853
 21
91.8303
  0
LINE
  8
0
 10
-148.853
 20
91.8303
 11
-148.981
 21
91.694
  0
LINE
  8
0
 10
-148.981
 20
91.694
 11
-149.125
 21
91.5748
  0
LINE
  8
0
 10
-149.125
 20
91.5748
 11
-149.283
 21
91.4746
  0
LINE
  8
0
 10
-149.283
 20
91.4746
 11
-149.452
 21
91.395
  0
LINE
  8
0
 10
-149.452
 20
91.395
 11
-149.63
 21
91.3372
  0
LINE
  8
0
 10
-149.63
 20
91.3372
 11
-149.813
 21
91.3021
  0
LINE
  8
0
 10
-149.813
 20
91.3021
 11
-150
 21
91.2904
  0
LINE
  8
0
 10
-150
 20
91.2904
 11
-150.187
 21
91.3021
  0
LINE
  8
0
 10
-150.187
 20
41.5225
 11
-150.37
 21
41.5576
  0
LINE
  8
0
 10
-150.37
 20
41.5576
 11
-150.548
 21
41.6153
  0
LINE
  8
0
 10
-150.548
 20
41.6153
 11
-150.717
 21
41.695
  0
LINE
  8
0
 10
-150.717
 20
41.695
 11
-150.875
 21
41.7952
  0
LINE
  8
0
 10
-150.875
 20
41.7952
 11
-151.019
 21
41.9144
  0
LINE
  8
0
 10
-151.019
 20
41.9144
 11
-151.147
 21
42.0507
  0
LINE
  8
0
 10
-151.147
 20
42.0507
 11
-151.257
 21
42.2021
  0
LINE
  8
0
 10
-151.257
 20
42.2021
 11
-151.347
 21
42.3658
  0
LINE
  8
0
 10
-151.347
 20
42.3658
 11
-151.416
 21
42.5398
  0
LINE
  8
0
 10
-151.416
 20
42.5398
 11
-151.463
 21
42.721
  0
LINE
  8
0
 10
-151.463
 20
42.721
 11
-151.486
 21
42.9066
  0
LINE
  8
0
 10
-151.486
 20
42.9066
 11
-151.486
 21
43.0934
  0
LINE
  8
0
 10
-151.486
 20
43.0934
 11
-151.463
 21
43.279
  0
LINE
  8
0
 10
-151.463
 20
43.279
 11
-151.416
 21
43.4602
  0
LINE
  8
0
 10
-151.416
 20
43.4602
 11
-151.347
 21
43.6342
  0
LINE
  8
0
 10
-151.347
 20
43.6342
 11
-151.257
 21
43.7979
  0
LINE
  8
0
 10
-151.257
 20
43.7979
 11
-151.147
 21
43.9492
  0
LINE
  8
0
 10
-151.147
 20
43.9492
 11
-151.019
 21
44.0856
  0
LINE
  8
0
 10
-151.019
 20
44.0856
 11
-150.875
 21
44.2048
  0
LINE
  8
0
 10
-150.875
 20
44.2048
 11
-150.717
 21
44.305
  0
LINE
  8
0
 10
-150.717
 20
44.305
 11
-150.548
 21
44.3846
  0
LINE
  8
0
 10
-150.548
 20
44.3846
 11
-150.37
 21
44.4424
  0
LINE
  8
0
 10
-150.37
 20
44.4424
 11
-150.187
 21
44.4774
  0
LINE
  8
0
 10
-150.187
 20
44.4774
 11
-150
 21
44.4892
  0
LINE
  8
0
 10
-150
 20
44.4892
 11
-149.813
 21
44.4774
  0
LINE
  8
0
 10
-149.813
 20
44.4774
 11
-149.63
 21
44.4424
  0
LINE
  8
0
 10
-149.63
 20
44.4424
 11
-149.452
 21
44.3846
  0
LINE
  8
0
 10
-149.452
 20
44.3846
 11
-149.283
 21
44.305
  0
LINE
  8
0
 10
-149.283
 20
44.305
 11
-149.125
 21
44.2048
  0
LINE
  8
0
 10
-149.125
 20
44.2048
 11
-148.981
 21
44.0856
  0
LINE
  8
0
 10
-148.981
 20
44.0856
 11
-148.853
 21
43.9493
  0
LINE
  8
0
 10
-148.853
 20
43.9493
 11
-148.743
 21
43.7979
  0
LINE
  8
0
 10
-148.743
 20
43.7979
 11
-148.653
 21
43.6341
  0
LINE
  8
0
 10
-148.653
 20
43.6341
 11
-148.584
 21
43.4602
  0
LINE
  8
0
 10
-148.584
 20
43.4602
 11
-148.537
 21
43.279
  0
LINE
  8
0
 10
-148.537
 20
43.279
 11
-148.514
 21
43.0934
  0
LINE
  8
0
 10
-148.514
 20
43.0934
 11
-148.514
 21
42.9066
  0
LINE
  8
0
 10
-148.514
 20
42.9066
 11
-148.537
 21
42.721
  0
LINE
  8
0
 10
-148.537
 20
42.721
 11
-148.584
 21
42.5398
  0
LINE
  8
0
 10
-148.584
 20
42.5398
 11
-148.653
 21
42.3659
  0
LINE
  8
0
 10
-148.653
 20
42.3659
 11
-148.743
 21
42.2021
  0
LINE
  8
0
 10
-148.743
 20
42.2021
 11
-148.853
 21
42.0507
  0
LINE
  8
0
 10
-148.853
 20
42.0507
 11
-148.981
 21
41.9144
  0
LINE
  8
0
 10
-148.981
 20
41.9144
 11
-149.125
 21
41.7952
  0
LINE
  8
0
 10
-149.125
 20
41.7952
 11
-149.283
 21
41.695
  0
LINE
  8
0
 10
-149.283
 20
41.695
 11
-149.452
 21
41.6154
  0
LINE
  8
0
 10
-149.452
 20
41.6154
 11
-149.63
 21
41.5576
  0
LINE
  8
0
 10
-149.63
 20
41.5576
 11
-149.813
 21
41.5225
  0
LINE
  8
0
 10
-149.813
 20
41.5225
 11
-150
 21
41.5108
  0
LINE
  8
0
 10
-150
 20
41.5108
 11
-150.187
 21
41.5225
  0
LINE
  8
0
 10
170.39
 20
133.959
 11
150.976
 21
133.959
  0
LINE
  8
0
 10
150.976
 20
133.959
 11
149.51
 21
133.854
  0
LINE
  8
0
 10
149.51
 20
133.854
 11
148.06
 21
133.539
  0
LINE
  8
0
 10
148.06
 20
133.539
 11
146.669
 21
133.02
  0
LINE
  8
0
 10
146.669
 20
133.02
 11
145.367
 21
132.309
  0
LINE
  8
0
 10
145.367
 20
132.309
 11
144.179
 21
131.42
  0
LINE
  8
0
 10
144.179
 20
131.42
 11
143.129
 21
130.37
  0
LINE
  8
0
 10
143.129
 20
130.37
 11
142.24
 21
129.182
  0
LINE
  8
0
 10
142.24
 20
129.182
 11
141.529
 21
127.88
  0
LINE
  8
0
 10
141.529
 20
127.88
 11
141.01
 21
126.49
  0
LINE
  8
0
 10
141.01
 20
126.49
 11
140.695
 21
125.039
  0
LINE
  8
0
 10
140.695
 20
125.039
 11
140.59
 21
123.573
  0
LINE
  8
0
 10
140.59
 20
123.573
 11
140.59
 21
43.9857
  0
LINE
  8
0
 10
140.59
 20
43.9857
 11
140.695
 21
42.5198
  0
LINE
  8
0
 10
140.695
 20
42.5198
 11
141.01
 21
41.0697
  0
LINE
  8
0
 10
141.01
 20
41.0697
 11
141.529
 21
39.6792
  0
LINE
  8
0
 10
141.529
 20
39.6792
 11
142.24
 21
38.3768
  0
LINE
  8
0
 10
142.24
 20
38.3768
 11
143.129
 21
37.1888
  0
LINE
  8
0
 10
143.129
 20
37.1888
 11
144.179
 21
36.1394
  0
LINE
  8
0
 10
144.179
 20
36.1394
 11
145.367
 21
35.2501
  0
LINE
  8
0
 10
145.367
 20
35.2501
 11
146.669
 21
34.5389
  0
LINE
  8
0
 10
146.669
 20
34.5389
 11
148.06
 21
34.0203
  0
LINE
  8
0
 10
148.06
 20
34.0203
 11
149.51
 21
33.7048
  0
LINE
  8
0
 10
149.51
 20
33.7048
 11
150.976
 21
33.6
  0
LINE
  8
0
 10
150.976
 20
33.6
 11
170.39
 21
33.6
  0
LINE
  8
0
 10
170.39
 20
33.6
 11
170.39
 21
133.959
  0
LINE
  8
0
 10
149.813
 20
123.082
 11
149.63
 21
123.117
  0
LINE
  8
0
 10
149.63
 20
123.117
 11
149.452
 21
123.175
  0
LINE
  8
0
 10
149.452
 20
123.175
 11
149.283
 21
123.254
  0
LINE
  8
0
 10
149.283
 20
123.254
 11
149.125
 21
123.354
  0
LINE
  8
0
 10
149.125
 20
123.354
 11
148.981
 21
123.474
  0
LINE
  8
0
 10
148.981
 20
123.474
 11
148.853
 21
123.61
  0
LINE
  8
0
 10
148.853
 20
123.61
 11
148.743
 21
123.761
  0
LINE
  8
0
 10
148.743
 20
123.761
 11
148.653
 21
123.925
  0
LINE
  8
0
 10
148.653
 20
123.925
 11
148.584
 21
124.099
  0
LINE
  8
0
 10
148.584
 20
124.099
 11
148.537
 21
124.28
  0
LINE
  8
0
 10
148.537
 20
124.28
 11
148.514
 21
124.466
  0
LINE
  8
0
 10
148.514
 20
124.466
 11
148.514
 21
124.653
  0
LINE
  8
0
 10
148.514
 20
124.653
 11
148.537
 21
124.838
  0
LINE
  8
0
 10
148.537
 20
124.838
 11
148.584
 21
125.019
  0
LINE
  8
0
 10
148.584
 20
125.019
 11
148.653
 21
125.193
  0
LINE
  8
0
 10
148.653
 20
125.193
 11
148.743
 21
125.357
  0
LINE
  8
0
 10
148.743
 20
125.357
 11
148.853
 21
125.508
  0
LINE
  8
0
 10
148.853
 20
125.508
 11
148.981
 21
125.645
  0
LINE
  8
0
 10
148.981
 20
125.645
 11
149.125
 21
125.764
  0
LINE
  8
0
 10
149.125
 20
125.764
 11
149.283
 21
125.864
  0
LINE
  8
0
 10
149.283
 20
125.864
 11
149.452
 21
125.944
  0
LINE
  8
0
 10
149.452
 20
125.944
 11
149.63
 21
126.002
  0
LINE
  8
0
 10
149.63
 20
126.002
 11
149.813
 21
126.037
  0
LINE
  8
0
 10
149.813
 20
126.037
 11
150
 21
126.048
  0
LINE
  8
0
 10
150
 20
126.048
 11
150.187
 21
126.037
  0
LINE
  8
0
 10
150.187
 20
126.037
 11
150.37
 21
126.002
  0
LINE
  8
0
 10
150.37
 20
126.002
 11
150.548
 21
125.944
  0
LINE
  8
0
 10
150.548
 20
125.944
 11
150.717
 21
125.864
  0
LINE
  8
0
 10
150.717
 20
125.864
 11
150.875
 21
125.764
  0
LINE
  8
0
 10
150.875
 20
125.764
 11
151.019
 21
125.645
  0
LINE
  8
0
 10
151.019
 20
125.645
 11
151.147
 21
125.508
  0
LINE
  8
0
 10
151.147
 20
125.508
 11
151.257
 21
125.357
  0
LINE
  8
0
 10
151.257
 20
125.357
 11
151.347
 21
125.193
  0
LINE
  8
0
 10
151.347
 20
125.193
 11
151.416
 21
125.019
  0
LINE
  8
0
 10
151.416
 20
125.019
 11
151.463
 21
124.838
  0
LINE
  8
0
 10
151.463
 20
124.838
 11
151.486
 21
124.653
  0
LINE
  8
0
 10
151.486
 20
124.653
 11
151.486
 21
124.466
  0
LINE
  8
0
 10
151.486
 20
124.466
 11
151.463
 21
124.28
  0
LINE
  8
0
 10
151.463
 20
124.28
 11
151.416
 21
124.099
  0
LINE
  8
0
 10
151.416
 20
124.099
 11
151.347
 21
123.925
  0
LINE
  8
0
 10
151.347
 20
123.925
 11
151.257
 21
123.761
  0
LINE
  8
0
 10
151.257
 20
123.761
 11
151.147
 21
123.61
  0
LINE
  8
0
 10
151.147
 20
123.61
 11
151.019
 21
123.474
  0
LINE
  8
0
 10
151.019
 20
123.474
 11
150.875
 21
123.354
  0
LINE
  8
0
 10
150.875
 20
123.354
 11
150.717
 21
123.254
  0
LINE
  8
0
 10
150.717
 20
123.254
 11
150.548
 21
123.175
  0
LINE
  8
0
 10
150.548
 20
123.175
 11
150.37
 21
123.117
  0
LINE
  8
0
 10
150.37
 20
123.117
 11
150.187
 21
123.082
  0
LINE
  8
0
 10
150.187
 20
123.082
 11
150
 21
123.07
  0
LINE
  8
0
 10
150
 20
123.07
 11
149.813
 21
123.082
  0
LINE
  8
0
 10
149.813
 20
91.3021
 11
149.63
 21
91.3372
  0
LINE
  8
0
 10
149.63
 20
91.3372
 11
149.452
 21
91.395
  0
LINE
  8
0
 10
149.452
 20
91.395
 11
149.283
 21
91.4746
  0
LINE
  8
0
 10
149.283
 20
91.4746
 11
149.125
 21
91.5748
  0
LINE
  8
0
 10
149.125
 20
91.5748
 11
148.981
 21
91.694
  0
LINE
  8
0
 10
148.981
 20
91.694
 11
148.853
 21
91.8303
  0
LINE
  8
0
 10
148.853
 20
91.8303
 11
148.743
 21
91.9817
  0
LINE
  8
0
 10
148.743
 20
91.9817
 11
148.653
 21
92.1455
  0
LINE
  8
0
 10
148.653
 20
92.1455
 11
148.584
 21
92.3194
  0
LINE
  8
0
 10
148.584
 20
92.3194
 11
148.537
 21
92.5006
  0
LINE
  8
0
 10
148.537
 20
92.5006
 11
148.514
 21
92.6862
  0
LINE
  8
0
 10
148.514
 20
92.6862
 11
148.514
 21
92.873
  0
LINE
  8
0
 10
148.514
 20
92.873
 11
148.537
 21
93.0586
  0
LINE
  8
0
 10
148.537
 20
93.0586
 11
148.584
 21
93.2398
  0
LINE
  8
0
 10
148.584
 20
93.2398
 11
148.653
 21
93.4137
  0
LINE
  8
0
 10
148.653
 20
93.4137
 11
148.743
 21
93.5775
  0
LINE
  8
0
 10
148.743
 20
93.5775
 11
148.853
 21
93.7289
  0
LINE
  8
0
 10
148.853
 20
93.7289
 11
148.981
 21
93.8652
  0
LINE
  8
0
 10
148.981
 20
93.8652
 11
149.125
 21
93.9844
  0
LINE
  8
0
 10
149.125
 20
93.9844
 11
149.283
 21
94.0846
  0
LINE
  8
0
 10
149.283
 20
94.0846
 11
149.452
 21
94.1642
  0
LINE
  8
0
 10
149.452
 20
94.1642
 11
149.63
 21
94.222
  0
LINE
  8
0
 10
149.63
 20
94.222
 11
149.813
 21
94.257
  0
LINE
  8
0
 10
149.813
 20
94.257
 11
150
 21
94.2688
  0
LINE
  8
0
 10
150
 20
94.2688
 11
150.187
 21
94.257
  0
LINE
  8
0
 10
150.187
 20
94.257
 11
150.37
 21
94.222
  0
LINE
  8
0
 10
150.37
 20
94.222
 11
150.548
 21
94.1642
  0
LINE
  8
0
 10
150.548
 20
94.1642
 11
150.717
 21
94.0846
  0
LINE
  8
0
 10
150.717
 20
94.0846
 11
150.875
 21
93.9844
  0
LINE
  8
0
 10
150.875
 20
93.9844
 11
151.019
 21
93.8652
  0
LINE
  8
0
 10
151.019
 20
93.8652
 11
151.147
 21
93.7289
  0
LINE
  8
0
 10
151.147
 20
93.7289
 11
151.257
 21
93.5775
  0
LINE
  8
0
 10
151.257
 20
93.5775
 11
151.347
 21
93.4138
  0
LINE
  8
0
 10
151.347
 20
93.4138
 11
151.416
 21
93.2398
  0
LINE
  8
0
 10
151.416
 20
93.2398
 11
151.463
 21
93.0586
  0
LINE
  8
0
 10
151.463
 20
93.0586
 11
151.486
 21
92.873
  0
LINE
  8
0
 10
151.486
 20
92.873
 11
151.486
 21
92.6862
  0
LINE
  8
0
 10
151.486
 20
92.6862
 11
151.463
 21
92.5006
  0
LINE
  8
0
 10
151.463
 20
92.5006
 11
151.416
 21
92.3194
  0
LINE
  8
0
 10
151.416
 20
92.3194
 11
151.347
 21
92.1454
  0
LINE
  8
0
 10
151.347
 20
92.1454
 11
151.257
 21
91.9817
  0
LINE
  8
0
 10
151.257
 20
91.9817
 11
151.147
 21
91.8303
  0
LINE
  8
0
 10
151.147
 20
91.8303
 11
151.019
 21
91.694
  0
LINE
  8
0
 10
151.019
 20
91.694
 11
150.875
 21
91.5748
  0
LINE
  8
0
 10
150.875
 20
91.5748
 11
150.717
 21
91.4746
  0
LINE
  8
0
 10
150.717
 20
91.4746
 11
150.548
 21
91.3949
  0
LINE
  8
0
 10
150.548
 20
91.3949
 11
150.37
 21
91.3372
  0
LINE
  8
0
 10
150.37
 20
91.3372
 11
150.187
 21
91.3021
  0
LINE
  8
0
 10
150.187
 20
91.3021
 11
150
 21
91.2904
  0
LINE
  8
0
 10
150
 20
91.2904
 11
149.813
 21
91.3021
  0
LINE
  8
0
 10
149.813
 20
41.5225
 11
149.63
 21
41.5576
  0
LINE
  8
0
 10
149.63
 20
41.5576
 11
149.452
 21
41.6154
  0
LINE
  8
0
 10
149.452
 20
41.6154
 11
149.283
 21
41.695
  0
LINE
  8
0
 10
149.283
 20
41.695
 11
149.125
 21
41.7952
  0
LINE
  8
0
 10
149.125
 20
41.7952
 11
148.981
 21
41.9144
  0
LINE
  8
0
 10
148.981
 20
41.9144
 11
148.853
 21
42.0507
  0
LINE
  8
0
 10
148.853
 20
42.0507
 11
148.743
 21
42.2021
  0
LINE
  8
0
 10
148.743
 20
42.2021
 11
148.653
 21
42.3659
  0
LINE
  8
0
 10
148.653
 20
42.3659
 11
148.584
 21
42.5398
  0
LINE
  8
0
 10
148.584
 20
42.5398
 11
148.537
 21
42.721
  0
LINE
  8
0
 10
148.537
 20
42.721
 11
148.514
 21
42.9066
  0
LINE
  8
0
 10
148.514
 20
42.9066
 11
148.514
 21
43.0934
  0
LINE
  8
0
 10
148.514
 20
43.0934
 11
148.537
 21
43.279
  0
LINE
  8
0
 10
148.537
 20
43.279
 11
148.584
 21
43.4602
  0
LINE
  8
0
 10
148.584
 20
43.4602
 11
148.653
 21
43.6341
  0
LINE
  8
0
 10
148.653
 20
43.6341
 11
148.743
 21
43.7979
  0
LINE
  8
0
 10
148.743
 20
43.7979
 11
148.853
 21
43.9493
  0
LINE
  8
0
 10
148.853
 20
43.9493
 11
148.981
 21
44.0856
  0
LINE
  8
0
 10
148.981
 20
44.0856
 11
149.125
 21
44.2048
  0
LINE
  8
0
 10
149.125
 20
44.2048
 11
149.283
 21
44.305
  0
LINE
  8
0
 10
149.283
 20
44.305
 11
149.452
 21
44.3846
  0
LINE
  8
0
 10
149.452
 20
44.3846
 11
149.63
 21
44.4424
  0
LINE
  8
0
 10
149.63
 20
44.4424
 11
149.813
 21
44.4774
  0
LINE
  8
0
 10
149.813
 20
44.4774
 11
150
 21
44.4892
  0
LINE
  8
0
 10
150
 20
44.4892
 11
150.187
 21
44.4774
  0
LINE
  8
0
 10
150.187
 20
44.4774
 11
150.37
 21
44.4424
  0
LINE
  8
0
 10
150.37
 20
44.4424
 11
150.548
 21
44.3846
  0
LINE
  8
0
 10
150.548
 20
44.3846
 11
150.717
 21
44.305
  0
LINE
  8
0
 10
150.717
 20
44.305
 11
150.875
 21
44.2048
  0
LINE
  8
0
 10
150.875
 20
44.2048
 11
151.019
 21
44.0856
  0
LINE
  8
0
 10
151.019
 20
44.0856
 11
151.147
 21
43.9492
  0
LINE
  8
0
 10
151.147
 20
43.9492
 11
151.257
 21
43.7979
  0
LINE
  8
0
 10
151.257
 20
43.7979
 11
151.347
 21
43.6342
  0
LINE
  8
0
 10
151.347
 20
43.6342
 11
151.416
 21
43.4602
  0
LINE
  8
0
 10
151.416
 20
43.4602
 11
151.463
 21
43.279
  0
LINE
  8
0
 10
151.463
 20
43.279
 11
151.486
 21
43.0934
  0
LINE
  8
0
 10
151.486
 20
43.0934
 11
151.486
 21
42.9066
  0
LINE
  8
0
 10
151.486
 20
42.9066
 11
151.463
 21
42.721
  0
LINE
  8
0
 10
151.463
 20
42.721
 11
151.416
 21
42.5398
  0
LINE
  8
0
 10
151.416
 20
42.5398
 11
151.347
 21
42.3658
  0
LINE
  8
0
 10
151.347
 20
42.3658
 11
151.257
 21
42.2021
  0
LINE
  8
0
 10
151.257
 20
42.2021
 11
151.147
 21
42.0507
  0
LINE
  8
0
 10
151.147
 20
42.0507
 11
151.019
 21
41.9144
  0
LINE
  8
0
 10
151.019
 20
41.9144
 11
150.875
 21
41.7952
  0
LINE
  8
0
 10
150.875
 20
41.7952
 11
150.717
 21
41.695
  0
LINE
  8
0
 10
150.717
 20
41.695
 11
150.548
 21
41.6153
  0
LINE
  8
0
 10
150.548
 20
41.6153
 11
150.37
 21
41.5576
  0
LINE
  8
0
 10
150.37
 20
41.5576
 11
150.187
 21
41.5225
  0
LINE
  8
0
 10
150.187
 20
41.5225
 11
150
 21
41.5108
  0
LINE
  8
0
 10
150
 20
41.5108
 11
149.813
 21
41.5225
  0
LINE
  8
0
 10
16.9
 20
-356.639
 11
22.8705
 21
-356.639
  0
LINE
  8
0
 10
22.8705
 20
-356.639
 11
23.6057
 21
-356.546
  0
LINE
  8
0
 10
23.6057
 20
-356.546
 11
24.3234
 21
-356.362
  0
LINE
  8
0
 10
24.3234
 20
-356.362
 11
25.0124
 21
-356.089
  0
LINE
  8
0
 10
25.0124
 20
-356.089
 11
25.6618
 21
-355.732
  0
LINE
  8
0
 10
25.6618
 20
-355.732
 11
26.2613
 21
-355.297
  0
LINE
  8
0
 10
26.2613
 20
-355.297
 11
26.8015
 21
-354.789
  0
LINE
  8
0
 10
26.8015
 20
-354.789
 11
27.2738
 21
-354.218
  0
LINE
  8
0
 10
27.2738
 20
-354.218
 11
27.6709
 21
-353.593
  0
LINE
  8
0
 10
27.6709
 20
-353.593
 11
27.9864
 21
-352.922
  0
LINE
  8
0
 10
27.9864
 20
-352.922
 11
28.2154
 21
-352.217
  0
LINE
  8
0
 10
28.2154
 20
-352.217
 11
28.3542
 21
-351.49
  0
LINE
  8
0
 10
28.3542
 20
-351.49
 11
28.4008
 21
-350.75
  0
LINE
  8
0
 10
28.4008
 20
-350.75
 11
28.3542
 21
-350.01
  0
LINE
  8
0
 10
28.3542
 20
-350.01
 11
28.2154
 21
-349.283
  0
LINE
  8
0
 10
28.2154
 20
-349.283
 11
27.9864
 21
-348.578
  0
LINE
  8
0
 10
27.9864
 20
-348.578
 11
27.6709
 21
-347.907
  0
LINE
  8
0
 10
27.6709
 20
-347.907
 11
27.2827
 21
-347.296
  0
LINE
  8
0
 10
27.2827
 20
-347.296
 11
15.7683
 21
-330.775
  0
LINE
  8
0
 10
15.7683
 20
-330.775
 11
15.3015
 21
-330.211
  0
LINE
  8
0
 10
15.3015
 20
-330.211
 11
14.7613
 21
-329.703
  0
LINE
  8
0
 10
14.7613
 20
-329.703
 11
14.1618
 21
-329.268
  0
LINE
  8
0
 10
14.1618
 20
-329.268
 11
13.5124
 21
-328.911
  0
LINE
  8
0
 10
13.5124
 20
-328.911
 11
12.8234
 21
-328.638
  0
LINE
  8
0
 10
12.8234
 20
-328.638
 11
12.1057
 21
-328.454
  0
LINE
  8
0
 10
12.1057
 20
-328.454
 11
11.3705
 21
-328.361
  0
LINE
  8
0
 10
11.3705
 20
-328.361
 11
10.6295
 21
-328.361
  0
LINE
  8
0
 10
10.6295
 20
-328.361
 11
9.89429
 21
-328.454
  0
LINE
  8
0
 10
9.89429
 20
-328.454
 11
9.17654
 21
-328.638
  0
LINE
  8
0
 10
9.17654
 20
-328.638
 11
8.48755
 21
-328.911
  0
LINE
  8
0
 10
8.48755
 20
-328.911
 11
7.8382
 21
-329.268
  0
LINE
  8
0
 10
7.8382
 20
-329.268
 11
7.23868
 21
-329.703
  0
LINE
  8
0
 10
7.23868
 20
-329.703
 11
6.6985
 21
-330.211
  0
LINE
  8
0
 10
6.6985
 20
-330.211
 11
6.22903
 21
-330.778
  0
LINE
  8
0
 10
6.22903
 20
-330.778
 11
-3.15221
 21
-344.85
  0
LINE
  8
0
 10
-3.15221
 20
-344.85
 11
-36.9
 21
-344.85
  0
LINE
  8
0
 10
-36.9
 20
-344.85
 11
-36.9
 21
-344.861
  0
LINE
  8
0
 10
-36.9
 20
-344.861
 11
-69.3297
 21
-344.861
  0
LINE
  8
0
 10
-69.3297
 20
-344.861
 11
-70.0649
 21
-344.954
  0
LINE
  8
0
 10
-70.0649
 20
-344.954
 11
-70.7826
 21
-345.138
  0
LINE
  8
0
 10
-70.7826
 20
-345.138
 11
-71.4716
 21
-345.411
  0
LINE
  8
0
 10
-71.4716
 20
-345.411
 11
-72.121
 21
-345.768
  0
LINE
  8
0
 10
-72.121
 20
-345.768
 11
-72.7205
 21
-346.203
  0
LINE
  8
0
 10
-72.7205
 20
-346.203
 11
-73.2607
 21
-346.711
  0
LINE
  8
0
 10
-73.2607
 20
-346.711
 11
-73.733
 21
-347.282
  0
LINE
  8
0
 10
-73.733
 20
-347.282
 11
-74.1301
 21
-347.907
  0
LINE
  8
0
 10
-74.1301
 20
-347.907
 11
-74.4456
 21
-348.578
  0
LINE
  8
0
 10
-74.4456
 20
-348.578
 11
-74.6746
 21
-349.283
  0
LINE
  8
0
 10
-74.6746
 20
-349.283
 11
-74.8135
 21
-350.01
  0
LINE
  8
0
 10
-74.8135
 20
-350.01
 11
-74.86
 21
-350.75
  0
LINE
  8
0
 10
-74.86
 20
-350.75
 11
-74.8135
 21
-351.49
  0
LINE
  8
0
 10
-74.8135
 20
-351.49
 11
-74.6746
 21
-352.217
  0
LINE
  8
0
 10
-74.6746
 20
-352.217
 11
-74.4456
 21
-352.922
  0
LINE
  8
0
 10
-74.4456
 20
-352.922
 11
-74.1301
 21
-353.593
  0
LINE
  8
0
 10
-74.1301
 20
-353.593
 11
-73.733
 21
-354.218
  0
LINE
  8
0
 10
-73.733
 20
-354.218
 11
-73.2607
 21
-354.789
  0
LINE
  8
0
 10
-73.2607
 20
-354.789
 11
-72.7205
 21
-355.297
  0
LINE
  8
0
 10
-72.7205
 20
-355.297
 11
-72.121
 21
-355.732
  0
LINE
  8
0
 10
-72.121
 20
-355.732
 11
-71.4716
 21
-356.089
  0
LINE
  8
0
 10
-71.4716
 20
-356.089
 11
-70.7826
 21
-356.362
  0
LINE
  8
0
 10
-70.7826
 20
-356.362
 11
-70.0649
 21
-356.546
  0
LINE
  8
0
 10
-70.0649
 20
-356.546
 11
-69.3297
 21
-356.639
  0
LINE
  8
0
 10
-69.3297
 20
-356.639
 11
-36.9
 21
-356.639
  0
LINE
  8
0
 10
-36.9
 20
-356.639
 11
-36.9
 21
-356.65
  0
LINE
  8
0
 10
-36.9
 20
-356.65
 11
16.9
 21
-356.65
  0
LINE
  8
0
 10
16.9
 20
-356.65
 11
16.9
 21
-356.639
  0
LINE
  8
0
 10
11
 20
-335.739
 11
10.8133
 21
-335.727
  0
LINE
  8
0
 10
10.8133
 20
-335.727
 11
10.6296
 21
-335.692
  0
LINE
  8
0
 10
10.6296
 20
-335.692
 11
10.4518
 21
-335.635
  0
LINE
  8
0
 10
10.4518
 20
-335.635
 11
10.2826
 21
-335.555
  0
LINE
  8
0
 10
10.2826
 20
-335.555
 11
10.1247
 21
-335.455
  0
LINE
  8
0
 10
10.1247
 20
-335.455
 11
9.98059
 21
-335.336
  0
LINE
  8
0
 10
9.98059
 20
-335.336
 11
9.85257
 21
-335.199
  0
LINE
  8
0
 10
9.85257
 20
-335.199
 11
9.7426
 21
-335.048
  0
LINE
  8
0
 10
9.7426
 20
-335.048
 11
9.65253
 21
-334.884
  0
LINE
  8
0
 10
9.65253
 20
-334.884
 11
9.58368
 21
-334.71
  0
LINE
  8
0
 10
9.58368
 20
-334.71
 11
9.53716
 21
-334.529
  0
LINE
  8
0
 10
9.53716
 20
-334.529
 11
9.51372
 21
-334.343
  0
LINE
  8
0
 10
9.51372
 20
-334.343
 11
9.51372
 21
-334.157
  0
LINE
  8
0
 10
9.51372
 20
-334.157
 11
9.53716
 21
-333.971
  0
LINE
  8
0
 10
9.53716
 20
-333.971
 11
9.58368
 21
-333.79
  0
LINE
  8
0
 10
9.58368
 20
-333.79
 11
9.65253
 21
-333.616
  0
LINE
  8
0
 10
9.65253
 20
-333.616
 11
9.7426
 21
-333.452
  0
LINE
  8
0
 10
9.7426
 20
-333.452
 11
9.85257
 21
-333.301
  0
LINE
  8
0
 10
9.85257
 20
-333.301
 11
9.98059
 21
-333.164
  0
LINE
  8
0
 10
9.98059
 20
-333.164
 11
10.1246
 21
-333.045
  0
LINE
  8
0
 10
10.1246
 20
-333.045
 11
10.2825
 21
-332.945
  0
LINE
  8
0
 10
10.2825
 20
-332.945
 11
10.4518
 21
-332.865
  0
LINE
  8
0
 10
10.4518
 20
-332.865
 11
10.6296
 21
-332.808
  0
LINE
  8
0
 10
10.6296
 20
-332.808
 11
10.8133
 21
-332.773
  0
LINE
  8
0
 10
10.8133
 20
-332.773
 11
11
 21
-332.761
  0
LINE
  8
0
 10
11
 20
-332.761
 11
11.1867
 21
-332.773
  0
LINE
  8
0
 10
11.1867
 20
-332.773
 11
11.3704
 21
-332.808
  0
LINE
  8
0
 10
11.3704
 20
-332.808
 11
11.5482
 21
-332.865
  0
LINE
  8
0
 10
11.5482
 20
-332.865
 11
11.7174
 21
-332.945
  0
LINE
  8
0
 10
11.7174
 20
-332.945
 11
11.8754
 21
-333.045
  0
LINE
  8
0
 10
11.8754
 20
-333.045
 11
12.0194
 21
-333.164
  0
LINE
  8
0
 10
12.0194
 20
-333.164
 11
12.1474
 21
-333.301
  0
LINE
  8
0
 10
12.1474
 20
-333.301
 11
12.2574
 21
-333.452
  0
LINE
  8
0
 10
12.2574
 20
-333.452
 11
12.3474
 21
-333.616
  0
LINE
  8
0
 10
12.3474
 20
-333.616
 11
12.4163
 21
-333.79
  0
LINE
  8
0
 10
12.4163
 20
-333.79
 11
12.4628
 21
-333.971
  0
LINE
  8
0
 10
12.4628
 20
-333.971
 11
12.4863
 21
-334.157
  0
LINE
  8
0
 10
12.4863
 20
-334.157
 11
12.4863
 21
-334.343
  0
LINE
  8
0
 10
12.4863
 20
-334.343
 11
12.4628
 21
-334.529
  0
LINE
  8
0
 10
12.4628
 20
-334.529
 11
12.4163
 21
-334.71
  0
LINE
  8
0
 10
12.4163
 20
-334.71
 11
12.3474
 21
-334.884
  0
LINE
  8
0
 10
12.3474
 20
-334.884
 11
12.2574
 21
-335.048
  0
LINE
  8
0
 10
12.2574
 20
-335.048
 11
12.1474
 21
-335.199
  0
LINE
  8
0
 10
12.1474
 20
-335.199
 11
12.0194
 21
-335.336
  0
LINE
  8
0
 10
12.0194
 20
-335.336
 11
11.8753
 21
-335.455
  0
LINE
  8
0
 10
11.8753
 20
-335.455
 11
11.7175
 21
-335.555
  0
LINE
  8
0
 10
11.7175
 20
-335.555
 11
11.5482
 21
-335.635
  0
LINE
  8
0
 10
11.5482
 20
-335.635
 11
11.3704
 21
-335.692
  0
LINE
  8
0
 10
11.3704
 20
-335.692
 11
11.1867
 21
-335.727
  0
LINE
  8
0
 10
11.1867
 20
-335.727
 11
11
 21
-335.739
  0
LINE
  8
0
 10
-68.9592
 20
-352.239
 11
-69.1459
 21
-352.227
  0
LINE
  8
0
 10
-69.1459
 20
-352.227
 11
-69.3296
 21
-352.192
  0
LINE
  8
0
 10
-69.3296
 20
-352.192
 11
-69.5074
 21
-352.135
  0
LINE
  8
0
 10
-69.5074
 20
-352.135
 11
-69.6766
 21
-352.055
  0
LINE
  8
0
 10
-69.6766
 20
-352.055
 11
-69.8346
 21
-351.955
  0
LINE
  8
0
 10
-69.8346
 20
-351.955
 11
-69.9786
 21
-351.836
  0
LINE
  8
0
 10
-69.9786
 20
-351.836
 11
-70.1066
 21
-351.699
  0
LINE
  8
0
 10
-70.1066
 20
-351.699
 11
-70.2166
 21
-351.548
  0
LINE
  8
0
 10
-70.2166
 20
-351.548
 11
-70.3067
 21
-351.384
  0
LINE
  8
0
 10
-70.3067
 20
-351.384
 11
-70.3755
 21
-351.21
  0
LINE
  8
0
 10
-70.3755
 20
-351.21
 11
-70.422
 21
-351.029
  0
LINE
  8
0
 10
-70.422
 20
-351.029
 11
-70.4455
 21
-350.843
  0
LINE
  8
0
 10
-70.4455
 20
-350.843
 11
-70.4455
 21
-350.657
  0
LINE
  8
0
 10
-70.4455
 20
-350.657
 11
-70.422
 21
-350.471
  0
LINE
  8
0
 10
-70.422
 20
-350.471
 11
-70.3755
 21
-350.29
  0
LINE
  8
0
 10
-70.3755
 20
-350.29
 11
-70.3067
 21
-350.116
  0
LINE
  8
0
 10
-70.3067
 20
-350.116
 11
-70.2166
 21
-349.952
  0
LINE
  8
0
 10
-70.2166
 20
-349.952
 11
-70.1066
 21
-349.801
  0
LINE
  8
0
 10
-70.1066
 20
-349.801
 11
-69.9786
 21
-349.664
  0
LINE
  8
0
 10
-69.9786
 20
-349.664
 11
-69.8345
 21
-349.545
  0
LINE
  8
0
 10
-69.8345
 20
-349.545
 11
-69.6767
 21
-349.445
  0
LINE
  8
0
 10
-69.6767
 20
-349.445
 11
-69.5074
 21
-349.365
  0
LINE
  8
0
 10
-69.5074
 20
-349.365
 11
-69.3296
 21
-349.308
  0
LINE
  8
0
 10
-69.3296
 20
-349.308
 11
-69.1459
 21
-349.273
  0
LINE
  8
0
 10
-69.1459
 20
-349.273
 11
-68.9592
 21
-349.261
  0
LINE
  8
0
 10
-68.9592
 20
-349.261
 11
-68.7725
 21
-349.273
  0
LINE
  8
0
 10
-68.7725
 20
-349.273
 11
-68.5888
 21
-349.308
  0
LINE
  8
0
 10
-68.5888
 20
-349.308
 11
-68.411
 21
-349.365
  0
LINE
  8
0
 10
-68.411
 20
-349.365
 11
-68.2417
 21
-349.445
  0
LINE
  8
0
 10
-68.2417
 20
-349.445
 11
-68.0838
 21
-349.545
  0
LINE
  8
0
 10
-68.0838
 20
-349.545
 11
-67.9398
 21
-349.664
  0
LINE
  8
0
 10
-67.9398
 20
-349.664
 11
-67.8118
 21
-349.801
  0
LINE
  8
0
 10
-67.8118
 20
-349.801
 11
-67.7018
 21
-349.952
  0
LINE
  8
0
 10
-67.7018
 20
-349.952
 11
-67.6117
 21
-350.116
  0
LINE
  8
0
 10
-67.6117
 20
-350.116
 11
-67.5429
 21
-350.29
  0
LINE
  8
0
 10
-67.5429
 20
-350.29
 11
-67.4964
 21
-350.471
  0
LINE
  8
0
 10
-67.4964
 20
-350.471
 11
-67.4729
 21
-350.657
  0
LINE
  8
0
 10
-67.4729
 20
-350.657
 11
-67.4729
 21
-350.843
  0
LINE
  8
0
 10
-67.4729
 20
-350.843
 11
-67.4964
 21
-351.029
  0
LINE
  8
0
 10
-67.4964
 20
-351.029
 11
-67.5429
 21
-351.21
  0
LINE
  8
0
 10
-67.5429
 20
-351.21
 11
-67.6117
 21
-351.384
  0
LINE
  8
0
 10
-67.6117
 20
-351.384
 11
-67.7018
 21
-351.548
  0
LINE
  8
0
 10
-67.7018
 20
-351.548
 11
-67.8118
 21
-351.699
  0
LINE
  8
0
 10
-67.8118
 20
-351.699
 11
-67.9398
 21
-351.836
  0
LINE
  8
0
 10
-67.9398
 20
-351.836
 11
-68.0839
 21
-351.955
  0
LINE
  8
0
 10
-68.0839
 20
-351.955
 11
-68.2418
 21
-352.055
  0
LINE
  8
0
 10
-68.2418
 20
-352.055
 11
-68.411
 21
-352.135
  0
LINE
  8
0
 10
-68.411
 20
-352.135
 11
-68.5888
 21
-352.192
  0
LINE
  8
0
 10
-68.5888
 20
-352.192
 11
-68.7725
 21
-352.227
  0
LINE
  8
0
 10
-68.7725
 20
-352.227
 11
-68.9592
 21
-352.239
  0
LINE
  8
0
 10
22.5
 20
-352.239
 11
22.3133
 21
-352.227
  0
LINE
  8
0
 10
22.3133
 20
-352.227
 11
22.1296
 21
-352.192
  0
LINE
  8
0
 10
22.1296
 20
-352.192
 11
21.9518
 21
-352.135
  0
LINE
  8
0
 10
21.9518
 20
-352.135
 11
21.7826
 21
-352.055
  0
LINE
  8
0
 10
21.7826
 20
-352.055
 11
21.6247
 21
-351.955
  0
LINE
  8
0
 10
21.6247
 20
-351.955
 11
21.4806
 21
-351.836
  0
LINE
  8
0
 10
21.4806
 20
-351.836
 11
21.3526
 21
-351.699
  0
LINE
  8
0
 10
21.3526
 20
-351.699
 11
21.2426
 21
-351.548
  0
LINE
  8
0
 10
21.2426
 20
-351.548
 11
21.1525
 21
-351.384
  0
LINE
  8
0
 10
21.1525
 20
-351.384
 11
21.0837
 21
-351.21
  0
LINE
  8
0
 10
21.0837
 20
-351.21
 11
21.0372
 21
-351.029
  0
LINE
  8
0
 10
21.0372
 20
-351.029
 11
21.0137
 21
-350.843
  0
LINE
  8
0
 10
21.0137
 20
-350.843
 11
21.0137
 21
-350.657
  0
LINE
  8
0
 10
21.0137
 20
-350.657
 11
21.0372
 21
-350.471
  0
LINE
  8
0
 10
21.0372
 20
-350.471
 11
21.0837
 21
-350.29
  0
LINE
  8
0
 10
21.0837
 20
-350.29
 11
21.1525
 21
-350.116
  0
LINE
  8
0
 10
21.1525
 20
-350.116
 11
21.2426
 21
-349.952
  0
LINE
  8
0
 10
21.2426
 20
-349.952
 11
21.3526
 21
-349.801
  0
LINE
  8
0
 10
21.3526
 20
-349.801
 11
21.4806
 21
-349.664
  0
LINE
  8
0
 10
21.4806
 20
-349.664
 11
21.6246
 21
-349.545
  0
LINE
  8
0
 10
21.6246
 20
-349.545
 11
21.7825
 21
-349.445
  0
LINE
  8
0
 10
21.7825
 20
-349.445
 11
21.9518
 21
-349.365
  0
LINE
  8
0
 10
21.9518
 20
-349.365
 11
22.1296
 21
-349.308
  0
LINE
  8
0
 10
22.1296
 20
-349.308
 11
22.3133
 21
-349.273
  0
LINE
  8
0
 10
22.3133
 20
-349.273
 11
22.5
 21
-349.261
  0
LINE
  8
0
 10
22.5
 20
-349.261
 11
22.6867
 21
-349.273
  0
LINE
  8
0
 10
22.6867
 20
-349.273
 11
22.8704
 21
-349.308
  0
LINE
  8
0
 10
22.8704
 20
-349.308
 11
23.0482
 21
-349.365
  0
LINE
  8
0
 10
23.0482
 20
-349.365
 11
23.2174
 21
-349.445
  0
LINE
  8
0
 10
23.2174
 20
-349.445
 11
23.3754
 21
-349.545
  0
LINE
  8
0
 10
23.3754
 20
-349.545
 11
23.5194
 21
-349.664
  0
LINE
  8
0
 10
23.5194
 20
-349.664
 11
23.6474
 21
-349.801
  0
LINE
  8
0
 10
23.6474
 20
-349.801
 11
23.7574
 21
-349.952
  0
LINE
  8
0
 10
23.7574
 20
-349.952
 11
23.8474
 21
-350.116
  0
LINE
  8
0
 10
23.8474
 20
-350.116
 11
23.9163
 21
-350.29
  0
LINE
  8
0
 10
23.9163
 20
-350.29
 11
23.9628
 21
-350.471
  0
LINE
  8
0
 10
23.9628
 20
-350.471
 11
23.9863
 21
-350.657
  0
LINE
  8
0
 10
23.9863
 20
-350.657
 11
23.9863
 21
-350.843
  0
LINE
  8
0
 10
23.9863
 20
-350.843
 11
23.9628
 21
-351.029
  0
LINE
  8
0
 10
23.9628
 20
-351.029
 11
23.9163
 21
-351.21
  0
LINE
  8
0
 10
23.9163
 20
-351.21
 11
23.8474
 21
-351.384
  0
LINE
  8
0
 10
23.8474
 20
-351.384
 11
23.7574
 21
-351.548
  0
LINE
  8
0
 10
23.7574
 20
-351.548
 11
23.6474
 21
-351.699
  0
LINE
  8
0
 10
23.6474
 20
-351.699
 11
23.5194
 21
-351.836
  0
LINE
  8
0
 10
23.5194
 20
-351.836
 11
23.3753
 21
-351.955
  0
LINE
  8
0
 10
23.3753
 20
-351.955
 11
23.2175
 21
-352.055
  0
LINE
  8
0
 10
23.2175
 20
-352.055
 11
23.0482
 21
-352.135
  0
LINE
  8
0
 10
23.0482
 20
-352.135
 11
22.8704
 21
-352.192
  0
LINE
  8
0
 10
22.8704
 20
-352.192
 11
22.6867
 21
-352.227
  0
LINE
  8
0
 10
22.6867
 20
-352.227
 11
22.5
 21
-352.239
  0
LINE
  8
0
 10
-79.1
 20
-385.389
 11
-73.1295
 21
-385.389
  0
LINE
  8
0
 10
-73.1295
 20
-385.389
 11
-72.3943
 21
-385.296
  0
LINE
  8
0
 10
-72.3943
 20
-385.296
 11
-71.6765
 21
-385.112
  0
LINE
  8
0
 10
-71.6765
 20
-385.112
 11
-70.9875
 21
-384.839
  0
LINE
  8
0
 10
-70.9875
 20
-384.839
 11
-70.3382
 21
-384.482
  0
LINE
  8
0
 10
-70.3382
 20
-384.482
 11
-69.7387
 21
-384.047
  0
LINE
  8
0
 10
-69.7387
 20
-384.047
 11
-69.1985
 21
-383.539
  0
LINE
  8
0
 10
-69.1985
 20
-383.539
 11
-68.7262
 21
-382.968
  0
LINE
  8
0
 10
-68.7262
 20
-382.968
 11
-68.3291
 21
-382.343
  0
LINE
  8
0
 10
-68.3291
 20
-382.343
 11
-68.0136
 21
-381.672
  0
LINE
  8
0
 10
-68.0136
 20
-381.672
 11
-67.7846
 21
-380.967
  0
LINE
  8
0
 10
-67.7846
 20
-380.967
 11
-67.6457
 21
-380.24
  0
LINE
  8
0
 10
-67.6457
 20
-380.24
 11
-67.5992
 21
-379.5
  0
LINE
  8
0
 10
-67.5992
 20
-379.5
 11
-67.6457
 21
-378.76
  0
LINE
  8
0
 10
-67.6457
 20
-378.76
 11
-67.7846
 21
-378.033
  0
LINE
  8
0
 10
-67.7846
 20
-378.033
 11
-68.0136
 21
-377.328
  0
LINE
  8
0
 10
-68.0136
 20
-377.328
 11
-68.3291
 21
-376.657
  0
LINE
  8
0
 10
-68.3291
 20
-376.657
 11
-68.7262
 21
-376.032
  0
LINE
  8
0
 10
-68.7262
 20
-376.032
 11
-69.1985
 21
-375.461
  0
LINE
  8
0
 10
-69.1985
 20
-375.461
 11
-69.7387
 21
-374.953
  0
LINE
  8
0
 10
-69.7387
 20
-374.953
 11
-70.3382
 21
-374.518
  0
LINE
  8
0
 10
-70.3382
 20
-374.518
 11
-70.9671
 21
-374.172
  0
LINE
  8
0
 10
-70.9671
 20
-374.172
 11
-92.3642
 21
-362.66
  0
LINE
  8
0
 10
-92.3642
 20
-362.66
 11
-93.0515
 21
-362.388
  0
LINE
  8
0
 10
-93.0515
 20
-362.388
 11
-93.7693
 21
-362.204
  0
LINE
  8
0
 10
-93.7693
 20
-362.204
 11
-94.5045
 21
-362.111
  0
LINE
  8
0
 10
-94.5045
 20
-362.111
 11
-95.2455
 21
-362.111
  0
LINE
  8
0
 10
-95.2455
 20
-362.111
 11
-95.9807
 21
-362.204
  0
LINE
  8
0
 10
-95.9807
 20
-362.204
 11
-96.6984
 21
-362.388
  0
LINE
  8
0
 10
-96.6984
 20
-362.388
 11
-97.3857
 21
-362.66
  0
LINE
  8
0
 10
-97.3857
 20
-362.66
 11
-118.783
 21
-374.172
  0
LINE
  8
0
 10
-118.783
 20
-374.172
 11
-119.412
 21
-374.518
  0
LINE
  8
0
 10
-119.412
 20
-374.518
 11
-120.011
 21
-374.953
  0
LINE
  8
0
 10
-120.011
 20
-374.953
 11
-120.551
 21
-375.461
  0
LINE
  8
0
 10
-120.551
 20
-375.461
 11
-121.024
 21
-376.032
  0
LINE
  8
0
 10
-121.024
 20
-376.032
 11
-121.421
 21
-376.657
  0
LINE
  8
0
 10
-121.421
 20
-376.657
 11
-121.736
 21
-377.328
  0
LINE
  8
0
 10
-121.736
 20
-377.328
 11
-121.965
 21
-378.033
  0
LINE
  8
0
 10
-121.965
 20
-378.033
 11
-122.104
 21
-378.76
  0
LINE
  8
0
 10
-122.104
 20
-378.76
 11
-122.151
 21
-379.5
  0
LINE
  8
0
 10
-122.151
 20
-379.5
 11
-122.104
 21
-380.24
  0
LINE
  8
0
 10
-122.104
 20
-380.24
 11
-121.965
 21
-380.967
  0
LINE
  8
0
 10
-121.965
 20
-380.967
 11
-121.736
 21
-381.672
  0
LINE
  8
0
 10
-121.736
 20
-381.672
 11
-121.421
 21
-382.343
  0
LINE
  8
0
 10
-121.421
 20
-382.343
 11
-121.024
 21
-382.968
  0
LINE
  8
0
 10
-121.024
 20
-382.968
 11
-120.551
 21
-383.539
  0
LINE
  8
0
 10
-120.551
 20
-383.539
 11
-120.011
 21
-384.047
  0
LINE
  8
0
 10
-120.011
 20
-384.047
 11
-119.412
 21
-384.482
  0
LINE
  8
0
 10
-119.412
 20
-384.482
 11
-118.762
 21
-384.839
  0
LINE
  8
0
 10
-118.762
 20
-384.839
 11
-118.073
 21
-385.112
  0
LINE
  8
0
 10
-118.073
 20
-385.112
 11
-117.356
 21
-385.296
  0
LINE
  8
0
 10
-117.356
 20
-385.296
 11
-116.62
 21
-385.389
  0
LINE
  8
0
 10
-116.62
 20
-385.389
 11
-110.65
 21
-385.389
  0
LINE
  8
0
 10
-110.65
 20
-385.389
 11
-110.65
 21
-385.4
  0
LINE
  8
0
 10
-110.65
 20
-385.4
 11
-79.1
 21
-385.4
  0
LINE
  8
0
 10
-79.1
 20
-385.4
 11
-79.1
 21
-385.389
  0
LINE
  8
0
 10
-94.875
 20
-369.489
 11
-95.0617
 21
-369.477
  0
LINE
  8
0
 10
-95.0617
 20
-369.477
 11
-95.2454
 21
-369.442
  0
LINE
  8
0
 10
-95.2454
 20
-369.442
 11
-95.4232
 21
-369.385
  0
LINE
  8
0
 10
-95.4232
 20
-369.385
 11
-95.5924
 21
-369.305
  0
LINE
  8
0
 10
-95.5924
 20
-369.305
 11
-95.7503
 21
-369.205
  0
LINE
  8
0
 10
-95.7503
 20
-369.205
 11
-95.8944
 21
-369.086
  0
LINE
  8
0
 10
-95.8944
 20
-369.086
 11
-96.0224
 21
-368.949
  0
LINE
  8
0
 10
-96.0224
 20
-368.949
 11
-96.1324
 21
-368.798
  0
LINE
  8
0
 10
-96.1324
 20
-368.798
 11
-96.2225
 21
-368.634
  0
LINE
  8
0
 10
-96.2225
 20
-368.634
 11
-96.2913
 21
-368.46
  0
LINE
  8
0
 10
-96.2913
 20
-368.46
 11
-96.3378
 21
-368.279
  0
LINE
  8
0
 10
-96.3378
 20
-368.279
 11
-96.3613
 21
-368.093
  0
LINE
  8
0
 10
-96.3613
 20
-368.093
 11
-96.3613
 21
-367.907
  0
LINE
  8
0
 10
-96.3613
 20
-367.907
 11
-96.3378
 21
-367.721
  0
LINE
  8
0
 10
-96.3378
 20
-367.721
 11
-96.2913
 21
-367.54
  0
LINE
  8
0
 10
-96.2913
 20
-367.54
 11
-96.2225
 21
-367.366
  0
LINE
  8
0
 10
-96.2225
 20
-367.366
 11
-96.1324
 21
-367.202
  0
LINE
  8
0
 10
-96.1324
 20
-367.202
 11
-96.0224
 21
-367.051
  0
LINE
  8
0
 10
-96.0224
 20
-367.051
 11
-95.8944
 21
-366.914
  0
LINE
  8
0
 10
-95.8944
 20
-366.914
 11
-95.7504
 21
-366.795
  0
LINE
  8
0
 10
-95.7504
 20
-366.795
 11
-95.5924
 21
-366.695
  0
LINE
  8
0
 10
-95.5924
 20
-366.695
 11
-95.4231
 21
-366.615
  0
LINE
  8
0
 10
-95.4231
 20
-366.615
 11
-95.2454
 21
-366.558
  0
LINE
  8
0
 10
-95.2454
 20
-366.558
 11
-95.0617
 21
-366.523
  0
LINE
  8
0
 10
-95.0617
 20
-366.523
 11
-94.875
 21
-366.511
  0
LINE
  8
0
 10
-94.875
 20
-366.511
 11
-94.6883
 21
-366.523
  0
LINE
  8
0
 10
-94.6883
 20
-366.523
 11
-94.5046
 21
-366.558
  0
LINE
  8
0
 10
-94.5046
 20
-366.558
 11
-94.3268
 21
-366.615
  0
LINE
  8
0
 10
-94.3268
 20
-366.615
 11
-94.1576
 21
-366.695
  0
LINE
  8
0
 10
-94.1576
 20
-366.695
 11
-93.9996
 21
-366.795
  0
LINE
  8
0
 10
-93.9996
 20
-366.795
 11
-93.8556
 21
-366.914
  0
LINE
  8
0
 10
-93.8556
 20
-366.914
 11
-93.7275
 21
-367.051
  0
LINE
  8
0
 10
-93.7275
 20
-367.051
 11
-93.6176
 21
-367.202
  0
LINE
  8
0
 10
-93.6176
 20
-367.202
 11
-93.5276
 21
-367.366
  0
LINE
  8
0
 10
-93.5276
 20
-367.366
 11
-93.4587
 21
-367.54
  0
LINE
  8
0
 10
-93.4587
 20
-367.54
 11
-93.4122
 21
-367.721
  0
LINE
  8
0
 10
-93.4122
 20
-367.721
 11
-93.3887
 21
-367.907
  0
LINE
  8
0
 10
-93.3887
 20
-367.907
 11
-93.3887
 21
-368.093
  0
LINE
  8
0
 10
-93.3887
 20
-368.093
 11
-93.4122
 21
-368.279
  0
LINE
  8
0
 10
-93.4122
 20
-368.279
 11
-93.4587
 21
-368.46
  0
LINE
  8
0
 10
-93.4587
 20
-368.46
 11
-93.5276
 21
-368.634
  0
LINE
  8
0
 10
-93.5276
 20
-368.634
 11
-93.6176
 21
-368.798
  0
LINE
  8
0
 10
-93.6176
 20
-368.798
 11
-93.7275
 21
-368.949
  0
LINE
  8
0
 10
-93.7275
 20
-368.949
 11
-93.8556
 21
-369.086
  0
LINE
  8
0
 10
-93.8556
 20
-369.086
 11
-93.9997
 21
-369.205
  0
LINE
  8
0
 10
-93.9997
 20
-369.205
 11
-94.1575
 21
-369.305
  0
LINE
  8
0
 10
-94.1575
 20
-369.305
 11
-94.3268
 21
-369.385
  0
LINE
  8
0
 10
-94.3268
 20
-369.385
 11
-94.5046
 21
-369.442
  0
LINE
  8
0
 10
-94.5046
 20
-369.442
 11
-94.6883
 21
-369.477
  0
LINE
  8
0
 10
-94.6883
 20
-369.477
 11
-94.875
 21
-369.489
  0
LINE
  8
0
 10
-116.25
 20
-380.989
 11
-116.437
 21
-380.977
  0
LINE
  8
0
 10
-116.437
 20
-380.977
 11
-116.62
 21
-380.942
  0
LINE
  8
0
 10
-116.62
 20
-380.942
 11
-116.798
 21
-380.885
  0
LINE
  8
0
 10
-116.798
 20
-380.885
 11
-116.967
 21
-380.805
  0
LINE
  8
0
 10
-116.967
 20
-380.805
 11
-117.125
 21
-380.705
  0
LINE
  8
0
 10
-117.125
 20
-380.705
 11
-117.269
 21
-380.586
  0
LINE
  8
0
 10
-117.269
 20
-380.586
 11
-117.397
 21
-380.449
  0
LINE
  8
0
 10
-117.397
 20
-380.449
 11
-117.507
 21
-380.298
  0
LINE
  8
0
 10
-117.507
 20
-380.298
 11
-117.597
 21
-380.134
  0
LINE
  8
0
 10
-117.597
 20
-380.134
 11
-117.666
 21
-379.96
  0
LINE
  8
0
 10
-117.666
 20
-379.96
 11
-117.713
 21
-379.779
  0
LINE
  8
0
 10
-117.713
 20
-379.779
 11
-117.736
 21
-379.593
  0
LINE
  8
0
 10
-117.736
 20
-379.593
 11
-117.736
 21
-379.407
  0
LINE
  8
0
 10
-117.736
 20
-379.407
 11
-117.713
 21
-379.221
  0
LINE
  8
0
 10
-117.713
 20
-379.221
 11
-117.666
 21
-379.04
  0
LINE
  8
0
 10
-117.666
 20
-379.04
 11
-117.597
 21
-378.866
  0
LINE
  8
0
 10
-117.597
 20
-378.866
 11
-117.507
 21
-378.702
  0
LINE
  8
0
 10
-117.507
 20
-378.702
 11
-117.397
 21
-378.551
  0
LINE
  8
0
 10
-117.397
 20
-378.551
 11
-117.269
 21
-378.414
  0
LINE
  8
0
 10
-117.269
 20
-378.414
 11
-117.125
 21
-378.295
  0
LINE
  8
0
 10
-117.125
 20
-378.295
 11
-116.967
 21
-378.195
  0
LINE
  8
0
 10
-116.967
 20
-378.195
 11
-116.798
 21
-378.115
  0
LINE
  8
0
 10
-116.798
 20
-378.115
 11
-116.62
 21
-378.058
  0
LINE
  8
0
 10
-116.62
 20
-378.058
 11
-116.437
 21
-378.023
  0
LINE
  8
0
 10
-116.437
 20
-378.023
 11
-116.25
 21
-378.011
  0
LINE
  8
0
 10
-116.25
 20
-378.011
 11
-116.063
 21
-378.023
  0
LINE
  8
0
 10
-116.063
 20
-378.023
 11
-115.88
 21
-378.058
  0
LINE
  8
0
 10
-115.88
 20
-378.058
 11
-115.702
 21
-378.115
  0
LINE
  8
0
 10
-115.702
 20
-378.115
 11
-115.533
 21
-378.195
  0
LINE
  8
0
 10
-115.533
 20
-378.195
 11
-115.375
 21
-378.295
  0
LINE
  8
0
 10
-115.375
 20
-378.295
 11
-115.231
 21
-378.414
  0
LINE
  8
0
 10
-115.231
 20
-378.414
 11
-115.103
 21
-378.551
  0
LINE
  8
0
 10
-115.103
 20
-378.551
 11
-114.993
 21
-378.702
  0
LINE
  8
0
 10
-114.993
 20
-378.702
 11
-114.903
 21
-378.866
  0
LINE
  8
0
 10
-114.903
 20
-378.866
 11
-114.834
 21
-379.04
  0
LINE
  8
0
 10
-114.834
 20
-379.04
 11
-114.787
 21
-379.221
  0
LINE
  8
0
 10
-114.787
 20
-379.221
 11
-114.764
 21
-379.407
  0
LINE
  8
0
 10
-114.764
 20
-379.407
 11
-114.764
 21
-379.593
  0
LINE
  8
0
 10
-114.764
 20
-379.593
 11
-114.787
 21
-379.779
  0
LINE
  8
0
 10
-114.787
 20
-379.779
 11
-114.834
 21
-379.96
  0
LINE
  8
0
 10
-114.834
 20
-379.96
 11
-114.903
 21
-380.134
  0
LINE
  8
0
 10
-114.903
 20
-380.134
 11
-114.993
 21
-380.298
  0
LINE
  8
0
 10
-114.993
 20
-380.298
 11
-115.103
 21
-380.449
  0
LINE
  8
0
 10
-115.103
 20
-380.449
 11
-115.231
 21
-380.586
  0
LINE
  8
0
 10
-115.231
 20
-380.586
 11
-115.375
 21
-380.705
  0
LINE
  8
0
 10
-115.375
 20
-380.705
 11
-115.533
 21
-380.805
  0
LINE
  8
0
 10
-115.533
 20
-380.805
 11
-115.702
 21
-380.885
  0
LINE
  8
0
 10
-115.702
 20
-380.885
 11
-115.88
 21
-380.942
  0
LINE
  8
0
 10
-115.88
 20
-380.942
 11
-116.063
 21
-380.977
  0
LINE
  8
0
 10
-116.063
 20
-380.977
 11
-116.25
 21
-380.989
  0
LINE
  8
0
 10
-73.5
 20
-380.989
 11
-73.6867
 21
-380.977
  0
LINE
  8
0
 10
-73.6867
 20
-380.977
 11
-73.8704
 21
-380.942
  0
LINE
  8
0
 10
-73.8704
 20
-380.942
 11
-74.0482
 21
-380.885
  0
LINE
  8
0
 10
-74.0482
 20
-380.885
 11
-74.2174
 21
-380.805
  0
LINE
  8
0
 10
-74.2174
 20
-380.805
 11
-74.3753
 21
-380.705
  0
LINE
  8
0
 10
-74.3753
 20
-380.705
 11
-74.5194
 21
-380.586
  0
LINE
  8
0
 10
-74.5194
 20
-380.586
 11
-74.6474
 21
-380.449
  0
LINE
  8
0
 10
-74.6474
 20
-380.449
 11
-74.7574
 21
-380.298
  0
LINE
  8
0
 10
-74.7574
 20
-380.298
 11
-74.8475
 21
-380.134
  0
LINE
  8
0
 10
-74.8475
 20
-380.134
 11
-74.9163
 21
-379.96
  0
LINE
  8
0
 10
-74.9163
 20
-379.96
 11
-74.9628
 21
-379.779
  0
LINE
  8
0
 10
-74.9628
 20
-379.779
 11
-74.9863
 21
-379.593
  0
LINE
  8
0
 10
-74.9863
 20
-379.593
 11
-74.9863
 21
-379.407
  0
LINE
  8
0
 10
-74.9863
 20
-379.407
 11
-74.9628
 21
-379.221
  0
LINE
  8
0
 10
-74.9628
 20
-379.221
 11
-74.9163
 21
-379.04
  0
LINE
  8
0
 10
-74.9163
 20
-379.04
 11
-74.8475
 21
-378.866
  0
LINE
  8
0
 10
-74.8475
 20
-378.866
 11
-74.7574
 21
-378.702
  0
LINE
  8
0
 10
-74.7574
 20
-378.702
 11
-74.6474
 21
-378.551
  0
LINE
  8
0
 10
-74.6474
 20
-378.551
 11
-74.5194
 21
-378.414
  0
LINE
  8
0
 10
-74.5194
 20
-378.414
 11
-74.3754
 21
-378.295
  0
LINE
  8
0
 10
-74.3754
 20
-378.295
 11
-74.2174
 21
-378.195
  0
LINE
  8
0
 10
-74.2174
 20
-378.195
 11
-74.0481
 21
-378.115
  0
LINE
  8
0
 10
-74.0481
 20
-378.115
 11
-73.8704
 21
-378.058
  0
LINE
  8
0
 10
-73.8704
 20
-378.058
 11
-73.6867
 21
-378.023
  0
LINE
  8
0
 10
-73.6867
 20
-378.023
 11
-73.5
 21
-378.011
  0
LINE
  8
0
 10
-73.5
 20
-378.011
 11
-73.3133
 21
-378.023
  0
LINE
  8
0
 10
-73.3133
 20
-378.023
 11
-73.1296
 21
-378.058
  0
LINE
  8
0
 10
-73.1296
 20
-378.058
 11
-72.9518
 21
-378.115
  0
LINE
  8
0
 10
-72.9518
 20
-378.115
 11
-72.7826
 21
-378.195
  0
LINE
  8
0
 10
-72.7826
 20
-378.195
 11
-72.6246
 21
-378.295
  0
LINE
  8
0
 10
-72.6246
 20
-378.295
 11
-72.4806
 21
-378.414
  0
LINE
  8
0
 10
-72.4806
 20
-378.414
 11
-72.3525
 21
-378.551
  0
LINE
  8
0
 10
-72.3525
 20
-378.551
 11
-72.2426
 21
-378.702
  0
LINE
  8
0
 10
-72.2426
 20
-378.702
 11
-72.1526
 21
-378.866
  0
LINE
  8
0
 10
-72.1526
 20
-378.866
 11
-72.0837
 21
-379.04
  0
LINE
  8
0
 10
-72.0837
 20
-379.04
 11
-72.0372
 21
-379.221
  0
LINE
  8
0
 10
-72.0372
 20
-379.221
 11
-72.0137
 21
-379.407
  0
LINE
  8
0
 10
-72.0137
 20
-379.407
 11
-72.0137
 21
-379.593
  0
LINE
  8
0
 10
-72.0137
 20
-379.593
 11
-72.0372
 21
-379.779
  0
LINE
  8
0
 10
-72.0372
 20
-379.779
 11
-72.0837
 21
-379.96
  0
LINE
  8
0
 10
-72.0837
 20
-379.96
 11
-72.1526
 21
-380.134
  0
LINE
  8
0
 10
-72.1526
 20
-380.134
 11
-72.2426
 21
-380.298
  0
LINE
  8
0
 10
-72.2426
 20
-380.298
 11
-72.3525
 21
-380.449
  0
LINE
  8
0
 10
-72.3525
 20
-380.449
 11
-72.4806
 21
-380.586
  0
LINE
  8
0
 10
-72.4806
 20
-380.586
 11
-72.6247
 21
-380.705
  0
LINE
  8
0
 10
-72.6247
 20
-380.705
 11
-72.7825
 21
-380.805
  0
LINE
  8
0
 10
-72.7825
 20
-380.805
 11
-72.9518
 21
-380.885
  0
LINE
  8
0
 10
-72.9518
 20
-380.885
 11
-73.1296
 21
-380.942
  0
LINE
  8
0
 10
-73.1296
 20
-380.942
 11
-73.3133
 21
-380.977
  0
LINE
  8
0
 10
-73.3133
 20
-380.977
 11
-73.5
 21
-380.989
  0
LINE
  8
0
 10
110.65
 20
-385.389
 11
116.62
 21
-385.389
  0
LINE
  8
0
 10
116.62
 20
-385.389
 11
117.356
 21
-385.296
  0
LINE
  8
0
 10
117.356
 20
-385.296
 11
118.073
 21
-385.112
  0
LINE
  8
0
 10
118.073
 20
-385.112
 11
118.762
 21
-384.839
  0
LINE
  8
0
 10
118.762
 20
-384.839
 11
119.412
 21
-384.482
  0
LINE
  8
0
 10
119.412
 20
-384.482
 11
120.011
 21
-384.047
  0
LINE
  8
0
 10
120.011
 20
-384.047
 11
120.551
 21
-383.539
  0
LINE
  8
0
 10
120.551
 20
-383.539
 11
121.024
 21
-382.968
  0
LINE
  8
0
 10
121.024
 20
-382.968
 11
121.421
 21
-382.343
  0
LINE
  8
0
 10
121.421
 20
-382.343
 11
121.736
 21
-381.672
  0
LINE
  8
0
 10
121.736
 20
-381.672
 11
121.965
 21
-380.967
  0
LINE
  8
0
 10
121.965
 20
-380.967
 11
122.104
 21
-380.24
  0
LINE
  8
0
 10
122.104
 20
-380.24
 11
122.151
 21
-379.5
  0
LINE
  8
0
 10
122.151
 20
-379.5
 11
122.104
 21
-378.76
  0
LINE
  8
0
 10
122.104
 20
-378.76
 11
121.965
 21
-378.033
  0
LINE
  8
0
 10
121.965
 20
-378.033
 11
121.736
 21
-377.328
  0
LINE
  8
0
 10
121.736
 20
-377.328
 11
121.421
 21
-376.657
  0
LINE
  8
0
 10
121.421
 20
-376.657
 11
121.024
 21
-376.032
  0
LINE
  8
0
 10
121.024
 20
-376.032
 11
120.551
 21
-375.461
  0
LINE
  8
0
 10
120.551
 20
-375.461
 11
120.011
 21
-374.953
  0
LINE
  8
0
 10
120.011
 20
-374.953
 11
119.412
 21
-374.518
  0
LINE
  8
0
 10
119.412
 20
-374.518
 11
118.783
 21
-374.172
  0
LINE
  8
0
 10
118.783
 20
-374.172
 11
97.3857
 21
-362.66
  0
LINE
  8
0
 10
97.3857
 20
-362.66
 11
96.6984
 21
-362.388
  0
LINE
  8
0
 10
96.6984
 20
-362.388
 11
95.9807
 21
-362.204
  0
LINE
  8
0
 10
95.9807
 20
-362.204
 11
95.2455
 21
-362.111
  0
LINE
  8
0
 10
95.2455
 20
-362.111
 11
94.5045
 21
-362.111
  0
LINE
  8
0
 10
94.5045
 20
-362.111
 11
93.7693
 21
-362.204
  0
LINE
  8
0
 10
93.7693
 20
-362.204
 11
93.0515
 21
-362.388
  0
LINE
  8
0
 10
93.0515
 20
-362.388
 11
92.3642
 21
-362.66
  0
LINE
  8
0
 10
92.3642
 20
-362.66
 11
70.9671
 21
-374.172
  0
LINE
  8
0
 10
70.9671
 20
-374.172
 11
70.3382
 21
-374.518
  0
LINE
  8
0
 10
70.3382
 20
-374.518
 11
69.7387
 21
-374.953
  0
LINE
  8
0
 10
69.7387
 20
-374.953
 11
69.1985
 21
-375.461
  0
LINE
  8
0
 10
69.1985
 20
-375.461
 11
68.7262
 21
-376.032
  0
LINE
  8
0
 10
68.7262
 20
-376.032
 11
68.3291
 21
-376.657
  0
LINE
  8
0
 10
68.3291
 20
-376.657
 11
68.0136
 21
-377.328
  0
LINE
  8
0
 10
68.0136
 20
-377.328
 11
67.7846
 21
-378.033
  0
LINE
  8
0
 10
67.7846
 20
-378.033
 11
67.6457
 21
-378.76
  0
LINE
  8
0
 10
67.6457
 20
-378.76
 11
67.5992
 21
-379.5
  0
LINE
  8
0
 10
67.5992
 20
-379.5
 11
67.6457
 21
-380.24
  0
LINE
  8
0
 10
67.6457
 20
-380.24
 11
67.7846
 21
-380.967
  0
LINE
  8
0
 10
67.7846
 20
-380.967
 11
68.0136
 21
-381.672
  0
LINE
  8
0
 10
68.0136
 20
-381.672
 11
68.3291
 21
-382.343
  0
LINE
  8
0
 10
68.3291
 20
-382.343
 11
68.7262
 21
-382.968
  0
LINE
  8
0
 10
68.7262
 20
-382.968
 11
69.1985
 21
-383.539
  0
LINE
  8
0
 10
69.1985
 20
-383.539
 11
69.7387
 21
-384.047
  0
LINE
  8
0
 10
69.7387
 20
-384.047
 11
70.3382
 21
-384.482
  0
LINE
  8
0
 10
70.3382
 20
-384.482
 11
70.9875
 21
-384.839
  0
LINE
  8
0
 10
70.9875
 20
-384.839
 11
71.6765
 21
-385.112
  0
LINE
  8
0
 10
71.6765
 20
-385.112
 11
72.3943
 21
-385.296
  0
LINE
  8
0
 10
72.3943
 20
-385.296
 11
73.1295
 21
-385.389
  0
LINE
  8
0
 10
73.1295
 20
-385.389
 11
79.1
 21
-385.389
  0
LINE
  8
0
 10
79.1
 20
-385.389
 11
79.1
 21
-385.4
  0
LINE
  8
0
 10
79.1
 20
-385.4
 11
110.65
 21
-385.4
  0
LINE
  8
0
 10
110.65
 20
-385.4
 11
110.65
 21
-385.389
  0
LINE
  8
0
 10
94.6883
 20
-369.477
 11
94.5046
 21
-369.442
  0
LINE
  8
0
 10
94.5046
 20
-369.442
 11
94.3268
 21
-369.385
  0
LINE
  8
0
 10
94.3268
 20
-369.385
 11
94.1575
 21
-369.305
  0
LINE
  8
0
 10
94.1575
 20
-369.305
 11
93.9997
 21
-369.205
  0
LINE
  8
0
 10
93.9997
 20
-369.205
 11
93.8556
 21
-369.086
  0
LINE
  8
0
 10
93.8556
 20
-369.086
 11
93.7275
 21
-368.949
  0
LINE
  8
0
 10
93.7275
 20
-368.949
 11
93.6176
 21
-368.798
  0
LINE
  8
0
 10
93.6176
 20
-368.798
 11
93.5276
 21
-368.634
  0
LINE
  8
0
 10
93.5276
 20
-368.634
 11
93.4587
 21
-368.46
  0
LINE
  8
0
 10
93.4587
 20
-368.46
 11
93.4122
 21
-368.279
  0
LINE
  8
0
 10
93.4122
 20
-368.279
 11
93.3887
 21
-368.093
  0
LINE
  8
0
 10
93.3887
 20
-368.093
 11
93.3887
 21
-367.907
  0
LINE
  8
0
 10
93.3887
 20
-367.907
 11
93.4122
 21
-367.721
  0
LINE
  8
0
 10
93.4122
 20
-367.721
 11
93.4587
 21
-367.54
  0
LINE
  8
0
 10
93.4587
 20
-367.54
 11
93.5276
 21
-367.366
  0
LINE
  8
0
 10
93.5276
 20
-367.366
 11
93.6176
 21
-367.202
  0
LINE
  8
0
 10
93.6176
 20
-367.202
 11
93.7275
 21
-367.051
  0
LINE
  8
0
 10
93.7275
 20
-367.051
 11
93.8556
 21
-366.914
  0
LINE
  8
0
 10
93.8556
 20
-366.914
 11
93.9996
 21
-366.795
  0
LINE
  8
0
 10
93.9996
 20
-366.795
 11
94.1576
 21
-366.695
  0
LINE
  8
0
 10
94.1576
 20
-366.695
 11
94.3268
 21
-366.615
  0
LINE
  8
0
 10
94.3268
 20
-366.615
 11
94.5046
 21
-366.558
  0
LINE
  8
0
 10
94.5046
 20
-366.558
 11
94.6883
 21
-366.523
  0
LINE
  8
0
 10
94.6883
 20
-366.523
 11
94.875
 21
-366.511
  0
LINE
  8
0
 10
94.875
 20
-366.511
 11
95.0617
 21
-366.523
  0
LINE
  8
0
 10
95.0617
 20
-366.523
 11
95.2454
 21
-366.558
  0
LINE
  8
0
 10
95.2454
 20
-366.558
 11
95.4231
 21
-366.615
  0
LINE
  8
0
 10
95.4231
 20
-366.615
 11
95.5924
 21
-366.695
  0
LINE
  8
0
 10
95.5924
 20
-366.695
 11
95.7504
 21
-366.795
  0
LINE
  8
0
 10
95.7504
 20
-366.795
 11
95.8944
 21
-366.914
  0
LINE
  8
0
 10
95.8944
 20
-366.914
 11
96.0224
 21
-367.051
  0
LINE
  8
0
 10
96.0224
 20
-367.051
 11
96.1324
 21
-367.202
  0
LINE
  8
0
 10
96.1324
 20
-367.202
 11
96.2225
 21
-367.366
  0
LINE
  8
0
 10
96.2225
 20
-367.366
 11
96.2913
 21
-367.54
  0
LINE
  8
0
 10
96.2913
 20
-367.54
 11
96.3378
 21
-367.721
  0
LINE
  8
0
 10
96.3378
 20
-367.721
 11
96.3613
 21
-367.907
  0
LINE
  8
0
 10
96.3613
 20
-367.907
 11
96.3613
 21
-368.093
  0
LINE
  8
0
 10
96.3613
 20
-368.093
 11
96.3378
 21
-368.279
  0
LINE
  8
0
 10
96.3378
 20
-368.279
 11
96.2913
 21
-368.46
  0
LINE
  8
0
 10
96.2913
 20
-368.46
 11
96.2225
 21
-368.634
  0
LINE
  8
0
 10
96.2225
 20
-368.634
 11
96.1324
 21
-368.798
  0
LINE
  8
0
 10
96.1324
 20
-368.798
 11
96.0224
 21
-368.949
  0
LINE
  8
0
 10
96.0224
 20
-368.949
 11
95.8944
 21
-369.086
  0
LINE
  8
0
 10
95.8944
 20
-369.086
 11
95.7503
 21
-369.205
  0
LINE
  8
0
 10
95.7503
 20
-369.205
 11
95.5924
 21
-369.305
  0
LINE
  8
0
 10
95.5924
 20
-369.305
 11
95.4232
 21
-369.385
  0
LINE
  8
0
 10
95.4232
 20
-369.385
 11
95.2454
 21
-369.442
  0
LINE
  8
0
 10
95.2454
 20
-369.442
 11
95.0617
 21
-369.477
  0
LINE
  8
0
 10
95.0617
 20
-369.477
 11
94.875
 21
-369.489
  0
LINE
  8
0
 10
94.875
 20
-369.489
 11
94.6883
 21
-369.477
  0
LINE
  8
0
 10
73.3133
 20
-380.977
 11
73.1296
 21
-380.942
  0
LINE
  8
0
 10
73.1296
 20
-380.942
 11
72.9518
 21
-380.885
  0
LINE
  8
0
 10
72.9518
 20
-380.885
 11
72.7825
 21
-380.805
  0
LINE
  8
0
 10
72.7825
 20
-380.805
 11
72.6247
 21
-380.705
  0
LINE
  8
0
 10
72.6247
 20
-380.705
 11
72.4806
 21
-380.586
  0
LINE
  8
0
 10
72.4806
 20
-380.586
 11
72.3525
 21
-380.449
  0
LINE
  8
0
 10
72.3525
 20
-380.449
 11
72.2426
 21
-380.298
  0
LINE
  8
0
 10
72.2426
 20
-380.298
 11
72.1526
 21
-380.134
  0
LINE
  8
0
 10
72.1526
 20
-380.134
 11
72.0837
 21
-379.96
  0
LINE
  8
0
 10
72.0837
 20
-379.96
 11
72.0372
 21
-379.779
  0
LINE
  8
0
 10
72.0372
 20
-379.779
 11
72.0137
 21
-379.593
  0
LINE
  8
0
 10
72.0137
 20
-379.593
 11
72.0137
 21
-379.407
  0
LINE
  8
0
 10
72.0137
 20
-379.407
 11
72.0372
 21
-379.221
  0
LINE
  8
0
 10
72.0372
 20
-379.221
 11
72.0837
 21
-379.04
  0
LINE
  8
0
 10
72.0837
 20
-379.04
 11
72.1526
 21
-378.866
  0
LINE
  8
0
 10
72.1526
 20
-378.866
 11
72.2426
 21
-378.702
  0
LINE
  8
0
 10
72.2426
 20
-378.702
 11
72.3525
 21
-378.551
  0
LINE
  8
0
 10
72.3525
 20
-378.551
 11
72.4806
 21
-378.414
  0
LINE
  8
0
 10
72.4806
 20
-378.414
 11
72.6246
 21
-378.295
  0
LINE
  8
0
 10
72.6246
 20
-378.295
 11
72.7826
 21
-378.195
  0
LINE
  8
0
 10
72.7826
 20
-378.195
 11
72.9518
 21
-378.115
  0
LINE
  8
0
 10
72.9518
 20
-378.115
 11
73.1296
 21
-378.058
  0
LINE
  8
0
 10
73.1296
 20
-378.058
 11
73.3133
 21
-378.023
  0
LINE
  8
0
 10
73.3133
 20
-378.023
 11
73.5
 21
-378.011
  0
LINE
  8
0
 10
73.5
 20
-378.011
 11
73.6867
 21
-378.023
  0
LINE
  8
0
 10
73.6867
 20
-378.023
 11
73.8704
 21
-378.058
  0
LINE
  8
0
 10
73.8704
 20
-378.058
 11
74.0481
 21
-378.115
  0
LINE
  8
0
 10
74.0481
 20
-378.115
 11
74.2174
 21
-378.195
  0
LINE
  8
0
 10
74.2174
 20
-378.195
 11
74.3754
 21
-378.295
  0
LINE
  8
0
 10
74.3754
 20
-378.295
 11
74.5194
 21
-378.414
  0
LINE
  8
0
 10
74.5194
 20
-378.414
 11
74.6474
 21
-378.551
  0
LINE
  8
0
 10
74.6474
 20
-378.551
 11
74.7574
 21
-378.702
  0
LINE
  8
0
 10
74.7574
 20
-378.702
 11
74.8475
 21
-378.866
  0
LINE
  8
0
 10
74.8475
 20
-378.866
 11
74.9163
 21
-379.04
  0
LINE
  8
0
 10
74.9163
 20
-379.04
 11
74.9628
 21
-379.221
  0
LINE
  8
0
 10
74.9628
 20
-379.221
 11
74.9863
 21
-379.407
  0
LINE
  8
0
 10
74.9863
 20
-379.407
 11
74.9863
 21
-379.593
  0
LINE
  8
0
 10
74.9863
 20
-379.593
 11
74.9628
 21
-379.779
  0
LINE
  8
0
 10
74.9628
 20
-379.779
 11
74.9163
 21
-379.96
  0
LINE
  8
0
 10
74.9163
 20
-379.96
 11
74.8475
 21
-380.134
  0
LINE
  8
0
 10
74.8475
 20
-380.134
 11
74.7574
 21
-380.298
  0
LINE
  8
0
 10
74.7574
 20
-380.298
 11
74.6474
 21
-380.449
  0
LINE
  8
0
 10
74.6474
 20
-380.449
 11
74.5194
 21
-380.586
  0
LINE
  8
0
 10
74.5194
 20
-380.586
 11
74.3753
 21
-380.705
  0
LINE
  8
0
 10
74.3753
 20
-380.705
 11
74.2174
 21
-380.805
  0
LINE
  8
0
 10
74.2174
 20
-380.805
 11
74.0482
 21
-380.885
  0
LINE
  8
0
 10
74.0482
 20
-380.885
 11
73.8704
 21
-380.942
  0
LINE
  8
0
 10
73.8704
 20
-380.942
 11
73.6867
 21
-380.977
  0
LINE
  8
0
 10
73.6867
 20
-380.977
 11
73.5
 21
-380.989
  0
LINE
  8
0
 10
73.5
 20
-380.989
 11
73.3133
 21
-380.977
  0
LINE
  8
0
 10
116.063
 20
-380.977
 11
115.88
 21
-380.942
  0
LINE
  8
0
 10
115.88
 20
-380.942
 11
115.702
 21
-380.885
  0
LINE
  8
0
 10
115.702
 20
-380.885
 11
115.533
 21
-380.805
  0
LINE
  8
0
 10
115.533
 20
-380.805
 11
115.375
 21
-380.705
  0
LINE
  8
0
 10
115.375
 20
-380.705
 11
115.231
 21
-380.586
  0
LINE
  8
0
 10
115.231
 20
-380.586
 11
115.103
 21
-380.449
  0
LINE
  8
0
 10
115.103
 20
-380.449
 11
114.993
 21
-380.298
  0
LINE
  8
0
 10
114.993
 20
-380.298
 11
114.903
 21
-380.134
  0
LINE
  8
0
 10
114.903
 20
-380.134
 11
114.834
 21
-379.96
  0
LINE
  8
0
 10
114.834
 20
-379.96
 11
114.787
 21
-379.779
  0
LINE
  8
0
 10
114.787
 20
-379.779
 11
114.764
 21
-379.593
  0
LINE
  8
0
 10
114.764
 20
-379.593
 11
114.764
 21
-379.407
  0
LINE
  8
0
 10
114.764
 20
-379.407
 11
114.787
 21
-379.221
  0
LINE
  8
0
 10
114.787
 20
-379.221
 11
114.834
 21
-379.04
  0
LINE
  8
0
 10
114.834
 20
-379.04
 11
114.903
 21
-378.866
  0
LINE
  8
0
 10
114.903
 20
-378.866
 11
114.993
 21
-378.702
  0
LINE
  8
0
 10
114.993
 20
-378.702
 11
115.103
 21
-378.551
  0
LINE
  8
0
 10
115.103
 20
-378.551
 11
115.231
 21
-378.414
  0
LINE
  8
0
 10
115.231
 20
-378.414
 11
115.375
 21
-378.295
  0
LINE
  8
0
 10
115.375
 20
-378.295
 11
115.533
 21
-378.195
  0
LINE
  8
0
 10
115.533
 20
-378.195
 11
115.702
 21
-378.115
  0
LINE
  8
0
 10
115.702
 20
-378.115
 11
115.88
 21
-378.058
  0
LINE
  8
0
 10
115.88
 20
-378.058
 11
116.063
 21
-378.023
  0
LINE
  8
0
 10
116.063
 20
-378.023
 11
116.25
 21
-378.011
  0
LINE
  8
0
 10
116.25
 20
-378.011
 11
116.437
 21
-378.023
  0
LINE
  8
0
 10
116.437
 20
-378.023
 11
116.62
 21
-378.058
  0
LINE
  8
0
 10
116.62
 20
-378.058
 11
116.798
 21
-378.115
  0
LINE
  8
0
 10
116.798
 20
-378.115
 11
116.967
 21
-378.195
  0
LINE
  8
0
 10
116.967
 20
-378.195
 11
117.125
 21
-378.295
  0
LINE
  8
0
 10
117.125
 20
-378.295
 11
117.269
 21
-378.414
  0
LINE
  8
0
 10
117.269
 20
-378.414
 11
117.397
 21
-378.551
  0
LINE
  8
0
 10
117.397
 20
-378.551
 11
117.507
 21
-378.702
  0
LINE
  8
0
 10
117.507
 20
-378.702
 11
117.597
 21
-378.866
  0
LINE
  8
0
 10
117.597
 20
-378.866
 11
117.666
 21
-379.04
  0
LINE
  8
0
 10
117.666
 20
-379.04
 11
117.713
 21
-379.221
  0
LINE
  8
0
 10
117.713
 20
-379.221
 11
117.736
 21
-379.407
  0
LINE
  8
0
 10
117.736
 20
-379.407
 11
117.736
 21
-379.593
  0
LINE
  8
0
 10
117.736
 20
-379.593
 11
117.713
 21
-379.779
  0
LINE
  8
0
 10
117.713
 20
-379.779
 11
117.666
 21
-379.96
  0
LINE
  8
0
 10
117.666
 20
-379.96
 11
117.597
 21
-380.134
  0
LINE
  8
0
 10
117.597
 20
-380.134
 11
117.507
 21
-380.298
  0
LINE
  8
0
 10
117.507
 20
-380.298
 11
117.397
 21
-380.449
  0
LINE
  8
0
 10
117.397
 20
-380.449
 11
117.269
 21
-380.586
  0
LINE
  8
0
 10
117.269
 20
-380.586
 11
117.125
 21
-380.705
  0
LINE
  8
0
 10
117.125
 20
-380.705
 11
116.967
 21
-380.805
  0
LINE
  8
0
 10
116.967
 20
-380.805
 11
116.798
 21
-380.885
  0
LINE
  8
0
 10
116.798
 20
-380.885
 11
116.62
 21
-380.942
  0
LINE
  8
0
 10
116.62
 20
-380.942
 11
116.437
 21
-380.977
  0
LINE
  8
0
 10
116.437
 20
-380.977
 11
116.25
 21
-380.989
  0
LINE
  8
0
 10
116.25
 20
-380.989
 11
116.063
 21
-380.977
  0
ENDSEC
  0
SECTION
  2
OBJECTS
  0
DICTIONARY
  0
ENDSEC
  0
EOF
