  0
SECTION
  2
BLOCKS
  0
ENDSEC
  0
SECTION
  2
ENTITIES
  0
LINE
  8
0
 10
-85.35
 20
85.3343
 11
-85.35
 21
114.666
  0
LINE
  8
0
 10
-85.35
 20
114.666
 11
-88.5843
 21
117.9
  0
LINE
  8
0
 10
-88.5843
 20
117.9
 11
-114.416
 21
117.9
  0
LINE
  8
0
 10
-114.416
 20
117.9
 11
-117.556
 21
114.76
  0
LINE
  8
0
 10
-117.556
 20
114.76
 11
-125.436
 21
103.75
  0
LINE
  8
0
 10
-125.436
 20
103.75
 11
-125.859
 21
103.084
  0
LINE
  8
0
 10
-125.859
 20
103.084
 11
-126.201
 21
102.356
  0
LINE
  8
0
 10
-126.201
 20
102.356
 11
-126.45
 21
101.592
  0
LINE
  8
0
 10
-126.45
 20
101.592
 11
-126.6
 21
100.802
  0
LINE
  8
0
 10
-126.6
 20
100.802
 11
-126.651
 21
100
  0
LINE
  8
0
 10
-126.651
 20
100
 11
-126.6
 21
99.1978
  0
LINE
  8
0
 10
-126.6
 20
99.1978
 11
-126.45
 21
98.4082
  0
LINE
  8
0
 10
-126.45
 20
98.4082
 11
-126.201
 21
97.6437
  0
LINE
  8
0
 10
-126.201
 20
97.6437
 11
-125.859
 21
96.9164
  0
LINE
  8
0
 10
-125.859
 20
96.9164
 11
-125.436
 21
96.2495
  0
LINE
  8
0
 10
-125.436
 20
96.2495
 11
-117.556
 21
85.2404
  0
LINE
  8
0
 10
-117.556
 20
85.2404
 11
-114.416
 21
82.1
  0
LINE
  8
0
 10
-114.416
 20
82.1
 11
-88.5843
 21
82.1
  0
LINE
  8
0
 10
-88.5843
 20
82.1
 11
-85.35
 21
85.3343
  0
LINE
  8
0
 10
-120.437
 20
98.5225
 11
-120.62
 21
98.5576
  0
LINE
  8
0
 10
-120.62
 20
98.5576
 11
-120.798
 21
98.6153
  0
LINE
  8
0
 10
-120.798
 20
98.6153
 11
-120.967
 21
98.695
  0
LINE
  8
0
 10
-120.967
 20
98.695
 11
-121.125
 21
98.7952
  0
LINE
  8
0
 10
-121.125
 20
98.7952
 11
-121.269
 21
98.9144
  0
LINE
  8
0
 10
-121.269
 20
98.9144
 11
-121.397
 21
99.0507
  0
LINE
  8
0
 10
-121.397
 20
99.0507
 11
-121.507
 21
99.2021
  0
LINE
  8
0
 10
-121.507
 20
99.2021
 11
-121.597
 21
99.3658
  0
LINE
  8
0
 10
-121.597
 20
99.3658
 11
-121.666
 21
99.5398
  0
LINE
  8
0
 10
-121.666
 20
99.5398
 11
-121.713
 21
99.721
  0
LINE
  8
0
 10
-121.713
 20
99.721
 11
-121.736
 21
99.9066
  0
LINE
  8
0
 10
-121.736
 20
99.9066
 11
-121.736
 21
100.093
  0
LINE
  8
0
 10
-121.736
 20
100.093
 11
-121.713
 21
100.279
  0
LINE
  8
0
 10
-121.713
 20
100.279
 11
-121.666
 21
100.46
  0
LINE
  8
0
 10
-121.666
 20
100.46
 11
-121.597
 21
100.634
  0
LINE
  8
0
 10
-121.597
 20
100.634
 11
-121.507
 21
100.798
  0
LINE
  8
0
 10
-121.507
 20
100.798
 11
-121.397
 21
100.949
  0
LINE
  8
0
 10
-121.397
 20
100.949
 11
-121.269
 21
101.086
  0
LINE
  8
0
 10
-121.269
 20
101.086
 11
-121.125
 21
101.205
  0
LINE
  8
0
 10
-121.125
 20
101.205
 11
-120.967
 21
101.305
  0
LINE
  8
0
 10
-120.967
 20
101.305
 11
-120.798
 21
101.385
  0
LINE
  8
0
 10
-120.798
 20
101.385
 11
-120.62
 21
101.442
  0
LINE
  8
0
 10
-120.62
 20
101.442
 11
-120.437
 21
101.477
  0
LINE
  8
0
 10
-120.437
 20
101.477
 11
-120.25
 21
101.489
  0
LINE
  8
0
 10
-120.25
 20
101.489
 11
-120.063
 21
101.477
  0
LINE
  8
0
 10
-120.063
 20
101.477
 11
-119.88
 21
101.442
  0
LINE
  8
0
 10
-119.88
 20
101.442
 11
-119.702
 21
101.385
  0
LINE
  8
0
 10
-119.702
 20
101.385
 11
-119.533
 21
101.305
  0
LINE
  8
0
 10
-119.533
 20
101.305
 11
-119.375
 21
101.205
  0
LINE
  8
0
 10
-119.375
 20
101.205
 11
-119.231
 21
101.086
  0
LINE
  8
0
 10
-119.231
 20
101.086
 11
-119.103
 21
100.949
  0
LINE
  8
0
 10
-119.103
 20
100.949
 11
-118.993
 21
100.798
  0
LINE
  8
0
 10
-118.993
 20
100.798
 11
-118.903
 21
100.634
  0
LINE
  8
0
 10
-118.903
 20
100.634
 11
-118.834
 21
100.46
  0
LINE
  8
0
 10
-118.834
 20
100.46
 11
-118.787
 21
100.279
  0
LINE
  8
0
 10
-118.787
 20
100.279
 11
-118.764
 21
100.093
  0
LINE
  8
0
 10
-118.764
 20
100.093
 11
-118.764
 21
99.9066
  0
LINE
  8
0
 10
-118.764
 20
99.9066
 11
-118.787
 21
99.721
  0
LINE
  8
0
 10
-118.787
 20
99.721
 11
-118.834
 21
99.5398
  0
LINE
  8
0
 10
-118.834
 20
99.5398
 11
-118.903
 21
99.3659
  0
LINE
  8
0
 10
-118.903
 20
99.3659
 11
-118.993
 21
99.2021
  0
LINE
  8
0
 10
-118.993
 20
99.2021
 11
-119.103
 21
99.0507
  0
LINE
  8
0
 10
-119.103
 20
99.0507
 11
-119.231
 21
98.9144
  0
LINE
  8
0
 10
-119.231
 20
98.9144
 11
-119.375
 21
98.7952
  0
LINE
  8
0
 10
-119.375
 20
98.7952
 11
-119.533
 21
98.695
  0
LINE
  8
0
 10
-119.533
 20
98.695
 11
-119.702
 21
98.6153
  0
LINE
  8
0
 10
-119.702
 20
98.6153
 11
-119.88
 21
98.5576
  0
LINE
  8
0
 10
-119.88
 20
98.5576
 11
-120.063
 21
98.5225
  0
LINE
  8
0
 10
-120.063
 20
98.5225
 11
-120.25
 21
98.5108
  0
LINE
  8
0
 10
-120.25
 20
98.5108
 11
-120.437
 21
98.5225
  0
LINE
  8
0
 10
117.556
 20
85.2404
 11
125.436
 21
96.2495
  0
LINE
  8
0
 10
125.436
 20
96.2495
 11
125.859
 21
96.9164
  0
LINE
  8
0
 10
125.859
 20
96.9164
 11
126.201
 21
97.6437
  0
LINE
  8
0
 10
126.201
 20
97.6437
 11
126.45
 21
98.4082
  0
LINE
  8
0
 10
126.45
 20
98.4082
 11
126.6
 21
99.1978
  0
LINE
  8
0
 10
126.6
 20
99.1978
 11
126.651
 21
100
  0
LINE
  8
0
 10
126.651
 20
100
 11
126.6
 21
100.802
  0
LINE
  8
0
 10
126.6
 20
100.802
 11
126.45
 21
101.592
  0
LINE
  8
0
 10
126.45
 20
101.592
 11
126.201
 21
102.356
  0
LINE
  8
0
 10
126.201
 20
102.356
 11
125.859
 21
103.084
  0
LINE
  8
0
 10
125.859
 20
103.084
 11
125.436
 21
103.75
  0
LINE
  8
0
 10
125.436
 20
103.75
 11
117.556
 21
114.76
  0
LINE
  8
0
 10
117.556
 20
114.76
 11
114.416
 21
117.9
  0
LINE
  8
0
 10
114.416
 20
117.9
 11
88.5843
 21
117.9
  0
LINE
  8
0
 10
88.5843
 20
117.9
 11
85.35
 21
114.666
  0
LINE
  8
0
 10
85.35
 20
114.666
 11
85.35
 21
85.3343
  0
LINE
  8
0
 10
85.35
 20
85.3343
 11
88.5843
 21
82.1
  0
LINE
  8
0
 10
88.5843
 20
82.1
 11
114.416
 21
82.1
  0
LINE
  8
0
 10
114.416
 20
82.1
 11
117.556
 21
85.2404
  0
LINE
  8
0
 10
120.25
 20
98.5108
 11
120.063
 21
98.5225
  0
LINE
  8
0
 10
120.063
 20
98.5225
 11
119.88
 21
98.5576
  0
LINE
  8
0
 10
119.88
 20
98.5576
 11
119.702
 21
98.6153
  0
LINE
  8
0
 10
119.702
 20
98.6153
 11
119.533
 21
98.695
  0
LINE
  8
0
 10
119.533
 20
98.695
 11
119.375
 21
98.7952
  0
LINE
  8
0
 10
119.375
 20
98.7952
 11
119.231
 21
98.9144
  0
LINE
  8
0
 10
119.231
 20
98.9144
 11
119.103
 21
99.0507
  0
LINE
  8
0
 10
119.103
 20
99.0507
 11
118.993
 21
99.2021
  0
LINE
  8
0
 10
118.993
 20
99.2021
 11
118.903
 21
99.3659
  0
LINE
  8
0
 10
118.903
 20
99.3659
 11
118.834
 21
99.5398
  0
LINE
  8
0
 10
118.834
 20
99.5398
 11
118.787
 21
99.721
  0
LINE
  8
0
 10
118.787
 20
99.721
 11
118.764
 21
99.9066
  0
LINE
  8
0
 10
118.764
 20
99.9066
 11
118.764
 21
100.093
  0
LINE
  8
0
 10
118.764
 20
100.093
 11
118.787
 21
100.279
  0
LINE
  8
0
 10
118.787
 20
100.279
 11
118.834
 21
100.46
  0
LINE
  8
0
 10
118.834
 20
100.46
 11
118.903
 21
100.634
  0
LINE
  8
0
 10
118.903
 20
100.634
 11
118.993
 21
100.798
  0
LINE
  8
0
 10
118.993
 20
100.798
 11
119.103
 21
100.949
  0
LINE
  8
0
 10
119.103
 20
100.949
 11
119.231
 21
101.086
  0
LINE
  8
0
 10
119.231
 20
101.086
 11
119.375
 21
101.205
  0
LINE
  8
0
 10
119.375
 20
101.205
 11
119.533
 21
101.305
  0
LINE
  8
0
 10
119.533
 20
101.305
 11
119.702
 21
101.385
  0
LINE
  8
0
 10
119.702
 20
101.385
 11
119.88
 21
101.442
  0
LINE
  8
0
 10
119.88
 20
101.442
 11
120.063
 21
101.477
  0
LINE
  8
0
 10
120.063
 20
101.477
 11
120.25
 21
101.489
  0
LINE
  8
0
 10
120.25
 20
101.489
 11
120.437
 21
101.477
  0
LINE
  8
0
 10
120.437
 20
101.477
 11
120.62
 21
101.442
  0
LINE
  8
0
 10
120.62
 20
101.442
 11
120.798
 21
101.385
  0
LINE
  8
0
 10
120.798
 20
101.385
 11
120.967
 21
101.305
  0
LINE
  8
0
 10
120.967
 20
101.305
 11
121.125
 21
101.205
  0
LINE
  8
0
 10
121.125
 20
101.205
 11
121.269
 21
101.086
  0
LINE
  8
0
 10
121.269
 20
101.086
 11
121.397
 21
100.949
  0
LINE
  8
0
 10
121.397
 20
100.949
 11
121.507
 21
100.798
  0
LINE
  8
0
 10
121.507
 20
100.798
 11
121.597
 21
100.634
  0
LINE
  8
0
 10
121.597
 20
100.634
 11
121.666
 21
100.46
  0
LINE
  8
0
 10
121.666
 20
100.46
 11
121.713
 21
100.279
  0
LINE
  8
0
 10
121.713
 20
100.279
 11
121.736
 21
100.093
  0
LINE
  8
0
 10
121.736
 20
100.093
 11
121.736
 21
99.9066
  0
LINE
  8
0
 10
121.736
 20
99.9066
 11
121.713
 21
99.721
  0
LINE
  8
0
 10
121.713
 20
99.721
 11
121.666
 21
99.5398
  0
LINE
  8
0
 10
121.666
 20
99.5398
 11
121.597
 21
99.3658
  0
LINE
  8
0
 10
121.597
 20
99.3658
 11
121.507
 21
99.2021
  0
LINE
  8
0
 10
121.507
 20
99.2021
 11
121.397
 21
99.0507
  0
LINE
  8
0
 10
121.397
 20
99.0507
 11
121.269
 21
98.9144
  0
LINE
  8
0
 10
121.269
 20
98.9144
 11
121.125
 21
98.7952
  0
LINE
  8
0
 10
121.125
 20
98.7952
 11
120.967
 21
98.695
  0
LINE
  8
0
 10
120.967
 20
98.695
 11
120.798
 21
98.6153
  0
LINE
  8
0
 10
120.798
 20
98.6153
 11
120.62
 21
98.5576
  0
LINE
  8
0
 10
120.62
 20
98.5576
 11
120.437
 21
98.5225
  0
LINE
  8
0
 10
120.437
 20
98.5225
 11
120.25
 21
98.5108
  0
LINE
  8
0
 10
9.84171
 20
-16.3766
 11
10.1764
 21
-16.3038
  0
LINE
  8
0
 10
10.1764
 20
-16.3038
 11
10.4974
 21
-16.184
  0
LINE
  8
0
 10
10.4974
 20
-16.184
 11
10.7981
 21
-16.0199
  0
LINE
  8
0
 10
10.7981
 20
-16.0199
 11
11.0723
 21
-15.8146
  0
LINE
  8
0
 10
11.0723
 20
-15.8146
 11
11.3146
 21
-15.5723
  0
LINE
  8
0
 10
11.3146
 20
-15.5723
 11
11.5199
 21
-15.2981
  0
LINE
  8
0
 10
11.5199
 20
-15.2981
 11
11.684
 21
-14.9974
  0
LINE
  8
0
 10
11.684
 20
-14.9974
 11
11.8038
 21
-14.6764
  0
LINE
  8
0
 10
11.8038
 20
-14.6764
 11
11.8766
 21
-14.3417
  0
LINE
  8
0
 10
11.8766
 20
-14.3417
 11
11.9
 21
-14.0143
  0
LINE
  8
0
 10
11.9
 20
-14.0143
 11
11.9
 21
14.0143
  0
LINE
  8
0
 10
11.9
 20
14.0143
 11
11.8766
 21
14.3417
  0
LINE
  8
0
 10
11.8766
 20
14.3417
 11
11.8038
 21
14.6764
  0
LINE
  8
0
 10
11.8038
 20
14.6764
 11
11.684
 21
14.9974
  0
LINE
  8
0
 10
11.684
 20
14.9974
 11
11.5199
 21
15.2981
  0
LINE
  8
0
 10
11.5199
 20
15.2981
 11
11.3146
 21
15.5723
  0
LINE
  8
0
 10
11.3146
 20
15.5723
 11
11.0723
 21
15.8146
  0
LINE
  8
0
 10
11.0723
 20
15.8146
 11
10.7981
 21
16.0199
  0
LINE
  8
0
 10
10.7981
 20
16.0199
 11
10.4974
 21
16.184
  0
LINE
  8
0
 10
10.4974
 20
16.184
 11
10.1764
 21
16.3038
  0
LINE
  8
0
 10
10.1764
 20
16.3038
 11
9.84171
 21
16.3766
  0
LINE
  8
0
 10
9.84171
 20
16.3766
 11
9.5143
 21
16.4
  0
LINE
  8
0
 10
9.5143
 20
16.4
 11
-9.5143
 21
16.4
  0
LINE
  8
0
 10
-9.5143
 20
16.4
 11
-9.84171
 21
16.3766
  0
LINE
  8
0
 10
-9.84171
 20
16.3766
 11
-10.1764
 21
16.3038
  0
LINE
  8
0
 10
-10.1764
 20
16.3038
 11
-10.4974
 21
16.184
  0
LINE
  8
0
 10
-10.4974
 20
16.184
 11
-10.7981
 21
16.0199
  0
LINE
  8
0
 10
-10.7981
 20
16.0199
 11
-11.0723
 21
15.8146
  0
LINE
  8
0
 10
-11.0723
 20
15.8146
 11
-11.3146
 21
15.5723
  0
LINE
  8
0
 10
-11.3146
 20
15.5723
 11
-11.5199
 21
15.2981
  0
LINE
  8
0
 10
-11.5199
 20
15.2981
 11
-11.684
 21
14.9974
  0
LINE
  8
0
 10
-11.684
 20
14.9974
 11
-11.8038
 21
14.6764
  0
LINE
  8
0
 10
-11.8038
 20
14.6764
 11
-11.8766
 21
14.3417
  0
LINE
  8
0
 10
-11.8766
 20
14.3417
 11
-11.9
 21
14.0143
  0
LINE
  8
0
 10
-11.9
 20
14.0143
 11
-11.9
 21
-14.0143
  0
LINE
  8
0
 10
-11.9
 20
-14.0143
 11
-11.8766
 21
-14.3417
  0
LINE
  8
0
 10
-11.8766
 20
-14.3417
 11
-11.8038
 21
-14.6764
  0
LINE
  8
0
 10
-11.8038
 20
-14.6764
 11
-11.684
 21
-14.9974
  0
LINE
  8
0
 10
-11.684
 20
-14.9974
 11
-11.5199
 21
-15.2981
  0
LINE
  8
0
 10
-11.5199
 20
-15.2981
 11
-11.3146
 21
-15.5723
  0
LINE
  8
0
 10
-11.3146
 20
-15.5723
 11
-11.0723
 21
-15.8146
  0
LINE
  8
0
 10
-11.0723
 20
-15.8146
 11
-10.7981
 21
-16.0199
  0
LINE
  8
0
 10
-10.7981
 20
-16.0199
 11
-10.4974
 21
-16.184
  0
LINE
  8
0
 10
-10.4974
 20
-16.184
 11
-10.1764
 21
-16.3038
  0
LINE
  8
0
 10
-10.1764
 20
-16.3038
 11
-9.84171
 21
-16.3766
  0
LINE
  8
0
 10
-9.84171
 20
-16.3766
 11
-9.5143
 21
-16.4
  0
LINE
  8
0
 10
-9.5143
 20
-16.4
 11
9.5143
 21
-16.4
  0
LINE
  8
0
 10
9.5143
 20
-16.4
 11
9.84171
 21
-16.3766
  0
LINE
  8
0
 10
-0.0934296
 20
3.51372
 11
-0.279022
 21
3.53716
  0
LINE
  8
0
 10
-0.279022
 20
3.53716
 11
-0.460175
 21
3.58368
  0
LINE
  8
0
 10
-0.460175
 20
3.58368
 11
-0.634155
 21
3.65256
  0
LINE
  8
0
 10
-0.634155
 20
3.65256
 11
-0.797882
 21
3.74257
  0
LINE
  8
0
 10
-0.797882
 20
3.74257
 11
-0.949249
 21
3.85254
  0
LINE
  8
0
 10
-0.949249
 20
3.85254
 11
-1.08562
 21
3.98059
  0
LINE
  8
0
 10
-1.08562
 20
3.98059
 11
-1.20479
 21
4.12466
  0
LINE
  8
0
 10
-1.20479
 20
4.12466
 11
-1.30498
 21
4.28252
  0
LINE
  8
0
 10
-1.30498
 20
4.28252
 11
-1.38464
 21
4.45181
  0
LINE
  8
0
 10
-1.38464
 20
4.45181
 11
-1.4424
 21
4.62961
  0
LINE
  8
0
 10
-1.4424
 20
4.62961
 11
-1.47745
 21
4.81331
  0
LINE
  8
0
 10
-1.47745
 20
4.81331
 11
-1.4892
 21
4.99998
  0
LINE
  8
0
 10
-1.4892
 20
4.99998
 11
-1.47745
 21
5.18668
  0
LINE
  8
0
 10
-1.47745
 20
5.18668
 11
-1.4424
 21
5.37038
  0
LINE
  8
0
 10
-1.4424
 20
5.37038
 11
-1.38463
 21
5.5482
  0
LINE
  8
0
 10
-1.38463
 20
5.5482
 11
-1.30501
 21
5.71742
  0
LINE
  8
0
 10
-1.30501
 20
5.71742
 11
-1.20479
 21
5.87532
  0
LINE
  8
0
 10
-1.20479
 20
5.87532
 11
-1.08562
 21
6.01939
  0
LINE
  8
0
 10
-1.08562
 20
6.01939
 11
-0.94928
 21
6.14742
  0
LINE
  8
0
 10
-0.94928
 20
6.14742
 11
-0.797913
 21
6.25739
  0
LINE
  8
0
 10
-0.797913
 20
6.25739
 11
-0.634094
 21
6.34746
  0
LINE
  8
0
 10
-0.634094
 20
6.34746
 11
-0.460175
 21
6.41631
  0
LINE
  8
0
 10
-0.460175
 20
6.41631
 11
-0.279022
 21
6.46283
  0
LINE
  8
0
 10
-0.279022
 20
6.46283
 11
-0.0934296
 21
6.48627
  0
LINE
  8
0
 10
-0.0934296
 20
6.48627
 11
0.0934296
 21
6.48627
  0
LINE
  8
0
 10
0.0934296
 20
6.48627
 11
0.279022
 21
6.46283
  0
LINE
  8
0
 10
0.279022
 20
6.46283
 11
0.460175
 21
6.41631
  0
LINE
  8
0
 10
0.460175
 20
6.41631
 11
0.634094
 21
6.34746
  0
LINE
  8
0
 10
0.634094
 20
6.34746
 11
0.797913
 21
6.25739
  0
LINE
  8
0
 10
0.797913
 20
6.25739
 11
0.94928
 21
6.14742
  0
LINE
  8
0
 10
0.94928
 20
6.14742
 11
1.08562
 21
6.01939
  0
LINE
  8
0
 10
1.08562
 20
6.01939
 11
1.20479
 21
5.87532
  0
LINE
  8
0
 10
1.20479
 20
5.87532
 11
1.30501
 21
5.71742
  0
LINE
  8
0
 10
1.30501
 20
5.71742
 11
1.38463
 21
5.5482
  0
LINE
  8
0
 10
1.38463
 20
5.5482
 11
1.4424
 21
5.37038
  0
LINE
  8
0
 10
1.4424
 20
5.37038
 11
1.47745
 21
5.18668
  0
LINE
  8
0
 10
1.47745
 20
5.18668
 11
1.48921
 21
5.00005
  0
LINE
  8
0
 10
1.48921
 20
5.00005
 11
1.47745
 21
4.81331
  0
LINE
  8
0
 10
1.47745
 20
4.81331
 11
1.4424
 21
4.62961
  0
LINE
  8
0
 10
1.4424
 20
4.62961
 11
1.38464
 21
4.45181
  0
LINE
  8
0
 10
1.38464
 20
4.45181
 11
1.30498
 21
4.28252
  0
LINE
  8
0
 10
1.30498
 20
4.28252
 11
1.20479
 21
4.12466
  0
LINE
  8
0
 10
1.20479
 20
4.12466
 11
1.08562
 21
3.98059
  0
LINE
  8
0
 10
1.08562
 20
3.98059
 11
0.949249
 21
3.85254
  0
LINE
  8
0
 10
0.949249
 20
3.85254
 11
0.797882
 21
3.74257
  0
LINE
  8
0
 10
0.797882
 20
3.74257
 11
0.634155
 21
3.65256
  0
LINE
  8
0
 10
0.634155
 20
3.65256
 11
0.460175
 21
3.58368
  0
LINE
  8
0
 10
0.460175
 20
3.58368
 11
0.279022
 21
3.53716
  0
LINE
  8
0
 10
0.279022
 20
3.53716
 11
0.0934296
 21
3.51372
  0
LINE
  8
0
 10
0.0934296
 20
3.51372
 11
-0.0934296
 21
3.51372
  0
LINE
  8
0
 10
-0.0934296
 20
-6.48627
 11
-0.279022
 21
-6.46283
  0
LINE
  8
0
 10
-0.279022
 20
-6.46283
 11
-0.460175
 21
-6.41631
  0
LINE
  8
0
 10
-0.460175
 20
-6.41631
 11
-0.634155
 21
-6.34743
  0
LINE
  8
0
 10
-0.634155
 20
-6.34743
 11
-0.797882
 21
-6.25742
  0
LINE
  8
0
 10
-0.797882
 20
-6.25742
 11
-0.949249
 21
-6.14745
  0
LINE
  8
0
 10
-0.949249
 20
-6.14745
 11
-1.08562
 21
-6.01939
  0
LINE
  8
0
 10
-1.08562
 20
-6.01939
 11
-1.20479
 21
-5.87532
  0
LINE
  8
0
 10
-1.20479
 20
-5.87532
 11
-1.30498
 21
-5.71747
  0
LINE
  8
0
 10
-1.30498
 20
-5.71747
 11
-1.38464
 21
-5.54817
  0
LINE
  8
0
 10
-1.38464
 20
-5.54817
 11
-1.4424
 21
-5.37038
  0
LINE
  8
0
 10
-1.4424
 20
-5.37038
 11
-1.47745
 21
-5.18668
  0
LINE
  8
0
 10
-1.47745
 20
-5.18668
 11
-1.4892
 21
-5
  0
LINE
  8
0
 10
-1.4892
 20
-5
 11
-1.47745
 21
-4.81331
  0
LINE
  8
0
 10
-1.47745
 20
-4.81331
 11
-1.4424
 21
-4.62961
  0
LINE
  8
0
 10
-1.4424
 20
-4.62961
 11
-1.38463
 21
-4.45178
  0
LINE
  8
0
 10
-1.38463
 20
-4.45178
 11
-1.30501
 21
-4.28256
  0
LINE
  8
0
 10
-1.30501
 20
-4.28256
 11
-1.20479
 21
-4.12466
  0
LINE
  8
0
 10
-1.20479
 20
-4.12466
 11
-1.08562
 21
-3.98059
  0
LINE
  8
0
 10
-1.08562
 20
-3.98059
 11
-0.94928
 21
-3.85257
  0
LINE
  8
0
 10
-0.94928
 20
-3.85257
 11
-0.797913
 21
-3.7426
  0
LINE
  8
0
 10
-0.797913
 20
-3.7426
 11
-0.634094
 21
-3.65253
  0
LINE
  8
0
 10
-0.634094
 20
-3.65253
 11
-0.460175
 21
-3.58368
  0
LINE
  8
0
 10
-0.460175
 20
-3.58368
 11
-0.279022
 21
-3.53716
  0
LINE
  8
0
 10
-0.279022
 20
-3.53716
 11
-0.0934296
 21
-3.51372
  0
LINE
  8
0
 10
-0.0934296
 20
-3.51372
 11
0.0934296
 21
-3.51372
  0
LINE
  8
0
 10
0.0934296
 20
-3.51372
 11
0.279022
 21
-3.53716
  0
LINE
  8
0
 10
0.279022
 20
-3.53716
 11
0.460175
 21
-3.58368
  0
LINE
  8
0
 10
0.460175
 20
-3.58368
 11
0.634094
 21
-3.65253
  0
LINE
  8
0
 10
0.634094
 20
-3.65253
 11
0.797913
 21
-3.7426
  0
LINE
  8
0
 10
0.797913
 20
-3.7426
 11
0.94928
 21
-3.85257
  0
LINE
  8
0
 10
0.94928
 20
-3.85257
 11
1.08562
 21
-3.98059
  0
LINE
  8
0
 10
1.08562
 20
-3.98059
 11
1.20479
 21
-4.12466
  0
LINE
  8
0
 10
1.20479
 20
-4.12466
 11
1.30501
 21
-4.28256
  0
LINE
  8
0
 10
1.30501
 20
-4.28256
 11
1.38463
 21
-4.45178
  0
LINE
  8
0
 10
1.38463
 20
-4.45178
 11
1.4424
 21
-4.62961
  0
LINE
  8
0
 10
1.4424
 20
-4.62961
 11
1.47745
 21
-4.81331
  0
LINE
  8
0
 10
1.47745
 20
-4.81331
 11
1.48921
 21
-4.99994
  0
LINE
  8
0
 10
1.48921
 20
-4.99994
 11
1.47745
 21
-5.18668
  0
LINE
  8
0
 10
1.47745
 20
-5.18668
 11
1.4424
 21
-5.37038
  0
LINE
  8
0
 10
1.4424
 20
-5.37038
 11
1.38464
 21
-5.54817
  0
LINE
  8
0
 10
1.38464
 20
-5.54817
 11
1.30498
 21
-5.71747
  0
LINE
  8
0
 10
1.30498
 20
-5.71747
 11
1.20479
 21
-5.87532
  0
LINE
  8
0
 10
1.20479
 20
-5.87532
 11
1.08562
 21
-6.01939
  0
LINE
  8
0
 10
1.08562
 20
-6.01939
 11
0.949249
 21
-6.14745
  0
LINE
  8
0
 10
0.949249
 20
-6.14745
 11
0.797882
 21
-6.25742
  0
LINE
  8
0
 10
0.797882
 20
-6.25742
 11
0.634155
 21
-6.34743
  0
LINE
  8
0
 10
0.634155
 20
-6.34743
 11
0.460175
 21
-6.41631
  0
LINE
  8
0
 10
0.460175
 20
-6.41631
 11
0.279022
 21
-6.46283
  0
LINE
  8
0
 10
0.279022
 20
-6.46283
 11
0.0934296
 21
-6.48627
  0
LINE
  8
0
 10
0.0934296
 20
-6.48627
 11
-0.0934296
 21
-6.48627
  0
LINE
  8
0
 10
117.556
 20
-114.76
 11
125.436
 21
-103.75
  0
LINE
  8
0
 10
125.436
 20
-103.75
 11
125.859
 21
-103.084
  0
LINE
  8
0
 10
125.859
 20
-103.084
 11
126.201
 21
-102.356
  0
LINE
  8
0
 10
126.201
 20
-102.356
 11
126.45
 21
-101.592
  0
LINE
  8
0
 10
126.45
 20
-101.592
 11
126.6
 21
-100.802
  0
LINE
  8
0
 10
126.6
 20
-100.802
 11
126.651
 21
-100
  0
LINE
  8
0
 10
126.651
 20
-100
 11
126.6
 21
-99.1978
  0
LINE
  8
0
 10
126.6
 20
-99.1978
 11
126.45
 21
-98.4082
  0
LINE
  8
0
 10
126.45
 20
-98.4082
 11
126.201
 21
-97.6437
  0
LINE
  8
0
 10
126.201
 20
-97.6437
 11
125.859
 21
-96.9164
  0
LINE
  8
0
 10
125.859
 20
-96.9164
 11
125.436
 21
-96.2495
  0
LINE
  8
0
 10
125.436
 20
-96.2495
 11
117.556
 21
-85.2404
  0
LINE
  8
0
 10
117.556
 20
-85.2404
 11
114.416
 21
-82.1
  0
LINE
  8
0
 10
114.416
 20
-82.1
 11
88.5843
 21
-82.1
  0
LINE
  8
0
 10
88.5843
 20
-82.1
 11
85.35
 21
-85.3343
  0
LINE
  8
0
 10
85.35
 20
-85.3343
 11
85.35
 21
-114.666
  0
LINE
  8
0
 10
85.35
 20
-114.666
 11
88.5843
 21
-117.9
  0
LINE
  8
0
 10
88.5843
 20
-117.9
 11
114.416
 21
-117.9
  0
LINE
  8
0
 10
114.416
 20
-117.9
 11
117.556
 21
-114.76
  0
LINE
  8
0
 10
120.25
 20
-101.489
 11
120.063
 21
-101.477
  0
LINE
  8
0
 10
120.063
 20
-101.477
 11
119.88
 21
-101.442
  0
LINE
  8
0
 10
119.88
 20
-101.442
 11
119.702
 21
-101.385
  0
LINE
  8
0
 10
119.702
 20
-101.385
 11
119.533
 21
-101.305
  0
LINE
  8
0
 10
119.533
 20
-101.305
 11
119.375
 21
-101.205
  0
LINE
  8
0
 10
119.375
 20
-101.205
 11
119.231
 21
-101.086
  0
LINE
  8
0
 10
119.231
 20
-101.086
 11
119.103
 21
-100.949
  0
LINE
  8
0
 10
119.103
 20
-100.949
 11
118.993
 21
-100.798
  0
LINE
  8
0
 10
118.993
 20
-100.798
 11
118.903
 21
-100.634
  0
LINE
  8
0
 10
118.903
 20
-100.634
 11
118.834
 21
-100.46
  0
LINE
  8
0
 10
118.834
 20
-100.46
 11
118.787
 21
-100.279
  0
LINE
  8
0
 10
118.787
 20
-100.279
 11
118.764
 21
-100.093
  0
LINE
  8
0
 10
118.764
 20
-100.093
 11
118.764
 21
-99.9066
  0
LINE
  8
0
 10
118.764
 20
-99.9066
 11
118.787
 21
-99.721
  0
LINE
  8
0
 10
118.787
 20
-99.721
 11
118.834
 21
-99.5398
  0
LINE
  8
0
 10
118.834
 20
-99.5398
 11
118.903
 21
-99.3659
  0
LINE
  8
0
 10
118.903
 20
-99.3659
 11
118.993
 21
-99.2021
  0
LINE
  8
0
 10
118.993
 20
-99.2021
 11
119.103
 21
-99.0507
  0
LINE
  8
0
 10
119.103
 20
-99.0507
 11
119.231
 21
-98.9144
  0
LINE
  8
0
 10
119.231
 20
-98.9144
 11
119.375
 21
-98.7952
  0
LINE
  8
0
 10
119.375
 20
-98.7952
 11
119.533
 21
-98.695
  0
LINE
  8
0
 10
119.533
 20
-98.695
 11
119.702
 21
-98.6154
  0
LINE
  8
0
 10
119.702
 20
-98.6154
 11
119.88
 21
-98.5576
  0
LINE
  8
0
 10
119.88
 20
-98.5576
 11
120.063
 21
-98.5225
  0
LINE
  8
0
 10
120.063
 20
-98.5225
 11
120.25
 21
-98.5108
  0
LINE
  8
0
 10
120.25
 20
-98.5108
 11
120.437
 21
-98.5225
  0
LINE
  8
0
 10
120.437
 20
-98.5225
 11
120.62
 21
-98.5576
  0
LINE
  8
0
 10
120.62
 20
-98.5576
 11
120.798
 21
-98.6154
  0
LINE
  8
0
 10
120.798
 20
-98.6154
 11
120.967
 21
-98.695
  0
LINE
  8
0
 10
120.967
 20
-98.695
 11
121.125
 21
-98.7952
  0
LINE
  8
0
 10
121.125
 20
-98.7952
 11
121.269
 21
-98.9144
  0
LINE
  8
0
 10
121.269
 20
-98.9144
 11
121.397
 21
-99.0507
  0
LINE
  8
0
 10
121.397
 20
-99.0507
 11
121.507
 21
-99.2021
  0
LINE
  8
0
 10
121.507
 20
-99.2021
 11
121.597
 21
-99.3658
  0
LINE
  8
0
 10
121.597
 20
-99.3658
 11
121.666
 21
-99.5398
  0
LINE
  8
0
 10
121.666
 20
-99.5398
 11
121.713
 21
-99.721
  0
LINE
  8
0
 10
121.713
 20
-99.721
 11
121.736
 21
-99.9066
  0
LINE
  8
0
 10
121.736
 20
-99.9066
 11
121.736
 21
-100.093
  0
LINE
  8
0
 10
121.736
 20
-100.093
 11
121.713
 21
-100.279
  0
LINE
  8
0
 10
121.713
 20
-100.279
 11
121.666
 21
-100.46
  0
LINE
  8
0
 10
121.666
 20
-100.46
 11
121.597
 21
-100.634
  0
LINE
  8
0
 10
121.597
 20
-100.634
 11
121.507
 21
-100.798
  0
LINE
  8
0
 10
121.507
 20
-100.798
 11
121.397
 21
-100.949
  0
LINE
  8
0
 10
121.397
 20
-100.949
 11
121.269
 21
-101.086
  0
LINE
  8
0
 10
121.269
 20
-101.086
 11
121.125
 21
-101.205
  0
LINE
  8
0
 10
121.125
 20
-101.205
 11
120.967
 21
-101.305
  0
LINE
  8
0
 10
120.967
 20
-101.305
 11
120.798
 21
-101.385
  0
LINE
  8
0
 10
120.798
 20
-101.385
 11
120.62
 21
-101.442
  0
LINE
  8
0
 10
120.62
 20
-101.442
 11
120.437
 21
-101.477
  0
LINE
  8
0
 10
120.437
 20
-101.477
 11
120.25
 21
-101.489
  0
LINE
  8
0
 10
-85.35
 20
-114.666
 11
-85.35
 21
-85.3343
  0
LINE
  8
0
 10
-85.35
 20
-85.3343
 11
-88.5843
 21
-82.1
  0
LINE
  8
0
 10
-88.5843
 20
-82.1
 11
-114.416
 21
-82.1
  0
LINE
  8
0
 10
-114.416
 20
-82.1
 11
-117.556
 21
-85.2404
  0
LINE
  8
0
 10
-117.556
 20
-85.2404
 11
-125.436
 21
-96.2495
  0
LINE
  8
0
 10
-125.436
 20
-96.2495
 11
-125.859
 21
-96.9164
  0
LINE
  8
0
 10
-125.859
 20
-96.9164
 11
-126.201
 21
-97.6437
  0
LINE
  8
0
 10
-126.201
 20
-97.6437
 11
-126.45
 21
-98.4082
  0
LINE
  8
0
 10
-126.45
 20
-98.4082
 11
-126.6
 21
-99.1978
  0
LINE
  8
0
 10
-126.6
 20
-99.1978
 11
-126.651
 21
-100
  0
LINE
  8
0
 10
-126.651
 20
-100
 11
-126.6
 21
-100.802
  0
LINE
  8
0
 10
-126.6
 20
-100.802
 11
-126.45
 21
-101.592
  0
LINE
  8
0
 10
-126.45
 20
-101.592
 11
-126.201
 21
-102.356
  0
LINE
  8
0
 10
-126.201
 20
-102.356
 11
-125.859
 21
-103.084
  0
LINE
  8
0
 10
-125.859
 20
-103.084
 11
-125.436
 21
-103.75
  0
LINE
  8
0
 10
-125.436
 20
-103.75
 11
-117.556
 21
-114.76
  0
LINE
  8
0
 10
-117.556
 20
-114.76
 11
-114.416
 21
-117.9
  0
LINE
  8
0
 10
-114.416
 20
-117.9
 11
-88.5843
 21
-117.9
  0
LINE
  8
0
 10
-88.5843
 20
-117.9
 11
-85.35
 21
-114.666
  0
LINE
  8
0
 10
-120.437
 20
-101.477
 11
-120.62
 21
-101.442
  0
LINE
  8
0
 10
-120.62
 20
-101.442
 11
-120.798
 21
-101.385
  0
LINE
  8
0
 10
-120.798
 20
-101.385
 11
-120.967
 21
-101.305
  0
LINE
  8
0
 10
-120.967
 20
-101.305
 11
-121.125
 21
-101.205
  0
LINE
  8
0
 10
-121.125
 20
-101.205
 11
-121.269
 21
-101.086
  0
LINE
  8
0
 10
-121.269
 20
-101.086
 11
-121.397
 21
-100.949
  0
LINE
  8
0
 10
-121.397
 20
-100.949
 11
-121.507
 21
-100.798
  0
LINE
  8
0
 10
-121.507
 20
-100.798
 11
-121.597
 21
-100.634
  0
LINE
  8
0
 10
-121.597
 20
-100.634
 11
-121.666
 21
-100.46
  0
LINE
  8
0
 10
-121.666
 20
-100.46
 11
-121.713
 21
-100.279
  0
LINE
  8
0
 10
-121.713
 20
-100.279
 11
-121.736
 21
-100.093
  0
LINE
  8
0
 10
-121.736
 20
-100.093
 11
-121.736
 21
-99.9066
  0
LINE
  8
0
 10
-121.736
 20
-99.9066
 11
-121.713
 21
-99.721
  0
LINE
  8
0
 10
-121.713
 20
-99.721
 11
-121.666
 21
-99.5398
  0
LINE
  8
0
 10
-121.666
 20
-99.5398
 11
-121.597
 21
-99.3658
  0
LINE
  8
0
 10
-121.597
 20
-99.3658
 11
-121.507
 21
-99.2021
  0
LINE
  8
0
 10
-121.507
 20
-99.2021
 11
-121.397
 21
-99.0507
  0
LINE
  8
0
 10
-121.397
 20
-99.0507
 11
-121.269
 21
-98.9144
  0
LINE
  8
0
 10
-121.269
 20
-98.9144
 11
-121.125
 21
-98.7952
  0
LINE
  8
0
 10
-121.125
 20
-98.7952
 11
-120.967
 21
-98.695
  0
LINE
  8
0
 10
-120.967
 20
-98.695
 11
-120.798
 21
-98.6154
  0
LINE
  8
0
 10
-120.798
 20
-98.6154
 11
-120.62
 21
-98.5576
  0
LINE
  8
0
 10
-120.62
 20
-98.5576
 11
-120.437
 21
-98.5225
  0
LINE
  8
0
 10
-120.437
 20
-98.5225
 11
-120.25
 21
-98.5108
  0
LINE
  8
0
 10
-120.25
 20
-98.5108
 11
-120.063
 21
-98.5225
  0
LINE
  8
0
 10
-120.063
 20
-98.5225
 11
-119.88
 21
-98.5576
  0
LINE
  8
0
 10
-119.88
 20
-98.5576
 11
-119.702
 21
-98.6154
  0
LINE
  8
0
 10
-119.702
 20
-98.6154
 11
-119.533
 21
-98.695
  0
LINE
  8
0
 10
-119.533
 20
-98.695
 11
-119.375
 21
-98.7952
  0
LINE
  8
0
 10
-119.375
 20
-98.7952
 11
-119.231
 21
-98.9144
  0
LINE
  8
0
 10
-119.231
 20
-98.9144
 11
-119.103
 21
-99.0507
  0
LINE
  8
0
 10
-119.103
 20
-99.0507
 11
-118.993
 21
-99.2021
  0
LINE
  8
0
 10
-118.993
 20
-99.2021
 11
-118.903
 21
-99.3659
  0
LINE
  8
0
 10
-118.903
 20
-99.3659
 11
-118.834
 21
-99.5398
  0
LINE
  8
0
 10
-118.834
 20
-99.5398
 11
-118.787
 21
-99.721
  0
LINE
  8
0
 10
-118.787
 20
-99.721
 11
-118.764
 21
-99.9066
  0
LINE
  8
0
 10
-118.764
 20
-99.9066
 11
-118.764
 21
-100.093
  0
LINE
  8
0
 10
-118.764
 20
-100.093
 11
-118.787
 21
-100.279
  0
LINE
  8
0
 10
-118.787
 20
-100.279
 11
-118.834
 21
-100.46
  0
LINE
  8
0
 10
-118.834
 20
-100.46
 11
-118.903
 21
-100.634
  0
LINE
  8
0
 10
-118.903
 20
-100.634
 11
-118.993
 21
-100.798
  0
LINE
  8
0
 10
-118.993
 20
-100.798
 11
-119.103
 21
-100.949
  0
LINE
  8
0
 10
-119.103
 20
-100.949
 11
-119.231
 21
-101.086
  0
LINE
  8
0
 10
-119.231
 20
-101.086
 11
-119.375
 21
-101.205
  0
LINE
  8
0
 10
-119.375
 20
-101.205
 11
-119.533
 21
-101.305
  0
LINE
  8
0
 10
-119.533
 20
-101.305
 11
-119.702
 21
-101.385
  0
LINE
  8
0
 10
-119.702
 20
-101.385
 11
-119.88
 21
-101.442
  0
LINE
  8
0
 10
-119.88
 20
-101.442
 11
-120.063
 21
-101.477
  0
LINE
  8
0
 10
-120.063
 20
-101.477
 11
-120.25
 21
-101.489
  0
LINE
  8
0
 10
-120.25
 20
-101.489
 11
-120.437
 21
-101.477
  0
ENDSEC
  0
SECTION
  2
OBJECTS
  0
DICTIONARY
  0
ENDSEC
  0
EOF
