999
dxfrw 0.5.10
0
SECTION
2
HEADER
9
$ACADVER
1
AC1021
9
$HANDSEED
5
20000
9
$DWGCODEPAGE
3
ANSI_1252
9
$INSBASE
10
0
20
0
30
0
9
$EXTMIN
10
10000000000
20
10000000000
30
0
9
$EXTMAX
10
-10000000000
20
-10000000000
30
0
9
$LIMMIN
10
0
20
0
9
$LIMMAX
10
12
20
9
9
$ORTHOMODE
70
0
9
$LTSCALE
40
1
9
$TEXTSTYLE
7
Standard
9
$CLAYER
8
0
9
$DIMASZ
40
0.18
9
$DIMLFAC
40
1
9
$DIMSCALE
40
1
9
$DIMEXO
40
0.0625
9
$DIMEXE
40
0.18
9
$DIMTXT
40
0.18
9
$DIMTSZ
40
0
9
$DIMAUNIT
70
0
9
$DIMADEC
70
0
9
$DIMLUNIT
70
2
9
$DIMSTYLE
2
Standard
9
$DIMGAP
40
0.09
9
$DIMTIH
70
1
9
$LUNITS
70
2
9
$LUPREC
70
4
9
$AUNITS
70
0
9
$AUPREC
70
0
9
$SPLINESEGS
70
8
9
$GRIDMODE
70
0
9
$SNAPSTYLE
70
0
9
$PINSBASE
10
0
20
0
30
0
9
$PLIMMIN
10
0
20
0
9
$PLIMMAX
10
12
20
9
9
$INSUNITS
70
1
9
$PSVPSCALE
40
0
0
ENDSEC
0
SECTION
2
CLASSES
0
ENDSEC
0
SECTION
2
TABLES
0
TABLE
2
VPORT
5
8
330
0
100
AcDbSymbolTable
70
1
0
VPORT
5
31
330
2
100
AcDbSymbolTableRecord
100
AcDbViewportTableRecord
2
*ACTIVE
70
0
10
0
20
0
11
1
21
1
12
192.336156589
22
107.405919915
13
0
23
0
14
10
24
10
15
10
25
10
16
0
26
0
36
1
17
0
27
0
37
0
40
311.874967458
41
2.00637755102
42
50
43
0
44
0
50
0
51
0
71
0
72
100
73
1
74
3
75
0
76
0
77
0
78
0
281
0
65
1
110
0
120
0
130
0
111
1
121
0
131
0
112
0
122
1
132
0
79
0
146
0
348
10020
60
7
61
5
292
1
282
1
141
0
142
0
63
250
421
3358443
0
ENDTAB
0
TABLE
2
LTYPE
5
5
330
0
100
AcDbSymbolTable
70
4
0
LTYPE
5
14
330
5
100
AcDbSymbolTableRecord
100
AcDbLinetypeTableRecord
2
ByBlock
70
0
3

72
65
73
0
40
0
0
LTYPE
5
15
330
5
100
AcDbSymbolTableRecord
100
AcDbLinetypeTableRecord
2
ByLayer
70
0
3

72
65
73
0
40
0
0
LTYPE
5
16
330
5
100
AcDbSymbolTableRecord
100
AcDbLinetypeTableRecord
2
Continuous
70
0
3
Solid line
72
65
73
0
40
0
0
LTYPE
5
32
330
5
100
AcDbSymbolTableRecord
100
AcDbLinetypeTableRecord
2
DOT
70
0
3
Dot . . . . . . . . . . . . . . . . . . . . . .
72
65
73
2
40
6.35
49
0
74
0
49
-6.35
74
0
0
LTYPE
5
33
330
5
100
AcDbSymbolTableRecord
100
AcDbLinetypeTableRecord
2
DOT2
70
0
3
Dot (.5x) .....................................
72
65
73
2
40
3.175
49
0
74
0
49
-3.175
74
0
0
LTYPE
5
34
330
5
100
AcDbSymbolTableRecord
100
AcDbLinetypeTableRecord
2
DOTX2
70
0
3
Dot (2x) .  .  .  .  .  .  .  .  .  .  .  .  .
72
65
73
2
40
12.7
49
0
74
0
49
-12.7
74
0
0
LTYPE
5
35
330
5
100
AcDbSymbolTableRecord
100
AcDbLinetypeTableRecord
2
DASHED
70
0
3
Dot . . . . . . . . . . . . . . . . . . . . . .
72
65
73
2
40
19.05
49
12.7
74
0
49
-6.35
74
0
0
LTYPE
5
36
330
5
100
AcDbSymbolTableRecord
100
AcDbLinetypeTableRecord
2
DASHED2
70
0
3
Dashed (.5x) _ _ _ _ _ _ _ _ _ _ _ _ _ _ _ _ _
72
65
73
2
40
9.525
49
6.35
74
0
49
-3.175
74
0
0
LTYPE
5
37
330
5
100
AcDbSymbolTableRecord
100
AcDbLinetypeTableRecord
2
DASHEDX2
70
0
3
Dashed (2x) ____  ____  ____  ____  ____  ___
72
65
73
2
40
38.1
49
25.4
74
0
49
-12.7
74
0
0
LTYPE
5
38
330
5
100
AcDbSymbolTableRecord
100
AcDbLinetypeTableRecord
2
DASHDOT
70
0
3
Dash dot __ . __ . __ . __ . __ . __ . __ . __
72
65
73
4
40
25.4
49
12.7
74
0
49
-6.35
74
0
49
0
74
0
49
-6.35
74
0
0
LTYPE
5
39
330
5
100
AcDbSymbolTableRecord
100
AcDbLinetypeTableRecord
2
DASHDOT2
70
0
3
Dash dot (.5x) _._._._._._._._._._._._._._._.
72
65
73
4
40
12.7
49
6.35
74
0
49
-3.175
74
0
49
0
74
0
49
-3.175
74
0
0
LTYPE
5
3A
330
5
100
AcDbSymbolTableRecord
100
AcDbLinetypeTableRecord
2
DASHDOTX2
70
0
3
Dash dot (2x) ____  .  ____  .  ____  .  ___
72
65
73
4
40
50.8
49
25.4
74
0
49
-12.7
74
0
49
0
74
0
49
-12.7
74
0
0
LTYPE
5
3B
330
5
100
AcDbSymbolTableRecord
100
AcDbLinetypeTableRecord
2
DIVIDE
70
0
3
Divide ____ . . ____ . . ____ . . ____ . . ____
72
65
73
6
40
31.75
49
12.7
74
0
49
-6.35
74
0
49
0
74
0
49
-6.35
74
0
49
0
74
0
49
-6.35
74
0
0
LTYPE
5
3C
330
5
100
AcDbSymbolTableRecord
100
AcDbLinetypeTableRecord
2
DIVIDE2
70
0
3
Divide (.5x) __..__..__..__..__..__..__..__.._
72
65
73
6
40
15.875
49
6.35
74
0
49
-3.175
74
0
49
0
74
0
49
-3.175
74
0
49
0
74
0
49
-3.175
74
0
0
LTYPE
5
3D
330
5
100
AcDbSymbolTableRecord
100
AcDbLinetypeTableRecord
2
DIVIDEX2
70
0
3
Divide (2x) ________  .  .  ________  .  .  _
72
65
73
6
40
63.5
49
25.4
74
0
49
-12.7
74
0
49
0
74
0
49
-12.7
74
0
49
0
74
0
49
-12.7
74
0
0
LTYPE
5
3E
330
5
100
AcDbSymbolTableRecord
100
AcDbLinetypeTableRecord
2
BORDER
70
0
3
Border __ __ . __ __ . __ __ . __ __ . __ __ .
72
65
73
6
40
44.45
49
12.7
74
0
49
-6.35
74
0
49
12.7
74
0
49
-6.35
74
0
49
0
74
0
49
-6.35
74
0
0
LTYPE
5
3F
330
5
100
AcDbSymbolTableRecord
100
AcDbLinetypeTableRecord
2
BORDER2
70
0
3
Border (.5x) __.__.__.__.__.__.__.__.__.__.__.
72
65
73
6
40
22.225
49
6.35
74
0
49
-3.175
74
0
49
6.35
74
0
49
-3.175
74
0
49
0
74
0
49
-3.175
74
0
0
LTYPE
5
40
330
5
100
AcDbSymbolTableRecord
100
AcDbLinetypeTableRecord
2
BORDERX2
70
0
3
Border (2x) ____  ____  .  ____  ____  .  ___
72
65
73
6
40
88.9
49
25.4
74
0
49
-12.7
74
0
49
25.4
74
0
49
-12.7
74
0
49
0
74
0
49
-12.7
74
0
0
LTYPE
5
41
330
5
100
AcDbSymbolTableRecord
100
AcDbLinetypeTableRecord
2
CENTER
70
0
3
Center ____ _ ____ _ ____ _ ____ _ ____ _ ____
72
65
73
4
40
50.8
49
31.75
74
0
49
-6.35
74
0
49
6.35
74
0
49
-6.35
74
0
0
LTYPE
5
42
330
5
100
AcDbSymbolTableRecord
100
AcDbLinetypeTableRecord
2
CENTER2
70
0
3
Center (.5x) ___ _ ___ _ ___ _ ___ _ ___ _ ___
72
65
73
4
40
28.575
49
19.05
74
0
49
-3.175
74
0
49
3.175
74
0
49
-3.175
74
0
0
LTYPE
5
43
330
5
100
AcDbSymbolTableRecord
100
AcDbLinetypeTableRecord
2
CENTERX2
70
0
3
Center (2x) ________  __  ________  __  _____
72
65
73
4
40
101.6
49
63.5
74
0
49
-12.7
74
0
49
12.7
74
0
49
-12.7
74
0
0
ENDTAB
0
TABLE
2
LAYER
5
2
330
0
100
AcDbSymbolTable
70
1
0
LAYER
5
10
330
2
100
AcDbSymbolTableRecord
100
AcDbLayerTableRecord
2
0
70
0
62
7
6
CONTINUOUS
370
-3
390
F
0
ENDTAB
0
TABLE
2
STYLE
5
3
330
0
100
AcDbSymbolTable
70
3
0
STYLE
5
44
330
2
100
AcDbSymbolTableRecord
100
AcDbTextStyleTableRecord
2
Standard
70
0
40
0
41
1
50
0
71
0
42
1
3
txt
4

0
ENDTAB
0
TABLE
2
VIEW
5
6
330
0
100
AcDbSymbolTable
70
0
0
ENDTAB
0
TABLE
2
UCS
5
7
330
0
100
AcDbSymbolTable
70
0
0
ENDTAB
0
TABLE
2
APPID
5
9
330
0
100
AcDbSymbolTable
70
1
0
APPID
5
12
330
9
100
AcDbSymbolTableRecord
100
AcDbRegAppTableRecord
2
ACAD
70
0
0
ENDTAB
0
TABLE
2
DIMSTYLE
5
A
330
0
100
AcDbSymbolTable
70
1
100
AcDbDimStyleTable
71
1
0
DIMSTYLE
105
45
330
A
100
AcDbSymbolTableRecord
100
AcDbDimStyleTableRecord
2
Standard
70
0
40
1
41
0.18
42
0.0625
43
0.38
44
0.18
45
0
46
0
47
0
48
0
140
0.18
141
0.09
142
0
143
25.4
144
1
145
0
146
1
147
0.09
148
0
71
0
72
0
73
0
74
1
75
0
76
0
77
0
78
0
79
0
170
0
171
2
172
0
173
0
174
0
175
0
176
0
177
0
178
0
179
0
271
4
272
4
273
2
274
2
275
0
276
0
277
2
278
46
279
0
280
0
281
0
282
0
283
1
284
0
285
0
286
0
288
0
289
3
340
Standard
341

371
-2
372
-2
0
ENDTAB
0
TABLE
2
BLOCK_RECORD
5
1
330
0
100
AcDbSymbolTable
70
2
0
BLOCK_RECORD
5
1F
330
1
100
AcDbSymbolTableRecord
100
AcDbBlockTableRecord
2
*Model_Space
70
0
280
1
281
0
0
BLOCK_RECORD
5
1E
330
1
100
AcDbSymbolTableRecord
100
AcDbBlockTableRecord
2
*Paper_Space
70
0
280
1
281
0
0
BLOCK_RECORD
5
46
330
1
100
AcDbSymbolTableRecord
100
AcDbBlockTableRecord
2
*D2
70
0
280
1
281
0
0
BLOCK_RECORD
5
49
330
1
100
AcDbSymbolTableRecord
100
AcDbBlockTableRecord
2
*D1
70
0
280
1
281
0
0
ENDTAB
0
ENDSEC
0
SECTION
2
BLOCKS
0
BLOCK
5
20
330
1F
100
AcDbEntity
8
0
100
AcDbBlockBegin
2
*Model_Space
70
0
10
0
20
0
30
0
3
*Model_Space
1

0
ENDBLK
5
21
330
1F
100
AcDbEntity
8
0
100
AcDbBlockEnd
0
BLOCK
5
1C
330
1B
100
AcDbEntity
8
0
100
AcDbBlockBegin
2
*Paper_Space
70
0
10
0
20
0
30
0
3
*Paper_Space
1

0
ENDBLK
5
1D
330
1F
100
AcDbEntity
8
0
100
AcDbBlockEnd
0
BLOCK
5
47
330
46
100
AcDbEntity
8
0
100
AcDbBlockBegin
2
*D2
70
1
10
0
20
0
3
*D2
1

0
LINE
5
4C
100
AcDbEntity
8
0
6
CONTINUOUS
62
7
370
0
100
AcDbLine
10
99.2908059662
20
1.808983613e-16
11
37.0084528306
21
1.808983613e-16
0
SOLID
5
4D
100
AcDbEntity
8
0
6
CONTINUOUS
62
7
370
0
100
AcDbTrace
10
99.2908059662
20
1.808983613e-16
30
0
11
99.1108059662
21
-0.0299724953596
31
0
12
99.1108059662
22
0.0299724953596
32
0
13
99.1108059662
23
0.0299724953596
33
0
0
SOLID
5
4E
100
AcDbEntity
8
0
6
CONTINUOUS
62
7
370
0
100
AcDbTrace
10
-26.4139003051
20
1.808983613e-16
30
0
11
-26.2339003051
21
0.0299724953596
31
0
12
-26.2339003051
22
-0.0299724953596
32
0
13
-26.2339003051
23
-0.0299724953596
33
0
0
LINE
5
4F
100
AcDbEntity
8
0
6
CONTINUOUS
62
7
370
0
100
AcDbLine
10
35.8684528306
20
1.808983613e-16
11
-26.4139003051
21
1.808983613e-16
0
MTEXT
5
50
100
AcDbEntity
8
0
6
CONTINUOUS
62
7
370
0
100
AcDbMText
10
36.4384528306
20
1.808983613e-16
30
0
40
0.18
41
0.96
71
5
72
1
1
125.7047
7
standard
210
0
220
0
230
1
50
0
73
2
44
1
0
LINE
5
51
100
AcDbEntity
8
0
6
CONTINUOUS
62
7
370
0
100
AcDbLine
10
99.2908059662
20
0.0625
11
99.2908059662
21
0.18
0
LINE
5
52
100
AcDbEntity
8
0
6
CONTINUOUS
62
7
370
0
100
AcDbLine
10
-26.4139003051
20
0.0625
11
-26.4139003051
21
0.18
0
ENDBLK
5
48
330
46
100
AcDbEntity
8
0
100
AcDbBlockEnd
0
BLOCK
5
4A
330
49
100
AcDbEntity
8
0
100
AcDbBlockBegin
2
*D1
70
1
10
0
20
0
3
*D1
1

0
LINE
5
53
100
AcDbEntity
8
0
6
CONTINUOUS
62
7
370
0
100
AcDbLine
10
-25.459181017
20
0
11
104.976481339
21
0
0
SOLID
5
54
100
AcDbEntity
8
0
6
CONTINUOUS
62
7
370
0
100
AcDbTrace
10
-25.459181017
20
0
30
0
11
-25.279181017
21
0.0299724953596
31
0
12
-25.279181017
22
-0.0299724953596
32
0
13
-25.279181017
23
-0.0299724953596
33
0
0
SOLID
5
55
100
AcDbEntity
8
0
6
CONTINUOUS
62
7
370
0
100
AcDbTrace
10
236.452143695
20
0
30
0
11
236.272143695
21
-0.0299724953596
31
0
12
236.272143695
22
0.0299724953596
32
0
13
236.272143695
23
0.0299724953596
33
0
0
LINE
5
56
100
AcDbEntity
8
0
6
CONTINUOUS
62
7
370
0
100
AcDbLine
10
106.016481339
20
0
11
236.452143695
21
0
0
MTEXT
5
57
100
AcDbEntity
8
0
6
CONTINUOUS
62
7
370
0
100
AcDbMText
10
105.496481339
20
0
30
0
40
0.18
41
0.86
71
5
72
1
1
261.9113
7
standard
210
0
220
0
230
1
50
0
73
2
44
1
0
LINE
5
58
100
AcDbEntity
8
0
6
CONTINUOUS
62
7
370
0
100
AcDbLine
10
-25.459181017
20
0.0625
11
-25.459181017
21
0.18
0
LINE
5
59
100
AcDbEntity
8
0
6
CONTINUOUS
62
7
370
0
100
AcDbLine
10
236.452143695
20
0.0625
11
236.452143695
21
0.18
0
ENDBLK
5
4B
330
49
100
AcDbEntity
8
0
100
AcDbBlockEnd
0
ENDSEC
0
SECTION
2
ENTITIES
0
SPLINE
5
5A
100
AcDbEntity
8
0
6
ByLayer
62
256
370
0
100
AcDbSpline
210
0
220
0
230
1
70
11
71
3
72
32
73
28
74
0
42
1e-07
43
1e-07
40
0
40
0
40
0
40
0
40
0.04
40
0.08
40
0.12
40
0.16
40
0.2
40
0.24
40
0.28
40
0.32
40
0.36
40
0.4
40
0.44
40
0.48
40
0.52
40
0.56
40
0.6
40
0.64
40
0.68
40
0.72
40
0.76
40
0.8
40
0.84
40
0.88
40
0.92
40
0.96
40
1
40
1
40
1
40
1
10
215.127781793
20
273.445819871
30
0
10
215.127781793
20
273.445819871
30
0
10
-4.87222629001
20
273.445819871
30
0
10
-4.87222629001
20
273.445819871
30
0
10
-15.9179129667
20
273.445819871
30
0
10
-24.8722113653
20
264.491521473
30
0
10
-24.8722328972
20
253.445834796
30
0
10
-24.8722328972
20
253.445834796
30
0
10
-24.8722328972
20
43.9458317965
30
0
10
-24.8722328972
20
43.9458317965
30
0
10
-24.8722113653
20
32.9023629
30
0
10
-15.9213580622
20
23.948968839
30
0
10
-4.87786763387
20
23.9458467212
30
0
10
-4.87786763387
20
23.9458467212
30
0
10
215.122118917
20
23.9458467212
30
0
10
215.122118917
20
23.9458467212
30
0
10
226.167827126
20
23.9427246034
30
0
10
235.124644751
20
32.894503776
30
0
10
235.127766868
20
43.9401904526
30
0
10
235.127766868
20
43.9420637233
30
0
10
235.1277884
20
43.9439585258
30
0
10
235.1277884
20
43.9458317965
30
0
10
235.1277884
20
43.9458317965
30
0
10
235.1277884
20
253.445834796
30
0
10
235.1277884
20
253.445834796
30
0
10
235.127766868
20
264.491521473
30
0
10
226.17346847
20
273.445819871
30
0
10
215.127781793
20
273.445819871
30
0
0
SPLINE
5
5B
100
AcDbEntity
8
0
6
ByLayer
62
256
370
0
100
AcDbSpline
210
0
220
0
230
1
70
11
71
3
72
17
73
13
74
0
42
1e-07
43
1e-07
40
0
40
0
40
0
40
0
40
0.1
40
0.2
40
0.3
40
0.4
40
0.5
40
0.6
40
0.7
40
0.8
40
0.9
40
1
40
1
40
1
40
1
10
0.6277825248
20
255.445820384
30
0
10
1.45619879792
20
255.445820384
30
0
10
2.12777709908
20
254.774242083
30
0
10
2.12777709908
20
253.94582581
30
0
10
2.12777709908
20
253.117388005
30
0
10
1.45619879792
20
252.445831236
30
0
10
0.6277825248
20
252.445831236
30
0
10
-0.200655280169
20
252.445831236
30
0
10
-0.872212049478
20
253.117388005
30
0
10
-0.872212049478
20
253.94582581
30
0
10
-0.872212049478
20
254.774242083
30
0
10
-0.200655280169
20
255.445820384
30
0
10
0.6277825248
20
255.445820384
30
0
0
SPLINE
5
5C
100
AcDbEntity
8
0
6
ByLayer
62
256
370
0
100
AcDbSpline
210
0
220
0
230
1
70
11
71
3
72
17
73
13
74
0
42
1e-07
43
1e-07
40
0
40
0
40
0
40
0
40
0.1
40
0.2
40
0.3
40
0.4
40
0.5
40
0.6
40
0.7
40
0.8
40
0.9
40
1
40
1
40
1
40
1
10
0.6277825248
20
223.695820392
30
0
10
1.45619879792
20
223.695820392
30
0
10
2.12777709908
20
223.024242091
30
0
10
2.12777709908
20
222.195825818
30
0
10
2.12777709908
20
221.367388013
30
0
10
1.45619879792
20
220.695831244
30
0
10
0.6277825248
20
220.695831244
30
0
10
-0.200655280169
20
220.695831244
30
0
10
-0.872212049478
20
221.367388013
30
0
10
-0.872212049478
20
222.195825818
30
0
10
-0.872212049478
20
223.024242091
30
0
10
-0.200655280169
20
223.695820392
30
0
10
0.6277825248
20
223.695820392
30
0
0
SPLINE
5
5D
100
AcDbEntity
8
0
6
ByLayer
62
256
370
0
100
AcDbSpline
210
0
220
0
230
1
70
11
71
3
72
17
73
13
74
0
42
1e-07
43
1e-07
40
0
40
0
40
0
40
0
40
0.1
40
0.2
40
0.3
40
0.4
40
0.5
40
0.6
40
0.7
40
0.8
40
0.9
40
1
40
1
40
1
40
1
10
0.6277825248
20
173.945820913
30
0
10
1.45619879792
20
173.945820913
30
0
10
2.12777709908
20
173.274242612
30
0
10
2.12777709908
20
172.445826339
30
0
10
2.12777709908
20
171.617388534
30
0
10
1.45619879792
20
170.945831765
30
0
10
0.6277825248
20
170.945831765
30
0
10
-0.200655280169
20
170.945831765
30
0
10
-0.872212049478
20
171.617388534
30
0
10
-0.872212049478
20
172.445826339
30
0
10
-0.872212049478
20
173.274242612
30
0
10
-0.200655280169
20
173.945820913
30
0
10
0.6277825248
20
173.945820913
30
0
0
SPLINE
5
5E
100
AcDbEntity
8
0
6
ByLayer
62
256
370
0
100
AcDbSpline
210
0
220
0
230
1
70
11
71
3
72
77
73
73
74
0
42
1e-07
43
1e-07
40
0
40
0
40
0
40
0
40
0.0142857142857
40
0.0285714285714
40
0.0428571428571
40
0.0571428571429
40
0.0714285714286
40
0.0857142857143
40
0.1
40
0.114285714286
40
0.128571428571
40
0.142857142857
40
0.157142857143
40
0.171428571429
40
0.185714285714
40
0.2
40
0.214285714286
40
0.228571428571
40
0.242857142857
40
0.257142857143
40
0.271428571429
40
0.285714285714
40
0.3
40
0.314285714286
40
0.328571428571
40
0.342857142857
40
0.357142857143
40
0.371428571429
40
0.385714285714
40
0.4
40
0.414285714286
40
0.428571428571
40
0.442857142857
40
0.457142857143
40
0.471428571429
40
0.485714285714
40
0.5
40
0.514285714286
40
0.528571428571
40
0.542857142857
40
0.557142857143
40
0.571428571429
40
0.585714285714
40
0.6
40
0.614285714286
40
0.628571428571
40
0.642857142857
40
0.657142857143
40
0.671428571429
40
0.685714285714
40
0.7
40
0.714285714286
40
0.728571428571
40
0.742857142857
40
0.757142857143
40
0.771428571429
40
0.785714285714
40
0.8
40
0.814285714286
40
0.828571428571
40
0.842857142857
40
0.857142857143
40
0.871428571429
40
0.885714285714
40
0.9
40
0.914285714286
40
0.928571428571
40
0.942857142857
40
0.957142857143
40
0.971428571429
40
0.985714285714
40
1
40
1
40
1
40
1
10
-18.457271317
20
56.3345458844
30
0
10
-18.5070529468
20
56.4416883539
30
0
10
-18.532029889
20
56.5350504416
30
0
10
-18.532029889
20
56.6142876378
30
0
10
-18.532029889
20
56.7448567566
30
0
10
-18.4815592402
20
56.8571668695
30
0
10
-18.3804456877
20
56.9519069953
30
0
10
-18.27950439
20
57.0463026116
30
0
10
-18.1549641882
20
57.0935004198
30
0
10
-18.0066528275
20
57.0935004198
30
0
10
-17.8507622568
20
57.0935004198
30
0
10
-17.7324232269
20
57.0494031975
30
0
10
-17.6519802473
20
56.9612087531
30
0
10
-17.571365013
20
56.8730143087
30
0
10
-17.4506144162
20
56.697314439
30
0
10
-17.2895562023
20
56.4341091439
30
0
10
-17.2895562023
20
56.4341091439
30
0
10
-16.238974334
20
54.72775335
30
0
10
-16.238974334
20
54.72775335
30
0
10
-16.238974334
20
54.72775335
30
0
10
-15.1768513959
20
56.4341091439
30
0
10
-15.1768513959
20
56.4341091439
30
0
10
-15.1129448747
20
56.5388400466
30
0
10
-15.0592013851
20
56.6270344911
30
0
10
-15.015793182
20
56.6986924771
30
0
10
-14.9722127241
20
56.7703504632
30
0
10
-14.9243258969
20
56.8371853157
30
0
10
-14.8719604455
20
56.8998860535
30
0
10
-14.8195949941
20
56.9625867913
30
0
10
-14.7613728804
20
57.0104736186
30
0
10
-14.6974663592
20
57.0438910448
30
0
10
-14.6335598379
20
57.0769639614
30
0
10
-14.5555284252
20
57.0935004198
30
0
10
-14.4635443757
20
57.0935004198
30
0
10
-14.3204006583
20
57.0935004198
30
0
10
-14.200855845
20
57.0469916307
30
0
10
-14.1050821905
20
56.9536295431
30
0
10
-14.0091362812
20
56.8602674554
30
0
10
-13.961249454
20
56.7524359667
30
0
10
-13.961249454
20
56.6297905674
30
0
10
-13.961249454
20
56.5298827984
30
0
10
-13.9855373771
20
56.4303195388
30
0
10
-14.0341132235
20
56.3304117698
30
0
10
-14.0826890698
20
56.2308485102
30
0
10
-14.165715871
20
56.0927001813
30
0
10
-14.2833658818
20
55.9163112924
30
0
10
-14.2833658818
20
55.9163112924
30
0
10
-15.6906873876
20
53.7576144614
30
0
10
-15.6906873876
20
53.7576144614
30
0
10
-15.6906873876
20
53.7576144614
30
0
10
-15.6906873876
20
51.9744330382
30
0
10
-15.6906873876
20
51.9744330382
30
0
10
-15.6906873876
20
51.741889093
30
0
10
-15.7442586224
20
51.5682562805
30
0
10
-15.8515733467
20
51.4531900913
30
0
10
-15.9590603259
20
51.3381239021
30
0
10
-16.0958306166
20
51.2805908075
30
0
10
-16.261884219
20
51.2805908075
30
0
10
-16.4306938978
20
51.2805908075
30
0
10
-16.5674641886
20
51.337434883
30
0
10
-16.6721950913
20
51.451123034
30
0
10
-16.7770982488
20
51.564811185
30
0
10
-16.8294637002
20
51.7394775261
30
0
10
-16.8294637002
20
51.9744330382
30
0
10
-16.8294637002
20
51.9744330382
30
0
10
-16.8294637002
20
53.7576144614
30
0
10
-16.8294637002
20
53.7576144614
30
0
10
-16.8294637002
20
53.7576144614
30
0
10
-18.2021619963
20
55.8856499426
30
0
10
-18.2021619963
20
55.8856499426
30
0
10
-18.3223958288
20
56.0775417612
30
0
10
-18.4073174325
20
56.2270589052
30
0
10
-18.457271317
20
56.3345458844
30
0
0
SPLINE
5
5F
100
AcDbEntity
8
0
6
ByLayer
62
256
370
0
100
AcDbSpline
210
0
220
0
230
1
70
11
71
3
72
65
73
61
74
0
42
1e-07
43
1e-07
40
0
40
0
40
0
40
0
40
0.0172413793103
40
0.0344827586207
40
0.051724137931
40
0.0689655172414
40
0.0862068965517
40
0.103448275862
40
0.120689655172
40
0.137931034483
40
0.155172413793
40
0.172413793103
40
0.189655172414
40
0.206896551724
40
0.224137931034
40
0.241379310345
40
0.258620689655
40
0.275862068966
40
0.293103448276
40
0.310344827586
40
0.327586206897
40
0.344827586207
40
0.362068965517
40
0.379310344828
40
0.396551724138
40
0.413793103448
40
0.431034482759
40
0.448275862069
40
0.465517241379
40
0.48275862069
40
0.5
40
0.51724137931
40
0.534482758621
40
0.551724137931
40
0.568965517241
40
0.586206896552
40
0.603448275862
40
0.620689655172
40
0.637931034483
40
0.655172413793
40
0.672413793103
40
0.689655172414
40
0.706896551724
40
0.724137931034
40
0.741379310345
40
0.758620689655
40
0.775862068966
40
0.793103448276
40
0.810344827586
40
0.827586206897
40
0.844827586207
40
0.862068965517
40
0.879310344828
40
0.896551724138
40
0.913793103448
40
0.931034482759
40
0.948275862069
40
0.965517241379
40
0.98275862069
40
1
40
1
40
1
40
1
10
1.8716127179
20
35.7287838317
30
0
10
1.8716127179
20
35.7287838317
30
0
10
-3.36852823809
20
31.763220546
30
0
10
-3.36852823809
20
31.763220546
30
0
10
-3.86720580958
20
31.3858318674
30
0
10
-4.58247222786
20
31.7415379763
30
0
10
-4.58247222786
20
32.3669304661
30
0
10
-4.58247222786
20
32.3669304661
30
0
10
-4.58247222786
20
34.8625791674
30
0
10
-4.58247222786
20
34.8625791674
30
0
10
-4.58247222786
20
34.8625791674
30
0
10
-13.4607201437
20
34.8625791674
30
0
10
-13.4607201437
20
34.8625791674
30
0
10
-13.6077611253
20
34.8625791674
30
0
10
-13.7406341518
20
34.9227176155
30
0
10
-13.8365369974
20
35.0195463305
30
0
10
-13.9333657124
20
35.1154491761
30
0
10
-13.9935041605
20
35.2483222026
30
0
10
-13.9935041605
20
35.3953631842
30
0
10
-13.9935041605
20
35.3953631842
30
0
10
-13.9935041605
20
44.2736111
30
0
10
-13.9935041605
20
44.2736111
30
0
10
-13.9935041605
20
44.2736111
30
0
10
-16.3715674465
20
44.2736111
30
0
10
-16.3715674465
20
44.2736111
30
0
10
-16.9969599363
20
44.2736111
30
0
10
-17.3526660452
20
44.9888775183
30
0
10
-16.9752773666
20
45.4875550898
30
0
10
-16.9752773666
20
45.4875550898
30
0
10
-13.0097140809
20
50.7276960458
30
0
10
-13.0097140809
20
50.7276960458
30
0
10
-12.7067825286
20
51.1279946093
30
0
10
-12.105247325
20
51.1279946093
30
0
10
-11.8023157726
20
50.7276960458
30
0
10
-11.8023157726
20
50.7276960458
30
0
10
-7.83675248692
20
45.4875550898
30
0
10
-7.83675248692
20
45.4875550898
30
0
10
-7.45936380836
20
44.9888775183
30
0
10
-7.81506991721
20
44.2736111
30
0
10
-8.44046240702
20
44.2736111
30
0
10
-8.44046240702
20
44.2736111
30
0
10
-10.9361111084
20
44.2736111
30
0
10
-10.9361111084
20
44.2736111
30
0
10
-10.9361111084
20
44.2736111
30
0
10
-10.9361111084
20
37.9199722195
30
0
10
-10.9361111084
20
37.9199722195
30
0
10
-10.9361111084
20
37.9199722195
30
0
10
-4.58247222786
20
37.9199722195
30
0
10
-4.58247222786
20
37.9199722195
30
0
10
-4.58247222786
20
37.9199722195
30
0
10
-4.58247222786
20
40.2980355056
30
0
10
-4.58247222786
20
40.2980355056
30
0
10
-4.58247222786
20
40.9234279954
30
0
10
-3.86720580958
20
41.2791341043
30
0
10
-3.36852823809
20
40.9017454257
30
0
10
-3.36852823809
20
40.9017454257
30
0
10
1.8716127179
20
36.93618214
30
0
10
1.8716127179
20
36.93618214
30
0
10
2.27191128144
20
36.6332505876
30
0
10
2.27191128144
20
36.0317153841
30
0
10
1.8716127179
20
35.7287838317
30
0
0
SPLINE
5
60
100
AcDbEntity
8
0
6
ByLayer
62
256
370
0
100
AcDbSpline
210
0
220
0
230
1
70
11
71
3
72
113
73
109
74
0
42
1e-07
43
1e-07
40
0
40
0
40
0
40
0
40
0.00943396226415
40
0.0188679245283
40
0.0283018867925
40
0.0377358490566
40
0.0471698113208
40
0.0566037735849
40
0.0660377358491
40
0.0754716981132
40
0.0849056603774
40
0.0943396226415
40
0.103773584906
40
0.11320754717
40
0.122641509434
40
0.132075471698
40
0.141509433962
40
0.150943396226
40
0.160377358491
40
0.169811320755
40
0.179245283019
40
0.188679245283
40
0.198113207547
40
0.207547169811
40
0.216981132075
40
0.22641509434
40
0.235849056604
40
0.245283018868
40
0.254716981132
40
0.264150943396
40
0.27358490566
40
0.283018867925
40
0.292452830189
40
0.301886792453
40
0.311320754717
40
0.320754716981
40
0.330188679245
40
0.339622641509
40
0.349056603774
40
0.358490566038
40
0.367924528302
40
0.377358490566
40
0.38679245283
40
0.396226415094
40
0.405660377358
40
0.415094339623
40
0.424528301887
40
0.433962264151
40
0.443396226415
40
0.452830188679
40
0.462264150943
40
0.471698113208
40
0.481132075472
40
0.490566037736
40
0.5
40
0.509433962264
40
0.518867924528
40
0.528301886792
40
0.537735849057
40
0.547169811321
40
0.556603773585
40
0.566037735849
40
0.575471698113
40
0.584905660377
40
0.594339622642
40
0.603773584906
40
0.61320754717
40
0.622641509434
40
0.632075471698
40
0.641509433962
40
0.650943396226
40
0.660377358491
40
0.669811320755
40
0.679245283019
40
0.688679245283
40
0.698113207547
40
0.707547169811
40
0.716981132075
40
0.72641509434
40
0.735849056604
40
0.745283018868
40
0.754716981132
40
0.764150943396
40
0.77358490566
40
0.783018867925
40
0.792452830189
40
0.801886792453
40
0.811320754717
40
0.820754716981
40
0.830188679245
40
0.839622641509
40
0.849056603774
40
0.858490566038
40
0.867924528302
40
0.877358490566
40
0.88679245283
40
0.896226415094
40
0.905660377358
40
0.915094339623
40
0.924528301887
40
0.933962264151
40
0.943396226415
40
0.952830188679
40
0.962264150943
40
0.971698113208
40
0.981132075472
40
0.990566037736
40
1
40
1
40
1
40
1
10
6.98699815364
20
28.2494384695
30
0
10
6.94341769575
20
28.1753689166
30
0
10
6.88209499611
20
28.1164577838
30
0
10
6.80285779995
20
28.0730495807
30
0
10
6.72362060379
20
28.0296413775
30
0
10
6.63422037595
20
28.007937276
30
0
10
6.53448486165
20
28.007937276
30
0
10
6.42717013728
20
28.007937276
30
0
10
6.33639187125
20
28.0303303966
30
0
10
6.26232231831
20
28.0751166379
30
0
10
6.18808051061
20
28.1195583697
30
0
10
6.12813584916
20
28.1753689166
30
0
10
6.08197156966
20
28.2418592594
30
0
10
6.03597954493
20
28.3083496023
30
0
10
5.95036892212
20
28.4371961734
30
0
10
5.82513970123
20
28.629087992
30
0
10
5.82513970123
20
28.629087992
30
0
10
4.83588053265
20
30.1859266418
30
0
10
4.83588053265
20
30.1859266418
30
0
10
4.83588053265
20
30.1859266418
30
0
10
3.78512640964
20
28.5829237125
30
0
10
3.78512640964
20
28.5829237125
30
0
10
3.70330539187
20
28.45511067
30
0
10
3.64525553294
20
28.3658826969
30
0
10
3.61063232332
20
28.3145507742
30
0
10
3.57618136846
20
28.263563361
30
0
10
3.53466796787
20
28.2136094765
30
0
10
3.48609212152
20
28.1650336301
30
0
10
3.43751627518
20
28.1164577838
30
0
10
3.37998318058
20
28.0782172239
30
0
10
3.31349283771
20
28.0499674409
30
0
10
3.24700249485
20
28.0220621675
30
0
10
3.16914333688
20
28.007937276
30
0
10
3.07957085426
20
28.007937276
30
0
10
2.94159478008
20
28.007937276
30
0
10
2.8270453552
20
28.0499674409
30
0
10
2.73643934393
20
28.1343722803
30
0
10
2.6456610779
20
28.2187771197
30
0
10
2.60035807227
20
28.341422519
30
0
10
2.60035807227
20
28.5026529877
30
0
10
2.60035807227
20
28.6917887298
30
0
10
2.69354790514
20
28.9229546369
30
0
10
2.88027208044
20
29.1964952184
30
0
10
2.88027208044
20
29.1964952184
30
0
10
4.13790418733
20
31.0334201311
30
0
10
4.13790418733
20
31.0334201311
30
0
10
4.13790418733
20
31.0334201311
30
0
10
3.07957085426
20
32.6667399007
30
0
10
3.07957085426
20
32.6667399007
30
0
10
2.97983533997
20
32.825214293
30
0
10
2.90507676794
20
32.9612955647
30
0
10
2.85529513818
20
33.0753282252
30
0
10
2.80551350841
20
33.1890163763
30
0
10
2.78053656615
20
33.2982259031
30
0
10
2.78053656615
20
33.4029568059
30
0
10
2.78053656615
20
33.510443785
30
0
10
2.82842339339
20
33.6069064586
30
0
10
2.92436930265
20
33.6926893362
30
0
10
3.02014295714
20
33.7781277042
30
0
10
3.13710394887
20
33.8208468882
30
0
10
3.27525227783
20
33.8208468882
30
0
10
3.43372667015
20
33.8208468882
30
0
10
3.55706108852
20
33.7743380992
30
0
10
3.64525553294
20
33.6809760115
30
0
10
3.73344997737
20
33.5876139239
30
0
10
3.85540635754
20
33.4146701305
30
0
10
4.01146918302
20
33.1614556124
30
0
10
4.01146918302
20
33.1614556124
30
0
10
4.85500081259
20
31.7965087811
30
0
10
4.85500081259
20
31.7965087811
30
0
10
4.85500081259
20
31.7965087811
30
0
10
5.75606553676
20
33.1614556124
30
0
10
5.75606553676
20
33.1614556124
30
0
10
5.83030734446
20
33.2765218016
30
0
10
5.89352484662
20
33.3747070229
30
0
10
5.94589029799
20
33.4567002955
30
0
10
5.99825574937
20
33.5383490585
30
0
10
6.04872639823
20
33.6062174395
30
0
10
6.09730224457
20
33.6599609291
30
0
10
6.14587809091
20
33.7137044187
30
0
10
6.20031059958
20
33.7540120358
30
0
10
6.2604275158
20
33.7808837806
30
0
10
6.32037217724
20
33.8074110159
30
0
10
6.39013536082
20
33.8208468882
30
0
10
6.46937255698
20
33.8208468882
30
0
10
6.61251627439
20
33.8208468882
30
0
10
6.72947726611
20
33.7781277042
30
0
10
6.82025553215
20
33.6926893362
30
0
10
6.91086154341
20
33.6069064586
30
0
10
6.95633680382
20
33.5052761418
30
0
10
6.95633680382
20
33.3877983858
30
0
10
6.95633680382
20
33.2162326306
30
0
10
6.85780707294
20
32.9836886853
30
0
10
6.66109212073
20
32.6898220404
30
0
10
6.66109212073
20
32.6898220404
30
0
10
5.55280490313
20
31.0334201311
30
0
10
5.55280490313
20
31.0334201311
30
0
10
5.55280490313
20
31.0334201311
30
0
10
6.74549696012
20
29.1964952184
30
0
10
6.74549696012
20
29.1964952184
30
0
10
6.85281168448
20
29.0356092592
30
0
10
6.93067084245
20
28.9019395544
30
0
10
6.97924668879
20
28.7958306135
30
0
10
7.02782253514
20
28.6897216725
30
0
10
7.05211045831
20
28.5894693939
30
0
10
7.05211045831
20
28.494729268
30
0
10
7.05211045831
20
28.4051567854
30
0
10
7.03040635675
20
28.3235080224
30
0
10
6.98699815364
20
28.2494384695
30
0
0
SPLINE
5
61
100
AcDbEntity
8
0
6
ByLayer
62
256
370
0
100
AcDbSpline
210
0
220
0
230
1
70
11
71
3
72
17
73
13
74
0
42
1e-07
43
1e-07
40
0
40
0
40
0
40
0
40
0.1
40
0.2
40
0.3
40
0.4
40
0.5
40
0.6
40
0.7
40
0.8
40
0.9
40
1
40
1
40
1
40
1
10
7.87212931118
20
38.4208460394
30
0
10
7.04369150621
20
38.4208460394
30
0
10
6.37211320506
20
39.0924243405
30
0
10
6.37211320506
20
39.9208406137
30
0
10
6.37211320506
20
40.7492784186
30
0
10
7.04369150621
20
41.4208567198
30
0
10
7.87212931118
20
41.4208567198
30
0
10
8.7005455843
20
41.4208567198
30
0
10
9.37212388546
20
40.7492784186
30
0
10
9.37212388546
20
39.9208406137
30
0
10
9.37212388546
20
39.0924243405
30
0
10
8.7005455843
20
38.4208460394
30
0
10
7.87212931118
20
38.4208460394
30
0
0
SPLINE
5
62
100
AcDbEntity
8
0
6
ByLayer
62
256
370
0
100
AcDbSpline
210
0
220
0
230
1
70
11
71
3
72
17
73
13
74
0
42
1e-07
43
1e-07
40
0
40
0
40
0
40
0
40
0.1
40
0.2
40
0.3
40
0.4
40
0.5
40
0.6
40
0.7
40
0.8
40
0.9
40
1
40
1
40
1
40
1
10
27.7471220159
20
49.9208546832
30
0
10
26.9187057428
20
49.9208546832
30
0
10
26.2471274416
20
50.5924114525
30
0
10
26.2471274416
20
51.4208492574
30
0
10
26.2471274416
20
52.2492655306
30
0
10
26.9187057428
20
52.9208438317
30
0
10
27.7471220159
20
52.9208438317
30
0
10
28.5755598209
20
52.9208438317
30
0
10
29.2471165902
20
52.2492655306
30
0
10
29.2471165902
20
51.4208492574
30
0
10
29.2471165902
20
50.5924114525
30
0
10
28.5755598209
20
49.9208546832
30
0
10
27.7471220159
20
49.9208546832
30
0
0
SPLINE
5
63
100
AcDbEntity
8
0
6
ByLayer
62
256
370
0
100
AcDbSpline
210
0
220
0
230
1
70
11
71
3
72
17
73
13
74
0
42
1e-07
43
1e-07
40
0
40
0
40
0
40
0
40
0.1
40
0.2
40
0.3
40
0.4
40
0.5
40
0.6
40
0.7
40
0.8
40
0.9
40
1
40
1
40
1
40
1
10
36.6721155711
20
66.0208409462
30
0
10
35.843699298
20
66.0208409462
30
0
10
35.1721209968
20
66.6924192474
30
0
10
35.1721209968
20
67.5208355205
30
0
10
35.1721209968
20
68.3492733255
30
0
10
35.843699298
20
69.0208516266
30
0
10
36.6721155711
20
69.0208516266
30
0
10
37.500553376
20
69.0208516266
30
0
10
38.1721316772
20
68.3492733255
30
0
10
38.1721316772
20
67.5208355205
30
0
10
38.1721316772
20
66.6924192474
30
0
10
37.500553376
20
66.0208409462
30
0
10
36.6721155711
20
66.0208409462
30
0
0
SPLINE
5
64
100
AcDbEntity
8
0
6
ByLayer
62
256
370
0
100
AcDbSpline
210
0
220
0
230
1
70
11
71
3
72
17
73
13
74
0
42
1e-07
43
1e-07
40
0
40
0
40
0
40
0
40
0.1
40
0.2
40
0.3
40
0.4
40
0.5
40
0.6
40
0.7
40
0.8
40
0.9
40
1
40
1
40
1
40
1
10
47.6221147206
20
38.4208460394
30
0
10
46.7936984475
20
38.4208460394
30
0
10
46.1221201463
20
39.0924243405
30
0
10
46.1221201463
20
39.9208406137
30
0
10
46.1221201463
20
40.7492784186
30
0
10
46.7936984475
20
41.4208567198
30
0
10
47.6221147206
20
41.4208567198
30
0
10
48.4505525256
20
41.4208567198
30
0
10
49.1221308267
20
40.7492784186
30
0
10
49.1221308267
20
39.9208406137
30
0
10
49.1221308267
20
39.0924243405
30
0
10
48.4505525256
20
38.4208460394
30
0
10
47.6221147206
20
38.4208460394
30
0
0
SPLINE
5
65
100
AcDbEntity
8
0
6
ByLayer
62
256
370
0
100
AcDbSpline
210
0
220
0
230
1
70
11
71
3
72
17
73
13
74
0
42
1e-07
43
1e-07
40
0
40
0
40
0
40
0
40
0.1
40
0.2
40
0.3
40
0.4
40
0.5
40
0.6
40
0.7
40
0.8
40
0.9
40
1
40
1
40
1
40
1
10
83.1277855559
20
214.820823785
30
0
10
82.299347751
20
214.820823785
30
0
10
81.6277694498
20
215.492402086
30
0
10
81.6277694498
20
216.32081836
30
0
10
81.6277694498
20
217.149256165
30
0
10
82.299347751
20
217.820812934
30
0
10
83.1277855559
20
217.820812934
30
0
10
83.9562018291
20
217.820812934
30
0
10
84.6277801302
20
217.149256165
30
0
10
84.6277801302
20
216.32081836
30
0
10
84.6277801302
20
215.492402086
30
0
10
83.9562018291
20
214.820823785
30
0
10
83.1277855559
20
214.820823785
30
0
0
SPLINE
5
66
100
AcDbEntity
8
0
6
ByLayer
62
256
370
0
100
AcDbSpline
210
0
220
0
230
1
70
11
71
3
72
17
73
13
74
0
42
1e-07
43
1e-07
40
0
40
0
40
0
40
0
40
0.1
40
0.2
40
0.3
40
0.4
40
0.5
40
0.6
40
0.7
40
0.8
40
0.9
40
1
40
1
40
1
40
1
10
105.627768766
20
231.320828698
30
0
10
104.799352493
20
231.320828698
30
0
10
104.127774191
20
231.992385467
30
0
10
104.127774191
20
232.820823272
30
0
10
104.127774191
20
233.649239545
30
0
10
104.799352493
20
234.320817846
30
0
10
105.627768766
20
234.320817846
30
0
10
106.456206571
20
234.320817846
30
0
10
107.127784872
20
233.649239545
30
0
10
107.127784872
20
232.820823272
30
0
10
107.127784872
20
231.992385467
30
0
10
106.456206571
20
231.320828698
30
0
10
105.627768766
20
231.320828698
30
0
0
SPLINE
5
67
100
AcDbEntity
8
0
6
ByLayer
62
256
370
0
100
AcDbSpline
210
0
220
0
230
1
70
11
71
3
72
17
73
13
74
0
42
1e-07
43
1e-07
40
0
40
0
40
0
40
0
40
0.1
40
0.2
40
0.3
40
0.4
40
0.5
40
0.6
40
0.7
40
0.8
40
0.9
40
1
40
1
40
1
40
1
10
116.672120468
20
82.5208458588
30
0
10
115.843704195
20
82.5208458588
30
0
10
115.172125894
20
83.19242416
30
0
10
115.172125894
20
84.0208404331
30
0
10
115.172125894
20
84.8492782381
30
0
10
115.843704195
20
85.5208350074
30
0
10
116.672120468
20
85.5208350074
30
0
10
117.500558273
20
85.5208350074
30
0
10
118.172115042
20
84.8492782381
30
0
10
118.172115042
20
84.0208404331
30
0
10
118.172115042
20
83.19242416
30
0
10
117.500558273
20
82.5208458588
30
0
10
116.672120468
20
82.5208458588
30
0
0
SPLINE
5
68
100
AcDbEntity
8
0
6
ByLayer
62
256
370
0
100
AcDbSpline
210
0
220
0
230
1
70
11
71
3
72
17
73
13
74
0
42
1e-07
43
1e-07
40
0
40
0
40
0
40
0
40
0.1
40
0.2
40
0.3
40
0.4
40
0.5
40
0.6
40
0.7
40
0.8
40
0.9
40
1
40
1
40
1
40
1
10
128.127773507
20
217.820812934
30
0
10
128.956211312
20
217.820812934
30
0
10
129.627768081
20
217.149256165
30
0
10
129.627768081
20
216.32081836
30
0
10
129.627768081
20
215.492402086
30
0
10
128.956211312
20
214.820823785
30
0
10
128.127773507
20
214.820823785
30
0
10
127.299357234
20
214.820823785
30
0
10
126.627778933
20
215.492402086
30
0
10
126.627778933
20
216.32081836
30
0
10
126.627778933
20
217.149256165
30
0
10
127.299357234
20
217.820812934
30
0
10
128.127773507
20
217.820812934
30
0
0
SPLINE
5
69
100
AcDbEntity
8
0
6
ByLayer
62
256
370
0
100
AcDbSpline
210
0
220
0
230
1
70
11
71
3
72
17
73
13
74
0
42
1e-07
43
1e-07
40
0
40
0
40
0
40
0
40
0.1
40
0.2
40
0.3
40
0.4
40
0.5
40
0.6
40
0.7
40
0.8
40
0.9
40
1
40
1
40
1
40
1
10
128.172129112
20
66.0208409462
30
0
10
127.343691307
20
66.0208409462
30
0
10
126.672113005
20
66.6924192474
30
0
10
126.672113005
20
67.5208355205
30
0
10
126.672113005
20
68.3492733255
30
0
10
127.343691307
20
69.0208516266
30
0
10
128.172129112
20
69.0208516266
30
0
10
129.000545385
20
69.0208516266
30
0
10
129.672123686
20
68.3492733255
30
0
10
129.672123686
20
67.5208355205
30
0
10
129.672123686
20
66.6924192474
30
0
10
129.000545385
20
66.0208409462
30
0
10
128.172129112
20
66.0208409462
30
0
0
SPLINE
5
6A
100
AcDbEntity
8
0
6
ByLayer
62
256
370
0
100
AcDbSpline
210
0
220
0
230
1
70
11
71
3
72
17
73
13
74
0
42
1e-07
43
1e-07
40
0
40
0
40
0
40
0
40
0.1
40
0.2
40
0.3
40
0.4
40
0.5
40
0.6
40
0.7
40
0.8
40
0.9
40
1
40
1
40
1
40
1
10
133.087785137
20
137.94582194
30
0
10
132.259347332
20
137.94582194
30
0
10
131.58776903
20
138.617400241
30
0
10
131.58776903
20
139.445816514
30
0
10
131.58776903
20
140.274254319
30
0
10
132.259347332
20
140.945811088
30
0
10
133.087785137
20
140.945811088
30
0
10
133.91620141
20
140.945811088
30
0
10
134.587779711
20
140.274254319
30
0
10
134.587779711
20
139.445816514
30
0
10
134.587779711
20
138.617400241
30
0
10
133.91620141
20
137.94582194
30
0
10
133.087785137
20
137.94582194
30
0
0
SPLINE
5
6B
100
AcDbEntity
8
0
6
ByLayer
62
256
370
0
100
AcDbSpline
210
0
220
0
230
1
70
11
71
3
72
17
73
13
74
0
42
1e-07
43
1e-07
40
0
40
0
40
0
40
0
40
0.1
40
0.2
40
0.3
40
0.4
40
0.5
40
0.6
40
0.7
40
0.8
40
0.9
40
1
40
1
40
1
40
1
10
163.622118591
20
38.4208460394
30
0
10
162.793702318
20
38.4208460394
30
0
10
162.122124017
20
39.0924243405
30
0
10
162.122124017
20
39.9208406137
30
0
10
162.122124017
20
40.7492784186
30
0
10
162.793702318
20
41.4208567198
30
0
10
163.622118591
20
41.4208567198
30
0
10
164.450556396
20
41.4208567198
30
0
10
165.122113165
20
40.7492784186
30
0
10
165.122113165
20
39.9208406137
30
0
10
165.122113165
20
39.0924243405
30
0
10
164.450556396
20
38.4208460394
30
0
10
163.622118591
20
38.4208460394
30
0
0
SPLINE
5
6C
100
AcDbEntity
8
0
6
ByLayer
62
256
370
0
100
AcDbSpline
210
0
220
0
230
1
70
11
71
3
72
17
73
13
74
0
42
1e-07
43
1e-07
40
0
40
0
40
0
40
0
40
0.1
40
0.2
40
0.3
40
0.4
40
0.5
40
0.6
40
0.7
40
0.8
40
0.9
40
1
40
1
40
1
40
1
10
183.497132828
20
49.9208546832
30
0
10
182.668695023
20
49.9208546832
30
0
10
181.997116722
20
50.5924114525
30
0
10
181.997116722
20
51.4208492574
30
0
10
181.997116722
20
52.2492655306
30
0
10
182.668695023
20
52.9208438317
30
0
10
183.497132828
20
52.9208438317
30
0
10
184.325549101
20
52.9208438317
30
0
10
184.997127402
20
52.2492655306
30
0
10
184.997127402
20
51.4208492574
30
0
10
184.997127402
20
50.5924114525
30
0
10
184.325549101
20
49.9208546832
30
0
10
183.497132828
20
49.9208546832
30
0
0
SPLINE
5
6D
100
AcDbEntity
8
0
6
ByLayer
62
256
370
0
100
AcDbSpline
210
0
220
0
230
1
70
11
71
3
72
17
73
13
74
0
42
1e-07
43
1e-07
40
0
40
0
40
0
40
0
40
0.1
40
0.2
40
0.3
40
0.4
40
0.5
40
0.6
40
0.7
40
0.8
40
0.9
40
1
40
1
40
1
40
1
10
203.372125532
20
38.4208460394
30
0
10
202.543687727
20
38.4208460394
30
0
10
201.872130958
20
39.0924243405
30
0
10
201.872130958
20
39.9208406137
30
0
10
201.872130958
20
40.7492784186
30
0
10
202.543687727
20
41.4208567198
30
0
10
203.372125532
20
41.4208567198
30
0
10
204.200541806
20
41.4208567198
30
0
10
204.872120107
20
40.7492784186
30
0
10
204.872120107
20
39.9208406137
30
0
10
204.872120107
20
39.0924243405
30
0
10
204.200541806
20
38.4208460394
30
0
10
203.372125532
20
38.4208460394
30
0
0
SPLINE
5
6E
100
AcDbEntity
8
0
6
ByLayer
62
256
370
0
100
AcDbSpline
210
0
220
0
230
1
70
11
71
3
72
17
73
13
74
0
42
1e-07
43
1e-07
40
0
40
0
40
0
40
0
40
0.1
40
0.2
40
0.3
40
0.4
40
0.5
40
0.6
40
0.7
40
0.8
40
0.9
40
1
40
1
40
1
40
1
10
210.627776538
20
170.945831765
30
0
10
209.799360265
20
170.945831765
30
0
10
209.127781964
20
171.617388534
30
0
10
209.127781964
20
172.445826339
30
0
10
209.127781964
20
173.274242612
30
0
10
209.799360265
20
173.945820913
30
0
10
210.627776538
20
173.945820913
30
0
10
211.456214343
20
173.945820913
30
0
10
212.127771113
20
173.274242612
30
0
10
212.127771113
20
172.445826339
30
0
10
212.127771113
20
171.617388534
30
0
10
211.456214343
20
170.945831765
30
0
10
210.627776538
20
170.945831765
30
0
0
SPLINE
5
6F
100
AcDbEntity
8
0
6
ByLayer
62
256
370
0
100
AcDbSpline
210
0
220
0
230
1
70
11
71
3
72
17
73
13
74
0
42
1e-07
43
1e-07
40
0
40
0
40
0
40
0
40
0.1
40
0.2
40
0.3
40
0.4
40
0.5
40
0.6
40
0.7
40
0.8
40
0.9
40
1
40
1
40
1
40
1
10
210.627776538
20
220.695831244
30
0
10
209.799360265
20
220.695831244
30
0
10
209.127781964
20
221.367388013
30
0
10
209.127781964
20
222.195825818
30
0
10
209.127781964
20
223.024242091
30
0
10
209.799360265
20
223.695820392
30
0
10
210.627776538
20
223.695820392
30
0
10
211.456214343
20
223.695820392
30
0
10
212.127771113
20
223.024242091
30
0
10
212.127771113
20
222.195825818
30
0
10
212.127771113
20
221.367388013
30
0
10
211.456214343
20
220.695831244
30
0
10
210.627776538
20
220.695831244
30
0
0
SPLINE
5
70
100
AcDbEntity
8
0
6
ByLayer
62
256
370
0
100
AcDbSpline
210
0
220
0
230
1
70
11
71
3
72
17
73
13
74
0
42
1e-07
43
1e-07
40
0
40
0
40
0
40
0
40
0.1
40
0.2
40
0.3
40
0.4
40
0.5
40
0.6
40
0.7
40
0.8
40
0.9
40
1
40
1
40
1
40
1
10
210.627776538
20
252.445831236
30
0
10
209.799360265
20
252.445831236
30
0
10
209.127781964
20
253.117388005
30
0
10
209.127781964
20
253.94582581
30
0
10
209.127781964
20
254.774242083
30
0
10
209.799360265
20
255.445820384
30
0
10
210.627776538
20
255.445820384
30
0
10
211.456214343
20
255.445820384
30
0
10
212.127771113
20
254.774242083
30
0
10
212.127771113
20
253.94582581
30
0
10
212.127771113
20
253.117388005
30
0
10
211.456214343
20
252.445831236
30
0
10
210.627776538
20
252.445831236
30
0
0
SPLINE
5
71
100
AcDbEntity
8
0
6
ByLayer
62
256
370
0
100
AcDbSpline
210
0
220
0
230
1
70
11
71
3
72
17
73
13
74
0
42
1e-07
43
1e-07
40
0
40
0
40
0
40
0
40
0.1
40
0.2
40
0.3
40
0.4
40
0.5
40
0.6
40
0.7
40
0.8
40
0.9
40
1
40
1
40
1
40
1
10
214.377784506
20
89.7458355149
30
0
10
213.549346701
20
89.7458355149
30
0
10
212.8777684
20
90.4174138161
30
0
10
212.8777684
20
91.2458516211
30
0
10
212.8777684
20
92.0742678942
30
0
10
213.549346701
20
92.7458461953
30
0
10
214.377784506
20
92.7458461953
30
0
10
215.206200779
20
92.7458461953
30
0
10
215.87777908
20
92.0742678942
30
0
10
215.87777908
20
91.2458516211
30
0
10
215.87777908
20
90.4174138161
30
0
10
215.206200779
20
89.7458355149
30
0
10
214.377784506
20
89.7458355149
30
0
0
SPLINE
5
72
100
AcDbEntity
8
0
6
ByLayer
62
256
370
0
100
AcDbSpline
210
0
220
0
230
1
70
11
71
3
72
17
73
13
74
0
42
1e-07
43
1e-07
40
0
40
0
40
0
40
0
40
0.1
40
0.2
40
0.3
40
0.4
40
0.5
40
0.6
40
0.7
40
0.8
40
0.9
40
1
40
1
40
1
40
1
10
215.627772807
20
137.945843471
30
0
10
214.799356534
20
137.945843471
30
0
10
214.127778233
20
138.617421773
30
0
10
214.127778233
20
139.445838046
30
0
10
214.127778233
20
140.274275851
30
0
10
214.799356534
20
140.945854152
30
0
10
215.627772807
20
140.945854152
30
0
10
216.456210612
20
140.945854152
30
0
10
217.127767381
20
140.274275851
30
0
10
217.127767381
20
139.445838046
30
0
10
217.127767381
20
138.617421773
30
0
10
216.456210612
20
137.945843471
30
0
10
215.627772807
20
137.945843471
30
0
0
SPLINE
5
73
100
AcDbEntity
8
0
6
ByLayer
62
256
370
0
100
AcDbSpline
210
0
220
0
230
1
70
11
71
3
72
17
73
13
74
0
42
1e-07
43
1e-07
40
0
40
0
40
0
40
0
40
0.1
40
0.2
40
0.3
40
0.4
40
0.5
40
0.6
40
0.7
40
0.8
40
0.9
40
1
40
1
40
1
40
1
10
229.127767039
20
80.145840095
30
0
10
228.299350766
20
80.145840095
30
0
10
227.627772465
20
80.8174183961
30
0
10
227.627772465
20
81.6458346693
30
0
10
227.627772465
20
82.4742724742
30
0
10
228.299350766
20
83.1458507754
30
0
10
229.127767039
20
83.1458507754
30
0
10
229.956204844
20
83.1458507754
30
0
10
230.627783145
20
82.4742724742
30
0
10
230.627783145
20
81.6458346693
30
0
10
230.627783145
20
80.8174183961
30
0
10
229.956204844
20
80.145840095
30
0
10
229.127767039
20
80.145840095
30
0
0
SPLINE
5
74
100
AcDbEntity
8
0
6
ByLayer
62
256
370
0
100
AcDbSpline
210
0
220
0
230
1
70
11
71
3
72
17
73
13
74
0
42
1e-07
43
1e-07
40
0
40
0
40
0
40
0
40
0.1
40
0.2
40
0.3
40
0.4
40
0.5
40
0.6
40
0.7
40
0.8
40
0.9
40
1
40
1
40
1
40
1
10
229.127767039
20
159.145841432
30
0
10
228.299350766
20
159.145841432
30
0
10
227.627772465
20
159.817419733
30
0
10
227.627772465
20
160.645836006
30
0
10
227.627772465
20
161.474273811
30
0
10
228.299350766
20
162.145852112
30
0
10
229.127767039
20
162.145852112
30
0
10
229.956204844
20
162.145852112
30
0
10
230.627783145
20
161.474273811
30
0
10
230.627783145
20
160.645836006
30
0
10
230.627783145
20
159.817419733
30
0
10
229.956204844
20
159.145841432
30
0
10
229.127767039
20
159.145841432
30
0
0
DIMENSION
5
75
100
AcDbEntity
8
0
6
ByLayer
62
256
370
-1
100
AcDbDimension
2
*D1
10
236.452143695
20
0
30
0
11
105.496481339
21
0
31
0
70
32
71
5
3
Standard
53
0
210
0
220
0
230
1
100
AcDbAlignedDimension
13
-25.459181017
23
0
33
0
14
236.452143695
24
0
34
0
100
AcDbRotatedDimension
0
DIMENSION
5
76
100
AcDbEntity
8
0
6
ByLayer
62
256
370
-1
100
AcDbDimension
2
*D2
10
-26.4139003051
20
1.808983613e-16
30
0
11
36.4384528306
21
1.808983613e-16
31
0
70
32
71
5
3
Standard
53
0
210
0
220
0
230
1
100
AcDbAlignedDimension
13
99.2908059662
23
0
33
0
14
-26.4139003051
24
0
34
0
100
AcDbRotatedDimension
0
ENDSEC
0
SECTION
2
OBJECTS
0
DICTIONARY
5
C
330
0
100
AcDbDictionary
281
1
3
ACAD_GROUP
350
D
0
DICTIONARY
5
D
330
C
100
AcDbDictionary
281
1
0
ENDSEC
0
EOF
