  0
SECTION
  2
HEADER
  9
$ACADVER
  1
AC1024
  9
$ACADMAINTVER
 70
     6
  9
$DWGCODEPAGE
  3
ANSI_1252
  9
$INSBASE
 10
0.0
 20
0.0
 30
0.0
  9
$EXTMIN
 10
1.000000000000000E+20
 20
1.000000000000000E+20
 30
1.000000000000000E+20
  9
$EXTMAX
 10
-1.000000000000000E+20
 20
-1.000000000000000E+20
 30
-1.000000000000000E+20
  9
$LIMMIN
 10
0.0
 20
0.0
  9
$LIMMAX
 10
12.0
 20
9.0
  9
$ORTHOMODE
 70
     0
  9
$REGENMODE
 70
     1
  9
$FILLMODE
 70
     1
  9
$QTEXTMODE
 70
     0
  9
$MIRRTEXT
 70
     1
  9
$LTSCALE
 40
1.0
  9
$ATTMODE
 70
     1
  9
$TEXTSIZE
 40
0.2
  9
$TRACEWID
 40
0.05
  9
$TEXTSTYLE
  7
Standard
  9
$CLAYER
  8
0
  9
$CELTYPE
  6
ByLayer
  9
$CECOLOR
 62
   256
  9
$CELTSCALE
 40
1.0
  9
$DISPSILH
 70
     0
  9
$DIMSCALE
 40
1.0
  9
$DIMASZ
 40
0.18
  9
$DIMEXO
 40
0.0625
  9
$DIMDLI
 40
0.38
  9
$DIMRND
 40
0.0
  9
$DIMDLE
 40
0.0
  9
$DIMEXE
 40
0.18
  9
$DIMTP
 40
0.0
  9
$DIMTM
 40
0.0
  9
$DIMTXT
 40
0.18
  9
$DIMCEN
 40
0.09
  9
$DIMTSZ
 40
0.0
  9
$DIMTOL
 70
     0
  9
$DIMLIM
 70
     0
  9
$DIMTIH
 70
     1
  9
$DIMTOH
 70
     1
  9
$DIMSE1
 70
     0
  9
$DIMSE2
 70
     0
  9
$DIMTAD
 70
     0
  9
$DIMZIN
 70
     0
  9
$DIMBLK
  1

  9
$DIMASO
 70
     1
  9
$DIMSHO
 70
     1
  9
$DIMPOST
  1

  9
$DIMAPOST
  1

  9
$DIMALT
 70
     0
  9
$DIMALTD
 70
     2
  9
$DIMALTF
 40
25.4
  9
$DIMLFAC
 40
1.0
  9
$DIMTOFL
 70
     0
  9
$DIMTVP
 40
0.0
  9
$DIMTIX
 70
     0
  9
$DIMSOXD
 70
     0
  9
$DIMSAH
 70
     0
  9
$DIMBLK1
  1

  9
$DIMBLK2
  1

  9
$DIMSTYLE
  2
Standard
  9
$DIMCLRD
 70
     0
  9
$DIMCLRE
 70
     0
  9
$DIMCLRT
 70
     0
  9
$DIMTFAC
 40
1.0
  9
$DIMGAP
 40
0.09
  9
$DIMJUST
 70
     0
  9
$DIMSD1
 70
     0
  9
$DIMSD2
 70
     0
  9
$DIMTOLJ
 70
     1
  9
$DIMTZIN
 70
     0
  9
$DIMALTZ
 70
     0
  9
$DIMALTTZ
 70
     0
  9
$DIMUPT
 70
     0
  9
$DIMDEC
 70
     4
  9
$DIMTDEC
 70
     4
  9
$DIMALTU
 70
     2
  9
$DIMALTTD
 70
     2
  9
$DIMTXSTY
  7
Standard
  9
$DIMAUNIT
 70
     0
  9
$DIMADEC
 70
     0
  9
$DIMALTRND
 40
0.0
  9
$DIMAZIN
 70
     0
  9
$DIMDSEP
 70
    46
  9
$DIMATFIT
 70
     3
  9
$DIMFRAC
 70
     0
  9
$DIMLDRBLK
  1

  9
$DIMLUNIT
 70
     2
  9
$DIMLWD
 70
    -2
  9
$DIMLWE
 70
    -2
  9
$DIMTMOVE
 70
     0
  9
$DIMFXL
 40
1.0
  9
$DIMFXLON
 70
     0
  9
$DIMJOGANG
 40
0.7853981633974483
  9
$DIMTFILL
 70
     0
  9
$DIMTFILLCLR
 70
     0
  9
$DIMARCSYM
 70
     0
  9
$DIMLTYPE
  6

  9
$DIMLTEX1
  6

  9
$DIMLTEX2
  6

  9
$DIMTXTDIRECTION
 70
     0
  9
$LUNITS
 70
     2
  9
$LUPREC
 70
     4
  9
$SKETCHINC
 40
0.1
  9
$FILLETRAD
 40
0.5
  9
$AUNITS
 70
     0
  9
$AUPREC
 70
     0
  9
$MENU
  1
.
  9
$ELEVATION
 40
0.0
  9
$PELEVATION
 40
0.0
  9
$THICKNESS
 40
0.0
  9
$LIMCHECK
 70
     0
  9
$CHAMFERA
 40
0.5
  9
$CHAMFERB
 40
0.5
  9
$CHAMFERC
 40
1.0
  9
$CHAMFERD
 40
0.0
  9
$SKPOLY
 70
     0
  9
$TDCREATE
 40
2457058.722546736
  9
$TDUCREATE
 40
2457058.680880069
  9
$TDUPDATE
 40
2457058.722546794
  9
$TDUUPDATE
 40
2457058.680880127
  9
$TDINDWG
 40
0.0000000116
  9
$TDUSRTIMER
 40
0.0000000116
  9
$USRTIMER
 70
     1
  9
$ANGBASE
 50
0.0
  9
$ANGDIR
 70
     0
  9
$PDMODE
 70
     0
  9
$PDSIZE
 40
0.0
  9
$PLINEWID
 40
0.0
  9
$SPLFRAME
 70
     0
  9
$SPLINETYPE
 70
     6
  9
$SPLINESEGS
 70
     8
  9
$HANDSEED
  5
5E
  9
$SURFTAB1
 70
     6
  9
$SURFTAB2
 70
     6
  9
$SURFTYPE
 70
     6
  9
$SURFU
 70
     6
  9
$SURFV
 70
     6
  9
$UCSBASE
  2

  9
$UCSNAME
  2

  9
$UCSORG
 10
0.0
 20
0.0
 30
0.0
  9
$UCSXDIR
 10
1.0
 20
0.0
 30
0.0
  9
$UCSYDIR
 10
0.0
 20
1.0
 30
0.0
  9
$UCSORTHOREF
  2

  9
$UCSORTHOVIEW
 70
     0
  9
$UCSORGTOP
 10
0.0
 20
0.0
 30
0.0
  9
$UCSORGBOTTOM
 10
0.0
 20
0.0
 30
0.0
  9
$UCSORGLEFT
 10
0.0
 20
0.0
 30
0.0
  9
$UCSORGRIGHT
 10
0.0
 20
0.0
 30
0.0
  9
$UCSORGFRONT
 10
0.0
 20
0.0
 30
0.0
  9
$UCSORGBACK
 10
0.0
 20
0.0
 30
0.0
  9
$PUCSBASE
  2

  9
$PUCSNAME
  2

  9
$PUCSORG
 10
0.0
 20
0.0
 30
0.0
  9
$PUCSXDIR
 10
1.0
 20
0.0
 30
0.0
  9
$PUCSYDIR
 10
0.0
 20
1.0
 30
0.0
  9
$PUCSORTHOREF
  2

  9
$PUCSORTHOVIEW
 70
     0
  9
$PUCSORGTOP
 10
0.0
 20
0.0
 30
0.0
  9
$PUCSORGBOTTOM
 10
0.0
 20
0.0
 30
0.0
  9
$PUCSORGLEFT
 10
0.0
 20
0.0
 30
0.0
  9
$PUCSORGRIGHT
 10
0.0
 20
0.0
 30
0.0
  9
$PUCSORGFRONT
 10
0.0
 20
0.0
 30
0.0
  9
$PUCSORGBACK
 10
0.0
 20
0.0
 30
0.0
  9
$USERI1
 70
     0
  9
$USERI2
 70
     0
  9
$USERI3
 70
     0
  9
$USERI4
 70
     0
  9
$USERI5
 70
     0
  9
$USERR1
 40
0.0
  9
$USERR2
 40
0.0
  9
$USERR3
 40
0.0
  9
$USERR4
 40
0.0
  9
$USERR5
 40
0.0
  9
$WORLDVIEW
 70
     1
  9
$SHADEDGE
 70
     3
  9
$SHADEDIF
 70
    70
  9
$TILEMODE
 70
     1
  9
$MAXACTVP
 70
    64
  9
$PINSBASE
 10
0.0
 20
0.0
 30
0.0
  9
$PLIMCHECK
 70
     0
  9
$PEXTMIN
 10
1.000000000000000E+20
 20
1.000000000000000E+20
 30
1.000000000000000E+20
  9
$PEXTMAX
 10
-1.000000000000000E+20
 20
-1.000000000000000E+20
 30
-1.000000000000000E+20
  9
$PLIMMIN
 10
0.0
 20
0.0
  9
$PLIMMAX
 10
12.0
 20
9.0
  9
$UNITMODE
 70
     0
  9
$VISRETAIN
 70
     1
  9
$PLINEGEN
 70
     0
  9
$PSLTSCALE
 70
     1
  9
$TREEDEPTH
 70
  3020
  9
$CMLSTYLE
  2
Standard
  9
$CMLJUST
 70
     0
  9
$CMLSCALE
 40
1.0
  9
$PROXYGRAPHICS
 70
     1
  9
$MEASUREMENT
 70
     0
  9
$CELWEIGHT
370
    -1
  9
$ENDCAPS
280
     0
  9
$JOINSTYLE
280
     0
  9
$LWDISPLAY
290
     1
  9
$INSUNITS
 70
     1
  9
$HYPERLINKBASE
  1

  9
$STYLESHEET
  1

  9
$XEDIT
290
     1
  9
$CEPSNTYPE
380
     0
  9
$PSTYLEMODE
290
     1
  9
$FINGERPRINTGUID
  2
{2FAD79FA-876C-4DB9-9DD9-C928EDCC8CC4}
  9
$VERSIONGUID
  2
{FAEB1C32-E019-11D5-929B-00C0DF256EC4}
  9
$EXTNAMES
290
     1
  9
$PSVPSCALE
 40
0.0
  9
$OLESTARTUP
290
     0
  9
$SORTENTS
280
   127
  9
$INDEXCTL
280
     0
  9
$HIDETEXT
280
     1
  9
$XCLIPFRAME
280
     2
  9
$HALOGAP
280
     0
  9
$OBSCOLOR
 70
   257
  9
$OBSLTYPE
280
     0
  9
$INTERSECTIONDISPLAY
280
     0
  9
$INTERSECTIONCOLOR
 70
   257
  9
$DIMASSOC
280
     2
  9
$PROJECTNAME
  1

  9
$CAMERADISPLAY
290
     0
  9
$LENSLENGTH
 40
50.0
  9
$CAMERAHEIGHT
 40
0.0
  9
$STEPSPERSEC
 40
2.0
  9
$STEPSIZE
 40
6.0
  9
$3DDWFPREC
 40
2.0
  9
$PSOLWIDTH
 40
0.25
  9
$PSOLHEIGHT
 40
4.0
  9
$LOFTANG1
 40
1.570796326794897
  9
$LOFTANG2
 40
1.570796326794897
  9
$LOFTMAG1
 40
0.0
  9
$LOFTMAG2
 40
0.0
  9
$LOFTPARAM
 70
     7
  9
$LOFTNORMALS
280
     1
  9
$LATITUDE
 40
37.795
  9
$LONGITUDE
 40
-122.394
  9
$NORTHDIRECTION
 40
0.0
  9
$TIMEZONE
 70
 -8000
  9
$LIGHTGLYPHDISPLAY
280
     1
  9
$TILEMODELIGHTSYNCH
280
     1
  9
$CMATERIAL
347
3C
  9
$SOLIDHIST
280
     1
  9
$SHOWHIST
280
     1
  9
$DWFFRAME
280
     2
  9
$DGNFRAME
280
     2
  9
$REALWORLDSCALE
290
     1
  9
$INTERFERECOLOR
 62
   256
  9
$CSHADOW
280
     0
  9
$SHADOWPLANELOCATION
 40
0.0
  0
ENDSEC
  0
SECTION
  2
CLASSES
  0
CLASS
  1
ACDBDICTIONARYWDFLT
  2
AcDbDictionaryWithDefault
  3
ObjectDBX Classes
 90
        0
 91
        4
280
     0
281
     0
  0
CLASS
  1
VISUALSTYLE
  2
AcDbVisualStyle
  3
ObjectDBX Classes
 90
     4095
 91
        4
280
     0
281
     0
  0
CLASS
  1
MATERIAL
  2
AcDbMaterial
  3
ObjectDBX Classes
 90
     1153
 91
        4
280
     0
281
     0
  0
CLASS
  1
SUN
  2
AcDbSun
  3
SCENEOE
 90
     1024
 91
        4
280
     0
281
     0
  0
ENDSEC
  0
SECTION
  2
TABLES
  0
TABLE
  2
VPORT
  5
8
330
0
100
AcDbSymbolTable
 70
     1
  0
VPORT
  5
29
330
8
100
AcDbSymbolTableRecord
100
AcDbViewportTableRecord
  2
*Active
 70
     0
 10
0.0
 20
0.0
 11
1.0
 21
1.0
 12
0.0
 22
0.0
 13
0.0
 23
0.0
 14
0.5
 24
0.5
 15
0.5
 25
0.5
 16
0.0
 26
0.0
 36
1.0
 17
105.127777751496
 27
148.6958328879453
 37
0.0
 40
249.499973966402
 41
1.042084362430901
 42
50.0
 43
0.0
 44
0.0
 50
0.0
 51
0.0
 71
     0
 72
   100
 73
     1
 74
     3
 75
     0
 76
     0
 77
     0
 78
     0
281
     0
 65
     1
110
0.0
120
0.0
130
0.0
111
1.0
121
0.0
131
0.0
112
0.0
122
1.0
132
0.0
 79
     0
146
0.0
 60
     3
 61
     5
292
     1
282
     1
141
0.0
142
0.0
 63
   250
361
3F
  0
ENDTAB
  0
TABLE
  2
LTYPE
  5
5
330
0
100
AcDbSymbolTable
 70
     1
  0
LTYPE
  5
14
330
5
100
AcDbSymbolTableRecord
100
AcDbLinetypeTableRecord
  2
ByBlock
 70
     0
  3

 72
    65
 73
     0
 40
0.0
  0
LTYPE
  5
15
330
5
100
AcDbSymbolTableRecord
100
AcDbLinetypeTableRecord
  2
ByLayer
 70
     0
  3

 72
    65
 73
     0
 40
0.0
  0
LTYPE
  5
16
330
5
100
AcDbSymbolTableRecord
100
AcDbLinetypeTableRecord
  2
Continuous
 70
     0
  3
Solid line
 72
    65
 73
     0
 40
0.0
  0
ENDTAB
  0
TABLE
  2
LAYER
  5
2
330
0
100
AcDbSymbolTable
 70
     1
  0
LAYER
  5
10
330
2
100
AcDbSymbolTableRecord
100
AcDbLayerTableRecord
  2
0
 70
     0
 62
     7
  6
Continuous
370
    -3
390
F
347
3E
  0
ENDTAB
  0
TABLE
  2
STYLE
  5
3
330
0
100
AcDbSymbolTable
 70
     1
  0
STYLE
  5
11
330
3
100
AcDbSymbolTableRecord
100
AcDbTextStyleTableRecord
  2
Standard
 70
     0
 40
0.0
 41
1.0
 50
0.0
 71
     0
 42
0.2
  3
txt
  4

  0
ENDTAB
  0
TABLE
  2
VIEW
  5
6
330
0
100
AcDbSymbolTable
 70
     0
  0
ENDTAB
  0
TABLE
  2
UCS
  5
7
330
0
100
AcDbSymbolTable
 70
     0
  0
ENDTAB
  0
TABLE
  2
APPID
  5
9
330
0
100
AcDbSymbolTable
 70
     1
  0
APPID
  5
12
330
9
100
AcDbSymbolTableRecord
100
AcDbRegAppTableRecord
  2
ACAD
 70
     0
  0
ENDTAB
  0
TABLE
  2
DIMSTYLE
  5
A
330
0
100
AcDbSymbolTable
 70
     1
100
AcDbDimStyleTable
  0
DIMSTYLE
105
27
330
A
100
AcDbSymbolTableRecord
100
AcDbDimStyleTableRecord
  2
Standard
 70
     0
178
     0
340
11
  0
ENDTAB
  0
TABLE
  2
BLOCK_RECORD
  5
1
330
0
100
AcDbSymbolTable
 70
     1
  0
BLOCK_RECORD
  5
1F
330
1
100
AcDbSymbolTableRecord
100
AcDbBlockTableRecord
  2
*Model_Space
340
22
 70
     0
280
     1
281
     0
  0
BLOCK_RECORD
  5
1B
330
1
100
AcDbSymbolTableRecord
100
AcDbBlockTableRecord
  2
*Paper_Space
340
1E
 70
     0
280
     1
281
     0
  0
BLOCK_RECORD
  5
23
330
1
100
AcDbSymbolTableRecord
100
AcDbBlockTableRecord
  2
*Paper_Space0
340
26
 70
     0
280
     1
281
     0
  0
ENDTAB
  0
ENDSEC
  0
SECTION
  2
BLOCKS
  0
BLOCK
  5
20
330
1F
100
AcDbEntity
  8
0
100
AcDbBlockBegin
  2
*Model_Space
 70
     0
 10
0.0
 20
0.0
 30
0.0
  3
*Model_Space
  1

  0
ENDBLK
  5
21
330
1F
100
AcDbEntity
  8
0
100
AcDbBlockEnd
  0
BLOCK
  5
1C
330
1B
100
AcDbEntity
 67
     1
  8
0
100
AcDbBlockBegin
  2
*Paper_Space
 70
     0
 10
0.0
 20
0.0
 30
0.0
  3
*Paper_Space
  1

  0
ENDBLK
  5
1D
330
1B
100
AcDbEntity
 67
     1
  8
0
100
AcDbBlockEnd
  0
BLOCK
  5
24
330
23
100
AcDbEntity
  8
0
100
AcDbBlockBegin
  2
*Paper_Space0
 70
     0
 10
0.0
 20
0.0
 30
0.0
  3
*Paper_Space0
  1

  0
ENDBLK
  5
25
330
23
100
AcDbEntity
  8
0
100
AcDbBlockEnd
  0
ENDSEC
  0
SECTION
  2
ENTITIES
  0
SPLINE
  5
40
330
1F
100
AcDbEntity
  8
0
370
     0
100
AcDbSpline
210
0.0
220
0.0
230
1.0
 70
    11
 71
     3
 72
    32
 73
    28
 74
     0
 42
0.0000000001
 43
0.0000000001
 12
1.0
 22
0.0
 32
0.0
 13
1.0
 23
0.0
 33
0.0
 40
0.0
 40
0.0
 40
0.0
 40
0.0
 40
1.0
 40
1.0
 40
1.0
 40
2.0
 40
2.0
 40
2.0
 40
3.0
 40
3.0
 40
3.0
 40
4.0
 40
4.0
 40
4.0
 40
5.0
 40
5.0
 40
5.0
 40
6.0
 40
6.0
 40
6.0
 40
7.0
 40
7.0
 40
7.0
 40
8.0
 40
8.0
 40
8.0
 40
9.0
 40
9.0
 40
9.0
 40
9.0
 10
215.1277817930062
 20
273.4458198711459
 30
0.0
 10
215.1277817930062
 20
273.4458198711459
 30
0.0
 10
-4.872226290014583
 20
273.4458198711459
 30
0.0
 10
-4.872226290014583
 20
273.4458198711459
 30
0.0
 10
-15.91791296666939
 20
273.4458198711459
 30
0.0
 10
-24.87221136530973
 20
264.4915214725056
 30
0.0
 10
-24.87223289715651
 20
253.4458347958508
 30
0.0
 10
-24.87223289715651
 20
253.4458347958508
 30
0.0
 10
-24.87223289715651
 20
43.94583179646797
 30
0.0
 10
-24.87223289715651
 20
43.94583179646797
 30
0.0
 10
-24.87221136530973
 20
32.90236290003179
 30
0.0
 10
-15.92135806215464
 20
23.94896883895634
 30
0.0
 10
-4.877867633871679
 20
23.94584672117283
 30
0.0
 10
-4.877867633871679
 20
23.94584672117283
 30
0.0
 10
215.1221189173024
 20
23.94584672117283
 30
0.0
 10
215.1221189173024
 20
23.94584672117283
 30
0.0
 10
226.167827125804
 20
23.94272460338932
 30
0.0
 10
235.1246447505179
 20
32.89450377595606
 30
0.0
 10
235.1277668683014
 20
43.94019045261088
 30
0.0
 10
235.1277668683014
 20
43.94206372328098
 30
0.0
 10
235.1277884001482
 20
43.94395852579787
 30
0.0
 10
235.1277884001482
 20
43.94583179646797
 30
0.0
 10
235.1277884001482
 20
43.94583179646797
 30
0.0
 10
235.1277884001482
 20
253.4458347958508
 30
0.0
 10
235.1277884001482
 20
253.4458347958508
 30
0.0
 10
235.1277668683014
 20
264.4915214725056
 30
0.0
 10
226.1734684696611
 20
273.4458198711459
 30
0.0
 10
215.1277817930062
 20
273.4458198711459
 30
0.0
  0
SPLINE
  5
41
330
1F
100
AcDbEntity
  8
0
370
     0
100
AcDbSpline
210
0.0
220
0.0
230
1.0
 70
    11
 71
     3
 72
    17
 73
    13
 74
     0
 42
0.0000000001
 43
0.0000000001
 12
1.0
 22
0.0
 32
0.0
 13
1.0
 23
0.0
 33
0.0
 40
0.0
 40
0.0
 40
0.0
 40
0.0
 40
1.0
 40
1.0
 40
1.0
 40
2.0
 40
2.0
 40
2.0
 40
3.0
 40
3.0
 40
3.0
 40
4.0
 40
4.0
 40
4.0
 40
4.0
 10
0.6277825247996516
 20
255.4458203842722
 30
0.0
 10
1.456198797921541
 20
255.4458203842722
 30
0.0
 10
2.127777099077431
 20
254.7742420831163
 30
0.0
 10
2.127777099077431
 20
253.9458258099945
 30
0.0
 10
2.127777099077431
 20
253.1173880050258
 30
0.0
 10
1.456198797921541
 20
252.4458312357167
 30
0.0
 10
0.6277825247996516
 20
252.4458312357167
 30
0.0
 10
-0.2006552801690202
 20
252.4458312357167
 30
0.0
 10
-0.8722120494781276
 20
253.1173880050258
 30
0.0
 10
-0.8722120494781276
 20
253.9458258099945
 30
0.0
 10
-0.8722120494781276
 20
254.7742420831163
 30
0.0
 10
-0.2006552801690202
 20
255.4458203842722
 30
0.0
 10
0.6277825247996516
 20
255.4458203842722
 30
0.0
  0
SPLINE
  5
42
330
1F
100
AcDbEntity
  8
0
370
     0
100
AcDbSpline
210
0.0
220
0.0
230
1.0
 70
    11
 71
     3
 72
    17
 73
    13
 74
     0
 42
0.0000000001
 43
0.0000000001
 12
1.0
 22
0.0
 32
0.0
 13
1.0
 23
0.0
 33
0.0
 40
0.0
 40
0.0
 40
0.0
 40
0.0
 40
1.0
 40
1.0
 40
1.0
 40
2.0
 40
2.0
 40
2.0
 40
3.0
 40
3.0
 40
3.0
 40
4.0
 40
4.0
 40
4.0
 40
4.0
 10
0.6277825247996516
 20
223.6958203922097
 30
0.0
 10
1.456198797921541
 20
223.6958203922097
 30
0.0
 10
2.127777099077431
 20
223.0242420910538
 30
0.0
 10
2.127777099077431
 20
222.195825817932
 30
0.0
 10
2.127777099077431
 20
221.3673880129633
 30
0.0
 10
1.456198797921541
 20
220.6958312436542
 30
0.0
 10
0.6277825247996516
 20
220.6958312436542
 30
0.0
 10
-0.2006552801690202
 20
220.6958312436542
 30
0.0
 10
-0.8722120494781276
 20
221.3673880129633
 30
0.0
 10
-0.8722120494781276
 20
222.195825817932
 30
0.0
 10
-0.8722120494781276
 20
223.0242420910538
 30
0.0
 10
-0.2006552801690202
 20
223.6958203922097
 30
0.0
 10
0.6277825247996516
 20
223.6958203922097
 30
0.0
  0
SPLINE
  5
43
330
1F
100
AcDbEntity
  8
0
370
     0
100
AcDbSpline
210
0.0
220
0.0
230
1.0
 70
    11
 71
     3
 72
    17
 73
    13
 74
     0
 42
0.0000000001
 43
0.0000000001
 12
1.0
 22
0.0
 32
0.0
 13
1.0
 23
0.0
 33
0.0
 40
0.0
 40
0.0
 40
0.0
 40
0.0
 40
1.0
 40
1.0
 40
1.0
 40
2.0
 40
2.0
 40
2.0
 40
3.0
 40
3.0
 40
3.0
 40
4.0
 40
4.0
 40
4.0
 40
4.0
 10
0.6277825247996516
 20
173.9458209132735
 30
0.0
 10
1.456198797921541
 20
173.9458209132735
 30
0.0
 10
2.127777099077431
 20
173.2742426121176
 30
0.0
 10
2.127777099077431
 20
172.4458263389957
 30
0.0
 10
2.127777099077431
 20
171.6173885340271
 30
0.0
 10
1.456198797921541
 20
170.945831764718
 30
0.0
 10
0.6277825247996516
 20
170.945831764718
 30
0.0
 10
-0.2006552801690202
 20
170.945831764718
 30
0.0
 10
-0.8722120494781276
 20
171.6173885340271
 30
0.0
 10
-0.8722120494781276
 20
172.4458263389957
 30
0.0
 10
-0.8722120494781276
 20
173.2742426121176
 30
0.0
 10
-0.2006552801690202
 20
173.9458209132735
 30
0.0
 10
0.6277825247996516
 20
173.9458209132735
 30
0.0
  0
SPLINE
  5
44
330
1F
100
AcDbEntity
  8
0
370
     0
100
AcDbSpline
210
0.0
220
0.0
230
1.0
 70
    11
 71
     3
 72
    77
 73
    73
 74
     0
 42
0.0000000001
 43
0.0000000001
 12
1.0
 22
0.0
 32
0.0
 13
1.0
 23
0.0
 33
0.0
 40
0.0
 40
0.0
 40
0.0
 40
0.0
 40
1.0
 40
1.0
 40
1.0
 40
2.0
 40
2.0
 40
2.0
 40
3.0
 40
3.0
 40
3.0
 40
4.0
 40
4.0
 40
4.0
 40
5.0
 40
5.0
 40
5.0
 40
6.0
 40
6.0
 40
6.0
 40
7.0
 40
7.0
 40
7.0
 40
8.0
 40
8.0
 40
8.0
 40
9.0
 40
9.0
 40
9.0
 40
10.0
 40
10.0
 40
10.0
 40
11.0
 40
11.0
 40
11.0
 40
12.0
 40
12.0
 40
12.0
 40
13.0
 40
13.0
 40
13.0
 40
14.0
 40
14.0
 40
14.0
 40
15.0
 40
15.0
 40
15.0
 40
16.0
 40
16.0
 40
16.0
 40
17.0
 40
17.0
 40
17.0
 40
18.0
 40
18.0
 40
18.0
 40
19.0
 40
19.0
 40
19.0
 40
20.0
 40
20.0
 40
20.0
 40
21.0
 40
21.0
 40
21.0
 40
22.0
 40
22.0
 40
22.0
 40
23.0
 40
23.0
 40
23.0
 40
24.0
 40
24.0
 40
24.0
 40
24.0
 10
-18.45727131700027
 20
56.33454588435387
 30
0.0
 10
-18.50705294676213
 20
56.44168835394514
 30
0.0
 10
-18.53202988903019
 20
56.53505044159541
 30
0.0
 10
-18.53202988903019
 20
56.61428763775616
 30
0.0
 10
-18.53202988903019
 20
56.74485675664712
 30
0.0
 10
-18.48155924017128
 20
56.85716686946627
 30
0.0
 10
-18.3804456876792
 20
56.95190699531064
 30
0.0
 10
-18.27950438996137
 20
57.04630261160649
 30
0.0
 10
-18.15496418816959
 20
57.09350041975441
 30
0.0
 10
-18.00665282752959
 20
57.09350041975441
 30
0.0
 10
-17.85076225682203
 20
57.09350041975441
 30
0.0
 10
-17.7324232269037
 20
57.04940319754321
 30
0.0
 10
-17.65198024732312
 20
56.96120875312081
 30
0.0
 10
-17.57136501296827
 20
56.87301430869842
 30
0.0
 10
-17.45061441621026
 20
56.69731443895068
 30
0.0
 10
-17.28955620227483
 20
56.43410914387758
 30
0.0
 10
-17.28955620227483
 20
56.43410914387758
 30
0.0
 10
-16.2389743340479
 20
54.72775335003334
 30
0.0
 10
-16.2389743340479
 20
54.72775335003334
 30
0.0
 10
-16.2389743340479
 20
54.72775335003334
 30
0.0
 10
-15.17685139594537
 20
56.43410914387758
 30
0.0
 10
-15.17685139594537
 20
56.43410914387758
 30
0.0
 10
-15.11294487469399
 20
56.53884004662918
 30
0.0
 10
-15.05920138512409
 20
56.62703449105157
 30
0.0
 10
-15.01579318200994
 20
56.69869247714477
 30
0.0
 10
-14.97221272412153
 20
56.77035046323797
 30
0.0
 10
-14.92432589687656
 20
56.83718531565182
 30
0.0
 10
-14.87196044550076
 20
56.89988605348336
 30
0.0
 10
-14.81959499412496
 20
56.96258679131491
 30
0.0
 10
-14.76137288042424
 20
57.01047361855989
 30
0.0
 10
-14.69746635917286
 20
57.04389104476681
 30
0.0
 10
-14.63355983792147
 20
57.07696396142521
 30
0.0
 10
-14.55552842518056
 20
57.09350041975441
 30
0.0
 10
-14.46354437572439
 20
57.09350041975441
 30
0.0
 10
-14.32040065831226
 20
57.09350041975441
 30
0.0
 10
-14.20085584497409
 20
57.04699163070353
 30
0.0
 10
-14.10508219048415
 20
56.95362954305326
 30
0.0
 10
-14.00913628121994
 20
56.86026745540299
 30
0.0
 10
-13.96124945397497
 20
56.75243596671467
 30
0.0
 10
-13.96124945397497
 20
56.62979056743978
 30
0.0
 10
-13.96124945397497
 20
56.52988279836753
 30
0.0
 10
-13.98553737714598
 20
56.43031953884381
 30
0.0
 10
-14.034113223488
 20
56.33041176977157
 30
0.0
 10
-14.08268906983002
 20
56.23084851024785
 30
0.0
 10
-14.16571587102454
 20
56.09270018128933
 30
0.0
 10
-14.28336588184583
 20
55.91631129244453
 30
0.0
 10
-14.28336588184583
 20
55.91631129244453
 30
0.0
 10
-15.69068738757039
 20
53.75761446138699
 30
0.0
 10
-15.69068738757039
 20
53.75761446138699
 30
0.0
 10
-15.69068738757039
 20
53.75761446138699
 30
0.0
 10
-15.69068738757039
 20
51.97443303822167
 30
0.0
 10
-15.69068738757039
 20
51.97443303822167
 30
0.0
 10
-15.69068738757039
 20
51.74188909296731
 30
0.0
 10
-15.74425862236602
 20
51.56825628051072
 30
0.0
 10
-15.85157334673155
 20
51.45319009130337
 30
0.0
 10
-15.95906032587135
 20
51.33812390209603
 30
0.0
 10
-16.09583061663577
 20
51.28059080749235
 30
0.0
 10
-16.26188421902481
 20
51.28059080749235
 30
0.0
 10
-16.43069389780205
 20
51.28059080749235
 30
0.0
 10
-16.56746418856647
 20
51.33743488299898
 30
0.0
 10
-16.67219509131806
 20
51.45112303401222
 30
0.0
 10
-16.77709824884392
 20
51.56481118502547
 30
0.0
 10
-16.82946370021972
 20
51.73947752612764
 30
0.0
 10
-16.82946370021972
 20
51.97443303822167
 30
0.0
 10
-16.82946370021972
 20
51.97443303822167
 30
0.0
 10
-16.82946370021972
 20
53.75761446138699
 30
0.0
 10
-16.82946370021972
 20
53.75761446138699
 30
0.0
 10
-16.82946370021972
 20
53.75761446138699
 30
0.0
 10
-18.20216199631752
 20
55.88564994262581
 30
0.0
 10
-18.20216199631752
 20
55.88564994262581
 30
0.0
 10
-18.32239582875274
 20
56.07754176115423
 30
0.0
 10
-18.40731743246414
 20
56.22705890521407
 30
0.0
 10
-18.45727131700027
 20
56.33454588435387
 30
0.0
  0
SPLINE
  5
45
330
1F
100
AcDbEntity
  8
0
370
     0
100
AcDbSpline
210
0.0
220
0.0
230
1.0
 70
    11
 71
     3
 72
    65
 73
    61
 74
     0
 42
0.0000000001
 43
0.0000000001
 12
1.0
 22
0.0
 32
0.0
 13
1.0
 23
0.0
 33
0.0
 40
0.0
 40
0.0
 40
0.0
 40
0.0
 40
1.0
 40
1.0
 40
1.0
 40
2.0
 40
2.0
 40
2.0
 40
3.0
 40
3.0
 40
3.0
 40
4.0
 40
4.0
 40
4.0
 40
5.0
 40
5.0
 40
5.0
 40
6.0
 40
6.0
 40
6.0
 40
7.0
 40
7.0
 40
7.0
 40
8.0
 40
8.0
 40
8.0
 40
9.0
 40
9.0
 40
9.0
 40
10.0
 40
10.0
 40
10.0
 40
11.0
 40
11.0
 40
11.0
 40
12.0
 40
12.0
 40
12.0
 40
13.0
 40
13.0
 40
13.0
 40
14.0
 40
14.0
 40
14.0
 40
15.0
 40
15.0
 40
15.0
 40
16.0
 40
16.0
 40
16.0
 40
17.0
 40
17.0
 40
17.0
 40
18.0
 40
18.0
 40
18.0
 40
19.0
 40
19.0
 40
19.0
 40
20.0
 40
20.0
 40
20.0
 40
20.0
 10
1.871612717902323
 20
35.7287838316711
 30
0.0
 10
1.871612717902323
 20
35.7287838316711
 30
0.0
 10
-3.36852823809016
 20
31.76322054598715
 30
0.0
 10
-3.36852823809016
 20
31.76322054598715
 30
0.0
 10
-3.867205809580074
 20
31.38583186742481
 30
0.0
 10
-4.582472227858289
 20
31.74153797627686
 30
0.0
 10
-4.582472227858289
 20
32.36693046608362
 30
0.0
 10
-4.582472227858289
 20
32.36693046608362
 30
0.0
 10
-4.582472227858289
 20
34.86257916744538
 30
0.0
 10
-4.582472227858289
 20
34.86257916744538
 30
0.0
 10
-4.582472227858289
 20
34.86257916744538
 30
0.0
 10
-13.46072014366173
 20
34.86257916744538
 30
0.0
 10
-13.46072014366173
 20
34.86257916744538
 30
0.0
 10
-13.60776112534155
 20
34.86257916744538
 30
0.0
 10
-13.74063415183828
 20
34.92271761550978
 30
0.0
 10
-13.83653699740892
 20
35.01954633049208
 30
0.0
 10
-13.93336571239123
 20
35.11544917606272
 30
0.0
 10
-13.99350416045562
 20
35.24832220255945
 30
0.0
 10
-13.99350416045562
 20
35.39536318423927
 30
0.0
 10
-13.99350416045562
 20
35.39536318423927
 30
0.0
 10
-13.99350416045562
 20
44.27361110004271
 30
0.0
 10
-13.99350416045562
 20
44.27361110004271
 30
0.0
 10
-13.99350416045562
 20
44.27361110004271
 30
0.0
 10
-16.37156744653645
 20
44.27361110004271
 30
0.0
 10
-16.37156744653645
 20
44.27361110004271
 30
0.0
 10
-16.99695993634321
 20
44.27361110004271
 30
0.0
 10
-17.35266604519525
 20
44.98887751832093
 30
0.0
 10
-16.97527736663292
 20
45.48755508981084
 30
0.0
 10
-16.97527736663292
 20
45.48755508981084
 30
0.0
 10
-13.00971408094896
 20
50.72769604580332
 30
0.0
 10
-13.00971408094896
 20
50.72769604580332
 30
0.0
 10
-12.70678252856159
 20
51.12799460934257
 30
0.0
 10
-12.10524732499018
 20
51.12799460934257
 30
0.0
 10
-11.80231577260281
 20
50.72769604580332
 30
0.0
 10
-11.80231577260281
 20
50.72769604580332
 30
0.0
 10
-7.836752486918851
 20
45.48755508981084
 30
0.0
 10
-7.836752486918851
 20
45.48755508981084
 30
0.0
 10
-7.459363808356514
 20
44.98887751832093
 30
0.0
 10
-7.815069917208559
 20
44.27361110004271
 30
0.0
 10
-8.44046240701532
 20
44.27361110004271
 30
0.0
 10
-8.44046240701532
 20
44.27361110004271
 30
0.0
 10
-10.93611110837708
 20
44.27361110004271
 30
0.0
 10
-10.93611110837708
 20
44.27361110004271
 30
0.0
 10
-10.93611110837708
 20
44.27361110004271
 30
0.0
 10
-10.93611110837708
 20
37.91997221952391
 30
0.0
 10
-10.93611110837708
 20
37.91997221952391
 30
0.0
 10
-10.93611110837708
 20
37.91997221952391
 30
0.0
 10
-4.582472227858289
 20
37.91997221952391
 30
0.0
 10
-4.582472227858289
 20
37.91997221952391
 30
0.0
 10
-4.582472227858289
 20
37.91997221952391
 30
0.0
 10
-4.582472227858289
 20
40.29803550560474
 30
0.0
 10
-4.582472227858289
 20
40.29803550560474
 30
0.0
 10
-4.582472227858289
 20
40.92342799541151
 30
0.0
 10
-3.867205809580074
 20
41.27913410426356
 30
0.0
 10
-3.36852823809016
 20
40.90174542570121
 30
0.0
 10
-3.36852823809016
 20
40.90174542570121
 30
0.0
 10
1.871612717902323
 20
36.93618214001726
 30
0.0
 10
1.871612717902323
 20
36.93618214001726
 30
0.0
 10
2.271911281441571
 20
36.63325058762988
 30
0.0
 10
2.271911281441571
 20
36.03171538405848
 30
0.0
 10
1.871612717902323
 20
35.7287838316711
 30
0.0
  0
SPLINE
  5
46
330
1F
100
AcDbEntity
  8
0
370
     0
100
AcDbSpline
210
0.0
220
0.0
230
1.0
 70
    11
 71
     3
 72
   113
 73
   109
 74
     0
 42
0.0000000001
 43
0.0000000001
 12
1.0
 22
0.0
 32
0.0
 13
1.0
 23
0.0
 33
0.0
 40
0.0
 40
0.0
 40
0.0
 40
0.0
 40
1.0
 40
1.0
 40
1.0
 40
2.0
 40
2.0
 40
2.0
 40
3.0
 40
3.0
 40
3.0
 40
4.0
 40
4.0
 40
4.0
 40
5.0
 40
5.0
 40
5.0
 40
6.0
 40
6.0
 40
6.0
 40
7.0
 40
7.0
 40
7.0
 40
8.0
 40
8.0
 40
8.0
 40
9.0
 40
9.0
 40
9.0
 40
10.0
 40
10.0
 40
10.0
 40
11.0
 40
11.0
 40
11.0
 40
12.0
 40
12.0
 40
12.0
 40
13.0
 40
13.0
 40
13.0
 40
14.0
 40
14.0
 40
14.0
 40
15.0
 40
15.0
 40
15.0
 40
16.0
 40
16.0
 40
16.0
 40
17.0
 40
17.0
 40
17.0
 40
18.0
 40
18.0
 40
18.0
 40
19.0
 40
19.0
 40
19.0
 40
20.0
 40
20.0
 40
20.0
 40
21.0
 40
21.0
 40
21.0
 40
22.0
 40
22.0
 40
22.0
 40
23.0
 40
23.0
 40
23.0
 40
24.0
 40
24.0
 40
24.0
 40
25.0
 40
25.0
 40
25.0
 40
26.0
 40
26.0
 40
26.0
 40
27.0
 40
27.0
 40
27.0
 40
28.0
 40
28.0
 40
28.0
 40
29.0
 40
29.0
 40
29.0
 40
30.0
 40
30.0
 40
30.0
 40
31.0
 40
31.0
 40
31.0
 40
32.0
 40
32.0
 40
32.0
 40
33.0
 40
33.0
 40
33.0
 40
34.0
 40
34.0
 40
34.0
 40
35.0
 40
35.0
 40
35.0
 40
36.0
 40
36.0
 40
36.0
 40
36.0
 10
6.986998153635195
 20
28.24943846950014
 30
0.0
 10
6.943417695746785
 20
28.17536891656727
 30
0.0
 10
6.882094996109338
 20
28.1164577837695
 30
0.0
 10
6.802857799948591
 20
28.07304958065535
 30
0.0
 10
6.723620603787845
 20
28.0296413775412
 30
0.0
 10
6.634220375945612
 20
28.00793727598413
 30
0.0
 10
6.534484861647629
 20
28.00793727598413
 30
0.0
 10
6.427170137282097
 20
28.00793727598413
 30
0.0
 10
6.336391871245763
 20
28.03033039663825
 30
0.0
 10
6.262322318312892
 20
28.0751166379465
 30
0.0
 10
6.188080510605758
 20
28.11955836970622
 30
0.0
 10
6.128135849162411
 20
28.17536891656727
 30
0.0
 10
6.081971569660063
 20
28.24185925943259
 30
0.0
 10
6.035979544931978
 20
28.30834960229791
 30
0.0
 10
5.950368922123519
 20
28.43719617344626
 30
0.0
 10
5.825139701234687
 20
28.62908799197468
 30
0.0
 10
5.825139701234687
 20
28.62908799197468
 30
0.0
 10
4.835880532645197
 20
30.18592664175907
 30
0.0
 10
4.835880532645197
 20
30.18592664175907
 30
0.0
 10
4.835880532645197
 20
30.18592664175907
 30
0.0
 10
3.785126409643996
 20
28.58292371247233
 30
0.0
 10
3.785126409643996
 20
28.58292371247233
 30
0.0
 10
3.703305391869313
 20
28.45511066996956
 30
0.0
 10
3.645255532942853
 20
28.36588269690159
 30
0.0
 10
3.610632323316092
 20
28.31455077417136
 30
0.0
 10
3.576181368463594
 20
28.26356336098966
 30
0.0
 10
3.534667967866333
 20
28.21360947645354
 30
0.0
 10
3.48609212152431
 20
28.16503363011152
 30
0.0
 10
3.437516275182288
 20
28.1164577837695
 30
0.0
 10
3.379983180578615
 20
28.07821722388323
 30
0.0
 10
3.313492837713294
 20
28.04996744090418
 30
0.0
 10
3.247002494847972
 20
28.02206216747365
 30
0.0
 10
3.169143336881326
 20
28.00793727598413
 30
0.0
 10
3.079570854264829
 20
28.00793727598413
 30
0.0
 10
2.941594780080574
 20
28.00793727598413
 30
0.0
 10
2.827045355196017
 20
28.04996744090418
 30
0.0
 10
2.736439343933946
 20
28.1343722802928
 30
0.0
 10
2.645661077897613
 20
28.21877711968142
 30
0.0
 10
2.600358072266577
 20
28.34142251895631
 30
0.0
 10
2.600358072266577
 20
28.502652987666
 30
0.0
 10
2.600358072266577
 20
28.69178872980622
 30
0.0
 10
2.693547905142585
 20
28.92295463686649
 30
0.0
 10
2.880272080443127
 20
29.19649521839532
 30
0.0
 10
2.880272080443127
 20
29.19649521839532
 30
0.0
 10
4.13790418733358
 20
31.03342013113053
 30
0.0
 10
4.13790418733358
 20
31.03342013113053
 30
0.0
 10
4.13790418733358
 20
31.03342013113053
 30
0.0
 10
3.079570854264829
 20
32.66673990068748
 30
0.0
 10
3.079570854264829
 20
32.66673990068748
 30
0.0
 10
2.979835339966847
 20
32.82521429300898
 30
0.0
 10
2.905076767936925
 20
32.96129556467634
 30
0.0
 10
2.855295138175065
 20
33.07532822523812
 30
0.0
 10
2.805513508413205
 20
33.18901637625136
 30
0.0
 10
2.780536566145144
 20
33.29822590313378
 30
0.0
 10
2.780536566145144
 20
33.40295680588537
 30
0.0
 10
2.780536566145144
 20
33.51044378502517
 30
0.0
 10
2.828423393390116
 20
33.60690645861217
 30
0.0
 10
2.924369302654324
 20
33.69268933619488
 30
0.0
 10
3.02014295714427
 20
33.77812770422908
 30
0.0
 10
3.137103948868502
 20
33.82084688824618
 30
0.0
 10
3.275252277827021
 20
33.82084688824618
 30
0.0
 10
3.433726670148513
 20
33.82084688824618
 30
0.0
 10
3.557061088520457
 20
33.7743380991953
 30
0.0
 10
3.645255532942853
 20
33.68097601154503
 30
0.0
 10
3.733449977365249
 20
33.58761392389476
 30
0.0
 10
3.855406357543093
 20
33.41467013053522
 30
0.0
 10
4.011469183024911
 20
33.16145561236936
 30
0.0
 10
4.011469183024911
 20
33.16145561236936
 30
0.0
 10
4.855000812588333
 20
31.79650878111337
 30
0.0
 10
4.855000812588333
 20
31.79650878111337
 30
0.0
 10
4.855000812588333
 20
31.79650878111337
 30
0.0
 10
5.756065536755428
 20
33.16145561236936
 30
0.0
 10
5.756065536755428
 20
33.16145561236936
 30
0.0
 10
5.830307344462562
 20
33.27652180157671
 30
0.0
 10
5.893524846616897
 20
33.37470702290633
 30
0.0
 10
5.945890297992694
 20
33.45670029545527
 30
0.0
 10
5.998255749368492
 20
33.53834905845569
 30
0.0
 10
6.048726398227402
 20
33.60621743951511
 30
0.0
 10
6.097302244569425
 20
33.65996092908501
 30
0.0
 10
6.145878090911447
 20
33.71370441865491
 30
0.0
 10
6.200310599578395
 20
33.75401203583233
 30
0.0
 10
6.260427515796004
 20
33.78088378061728
 30
0.0
 10
6.320372177239352
 20
33.8074110158537
 30
0.0
 10
6.390135360815661
 20
33.82084688824618
 30
0.0
 10
6.469372556976407
 20
33.82084688824618
 30
0.0
 10
6.612516274388538
 20
33.82084688824618
 30
0.0
 10
6.72947726611277
 20
33.77812770422908
 30
0.0
 10
6.820255532149103
 20
33.69268933619488
 30
0.0
 10
6.910861543411174
 20
33.60690645861217
 30
0.0
 10
6.956336803816471
 20
33.5052761417973
 30
0.0
 10
6.956336803816471
 20
33.38779838575027
 30
0.0
 10
6.956336803816471
 20
33.21623263058483
 30
0.0
 10
6.857807072938327
 20
32.98368868533047
 30
0.0
 10
6.661092120730561
 20
32.68982204043866
 30
0.0
 10
6.661092120730561
 20
32.68982204043866
 30
0.0
 10
5.552804903125688
 20
31.03342013113053
 30
0.0
 10
5.552804903125688
 20
31.03342013113053
 30
0.0
 10
5.552804903125688
 20
31.03342013113053
 30
0.0
 10
6.745496960119182
 20
29.19649521839532
 30
0.0
 10
6.745496960119182
 20
29.19649521839532
 30
0.0
 10
6.852811684484714
 20
29.03560925923415
 30
0.0
 10
6.93067084245136
 20
28.90193955440646
 30
0.0
 10
6.979246688793383
 20
28.79583061346077
 30
0.0
 10
7.027822535135406
 20
28.68972167251507
 30
0.0
 10
7.052110458306418
 20
28.5894693938943
 30
0.0
 10
7.052110458306418
 20
28.49472926804993
 30
0.0
 10
7.052110458306418
 20
28.40515678543343
 30
0.0
 10
7.030406356749343
 20
28.32350802243301
 30
0.0
 10
6.986998153635195
 20
28.24943846950014
 30
0.0
  0
SPLINE
  5
47
330
1F
100
AcDbEntity
  8
0
370
     0
100
AcDbSpline
210
0.0
220
0.0
230
1.0
 70
    11
 71
     3
 72
    17
 73
    13
 74
     0
 42
0.0000000001
 43
0.0000000001
 12
1.0
 22
0.0
 32
0.0
 13
1.0
 23
0.0
 33
0.0
 40
0.0
 40
0.0
 40
0.0
 40
0.0
 40
1.0
 40
1.0
 40
1.0
 40
2.0
 40
2.0
 40
2.0
 40
3.0
 40
3.0
 40
3.0
 40
4.0
 40
4.0
 40
4.0
 40
4.0
 10
7.872129311183009
 20
38.42084603938567
 30
0.0
 10
7.043691506214338
 20
38.42084603938567
 30
0.0
 10
6.372113205058447
 20
39.09242434054156
 30
0.0
 10
6.372113205058447
 20
39.92084061366346
 30
0.0
 10
6.372113205058447
 20
40.74927841863213
 30
0.0
 10
7.043691506214338
 20
41.42085671978802
 30
0.0
 10
7.872129311183009
 20
41.42085671978802
 30
0.0
 10
8.7005455843049
 20
41.42085671978802
 30
0.0
 10
9.37212388546079
 20
40.74927841863213
 30
0.0
 10
9.37212388546079
 20
39.92084061366346
 30
0.0
 10
9.37212388546079
 20
39.09242434054156
 30
0.0
 10
8.7005455843049
 20
38.42084603938567
 30
0.0
 10
7.872129311183009
 20
38.42084603938567
 30
0.0
  0
SPLINE
  5
48
330
1F
100
AcDbEntity
  8
0
370
     0
100
AcDbSpline
210
0.0
220
0.0
230
1.0
 70
    11
 71
     3
 72
    17
 73
    13
 74
     0
 42
0.0000000001
 43
0.0000000001
 12
1.0
 22
0.0
 32
0.0
 13
1.0
 23
0.0
 33
0.0
 40
0.0
 40
0.0
 40
0.0
 40
0.0
 40
1.0
 40
1.0
 40
1.0
 40
2.0
 40
2.0
 40
2.0
 40
3.0
 40
3.0
 40
3.0
 40
4.0
 40
4.0
 40
4.0
 40
4.0
 10
27.74712201590393
 20
49.92085468315781
 30
0.0
 10
26.91870574278204
 20
49.92085468315781
 30
0.0
 10
26.24712744162616
 20
50.59241145246692
 30
0.0
 10
26.24712744162616
 20
51.42084925743559
 30
0.0
 10
26.24712744162616
 20
52.24926553055748
 30
0.0
 10
26.91870574278204
 20
52.92084383171337
 30
0.0
 10
27.74712201590393
 20
52.92084383171337
 30
0.0
 10
28.57555982087261
 20
52.92084383171337
 30
0.0
 10
29.24711659018171
 20
52.24926553055748
 30
0.0
 10
29.24711659018171
 20
51.42084925743559
 30
0.0
 10
29.24711659018171
 20
50.59241145246692
 30
0.0
 10
28.57555982087261
 20
49.92085468315781
 30
0.0
 10
27.74712201590393
 20
49.92085468315781
 30
0.0
  0
SPLINE
  5
49
330
1F
100
AcDbEntity
  8
0
370
     0
100
AcDbSpline
210
0.0
220
0.0
230
1.0
 70
    11
 71
     3
 72
    17
 73
    13
 74
     0
 42
0.0000000001
 43
0.0000000001
 12
1.0
 22
0.0
 32
0.0
 13
1.0
 23
0.0
 33
0.0
 40
0.0
 40
0.0
 40
0.0
 40
0.0
 40
1.0
 40
1.0
 40
1.0
 40
2.0
 40
2.0
 40
2.0
 40
3.0
 40
3.0
 40
3.0
 40
4.0
 40
4.0
 40
4.0
 40
4.0
 10
36.67211557107286
 20
66.02084094622266
 30
0.0
 10
35.84369929795097
 20
66.02084094622266
 30
0.0
 10
35.17212099679508
 20
66.69241924737855
 30
0.0
 10
35.17212099679508
 20
67.52083552050044
 30
0.0
 10
35.17212099679508
 20
68.34927332546911
 30
0.0
 10
35.84369929795097
 20
69.020851626625
 30
0.0
 10
36.67211557107286
 20
69.020851626625
 30
0.0
 10
37.50055337604153
 20
69.020851626625
 30
0.0
 10
38.17213167719742
 20
68.34927332546911
 30
0.0
 10
38.17213167719742
 20
67.52083552050044
 30
0.0
 10
38.17213167719742
 20
66.69241924737855
 30
0.0
 10
37.50055337604153
 20
66.02084094622266
 30
0.0
 10
36.67211557107286
 20
66.02084094622266
 30
0.0
  0
SPLINE
  5
4A
330
1F
100
AcDbEntity
  8
0
370
     0
100
AcDbSpline
210
0.0
220
0.0
230
1.0
 70
    11
 71
     3
 72
    17
 73
    13
 74
     0
 42
0.0000000001
 43
0.0000000001
 12
1.0
 22
0.0
 32
0.0
 13
1.0
 23
0.0
 33
0.0
 40
0.0
 40
0.0
 40
0.0
 40
0.0
 40
1.0
 40
1.0
 40
1.0
 40
2.0
 40
2.0
 40
2.0
 40
3.0
 40
3.0
 40
3.0
 40
4.0
 40
4.0
 40
4.0
 40
4.0
 10
47.62211472062486
 20
38.42084603938567
 30
0.0
 10
46.79369844750297
 20
38.42084603938567
 30
0.0
 10
46.12212014634708
 20
39.09242434054156
 30
0.0
 10
46.12212014634708
 20
39.92084061366346
 30
0.0
 10
46.12212014634708
 20
40.74927841863213
 30
0.0
 10
46.79369844750297
 20
41.42085671978802
 30
0.0
 10
47.62211472062486
 20
41.42085671978802
 30
0.0
 10
48.45055252559353
 20
41.42085671978802
 30
0.0
 10
49.12213082674942
 20
40.74927841863213
 30
0.0
 10
49.12213082674942
 20
39.92084061366346
 30
0.0
 10
49.12213082674942
 20
39.09242434054156
 30
0.0
 10
48.45055252559353
 20
38.42084603938567
 30
0.0
 10
47.62211472062486
 20
38.42084603938567
 30
0.0
  0
SPLINE
  5
4B
330
1F
100
AcDbEntity
  8
0
370
     0
100
AcDbSpline
210
0.0
220
0.0
230
1.0
 70
    11
 71
     3
 72
    17
 73
    13
 74
     0
 42
0.0000000001
 43
0.0000000001
 12
1.0
 22
0.0
 32
0.0
 13
1.0
 23
0.0
 33
0.0
 40
0.0
 40
0.0
 40
0.0
 40
0.0
 40
1.0
 40
1.0
 40
1.0
 40
2.0
 40
2.0
 40
2.0
 40
3.0
 40
3.0
 40
3.0
 40
4.0
 40
4.0
 40
4.0
 40
4.0
 10
83.12778555593246
 20
214.8208237852705
 30
0.0
 10
82.29934775096379
 20
214.8208237852705
 30
0.0
 10
81.6277694498079
 20
215.4924020864264
 30
0.0
 10
81.6277694498079
 20
216.3208183595483
 30
0.0
 10
81.6277694498079
 20
217.1492561645169
 30
0.0
 10
82.29934775096379
 20
217.8208129338261
 30
0.0
 10
83.12778555593246
 20
217.8208129338261
 30
0.0
 10
83.95620182905435
 20
217.8208129338261
 30
0.0
 10
84.62778013021024
 20
217.1492561645169
 30
0.0
 10
84.62778013021024
 20
216.3208183595483
 30
0.0
 10
84.62778013021024
 20
215.4924020864264
 30
0.0
 10
83.95620182905435
 20
214.8208237852705
 30
0.0
 10
83.12778555593246
 20
214.8208237852705
 30
0.0
  0
SPLINE
  5
4C
330
1F
100
AcDbEntity
  8
0
370
     0
100
AcDbSpline
210
0.0
220
0.0
230
1.0
 70
    11
 71
     3
 72
    17
 73
    13
 74
     0
 42
0.0000000001
 43
0.0000000001
 12
1.0
 22
0.0
 32
0.0
 13
1.0
 23
0.0
 33
0.0
 40
0.0
 40
0.0
 40
0.0
 40
0.0
 40
1.0
 40
1.0
 40
1.0
 40
2.0
 40
2.0
 40
2.0
 40
3.0
 40
3.0
 40
3.0
 40
4.0
 40
4.0
 40
4.0
 40
4.0
 10
105.6277687656395
 20
231.3208286978664
 30
0.0
 10
104.7993524925176
 20
231.3208286978664
 30
0.0
 10
104.1277741913617
 20
231.9923854671755
 30
0.0
 10
104.1277741913617
 20
232.8208232721442
 30
0.0
 10
104.1277741913617
 20
233.6492395452661
 30
0.0
 10
104.7993524925176
 20
234.320817846422
 30
0.0
 10
105.6277687656395
 20
234.320817846422
 30
0.0
 10
106.4562065706082
 20
234.320817846422
 30
0.0
 10
107.1277848717641
 20
233.6492395452661
 30
0.0
 10
107.1277848717641
 20
232.8208232721442
 30
0.0
 10
107.1277848717641
 20
231.9923854671755
 30
0.0
 10
106.4562065706082
 20
231.3208286978664
 30
0.0
 10
105.6277687656395
 20
231.3208286978664
 30
0.0
  0
SPLINE
  5
4D
330
1F
100
AcDbEntity
  8
0
370
     0
100
AcDbSpline
210
0.0
220
0.0
230
1.0
 70
    11
 71
     3
 72
    17
 73
    13
 74
     0
 42
0.0000000001
 43
0.0000000001
 12
1.0
 22
0.0
 32
0.0
 13
1.0
 23
0.0
 33
0.0
 40
0.0
 40
0.0
 40
0.0
 40
0.0
 40
1.0
 40
1.0
 40
1.0
 40
2.0
 40
2.0
 40
2.0
 40
3.0
 40
3.0
 40
3.0
 40
4.0
 40
4.0
 40
4.0
 40
4.0
 10
116.6721204677938
 20
82.52084585881857
 30
0.0
 10
115.8437041946719
 20
82.52084585881857
 30
0.0
 10
115.172125893516
 20
83.19242415997446
 30
0.0
 10
115.172125893516
 20
84.02084043309635
 30
0.0
 10
115.172125893516
 20
84.84927823806503
 30
0.0
 10
115.8437041946719
 20
85.52083500737413
 30
0.0
 10
116.6721204677938
 20
85.52083500737413
 30
0.0
 10
117.5005582727624
 20
85.52083500737413
 30
0.0
 10
118.1721150420716
 20
84.84927823806503
 30
0.0
 10
118.1721150420716
 20
84.02084043309635
 30
0.0
 10
118.1721150420716
 20
83.19242415997446
 30
0.0
 10
117.5005582727624
 20
82.52084585881857
 30
0.0
 10
116.6721204677938
 20
82.52084585881857
 30
0.0
  0
SPLINE
  5
4E
330
1F
100
AcDbEntity
  8
0
370
     0
100
AcDbSpline
210
0.0
220
0.0
230
1.0
 70
    11
 71
     3
 72
    17
 73
    13
 74
     0
 42
0.0000000001
 43
0.0000000001
 12
1.0
 22
0.0
 32
0.0
 13
1.0
 23
0.0
 33
0.0
 40
0.0
 40
0.0
 40
0.0
 40
0.0
 40
1.0
 40
1.0
 40
1.0
 40
2.0
 40
2.0
 40
2.0
 40
3.0
 40
3.0
 40
3.0
 40
4.0
 40
4.0
 40
4.0
 40
4.0
 10
128.1277735071933
 20
217.8208129338261
 30
0.0
 10
128.956211312162
 20
217.8208129338261
 30
0.0
 10
129.6277680814711
 20
217.1492561645169
 30
0.0
 10
129.6277680814711
 20
216.3208183595483
 30
0.0
 10
129.6277680814711
 20
215.4924020864264
 30
0.0
 10
128.956211312162
 20
214.8208237852705
 30
0.0
 10
128.1277735071933
 20
214.8208237852705
 30
0.0
 10
127.2993572340714
 20
214.8208237852705
 30
0.0
 10
126.6277789329155
 20
215.4924020864264
 30
0.0
 10
126.6277789329155
 20
216.3208183595483
 30
0.0
 10
126.6277789329155
 20
217.1492561645169
 30
0.0
 10
127.2993572340714
 20
217.8208129338261
 30
0.0
 10
128.1277735071933
 20
217.8208129338261
 30
0.0
  0
SPLINE
  5
4F
330
1F
100
AcDbEntity
  8
0
370
     0
100
AcDbSpline
210
0.0
220
0.0
230
1.0
 70
    11
 71
     3
 72
    17
 73
    13
 74
     0
 42
0.0000000001
 43
0.0000000001
 12
1.0
 22
0.0
 32
0.0
 13
1.0
 23
0.0
 33
0.0
 40
0.0
 40
0.0
 40
0.0
 40
0.0
 40
1.0
 40
1.0
 40
1.0
 40
2.0
 40
2.0
 40
2.0
 40
3.0
 40
3.0
 40
3.0
 40
4.0
 40
4.0
 40
4.0
 40
4.0
 10
128.1721291115659
 20
66.02084094622266
 30
0.0
 10
127.3436913065972
 20
66.02084094622266
 30
0.0
 10
126.6721130054413
 20
66.69241924737855
 30
0.0
 10
126.6721130054413
 20
67.52083552050044
 30
0.0
 10
126.6721130054413
 20
68.34927332546911
 30
0.0
 10
127.3436913065972
 20
69.020851626625
 30
0.0
 10
128.1721291115659
 20
69.020851626625
 30
0.0
 10
129.0005453846878
 20
69.020851626625
 30
0.0
 10
129.6721236858437
 20
68.34927332546911
 30
0.0
 10
129.6721236858437
 20
67.52083552050044
 30
0.0
 10
129.6721236858437
 20
66.69241924737855
 30
0.0
 10
129.0005453846878
 20
66.02084094622266
 30
0.0
 10
128.1721291115659
 20
66.02084094622266
 30
0.0
  0
SPLINE
  5
50
330
1F
100
AcDbEntity
  8
0
370
     0
100
AcDbSpline
210
0.0
220
0.0
230
1.0
 70
    11
 71
     3
 72
    17
 73
    13
 74
     0
 42
0.0000000001
 43
0.0000000001
 12
1.0
 22
0.0
 32
0.0
 13
1.0
 23
0.0
 33
0.0
 40
0.0
 40
0.0
 40
0.0
 40
0.0
 40
1.0
 40
1.0
 40
1.0
 40
2.0
 40
2.0
 40
2.0
 40
3.0
 40
3.0
 40
3.0
 40
4.0
 40
4.0
 40
4.0
 40
4.0
 10
133.0877851365414
 20
137.9458219395261
 30
0.0
 10
132.2593473315728
 20
137.9458219395261
 30
0.0
 10
131.5877690304169
 20
138.617400240682
 30
0.0
 10
131.5877690304169
 20
139.4458165138039
 30
0.0
 10
131.5877690304169
 20
140.2742543187726
 30
0.0
 10
132.2593473315728
 20
140.9458110880817
 30
0.0
 10
133.0877851365414
 20
140.9458110880817
 30
0.0
 10
133.9162014096633
 20
140.9458110880817
 30
0.0
 10
134.5877797108192
 20
140.2742543187726
 30
0.0
 10
134.5877797108192
 20
139.4458165138039
 30
0.0
 10
134.5877797108192
 20
138.617400240682
 30
0.0
 10
133.9162014096633
 20
137.9458219395261
 30
0.0
 10
133.0877851365414
 20
137.9458219395261
 30
0.0
  0
SPLINE
  5
51
330
1F
100
AcDbEntity
  8
0
370
     0
100
AcDbSpline
210
0.0
220
0.0
230
1.0
 70
    11
 71
     3
 72
    17
 73
    13
 74
     0
 42
0.0000000001
 43
0.0000000001
 12
1.0
 22
0.0
 32
0.0
 13
1.0
 23
0.0
 33
0.0
 40
0.0
 40
0.0
 40
0.0
 40
0.0
 40
1.0
 40
1.0
 40
1.0
 40
2.0
 40
2.0
 40
2.0
 40
3.0
 40
3.0
 40
3.0
 40
4.0
 40
4.0
 40
4.0
 40
4.0
 10
163.6221185910932
 20
38.42084603938567
 30
0.0
 10
162.7937023179713
 20
38.42084603938567
 30
0.0
 10
162.1221240168154
 20
39.09242434054156
 30
0.0
 10
162.1221240168154
 20
39.92084061366346
 30
0.0
 10
162.1221240168154
 20
40.74927841863213
 30
0.0
 10
162.7937023179713
 20
41.42085671978802
 30
0.0
 10
163.6221185910932
 20
41.42085671978802
 30
0.0
 10
164.4505563960618
 20
41.42085671978802
 30
0.0
 10
165.122113165371
 20
40.74927841863213
 30
0.0
 10
165.122113165371
 20
39.92084061366346
 30
0.0
 10
165.122113165371
 20
39.09242434054156
 30
0.0
 10
164.4505563960618
 20
38.42084603938567
 30
0.0
 10
163.6221185910932
 20
38.42084603938567
 30
0.0
  0
SPLINE
  5
52
330
1F
100
AcDbEntity
  8
0
370
     0
100
AcDbSpline
210
0.0
220
0.0
230
1.0
 70
    11
 71
     3
 72
    17
 73
    13
 74
     0
 42
0.0000000001
 43
0.0000000001
 12
1.0
 22
0.0
 32
0.0
 13
1.0
 23
0.0
 33
0.0
 40
0.0
 40
0.0
 40
0.0
 40
0.0
 40
1.0
 40
1.0
 40
1.0
 40
2.0
 40
2.0
 40
2.0
 40
3.0
 40
3.0
 40
3.0
 40
4.0
 40
4.0
 40
4.0
 40
4.0
 10
183.4971328276609
 20
49.92085468315781
 30
0.0
 10
182.6686950226922
 20
49.92085468315781
 30
0.0
 10
181.9971167215363
 20
50.59241145246692
 30
0.0
 10
181.9971167215363
 20
51.42084925743559
 30
0.0
 10
181.9971167215363
 20
52.24926553055748
 30
0.0
 10
182.6686950226922
 20
52.92084383171337
 30
0.0
 10
183.4971328276609
 20
52.92084383171337
 30
0.0
 10
184.3255491007828
 20
52.92084383171337
 30
0.0
 10
184.9971274019387
 20
52.24926553055748
 30
0.0
 10
184.9971274019387
 20
51.42084925743559
 30
0.0
 10
184.9971274019387
 20
50.59241145246692
 30
0.0
 10
184.3255491007828
 20
49.92085468315781
 30
0.0
 10
183.4971328276609
 20
49.92085468315781
 30
0.0
  0
SPLINE
  5
53
330
1F
100
AcDbEntity
  8
0
370
     0
100
AcDbSpline
210
0.0
220
0.0
230
1.0
 70
    11
 71
     3
 72
    17
 73
    13
 74
     0
 42
0.0000000001
 43
0.0000000001
 12
1.0
 22
0.0
 32
0.0
 13
1.0
 23
0.0
 33
0.0
 40
0.0
 40
0.0
 40
0.0
 40
0.0
 40
1.0
 40
1.0
 40
1.0
 40
2.0
 40
2.0
 40
2.0
 40
3.0
 40
3.0
 40
3.0
 40
4.0
 40
4.0
 40
4.0
 40
4.0
 10
203.3721255323818
 20
38.42084603938567
 30
0.0
 10
202.5436877274131
 20
38.42084603938567
 30
0.0
 10
201.872130958104
 20
39.09242434054156
 30
0.0
 10
201.872130958104
 20
39.92084061366346
 30
0.0
 10
201.872130958104
 20
40.74927841863213
 30
0.0
 10
202.5436877274131
 20
41.42085671978802
 30
0.0
 10
203.3721255323818
 20
41.42085671978802
 30
0.0
 10
204.2005418055037
 20
41.42085671978802
 30
0.0
 10
204.8721201066596
 20
40.74927841863213
 30
0.0
 10
204.8721201066596
 20
39.92084061366346
 30
0.0
 10
204.8721201066596
 20
39.09242434054156
 30
0.0
 10
204.2005418055037
 20
38.42084603938567
 30
0.0
 10
203.3721255323818
 20
38.42084603938567
 30
0.0
  0
SPLINE
  5
54
330
1F
100
AcDbEntity
  8
0
370
     0
100
AcDbSpline
210
0.0
220
0.0
230
1.0
 70
    11
 71
     3
 72
    17
 73
    13
 74
     0
 42
0.0000000001
 43
0.0000000001
 12
1.0
 22
0.0
 32
0.0
 13
1.0
 23
0.0
 33
0.0
 40
0.0
 40
0.0
 40
0.0
 40
0.0
 40
1.0
 40
1.0
 40
1.0
 40
2.0
 40
2.0
 40
2.0
 40
3.0
 40
3.0
 40
3.0
 40
4.0
 40
4.0
 40
4.0
 40
4.0
 10
210.6277765383261
 20
170.945831764718
 30
0.0
 10
209.7993602652043
 20
170.945831764718
 30
0.0
 10
209.1277819640484
 20
171.6173885340271
 30
0.0
 10
209.1277819640484
 20
172.4458263389957
 30
0.0
 10
209.1277819640484
 20
173.2742426121176
 30
0.0
 10
209.7993602652043
 20
173.9458209132735
 30
0.0
 10
210.6277765383261
 20
173.9458209132735
 30
0.0
 10
211.4562143432948
 20
173.9458209132735
 30
0.0
 10
212.1277711126039
 20
173.2742426121176
 30
0.0
 10
212.1277711126039
 20
172.4458263389957
 30
0.0
 10
212.1277711126039
 20
171.6173885340271
 30
0.0
 10
211.4562143432948
 20
170.945831764718
 30
0.0
 10
210.6277765383261
 20
170.945831764718
 30
0.0
  0
SPLINE
  5
55
330
1F
100
AcDbEntity
  8
0
370
     0
100
AcDbSpline
210
0.0
220
0.0
230
1.0
 70
    11
 71
     3
 72
    17
 73
    13
 74
     0
 42
0.0000000001
 43
0.0000000001
 12
1.0
 22
0.0
 32
0.0
 13
1.0
 23
0.0
 33
0.0
 40
0.0
 40
0.0
 40
0.0
 40
0.0
 40
1.0
 40
1.0
 40
1.0
 40
2.0
 40
2.0
 40
2.0
 40
3.0
 40
3.0
 40
3.0
 40
4.0
 40
4.0
 40
4.0
 40
4.0
 10
210.6277765383261
 20
220.6958312436542
 30
0.0
 10
209.7993602652043
 20
220.6958312436542
 30
0.0
 10
209.1277819640484
 20
221.3673880129633
 30
0.0
 10
209.1277819640484
 20
222.195825817932
 30
0.0
 10
209.1277819640484
 20
223.0242420910538
 30
0.0
 10
209.7993602652043
 20
223.6958203922097
 30
0.0
 10
210.6277765383261
 20
223.6958203922097
 30
0.0
 10
211.4562143432948
 20
223.6958203922097
 30
0.0
 10
212.1277711126039
 20
223.0242420910538
 30
0.0
 10
212.1277711126039
 20
222.195825817932
 30
0.0
 10
212.1277711126039
 20
221.3673880129633
 30
0.0
 10
211.4562143432948
 20
220.6958312436542
 30
0.0
 10
210.6277765383261
 20
220.6958312436542
 30
0.0
  0
SPLINE
  5
56
330
1F
100
AcDbEntity
  8
0
370
     0
100
AcDbSpline
210
0.0
220
0.0
230
1.0
 70
    11
 71
     3
 72
    17
 73
    13
 74
     0
 42
0.0000000001
 43
0.0000000001
 12
1.0
 22
0.0
 32
0.0
 13
1.0
 23
0.0
 33
0.0
 40
0.0
 40
0.0
 40
0.0
 40
0.0
 40
1.0
 40
1.0
 40
1.0
 40
2.0
 40
2.0
 40
2.0
 40
3.0
 40
3.0
 40
3.0
 40
4.0
 40
4.0
 40
4.0
 40
4.0
 10
210.6277765383261
 20
252.4458312357167
 30
0.0
 10
209.7993602652043
 20
252.4458312357167
 30
0.0
 10
209.1277819640484
 20
253.1173880050258
 30
0.0
 10
209.1277819640484
 20
253.9458258099945
 30
0.0
 10
209.1277819640484
 20
254.7742420831163
 30
0.0
 10
209.7993602652043
 20
255.4458203842722
 30
0.0
 10
210.6277765383261
 20
255.4458203842722
 30
0.0
 10
211.4562143432948
 20
255.4458203842722
 30
0.0
 10
212.1277711126039
 20
254.7742420831163
 30
0.0
 10
212.1277711126039
 20
253.9458258099945
 30
0.0
 10
212.1277711126039
 20
253.1173880050258
 30
0.0
 10
211.4562143432948
 20
252.4458312357167
 30
0.0
 10
210.6277765383261
 20
252.4458312357167
 30
0.0
  0
SPLINE
  5
57
330
1F
100
AcDbEntity
  8
0
370
     0
100
AcDbSpline
210
0.0
220
0.0
230
1.0
 70
    11
 71
     3
 72
    17
 73
    13
 74
     0
 42
0.0000000001
 43
0.0000000001
 12
1.0
 22
0.0
 32
0.0
 13
1.0
 23
0.0
 33
0.0
 40
0.0
 40
0.0
 40
0.0
 40
0.0
 40
1.0
 40
1.0
 40
1.0
 40
2.0
 40
2.0
 40
2.0
 40
3.0
 40
3.0
 40
3.0
 40
4.0
 40
4.0
 40
4.0
 40
4.0
 10
214.3777845058674
 20
89.74583551494419
 30
0.0
 10
213.5493467008987
 20
89.74583551494419
 30
0.0
 10
212.8777683997428
 20
90.41741381610008
 30
0.0
 10
212.8777683997428
 20
91.24585162106875
 30
0.0
 10
212.8777683997428
 20
92.07426789419064
 30
0.0
 10
213.5493467008987
 20
92.74584619534653
 30
0.0
 10
214.3777845058674
 20
92.74584619534653
 30
0.0
 10
215.2062007789893
 20
92.74584619534653
 30
0.0
 10
215.8777790801452
 20
92.07426789419064
 30
0.0
 10
215.8777790801452
 20
91.24585162106875
 30
0.0
 10
215.8777790801452
 20
90.41741381610008
 30
0.0
 10
215.2062007789893
 20
89.74583551494419
 30
0.0
 10
214.3777845058674
 20
89.74583551494419
 30
0.0
  0
SPLINE
  5
58
330
1F
100
AcDbEntity
  8
0
370
     0
100
AcDbSpline
210
0.0
220
0.0
230
1.0
 70
    11
 71
     3
 72
    17
 73
    13
 74
     0
 42
0.0000000001
 43
0.0000000001
 12
1.0
 22
0.0
 32
0.0
 13
1.0
 23
0.0
 33
0.0
 40
0.0
 40
0.0
 40
0.0
 40
0.0
 40
1.0
 40
1.0
 40
1.0
 40
2.0
 40
2.0
 40
2.0
 40
3.0
 40
3.0
 40
3.0
 40
4.0
 40
4.0
 40
4.0
 40
4.0
 10
215.6277728071499
 20
137.9458434713729
 30
0.0
 10
214.799356534028
 20
137.9458434713729
 30
0.0
 10
214.1277782328721
 20
138.6174217725288
 30
0.0
 10
214.1277782328721
 20
139.4458380456507
 30
0.0
 10
214.1277782328721
 20
140.2742758506194
 30
0.0
 10
214.799356534028
 20
140.9458541517753
 30
0.0
 10
215.6277728071499
 20
140.9458541517753
 30
0.0
 10
216.4562106121186
 20
140.9458541517753
 30
0.0
 10
217.1277673814277
 20
140.2742758506194
 30
0.0
 10
217.1277673814277
 20
139.4458380456507
 30
0.0
 10
217.1277673814277
 20
138.6174217725288
 30
0.0
 10
216.4562106121186
 20
137.9458434713729
 30
0.0
 10
215.6277728071499
 20
137.9458434713729
 30
0.0
  0
SPLINE
  5
59
330
1F
100
AcDbEntity
  8
0
370
     0
100
AcDbSpline
210
0.0
220
0.0
230
1.0
 70
    11
 71
     3
 72
    17
 73
    13
 74
     0
 42
0.0000000001
 43
0.0000000001
 12
1.0
 22
0.0
 32
0.0
 13
1.0
 23
0.0
 33
0.0
 40
0.0
 40
0.0
 40
0.0
 40
0.0
 40
1.0
 40
1.0
 40
1.0
 40
2.0
 40
2.0
 40
2.0
 40
3.0
 40
3.0
 40
3.0
 40
4.0
 40
4.0
 40
4.0
 40
4.0
 10
229.1277670393435
 20
80.14584009498091
 30
0.0
 10
228.2993507662216
 20
80.14584009498091
 30
0.0
 10
227.6277724650657
 20
80.8174183961368
 30
0.0
 10
227.6277724650657
 20
81.64583466925869
 30
0.0
 10
227.6277724650657
 20
82.47427247422736
 30
0.0
 10
228.2993507662216
 20
83.14585077538325
 30
0.0
 10
229.1277670393435
 20
83.14585077538325
 30
0.0
 10
229.9562048443122
 20
83.14585077538325
 30
0.0
 10
230.6277831454681
 20
82.47427247422736
 30
0.0
 10
230.6277831454681
 20
81.64583466925869
 30
0.0
 10
230.6277831454681
 20
80.8174183961368
 30
0.0
 10
229.9562048443122
 20
80.14584009498091
 30
0.0
 10
229.1277670393435
 20
80.14584009498091
 30
0.0
  0
SPLINE
  5
5A
330
1F
100
AcDbEntity
  8
0
370
     0
100
AcDbSpline
210
0.0
220
0.0
230
1.0
 70
    11
 71
     3
 72
    17
 73
    13
 74
     0
 42
0.0000000001
 43
0.0000000001
 12
1.0
 22
0.0
 32
0.0
 13
1.0
 23
0.0
 33
0.0
 40
0.0
 40
0.0
 40
0.0
 40
0.0
 40
1.0
 40
1.0
 40
1.0
 40
2.0
 40
2.0
 40
2.0
 40
3.0
 40
3.0
 40
3.0
 40
4.0
 40
4.0
 40
4.0
 40
4.0
 10
229.1277670393435
 20
159.1458414315677
 30
0.0
 10
228.2993507662216
 20
159.1458414315677
 30
0.0
 10
227.6277724650657
 20
159.8174197327236
 30
0.0
 10
227.6277724650657
 20
160.6458360058455
 30
0.0
 10
227.6277724650657
 20
161.4742738108142
 30
0.0
 10
228.2993507662216
 20
162.14585211197
 30
0.0
 10
229.1277670393435
 20
162.14585211197
 30
0.0
 10
229.9562048443122
 20
162.14585211197
 30
0.0
 10
230.6277831454681
 20
161.4742738108142
 30
0.0
 10
230.6277831454681
 20
160.6458360058455
 30
0.0
 10
230.6277831454681
 20
159.8174197327236
 30
0.0
 10
229.9562048443122
 20
159.1458414315677
 30
0.0
 10
229.1277670393435
 20
159.1458414315677
 30
0.0
  0
HATCH
  5
5B
330
1F
100
AcDbEntity
  8
0
 62
     7
420
 16777215
100
AcDbHatch
 10
0.0
 20
0.0
 30
0.0
210
0.0
220
0.0
230
1.0
  2
SOLID
 70
     1
 71
     0
 91
       27
 92
        1
 93
        1
 72
     4
 94
        3
 73
     0
 74
     1
 95
       32
 96
       28
 40
0.0
 40
0.0
 40
0.0
 40
0.0
 40
1.0
 40
1.0
 40
1.0
 40
2.0
 40
2.0
 40
2.0
 40
3.0
 40
3.0
 40
3.0
 40
4.0
 40
4.0
 40
4.0
 40
5.0
 40
5.0
 40
5.0
 40
6.0
 40
6.0
 40
6.0
 40
7.0
 40
7.0
 40
7.0
 40
8.0
 40
8.0
 40
8.0
 40
9.0
 40
9.0
 40
9.0
 40
9.0
 10
215.1277817930062
 20
273.4458198711459
 10
215.1277817930062
 20
273.4458198711459
 10
-4.872226290014583
 20
273.4458198711459
 10
-4.872226290014583
 20
273.4458198711459
 10
-15.91791296666939
 20
273.4458198711459
 10
-24.87221136530973
 20
264.4915214725056
 10
-24.87223289715651
 20
253.4458347958508
 10
-24.87223289715651
 20
253.4458347958508
 10
-24.87223289715651
 20
43.94583179646797
 10
-24.87223289715651
 20
43.94583179646797
 10
-24.87221136530973
 20
32.90236290003179
 10
-15.92135806215464
 20
23.94896883895634
 10
-4.877867633871679
 20
23.94584672117283
 10
-4.877867633871679
 20
23.94584672117283
 10
215.1221189173024
 20
23.94584672117283
 10
215.1221189173024
 20
23.94584672117283
 10
226.167827125804
 20
23.94272460338932
 10
235.1246447505179
 20
32.89450377595606
 10
235.1277668683014
 20
43.94019045261088
 10
235.1277668683014
 20
43.94206372328098
 10
235.1277884001482
 20
43.94395852579787
 10
235.1277884001482
 20
43.94583179646797
 10
235.1277884001482
 20
43.94583179646797
 10
235.1277884001482
 20
253.4458347958508
 10
235.1277884001482
 20
253.4458347958508
 10
235.1277668683014
 20
264.4915214725056
 10
226.1734684696611
 20
273.4458198711459
 10
215.1277817930062
 20
273.4458198711459
 97
        0
 97
        0
 92
        1
 93
        1
 72
     4
 94
        3
 73
     0
 74
     1
 95
       17
 96
       13
 40
0.0
 40
0.0
 40
0.0
 40
0.0
 40
1.0
 40
1.0
 40
1.0
 40
2.0
 40
2.0
 40
2.0
 40
3.0
 40
3.0
 40
3.0
 40
4.0
 40
4.0
 40
4.0
 40
4.0
 10
0.6277825247996516
 20
255.4458203842722
 10
1.456198797921541
 20
255.4458203842722
 10
2.127777099077431
 20
254.7742420831163
 10
2.127777099077431
 20
253.9458258099945
 10
2.127777099077431
 20
253.1173880050258
 10
1.456198797921541
 20
252.4458312357167
 10
0.6277825247996516
 20
252.4458312357167
 10
-0.2006552801690202
 20
252.4458312357167
 10
-0.8722120494781276
 20
253.1173880050258
 10
-0.8722120494781276
 20
253.9458258099945
 10
-0.8722120494781276
 20
254.7742420831163
 10
-0.2006552801690202
 20
255.4458203842722
 10
0.6277825247996516
 20
255.4458203842722
 97
        0
 97
        0
 92
        1
 93
        1
 72
     4
 94
        3
 73
     0
 74
     1
 95
       17
 96
       13
 40
0.0
 40
0.0
 40
0.0
 40
0.0
 40
1.0
 40
1.0
 40
1.0
 40
2.0
 40
2.0
 40
2.0
 40
3.0
 40
3.0
 40
3.0
 40
4.0
 40
4.0
 40
4.0
 40
4.0
 10
0.6277825247996516
 20
223.6958203922097
 10
1.456198797921541
 20
223.6958203922097
 10
2.127777099077431
 20
223.0242420910538
 10
2.127777099077431
 20
222.195825817932
 10
2.127777099077431
 20
221.3673880129633
 10
1.456198797921541
 20
220.6958312436542
 10
0.6277825247996516
 20
220.6958312436542
 10
-0.2006552801690202
 20
220.6958312436542
 10
-0.8722120494781276
 20
221.3673880129633
 10
-0.8722120494781276
 20
222.195825817932
 10
-0.8722120494781276
 20
223.0242420910538
 10
-0.2006552801690202
 20
223.6958203922097
 10
0.6277825247996516
 20
223.6958203922097
 97
        0
 97
        0
 92
        1
 93
        1
 72
     4
 94
        3
 73
     0
 74
     1
 95
       17
 96
       13
 40
0.0
 40
0.0
 40
0.0
 40
0.0
 40
1.0
 40
1.0
 40
1.0
 40
2.0
 40
2.0
 40
2.0
 40
3.0
 40
3.0
 40
3.0
 40
4.0
 40
4.0
 40
4.0
 40
4.0
 10
0.6277825247996516
 20
173.9458209132735
 10
1.456198797921541
 20
173.9458209132735
 10
2.127777099077431
 20
173.2742426121176
 10
2.127777099077431
 20
172.4458263389957
 10
2.127777099077431
 20
171.6173885340271
 10
1.456198797921541
 20
170.945831764718
 10
0.6277825247996516
 20
170.945831764718
 10
-0.2006552801690202
 20
170.945831764718
 10
-0.8722120494781276
 20
171.6173885340271
 10
-0.8722120494781276
 20
172.4458263389957
 10
-0.8722120494781276
 20
173.2742426121176
 10
-0.2006552801690202
 20
173.9458209132735
 10
0.6277825247996516
 20
173.9458209132735
 97
        0
 97
        0
 92
        1
 93
        1
 72
     4
 94
        3
 73
     0
 74
     1
 95
       77
 96
       73
 40
0.0
 40
0.0
 40
0.0
 40
0.0
 40
1.0
 40
1.0
 40
1.0
 40
2.0
 40
2.0
 40
2.0
 40
3.0
 40
3.0
 40
3.0
 40
4.0
 40
4.0
 40
4.0
 40
5.0
 40
5.0
 40
5.0
 40
6.0
 40
6.0
 40
6.0
 40
7.0
 40
7.0
 40
7.0
 40
8.0
 40
8.0
 40
8.0
 40
9.0
 40
9.0
 40
9.0
 40
10.0
 40
10.0
 40
10.0
 40
11.0
 40
11.0
 40
11.0
 40
12.0
 40
12.0
 40
12.0
 40
13.0
 40
13.0
 40
13.0
 40
14.0
 40
14.0
 40
14.0
 40
15.0
 40
15.0
 40
15.0
 40
16.0
 40
16.0
 40
16.0
 40
17.0
 40
17.0
 40
17.0
 40
18.0
 40
18.0
 40
18.0
 40
19.0
 40
19.0
 40
19.0
 40
20.0
 40
20.0
 40
20.0
 40
21.0
 40
21.0
 40
21.0
 40
22.0
 40
22.0
 40
22.0
 40
23.0
 40
23.0
 40
23.0
 40
24.0
 40
24.0
 40
24.0
 40
24.0
 10
-18.45727131700027
 20
56.33454588435387
 10
-18.50705294676213
 20
56.44168835394514
 10
-18.53202988903019
 20
56.53505044159541
 10
-18.53202988903019
 20
56.61428763775616
 10
-18.53202988903019
 20
56.74485675664712
 10
-18.48155924017128
 20
56.85716686946627
 10
-18.3804456876792
 20
56.95190699531064
 10
-18.27950438996137
 20
57.04630261160649
 10
-18.15496418816959
 20
57.09350041975441
 10
-18.00665282752959
 20
57.09350041975441
 10
-17.85076225682203
 20
57.09350041975441
 10
-17.7324232269037
 20
57.04940319754321
 10
-17.65198024732312
 20
56.96120875312081
 10
-17.57136501296827
 20
56.87301430869842
 10
-17.45061441621026
 20
56.69731443895068
 10
-17.28955620227483
 20
56.43410914387758
 10
-17.28955620227483
 20
56.43410914387758
 10
-16.2389743340479
 20
54.72775335003334
 10
-16.2389743340479
 20
54.72775335003334
 10
-16.2389743340479
 20
54.72775335003334
 10
-15.17685139594537
 20
56.43410914387758
 10
-15.17685139594537
 20
56.43410914387758
 10
-15.11294487469399
 20
56.53884004662918
 10
-15.05920138512409
 20
56.62703449105157
 10
-15.01579318200994
 20
56.69869247714477
 10
-14.97221272412153
 20
56.77035046323797
 10
-14.92432589687656
 20
56.83718531565182
 10
-14.87196044550076
 20
56.89988605348336
 10
-14.81959499412496
 20
56.96258679131491
 10
-14.76137288042424
 20
57.01047361855989
 10
-14.69746635917286
 20
57.04389104476681
 10
-14.63355983792147
 20
57.07696396142521
 10
-14.55552842518056
 20
57.09350041975441
 10
-14.46354437572439
 20
57.09350041975441
 10
-14.32040065831226
 20
57.09350041975441
 10
-14.20085584497409
 20
57.04699163070353
 10
-14.10508219048415
 20
56.95362954305326
 10
-14.00913628121994
 20
56.86026745540299
 10
-13.96124945397497
 20
56.75243596671467
 10
-13.96124945397497
 20
56.62979056743978
 10
-13.96124945397497
 20
56.52988279836753
 10
-13.98553737714598
 20
56.43031953884381
 10
-14.034113223488
 20
56.33041176977157
 10
-14.08268906983002
 20
56.23084851024785
 10
-14.16571587102454
 20
56.09270018128933
 10
-14.28336588184583
 20
55.91631129244453
 10
-14.28336588184583
 20
55.91631129244453
 10
-15.69068738757039
 20
53.75761446138699
 10
-15.69068738757039
 20
53.75761446138699
 10
-15.69068738757039
 20
53.75761446138699
 10
-15.69068738757039
 20
51.97443303822167
 10
-15.69068738757039
 20
51.97443303822167
 10
-15.69068738757039
 20
51.74188909296731
 10
-15.74425862236602
 20
51.56825628051072
 10
-15.85157334673155
 20
51.45319009130337
 10
-15.95906032587135
 20
51.33812390209603
 10
-16.09583061663577
 20
51.28059080749235
 10
-16.26188421902481
 20
51.28059080749235
 10
-16.43069389780205
 20
51.28059080749235
 10
-16.56746418856647
 20
51.33743488299898
 10
-16.67219509131806
 20
51.45112303401222
 10
-16.77709824884392
 20
51.56481118502547
 10
-16.82946370021972
 20
51.73947752612764
 10
-16.82946370021972
 20
51.97443303822167
 10
-16.82946370021972
 20
51.97443303822167
 10
-16.82946370021972
 20
53.75761446138699
 10
-16.82946370021972
 20
53.75761446138699
 10
-16.82946370021972
 20
53.75761446138699
 10
-18.20216199631752
 20
55.88564994262581
 10
-18.20216199631752
 20
55.88564994262581
 10
-18.32239582875274
 20
56.07754176115423
 10
-18.40731743246414
 20
56.22705890521407
 10
-18.45727131700027
 20
56.33454588435387
 97
        0
 97
        0
 92
        1
 93
        1
 72
     4
 94
        3
 73
     0
 74
     1
 95
       65
 96
       61
 40
0.0
 40
0.0
 40
0.0
 40
0.0
 40
1.0
 40
1.0
 40
1.0
 40
2.0
 40
2.0
 40
2.0
 40
3.0
 40
3.0
 40
3.0
 40
4.0
 40
4.0
 40
4.0
 40
5.0
 40
5.0
 40
5.0
 40
6.0
 40
6.0
 40
6.0
 40
7.0
 40
7.0
 40
7.0
 40
8.0
 40
8.0
 40
8.0
 40
9.0
 40
9.0
 40
9.0
 40
10.0
 40
10.0
 40
10.0
 40
11.0
 40
11.0
 40
11.0
 40
12.0
 40
12.0
 40
12.0
 40
13.0
 40
13.0
 40
13.0
 40
14.0
 40
14.0
 40
14.0
 40
15.0
 40
15.0
 40
15.0
 40
16.0
 40
16.0
 40
16.0
 40
17.0
 40
17.0
 40
17.0
 40
18.0
 40
18.0
 40
18.0
 40
19.0
 40
19.0
 40
19.0
 40
20.0
 40
20.0
 40
20.0
 40
20.0
 10
1.871612717902323
 20
35.7287838316711
 10
1.871612717902323
 20
35.7287838316711
 10
-3.36852823809016
 20
31.76322054598715
 10
-3.36852823809016
 20
31.76322054598715
 10
-3.867205809580074
 20
31.38583186742481
 10
-4.582472227858289
 20
31.74153797627686
 10
-4.582472227858289
 20
32.36693046608362
 10
-4.582472227858289
 20
32.36693046608362
 10
-4.582472227858289
 20
34.86257916744538
 10
-4.582472227858289
 20
34.86257916744538
 10
-4.582472227858289
 20
34.86257916744538
 10
-13.46072014366173
 20
34.86257916744538
 10
-13.46072014366173
 20
34.86257916744538
 10
-13.60776112534155
 20
34.86257916744538
 10
-13.74063415183828
 20
34.92271761550978
 10
-13.83653699740892
 20
35.01954633049208
 10
-13.93336571239123
 20
35.11544917606272
 10
-13.99350416045562
 20
35.24832220255945
 10
-13.99350416045562
 20
35.39536318423927
 10
-13.99350416045562
 20
35.39536318423927
 10
-13.99350416045562
 20
44.27361110004271
 10
-13.99350416045562
 20
44.27361110004271
 10
-13.99350416045562
 20
44.27361110004271
 10
-16.37156744653645
 20
44.27361110004271
 10
-16.37156744653645
 20
44.27361110004271
 10
-16.99695993634321
 20
44.27361110004271
 10
-17.35266604519525
 20
44.98887751832093
 10
-16.97527736663292
 20
45.48755508981084
 10
-16.97527736663292
 20
45.48755508981084
 10
-13.00971408094896
 20
50.72769604580332
 10
-13.00971408094896
 20
50.72769604580332
 10
-12.70678252856159
 20
51.12799460934257
 10
-12.10524732499018
 20
51.12799460934257
 10
-11.80231577260281
 20
50.72769604580332
 10
-11.80231577260281
 20
50.72769604580332
 10
-7.836752486918851
 20
45.48755508981084
 10
-7.836752486918851
 20
45.48755508981084
 10
-7.459363808356514
 20
44.98887751832093
 10
-7.815069917208559
 20
44.27361110004271
 10
-8.44046240701532
 20
44.27361110004271
 10
-8.44046240701532
 20
44.27361110004271
 10
-10.93611110837708
 20
44.27361110004271
 10
-10.93611110837708
 20
44.27361110004271
 10
-10.93611110837708
 20
44.27361110004271
 10
-10.93611110837708
 20
37.91997221952391
 10
-10.93611110837708
 20
37.91997221952391
 10
-10.93611110837708
 20
37.91997221952391
 10
-4.582472227858289
 20
37.91997221952391
 10
-4.582472227858289
 20
37.91997221952391
 10
-4.582472227858289
 20
37.91997221952391
 10
-4.582472227858289
 20
40.29803550560474
 10
-4.582472227858289
 20
40.29803550560474
 10
-4.582472227858289
 20
40.92342799541151
 10
-3.867205809580074
 20
41.27913410426356
 10
-3.36852823809016
 20
40.90174542570121
 10
-3.36852823809016
 20
40.90174542570121
 10
1.871612717902323
 20
36.93618214001726
 10
1.871612717902323
 20
36.93618214001726
 10
2.271911281441571
 20
36.63325058762988
 10
2.271911281441571
 20
36.03171538405848
 10
1.871612717902323
 20
35.7287838316711
 97
        0
 97
        0
 92
        1
 93
        1
 72
     4
 94
        3
 73
     0
 74
     1
 95
      113
 96
      109
 40
0.0
 40
0.0
 40
0.0
 40
0.0
 40
1.0
 40
1.0
 40
1.0
 40
2.0
 40
2.0
 40
2.0
 40
3.0
 40
3.0
 40
3.0
 40
4.0
 40
4.0
 40
4.0
 40
5.0
 40
5.0
 40
5.0
 40
6.0
 40
6.0
 40
6.0
 40
7.0
 40
7.0
 40
7.0
 40
8.0
 40
8.0
 40
8.0
 40
9.0
 40
9.0
 40
9.0
 40
10.0
 40
10.0
 40
10.0
 40
11.0
 40
11.0
 40
11.0
 40
12.0
 40
12.0
 40
12.0
 40
13.0
 40
13.0
 40
13.0
 40
14.0
 40
14.0
 40
14.0
 40
15.0
 40
15.0
 40
15.0
 40
16.0
 40
16.0
 40
16.0
 40
17.0
 40
17.0
 40
17.0
 40
18.0
 40
18.0
 40
18.0
 40
19.0
 40
19.0
 40
19.0
 40
20.0
 40
20.0
 40
20.0
 40
21.0
 40
21.0
 40
21.0
 40
22.0
 40
22.0
 40
22.0
 40
23.0
 40
23.0
 40
23.0
 40
24.0
 40
24.0
 40
24.0
 40
25.0
 40
25.0
 40
25.0
 40
26.0
 40
26.0
 40
26.0
 40
27.0
 40
27.0
 40
27.0
 40
28.0
 40
28.0
 40
28.0
 40
29.0
 40
29.0
 40
29.0
 40
30.0
 40
30.0
 40
30.0
 40
31.0
 40
31.0
 40
31.0
 40
32.0
 40
32.0
 40
32.0
 40
33.0
 40
33.0
 40
33.0
 40
34.0
 40
34.0
 40
34.0
 40
35.0
 40
35.0
 40
35.0
 40
36.0
 40
36.0
 40
36.0
 40
36.0
 10
6.986998153635195
 20
28.24943846950014
 10
6.943417695746785
 20
28.17536891656727
 10
6.882094996109338
 20
28.1164577837695
 10
6.802857799948591
 20
28.07304958065535
 10
6.723620603787845
 20
28.0296413775412
 10
6.634220375945612
 20
28.00793727598413
 10
6.534484861647629
 20
28.00793727598413
 10
6.427170137282097
 20
28.00793727598413
 10
6.336391871245763
 20
28.03033039663825
 10
6.262322318312892
 20
28.0751166379465
 10
6.188080510605758
 20
28.11955836970622
 10
6.128135849162411
 20
28.17536891656727
 10
6.081971569660063
 20
28.24185925943259
 10
6.035979544931978
 20
28.30834960229791
 10
5.950368922123519
 20
28.43719617344626
 10
5.825139701234687
 20
28.62908799197468
 10
5.825139701234687
 20
28.62908799197468
 10
4.835880532645197
 20
30.18592664175907
 10
4.835880532645197
 20
30.18592664175907
 10
4.835880532645197
 20
30.18592664175907
 10
3.785126409643996
 20
28.58292371247233
 10
3.785126409643996
 20
28.58292371247233
 10
3.703305391869313
 20
28.45511066996956
 10
3.645255532942853
 20
28.36588269690159
 10
3.610632323316092
 20
28.31455077417136
 10
3.576181368463594
 20
28.26356336098966
 10
3.534667967866333
 20
28.21360947645354
 10
3.48609212152431
 20
28.16503363011152
 10
3.437516275182288
 20
28.1164577837695
 10
3.379983180578615
 20
28.07821722388323
 10
3.313492837713294
 20
28.04996744090418
 10
3.247002494847972
 20
28.02206216747365
 10
3.169143336881326
 20
28.00793727598413
 10
3.079570854264829
 20
28.00793727598413
 10
2.941594780080574
 20
28.00793727598413
 10
2.827045355196017
 20
28.04996744090418
 10
2.736439343933946
 20
28.1343722802928
 10
2.645661077897613
 20
28.21877711968142
 10
2.600358072266577
 20
28.34142251895631
 10
2.600358072266577
 20
28.502652987666
 10
2.600358072266577
 20
28.69178872980622
 10
2.693547905142585
 20
28.92295463686649
 10
2.880272080443127
 20
29.19649521839532
 10
2.880272080443127
 20
29.19649521839532
 10
4.13790418733358
 20
31.03342013113053
 10
4.13790418733358
 20
31.03342013113053
 10
4.13790418733358
 20
31.03342013113053
 10
3.079570854264829
 20
32.66673990068748
 10
3.079570854264829
 20
32.66673990068748
 10
2.979835339966847
 20
32.82521429300898
 10
2.905076767936925
 20
32.96129556467634
 10
2.855295138175065
 20
33.07532822523812
 10
2.805513508413205
 20
33.18901637625136
 10
2.780536566145144
 20
33.29822590313378
 10
2.780536566145144
 20
33.40295680588537
 10
2.780536566145144
 20
33.51044378502517
 10
2.828423393390116
 20
33.60690645861217
 10
2.924369302654324
 20
33.69268933619488
 10
3.02014295714427
 20
33.77812770422908
 10
3.137103948868502
 20
33.82084688824618
 10
3.275252277827021
 20
33.82084688824618
 10
3.433726670148513
 20
33.82084688824618
 10
3.557061088520457
 20
33.7743380991953
 10
3.645255532942853
 20
33.68097601154503
 10
3.733449977365249
 20
33.58761392389476
 10
3.855406357543093
 20
33.41467013053522
 10
4.011469183024911
 20
33.16145561236936
 10
4.011469183024911
 20
33.16145561236936
 10
4.855000812588333
 20
31.79650878111337
 10
4.855000812588333
 20
31.79650878111337
 10
4.855000812588333
 20
31.79650878111337
 10
5.756065536755428
 20
33.16145561236936
 10
5.756065536755428
 20
33.16145561236936
 10
5.830307344462562
 20
33.27652180157671
 10
5.893524846616897
 20
33.37470702290633
 10
5.945890297992694
 20
33.45670029545527
 10
5.998255749368492
 20
33.53834905845569
 10
6.048726398227402
 20
33.60621743951511
 10
6.097302244569425
 20
33.65996092908501
 10
6.145878090911447
 20
33.71370441865491
 10
6.200310599578395
 20
33.75401203583233
 10
6.260427515796004
 20
33.78088378061728
 10
6.320372177239352
 20
33.8074110158537
 10
6.390135360815661
 20
33.82084688824618
 10
6.469372556976407
 20
33.82084688824618
 10
6.612516274388538
 20
33.82084688824618
 10
6.72947726611277
 20
33.77812770422908
 10
6.820255532149103
 20
33.69268933619488
 10
6.910861543411174
 20
33.60690645861217
 10
6.956336803816471
 20
33.5052761417973
 10
6.956336803816471
 20
33.38779838575027
 10
6.956336803816471
 20
33.21623263058483
 10
6.857807072938327
 20
32.98368868533047
 10
6.661092120730561
 20
32.68982204043866
 10
6.661092120730561
 20
32.68982204043866
 10
5.552804903125688
 20
31.03342013113053
 10
5.552804903125688
 20
31.03342013113053
 10
5.552804903125688
 20
31.03342013113053
 10
6.745496960119182
 20
29.19649521839532
 10
6.745496960119182
 20
29.19649521839532
 10
6.852811684484714
 20
29.03560925923415
 10
6.93067084245136
 20
28.90193955440646
 10
6.979246688793383
 20
28.79583061346077
 10
7.027822535135406
 20
28.68972167251507
 10
7.052110458306418
 20
28.5894693938943
 10
7.052110458306418
 20
28.49472926804993
 10
7.052110458306418
 20
28.40515678543343
 10
7.030406356749343
 20
28.32350802243301
 10
6.986998153635195
 20
28.24943846950014
 97
        0
 97
        0
 92
        1
 93
        1
 72
     4
 94
        3
 73
     0
 74
     1
 95
       17
 96
       13
 40
0.0
 40
0.0
 40
0.0
 40
0.0
 40
1.0
 40
1.0
 40
1.0
 40
2.0
 40
2.0
 40
2.0
 40
3.0
 40
3.0
 40
3.0
 40
4.0
 40
4.0
 40
4.0
 40
4.0
 10
7.872129311183009
 20
38.42084603938567
 10
7.043691506214338
 20
38.42084603938567
 10
6.372113205058447
 20
39.09242434054156
 10
6.372113205058447
 20
39.92084061366346
 10
6.372113205058447
 20
40.74927841863213
 10
7.043691506214338
 20
41.42085671978802
 10
7.872129311183009
 20
41.42085671978802
 10
8.7005455843049
 20
41.42085671978802
 10
9.37212388546079
 20
40.74927841863213
 10
9.37212388546079
 20
39.92084061366346
 10
9.37212388546079
 20
39.09242434054156
 10
8.7005455843049
 20
38.42084603938567
 10
7.872129311183009
 20
38.42084603938567
 97
        0
 97
        0
 92
        1
 93
        1
 72
     4
 94
        3
 73
     0
 74
     1
 95
       17
 96
       13
 40
0.0
 40
0.0
 40
0.0
 40
0.0
 40
1.0
 40
1.0
 40
1.0
 40
2.0
 40
2.0
 40
2.0
 40
3.0
 40
3.0
 40
3.0
 40
4.0
 40
4.0
 40
4.0
 40
4.0
 10
27.74712201590393
 20
49.92085468315781
 10
26.91870574278204
 20
49.92085468315781
 10
26.24712744162616
 20
50.59241145246692
 10
26.24712744162616
 20
51.42084925743559
 10
26.24712744162616
 20
52.24926553055748
 10
26.91870574278204
 20
52.92084383171337
 10
27.74712201590393
 20
52.92084383171337
 10
28.57555982087261
 20
52.92084383171337
 10
29.24711659018171
 20
52.24926553055748
 10
29.24711659018171
 20
51.42084925743559
 10
29.24711659018171
 20
50.59241145246692
 10
28.57555982087261
 20
49.92085468315781
 10
27.74712201590393
 20
49.92085468315781
 97
        0
 97
        0
 92
        1
 93
        1
 72
     4
 94
        3
 73
     0
 74
     1
 95
       17
 96
       13
 40
0.0
 40
0.0
 40
0.0
 40
0.0
 40
1.0
 40
1.0
 40
1.0
 40
2.0
 40
2.0
 40
2.0
 40
3.0
 40
3.0
 40
3.0
 40
4.0
 40
4.0
 40
4.0
 40
4.0
 10
36.67211557107286
 20
66.02084094622266
 10
35.84369929795097
 20
66.02084094622266
 10
35.17212099679508
 20
66.69241924737855
 10
35.17212099679508
 20
67.52083552050044
 10
35.17212099679508
 20
68.34927332546911
 10
35.84369929795097
 20
69.020851626625
 10
36.67211557107286
 20
69.020851626625
 10
37.50055337604153
 20
69.020851626625
 10
38.17213167719742
 20
68.34927332546911
 10
38.17213167719742
 20
67.52083552050044
 10
38.17213167719742
 20
66.69241924737855
 10
37.50055337604153
 20
66.02084094622266
 10
36.67211557107286
 20
66.02084094622266
 97
        0
 97
        0
 92
        1
 93
        1
 72
     4
 94
        3
 73
     0
 74
     1
 95
       17
 96
       13
 40
0.0
 40
0.0
 40
0.0
 40
0.0
 40
1.0
 40
1.0
 40
1.0
 40
2.0
 40
2.0
 40
2.0
 40
3.0
 40
3.0
 40
3.0
 40
4.0
 40
4.0
 40
4.0
 40
4.0
 10
47.62211472062486
 20
38.42084603938567
 10
46.79369844750297
 20
38.42084603938567
 10
46.12212014634708
 20
39.09242434054156
 10
46.12212014634708
 20
39.92084061366346
 10
46.12212014634708
 20
40.74927841863213
 10
46.79369844750297
 20
41.42085671978802
 10
47.62211472062486
 20
41.42085671978802
 10
48.45055252559353
 20
41.42085671978802
 10
49.12213082674942
 20
40.74927841863213
 10
49.12213082674942
 20
39.92084061366346
 10
49.12213082674942
 20
39.09242434054156
 10
48.45055252559353
 20
38.42084603938567
 10
47.62211472062486
 20
38.42084603938567
 97
        0
 97
        0
 92
        1
 93
        1
 72
     4
 94
        3
 73
     0
 74
     1
 95
       17
 96
       13
 40
0.0
 40
0.0
 40
0.0
 40
0.0
 40
1.0
 40
1.0
 40
1.0
 40
2.0
 40
2.0
 40
2.0
 40
3.0
 40
3.0
 40
3.0
 40
4.0
 40
4.0
 40
4.0
 40
4.0
 10
83.12778555593246
 20
214.8208237852705
 10
82.29934775096379
 20
214.8208237852705
 10
81.6277694498079
 20
215.4924020864264
 10
81.6277694498079
 20
216.3208183595483
 10
81.6277694498079
 20
217.1492561645169
 10
82.29934775096379
 20
217.8208129338261
 10
83.12778555593246
 20
217.8208129338261
 10
83.95620182905435
 20
217.8208129338261
 10
84.62778013021024
 20
217.1492561645169
 10
84.62778013021024
 20
216.3208183595483
 10
84.62778013021024
 20
215.4924020864264
 10
83.95620182905435
 20
214.8208237852705
 10
83.12778555593246
 20
214.8208237852705
 97
        0
 97
        0
 92
        1
 93
        1
 72
     4
 94
        3
 73
     0
 74
     1
 95
       17
 96
       13
 40
0.0
 40
0.0
 40
0.0
 40
0.0
 40
1.0
 40
1.0
 40
1.0
 40
2.0
 40
2.0
 40
2.0
 40
3.0
 40
3.0
 40
3.0
 40
4.0
 40
4.0
 40
4.0
 40
4.0
 10
105.6277687656395
 20
231.3208286978664
 10
104.7993524925176
 20
231.3208286978664
 10
104.1277741913617
 20
231.9923854671755
 10
104.1277741913617
 20
232.8208232721442
 10
104.1277741913617
 20
233.6492395452661
 10
104.7993524925176
 20
234.320817846422
 10
105.6277687656395
 20
234.320817846422
 10
106.4562065706082
 20
234.320817846422
 10
107.1277848717641
 20
233.6492395452661
 10
107.1277848717641
 20
232.8208232721442
 10
107.1277848717641
 20
231.9923854671755
 10
106.4562065706082
 20
231.3208286978664
 10
105.6277687656395
 20
231.3208286978664
 97
        0
 97
        0
 92
        1
 93
        1
 72
     4
 94
        3
 73
     0
 74
     1
 95
       17
 96
       13
 40
0.0
 40
0.0
 40
0.0
 40
0.0
 40
1.0
 40
1.0
 40
1.0
 40
2.0
 40
2.0
 40
2.0
 40
3.0
 40
3.0
 40
3.0
 40
4.0
 40
4.0
 40
4.0
 40
4.0
 10
116.6721204677938
 20
82.52084585881857
 10
115.8437041946719
 20
82.52084585881857
 10
115.172125893516
 20
83.19242415997446
 10
115.172125893516
 20
84.02084043309635
 10
115.172125893516
 20
84.84927823806503
 10
115.8437041946719
 20
85.52083500737413
 10
116.6721204677938
 20
85.52083500737413
 10
117.5005582727624
 20
85.52083500737413
 10
118.1721150420716
 20
84.84927823806503
 10
118.1721150420716
 20
84.02084043309635
 10
118.1721150420716
 20
83.19242415997446
 10
117.5005582727624
 20
82.52084585881857
 10
116.6721204677938
 20
82.52084585881857
 97
        0
 97
        0
 92
        1
 93
        1
 72
     4
 94
        3
 73
     0
 74
     1
 95
       17
 96
       13
 40
0.0
 40
0.0
 40
0.0
 40
0.0
 40
1.0
 40
1.0
 40
1.0
 40
2.0
 40
2.0
 40
2.0
 40
3.0
 40
3.0
 40
3.0
 40
4.0
 40
4.0
 40
4.0
 40
4.0
 10
128.1277735071933
 20
217.8208129338261
 10
128.956211312162
 20
217.8208129338261
 10
129.6277680814711
 20
217.1492561645169
 10
129.6277680814711
 20
216.3208183595483
 10
129.6277680814711
 20
215.4924020864264
 10
128.956211312162
 20
214.8208237852705
 10
128.1277735071933
 20
214.8208237852705
 10
127.2993572340714
 20
214.8208237852705
 10
126.6277789329155
 20
215.4924020864264
 10
126.6277789329155
 20
216.3208183595483
 10
126.6277789329155
 20
217.1492561645169
 10
127.2993572340714
 20
217.8208129338261
 10
128.1277735071933
 20
217.8208129338261
 97
        0
 97
        0
 92
        1
 93
        1
 72
     4
 94
        3
 73
     0
 74
     1
 95
       17
 96
       13
 40
0.0
 40
0.0
 40
0.0
 40
0.0
 40
1.0
 40
1.0
 40
1.0
 40
2.0
 40
2.0
 40
2.0
 40
3.0
 40
3.0
 40
3.0
 40
4.0
 40
4.0
 40
4.0
 40
4.0
 10
128.1721291115659
 20
66.02084094622266
 10
127.3436913065972
 20
66.02084094622266
 10
126.6721130054413
 20
66.69241924737855
 10
126.6721130054413
 20
67.52083552050044
 10
126.6721130054413
 20
68.34927332546911
 10
127.3436913065972
 20
69.020851626625
 10
128.1721291115659
 20
69.020851626625
 10
129.0005453846878
 20
69.020851626625
 10
129.6721236858437
 20
68.34927332546911
 10
129.6721236858437
 20
67.52083552050044
 10
129.6721236858437
 20
66.69241924737855
 10
129.0005453846878
 20
66.02084094622266
 10
128.1721291115659
 20
66.02084094622266
 97
        0
 97
        0
 92
        1
 93
        1
 72
     4
 94
        3
 73
     0
 74
     1
 95
       17
 96
       13
 40
0.0
 40
0.0
 40
0.0
 40
0.0
 40
1.0
 40
1.0
 40
1.0
 40
2.0
 40
2.0
 40
2.0
 40
3.0
 40
3.0
 40
3.0
 40
4.0
 40
4.0
 40
4.0
 40
4.0
 10
133.0877851365414
 20
137.9458219395261
 10
132.2593473315728
 20
137.9458219395261
 10
131.5877690304169
 20
138.617400240682
 10
131.5877690304169
 20
139.4458165138039
 10
131.5877690304169
 20
140.2742543187726
 10
132.2593473315728
 20
140.9458110880817
 10
133.0877851365414
 20
140.9458110880817
 10
133.9162014096633
 20
140.9458110880817
 10
134.5877797108192
 20
140.2742543187726
 10
134.5877797108192
 20
139.4458165138039
 10
134.5877797108192
 20
138.617400240682
 10
133.9162014096633
 20
137.9458219395261
 10
133.0877851365414
 20
137.9458219395261
 97
        0
 97
        0
 92
        1
 93
        1
 72
     4
 94
        3
 73
     0
 74
     1
 95
       17
 96
       13
 40
0.0
 40
0.0
 40
0.0
 40
0.0
 40
1.0
 40
1.0
 40
1.0
 40
2.0
 40
2.0
 40
2.0
 40
3.0
 40
3.0
 40
3.0
 40
4.0
 40
4.0
 40
4.0
 40
4.0
 10
163.6221185910932
 20
38.42084603938567
 10
162.7937023179713
 20
38.42084603938567
 10
162.1221240168154
 20
39.09242434054156
 10
162.1221240168154
 20
39.92084061366346
 10
162.1221240168154
 20
40.74927841863213
 10
162.7937023179713
 20
41.42085671978802
 10
163.6221185910932
 20
41.42085671978802
 10
164.4505563960618
 20
41.42085671978802
 10
165.122113165371
 20
40.74927841863213
 10
165.122113165371
 20
39.92084061366346
 10
165.122113165371
 20
39.09242434054156
 10
164.4505563960618
 20
38.42084603938567
 10
163.6221185910932
 20
38.42084603938567
 97
        0
 97
        0
 92
        1
 93
        1
 72
     4
 94
        3
 73
     0
 74
     1
 95
       17
 96
       13
 40
0.0
 40
0.0
 40
0.0
 40
0.0
 40
1.0
 40
1.0
 40
1.0
 40
2.0
 40
2.0
 40
2.0
 40
3.0
 40
3.0
 40
3.0
 40
4.0
 40
4.0
 40
4.0
 40
4.0
 10
183.4971328276609
 20
49.92085468315781
 10
182.6686950226922
 20
49.92085468315781
 10
181.9971167215363
 20
50.59241145246692
 10
181.9971167215363
 20
51.42084925743559
 10
181.9971167215363
 20
52.24926553055748
 10
182.6686950226922
 20
52.92084383171337
 10
183.4971328276609
 20
52.92084383171337
 10
184.3255491007828
 20
52.92084383171337
 10
184.9971274019387
 20
52.24926553055748
 10
184.9971274019387
 20
51.42084925743559
 10
184.9971274019387
 20
50.59241145246692
 10
184.3255491007828
 20
49.92085468315781
 10
183.4971328276609
 20
49.92085468315781
 97
        0
 97
        0
 92
        1
 93
        1
 72
     4
 94
        3
 73
     0
 74
     1
 95
       17
 96
       13
 40
0.0
 40
0.0
 40
0.0
 40
0.0
 40
1.0
 40
1.0
 40
1.0
 40
2.0
 40
2.0
 40
2.0
 40
3.0
 40
3.0
 40
3.0
 40
4.0
 40
4.0
 40
4.0
 40
4.0
 10
203.3721255323818
 20
38.42084603938567
 10
202.5436877274131
 20
38.42084603938567
 10
201.872130958104
 20
39.09242434054156
 10
201.872130958104
 20
39.92084061366346
 10
201.872130958104
 20
40.74927841863213
 10
202.5436877274131
 20
41.42085671978802
 10
203.3721255323818
 20
41.42085671978802
 10
204.2005418055037
 20
41.42085671978802
 10
204.8721201066596
 20
40.74927841863213
 10
204.8721201066596
 20
39.92084061366346
 10
204.8721201066596
 20
39.09242434054156
 10
204.2005418055037
 20
38.42084603938567
 10
203.3721255323818
 20
38.42084603938567
 97
        0
 97
        0
 92
        1
 93
        1
 72
     4
 94
        3
 73
     0
 74
     1
 95
       17
 96
       13
 40
0.0
 40
0.0
 40
0.0
 40
0.0
 40
1.0
 40
1.0
 40
1.0
 40
2.0
 40
2.0
 40
2.0
 40
3.0
 40
3.0
 40
3.0
 40
4.0
 40
4.0
 40
4.0
 40
4.0
 10
210.6277765383261
 20
170.945831764718
 10
209.7993602652043
 20
170.945831764718
 10
209.1277819640484
 20
171.6173885340271
 10
209.1277819640484
 20
172.4458263389957
 10
209.1277819640484
 20
173.2742426121176
 10
209.7993602652043
 20
173.9458209132735
 10
210.6277765383261
 20
173.9458209132735
 10
211.4562143432948
 20
173.9458209132735
 10
212.1277711126039
 20
173.2742426121176
 10
212.1277711126039
 20
172.4458263389957
 10
212.1277711126039
 20
171.6173885340271
 10
211.4562143432948
 20
170.945831764718
 10
210.6277765383261
 20
170.945831764718
 97
        0
 97
        0
 92
        1
 93
        1
 72
     4
 94
        3
 73
     0
 74
     1
 95
       17
 96
       13
 40
0.0
 40
0.0
 40
0.0
 40
0.0
 40
1.0
 40
1.0
 40
1.0
 40
2.0
 40
2.0
 40
2.0
 40
3.0
 40
3.0
 40
3.0
 40
4.0
 40
4.0
 40
4.0
 40
4.0
 10
210.6277765383261
 20
220.6958312436542
 10
209.7993602652043
 20
220.6958312436542
 10
209.1277819640484
 20
221.3673880129633
 10
209.1277819640484
 20
222.195825817932
 10
209.1277819640484
 20
223.0242420910538
 10
209.7993602652043
 20
223.6958203922097
 10
210.6277765383261
 20
223.6958203922097
 10
211.4562143432948
 20
223.6958203922097
 10
212.1277711126039
 20
223.0242420910538
 10
212.1277711126039
 20
222.195825817932
 10
212.1277711126039
 20
221.3673880129633
 10
211.4562143432948
 20
220.6958312436542
 10
210.6277765383261
 20
220.6958312436542
 97
        0
 97
        0
 92
        1
 93
        1
 72
     4
 94
        3
 73
     0
 74
     1
 95
       17
 96
       13
 40
0.0
 40
0.0
 40
0.0
 40
0.0
 40
1.0
 40
1.0
 40
1.0
 40
2.0
 40
2.0
 40
2.0
 40
3.0
 40
3.0
 40
3.0
 40
4.0
 40
4.0
 40
4.0
 40
4.0
 10
210.6277765383261
 20
252.4458312357167
 10
209.7993602652043
 20
252.4458312357167
 10
209.1277819640484
 20
253.1173880050258
 10
209.1277819640484
 20
253.9458258099945
 10
209.1277819640484
 20
254.7742420831163
 10
209.7993602652043
 20
255.4458203842722
 10
210.6277765383261
 20
255.4458203842722
 10
211.4562143432948
 20
255.4458203842722
 10
212.1277711126039
 20
254.7742420831163
 10
212.1277711126039
 20
253.9458258099945
 10
212.1277711126039
 20
253.1173880050258
 10
211.4562143432948
 20
252.4458312357167
 10
210.6277765383261
 20
252.4458312357167
 97
        0
 97
        0
 92
        1
 93
        1
 72
     4
 94
        3
 73
     0
 74
     1
 95
       17
 96
       13
 40
0.0
 40
0.0
 40
0.0
 40
0.0
 40
1.0
 40
1.0
 40
1.0
 40
2.0
 40
2.0
 40
2.0
 40
3.0
 40
3.0
 40
3.0
 40
4.0
 40
4.0
 40
4.0
 40
4.0
 10
214.3777845058674
 20
89.74583551494419
 10
213.5493467008987
 20
89.74583551494419
 10
212.8777683997428
 20
90.41741381610008
 10
212.8777683997428
 20
91.24585162106875
 10
212.8777683997428
 20
92.07426789419064
 10
213.5493467008987
 20
92.74584619534653
 10
214.3777845058674
 20
92.74584619534653
 10
215.2062007789893
 20
92.74584619534653
 10
215.8777790801452
 20
92.07426789419064
 10
215.8777790801452
 20
91.24585162106875
 10
215.8777790801452
 20
90.41741381610008
 10
215.2062007789893
 20
89.74583551494419
 10
214.3777845058674
 20
89.74583551494419
 97
        0
 97
        0
 92
        1
 93
        1
 72
     4
 94
        3
 73
     0
 74
     1
 95
       17
 96
       13
 40
0.0
 40
0.0
 40
0.0
 40
0.0
 40
1.0
 40
1.0
 40
1.0
 40
2.0
 40
2.0
 40
2.0
 40
3.0
 40
3.0
 40
3.0
 40
4.0
 40
4.0
 40
4.0
 40
4.0
 10
215.6277728071499
 20
137.9458434713729
 10
214.799356534028
 20
137.9458434713729
 10
214.1277782328721
 20
138.6174217725288
 10
214.1277782328721
 20
139.4458380456507
 10
214.1277782328721
 20
140.2742758506194
 10
214.799356534028
 20
140.9458541517753
 10
215.6277728071499
 20
140.9458541517753
 10
216.4562106121186
 20
140.9458541517753
 10
217.1277673814277
 20
140.2742758506194
 10
217.1277673814277
 20
139.4458380456507
 10
217.1277673814277
 20
138.6174217725288
 10
216.4562106121186
 20
137.9458434713729
 10
215.6277728071499
 20
137.9458434713729
 97
        0
 97
        0
 92
        1
 93
        1
 72
     4
 94
        3
 73
     0
 74
     1
 95
       17
 96
       13
 40
0.0
 40
0.0
 40
0.0
 40
0.0
 40
1.0
 40
1.0
 40
1.0
 40
2.0
 40
2.0
 40
2.0
 40
3.0
 40
3.0
 40
3.0
 40
4.0
 40
4.0
 40
4.0
 40
4.0
 10
229.1277670393435
 20
80.14584009498091
 10
228.2993507662216
 20
80.14584009498091
 10
227.6277724650657
 20
80.8174183961368
 10
227.6277724650657
 20
81.64583466925869
 10
227.6277724650657
 20
82.47427247422736
 10
228.2993507662216
 20
83.14585077538325
 10
229.1277670393435
 20
83.14585077538325
 10
229.9562048443122
 20
83.14585077538325
 10
230.6277831454681
 20
82.47427247422736
 10
230.6277831454681
 20
81.64583466925869
 10
230.6277831454681
 20
80.8174183961368
 10
229.9562048443122
 20
80.14584009498091
 10
229.1277670393435
 20
80.14584009498091
 97
        0
 97
        0
 92
        1
 93
        1
 72
     4
 94
        3
 73
     0
 74
     1
 95
       17
 96
       13
 40
0.0
 40
0.0
 40
0.0
 40
0.0
 40
1.0
 40
1.0
 40
1.0
 40
2.0
 40
2.0
 40
2.0
 40
3.0
 40
3.0
 40
3.0
 40
4.0
 40
4.0
 40
4.0
 40
4.0
 10
229.1277670393435
 20
159.1458414315677
 10
228.2993507662216
 20
159.1458414315677
 10
227.6277724650657
 20
159.8174197327236
 10
227.6277724650657
 20
160.6458360058455
 10
227.6277724650657
 20
161.4742738108142
 10
228.2993507662216
 20
162.14585211197
 10
229.1277670393435
 20
162.14585211197
 10
229.9562048443122
 20
162.14585211197
 10
230.6277831454681
 20
161.4742738108142
 10
230.6277831454681
 20
160.6458360058455
 10
230.6277831454681
 20
159.8174197327236
 10
229.9562048443122
 20
159.1458414315677
 10
229.1277670393435
 20
159.1458414315677
 97
        0
 97
        0
 75
     2
 76
     1
 98
        0
  0
ENDSEC
  0
SECTION
  2
OBJECTS
  0
DICTIONARY
  5
C
330
0
100
AcDbDictionary
281
     1
  3
ACAD_GROUP
350
D
  3
ACAD_LAYOUT
350
1A
  3
ACAD_MATERIAL
350
3B
  3
ACAD_MLEADERSTYLE
350
5D
  3
ACAD_MLINESTYLE
350
17
  3
ACAD_PLOTSETTINGS
350
19
  3
ACAD_PLOTSTYLENAME
350
E
  3
ACAD_TABLESTYLE
350
5C
  3
ACAD_VISUALSTYLE
350
2A
  0
SUN
  5
3F
330
29
100
AcDbSun
 90
        1
290
     0
 63
     7
421
 16777215
 40
1.0
291
     1
 91
  2455826
 92
 54000000
292
     0
 70
     2
 71
   256
280
     1
  0
DICTIONARY
  5
D
102
{ACAD_REACTORS
330
C
102
}
330
C
100
AcDbDictionary
281
     1
  0
DICTIONARY
  5
1A
102
{ACAD_REACTORS
330
C
102
}
330
C
100
AcDbDictionary
281
     1
  3
Layout1
350
1E
  3
Layout2
350
26
  3
Model
350
22
  0
DICTIONARY
  5
3B
102
{ACAD_REACTORS
330
C
102
}
330
C
100
AcDbDictionary
281
     1
  3
ByBlock
350
3D
  3
ByLayer
350
3C
  3
Global
350
3E
  0
DICTIONARY
  5
5D
102
{ACAD_REACTORS
330
C
102
}
330
C
100
AcDbDictionary
281
     1
  0
DICTIONARY
  5
17
102
{ACAD_REACTORS
330
C
102
}
330
C
100
AcDbDictionary
281
     1
  3
Standard
350
18
  0
DICTIONARY
  5
19
102
{ACAD_REACTORS
330
C
102
}
330
C
100
AcDbDictionary
281
     1
  0
ACDBDICTIONARYWDFLT
  5
E
102
{ACAD_REACTORS
330
C
102
}
330
C
100
AcDbDictionary
281
     1
  3
Normal
350
F
100
AcDbDictionaryWithDefault
340
F
  0
DICTIONARY
  5
5C
102
{ACAD_REACTORS
330
C
102
}
330
C
100
AcDbDictionary
281
     1
  0
DICTIONARY
  5
2A
102
{ACAD_REACTORS
330
C
102
}
330
C
100
AcDbDictionary
281
     1
  3
2dWireframe
350
2F
  3
3D Hidden
350
31
  3
3dWireframe
350
30
  3
Basic
350
32
  3
Brighten
350
36
  3
ColorChange
350
3A
  3
Conceptual
350
34
  3
Dim
350
35
  3
Facepattern
350
39
  3
Flat
350
2B
  3
FlatWithEdges
350
2C
  3
Gouraud
350
2D
  3
GouraudWithEdges
350
2E
  3
Linepattern
350
38
  3
Realistic
350
33
  3
Thicken
350
37
  0
LAYOUT
  5
1E
102
{ACAD_REACTORS
330
1A
102
}
330
1A
100
AcDbPlotSettings
  1

  2
none_device
  4

  6

 40
0.0
 41
0.0
 42
0.0
 43
0.0
 44
0.0
 45
0.0
 46
0.0
 47
0.0
 48
0.0
 49
0.0
140
0.0
141
0.0
142
1.0
143
1.0
 70
   688
 72
     0
 73
     0
 74
     5
  7

 75
    16
 76
     0
 77
     2
 78
   300
147
1.0
148
0.0
149
0.0
100
AcDbLayout
  1
Layout1
 70
     1
 71
     1
 10
0.0
 20
0.0
 11
12.0
 21
9.0
 12
0.0
 22
0.0
 32
0.0
 14
1.000000000000000E+20
 24
1.000000000000000E+20
 34
1.000000000000000E+20
 15
-1.000000000000000E+20
 25
-1.000000000000000E+20
 35
-1.000000000000000E+20
146
0.0
 13
0.0
 23
0.0
 33
0.0
 16
1.0
 26
0.0
 36
0.0
 17
0.0
 27
1.0
 37
0.0
 76
     0
330
1B
  0
LAYOUT
  5
26
102
{ACAD_REACTORS
330
1A
102
}
330
1A
100
AcDbPlotSettings
  1

  2
none_device
  4

  6

 40
0.0
 41
0.0
 42
0.0
 43
0.0
 44
0.0
 45
0.0
 46
0.0
 47
0.0
 48
0.0
 49
0.0
140
0.0
141
0.0
142
1.0
143
1.0
 70
   688
 72
     0
 73
     0
 74
     5
  7

 75
    16
 76
     0
 77
     2
 78
   300
147
1.0
148
0.0
149
0.0
100
AcDbLayout
  1
Layout2
 70
     1
 71
     2
 10
0.0
 20
0.0
 11
0.0
 21
0.0
 12
0.0
 22
0.0
 32
0.0
 14
0.0
 24
0.0
 34
0.0
 15
0.0
 25
0.0
 35
0.0
146
0.0
 13
0.0
 23
0.0
 33
0.0
 16
1.0
 26
0.0
 36
0.0
 17
0.0
 27
1.0
 37
0.0
 76
     0
330
23
  0
LAYOUT
  5
22
102
{ACAD_REACTORS
330
1A
102
}
330
1A
100
AcDbPlotSettings
  1

  2
none_device
  4

  6

 40
0.0
 41
0.0
 42
0.0
 43
0.0
 44
0.0
 45
0.0
 46
0.0
 47
0.0
 48
0.0
 49
0.0
140
0.0
141
0.0
142
1.0
143
1.0
 70
  1712
 72
     0
 73
     0
 74
     0
  7

 75
     0
 76
     0
 77
     2
 78
   300
147
1.0
148
0.0
149
0.0
100
AcDbLayout
  1
Model
 70
     1
 71
     0
 10
0.0
 20
0.0
 11
12.0
 21
9.0
 12
0.0
 22
0.0
 32
0.0
 14
1.000000000000000E+20
 24
1.000000000000000E+20
 34
1.000000000000000E+20
 15
-1.000000000000000E+20
 25
-1.000000000000000E+20
 35
-1.000000000000000E+20
146
0.0
 13
0.0
 23
0.0
 33
0.0
 16
1.0
 26
0.0
 36
0.0
 17
0.0
 27
1.0
 37
0.0
 76
     0
330
1F
331
29
  0
MATERIAL
  5
3D
102
{ACAD_REACTORS
330
3B
102
}
330
3B
100
AcDbMaterial
  1
ByBlock
 72
     1
 94
      127
  0
MATERIAL
  5
3C
102
{ACAD_REACTORS
330
3B
102
}
330
3B
100
AcDbMaterial
  1
ByLayer
 72
     1
 94
      127
  0
MATERIAL
  5
3E
102
{ACAD_REACTORS
330
3B
102
}
330
3B
100
AcDbMaterial
  1
Global
 72
     1
 94
      127
  0
MLINESTYLE
  5
18
102
{ACAD_REACTORS
330
17
102
}
330
17
100
AcDbMlineStyle
  2
Standard
 70
     0
  3

 62
   256
 51
90.0
 52
90.0
 71
     2
 49
0.5
 62
   256
  6
BYLAYER
 49
-0.5
 62
   256
  6
BYLAYER
  0
ACDBPLACEHOLDER
  5
F
102
{ACAD_REACTORS
330
E
102
}
330
E
  0
VISUALSTYLE
  5
2F
102
{ACAD_REACTORS
330
2A
102
}
330
2A
100
AcDbVisualStyle
  2
2dWireframe
 70
     4
177
     2
291
     0
 71
     0
176
     1
 72
     2
176
     1
 73
     0
176
     1
 90
        0
176
     1
 40
-0.6
176
     1
 41
-30.0
176
     1
 62
     5
 63
     7
421
 16777215
176
     1
 74
     1
176
     1
 91
        4
176
     1
 64
     7
176
     1
 65
   257
176
     1
 75
     1
176
     1
175
     1
176
     1
 42
1.0
176
     1
 92
        0
176
     1
 66
   257
176
     1
 43
1.0
176
     1
 76
     1
176
     1
 77
     6
176
     1
 78
     2
176
     1
 67
     7
176
     1
 79
     5
176
     1
170
     0
176
     1
171
     0
176
     1
290
     0
176
     1
 93
        1
176
     1
 44
0.0
176
     1
173
     0
176
     1
  0
VISUALSTYLE
  5
31
102
{ACAD_REACTORS
330
2A
102
}
330
2A
100
AcDbVisualStyle
  2
3D Hidden
 70
     6
177
     2
291
     0
 71
     1
176
     1
 72
     2
176
     1
 73
     2
176
     1
 90
        0
176
     1
 40
-0.6
176
     1
 41
-30.0
176
     1
 62
     5
 63
     7
421
 16777215
176
     1
 74
     2
176
     1
 91
        2
176
     1
 64
     7
176
     1
 65
   257
176
     1
 75
     2
176
     1
175
     1
176
     1
 42
40.0
176
     1
 92
        0
176
     1
 66
   257
176
     1
 43
1.0
176
     1
 76
     1
176
     1
 77
     6
176
     1
 78
     2
176
     1
 67
     7
176
     1
 79
     3
176
     1
170
     0
176
     1
171
     0
176
     1
290
     0
176
     1
 93
        1
176
     1
 44
0.0
176
     1
173
     0
176
     1
  0
VISUALSTYLE
  5
30
102
{ACAD_REACTORS
330
2A
102
}
330
2A
100
AcDbVisualStyle
  2
3dWireframe
 70
     5
177
     2
291
     0
 71
     0
176
     1
 72
     2
176
     1
 73
     0
176
     1
 90
        0
176
     1
 40
-0.6
176
     1
 41
-30.0
176
     1
 62
     5
 63
     7
421
 16777215
176
     1
 74
     1
176
     1
 91
        4
176
     1
 64
     7
176
     1
 65
   257
176
     1
 75
     1
176
     1
175
     1
176
     1
 42
1.0
176
     1
 92
        0
176
     1
 66
   257
176
     1
 43
1.0
176
     1
 76
     1
176
     1
 77
     6
176
     1
 78
     2
176
     1
 67
     7
176
     1
 79
     5
176
     1
170
     0
176
     1
171
     0
176
     1
290
     0
176
     1
 93
        1
176
     1
 44
0.0
176
     1
173
     0
176
     1
  0
VISUALSTYLE
  5
32
102
{ACAD_REACTORS
330
2A
102
}
330
2A
100
AcDbVisualStyle
  2
Basic
 70
     7
177
     2
291
     1
 71
     1
176
     1
 72
     0
176
     1
 73
     1
176
     1
 90
        0
176
     1
 40
-0.6
176
     1
 41
-30.0
176
     1
 62
     5
 63
     7
421
 16777215
176
     1
 74
     0
176
     1
 91
        4
176
     1
 64
     7
176
     1
 65
   257
176
     1
 75
     1
176
     1
175
     1
176
     1
 42
1.0
176
     1
 92
        8
176
     1
 66
     7
176
     1
 43
1.0
176
     1
 76
     1
176
     1
 77
     6
176
     1
 78
     2
176
     1
 67
     7
176
     1
 79
     5
176
     1
170
     0
176
     1
171
     0
176
     1
290
     0
176
     1
 93
        1
176
     1
 44
0.0
176
     1
173
     0
176
     1
  0
VISUALSTYLE
  5
36
102
{ACAD_REACTORS
330
2A
102
}
330
2A
100
AcDbVisualStyle
  2
Brighten
 70
    12
177
     2
291
     1
 71
     2
176
     1
 72
     2
176
     1
 73
     0
176
     1
 90
        0
176
     1
 40
-0.6
176
     1
 41
-30.0
176
     1
 62
     5
 63
     7
421
 16777215
176
     1
 74
     1
176
     1
 91
        4
176
     1
 64
     7
176
     1
 65
   257
176
     1
 75
     1
176
     1
175
     1
176
     1
 42
1.0
176
     1
 92
        8
176
     1
 66
     7
176
     1
 43
1.0
176
     1
 76
     1
176
     1
 77
     6
176
     1
 78
     2
176
     1
 67
     7
176
     1
 79
     5
176
     1
170
     0
176
     1
171
     0
176
     1
290
     0
176
     1
 93
        1
176
     1
 44
50.0
176
     1
173
     0
176
     1
  0
VISUALSTYLE
  5
3A
102
{ACAD_REACTORS
330
2A
102
}
330
2A
100
AcDbVisualStyle
  2
ColorChange
 70
    16
177
     2
291
     1
 71
     2
176
     1
 72
     2
176
     1
 73
     3
176
     1
 90
        0
176
     1
 40
-0.6
176
     1
 41
-30.0
176
     1
 62
     5
 63
     8
421
  8421504
176
     1
 74
     1
176
     1
 91
        4
176
     1
 64
     7
176
     1
 65
   257
176
     1
 75
     1
176
     1
175
     1
176
     1
 42
1.0
176
     1
 92
        8
176
     1
 66
     8
424
  8421504
176
     1
 43
1.0
176
     1
 76
     1
176
     1
 77
     6
176
     1
 78
     2
176
     1
 67
     7
176
     1
 79
     5
176
     1
170
     0
176
     1
171
     0
176
     1
290
     0
176
     1
 93
        1
176
     1
 44
0.0
176
     1
173
     0
176
     1
  0
VISUALSTYLE
  5
34
102
{ACAD_REACTORS
330
2A
102
}
330
2A
100
AcDbVisualStyle
  2
Conceptual
 70
     9
177
     2
291
     0
 71
     3
176
     1
 72
     2
176
     1
 73
     0
176
     1
 90
        0
176
     1
 40
-0.6
176
     1
 41
-30.0
176
     1
 62
     5
 63
     7
421
 16777215
176
     1
 74
     2
176
     1
 91
        2
176
     1
 64
     7
176
     1
 65
   257
176
     1
 75
     1
176
     1
175
     1
176
     1
 42
40.0
176
     1
 92
        8
176
     1
 66
     7
176
     1
 43
1.0
176
     1
 76
     1
176
     1
 77
     6
176
     1
 78
     2
176
     1
 67
     7
176
     1
 79
     3
176
     1
170
     0
176
     1
171
     0
176
     1
290
     0
176
     1
 93
        1
176
     1
 44
0.0
176
     1
173
     0
176
     1
  0
VISUALSTYLE
  5
35
102
{ACAD_REACTORS
330
2A
102
}
330
2A
100
AcDbVisualStyle
  2
Dim
 70
    11
177
     2
291
     1
 71
     2
176
     1
 72
     2
176
     1
 73
     0
176
     1
 90
        0
176
     1
 40
-0.6
176
     1
 41
-30.0
176
     1
 62
     5
 63
     7
421
 16777215
176
     1
 74
     1
176
     1
 91
        4
176
     1
 64
     7
176
     1
 65
   257
176
     1
 75
     1
176
     1
175
     1
176
     1
 42
1.0
176
     1
 92
        8
176
     1
 66
     7
176
     1
 43
1.0
176
     1
 76
     1
176
     1
 77
     6
176
     1
 78
     2
176
     1
 67
     7
176
     1
 79
     5
176
     1
170
     0
176
     1
171
     0
176
     1
290
     0
176
     1
 93
        1
176
     1
 44
-50.0
176
     1
173
     0
176
     1
  0
VISUALSTYLE
  5
39
102
{ACAD_REACTORS
330
2A
102
}
330
2A
100
AcDbVisualStyle
  2
Facepattern
 70
    15
177
     2
291
     1
 71
     2
176
     1
 72
     2
176
     1
 73
     0
176
     1
 90
        0
176
     1
 40
-0.6
176
     1
 41
-30.0
176
     1
 62
     5
 63
     7
421
 16777215
176
     1
 74
     1
176
     1
 91
        4
176
     1
 64
     7
176
     1
 65
   257
176
     1
 75
     1
176
     1
175
     1
176
     1
 42
1.0
176
     1
 92
        8
176
     1
 66
     7
176
     1
 43
1.0
176
     1
 76
     1
176
     1
 77
     6
176
     1
 78
     2
176
     1
 67
     7
176
     1
 79
     5
176
     1
170
     0
176
     1
171
     0
176
     1
290
     0
176
     1
 93
        1
176
     1
 44
0.0
176
     1
173
     0
176
     1
  0
VISUALSTYLE
  5
2B
102
{ACAD_REACTORS
330
2A
102
}
330
2A
100
AcDbVisualStyle
  2
Flat
 70
     0
177
     2
291
     1
 71
     2
176
     1
 72
     1
176
     1
 73
     1
176
     1
 90
        2
176
     1
 40
-0.6
176
     1
 41
30.0
176
     1
 62
     5
 63
     7
421
 16777215
176
     1
 74
     0
176
     1
 91
        4
176
     1
 64
     7
176
     1
 65
   257
176
     1
 75
     1
176
     1
175
     1
176
     1
 42
1.0
176
     1
 92
        8
176
     1
 66
     7
176
     1
 43
1.0
176
     1
 76
     1
176
     1
 77
     6
176
     1
 78
     2
176
     1
 67
     7
176
     1
 79
     5
176
     1
170
     0
176
     1
171
     0
176
     1
290
     0
176
     1
 93
       13
176
     1
 44
0.0
176
     1
173
     0
176
     1
  0
VISUALSTYLE
  5
2C
102
{ACAD_REACTORS
330
2A
102
}
330
2A
100
AcDbVisualStyle
  2
FlatWithEdges
 70
     1
177
     2
291
     1
 71
     2
176
     1
 72
     1
176
     1
 73
     1
176
     1
 90
        2
176
     1
 40
-0.6
176
     1
 41
30.0
176
     1
 62
     5
 63
     7
421
 16777215
176
     1
 74
     1
176
     1
 91
        4
176
     1
 64
     7
176
     1
 65
   257
176
     1
 75
     1
176
     1
175
     1
176
     1
 42
1.0
176
     1
 92
        0
176
     1
 66
   257
176
     1
 43
1.0
176
     1
 76
     1
176
     1
 77
     6
176
     1
 78
     2
176
     1
 67
     7
176
     1
 79
     5
176
     1
170
     0
176
     1
171
     0
176
     1
290
     0
176
     1
 93
       13
176
     1
 44
0.0
176
     1
173
     0
176
     1
  0
VISUALSTYLE
  5
2D
102
{ACAD_REACTORS
330
2A
102
}
330
2A
100
AcDbVisualStyle
  2
Gouraud
 70
     2
177
     2
291
     1
 71
     2
176
     1
 72
     2
176
     1
 73
     1
176
     1
 90
        2
176
     1
 40
-0.6
176
     1
 41
30.0
176
     1
 62
     5
 63
     7
421
 16777215
176
     1
 74
     0
176
     1
 91
        4
176
     1
 64
     7
176
     1
 65
   257
176
     1
 75
     1
176
     1
175
     1
176
     1
 42
1.0
176
     1
 92
        0
176
     1
 66
     7
176
     1
 43
1.0
176
     1
 76
     1
176
     1
 77
     6
176
     1
 78
     2
176
     1
 67
     7
176
     1
 79
     5
176
     1
170
     0
176
     1
171
     0
176
     1
290
     0
176
     1
 93
       13
176
     1
 44
0.0
176
     1
173
     0
176
     1
  0
VISUALSTYLE
  5
2E
102
{ACAD_REACTORS
330
2A
102
}
330
2A
100
AcDbVisualStyle
  2
GouraudWithEdges
 70
     3
177
     2
291
     1
 71
     2
176
     1
 72
     2
176
     1
 73
     1
176
     1
 90
        2
176
     1
 40
-0.6
176
     1
 41
30.0
176
     1
 62
     5
 63
     7
421
 16777215
176
     1
 74
     1
176
     1
 91
        4
176
     1
 64
     7
176
     1
 65
   257
176
     1
 75
     1
176
     1
175
     1
176
     1
 42
1.0
176
     1
 92
        0
176
     1
 66
   257
176
     1
 43
1.0
176
     1
 76
     1
176
     1
 77
     6
176
     1
 78
     2
176
     1
 67
     7
176
     1
 79
     5
176
     1
170
     0
176
     1
171
     0
176
     1
290
     0
176
     1
 93
       13
176
     1
 44
0.0
176
     1
173
     0
176
     1
  0
VISUALSTYLE
  5
38
102
{ACAD_REACTORS
330
2A
102
}
330
2A
100
AcDbVisualStyle
  2
Linepattern
 70
    14
177
     2
291
     1
 71
     2
176
     1
 72
     2
176
     1
 73
     0
176
     1
 90
        0
176
     1
 40
-0.6
176
     1
 41
-30.0
176
     1
 62
     5
 63
     7
421
 16777215
176
     1
 74
     1
176
     1
 91
        4
176
     1
 64
     7
176
     1
 65
   257
176
     1
 75
     7
176
     1
175
     7
176
     1
 42
1.0
176
     1
 92
        8
176
     1
 66
     7
176
     1
 43
1.0
176
     1
 76
     1
176
     1
 77
     6
176
     1
 78
     2
176
     1
 67
     7
176
     1
 79
     5
176
     1
170
     0
176
     1
171
     0
176
     1
290
     0
176
     1
 93
        1
176
     1
 44
0.0
176
     1
173
     0
176
     1
  0
VISUALSTYLE
  5
33
102
{ACAD_REACTORS
330
2A
102
}
330
2A
100
AcDbVisualStyle
  2
Realistic
 70
     8
177
     2
291
     0
 71
     2
176
     1
 72
     2
176
     1
 73
     0
176
     1
 90
        0
176
     1
 40
-0.6
176
     1
 41
-30.0
176
     1
 62
     5
 63
     7
421
 16777215
176
     1
 74
     1
176
     1
 91
        0
176
     1
 64
     7
176
     1
 65
   257
176
     1
 75
     1
176
     1
175
     1
176
     1
 42
1.0
176
     1
 92
        8
176
     1
 66
     8
424
  7895160
176
     1
 43
1.0
176
     1
 76
     1
176
     1
 77
     6
176
     1
 78
     2
176
     1
 67
     7
176
     1
 79
     5
176
     1
170
     0
176
     1
171
     0
176
     1
290
     0
176
     1
 93
       13
176
     1
 44
0.0
176
     1
173
     0
176
     1
  0
VISUALSTYLE
  5
37
102
{ACAD_REACTORS
330
2A
102
}
330
2A
100
AcDbVisualStyle
  2
Thicken
 70
    13
177
     2
291
     1
 71
     2
176
     1
 72
     2
176
     1
 73
     0
176
     1
 90
        0
176
     1
 40
-0.6
176
     1
 41
-30.0
176
     1
 62
     5
 63
     7
421
 16777215
176
     1
 74
     1
176
     1
 91
        4
176
     1
 64
     7
176
     1
 65
   257
176
     1
 75
     1
176
     1
175
     1
176
     1
 42
1.0
176
     1
 92
       12
176
     1
 66
     7
176
     1
 43
1.0
176
     1
 76
     1
176
     1
 77
     6
176
     1
 78
     2
176
     1
 67
     7
176
     1
 79
     5
176
     1
170
     0
176
     1
171
     0
176
     1
290
     0
176
     1
 93
        1
176
     1
 44
0.0
176
     1
173
     0
176
     1
  0
ENDSEC
  0
EOF
