<?xml version="1.0" encoding="UTF-8" standalone="no"?>
<svg
   xmlns:dc="http://purl.org/dc/elements/1.1/"
   xmlns:cc="http://creativecommons.org/ns#"
   xmlns:rdf="http://www.w3.org/1999/02/22-rdf-syntax-ns#"
   xmlns:svg="http://www.w3.org/2000/svg"
   xmlns="http://www.w3.org/2000/svg"
   xmlns:sodipodi="http://sodipodi.sourceforge.net/DTD/sodipodi-0.dtd"
   xmlns:inkscape="http://www.inkscape.org/namespaces/inkscape"
   width="177.23103"
   height="53.337692"
   id="svg2"
   version="1.1"
   inkscape:version="0.48.5 r10040"
   sodipodi:docname="Electrodo_Calibracion_Cyclone.svg">
  <metadata
     id="metadata18">
    <rdf:RDF>
      <cc:Work
         rdf:about="">
        <dc:format>image/svg+xml</dc:format>
        <dc:type
           rdf:resource="http://purl.org/dc/dcmitype/StillImage" />
      </cc:Work>
    </rdf:RDF>
  </metadata>
  <defs
     id="defs16" />
  <sodipodi:namedview
     pagecolor="#ffffff"
     bordercolor="#666666"
     borderopacity="1"
     objecttolerance="10"
     gridtolerance="10"
     guidetolerance="10"
     inkscape:pageopacity="0"
     inkscape:pageshadow="2"
     inkscape:window-width="1600"
     inkscape:window-height="833"
     id="namedview14"
     showgrid="false"
     inkscape:zoom="4.0639998"
     inkscape:cx="77.547405"
     inkscape:cy="34.903673"
     inkscape:window-x="0"
     inkscape:window-y="27"
     inkscape:window-maximized="1"
     inkscape:current-layer="g4"
     fit-margin-top="0"
     fit-margin-left="0"
     fit-margin-right="0"
     fit-margin-bottom="0" />
  <g
     transform="matrix(3.5433071,0,0,3.5433071,-150.63279,168.39904)"
     font-size="0.2"
     id="g4"
     style="font-size:0.2px;stroke-width:0.05">
    <path
       style="fill:#000000;fill-opacity:1;stroke:#000000"
       d="m 88.5,-44 c -9.313309,-0.0641 -18.631298,0.13381 -27.941521,-0.109278 -2.677726,-0.208663 -5.126562,-1.418063 -7.411446,-2.74191 -3.759273,-1.778761 -8.772724,0.178224 -10.123121,4.168233 -1.473692,3.638194 0.413078,8.216583 4.116932,9.609801 2.276509,0.928908 5.025053,0.74751 7.071126,-0.657815 m 10e-7,5e-6 c 2.880871,-1.801457 6.314326,-2.416221 9.668473,-2.269036 8.27501,-0.0055 16.556821,0.01088 24.827354,-0.0079 2.546503,-0.09636 4.575335,-2.915415 3.530348,-5.31778 C 91.67486,-42.849695 90.174881,-44.08059 88.5,-44"
       id="path12"
       inkscape:connector-curvature="0" />
  </g>
</svg>
