<?xml version="1.0" encoding="UTF-8" standalone="no"?>
<!-- Created with Inkscape (http://www.inkscape.org/) -->

<svg
   xmlns:dc="http://purl.org/dc/elements/1.1/"
   xmlns:cc="http://creativecommons.org/ns#"
   xmlns:rdf="http://www.w3.org/1999/02/22-rdf-syntax-ns#"
   xmlns:svg="http://www.w3.org/2000/svg"
   xmlns="http://www.w3.org/2000/svg"
   xmlns:sodipodi="http://sodipodi.sourceforge.net/DTD/sodipodi-0.dtd"
   xmlns:inkscape="http://www.inkscape.org/namespaces/inkscape"
   version="1.1"
   width="80.995667"
   height="199.21837"
   viewBox="-13 -29 87.745305 206.20849"
   id="svg2"
   inkscape:version="0.48.5 r10040"
   sodipodi:docname="llave_M8.svg">
  <sodipodi:namedview
     pagecolor="#ffffff"
     bordercolor="#666666"
     borderopacity="1"
     objecttolerance="10"
     gridtolerance="10"
     guidetolerance="10"
     inkscape:pageopacity="0"
     inkscape:pageshadow="2"
     inkscape:window-width="640"
     inkscape:window-height="480"
     id="namedview7"
     showgrid="false"
     fit-margin-top="0"
     fit-margin-left="0"
     fit-margin-right="0"
     fit-margin-bottom="0"
     inkscape:zoom="1.0350877"
     inkscape:cx="-1.2657006"
     inkscape:cy="105.9867"
     inkscape:window-x="0"
     inkscape:window-y="27"
     inkscape:window-maximized="0"
     inkscape:current-layer="svg2" />
  <title
     id="title4">OpenSCAD Model</title>
  <metadata
     id="metadata12">
    <rdf:RDF>
      <cc:Work
         rdf:about="">
        <dc:format>image/svg+xml</dc:format>
        <dc:type
           rdf:resource="http://purl.org/dc/dcmitype/StillImage" />
        <dc:title>OpenSCAD Model</dc:title>
      </cc:Work>
    </rdf:RDF>
  </metadata>
  <defs
     id="defs10" />
  <path
     d="m 0.026816,-27.75834 -4.44563,5.15459 -3.576506,5.78014 -2.61969,6.26323 -1.59795,6.59156 -0.53704,6.75822 0.53704,6.75822 1.59795,6.59194 2.61969,6.26285 3.576506,5.78014 4.44563,5.15497 1.76406,1.49189 0,121.56462 0.3581,4.50523 1.06529,4.39463 1.74638,4.17535 2.38435,3.85356 2.96375,3.43652 3.47007,2.935 3.89103,2.36129 4.21604,1.72959 4.43741,1.05526 4.54936,0.35445 4.54936,-0.35445 4.43741,-1.05526 4.21604,-1.72959 3.89103,-2.36129 3.47007,-2.935 2.96374,-3.43652 2.38436,-3.85356 1.74638,-4.17535 1.06529,-4.39463 0.35809,-4.50523 0,-121.56462 1.76406,-1.49189 4.44563,-5.15497 3.57652,-5.78014 2.61968,-6.26285 1.59795,-6.59194 0.53704,-6.75822 -0.53704,-6.75822 -1.59795,-6.59156 -2.61968,-6.26323 -3.57652,-5.78014 -4.44563,-5.15459 -2.79778,-2.36666 -3.45019,1.97267 0,26.25372 -24.59786,14.06442 -24.59787,-14.06442 0,-26.25372 -3.45018,-1.97267 z m 32.059,176.56661 1.18328,0.28148 1.12429,0.4612 1.03762,0.62978 0.92531,0.78262 0.79036,0.91625 0.63585,1.02761 0.46565,1.11364 0.28411,1.17161 0.0955,1.20157 -0.0955,1.20157 -0.28411,1.17163 -0.46565,1.11363 -0.63585,1.02762 -0.79036,0.91625 -0.92531,0.78262 -1.03762,0.62977 -1.12429,0.4612 -1.18328,0.28148 -1.21316,0.0944 -1.21316,-0.0944 -1.18328,-0.28148 -1.12429,-0.4612 -1.03762,-0.62977 -0.92531,-0.78262 -0.79036,-0.91625 -0.63585,-1.02762 -0.46566,-1.11363 -0.2841,-1.17163 -0.0955,-1.20157 0.0955,-1.20157 0.2841,-1.17161 0.46566,-1.11364 0.63585,-1.02761 0.79036,-0.91625 0.92531,-0.78262 1.03762,-0.62978 1.12429,-0.4612 1.18328,-0.28148 1.21316,-0.0944 z"
     id="path6"
     style="fill:#d3d3d3;stroke:#000000;stroke-width:0.5"
     inkscape:connector-curvature="0" />
</svg>
