  0
SECTION
  2
HEADER
  9
$ACADVER
  1
AC1014
  9
$HANDSEED
  5
FFFF
  9
$MEASUREMENT
 70
     1
  0
ENDSEC
  0
SECTION
  2
TABLES
  0
TABLE
  2
VPORT
  5
8
330
0
100
AcDbSymbolTable
 70
     4
  0
VPORT
  5
2E
330
8
100
AcDbSymbolTableRecord
100
AcDbViewportTableRecord
  2
*ACTIVE
 70
     0
 10
0.0
 20
0.0
 11
1.0
 21
1.0
 12
210.0
 22
148.5
 13
0.0
 23
0.0
 14
10.0
 24
10.0
 15
10.0
 25
10.0
 16
0.0
 26
0.0
 36
1.0
 17
0.0
 27
0.0
 37
0.0
 40
341.0
 41
1.24
 42
50.0
 43
0.0
 44
0.0
 50
0.0
 51
0.0
 71
     0
 72
   100
 73
     1
 74
     3
 75
     0
 76
     0
 77
     0
 78
     0
  0
ENDTAB
  0
TABLE
  2
LTYPE
  5
5
330
0
100
AcDbSymbolTable
 70
     1
  0
LTYPE
  5
14
330
5
100
AcDbSymbolTableRecord
100
AcDbLinetypeTableRecord
  2
BYBLOCK
 70
     0
  3

 72
    65
 73
     0
 40
0.0
  0
LTYPE
  5
15
330
5
100
AcDbSymbolTableRecord
100
AcDbLinetypeTableRecord
  2
BYLAYER
 70
     0
  3

 72
    65
 73
     0
 40
0.0
  0
LTYPE
  5
16
330
5
100
AcDbSymbolTableRecord
100
AcDbLinetypeTableRecord
  2
CONTINUOUS
 70
     0
  3
Solid line
 72
    65
 73
     0
 40
0.0
  0
ENDTAB
  0
TABLE
  2
LAYER
  5
2
100
AcDbSymbolTable
 70
1
  0
LAYER
  5
50
100
AcDbSymbolTableRecord
100
AcDbLayerTableRecord
  2
0
 70
0
  6
CONTINUOUS
  0
ENDTAB
  0
TABLE
  2
STYLE
  5
3
330
0
100
AcDbSymbolTable
 70
     1
  0
STYLE
  5
11
330
3
100
AcDbSymbolTableRecord
100
AcDbTextStyleTableRecord
  2
STANDARD
 70
     0
 40
0.0
 41
1.0
 50
0.0
 71
     0
 42
2.5
  3
txt
  4

  0
ENDTAB
  0
TABLE
  2
VIEW
  5
6
330
0
100
AcDbSymbolTable
 70
     0
  0
ENDTAB
  0
TABLE
  2
UCS
  5
7
330
0
100
AcDbSymbolTable
 70
     0
  0
ENDTAB
  0
TABLE
  2
APPID
  5
9
330
0
100
AcDbSymbolTable
 70
     2
  0
APPID
  5
12
330
9
100
AcDbSymbolTableRecord
100
AcDbRegAppTableRecord
  2
ACAD
 70
     0
  0
ENDTAB
  0
TABLE
  2
DIMSTYLE
  5
A
330
0
100
AcDbSymbolTable
 70
     1
  0
DIMSTYLE
105
27
330
A
100
AcDbSymbolTableRecord
100
AcDbDimStyleTableRecord
  2
ISO-25
 70
     0
  3

  4

  5

  6

  7

 40
1.0
 41
2.5
 42
0.625
 43
3.75
 44
1.25
 45
0.0
 46
0.0
 47
0.0
 48
0.0
140
2.5
141
2.5
142
0.0
143
0.03937007874016
144
1.0
145
0.0
146
1.0
147
0.625
 71
     0
 72
     0
 73
     0
 74
     0
 75
     0
 76
     0
 77
     1
 78
     8
170
     0
171
     3
172
     1
173
     0
174
     0
175
     0
176
     0
177
     0
178
     0
270
     2
271
     2
272
     2
273
     2
274
     3
340
11
275
     0
280
     0
281
     0
282
     0
283
     0
284
     8
285
     0
286
     0
287
     3
288
     0
  0
ENDTAB
  0
TABLE
  2
BLOCK_RECORD
  5
1
330
0
100
AcDbSymbolTable
 70
     1
  0
BLOCK_RECORD
  5
1F
330
1
100
AcDbSymbolTableRecord
100
AcDbBlockTableRecord
  2
*MODEL_SPACE
  0
BLOCK_RECORD
  5
1B
330
1
100
AcDbSymbolTableRecord
100
AcDbBlockTableRecord
  2
*PAPER_SPACE
  0
ENDTAB
  0
ENDSEC
  0
SECTION
  2
BLOCKS
  0
BLOCK
  5
20
330
1F
100
AcDbEntity
  8
0
100
AcDbBlockBegin
  2
*MODEL_SPACE
 70
     0
 10
0.0
 20
0.0
 30
0.0
  3
*MODEL_SPACE
  1

  0
ENDBLK
  5
21
330
1F
100
AcDbEntity
  8
0
100
AcDbBlockEnd
  0
BLOCK
  5
1C
330
1B
100
AcDbEntity
 67
     1
  8
0
100
AcDbBlockBegin
  2
*PAPER_SPACE
  1

  0
ENDBLK
  5
1D
330
1B
100
AcDbEntity
 67
     1
  8
0
100
AcDbBlockEnd
  0
ENDSEC
  0
SECTION
  2
ENTITIES
  0
LWPOLYLINE
  5
100
100
AcDbEntity
  8
0
 62
7
100
AcDbPolyline
 90
10
 70
0
 10
44.499998
 20
33.999987
 30
0.0
 10
44.499998
 20
123.249999
 30
0.0
 10
119.749999
 20
123.249999
 30
0.0
 10
119.749999
 20
33.999987
 30
0.0
 10
86.499999
 20
33.999987
 30
0.0
 10
86.499999
 20
59.237004
 30
0.0
 10
75.000000
 20
63.999983
 30
0.0
 10
63.500000
 20
59.237004
 30
0.0
 10
63.500000
 20
33.999987
 30
0.0
 10
44.499998
 20
33.999987
 30
0.0
  0
LWPOLYLINE
  5
101
100
AcDbEntity
  8
0
 62
7
100
AcDbPolyline
 90
10
 70
0
 10
44.499998
 20
123.749984
 30
0.0
 10
44.499998
 20
262.999997
 30
0.0
 10
63.500000
 20
262.999997
 30
0.0
 10
63.500000
 20
237.762998
 30
0.0
 10
75.000000
 20
232.999995
 30
0.0
 10
86.499999
 20
237.762998
 30
0.0
 10
86.499999
 20
262.999997
 30
0.0
 10
119.749999
 20
262.999997
 30
0.0
 10
119.749999
 20
123.749984
 30
0.0
 10
44.499998
 20
123.749984
 30
0.0
  0
LWPOLYLINE
  5
102
100
AcDbEntity
  8
0
 62
7
100
AcDbPolyline
 90
29
 70
0
 10
54.773000
 20
128.487987
 30
0.0
 10
54.773000
 20
130.999991
 30
0.0
 10
55.345999
 20
130.999991
 30
0.0
 10
55.378000
 20
128.725985
 30
0.0
 10
55.355987
 20
128.221993
 30
0.0
 10
55.503998
 20
127.958002
 30
0.0
 10
55.754998
 20
128.013995
 30
0.0
 10
56.125999
 20
128.302003
 30
0.0
 10
56.235998
 20
128.873982
 30
0.0
 10
56.235998
 20
130.999991
 30
0.0
 10
56.717001
 20
131.031007
 30
0.0
 10
56.779998
 20
128.715994
 30
0.0
 10
56.851000
 20
128.127984
 30
0.0
 10
57.093000
 20
127.983007
 30
0.0
 10
57.295999
 20
128.152001
 30
0.0
 10
57.543999
 20
128.367986
 30
0.0
 10
57.518994
 20
129.133006
 30
0.0
 10
57.488001
 20
130.969003
 30
0.0
 10
58.124999
 20
130.999991
 30
0.0
 10
58.124999
 20
127.341008
 30
0.0
 10
57.749999
 20
127.341008
 30
0.0
 10
57.749999
 20
127.854003
 30
0.0
 10
57.440000
 20
127.422005
 30
0.0
 10
56.999999
 20
127.258994
 30
0.0
 10
56.548999
 20
127.427989
 30
0.0
 10
56.300999
 20
127.898989
 30
0.0
 10
55.536998
 20
127.258994
 30
0.0
 10
54.970999
 20
127.559984
 30
0.0
 10
54.773000
 20
128.487987
 30
0.0
  0
LWPOLYLINE
  5
103
100
AcDbEntity
  8
0
 62
7
100
AcDbPolyline
 90
20
 70
0
 10
58.211000
 20
128.487987
 30
0.0
 10
58.211000
 20
130.999991
 30
0.0
 10
58.783999
 20
130.999991
 30
0.0
 10
58.814998
 20
128.725985
 30
0.0
 10
58.793013
 20
128.221993
 30
0.0
 10
58.940999
 20
127.958002
 30
0.0
 10
59.191999
 20
128.013995
 30
0.0
 10
59.563999
 20
128.302003
 30
0.0
 10
59.673998
 20
128.873982
 30
0.0
 10
59.673998
 20
130.999991
 30
0.0
 10
60.155001
 20
131.031007
 30
0.0
 10
60.216999
 20
128.715994
 30
0.0
 10
60.289000
 20
128.127984
 30
0.0
 10
60.531000
 20
127.983007
 30
0.0
 10
60.733000
 20
128.152001
 30
0.0
 10
60.981999
 20
128.367986
 30
0.0
 10
60.956007
 20
129.133006
 30
0.0
 10
60.924999
 20
130.969003
 30
0.0
 10
61.562999
 20
130.999991
 30
0.0
 10
61.561870
 20
127.341008
 30
0.0
  0
LWPOLYLINE
  5
104
100
AcDbEntity
  8
0
 62
7
100
AcDbPolyline
 90
10
 70
0
 10
61.562000
 20
127.341008
 30
0.0
 10
61.187000
 20
127.341008
 30
0.0
 10
61.187000
 20
127.854003
 30
0.0
 10
60.878000
 20
127.422005
 30
0.0
 10
60.437000
 20
127.258994
 30
0.0
 10
59.986999
 20
127.427989
 30
0.0
 10
59.738999
 20
127.898989
 30
0.0
 10
58.974998
 20
127.258994
 30
0.0
 10
58.408999
 20
127.559984
 30
0.0
 10
58.211000
 20
128.487987
 30
0.0
  0
LWPOLYLINE
  5
105
100
AcDbEntity
  8
0
 62
7
100
AcDbPolyline
 90
23
 70
0
 10
65.438000
 20
130.403994
 30
0.0
 10
65.438000
 20
130.999991
 30
0.0
 10
68.436998
 20
130.999991
 30
0.0
 10
68.371999
 20
130.569009
 30
0.0
 10
68.005000
 20
129.897997
 30
0.0
 10
67.275998
 20
129.133006
 30
0.0
 10
66.276999
 20
128.062989
 30
0.0
 10
66.016999
 20
127.316991
 30
0.0
 10
66.254001
 20
126.695001
 30
0.0
 10
66.871001
 20
126.441989
 30
0.0
 10
67.513999
 20
126.711003
 30
0.0
 10
67.758999
 20
127.454997
 30
0.0
 10
68.330998
 20
127.388985
 30
0.0
 10
67.888999
 20
126.302994
 30
0.0
 10
66.859000
 20
125.928993
 30
0.0
 10
65.825000
 20
126.332007
 30
0.0
 10
65.444000
 20
127.330989
 30
0.0
 10
65.556000
 20
127.926986
 30
0.0
 10
65.925999
 20
128.544008
 30
0.0
 10
66.784000
 20
129.433008
 30
0.0
 10
67.428000
 20
130.068008
 30
0.0
 10
67.662998
 20
130.403994
 30
0.0
 10
65.438000
 20
130.403994
 30
0.0
  0
LWPOLYLINE
  5
106
100
AcDbEntity
  8
0
 62
7
100
AcDbPolyline
 90
23
 70
0
 10
68.876000
 20
130.403994
 30
0.0
 10
68.876000
 20
130.999991
 30
0.0
 10
71.873999
 20
130.999991
 30
0.0
 10
71.809000
 20
130.569009
 30
0.0
 10
71.441999
 20
129.897997
 30
0.0
 10
70.713998
 20
129.133006
 30
0.0
 10
69.714000
 20
128.062989
 30
0.0
 10
69.454000
 20
127.316991
 30
0.0
 10
69.690999
 20
126.695001
 30
0.0
 10
70.307999
 20
126.441989
 30
0.0
 10
70.951999
 20
126.711003
 30
0.0
 10
71.196999
 20
127.454997
 30
0.0
 10
71.768998
 20
127.388985
 30
0.0
 10
71.326000
 20
126.302994
 30
0.0
 10
70.295999
 20
125.928993
 30
0.0
 10
69.261998
 20
126.332007
 30
0.0
 10
68.882000
 20
127.330989
 30
0.0
 10
68.992998
 20
127.926986
 30
0.0
 10
69.363000
 20
128.544008
 30
0.0
 10
70.222000
 20
129.433008
 30
0.0
 10
70.866000
 20
130.068008
 30
0.0
 10
71.100998
 20
130.403994
 30
0.0
 10
68.876000
 20
130.403994
 30
0.0
  0
LWPOLYLINE
  5
107
100
AcDbEntity
  8
0
 62
7
100
AcDbPolyline
 90
10
 70
0
 10
72.922999
 20
125.928993
 30
0.0
 10
72.922999
 20
130.999991
 30
0.0
 10
73.542999
 20
130.999991
 30
0.0
 10
73.542999
 20
127.048005
 30
0.0
 10
74.131001
 20
127.475995
 30
0.0
 10
74.782999
 20
127.796006
 30
0.0
 10
74.782999
 20
127.196002
 30
0.0
 10
73.874001
 20
126.603984
 30
0.0
 10
73.322998
 20
125.928993
 30
0.0
 10
72.922999
 20
125.928993
 30
0.0
  0
LWPOLYLINE
  5
108
100
AcDbEntity
  8
0
 62
7
100
AcDbPolyline
 90
21
 70
0
 10
72.999998
 20
57.999995
 30
0.0
 10
73.098000
 20
58.618006
 30
0.0
 10
73.382000
 20
59.175987
 30
0.0
 10
73.823999
 20
59.618004
 30
0.0
 10
74.382001
 20
59.902004
 30
0.0
 10
75.000000
 20
59.999991
 30
0.0
 10
75.617999
 20
59.902004
 30
0.0
 10
76.176000
 20
59.618004
 30
0.0
 10
76.617999
 20
59.175987
 30
0.0
 10
76.902000
 20
58.618006
 30
0.0
 10
76.999998
 20
57.999995
 30
0.0
 10
76.902000
 20
57.381985
 30
0.0
 10
76.617999
 20
56.824004
 30
0.0
 10
76.176000
 20
56.381987
 30
0.0
 10
75.617999
 20
56.097987
 30
0.0
 10
75.000000
 20
55.999999
 30
0.0
 10
74.382001
 20
56.097987
 30
0.0
 10
73.823999
 20
56.381987
 30
0.0
 10
73.382000
 20
56.824004
 30
0.0
 10
73.098000
 20
57.381985
 30
0.0
 10
72.999998
 20
57.999995
 30
0.0
  0
LWPOLYLINE
  5
109
100
AcDbEntity
  8
0
 62
7
100
AcDbPolyline
 90
21
 70
0
 10
72.999998
 20
238.999997
 30
0.0
 10
73.098000
 20
239.617996
 30
0.0
 10
73.382000
 20
240.175998
 30
0.0
 10
73.823999
 20
240.617997
 30
0.0
 10
74.382001
 20
240.901997
 30
0.0
 10
75.000000
 20
240.999996
 30
0.0
 10
75.617999
 20
240.901997
 30
0.0
 10
76.176000
 20
240.617997
 30
0.0
 10
76.617999
 20
240.175998
 30
0.0
 10
76.902000
 20
239.617996
 30
0.0
 10
76.999998
 20
238.999997
 30
0.0
 10
76.902000
 20
238.381996
 30
0.0
 10
76.617999
 20
237.823997
 30
0.0
 10
76.176000
 20
237.381998
 30
0.0
 10
75.617999
 20
237.097997
 30
0.0
 10
75.000000
 20
236.999996
 30
0.0
 10
74.382001
 20
237.097997
 30
0.0
 10
73.823999
 20
237.381998
 30
0.0
 10
73.382000
 20
237.823997
 30
0.0
 10
73.098000
 20
238.381996
 30
0.0
 10
72.999998
 20
238.999997
 30
0.0
  0
LWPOLYLINE
  5
10a
100
AcDbEntity
  8
0
 62
7
100
AcDbPolyline
 90
21
 70
0
 10
43.749999
 20
120.999982
 30
0.0
 10
43.749999
 20
126.000001
 30
0.0
 10
43.999999
 20
126.000001
 30
0.0
 10
43.999999
 20
263.499996
 30
0.0
 10
117.499999
 20
263.499996
 30
0.0
 10
117.499999
 20
263.749997
 30
0.0
 10
122.500001
 20
263.749997
 30
0.0
 10
122.500001
 20
263.499996
 30
0.0
 10
165.999998
 20
263.499996
 30
0.0
 10
165.999998
 20
126.000001
 30
0.0
 10
166.249999
 20
126.000001
 30
0.0
 10
166.249999
 20
120.999982
 30
0.0
 10
165.999998
 20
120.999982
 30
0.0
 10
165.999998
 20
33.500002
 30
0.0
 10
122.500001
 20
33.500002
 30
0.0
 10
122.500001
 20
33.250010
 30
0.0
 10
117.499999
 20
33.250010
 30
0.0
 10
117.499999
 20
33.500002
 30
0.0
 10
43.999999
 20
33.500002
 30
0.0
 10
43.999999
 20
120.999982
 30
0.0
 10
43.749999
 20
120.999982
 30
0.0
  0
LWPOLYLINE
  5
10b
100
AcDbEntity
  8
0
 62
7
100
AcDbPolyline
 90
5
 70
0
 10
79.999998
 20
144.800008
 30
0.0
 10
79.999998
 20
160.800004
 30
0.0
 10
110.000000
 20
160.800004
 30
0.0
 10
110.000000
 20
144.800008
 30
0.0
 10
79.999998
 20
144.800008
 30
0.0
  0
LWPOLYLINE
  5
10c
100
AcDbEntity
  8
0
 62
7
100
AcDbPolyline
 90
7
 70
0
 10
82.499999
 20
150.299983
 30
0.0
 10
83.750000
 20
152.464994
 30
0.0
 10
86.249998
 20
152.464994
 30
0.0
 10
87.500000
 20
150.299983
 30
0.0
 10
86.249998
 20
148.135000
 30
0.0
 10
83.750000
 20
148.135000
 30
0.0
 10
82.499999
 20
150.299983
 30
0.0
  0
LWPOLYLINE
  5
10d
100
AcDbEntity
  8
0
 62
7
100
AcDbPolyline
 90
7
 70
0
 10
92.499998
 20
150.299983
 30
0.0
 10
93.750000
 20
152.464994
 30
0.0
 10
96.249998
 20
152.464994
 30
0.0
 10
97.500000
 20
150.299983
 30
0.0
 10
96.249998
 20
148.135000
 30
0.0
 10
93.750000
 20
148.135000
 30
0.0
 10
92.499998
 20
150.299983
 30
0.0
  0
LWPOLYLINE
  5
10e
100
AcDbEntity
  8
0
 62
7
100
AcDbPolyline
 90
10
 70
0
 10
120.249998
 20
33.999987
 30
0.0
 10
120.249998
 20
123.249999
 30
0.0
 10
165.499999
 20
123.249999
 30
0.0
 10
165.499999
 20
33.999987
 30
0.0
 10
146.500001
 20
33.999987
 30
0.0
 10
146.500001
 20
59.237004
 30
0.0
 10
134.999998
 20
63.999983
 30
0.0
 10
123.499999
 20
59.237004
 30
0.0
 10
123.499999
 20
33.999987
 30
0.0
 10
120.249998
 20
33.999987
 30
0.0
  0
LWPOLYLINE
  5
10f
100
AcDbEntity
  8
0
 62
7
100
AcDbPolyline
 90
10
 70
0
 10
120.249998
 20
123.749984
 30
0.0
 10
120.249998
 20
262.999997
 30
0.0
 10
123.499999
 20
262.999997
 30
0.0
 10
123.499999
 20
237.762998
 30
0.0
 10
134.999998
 20
232.999995
 30
0.0
 10
146.500001
 20
237.762998
 30
0.0
 10
146.500001
 20
262.999997
 30
0.0
 10
165.499999
 20
262.999997
 30
0.0
 10
165.499999
 20
123.749984
 30
0.0
 10
120.249998
 20
123.749984
 30
0.0
  0
LWPOLYLINE
  5
110
100
AcDbEntity
  8
0
 62
7
100
AcDbPolyline
 90
31
 70
0
 10
122.338998
 20
203.058997
 30
0.0
 10
122.516000
 20
203.748997
 30
0.0
 10
123.000999
 20
204.231998
 30
0.0
 10
123.652001
 20
204.398997
 30
0.0
 10
124.248000
 20
204.238997
 30
0.0
 10
124.675000
 20
203.767996
 30
0.0
 10
125.104000
 20
204.398997
 30
0.0
 10
125.918999
 20
204.623996
 30
0.0
 10
127.039999
 20
204.185995
 30
0.0
 10
127.499999
 20
203.080997
 30
0.0
 10
127.103999
 20
202.078998
 30
0.0
 10
126.076998
 20
201.624995
 30
0.0
 10
125.993999
 20
202.186996
 30
0.0
 10
126.753998
 20
202.516995
 30
0.0
 10
126.985999
 20
203.083997
 30
0.0
 10
126.683000
 20
203.753995
 30
0.0
 10
125.932001
 20
204.026997
 30
0.0
 10
125.228000
 20
203.773996
 30
0.0
 10
124.950999
 20
203.130998
 30
0.0
 10
125.019000
 20
202.733996
 30
0.0
 10
124.475000
 20
202.795997
 30
0.0
 10
124.481999
 20
202.886997
 30
0.0
 10
124.275001
 20
203.533997
 30
0.0
 10
123.638000
 20
203.820997
 30
0.0
 10
123.072999
 20
203.611995
 30
0.0
 10
122.848999
 20
203.070998
 30
0.0
 10
123.075999
 20
202.524996
 30
0.0
 10
123.759000
 20
202.243996
 30
0.0
 10
123.647999
 20
201.680997
 30
0.0
 10
122.682000
 20
202.149996
 30
0.0
 10
122.338998
 20
203.058997
 30
0.0
  0
LWPOLYLINE
  5
111
100
AcDbEntity
  8
0
 62
7
100
AcDbPolyline
 90
13
 70
0
 10
122.341998
 20
206.561996
 30
0.0
 10
122.506001
 20
207.210997
 30
0.0
 10
122.978000
 20
207.672998
 30
0.0
 10
123.728999
 20
207.956995
 30
0.0
 10
124.923000
 20
208.060997
 30
0.0
 10
126.356999
 20
207.894997
 30
0.0
 10
127.202001
 20
207.397998
 30
0.0
 10
127.499999
 20
206.561996
 30
0.0
 10
126.976000
 20
205.517997
 30
0.0
 10
124.923000
 20
205.062995
 30
0.0
 10
123.480999
 20
205.230997
 30
0.0
 10
122.639001
 20
205.728997
 30
0.0
 10
122.341998
 20
206.561996
 30
0.0
  0
LWPOLYLINE
  5
112
100
AcDbEntity
  8
0
 62
7
100
AcDbPolyline
 90
23
 70
0
 10
122.428999
 20
199.765998
 30
0.0
 10
122.831998
 20
200.799998
 30
0.0
 10
123.831000
 20
201.180998
 30
0.0
 10
124.427000
 20
201.068998
 30
0.0
 10
125.044000
 20
200.698996
 30
0.0
 10
125.932001
 20
199.840995
 30
0.0
 10
126.568000
 20
199.196995
 30
0.0
 10
126.903999
 20
198.961997
 30
0.0
 10
126.903999
 20
201.186998
 30
0.0
 10
127.499999
 20
201.186998
 30
0.0
 10
127.499999
 20
198.187997
 30
0.0
 10
127.069001
 20
198.252996
 30
0.0
 10
126.396998
 20
198.619998
 30
0.0
 10
125.631998
 20
199.348997
 30
0.0
 10
124.563000
 20
200.347996
 30
0.0
 10
123.816999
 20
200.607996
 30
0.0
 10
123.194998
 20
200.370997
 30
0.0
 10
122.942000
 20
199.753997
 30
0.0
 10
123.211000
 20
199.110996
 30
0.0
 10
123.955000
 20
198.865997
 30
0.0
 10
123.889000
 20
198.293997
 30
0.0
 10
122.801998
 20
198.735996
 30
0.0
 10
122.428999
 20
199.765998
 30
0.0
  0
LWPOLYLINE
  5
113
100
AcDbEntity
  8
0
 62
7
100
AcDbPolyline
 90
9
 70
0
 10
122.855998
 20
206.555996
 30
0.0
 10
123.266000
 20
207.215995
 30
0.0
 10
124.923000
 20
207.480996
 30
0.0
 10
126.576001
 20
207.215995
 30
0.0
 10
126.989998
 20
206.561996
 30
0.0
 10
126.577999
 20
205.907997
 30
0.0
 10
124.923000
 20
205.642996
 30
0.0
 10
123.217000
 20
205.933995
 30
0.0
 10
122.855998
 20
206.555996
 30
0.0
  0
LWPOLYLINE
  5
114
100
AcDbEntity
  8
0
 62
7
100
AcDbPolyline
 90
29
 70
0
 10
123.759000
 20
213.061997
 30
0.0
 10
123.926998
 20
213.512997
 30
0.0
 10
124.399000
 20
213.760997
 30
0.0
 10
123.759000
 20
214.524998
 30
0.0
 10
124.059998
 20
215.090997
 30
0.0
 10
124.987998
 20
215.288996
 30
0.0
 10
127.499999
 20
215.288996
 30
0.0
 10
127.499999
 20
214.715997
 30
0.0
 10
125.225999
 20
214.684995
 30
0.0
 10
124.721998
 20
214.707008
 30
0.0
 10
124.457999
 20
214.558997
 30
0.0
 10
124.514000
 20
214.306995
 30
0.0
 10
124.802000
 20
213.935997
 30
0.0
 10
125.373999
 20
213.825995
 30
0.0
 10
127.499999
 20
213.825995
 30
0.0
 10
127.530998
 20
213.344996
 30
0.0
 10
125.216000
 20
213.282997
 30
0.0
 10
124.626999
 20
213.210996
 30
0.0
 10
124.482998
 20
212.968997
 30
0.0
 10
124.651999
 20
212.766996
 30
0.0
 10
124.868000
 20
212.517997
 30
0.0
 10
125.631998
 20
212.543990
 30
0.0
 10
127.469000
 20
212.574997
 30
0.0
 10
127.499999
 20
211.937996
 30
0.0
 10
123.840999
 20
211.937996
 30
0.0
 10
123.840999
 20
212.311997
 30
0.0
 10
124.354000
 20
212.311997
 30
0.0
 10
123.922000
 20
212.621996
 30
0.0
 10
123.759000
 20
213.061997
 30
0.0
  0
LWPOLYLINE
  5
115
100
AcDbEntity
  8
0
 62
7
100
AcDbPolyline
 90
29
 70
0
 10
123.759000
 20
216.499997
 30
0.0
 10
123.926998
 20
216.950997
 30
0.0
 10
124.399000
 20
217.198997
 30
0.0
 10
123.759000
 20
217.961996
 30
0.0
 10
124.059998
 20
218.528997
 30
0.0
 10
124.987998
 20
218.726996
 30
0.0
 10
127.499999
 20
218.726996
 30
0.0
 10
127.499999
 20
218.153997
 30
0.0
 10
125.225999
 20
218.121996
 30
0.0
 10
124.721998
 20
218.143981
 30
0.0
 10
124.457999
 20
217.995998
 30
0.0
 10
124.514000
 20
217.744995
 30
0.0
 10
124.802000
 20
217.373997
 30
0.0
 10
125.373999
 20
217.263995
 30
0.0
 10
127.499999
 20
217.263995
 30
0.0
 10
127.530998
 20
216.782996
 30
0.0
 10
125.216000
 20
216.719998
 30
0.0
 10
124.626999
 20
216.648997
 30
0.0
 10
124.482998
 20
216.406997
 30
0.0
 10
124.651999
 20
216.203997
 30
0.0
 10
124.868000
 20
215.955997
 30
0.0
 10
125.631998
 20
215.981002
 30
0.0
 10
127.469000
 20
216.011996
 30
0.0
 10
127.499999
 20
215.374997
 30
0.0
 10
123.840999
 20
215.374997
 30
0.0
 10
123.840999
 20
215.749997
 30
0.0
 10
124.354000
 20
215.749997
 30
0.0
 10
123.922000
 20
216.059996
 30
0.0
 10
123.759000
 20
216.499997
 30
0.0
  0
LWPOLYLINE
  5
116
100
AcDbEntity
  8
0
 62
7
100
AcDbPolyline
 90
21
 70
0
 10
132.999999
 20
57.999995
 30
0.0
 10
133.097998
 20
58.618006
 30
0.0
 10
133.381998
 20
59.175987
 30
0.0
 10
133.823998
 20
59.618004
 30
0.0
 10
134.381999
 20
59.902004
 30
0.0
 10
134.999998
 20
59.999991
 30
0.0
 10
135.618000
 20
59.902004
 30
0.0
 10
136.175998
 20
59.618004
 30
0.0
 10
136.617998
 20
59.175987
 30
0.0
 10
136.901998
 20
58.618006
 30
0.0
 10
137.000000
 20
57.999995
 30
0.0
 10
136.901998
 20
57.381985
 30
0.0
 10
136.617998
 20
56.824004
 30
0.0
 10
136.175998
 20
56.381987
 30
0.0
 10
135.618000
 20
56.097987
 30
0.0
 10
134.999998
 20
55.999999
 30
0.0
 10
134.381999
 20
56.097987
 30
0.0
 10
133.823998
 20
56.381987
 30
0.0
 10
133.381998
 20
56.824004
 30
0.0
 10
133.097998
 20
57.381985
 30
0.0
 10
132.999999
 20
57.999995
 30
0.0
  0
LWPOLYLINE
  5
117
100
AcDbEntity
  8
0
 62
7
100
AcDbPolyline
 90
21
 70
0
 10
132.999999
 20
238.999997
 30
0.0
 10
133.097998
 20
239.617996
 30
0.0
 10
133.381998
 20
240.175998
 30
0.0
 10
133.823998
 20
240.617997
 30
0.0
 10
134.381999
 20
240.901997
 30
0.0
 10
134.999998
 20
240.999996
 30
0.0
 10
135.618000
 20
240.901997
 30
0.0
 10
136.175998
 20
240.617997
 30
0.0
 10
136.617998
 20
240.175998
 30
0.0
 10
136.901998
 20
239.617996
 30
0.0
 10
137.000000
 20
238.999997
 30
0.0
 10
136.901998
 20
238.381996
 30
0.0
 10
136.617998
 20
237.823997
 30
0.0
 10
136.175998
 20
237.381998
 30
0.0
 10
135.618000
 20
237.097997
 30
0.0
 10
134.999998
 20
236.999996
 30
0.0
 10
134.381999
 20
237.097997
 30
0.0
 10
133.823998
 20
237.381998
 30
0.0
 10
133.381998
 20
237.823997
 30
0.0
 10
133.097998
 20
238.381996
 30
0.0
 10
132.999999
 20
238.999997
 30
0.0
  0
ENDSEC
  0
SECTION
  2
OBJECTS
  0
DICTIONARY
  5
C
330
0
100
AcDbDictionary
  3
ACAD_GROUP
350
D
  3
ACAD_MLINESTYLE
350
17
  0
DICTIONARY
  5
D
330
C
100
AcDbDictionary
  0
DICTIONARY
  5
1A
330
C
100
AcDbDictionary
  0
DICTIONARY
  5
17
330
C
100
AcDbDictionary
  3
STANDARD
350
18
  0
DICTIONARY
  5
19
330
C
100
AcDbDictionary
  0
ENDSEC
  0
EOF
