  0
SECTION
  2
HEADER
  9
$ACADVER
  1
AC1014
  9
$HANDSEED
  5
FFFF
  9
$MEASUREMENT
 70
     1
  0
ENDSEC
  0
SECTION
  2
TABLES
  0
TABLE
  2
VPORT
  5
8
330
0
100
AcDbSymbolTable
 70
     4
  0
VPORT
  5
2E
330
8
100
AcDbSymbolTableRecord
100
AcDbViewportTableRecord
  2
*ACTIVE
 70
     0
 10
0.0
 20
0.0
 11
1.0
 21
1.0
 12
210.0
 22
148.5
 13
0.0
 23
0.0
 14
10.0
 24
10.0
 15
10.0
 25
10.0
 16
0.0
 26
0.0
 36
1.0
 17
0.0
 27
0.0
 37
0.0
 40
341.0
 41
1.24
 42
50.0
 43
0.0
 44
0.0
 50
0.0
 51
0.0
 71
     0
 72
   100
 73
     1
 74
     3
 75
     0
 76
     0
 77
     0
 78
     0
  0
ENDTAB
  0
TABLE
  2
LTYPE
  5
5
330
0
100
AcDbSymbolTable
 70
     1
  0
LTYPE
  5
14
330
5
100
AcDbSymbolTableRecord
100
AcDbLinetypeTableRecord
  2
BYBLOCK
 70
     0
  3

 72
    65
 73
     0
 40
0.0
  0
LTYPE
  5
15
330
5
100
AcDbSymbolTableRecord
100
AcDbLinetypeTableRecord
  2
BYLAYER
 70
     0
  3

 72
    65
 73
     0
 40
0.0
  0
LTYPE
  5
16
330
5
100
AcDbSymbolTableRecord
100
AcDbLinetypeTableRecord
  2
CONTINUOUS
 70
     0
  3
Solid line
 72
    65
 73
     0
 40
0.0
  0
ENDTAB
  0
TABLE
  2
LAYER
  5
2
100
AcDbSymbolTable
 70
1
  0
LAYER
  5
50
100
AcDbSymbolTableRecord
100
AcDbLayerTableRecord
  2
0
 70
0
  6
CONTINUOUS
  0
ENDTAB
  0
TABLE
  2
STYLE
  5
3
330
0
100
AcDbSymbolTable
 70
     1
  0
STYLE
  5
11
330
3
100
AcDbSymbolTableRecord
100
AcDbTextStyleTableRecord
  2
STANDARD
 70
     0
 40
0.0
 41
1.0
 50
0.0
 71
     0
 42
2.5
  3
txt
  4

  0
ENDTAB
  0
TABLE
  2
VIEW
  5
6
330
0
100
AcDbSymbolTable
 70
     0
  0
ENDTAB
  0
TABLE
  2
UCS
  5
7
330
0
100
AcDbSymbolTable
 70
     0
  0
ENDTAB
  0
TABLE
  2
APPID
  5
9
330
0
100
AcDbSymbolTable
 70
     2
  0
APPID
  5
12
330
9
100
AcDbSymbolTableRecord
100
AcDbRegAppTableRecord
  2
ACAD
 70
     0
  0
ENDTAB
  0
TABLE
  2
DIMSTYLE
  5
A
330
0
100
AcDbSymbolTable
 70
     1
  0
DIMSTYLE
105
27
330
A
100
AcDbSymbolTableRecord
100
AcDbDimStyleTableRecord
  2
ISO-25
 70
     0
  3

  4

  5

  6

  7

 40
1.0
 41
2.5
 42
0.625
 43
3.75
 44
1.25
 45
0.0
 46
0.0
 47
0.0
 48
0.0
140
2.5
141
2.5
142
0.0
143
0.03937007874016
144
1.0
145
0.0
146
1.0
147
0.625
 71
     0
 72
     0
 73
     0
 74
     0
 75
     0
 76
     0
 77
     1
 78
     8
170
     0
171
     3
172
     1
173
     0
174
     0
175
     0
176
     0
177
     0
178
     0
270
     2
271
     2
272
     2
273
     2
274
     3
340
11
275
     0
280
     0
281
     0
282
     0
283
     0
284
     8
285
     0
286
     0
287
     3
288
     0
  0
ENDTAB
  0
TABLE
  2
BLOCK_RECORD
  5
1
330
0
100
AcDbSymbolTable
 70
     1
  0
BLOCK_RECORD
  5
1F
330
1
100
AcDbSymbolTableRecord
100
AcDbBlockTableRecord
  2
*MODEL_SPACE
  0
BLOCK_RECORD
  5
1B
330
1
100
AcDbSymbolTableRecord
100
AcDbBlockTableRecord
  2
*PAPER_SPACE
  0
ENDTAB
  0
ENDSEC
  0
SECTION
  2
BLOCKS
  0
BLOCK
  5
20
330
1F
100
AcDbEntity
  8
0
100
AcDbBlockBegin
  2
*MODEL_SPACE
 70
     0
 10
0.0
 20
0.0
 30
0.0
  3
*MODEL_SPACE
  1

  0
ENDBLK
  5
21
330
1F
100
AcDbEntity
  8
0
100
AcDbBlockEnd
  0
BLOCK
  5
1C
330
1B
100
AcDbEntity
 67
     1
  8
0
100
AcDbBlockBegin
  2
*PAPER_SPACE
  1

  0
ENDBLK
  5
1D
330
1B
100
AcDbEntity
 67
     1
  8
0
100
AcDbBlockEnd
  0
ENDSEC
  0
SECTION
  2
ENTITIES
  0
LWPOLYLINE
  5
100
100
AcDbEntity
  8
0
 62
7
100
AcDbPolyline
 90
7
 70
0
 10
-4.500002
 20
26.500013
 30
0.0
 10
-4.500002
 20
55.500012
 30
0.0
 10
3.499999
 20
55.500012
 30
0.0
 10
3.499999
 20
41.500011
 30
0.0
 10
25.500000
 20
41.500011
 30
0.0
 10
25.500000
 20
26.500013
 30
0.0
 10
-4.500002
 20
26.500013
 30
0.0
  0
LWPOLYLINE
  5
101
100
AcDbEntity
  8
0
 62
7
100
AcDbPolyline
 90
7
 70
0
 10
-4.500002
 20
241.500007
 30
0.0
 10
-4.500002
 20
270.500005
 30
0.0
 10
25.500000
 20
270.500005
 30
0.0
 10
25.500000
 20
255.500007
 30
0.0
 10
3.499999
 20
255.500007
 30
0.0
 10
3.499999
 20
241.500007
 30
0.0
 10
-4.500002
 20
241.500007
 30
0.0
  0
LWPOLYLINE
  5
102
100
AcDbEntity
  8
0
 62
7
100
AcDbPolyline
 90
7
 70
0
 10
7.999998
 20
36.900015
 30
0.0
 10
9.250000
 20
39.064998
 30
0.0
 10
11.749998
 20
39.064998
 30
0.0
 10
12.999999
 20
36.900015
 30
0.0
 10
11.749998
 20
34.735004
 30
0.0
 10
9.250000
 20
34.735004
 30
0.0
 10
7.999998
 20
36.900015
 30
0.0
  0
LWPOLYLINE
  5
103
100
AcDbEntity
  8
0
 62
7
100
AcDbPolyline
 90
7
 70
0
 10
7.999998
 20
260.100006
 30
0.0
 10
9.250000
 20
262.265006
 30
0.0
 10
11.749998
 20
262.265006
 30
0.0
 10
12.999999
 20
260.100006
 30
0.0
 10
11.749998
 20
257.935006
 30
0.0
 10
9.250000
 20
257.935006
 30
0.0
 10
7.999998
 20
260.100006
 30
0.0
  0
LWPOLYLINE
  5
104
100
AcDbEntity
  8
0
 62
7
100
AcDbPolyline
 90
7
 70
0
 10
17.000000
 20
130.900008
 30
0.0
 10
17.000000
 20
150.900007
 30
0.0
 10
36.999999
 20
150.900007
 30
0.0
 10
36.999999
 20
199.542006
 30
0.0
 10
41.999998
 20
199.542006
 30
0.0
 10
41.999998
 20
130.900008
 30
0.0
 10
17.000000
 20
130.900008
 30
0.0
  0
LWPOLYLINE
  5
105
100
AcDbEntity
  8
0
 62
7
100
AcDbPolyline
 90
7
 70
0
 10
17.999998
 20
36.900015
 30
0.0
 10
19.250000
 20
39.064998
 30
0.0
 10
21.749997
 20
39.064998
 30
0.0
 10
22.999999
 20
36.900015
 30
0.0
 10
21.749997
 20
34.735004
 30
0.0
 10
19.250000
 20
34.735004
 30
0.0
 10
17.999998
 20
36.900015
 30
0.0
  0
LWPOLYLINE
  5
106
100
AcDbEntity
  8
0
 62
7
100
AcDbPolyline
 90
7
 70
0
 10
17.999998
 20
260.100006
 30
0.0
 10
19.250000
 20
262.265006
 30
0.0
 10
21.749997
 20
262.265006
 30
0.0
 10
22.999999
 20
260.100006
 30
0.0
 10
21.749997
 20
257.935006
 30
0.0
 10
19.250000
 20
257.935006
 30
0.0
 10
17.999998
 20
260.100006
 30
0.0
  0
LWPOLYLINE
  5
107
100
AcDbEntity
  8
0
 62
7
100
AcDbPolyline
 90
7
 70
0
 10
19.499998
 20
135.900006
 30
0.0
 10
20.749999
 20
138.065006
 30
0.0
 10
23.249997
 20
138.065006
 30
0.0
 10
24.499999
 20
135.900006
 30
0.0
 10
23.249997
 20
133.735006
 30
0.0
 10
20.749999
 20
133.735006
 30
0.0
 10
19.499998
 20
135.900006
 30
0.0
  0
LWPOLYLINE
  5
108
100
AcDbEntity
  8
0
 62
7
100
AcDbPolyline
 90
7
 70
0
 10
29.499997
 20
135.900006
 30
0.0
 10
30.749999
 20
138.065006
 30
0.0
 10
33.250000
 20
138.065006
 30
0.0
 10
34.499999
 20
135.900006
 30
0.0
 10
33.250000
 20
133.735006
 30
0.0
 10
30.749999
 20
133.735006
 30
0.0
 10
29.499997
 20
135.900006
 30
0.0
  0
LWPOLYLINE
  5
109
100
AcDbEntity
  8
0
 62
7
100
AcDbPolyline
 90
29
 70
0
 10
41.750000
 20
121.000005
 30
0.0
 10
41.750000
 20
126.000006
 30
0.0
 10
42.249999
 20
126.000006
 30
0.0
 10
42.249999
 20
123.750006
 30
0.0
 10
99.249998
 20
123.750006
 30
0.0
 10
99.249998
 20
253.250007
 30
0.0
 10
96.999998
 20
253.250007
 30
0.0
 10
96.999998
 20
253.750006
 30
0.0
 10
101.999999
 20
253.750006
 30
0.0
 10
101.999999
 20
253.250007
 30
0.0
 10
99.749999
 20
253.250007
 30
0.0
 10
99.749999
 20
123.750006
 30
0.0
 10
166.749998
 20
123.750006
 30
0.0
 10
166.749998
 20
126.000006
 30
0.0
 10
167.250000
 20
126.000006
 30
0.0
 10
167.250000
 20
121.000005
 30
0.0
 10
166.749998
 20
121.000005
 30
0.0
 10
166.749998
 20
123.250007
 30
0.0
 10
99.749999
 20
123.250007
 30
0.0
 10
99.749999
 20
43.750000
 30
0.0
 10
101.999999
 20
43.750000
 30
0.0
 10
101.999999
 20
43.250015
 30
0.0
 10
96.999998
 20
43.250015
 30
0.0
 10
96.999998
 20
43.750000
 30
0.0
 10
99.249998
 20
43.750000
 30
0.0
 10
99.249998
 20
123.250007
 30
0.0
 10
42.249999
 20
123.250007
 30
0.0
 10
42.249999
 20
121.000005
 30
0.0
 10
41.750000
 20
121.000005
 30
0.0
  0
LWPOLYLINE
  5
10a
100
AcDbEntity
  8
0
 62
7
100
AcDbPolyline
 90
29
 70
0
 10
54.272998
 20
128.488007
 30
0.0
 10
54.272998
 20
131.000005
 30
0.0
 10
54.846000
 20
131.000005
 30
0.0
 10
54.877998
 20
128.726008
 30
0.0
 10
54.856013
 20
128.222007
 30
0.0
 10
55.003999
 20
127.958005
 30
0.0
 10
55.254999
 20
128.014006
 30
0.0
 10
55.625997
 20
128.302005
 30
0.0
 10
55.735999
 20
128.874005
 30
0.0
 10
55.735999
 20
131.000005
 30
0.0
 10
56.216999
 20
131.031007
 30
0.0
 10
56.279999
 20
128.716006
 30
0.0
 10
56.350998
 20
128.128007
 30
0.0
 10
56.592998
 20
127.983007
 30
0.0
 10
56.795997
 20
128.152007
 30
0.0
 10
57.043997
 20
128.368006
 30
0.0
 10
57.018992
 20
129.133006
 30
0.0
 10
56.987000
 20
130.969005
 30
0.0
 10
57.625000
 20
131.000005
 30
0.0
 10
57.625000
 20
127.341008
 30
0.0
 10
57.250000
 20
127.341008
 30
0.0
 10
57.250000
 20
127.854006
 30
0.0
 10
56.939998
 20
127.422005
 30
0.0
 10
56.500000
 20
127.259005
 30
0.0
 10
56.048997
 20
127.428005
 30
0.0
 10
55.800998
 20
127.899006
 30
0.0
 10
55.037998
 20
127.259005
 30
0.0
 10
54.471000
 20
127.560006
 30
0.0
 10
54.272998
 20
128.488007
 30
0.0
  0
LWPOLYLINE
  5
10b
100
AcDbEntity
  8
0
 62
7
100
AcDbPolyline
 90
20
 70
0
 10
57.710999
 20
128.488007
 30
0.0
 10
57.710999
 20
131.000005
 30
0.0
 10
58.284000
 20
131.000005
 30
0.0
 10
58.314999
 20
128.726008
 30
0.0
 10
58.293014
 20
128.222007
 30
0.0
 10
58.441000
 20
127.958005
 30
0.0
 10
58.692999
 20
128.014006
 30
0.0
 10
59.064000
 20
128.302005
 30
0.0
 10
59.173999
 20
128.874005
 30
0.0
 10
59.173999
 20
131.000005
 30
0.0
 10
59.654999
 20
131.031007
 30
0.0
 10
59.716997
 20
128.716006
 30
0.0
 10
59.788998
 20
128.128007
 30
0.0
 10
60.030998
 20
127.983007
 30
0.0
 10
60.232998
 20
128.152007
 30
0.0
 10
60.482000
 20
128.368006
 30
0.0
 10
60.456008
 20
129.133006
 30
0.0
 10
60.425000
 20
130.969005
 30
0.0
 10
61.063000
 20
131.000005
 30
0.0
 10
61.061871
 20
127.341008
 30
0.0
  0
LWPOLYLINE
  5
10c
100
AcDbEntity
  8
0
 62
7
100
AcDbPolyline
 90
10
 70
0
 10
61.061998
 20
127.341008
 30
0.0
 10
60.686998
 20
127.341008
 30
0.0
 10
60.686998
 20
127.854006
 30
0.0
 10
60.377999
 20
127.422005
 30
0.0
 10
59.936998
 20
127.259005
 30
0.0
 10
59.486998
 20
127.428005
 30
0.0
 10
59.238998
 20
127.899006
 30
0.0
 10
58.474999
 20
127.259005
 30
0.0
 10
57.909000
 20
127.560006
 30
0.0
 10
57.710999
 20
128.488007
 30
0.0
  0
LWPOLYLINE
  5
10d
100
AcDbEntity
  8
0
 62
7
100
AcDbPolyline
 90
23
 70
0
 10
64.938997
 20
129.201007
 30
0.0
 10
65.296999
 20
130.387007
 30
0.0
 10
66.483998
 20
131.000005
 30
0.0
 10
67.490998
 20
130.614006
 30
0.0
 10
67.937998
 20
129.591007
 30
0.0
 10
67.353998
 20
129.536005
 30
0.0
 10
67.053999
 20
130.251007
 30
0.0
 10
66.483998
 20
130.490006
 30
0.0
 10
65.805998
 20
130.153005
 30
0.0
 10
65.527998
 20
129.257006
 30
0.0
 10
65.795000
 20
128.419006
 30
0.0
 10
66.494000
 20
128.113007
 30
0.0
 10
66.977999
 20
128.249007
 30
0.0
 10
67.317998
 20
128.602005
 30
0.0
 10
67.839000
 20
128.526005
 30
0.0
 10
67.401000
 20
125.932008
 30
0.0
 10
65.151999
 20
125.932008
 30
0.0
 10
65.151999
 20
126.524005
 30
0.0
 10
66.956000
 20
126.524005
 30
0.0
 10
67.199998
 20
127.882005
 30
0.0
 10
66.345999
 20
127.565007
 30
0.0
 10
65.345999
 20
128.023006
 30
0.0
 10
64.938997
 20
129.201007
 30
0.0
  0
LWPOLYLINE
  5
10e
100
AcDbEntity
  8
0
 62
7
100
AcDbPolyline
 90
23
 70
0
 10
68.375998
 20
130.404005
 30
0.0
 10
68.375998
 20
131.000005
 30
0.0
 10
71.373997
 20
131.000005
 30
0.0
 10
71.308999
 20
130.569006
 30
0.0
 10
70.942999
 20
129.897007
 30
0.0
 10
70.213999
 20
129.133006
 30
0.0
 10
69.213998
 20
128.063005
 30
0.0
 10
68.953998
 20
127.317007
 30
0.0
 10
69.191000
 20
126.695007
 30
0.0
 10
69.808000
 20
126.442006
 30
0.0
 10
70.452000
 20
126.711006
 30
0.0
 10
70.697000
 20
127.455006
 30
0.0
 10
71.268999
 20
127.389005
 30
0.0
 10
70.825998
 20
126.303006
 30
0.0
 10
69.796000
 20
125.929008
 30
0.0
 10
68.762999
 20
126.332007
 30
0.0
 10
68.381999
 20
127.331006
 30
0.0
 10
68.492999
 20
127.927005
 30
0.0
 10
68.862998
 20
128.544005
 30
0.0
 10
69.721998
 20
129.433005
 30
0.0
 10
70.365998
 20
130.068005
 30
0.0
 10
70.600999
 20
130.404005
 30
0.0
 10
68.375998
 20
130.404005
 30
0.0
  0
LWPOLYLINE
  5
10f
100
AcDbEntity
  8
0
 62
7
100
AcDbPolyline
 90
10
 70
0
 10
72.422997
 20
125.929008
 30
0.0
 10
72.422997
 20
131.000005
 30
0.0
 10
73.043000
 20
131.000005
 30
0.0
 10
73.043000
 20
127.048007
 30
0.0
 10
73.630999
 20
127.476006
 30
0.0
 10
74.283000
 20
127.796006
 30
0.0
 10
74.283000
 20
127.196007
 30
0.0
 10
73.373999
 20
126.604007
 30
0.0
 10
72.822999
 20
125.929008
 30
0.0
 10
72.422997
 20
125.929008
 30
0.0
  0
LWPOLYLINE
  5
110
100
AcDbEntity
  8
0
 62
7
100
AcDbPolyline
 90
13
 70
0
 10
101.842000
 20
206.562007
 30
0.0
 10
102.005999
 20
207.211006
 30
0.0
 10
102.477999
 20
207.672007
 30
0.0
 10
103.228998
 20
207.957006
 30
0.0
 10
104.422998
 20
208.061005
 30
0.0
 10
105.856998
 20
207.895005
 30
0.0
 10
106.701999
 20
207.398006
 30
0.0
 10
106.999998
 20
206.562007
 30
0.0
 10
106.475998
 20
205.517006
 30
0.0
 10
104.422998
 20
205.063007
 30
0.0
 10
102.980998
 20
205.231005
 30
0.0
 10
102.138999
 20
205.729006
 30
0.0
 10
101.842000
 20
206.562007
 30
0.0
  0
LWPOLYLINE
  5
111
100
AcDbEntity
  8
0
 62
7
100
AcDbPolyline
 90
23
 70
0
 10
101.928998
 20
199.766006
 30
0.0
 10
102.332000
 20
200.800006
 30
0.0
 10
103.330999
 20
201.181006
 30
0.0
 10
103.926998
 20
201.069006
 30
0.0
 10
104.543998
 20
200.699007
 30
0.0
 10
105.431999
 20
199.841007
 30
0.0
 10
106.067998
 20
199.197006
 30
0.0
 10
106.403998
 20
198.962006
 30
0.0
 10
106.403998
 20
201.187006
 30
0.0
 10
106.999998
 20
201.187006
 30
0.0
 10
106.999998
 20
198.188006
 30
0.0
 10
106.568999
 20
198.253007
 30
0.0
 10
105.897999
 20
198.620006
 30
0.0
 10
105.132999
 20
199.349006
 30
0.0
 10
104.062998
 20
200.348005
 30
0.0
 10
103.316998
 20
200.608008
 30
0.0
 10
102.695000
 20
200.371006
 30
0.0
 10
102.441999
 20
199.754006
 30
0.0
 10
102.710999
 20
199.111005
 30
0.0
 10
103.454999
 20
198.866005
 30
0.0
 10
103.388998
 20
198.294005
 30
0.0
 10
102.302999
 20
198.736005
 30
0.0
 10
101.928998
 20
199.766006
 30
0.0
  0
LWPOLYLINE
  5
112
100
AcDbEntity
  8
0
 62
7
100
AcDbPolyline
 90
10
 70
0
 10
101.928998
 20
203.615006
 30
0.0
 10
101.928998
 20
204.014006
 30
0.0
 10
106.999998
 20
204.014006
 30
0.0
 10
106.999998
 20
203.394007
 30
0.0
 10
103.047998
 20
203.394007
 30
0.0
 10
103.475999
 20
202.807007
 30
0.0
 10
103.795999
 20
202.154007
 30
0.0
 10
103.195998
 20
202.154007
 30
0.0
 10
102.604000
 20
203.064007
 30
0.0
 10
101.928998
 20
203.615006
 30
0.0
  0
LWPOLYLINE
  5
113
100
AcDbEntity
  8
0
 62
7
100
AcDbPolyline
 90
9
 70
0
 10
102.356000
 20
206.556007
 30
0.0
 10
102.765998
 20
207.216007
 30
0.0
 10
104.422998
 20
207.481008
 30
0.0
 10
106.075999
 20
207.216007
 30
0.0
 10
106.490000
 20
206.562007
 30
0.0
 10
106.077997
 20
205.908005
 30
0.0
 10
104.422998
 20
205.643007
 30
0.0
 10
102.716999
 20
205.934007
 30
0.0
 10
102.356000
 20
206.556007
 30
0.0
  0
LWPOLYLINE
  5
114
100
AcDbEntity
  8
0
 62
7
100
AcDbPolyline
 90
29
 70
0
 10
103.258998
 20
213.062006
 30
0.0
 10
103.427998
 20
213.513005
 30
0.0
 10
103.898999
 20
213.761005
 30
0.0
 10
103.258998
 20
214.525006
 30
0.0
 10
103.559999
 20
215.091006
 30
0.0
 10
104.488000
 20
215.289007
 30
0.0
 10
106.999998
 20
215.289007
 30
0.0
 10
106.999998
 20
214.716006
 30
0.0
 10
104.725998
 20
214.685006
 30
0.0
 10
104.222000
 20
214.706992
 30
0.0
 10
103.957998
 20
214.559006
 30
0.0
 10
104.013999
 20
214.307006
 30
0.0
 10
104.301998
 20
213.936006
 30
0.0
 10
104.873998
 20
213.826007
 30
0.0
 10
106.999998
 20
213.826007
 30
0.0
 10
107.031000
 20
213.345007
 30
0.0
 10
104.715999
 20
213.283005
 30
0.0
 10
104.128000
 20
213.211005
 30
0.0
 10
103.983000
 20
212.969005
 30
0.0
 10
104.152000
 20
212.767007
 30
0.0
 10
104.367999
 20
212.518005
 30
0.0
 10
105.132999
 20
212.543998
 30
0.0
 10
106.968998
 20
212.575006
 30
0.0
 10
106.999998
 20
211.938005
 30
0.0
 10
103.340998
 20
211.938005
 30
0.0
 10
103.340998
 20
212.312006
 30
0.0
 10
103.853999
 20
212.312006
 30
0.0
 10
103.421998
 20
212.622007
 30
0.0
 10
103.258998
 20
213.062006
 30
0.0
  0
LWPOLYLINE
  5
115
100
AcDbEntity
  8
0
 62
7
100
AcDbPolyline
 90
29
 70
0
 10
103.258998
 20
216.500006
 30
0.0
 10
103.427998
 20
216.951005
 30
0.0
 10
103.898999
 20
217.199005
 30
0.0
 10
103.258998
 20
217.962007
 30
0.0
 10
103.559999
 20
218.529006
 30
0.0
 10
104.488000
 20
218.727007
 30
0.0
 10
106.999998
 20
218.727007
 30
0.0
 10
106.999998
 20
218.154006
 30
0.0
 10
104.725998
 20
218.122007
 30
0.0
 10
104.222000
 20
218.144021
 30
0.0
 10
103.957998
 20
217.996007
 30
0.0
 10
104.013999
 20
217.745007
 30
0.0
 10
104.301998
 20
217.374006
 30
0.0
 10
104.873998
 20
217.264007
 30
0.0
 10
106.999998
 20
217.264007
 30
0.0
 10
107.031000
 20
216.783007
 30
0.0
 10
104.715999
 20
216.720006
 30
0.0
 10
104.128000
 20
216.649005
 30
0.0
 10
103.983000
 20
216.407005
 30
0.0
 10
104.152000
 20
216.204005
 30
0.0
 10
104.367999
 20
215.956006
 30
0.0
 10
105.132999
 20
215.981010
 30
0.0
 10
106.968998
 20
216.012007
 30
0.0
 10
106.999998
 20
215.375006
 30
0.0
 10
103.340998
 20
215.375006
 30
0.0
 10
103.340998
 20
215.750006
 30
0.0
 10
103.853999
 20
215.750006
 30
0.0
 10
103.421998
 20
216.060007
 30
0.0
 10
103.258998
 20
216.500006
 30
0.0
  0
LWPOLYLINE
  5
116
100
AcDbEntity
  8
0
 62
7
100
AcDbPolyline
 90
9
 70
0
 10
124.499999
 20
20.499997
 30
0.0
 10
124.499999
 20
55.500012
 30
0.0
 10
129.499998
 20
55.500012
 30
0.0
 10
129.499998
 20
34.499997
 30
0.0
 10
204.499999
 20
34.499997
 30
0.0
 10
204.499999
 20
55.500012
 30
0.0
 10
214.499999
 20
55.500012
 30
0.0
 10
214.499999
 20
20.499997
 30
0.0
 10
124.499999
 20
20.499997
 30
0.0
  0
LWPOLYLINE
  5
117
100
AcDbEntity
  8
0
 62
7
100
AcDbPolyline
 90
9
 70
0
 10
124.499999
 20
241.500007
 30
0.0
 10
124.499999
 20
276.500007
 30
0.0
 10
214.499999
 20
276.500007
 30
0.0
 10
214.499999
 20
241.500007
 30
0.0
 10
204.499999
 20
241.500007
 30
0.0
 10
204.499999
 20
262.500007
 30
0.0
 10
129.499998
 20
262.500007
 30
0.0
 10
129.499998
 20
241.500007
 30
0.0
 10
124.499999
 20
241.500007
 30
0.0
  0
LWPOLYLINE
  5
118
100
AcDbEntity
  8
0
 62
7
100
AcDbPolyline
 90
7
 70
0
 10
134.000000
 20
25.500015
 30
0.0
 10
135.249999
 20
27.664998
 30
0.0
 10
137.750000
 20
27.664998
 30
0.0
 10
138.999999
 20
25.500015
 30
0.0
 10
137.750000
 20
23.335004
 30
0.0
 10
135.249999
 20
23.335004
 30
0.0
 10
134.000000
 20
25.500015
 30
0.0
  0
LWPOLYLINE
  5
119
100
AcDbEntity
  8
0
 62
7
100
AcDbPolyline
 90
7
 70
0
 10
134.000000
 20
271.500006
 30
0.0
 10
135.249999
 20
273.665006
 30
0.0
 10
137.750000
 20
273.665006
 30
0.0
 10
138.999999
 20
271.500006
 30
0.0
 10
137.750000
 20
269.335006
 30
0.0
 10
135.249999
 20
269.335006
 30
0.0
 10
134.000000
 20
271.500006
 30
0.0
  0
LWPOLYLINE
  5
11a
100
AcDbEntity
  8
0
 62
7
100
AcDbPolyline
 90
7
 70
0
 10
166.999999
 20
132.458007
 30
0.0
 10
166.999999
 20
166.100005
 30
0.0
 10
191.999999
 20
166.100005
 30
0.0
 10
191.999999
 20
146.100005
 30
0.0
 10
171.999997
 20
146.100005
 30
0.0
 10
171.999997
 20
132.458007
 30
0.0
 10
166.999999
 20
132.458007
 30
0.0
  0
LWPOLYLINE
  5
11b
100
AcDbEntity
  8
0
 62
7
100
AcDbPolyline
 90
7
 70
0
 10
173.600000
 20
25.500015
 30
0.0
 10
174.849999
 20
27.664998
 30
0.0
 10
177.349999
 20
27.664998
 30
0.0
 10
178.599998
 20
25.500015
 30
0.0
 10
177.349999
 20
23.335004
 30
0.0
 10
174.849999
 20
23.335004
 30
0.0
 10
173.600000
 20
25.500015
 30
0.0
  0
LWPOLYLINE
  5
11c
100
AcDbEntity
  8
0
 62
7
100
AcDbPolyline
 90
7
 70
0
 10
173.600000
 20
271.500006
 30
0.0
 10
174.849999
 20
273.665006
 30
0.0
 10
177.349999
 20
273.665006
 30
0.0
 10
178.599998
 20
271.500006
 30
0.0
 10
177.349999
 20
269.335006
 30
0.0
 10
174.849999
 20
269.335006
 30
0.0
 10
173.600000
 20
271.500006
 30
0.0
  0
LWPOLYLINE
  5
11d
100
AcDbEntity
  8
0
 62
7
100
AcDbPolyline
 90
7
 70
0
 10
174.499998
 20
161.100007
 30
0.0
 10
175.750000
 20
163.265007
 30
0.0
 10
178.249998
 20
163.265007
 30
0.0
 10
179.499999
 20
161.100007
 30
0.0
 10
178.249998
 20
158.935006
 30
0.0
 10
175.750000
 20
158.935006
 30
0.0
 10
174.499998
 20
161.100007
 30
0.0
  0
LWPOLYLINE
  5
11e
100
AcDbEntity
  8
0
 62
7
100
AcDbPolyline
 90
7
 70
0
 10
184.499999
 20
161.100007
 30
0.0
 10
185.749999
 20
163.265007
 30
0.0
 10
188.249999
 20
163.265007
 30
0.0
 10
189.499999
 20
161.100007
 30
0.0
 10
188.249999
 20
158.935006
 30
0.0
 10
185.749999
 20
158.935006
 30
0.0
 10
184.499999
 20
161.100007
 30
0.0
  0
LWPOLYLINE
  5
11f
100
AcDbEntity
  8
0
 62
7
100
AcDbPolyline
 90
7
 70
0
 10
193.399999
 20
25.500015
 30
0.0
 10
194.649999
 20
27.664998
 30
0.0
 10
197.149999
 20
27.664998
 30
0.0
 10
198.399999
 20
25.500015
 30
0.0
 10
197.149999
 20
23.335004
 30
0.0
 10
194.649999
 20
23.335004
 30
0.0
 10
193.399999
 20
25.500015
 30
0.0
  0
LWPOLYLINE
  5
120
100
AcDbEntity
  8
0
 62
7
100
AcDbPolyline
 90
7
 70
0
 10
193.399999
 20
271.500006
 30
0.0
 10
194.649999
 20
273.665006
 30
0.0
 10
197.149999
 20
273.665006
 30
0.0
 10
198.399999
 20
271.500006
 30
0.0
 10
197.149999
 20
269.335006
 30
0.0
 10
194.649999
 20
269.335006
 30
0.0
 10
193.399999
 20
271.500006
 30
0.0
  0
ENDSEC
  0
SECTION
  2
OBJECTS
  0
DICTIONARY
  5
C
330
0
100
AcDbDictionary
  3
ACAD_GROUP
350
D
  3
ACAD_MLINESTYLE
350
17
  0
DICTIONARY
  5
D
330
C
100
AcDbDictionary
  0
DICTIONARY
  5
1A
330
C
100
AcDbDictionary
  0
DICTIONARY
  5
17
330
C
100
AcDbDictionary
  3
STANDARD
350
18
  0
DICTIONARY
  5
19
330
C
100
AcDbDictionary
  0
ENDSEC
  0
EOF
